G04 #@! TF.GenerationSoftware,KiCad,Pcbnew,5.0.1-33cea8e~68~ubuntu18.04.1*
G04 #@! TF.CreationDate,2018-10-28T17:04:56+09:00*
G04 #@! TF.ProjectId,modulo-ergo42-bottomplate,6D6F64756C6F2D6572676F34322D626F,rev?*
G04 #@! TF.SameCoordinates,Original*
G04 #@! TF.FileFunction,Copper,L2,Bot,Signal*
G04 #@! TF.FilePolarity,Positive*
%FSLAX46Y46*%
G04 Gerber Fmt 4.6, Leading zero omitted, Abs format (unit mm)*
G04 Created by KiCad (PCBNEW 5.0.1-33cea8e~68~ubuntu18.04.1) date 2018年10月28日 17時04分56秒*
%MOMM*%
%LPD*%
G01*
G04 APERTURE LIST*
G04 #@! TA.AperFunction,NonConductor*
%ADD10C,0.254000*%
G04 #@! TD*
G04 APERTURE END LIST*
D10*
G36*
X69648001Y-48190069D02*
X69634091Y-48260000D01*
X69689195Y-48537028D01*
X69846119Y-48771881D01*
X70080972Y-48928805D01*
X70288074Y-48970000D01*
X70288075Y-48970000D01*
X70358000Y-48983909D01*
X70427926Y-48970000D01*
X76892075Y-48970000D01*
X76962000Y-48983909D01*
X77239028Y-48928805D01*
X77473881Y-48771881D01*
X77630805Y-48537028D01*
X77672000Y-48329926D01*
X77685909Y-48260000D01*
X77672000Y-48190074D01*
X77672000Y-35000000D01*
X88698000Y-35000000D01*
X88698001Y-48190069D01*
X88684091Y-48260000D01*
X88739195Y-48537028D01*
X88896119Y-48771881D01*
X89130972Y-48928805D01*
X89338074Y-48970000D01*
X89338075Y-48970000D01*
X89408000Y-48983909D01*
X89477926Y-48970000D01*
X95942075Y-48970000D01*
X96012000Y-48983909D01*
X96289028Y-48928805D01*
X96523881Y-48771881D01*
X96680805Y-48537028D01*
X96722000Y-48329926D01*
X96735909Y-48260000D01*
X96722000Y-48190074D01*
X96722000Y-39116000D01*
X125514091Y-39116000D01*
X125528001Y-39185931D01*
X125528000Y-43237074D01*
X125514091Y-43307000D01*
X125569195Y-43584028D01*
X125726119Y-43818881D01*
X125960972Y-43975805D01*
X126238000Y-44030909D01*
X126307925Y-44017000D01*
X132899075Y-44017000D01*
X132969000Y-44030909D01*
X133246028Y-43975805D01*
X133480881Y-43818881D01*
X133637805Y-43584028D01*
X133679000Y-43376926D01*
X133679000Y-43376925D01*
X133692909Y-43307000D01*
X133679000Y-43237074D01*
X133679000Y-39185926D01*
X133692909Y-39116000D01*
X133637805Y-38838972D01*
X133480881Y-38604119D01*
X133246028Y-38447195D01*
X133038926Y-38406000D01*
X133038925Y-38406000D01*
X132969000Y-38392091D01*
X132899074Y-38406000D01*
X126307926Y-38406000D01*
X126238000Y-38392091D01*
X126168075Y-38406000D01*
X126168074Y-38406000D01*
X125960972Y-38447195D01*
X125726119Y-38604119D01*
X125569195Y-38838972D01*
X125514091Y-39116000D01*
X96722000Y-39116000D01*
X96722000Y-36241302D01*
X102730856Y-36241302D01*
X102743000Y-36483931D01*
X102743000Y-36726881D01*
X102756831Y-36760273D01*
X102758638Y-36796368D01*
X102917603Y-37180143D01*
X102932519Y-37184421D01*
X102955680Y-37240337D01*
X103348663Y-37633320D01*
X103404579Y-37656481D01*
X103408857Y-37671397D01*
X103637655Y-37753024D01*
X103862119Y-37846000D01*
X103898263Y-37846000D01*
X103932302Y-37858144D01*
X104174931Y-37846000D01*
X104417881Y-37846000D01*
X104451273Y-37832169D01*
X104487368Y-37830362D01*
X104871143Y-37671397D01*
X104875421Y-37656481D01*
X104931337Y-37633320D01*
X105324320Y-37240337D01*
X105347481Y-37184421D01*
X105362397Y-37180143D01*
X105444024Y-36951345D01*
X105537000Y-36726881D01*
X105537000Y-36690737D01*
X105549144Y-36656698D01*
X105537000Y-36414069D01*
X105537000Y-36241302D01*
X140830856Y-36241302D01*
X140843000Y-36483931D01*
X140843000Y-36726881D01*
X140856831Y-36760273D01*
X140858638Y-36796368D01*
X141017603Y-37180143D01*
X141032519Y-37184421D01*
X141055680Y-37240337D01*
X141448663Y-37633320D01*
X141504579Y-37656481D01*
X141508857Y-37671397D01*
X141737655Y-37753024D01*
X141962119Y-37846000D01*
X141998263Y-37846000D01*
X142032302Y-37858144D01*
X142274931Y-37846000D01*
X142517881Y-37846000D01*
X142551273Y-37832169D01*
X142587368Y-37830362D01*
X142971143Y-37671397D01*
X142975421Y-37656481D01*
X143031337Y-37633320D01*
X143424320Y-37240337D01*
X143447481Y-37184421D01*
X143462397Y-37180143D01*
X143544024Y-36951345D01*
X143637000Y-36726881D01*
X143637000Y-36690737D01*
X143649144Y-36656698D01*
X143637000Y-36414069D01*
X143637000Y-36171119D01*
X143623169Y-36137727D01*
X143621362Y-36101632D01*
X143462397Y-35717857D01*
X143447481Y-35713579D01*
X143424320Y-35657663D01*
X143031337Y-35264680D01*
X142975421Y-35241519D01*
X142971143Y-35226603D01*
X142742345Y-35144976D01*
X142517881Y-35052000D01*
X142481737Y-35052000D01*
X142447698Y-35039856D01*
X142205069Y-35052000D01*
X141962119Y-35052000D01*
X141928727Y-35065831D01*
X141892632Y-35067638D01*
X141508857Y-35226603D01*
X141504579Y-35241519D01*
X141448663Y-35264680D01*
X141055680Y-35657663D01*
X141032519Y-35713579D01*
X141017603Y-35717857D01*
X140935976Y-35946655D01*
X140843000Y-36171119D01*
X140843000Y-36207263D01*
X140830856Y-36241302D01*
X105537000Y-36241302D01*
X105537000Y-36171119D01*
X105523169Y-36137727D01*
X105521362Y-36101632D01*
X105362397Y-35717857D01*
X105347481Y-35713579D01*
X105324320Y-35657663D01*
X104931337Y-35264680D01*
X104875421Y-35241519D01*
X104871143Y-35226603D01*
X104642345Y-35144976D01*
X104417881Y-35052000D01*
X104381737Y-35052000D01*
X104347698Y-35039856D01*
X104105069Y-35052000D01*
X103862119Y-35052000D01*
X103828727Y-35065831D01*
X103792632Y-35067638D01*
X103408857Y-35226603D01*
X103404579Y-35241519D01*
X103348663Y-35264680D01*
X102955680Y-35657663D01*
X102932519Y-35713579D01*
X102917603Y-35717857D01*
X102835976Y-35946655D01*
X102743000Y-36171119D01*
X102743000Y-36207263D01*
X102730856Y-36241302D01*
X96722000Y-36241302D01*
X96722000Y-35000000D01*
X145848000Y-35000000D01*
X145848001Y-48190069D01*
X145834091Y-48260000D01*
X145889195Y-48537028D01*
X146046119Y-48771881D01*
X146280972Y-48928805D01*
X146488074Y-48970000D01*
X146488075Y-48970000D01*
X146558000Y-48983909D01*
X146627926Y-48970000D01*
X153092075Y-48970000D01*
X153162000Y-48983909D01*
X153439028Y-48928805D01*
X153673881Y-48771881D01*
X153830805Y-48537028D01*
X153872000Y-48329926D01*
X153885909Y-48260000D01*
X153872000Y-48190074D01*
X153872000Y-35000000D01*
X164898000Y-35000000D01*
X164898001Y-48190069D01*
X164884091Y-48260000D01*
X164939195Y-48537028D01*
X165096119Y-48771881D01*
X165330972Y-48928805D01*
X165538074Y-48970000D01*
X165538075Y-48970000D01*
X165608000Y-48983909D01*
X165677926Y-48970000D01*
X172142075Y-48970000D01*
X172212000Y-48983909D01*
X172489028Y-48928805D01*
X172723881Y-48771881D01*
X172880805Y-48537028D01*
X172922000Y-48329926D01*
X172935909Y-48260000D01*
X172922000Y-48190074D01*
X172922000Y-36241302D01*
X188201856Y-36241302D01*
X188214000Y-36483931D01*
X188214000Y-36726881D01*
X188227831Y-36760273D01*
X188229638Y-36796368D01*
X188388603Y-37180143D01*
X188403519Y-37184421D01*
X188426680Y-37240337D01*
X188819663Y-37633320D01*
X188875579Y-37656481D01*
X188879857Y-37671397D01*
X189108655Y-37753024D01*
X189333119Y-37846000D01*
X189369263Y-37846000D01*
X189403302Y-37858144D01*
X189645931Y-37846000D01*
X189888881Y-37846000D01*
X189922273Y-37832169D01*
X189958368Y-37830362D01*
X190342143Y-37671397D01*
X190346421Y-37656481D01*
X190402337Y-37633320D01*
X190795320Y-37240337D01*
X190818481Y-37184421D01*
X190833397Y-37180143D01*
X190915024Y-36951345D01*
X191008000Y-36726881D01*
X191008000Y-36690737D01*
X191020144Y-36656698D01*
X191008000Y-36414069D01*
X191008000Y-36171119D01*
X190994169Y-36137727D01*
X190992362Y-36101632D01*
X190833397Y-35717857D01*
X190818481Y-35713579D01*
X190795320Y-35657663D01*
X190402337Y-35264680D01*
X190346421Y-35241519D01*
X190342143Y-35226603D01*
X190113345Y-35144976D01*
X189888881Y-35052000D01*
X189852737Y-35052000D01*
X189818698Y-35039856D01*
X189576069Y-35052000D01*
X189333119Y-35052000D01*
X189299727Y-35065831D01*
X189263632Y-35067638D01*
X188879857Y-35226603D01*
X188875579Y-35241519D01*
X188819663Y-35264680D01*
X188426680Y-35657663D01*
X188403519Y-35713579D01*
X188388603Y-35717857D01*
X188306976Y-35946655D01*
X188214000Y-36171119D01*
X188214000Y-36207263D01*
X188201856Y-36241302D01*
X172922000Y-36241302D01*
X172922000Y-35000000D01*
X189814420Y-35000000D01*
X190198364Y-35054985D01*
X190504928Y-35194372D01*
X190760050Y-35414199D01*
X190943218Y-35696792D01*
X191046743Y-36042959D01*
X191060000Y-36221350D01*
X191060001Y-112344413D01*
X191005015Y-112728364D01*
X190865628Y-113034928D01*
X190645804Y-113290047D01*
X190363207Y-113473218D01*
X190017043Y-113576743D01*
X189838649Y-113590000D01*
X56565580Y-113590000D01*
X56181636Y-113535015D01*
X55875072Y-113395628D01*
X55619953Y-113175804D01*
X55436782Y-112893207D01*
X55333257Y-112547043D01*
X55320000Y-112368649D01*
X55320000Y-111933302D01*
X55359856Y-111933302D01*
X55372000Y-112175931D01*
X55372000Y-112418881D01*
X55385831Y-112452273D01*
X55387638Y-112488368D01*
X55546603Y-112872143D01*
X55561519Y-112876421D01*
X55584680Y-112932337D01*
X55977663Y-113325320D01*
X56033579Y-113348481D01*
X56037857Y-113363397D01*
X56266655Y-113445024D01*
X56491119Y-113538000D01*
X56527263Y-113538000D01*
X56561302Y-113550144D01*
X56803931Y-113538000D01*
X57046881Y-113538000D01*
X57080273Y-113524169D01*
X57116368Y-113522362D01*
X57500143Y-113363397D01*
X57504421Y-113348481D01*
X57560337Y-113325320D01*
X57953320Y-112932337D01*
X57976481Y-112876421D01*
X57991397Y-112872143D01*
X58073024Y-112643345D01*
X58166000Y-112418881D01*
X58166000Y-112382737D01*
X58178144Y-112348698D01*
X58166000Y-112106069D01*
X58166000Y-111933302D01*
X102730856Y-111933302D01*
X102743000Y-112175931D01*
X102743000Y-112418881D01*
X102756831Y-112452273D01*
X102758638Y-112488368D01*
X102917603Y-112872143D01*
X102932519Y-112876421D01*
X102955680Y-112932337D01*
X103348663Y-113325320D01*
X103404579Y-113348481D01*
X103408857Y-113363397D01*
X103637655Y-113445024D01*
X103862119Y-113538000D01*
X103898263Y-113538000D01*
X103932302Y-113550144D01*
X104174931Y-113538000D01*
X104417881Y-113538000D01*
X104451273Y-113524169D01*
X104487368Y-113522362D01*
X104871143Y-113363397D01*
X104875421Y-113348481D01*
X104931337Y-113325320D01*
X105324320Y-112932337D01*
X105347481Y-112876421D01*
X105362397Y-112872143D01*
X105444024Y-112643345D01*
X105537000Y-112418881D01*
X105537000Y-112382737D01*
X105549144Y-112348698D01*
X105537000Y-112106069D01*
X105537000Y-111933302D01*
X140830856Y-111933302D01*
X140843000Y-112175931D01*
X140843000Y-112418881D01*
X140856831Y-112452273D01*
X140858638Y-112488368D01*
X141017603Y-112872143D01*
X141032519Y-112876421D01*
X141055680Y-112932337D01*
X141448663Y-113325320D01*
X141504579Y-113348481D01*
X141508857Y-113363397D01*
X141737655Y-113445024D01*
X141962119Y-113538000D01*
X141998263Y-113538000D01*
X142032302Y-113550144D01*
X142274931Y-113538000D01*
X142517881Y-113538000D01*
X142551273Y-113524169D01*
X142587368Y-113522362D01*
X142971143Y-113363397D01*
X142975421Y-113348481D01*
X143031337Y-113325320D01*
X143424320Y-112932337D01*
X143447481Y-112876421D01*
X143462397Y-112872143D01*
X143544024Y-112643345D01*
X143637000Y-112418881D01*
X143637000Y-112382737D01*
X143649144Y-112348698D01*
X143637000Y-112106069D01*
X143637000Y-111933302D01*
X188201856Y-111933302D01*
X188214000Y-112175931D01*
X188214000Y-112418881D01*
X188227831Y-112452273D01*
X188229638Y-112488368D01*
X188388603Y-112872143D01*
X188403519Y-112876421D01*
X188426680Y-112932337D01*
X188819663Y-113325320D01*
X188875579Y-113348481D01*
X188879857Y-113363397D01*
X189108655Y-113445024D01*
X189333119Y-113538000D01*
X189369263Y-113538000D01*
X189403302Y-113550144D01*
X189645931Y-113538000D01*
X189888881Y-113538000D01*
X189922273Y-113524169D01*
X189958368Y-113522362D01*
X190342143Y-113363397D01*
X190346421Y-113348481D01*
X190402337Y-113325320D01*
X190795320Y-112932337D01*
X190818481Y-112876421D01*
X190833397Y-112872143D01*
X190915024Y-112643345D01*
X191008000Y-112418881D01*
X191008000Y-112382737D01*
X191020144Y-112348698D01*
X191008000Y-112106069D01*
X191008000Y-111863119D01*
X190994169Y-111829727D01*
X190992362Y-111793632D01*
X190833397Y-111409857D01*
X190818481Y-111405579D01*
X190795320Y-111349663D01*
X190402337Y-110956680D01*
X190346421Y-110933519D01*
X190342143Y-110918603D01*
X190113345Y-110836976D01*
X189888881Y-110744000D01*
X189852737Y-110744000D01*
X189818698Y-110731856D01*
X189576069Y-110744000D01*
X189333119Y-110744000D01*
X189299727Y-110757831D01*
X189263632Y-110759638D01*
X188879857Y-110918603D01*
X188875579Y-110933519D01*
X188819663Y-110956680D01*
X188426680Y-111349663D01*
X188403519Y-111405579D01*
X188388603Y-111409857D01*
X188306976Y-111638655D01*
X188214000Y-111863119D01*
X188214000Y-111899263D01*
X188201856Y-111933302D01*
X143637000Y-111933302D01*
X143637000Y-111863119D01*
X143623169Y-111829727D01*
X143621362Y-111793632D01*
X143462397Y-111409857D01*
X143447481Y-111405579D01*
X143424320Y-111349663D01*
X143031337Y-110956680D01*
X142975421Y-110933519D01*
X142971143Y-110918603D01*
X142742345Y-110836976D01*
X142517881Y-110744000D01*
X142481737Y-110744000D01*
X142447698Y-110731856D01*
X142205069Y-110744000D01*
X141962119Y-110744000D01*
X141928727Y-110757831D01*
X141892632Y-110759638D01*
X141508857Y-110918603D01*
X141504579Y-110933519D01*
X141448663Y-110956680D01*
X141055680Y-111349663D01*
X141032519Y-111405579D01*
X141017603Y-111409857D01*
X140935976Y-111638655D01*
X140843000Y-111863119D01*
X140843000Y-111899263D01*
X140830856Y-111933302D01*
X105537000Y-111933302D01*
X105537000Y-111863119D01*
X105523169Y-111829727D01*
X105521362Y-111793632D01*
X105362397Y-111409857D01*
X105347481Y-111405579D01*
X105324320Y-111349663D01*
X104931337Y-110956680D01*
X104875421Y-110933519D01*
X104871143Y-110918603D01*
X104642345Y-110836976D01*
X104417881Y-110744000D01*
X104381737Y-110744000D01*
X104347698Y-110731856D01*
X104105069Y-110744000D01*
X103862119Y-110744000D01*
X103828727Y-110757831D01*
X103792632Y-110759638D01*
X103408857Y-110918603D01*
X103404579Y-110933519D01*
X103348663Y-110956680D01*
X102955680Y-111349663D01*
X102932519Y-111405579D01*
X102917603Y-111409857D01*
X102835976Y-111638655D01*
X102743000Y-111863119D01*
X102743000Y-111899263D01*
X102730856Y-111933302D01*
X58166000Y-111933302D01*
X58166000Y-111863119D01*
X58152169Y-111829727D01*
X58150362Y-111793632D01*
X57991397Y-111409857D01*
X57976481Y-111405579D01*
X57953320Y-111349663D01*
X57560337Y-110956680D01*
X57504421Y-110933519D01*
X57500143Y-110918603D01*
X57271345Y-110836976D01*
X57046881Y-110744000D01*
X57010737Y-110744000D01*
X56976698Y-110731856D01*
X56734069Y-110744000D01*
X56491119Y-110744000D01*
X56457727Y-110757831D01*
X56421632Y-110759638D01*
X56037857Y-110918603D01*
X56033579Y-110933519D01*
X55977663Y-110956680D01*
X55584680Y-111349663D01*
X55561519Y-111405579D01*
X55546603Y-111409857D01*
X55464976Y-111638655D01*
X55372000Y-111863119D01*
X55372000Y-111899263D01*
X55359856Y-111933302D01*
X55320000Y-111933302D01*
X55320000Y-93137302D01*
X55359856Y-93137302D01*
X55372000Y-93379931D01*
X55372000Y-93622881D01*
X55385831Y-93656273D01*
X55387638Y-93692368D01*
X55546603Y-94076143D01*
X55561519Y-94080421D01*
X55584680Y-94136337D01*
X55977663Y-94529320D01*
X56033579Y-94552481D01*
X56037857Y-94567397D01*
X56266655Y-94649024D01*
X56491119Y-94742000D01*
X56527263Y-94742000D01*
X56561302Y-94754144D01*
X56803931Y-94742000D01*
X57046881Y-94742000D01*
X57080273Y-94728169D01*
X57116368Y-94726362D01*
X57500143Y-94567397D01*
X57504421Y-94552481D01*
X57560337Y-94529320D01*
X57953320Y-94136337D01*
X57976481Y-94080421D01*
X57991397Y-94076143D01*
X58073024Y-93847345D01*
X58166000Y-93622881D01*
X58166000Y-93586737D01*
X58178144Y-93552698D01*
X58166000Y-93310069D01*
X58166000Y-93137302D01*
X188201856Y-93137302D01*
X188214000Y-93379931D01*
X188214000Y-93622881D01*
X188227831Y-93656273D01*
X188229638Y-93692368D01*
X188388603Y-94076143D01*
X188403519Y-94080421D01*
X188426680Y-94136337D01*
X188819663Y-94529320D01*
X188875579Y-94552481D01*
X188879857Y-94567397D01*
X189108655Y-94649024D01*
X189333119Y-94742000D01*
X189369263Y-94742000D01*
X189403302Y-94754144D01*
X189645931Y-94742000D01*
X189888881Y-94742000D01*
X189922273Y-94728169D01*
X189958368Y-94726362D01*
X190342143Y-94567397D01*
X190346421Y-94552481D01*
X190402337Y-94529320D01*
X190795320Y-94136337D01*
X190818481Y-94080421D01*
X190833397Y-94076143D01*
X190915024Y-93847345D01*
X191008000Y-93622881D01*
X191008000Y-93586737D01*
X191020144Y-93552698D01*
X191008000Y-93310069D01*
X191008000Y-93067119D01*
X190994169Y-93033727D01*
X190992362Y-92997632D01*
X190833397Y-92613857D01*
X190818481Y-92609579D01*
X190795320Y-92553663D01*
X190402337Y-92160680D01*
X190346421Y-92137519D01*
X190342143Y-92122603D01*
X190113345Y-92040976D01*
X189888881Y-91948000D01*
X189852737Y-91948000D01*
X189818698Y-91935856D01*
X189576069Y-91948000D01*
X189333119Y-91948000D01*
X189299727Y-91961831D01*
X189263632Y-91963638D01*
X188879857Y-92122603D01*
X188875579Y-92137519D01*
X188819663Y-92160680D01*
X188426680Y-92553663D01*
X188403519Y-92609579D01*
X188388603Y-92613857D01*
X188306976Y-92842655D01*
X188214000Y-93067119D01*
X188214000Y-93103263D01*
X188201856Y-93137302D01*
X58166000Y-93137302D01*
X58166000Y-93067119D01*
X58152169Y-93033727D01*
X58150362Y-92997632D01*
X57991397Y-92613857D01*
X57976481Y-92609579D01*
X57953320Y-92553663D01*
X57560337Y-92160680D01*
X57504421Y-92137519D01*
X57500143Y-92122603D01*
X57271345Y-92040976D01*
X57046881Y-91948000D01*
X57010737Y-91948000D01*
X56976698Y-91935856D01*
X56734069Y-91948000D01*
X56491119Y-91948000D01*
X56457727Y-91961831D01*
X56421632Y-91963638D01*
X56037857Y-92122603D01*
X56033579Y-92137519D01*
X55977663Y-92160680D01*
X55584680Y-92553663D01*
X55561519Y-92609579D01*
X55546603Y-92613857D01*
X55464976Y-92842655D01*
X55372000Y-93067119D01*
X55372000Y-93103263D01*
X55359856Y-93137302D01*
X55320000Y-93137302D01*
X55320000Y-74087302D01*
X93205856Y-74087302D01*
X93218000Y-74329931D01*
X93218000Y-74572881D01*
X93231831Y-74606273D01*
X93233638Y-74642368D01*
X93392603Y-75026143D01*
X93407519Y-75030421D01*
X93430680Y-75086337D01*
X93823663Y-75479320D01*
X93879579Y-75502481D01*
X93883857Y-75517397D01*
X94112655Y-75599024D01*
X94337119Y-75692000D01*
X94373263Y-75692000D01*
X94407302Y-75704144D01*
X94649931Y-75692000D01*
X94892881Y-75692000D01*
X94926273Y-75678169D01*
X94962368Y-75676362D01*
X95346143Y-75517397D01*
X95350421Y-75502481D01*
X95406337Y-75479320D01*
X95799320Y-75086337D01*
X95822481Y-75030421D01*
X95837397Y-75026143D01*
X95919024Y-74797345D01*
X96012000Y-74572881D01*
X96012000Y-74536737D01*
X96024144Y-74502698D01*
X96012000Y-74260069D01*
X96012000Y-74087302D01*
X150355856Y-74087302D01*
X150368000Y-74329931D01*
X150368000Y-74572881D01*
X150381831Y-74606273D01*
X150383638Y-74642368D01*
X150542603Y-75026143D01*
X150557519Y-75030421D01*
X150580680Y-75086337D01*
X150973663Y-75479320D01*
X151029579Y-75502481D01*
X151033857Y-75517397D01*
X151262655Y-75599024D01*
X151487119Y-75692000D01*
X151523263Y-75692000D01*
X151557302Y-75704144D01*
X151799931Y-75692000D01*
X152042881Y-75692000D01*
X152076273Y-75678169D01*
X152112368Y-75676362D01*
X152496143Y-75517397D01*
X152500421Y-75502481D01*
X152556337Y-75479320D01*
X152949320Y-75086337D01*
X152972481Y-75030421D01*
X152987397Y-75026143D01*
X153069024Y-74797345D01*
X153162000Y-74572881D01*
X153162000Y-74536737D01*
X153174144Y-74502698D01*
X153162000Y-74260069D01*
X153162000Y-74017119D01*
X153148169Y-73983727D01*
X153146362Y-73947632D01*
X152987397Y-73563857D01*
X152972481Y-73559579D01*
X152949320Y-73503663D01*
X152556337Y-73110680D01*
X152500421Y-73087519D01*
X152496143Y-73072603D01*
X152267345Y-72990976D01*
X152042881Y-72898000D01*
X152006737Y-72898000D01*
X151972698Y-72885856D01*
X151730069Y-72898000D01*
X151487119Y-72898000D01*
X151453727Y-72911831D01*
X151417632Y-72913638D01*
X151033857Y-73072603D01*
X151029579Y-73087519D01*
X150973663Y-73110680D01*
X150580680Y-73503663D01*
X150557519Y-73559579D01*
X150542603Y-73563857D01*
X150460976Y-73792655D01*
X150368000Y-74017119D01*
X150368000Y-74053263D01*
X150355856Y-74087302D01*
X96012000Y-74087302D01*
X96012000Y-74017119D01*
X95998169Y-73983727D01*
X95996362Y-73947632D01*
X95837397Y-73563857D01*
X95822481Y-73559579D01*
X95799320Y-73503663D01*
X95406337Y-73110680D01*
X95350421Y-73087519D01*
X95346143Y-73072603D01*
X95117345Y-72990976D01*
X94892881Y-72898000D01*
X94856737Y-72898000D01*
X94822698Y-72885856D01*
X94580069Y-72898000D01*
X94337119Y-72898000D01*
X94303727Y-72911831D01*
X94267632Y-72913638D01*
X93883857Y-73072603D01*
X93879579Y-73087519D01*
X93823663Y-73110680D01*
X93430680Y-73503663D01*
X93407519Y-73559579D01*
X93392603Y-73563857D01*
X93310976Y-73792655D01*
X93218000Y-74017119D01*
X93218000Y-74053263D01*
X93205856Y-74087302D01*
X55320000Y-74087302D01*
X55320000Y-55037302D01*
X55359856Y-55037302D01*
X55372000Y-55279931D01*
X55372000Y-55522881D01*
X55385831Y-55556273D01*
X55387638Y-55592368D01*
X55546603Y-55976143D01*
X55561519Y-55980421D01*
X55584680Y-56036337D01*
X55977663Y-56429320D01*
X56033579Y-56452481D01*
X56037857Y-56467397D01*
X56266655Y-56549024D01*
X56491119Y-56642000D01*
X56527263Y-56642000D01*
X56561302Y-56654144D01*
X56803931Y-56642000D01*
X57046881Y-56642000D01*
X57080273Y-56628169D01*
X57116368Y-56626362D01*
X57500143Y-56467397D01*
X57504421Y-56452481D01*
X57560337Y-56429320D01*
X57953320Y-56036337D01*
X57976481Y-55980421D01*
X57991397Y-55976143D01*
X58073024Y-55747345D01*
X58166000Y-55522881D01*
X58166000Y-55486737D01*
X58178144Y-55452698D01*
X58166000Y-55210069D01*
X58166000Y-55037302D01*
X188201856Y-55037302D01*
X188214000Y-55279931D01*
X188214000Y-55522881D01*
X188227831Y-55556273D01*
X188229638Y-55592368D01*
X188388603Y-55976143D01*
X188403519Y-55980421D01*
X188426680Y-56036337D01*
X188819663Y-56429320D01*
X188875579Y-56452481D01*
X188879857Y-56467397D01*
X189108655Y-56549024D01*
X189333119Y-56642000D01*
X189369263Y-56642000D01*
X189403302Y-56654144D01*
X189645931Y-56642000D01*
X189888881Y-56642000D01*
X189922273Y-56628169D01*
X189958368Y-56626362D01*
X190342143Y-56467397D01*
X190346421Y-56452481D01*
X190402337Y-56429320D01*
X190795320Y-56036337D01*
X190818481Y-55980421D01*
X190833397Y-55976143D01*
X190915024Y-55747345D01*
X191008000Y-55522881D01*
X191008000Y-55486737D01*
X191020144Y-55452698D01*
X191008000Y-55210069D01*
X191008000Y-54967119D01*
X190994169Y-54933727D01*
X190992362Y-54897632D01*
X190833397Y-54513857D01*
X190818481Y-54509579D01*
X190795320Y-54453663D01*
X190402337Y-54060680D01*
X190346421Y-54037519D01*
X190342143Y-54022603D01*
X190113345Y-53940976D01*
X189888881Y-53848000D01*
X189852737Y-53848000D01*
X189818698Y-53835856D01*
X189576069Y-53848000D01*
X189333119Y-53848000D01*
X189299727Y-53861831D01*
X189263632Y-53863638D01*
X188879857Y-54022603D01*
X188875579Y-54037519D01*
X188819663Y-54060680D01*
X188426680Y-54453663D01*
X188403519Y-54509579D01*
X188388603Y-54513857D01*
X188306976Y-54742655D01*
X188214000Y-54967119D01*
X188214000Y-55003263D01*
X188201856Y-55037302D01*
X58166000Y-55037302D01*
X58166000Y-54967119D01*
X58152169Y-54933727D01*
X58150362Y-54897632D01*
X57991397Y-54513857D01*
X57976481Y-54509579D01*
X57953320Y-54453663D01*
X57560337Y-54060680D01*
X57504421Y-54037519D01*
X57500143Y-54022603D01*
X57271345Y-53940976D01*
X57046881Y-53848000D01*
X57010737Y-53848000D01*
X56976698Y-53835856D01*
X56734069Y-53848000D01*
X56491119Y-53848000D01*
X56457727Y-53861831D01*
X56421632Y-53863638D01*
X56037857Y-54022603D01*
X56033579Y-54037519D01*
X55977663Y-54060680D01*
X55584680Y-54453663D01*
X55561519Y-54509579D01*
X55546603Y-54513857D01*
X55464976Y-54742655D01*
X55372000Y-54967119D01*
X55372000Y-55003263D01*
X55359856Y-55037302D01*
X55320000Y-55037302D01*
X55320000Y-36245580D01*
X55320612Y-36241302D01*
X55359856Y-36241302D01*
X55372000Y-36483931D01*
X55372000Y-36726881D01*
X55385831Y-36760273D01*
X55387638Y-36796368D01*
X55546603Y-37180143D01*
X55561519Y-37184421D01*
X55584680Y-37240337D01*
X55977663Y-37633320D01*
X56033579Y-37656481D01*
X56037857Y-37671397D01*
X56266655Y-37753024D01*
X56491119Y-37846000D01*
X56527263Y-37846000D01*
X56561302Y-37858144D01*
X56803931Y-37846000D01*
X57046881Y-37846000D01*
X57080273Y-37832169D01*
X57116368Y-37830362D01*
X57500143Y-37671397D01*
X57504421Y-37656481D01*
X57560337Y-37633320D01*
X57953320Y-37240337D01*
X57976481Y-37184421D01*
X57991397Y-37180143D01*
X58073024Y-36951345D01*
X58166000Y-36726881D01*
X58166000Y-36690737D01*
X58178144Y-36656698D01*
X58166000Y-36414069D01*
X58166000Y-36171119D01*
X58152169Y-36137727D01*
X58150362Y-36101632D01*
X57991397Y-35717857D01*
X57976481Y-35713579D01*
X57953320Y-35657663D01*
X57560337Y-35264680D01*
X57504421Y-35241519D01*
X57500143Y-35226603D01*
X57271345Y-35144976D01*
X57046881Y-35052000D01*
X57010737Y-35052000D01*
X56976698Y-35039856D01*
X56734069Y-35052000D01*
X56491119Y-35052000D01*
X56457727Y-35065831D01*
X56421632Y-35067638D01*
X56037857Y-35226603D01*
X56033579Y-35241519D01*
X55977663Y-35264680D01*
X55584680Y-35657663D01*
X55561519Y-35713579D01*
X55546603Y-35717857D01*
X55464976Y-35946655D01*
X55372000Y-36171119D01*
X55372000Y-36207263D01*
X55359856Y-36241302D01*
X55320612Y-36241302D01*
X55374985Y-35861636D01*
X55514372Y-35555072D01*
X55734199Y-35299950D01*
X56016792Y-35116782D01*
X56362959Y-35013257D01*
X56541350Y-35000000D01*
X69648000Y-35000000D01*
X69648001Y-48190069D01*
X69648001Y-48190069D01*
G37*
X69648001Y-48190069D02*
X69634091Y-48260000D01*
X69689195Y-48537028D01*
X69846119Y-48771881D01*
X70080972Y-48928805D01*
X70288074Y-48970000D01*
X70288075Y-48970000D01*
X70358000Y-48983909D01*
X70427926Y-48970000D01*
X76892075Y-48970000D01*
X76962000Y-48983909D01*
X77239028Y-48928805D01*
X77473881Y-48771881D01*
X77630805Y-48537028D01*
X77672000Y-48329926D01*
X77685909Y-48260000D01*
X77672000Y-48190074D01*
X77672000Y-35000000D01*
X88698000Y-35000000D01*
X88698001Y-48190069D01*
X88684091Y-48260000D01*
X88739195Y-48537028D01*
X88896119Y-48771881D01*
X89130972Y-48928805D01*
X89338074Y-48970000D01*
X89338075Y-48970000D01*
X89408000Y-48983909D01*
X89477926Y-48970000D01*
X95942075Y-48970000D01*
X96012000Y-48983909D01*
X96289028Y-48928805D01*
X96523881Y-48771881D01*
X96680805Y-48537028D01*
X96722000Y-48329926D01*
X96735909Y-48260000D01*
X96722000Y-48190074D01*
X96722000Y-39116000D01*
X125514091Y-39116000D01*
X125528001Y-39185931D01*
X125528000Y-43237074D01*
X125514091Y-43307000D01*
X125569195Y-43584028D01*
X125726119Y-43818881D01*
X125960972Y-43975805D01*
X126238000Y-44030909D01*
X126307925Y-44017000D01*
X132899075Y-44017000D01*
X132969000Y-44030909D01*
X133246028Y-43975805D01*
X133480881Y-43818881D01*
X133637805Y-43584028D01*
X133679000Y-43376926D01*
X133679000Y-43376925D01*
X133692909Y-43307000D01*
X133679000Y-43237074D01*
X133679000Y-39185926D01*
X133692909Y-39116000D01*
X133637805Y-38838972D01*
X133480881Y-38604119D01*
X133246028Y-38447195D01*
X133038926Y-38406000D01*
X133038925Y-38406000D01*
X132969000Y-38392091D01*
X132899074Y-38406000D01*
X126307926Y-38406000D01*
X126238000Y-38392091D01*
X126168075Y-38406000D01*
X126168074Y-38406000D01*
X125960972Y-38447195D01*
X125726119Y-38604119D01*
X125569195Y-38838972D01*
X125514091Y-39116000D01*
X96722000Y-39116000D01*
X96722000Y-36241302D01*
X102730856Y-36241302D01*
X102743000Y-36483931D01*
X102743000Y-36726881D01*
X102756831Y-36760273D01*
X102758638Y-36796368D01*
X102917603Y-37180143D01*
X102932519Y-37184421D01*
X102955680Y-37240337D01*
X103348663Y-37633320D01*
X103404579Y-37656481D01*
X103408857Y-37671397D01*
X103637655Y-37753024D01*
X103862119Y-37846000D01*
X103898263Y-37846000D01*
X103932302Y-37858144D01*
X104174931Y-37846000D01*
X104417881Y-37846000D01*
X104451273Y-37832169D01*
X104487368Y-37830362D01*
X104871143Y-37671397D01*
X104875421Y-37656481D01*
X104931337Y-37633320D01*
X105324320Y-37240337D01*
X105347481Y-37184421D01*
X105362397Y-37180143D01*
X105444024Y-36951345D01*
X105537000Y-36726881D01*
X105537000Y-36690737D01*
X105549144Y-36656698D01*
X105537000Y-36414069D01*
X105537000Y-36241302D01*
X140830856Y-36241302D01*
X140843000Y-36483931D01*
X140843000Y-36726881D01*
X140856831Y-36760273D01*
X140858638Y-36796368D01*
X141017603Y-37180143D01*
X141032519Y-37184421D01*
X141055680Y-37240337D01*
X141448663Y-37633320D01*
X141504579Y-37656481D01*
X141508857Y-37671397D01*
X141737655Y-37753024D01*
X141962119Y-37846000D01*
X141998263Y-37846000D01*
X142032302Y-37858144D01*
X142274931Y-37846000D01*
X142517881Y-37846000D01*
X142551273Y-37832169D01*
X142587368Y-37830362D01*
X142971143Y-37671397D01*
X142975421Y-37656481D01*
X143031337Y-37633320D01*
X143424320Y-37240337D01*
X143447481Y-37184421D01*
X143462397Y-37180143D01*
X143544024Y-36951345D01*
X143637000Y-36726881D01*
X143637000Y-36690737D01*
X143649144Y-36656698D01*
X143637000Y-36414069D01*
X143637000Y-36171119D01*
X143623169Y-36137727D01*
X143621362Y-36101632D01*
X143462397Y-35717857D01*
X143447481Y-35713579D01*
X143424320Y-35657663D01*
X143031337Y-35264680D01*
X142975421Y-35241519D01*
X142971143Y-35226603D01*
X142742345Y-35144976D01*
X142517881Y-35052000D01*
X142481737Y-35052000D01*
X142447698Y-35039856D01*
X142205069Y-35052000D01*
X141962119Y-35052000D01*
X141928727Y-35065831D01*
X141892632Y-35067638D01*
X141508857Y-35226603D01*
X141504579Y-35241519D01*
X141448663Y-35264680D01*
X141055680Y-35657663D01*
X141032519Y-35713579D01*
X141017603Y-35717857D01*
X140935976Y-35946655D01*
X140843000Y-36171119D01*
X140843000Y-36207263D01*
X140830856Y-36241302D01*
X105537000Y-36241302D01*
X105537000Y-36171119D01*
X105523169Y-36137727D01*
X105521362Y-36101632D01*
X105362397Y-35717857D01*
X105347481Y-35713579D01*
X105324320Y-35657663D01*
X104931337Y-35264680D01*
X104875421Y-35241519D01*
X104871143Y-35226603D01*
X104642345Y-35144976D01*
X104417881Y-35052000D01*
X104381737Y-35052000D01*
X104347698Y-35039856D01*
X104105069Y-35052000D01*
X103862119Y-35052000D01*
X103828727Y-35065831D01*
X103792632Y-35067638D01*
X103408857Y-35226603D01*
X103404579Y-35241519D01*
X103348663Y-35264680D01*
X102955680Y-35657663D01*
X102932519Y-35713579D01*
X102917603Y-35717857D01*
X102835976Y-35946655D01*
X102743000Y-36171119D01*
X102743000Y-36207263D01*
X102730856Y-36241302D01*
X96722000Y-36241302D01*
X96722000Y-35000000D01*
X145848000Y-35000000D01*
X145848001Y-48190069D01*
X145834091Y-48260000D01*
X145889195Y-48537028D01*
X146046119Y-48771881D01*
X146280972Y-48928805D01*
X146488074Y-48970000D01*
X146488075Y-48970000D01*
X146558000Y-48983909D01*
X146627926Y-48970000D01*
X153092075Y-48970000D01*
X153162000Y-48983909D01*
X153439028Y-48928805D01*
X153673881Y-48771881D01*
X153830805Y-48537028D01*
X153872000Y-48329926D01*
X153885909Y-48260000D01*
X153872000Y-48190074D01*
X153872000Y-35000000D01*
X164898000Y-35000000D01*
X164898001Y-48190069D01*
X164884091Y-48260000D01*
X164939195Y-48537028D01*
X165096119Y-48771881D01*
X165330972Y-48928805D01*
X165538074Y-48970000D01*
X165538075Y-48970000D01*
X165608000Y-48983909D01*
X165677926Y-48970000D01*
X172142075Y-48970000D01*
X172212000Y-48983909D01*
X172489028Y-48928805D01*
X172723881Y-48771881D01*
X172880805Y-48537028D01*
X172922000Y-48329926D01*
X172935909Y-48260000D01*
X172922000Y-48190074D01*
X172922000Y-36241302D01*
X188201856Y-36241302D01*
X188214000Y-36483931D01*
X188214000Y-36726881D01*
X188227831Y-36760273D01*
X188229638Y-36796368D01*
X188388603Y-37180143D01*
X188403519Y-37184421D01*
X188426680Y-37240337D01*
X188819663Y-37633320D01*
X188875579Y-37656481D01*
X188879857Y-37671397D01*
X189108655Y-37753024D01*
X189333119Y-37846000D01*
X189369263Y-37846000D01*
X189403302Y-37858144D01*
X189645931Y-37846000D01*
X189888881Y-37846000D01*
X189922273Y-37832169D01*
X189958368Y-37830362D01*
X190342143Y-37671397D01*
X190346421Y-37656481D01*
X190402337Y-37633320D01*
X190795320Y-37240337D01*
X190818481Y-37184421D01*
X190833397Y-37180143D01*
X190915024Y-36951345D01*
X191008000Y-36726881D01*
X191008000Y-36690737D01*
X191020144Y-36656698D01*
X191008000Y-36414069D01*
X191008000Y-36171119D01*
X190994169Y-36137727D01*
X190992362Y-36101632D01*
X190833397Y-35717857D01*
X190818481Y-35713579D01*
X190795320Y-35657663D01*
X190402337Y-35264680D01*
X190346421Y-35241519D01*
X190342143Y-35226603D01*
X190113345Y-35144976D01*
X189888881Y-35052000D01*
X189852737Y-35052000D01*
X189818698Y-35039856D01*
X189576069Y-35052000D01*
X189333119Y-35052000D01*
X189299727Y-35065831D01*
X189263632Y-35067638D01*
X188879857Y-35226603D01*
X188875579Y-35241519D01*
X188819663Y-35264680D01*
X188426680Y-35657663D01*
X188403519Y-35713579D01*
X188388603Y-35717857D01*
X188306976Y-35946655D01*
X188214000Y-36171119D01*
X188214000Y-36207263D01*
X188201856Y-36241302D01*
X172922000Y-36241302D01*
X172922000Y-35000000D01*
X189814420Y-35000000D01*
X190198364Y-35054985D01*
X190504928Y-35194372D01*
X190760050Y-35414199D01*
X190943218Y-35696792D01*
X191046743Y-36042959D01*
X191060000Y-36221350D01*
X191060001Y-112344413D01*
X191005015Y-112728364D01*
X190865628Y-113034928D01*
X190645804Y-113290047D01*
X190363207Y-113473218D01*
X190017043Y-113576743D01*
X189838649Y-113590000D01*
X56565580Y-113590000D01*
X56181636Y-113535015D01*
X55875072Y-113395628D01*
X55619953Y-113175804D01*
X55436782Y-112893207D01*
X55333257Y-112547043D01*
X55320000Y-112368649D01*
X55320000Y-111933302D01*
X55359856Y-111933302D01*
X55372000Y-112175931D01*
X55372000Y-112418881D01*
X55385831Y-112452273D01*
X55387638Y-112488368D01*
X55546603Y-112872143D01*
X55561519Y-112876421D01*
X55584680Y-112932337D01*
X55977663Y-113325320D01*
X56033579Y-113348481D01*
X56037857Y-113363397D01*
X56266655Y-113445024D01*
X56491119Y-113538000D01*
X56527263Y-113538000D01*
X56561302Y-113550144D01*
X56803931Y-113538000D01*
X57046881Y-113538000D01*
X57080273Y-113524169D01*
X57116368Y-113522362D01*
X57500143Y-113363397D01*
X57504421Y-113348481D01*
X57560337Y-113325320D01*
X57953320Y-112932337D01*
X57976481Y-112876421D01*
X57991397Y-112872143D01*
X58073024Y-112643345D01*
X58166000Y-112418881D01*
X58166000Y-112382737D01*
X58178144Y-112348698D01*
X58166000Y-112106069D01*
X58166000Y-111933302D01*
X102730856Y-111933302D01*
X102743000Y-112175931D01*
X102743000Y-112418881D01*
X102756831Y-112452273D01*
X102758638Y-112488368D01*
X102917603Y-112872143D01*
X102932519Y-112876421D01*
X102955680Y-112932337D01*
X103348663Y-113325320D01*
X103404579Y-113348481D01*
X103408857Y-113363397D01*
X103637655Y-113445024D01*
X103862119Y-113538000D01*
X103898263Y-113538000D01*
X103932302Y-113550144D01*
X104174931Y-113538000D01*
X104417881Y-113538000D01*
X104451273Y-113524169D01*
X104487368Y-113522362D01*
X104871143Y-113363397D01*
X104875421Y-113348481D01*
X104931337Y-113325320D01*
X105324320Y-112932337D01*
X105347481Y-112876421D01*
X105362397Y-112872143D01*
X105444024Y-112643345D01*
X105537000Y-112418881D01*
X105537000Y-112382737D01*
X105549144Y-112348698D01*
X105537000Y-112106069D01*
X105537000Y-111933302D01*
X140830856Y-111933302D01*
X140843000Y-112175931D01*
X140843000Y-112418881D01*
X140856831Y-112452273D01*
X140858638Y-112488368D01*
X141017603Y-112872143D01*
X141032519Y-112876421D01*
X141055680Y-112932337D01*
X141448663Y-113325320D01*
X141504579Y-113348481D01*
X141508857Y-113363397D01*
X141737655Y-113445024D01*
X141962119Y-113538000D01*
X141998263Y-113538000D01*
X142032302Y-113550144D01*
X142274931Y-113538000D01*
X142517881Y-113538000D01*
X142551273Y-113524169D01*
X142587368Y-113522362D01*
X142971143Y-113363397D01*
X142975421Y-113348481D01*
X143031337Y-113325320D01*
X143424320Y-112932337D01*
X143447481Y-112876421D01*
X143462397Y-112872143D01*
X143544024Y-112643345D01*
X143637000Y-112418881D01*
X143637000Y-112382737D01*
X143649144Y-112348698D01*
X143637000Y-112106069D01*
X143637000Y-111933302D01*
X188201856Y-111933302D01*
X188214000Y-112175931D01*
X188214000Y-112418881D01*
X188227831Y-112452273D01*
X188229638Y-112488368D01*
X188388603Y-112872143D01*
X188403519Y-112876421D01*
X188426680Y-112932337D01*
X188819663Y-113325320D01*
X188875579Y-113348481D01*
X188879857Y-113363397D01*
X189108655Y-113445024D01*
X189333119Y-113538000D01*
X189369263Y-113538000D01*
X189403302Y-113550144D01*
X189645931Y-113538000D01*
X189888881Y-113538000D01*
X189922273Y-113524169D01*
X189958368Y-113522362D01*
X190342143Y-113363397D01*
X190346421Y-113348481D01*
X190402337Y-113325320D01*
X190795320Y-112932337D01*
X190818481Y-112876421D01*
X190833397Y-112872143D01*
X190915024Y-112643345D01*
X191008000Y-112418881D01*
X191008000Y-112382737D01*
X191020144Y-112348698D01*
X191008000Y-112106069D01*
X191008000Y-111863119D01*
X190994169Y-111829727D01*
X190992362Y-111793632D01*
X190833397Y-111409857D01*
X190818481Y-111405579D01*
X190795320Y-111349663D01*
X190402337Y-110956680D01*
X190346421Y-110933519D01*
X190342143Y-110918603D01*
X190113345Y-110836976D01*
X189888881Y-110744000D01*
X189852737Y-110744000D01*
X189818698Y-110731856D01*
X189576069Y-110744000D01*
X189333119Y-110744000D01*
X189299727Y-110757831D01*
X189263632Y-110759638D01*
X188879857Y-110918603D01*
X188875579Y-110933519D01*
X188819663Y-110956680D01*
X188426680Y-111349663D01*
X188403519Y-111405579D01*
X188388603Y-111409857D01*
X188306976Y-111638655D01*
X188214000Y-111863119D01*
X188214000Y-111899263D01*
X188201856Y-111933302D01*
X143637000Y-111933302D01*
X143637000Y-111863119D01*
X143623169Y-111829727D01*
X143621362Y-111793632D01*
X143462397Y-111409857D01*
X143447481Y-111405579D01*
X143424320Y-111349663D01*
X143031337Y-110956680D01*
X142975421Y-110933519D01*
X142971143Y-110918603D01*
X142742345Y-110836976D01*
X142517881Y-110744000D01*
X142481737Y-110744000D01*
X142447698Y-110731856D01*
X142205069Y-110744000D01*
X141962119Y-110744000D01*
X141928727Y-110757831D01*
X141892632Y-110759638D01*
X141508857Y-110918603D01*
X141504579Y-110933519D01*
X141448663Y-110956680D01*
X141055680Y-111349663D01*
X141032519Y-111405579D01*
X141017603Y-111409857D01*
X140935976Y-111638655D01*
X140843000Y-111863119D01*
X140843000Y-111899263D01*
X140830856Y-111933302D01*
X105537000Y-111933302D01*
X105537000Y-111863119D01*
X105523169Y-111829727D01*
X105521362Y-111793632D01*
X105362397Y-111409857D01*
X105347481Y-111405579D01*
X105324320Y-111349663D01*
X104931337Y-110956680D01*
X104875421Y-110933519D01*
X104871143Y-110918603D01*
X104642345Y-110836976D01*
X104417881Y-110744000D01*
X104381737Y-110744000D01*
X104347698Y-110731856D01*
X104105069Y-110744000D01*
X103862119Y-110744000D01*
X103828727Y-110757831D01*
X103792632Y-110759638D01*
X103408857Y-110918603D01*
X103404579Y-110933519D01*
X103348663Y-110956680D01*
X102955680Y-111349663D01*
X102932519Y-111405579D01*
X102917603Y-111409857D01*
X102835976Y-111638655D01*
X102743000Y-111863119D01*
X102743000Y-111899263D01*
X102730856Y-111933302D01*
X58166000Y-111933302D01*
X58166000Y-111863119D01*
X58152169Y-111829727D01*
X58150362Y-111793632D01*
X57991397Y-111409857D01*
X57976481Y-111405579D01*
X57953320Y-111349663D01*
X57560337Y-110956680D01*
X57504421Y-110933519D01*
X57500143Y-110918603D01*
X57271345Y-110836976D01*
X57046881Y-110744000D01*
X57010737Y-110744000D01*
X56976698Y-110731856D01*
X56734069Y-110744000D01*
X56491119Y-110744000D01*
X56457727Y-110757831D01*
X56421632Y-110759638D01*
X56037857Y-110918603D01*
X56033579Y-110933519D01*
X55977663Y-110956680D01*
X55584680Y-111349663D01*
X55561519Y-111405579D01*
X55546603Y-111409857D01*
X55464976Y-111638655D01*
X55372000Y-111863119D01*
X55372000Y-111899263D01*
X55359856Y-111933302D01*
X55320000Y-111933302D01*
X55320000Y-93137302D01*
X55359856Y-93137302D01*
X55372000Y-93379931D01*
X55372000Y-93622881D01*
X55385831Y-93656273D01*
X55387638Y-93692368D01*
X55546603Y-94076143D01*
X55561519Y-94080421D01*
X55584680Y-94136337D01*
X55977663Y-94529320D01*
X56033579Y-94552481D01*
X56037857Y-94567397D01*
X56266655Y-94649024D01*
X56491119Y-94742000D01*
X56527263Y-94742000D01*
X56561302Y-94754144D01*
X56803931Y-94742000D01*
X57046881Y-94742000D01*
X57080273Y-94728169D01*
X57116368Y-94726362D01*
X57500143Y-94567397D01*
X57504421Y-94552481D01*
X57560337Y-94529320D01*
X57953320Y-94136337D01*
X57976481Y-94080421D01*
X57991397Y-94076143D01*
X58073024Y-93847345D01*
X58166000Y-93622881D01*
X58166000Y-93586737D01*
X58178144Y-93552698D01*
X58166000Y-93310069D01*
X58166000Y-93137302D01*
X188201856Y-93137302D01*
X188214000Y-93379931D01*
X188214000Y-93622881D01*
X188227831Y-93656273D01*
X188229638Y-93692368D01*
X188388603Y-94076143D01*
X188403519Y-94080421D01*
X188426680Y-94136337D01*
X188819663Y-94529320D01*
X188875579Y-94552481D01*
X188879857Y-94567397D01*
X189108655Y-94649024D01*
X189333119Y-94742000D01*
X189369263Y-94742000D01*
X189403302Y-94754144D01*
X189645931Y-94742000D01*
X189888881Y-94742000D01*
X189922273Y-94728169D01*
X189958368Y-94726362D01*
X190342143Y-94567397D01*
X190346421Y-94552481D01*
X190402337Y-94529320D01*
X190795320Y-94136337D01*
X190818481Y-94080421D01*
X190833397Y-94076143D01*
X190915024Y-93847345D01*
X191008000Y-93622881D01*
X191008000Y-93586737D01*
X191020144Y-93552698D01*
X191008000Y-93310069D01*
X191008000Y-93067119D01*
X190994169Y-93033727D01*
X190992362Y-92997632D01*
X190833397Y-92613857D01*
X190818481Y-92609579D01*
X190795320Y-92553663D01*
X190402337Y-92160680D01*
X190346421Y-92137519D01*
X190342143Y-92122603D01*
X190113345Y-92040976D01*
X189888881Y-91948000D01*
X189852737Y-91948000D01*
X189818698Y-91935856D01*
X189576069Y-91948000D01*
X189333119Y-91948000D01*
X189299727Y-91961831D01*
X189263632Y-91963638D01*
X188879857Y-92122603D01*
X188875579Y-92137519D01*
X188819663Y-92160680D01*
X188426680Y-92553663D01*
X188403519Y-92609579D01*
X188388603Y-92613857D01*
X188306976Y-92842655D01*
X188214000Y-93067119D01*
X188214000Y-93103263D01*
X188201856Y-93137302D01*
X58166000Y-93137302D01*
X58166000Y-93067119D01*
X58152169Y-93033727D01*
X58150362Y-92997632D01*
X57991397Y-92613857D01*
X57976481Y-92609579D01*
X57953320Y-92553663D01*
X57560337Y-92160680D01*
X57504421Y-92137519D01*
X57500143Y-92122603D01*
X57271345Y-92040976D01*
X57046881Y-91948000D01*
X57010737Y-91948000D01*
X56976698Y-91935856D01*
X56734069Y-91948000D01*
X56491119Y-91948000D01*
X56457727Y-91961831D01*
X56421632Y-91963638D01*
X56037857Y-92122603D01*
X56033579Y-92137519D01*
X55977663Y-92160680D01*
X55584680Y-92553663D01*
X55561519Y-92609579D01*
X55546603Y-92613857D01*
X55464976Y-92842655D01*
X55372000Y-93067119D01*
X55372000Y-93103263D01*
X55359856Y-93137302D01*
X55320000Y-93137302D01*
X55320000Y-74087302D01*
X93205856Y-74087302D01*
X93218000Y-74329931D01*
X93218000Y-74572881D01*
X93231831Y-74606273D01*
X93233638Y-74642368D01*
X93392603Y-75026143D01*
X93407519Y-75030421D01*
X93430680Y-75086337D01*
X93823663Y-75479320D01*
X93879579Y-75502481D01*
X93883857Y-75517397D01*
X94112655Y-75599024D01*
X94337119Y-75692000D01*
X94373263Y-75692000D01*
X94407302Y-75704144D01*
X94649931Y-75692000D01*
X94892881Y-75692000D01*
X94926273Y-75678169D01*
X94962368Y-75676362D01*
X95346143Y-75517397D01*
X95350421Y-75502481D01*
X95406337Y-75479320D01*
X95799320Y-75086337D01*
X95822481Y-75030421D01*
X95837397Y-75026143D01*
X95919024Y-74797345D01*
X96012000Y-74572881D01*
X96012000Y-74536737D01*
X96024144Y-74502698D01*
X96012000Y-74260069D01*
X96012000Y-74087302D01*
X150355856Y-74087302D01*
X150368000Y-74329931D01*
X150368000Y-74572881D01*
X150381831Y-74606273D01*
X150383638Y-74642368D01*
X150542603Y-75026143D01*
X150557519Y-75030421D01*
X150580680Y-75086337D01*
X150973663Y-75479320D01*
X151029579Y-75502481D01*
X151033857Y-75517397D01*
X151262655Y-75599024D01*
X151487119Y-75692000D01*
X151523263Y-75692000D01*
X151557302Y-75704144D01*
X151799931Y-75692000D01*
X152042881Y-75692000D01*
X152076273Y-75678169D01*
X152112368Y-75676362D01*
X152496143Y-75517397D01*
X152500421Y-75502481D01*
X152556337Y-75479320D01*
X152949320Y-75086337D01*
X152972481Y-75030421D01*
X152987397Y-75026143D01*
X153069024Y-74797345D01*
X153162000Y-74572881D01*
X153162000Y-74536737D01*
X153174144Y-74502698D01*
X153162000Y-74260069D01*
X153162000Y-74017119D01*
X153148169Y-73983727D01*
X153146362Y-73947632D01*
X152987397Y-73563857D01*
X152972481Y-73559579D01*
X152949320Y-73503663D01*
X152556337Y-73110680D01*
X152500421Y-73087519D01*
X152496143Y-73072603D01*
X152267345Y-72990976D01*
X152042881Y-72898000D01*
X152006737Y-72898000D01*
X151972698Y-72885856D01*
X151730069Y-72898000D01*
X151487119Y-72898000D01*
X151453727Y-72911831D01*
X151417632Y-72913638D01*
X151033857Y-73072603D01*
X151029579Y-73087519D01*
X150973663Y-73110680D01*
X150580680Y-73503663D01*
X150557519Y-73559579D01*
X150542603Y-73563857D01*
X150460976Y-73792655D01*
X150368000Y-74017119D01*
X150368000Y-74053263D01*
X150355856Y-74087302D01*
X96012000Y-74087302D01*
X96012000Y-74017119D01*
X95998169Y-73983727D01*
X95996362Y-73947632D01*
X95837397Y-73563857D01*
X95822481Y-73559579D01*
X95799320Y-73503663D01*
X95406337Y-73110680D01*
X95350421Y-73087519D01*
X95346143Y-73072603D01*
X95117345Y-72990976D01*
X94892881Y-72898000D01*
X94856737Y-72898000D01*
X94822698Y-72885856D01*
X94580069Y-72898000D01*
X94337119Y-72898000D01*
X94303727Y-72911831D01*
X94267632Y-72913638D01*
X93883857Y-73072603D01*
X93879579Y-73087519D01*
X93823663Y-73110680D01*
X93430680Y-73503663D01*
X93407519Y-73559579D01*
X93392603Y-73563857D01*
X93310976Y-73792655D01*
X93218000Y-74017119D01*
X93218000Y-74053263D01*
X93205856Y-74087302D01*
X55320000Y-74087302D01*
X55320000Y-55037302D01*
X55359856Y-55037302D01*
X55372000Y-55279931D01*
X55372000Y-55522881D01*
X55385831Y-55556273D01*
X55387638Y-55592368D01*
X55546603Y-55976143D01*
X55561519Y-55980421D01*
X55584680Y-56036337D01*
X55977663Y-56429320D01*
X56033579Y-56452481D01*
X56037857Y-56467397D01*
X56266655Y-56549024D01*
X56491119Y-56642000D01*
X56527263Y-56642000D01*
X56561302Y-56654144D01*
X56803931Y-56642000D01*
X57046881Y-56642000D01*
X57080273Y-56628169D01*
X57116368Y-56626362D01*
X57500143Y-56467397D01*
X57504421Y-56452481D01*
X57560337Y-56429320D01*
X57953320Y-56036337D01*
X57976481Y-55980421D01*
X57991397Y-55976143D01*
X58073024Y-55747345D01*
X58166000Y-55522881D01*
X58166000Y-55486737D01*
X58178144Y-55452698D01*
X58166000Y-55210069D01*
X58166000Y-55037302D01*
X188201856Y-55037302D01*
X188214000Y-55279931D01*
X188214000Y-55522881D01*
X188227831Y-55556273D01*
X188229638Y-55592368D01*
X188388603Y-55976143D01*
X188403519Y-55980421D01*
X188426680Y-56036337D01*
X188819663Y-56429320D01*
X188875579Y-56452481D01*
X188879857Y-56467397D01*
X189108655Y-56549024D01*
X189333119Y-56642000D01*
X189369263Y-56642000D01*
X189403302Y-56654144D01*
X189645931Y-56642000D01*
X189888881Y-56642000D01*
X189922273Y-56628169D01*
X189958368Y-56626362D01*
X190342143Y-56467397D01*
X190346421Y-56452481D01*
X190402337Y-56429320D01*
X190795320Y-56036337D01*
X190818481Y-55980421D01*
X190833397Y-55976143D01*
X190915024Y-55747345D01*
X191008000Y-55522881D01*
X191008000Y-55486737D01*
X191020144Y-55452698D01*
X191008000Y-55210069D01*
X191008000Y-54967119D01*
X190994169Y-54933727D01*
X190992362Y-54897632D01*
X190833397Y-54513857D01*
X190818481Y-54509579D01*
X190795320Y-54453663D01*
X190402337Y-54060680D01*
X190346421Y-54037519D01*
X190342143Y-54022603D01*
X190113345Y-53940976D01*
X189888881Y-53848000D01*
X189852737Y-53848000D01*
X189818698Y-53835856D01*
X189576069Y-53848000D01*
X189333119Y-53848000D01*
X189299727Y-53861831D01*
X189263632Y-53863638D01*
X188879857Y-54022603D01*
X188875579Y-54037519D01*
X188819663Y-54060680D01*
X188426680Y-54453663D01*
X188403519Y-54509579D01*
X188388603Y-54513857D01*
X188306976Y-54742655D01*
X188214000Y-54967119D01*
X188214000Y-55003263D01*
X188201856Y-55037302D01*
X58166000Y-55037302D01*
X58166000Y-54967119D01*
X58152169Y-54933727D01*
X58150362Y-54897632D01*
X57991397Y-54513857D01*
X57976481Y-54509579D01*
X57953320Y-54453663D01*
X57560337Y-54060680D01*
X57504421Y-54037519D01*
X57500143Y-54022603D01*
X57271345Y-53940976D01*
X57046881Y-53848000D01*
X57010737Y-53848000D01*
X56976698Y-53835856D01*
X56734069Y-53848000D01*
X56491119Y-53848000D01*
X56457727Y-53861831D01*
X56421632Y-53863638D01*
X56037857Y-54022603D01*
X56033579Y-54037519D01*
X55977663Y-54060680D01*
X55584680Y-54453663D01*
X55561519Y-54509579D01*
X55546603Y-54513857D01*
X55464976Y-54742655D01*
X55372000Y-54967119D01*
X55372000Y-55003263D01*
X55359856Y-55037302D01*
X55320000Y-55037302D01*
X55320000Y-36245580D01*
X55320612Y-36241302D01*
X55359856Y-36241302D01*
X55372000Y-36483931D01*
X55372000Y-36726881D01*
X55385831Y-36760273D01*
X55387638Y-36796368D01*
X55546603Y-37180143D01*
X55561519Y-37184421D01*
X55584680Y-37240337D01*
X55977663Y-37633320D01*
X56033579Y-37656481D01*
X56037857Y-37671397D01*
X56266655Y-37753024D01*
X56491119Y-37846000D01*
X56527263Y-37846000D01*
X56561302Y-37858144D01*
X56803931Y-37846000D01*
X57046881Y-37846000D01*
X57080273Y-37832169D01*
X57116368Y-37830362D01*
X57500143Y-37671397D01*
X57504421Y-37656481D01*
X57560337Y-37633320D01*
X57953320Y-37240337D01*
X57976481Y-37184421D01*
X57991397Y-37180143D01*
X58073024Y-36951345D01*
X58166000Y-36726881D01*
X58166000Y-36690737D01*
X58178144Y-36656698D01*
X58166000Y-36414069D01*
X58166000Y-36171119D01*
X58152169Y-36137727D01*
X58150362Y-36101632D01*
X57991397Y-35717857D01*
X57976481Y-35713579D01*
X57953320Y-35657663D01*
X57560337Y-35264680D01*
X57504421Y-35241519D01*
X57500143Y-35226603D01*
X57271345Y-35144976D01*
X57046881Y-35052000D01*
X57010737Y-35052000D01*
X56976698Y-35039856D01*
X56734069Y-35052000D01*
X56491119Y-35052000D01*
X56457727Y-35065831D01*
X56421632Y-35067638D01*
X56037857Y-35226603D01*
X56033579Y-35241519D01*
X55977663Y-35264680D01*
X55584680Y-35657663D01*
X55561519Y-35713579D01*
X55546603Y-35717857D01*
X55464976Y-35946655D01*
X55372000Y-36171119D01*
X55372000Y-36207263D01*
X55359856Y-36241302D01*
X55320612Y-36241302D01*
X55374985Y-35861636D01*
X55514372Y-35555072D01*
X55734199Y-35299950D01*
X56016792Y-35116782D01*
X56362959Y-35013257D01*
X56541350Y-35000000D01*
X69648000Y-35000000D01*
X69648001Y-48190069D01*
M02*
