G04 #@! TF.GenerationSoftware,KiCad,Pcbnew,5.0.2-bee76a0~70~ubuntu18.04.1*
G04 #@! TF.CreationDate,2018-12-19T04:06:27+09:00*
G04 #@! TF.ProjectId,modulo-ergo42-bottomplate,6d6f6475-6c6f-42d6-9572-676f34322d62,rev?*
G04 #@! TF.SameCoordinates,Original*
G04 #@! TF.FileFunction,Profile,NP*
%FSLAX46Y46*%
G04 Gerber Fmt 4.6, Leading zero omitted, Abs format (unit mm)*
G04 Created by KiCad (PCBNEW 5.0.2-bee76a0~70~ubuntu18.04.1) date 2018年12月19日 04時06分27秒*
%MOMM*%
%LPD*%
G01*
G04 APERTURE LIST*
%ADD10C,0.150000*%
G04 APERTURE END LIST*
D10*
X113538000Y-57150000D02*
G75*
G02X113030000Y-57658000I-508000J0D01*
G01*
X106680000Y-57658000D02*
G75*
G02X106172000Y-57150000I0J508000D01*
G01*
X106172000Y-53340000D02*
G75*
G02X106680000Y-52832000I508000J0D01*
G01*
X113030000Y-52832000D02*
G75*
G02X113538000Y-53340000I0J-508000D01*
G01*
X106172000Y-53340000D02*
X106172000Y-57150000D01*
X113030000Y-57658000D02*
X106680000Y-57658000D01*
X113538000Y-53340000D02*
X113538000Y-57150000D01*
X106680000Y-52832000D02*
X113030000Y-52832000D01*
X165608000Y-48768000D02*
G75*
G02X165100000Y-48260000I0J508000D01*
G01*
X172720000Y-48260000D02*
G75*
G02X172212000Y-48768000I-508000J0D01*
G01*
X146558000Y-48768000D02*
G75*
G02X146050000Y-48260000I0J508000D01*
G01*
X153670000Y-48260000D02*
G75*
G02X153162000Y-48768000I-508000J0D01*
G01*
X153670000Y-34798000D02*
G75*
G02X154178000Y-34290000I508000J0D01*
G01*
X145542000Y-34290000D02*
G75*
G02X146050000Y-34798000I0J-508000D01*
G01*
X89408000Y-48768000D02*
G75*
G02X88900000Y-48260000I0J508000D01*
G01*
X96520000Y-48260000D02*
G75*
G02X96012000Y-48768000I-508000J0D01*
G01*
X88392000Y-34290000D02*
G75*
G02X88900000Y-34798000I0J-508000D01*
G01*
X96520000Y-34798000D02*
G75*
G02X97028000Y-34290000I508000J0D01*
G01*
X69342000Y-34290000D02*
G75*
G02X69850000Y-34798000I0J-508000D01*
G01*
X70358000Y-48768000D02*
G75*
G02X69850000Y-48260000I0J508000D01*
G01*
X77470000Y-48260000D02*
G75*
G02X76962000Y-48768000I-508000J0D01*
G01*
X77470000Y-34798000D02*
G75*
G02X77978000Y-34290000I508000J0D01*
G01*
X146558000Y-48768000D02*
X153162000Y-48768000D01*
X153670000Y-34798000D02*
X153670000Y-48260000D01*
X146050000Y-34798000D02*
X146050000Y-48260000D01*
X154178000Y-34290000D02*
X164592000Y-34290000D01*
X164592000Y-34290000D02*
G75*
G02X165100000Y-34798000I0J-508000D01*
G01*
X172720000Y-34798000D02*
G75*
G02X173228000Y-34290000I508000J0D01*
G01*
X165608000Y-48768000D02*
X172212000Y-48768000D01*
X172720000Y-34798000D02*
X172720000Y-48260000D01*
X165100000Y-34798000D02*
X165100000Y-48260000D01*
X173228000Y-34290000D02*
X189865000Y-34290000D01*
X96012000Y-48768000D02*
X89408000Y-48768000D01*
X96520000Y-34798000D02*
X96520000Y-48260000D01*
X97028000Y-34290000D02*
X145542000Y-34290000D01*
X88900000Y-34798000D02*
X88900000Y-48260000D01*
X69850000Y-34798000D02*
X69850000Y-48260000D01*
X77470000Y-34798000D02*
X77470000Y-48260000D01*
X70358000Y-48768000D02*
X76962000Y-48768000D01*
X77978000Y-34290000D02*
X88392000Y-34290000D01*
X56515000Y-114300000D02*
G75*
G02X54610000Y-112395000I0J1905000D01*
G01*
X191770000Y-112395000D02*
G75*
G02X189865000Y-114300000I-1905000J0D01*
G01*
X189865000Y-34290000D02*
G75*
G02X191770000Y-36195000I0J-1905000D01*
G01*
X54610000Y-36195000D02*
G75*
G02X56515000Y-34290000I1905000J0D01*
G01*
X189865000Y-114300000D02*
X56515000Y-114300000D01*
X54610000Y-36195000D02*
X54610000Y-112395000D01*
X191770000Y-36195000D02*
X191770000Y-112395000D01*
X56515000Y-34290000D02*
X69342000Y-34290000D01*
M02*
