G04 #@! TF.GenerationSoftware,KiCad,Pcbnew,5.0.1-33cea8e~68~ubuntu18.04.1*
G04 #@! TF.CreationDate,2018-10-28T17:23:43+09:00*
G04 #@! TF.ProjectId,modulo-ergo42-mountplate,6D6F64756C6F2D6572676F34322D6D6F,rev?*
G04 #@! TF.SameCoordinates,Original*
G04 #@! TF.FileFunction,Copper,L1,Top,Signal*
G04 #@! TF.FilePolarity,Positive*
%FSLAX46Y46*%
G04 Gerber Fmt 4.6, Leading zero omitted, Abs format (unit mm)*
G04 Created by KiCad (PCBNEW 5.0.1-33cea8e~68~ubuntu18.04.1) date 2018年10月28日 17時23分43秒*
%MOMM*%
%LPD*%
G01*
G04 APERTURE LIST*
G04 #@! TA.AperFunction,NonConductor*
%ADD10C,0.254000*%
G04 #@! TD*
G04 APERTURE END LIST*
D10*
G36*
X190198364Y-35054985D02*
X190504928Y-35194372D01*
X190760050Y-35414199D01*
X190943218Y-35696792D01*
X191046743Y-36042959D01*
X191060000Y-36221350D01*
X191060001Y-112344413D01*
X191005015Y-112728364D01*
X190865628Y-113034928D01*
X190645804Y-113290047D01*
X190363207Y-113473218D01*
X190017043Y-113576743D01*
X189838649Y-113590000D01*
X56565580Y-113590000D01*
X56181636Y-113535015D01*
X55875072Y-113395628D01*
X55619953Y-113175804D01*
X55436782Y-112893207D01*
X55333257Y-112547043D01*
X55320000Y-112368649D01*
X55320000Y-111933302D01*
X55359856Y-111933302D01*
X55372000Y-112175931D01*
X55372000Y-112418881D01*
X55385831Y-112452273D01*
X55387638Y-112488368D01*
X55546603Y-112872143D01*
X55561519Y-112876421D01*
X55584680Y-112932337D01*
X55977663Y-113325320D01*
X56033579Y-113348481D01*
X56037857Y-113363397D01*
X56266655Y-113445024D01*
X56491119Y-113538000D01*
X56527263Y-113538000D01*
X56561302Y-113550144D01*
X56803931Y-113538000D01*
X57046881Y-113538000D01*
X57080273Y-113524169D01*
X57116368Y-113522362D01*
X57500143Y-113363397D01*
X57504421Y-113348481D01*
X57560337Y-113325320D01*
X57953320Y-112932337D01*
X57976481Y-112876421D01*
X57991397Y-112872143D01*
X58073024Y-112643345D01*
X58166000Y-112418881D01*
X58166000Y-112382737D01*
X58178144Y-112348698D01*
X58166000Y-112106069D01*
X58166000Y-111933302D01*
X102730856Y-111933302D01*
X102743000Y-112175931D01*
X102743000Y-112418881D01*
X102756831Y-112452273D01*
X102758638Y-112488368D01*
X102917603Y-112872143D01*
X102932519Y-112876421D01*
X102955680Y-112932337D01*
X103348663Y-113325320D01*
X103404579Y-113348481D01*
X103408857Y-113363397D01*
X103637655Y-113445024D01*
X103862119Y-113538000D01*
X103898263Y-113538000D01*
X103932302Y-113550144D01*
X104174931Y-113538000D01*
X104417881Y-113538000D01*
X104451273Y-113524169D01*
X104487368Y-113522362D01*
X104871143Y-113363397D01*
X104875421Y-113348481D01*
X104931337Y-113325320D01*
X105324320Y-112932337D01*
X105347481Y-112876421D01*
X105362397Y-112872143D01*
X105444024Y-112643345D01*
X105537000Y-112418881D01*
X105537000Y-112382737D01*
X105549144Y-112348698D01*
X105537000Y-112106069D01*
X105537000Y-111933302D01*
X140830856Y-111933302D01*
X140843000Y-112175931D01*
X140843000Y-112418881D01*
X140856831Y-112452273D01*
X140858638Y-112488368D01*
X141017603Y-112872143D01*
X141032519Y-112876421D01*
X141055680Y-112932337D01*
X141448663Y-113325320D01*
X141504579Y-113348481D01*
X141508857Y-113363397D01*
X141737655Y-113445024D01*
X141962119Y-113538000D01*
X141998263Y-113538000D01*
X142032302Y-113550144D01*
X142274931Y-113538000D01*
X142517881Y-113538000D01*
X142551273Y-113524169D01*
X142587368Y-113522362D01*
X142971143Y-113363397D01*
X142975421Y-113348481D01*
X143031337Y-113325320D01*
X143424320Y-112932337D01*
X143447481Y-112876421D01*
X143462397Y-112872143D01*
X143544024Y-112643345D01*
X143637000Y-112418881D01*
X143637000Y-112382737D01*
X143649144Y-112348698D01*
X143637000Y-112106069D01*
X143637000Y-111933302D01*
X188201856Y-111933302D01*
X188214000Y-112175931D01*
X188214000Y-112418881D01*
X188227831Y-112452273D01*
X188229638Y-112488368D01*
X188388603Y-112872143D01*
X188403519Y-112876421D01*
X188426680Y-112932337D01*
X188819663Y-113325320D01*
X188875579Y-113348481D01*
X188879857Y-113363397D01*
X189108655Y-113445024D01*
X189333119Y-113538000D01*
X189369263Y-113538000D01*
X189403302Y-113550144D01*
X189645931Y-113538000D01*
X189888881Y-113538000D01*
X189922273Y-113524169D01*
X189958368Y-113522362D01*
X190342143Y-113363397D01*
X190346421Y-113348481D01*
X190402337Y-113325320D01*
X190795320Y-112932337D01*
X190818481Y-112876421D01*
X190833397Y-112872143D01*
X190915024Y-112643345D01*
X191008000Y-112418881D01*
X191008000Y-112382737D01*
X191020144Y-112348698D01*
X191008000Y-112106069D01*
X191008000Y-111863119D01*
X190994169Y-111829727D01*
X190992362Y-111793632D01*
X190833397Y-111409857D01*
X190818481Y-111405579D01*
X190795320Y-111349663D01*
X190402337Y-110956680D01*
X190346421Y-110933519D01*
X190342143Y-110918603D01*
X190113345Y-110836976D01*
X189888881Y-110744000D01*
X189852737Y-110744000D01*
X189818698Y-110731856D01*
X189576069Y-110744000D01*
X189333119Y-110744000D01*
X189299727Y-110757831D01*
X189263632Y-110759638D01*
X188879857Y-110918603D01*
X188875579Y-110933519D01*
X188819663Y-110956680D01*
X188426680Y-111349663D01*
X188403519Y-111405579D01*
X188388603Y-111409857D01*
X188306976Y-111638655D01*
X188214000Y-111863119D01*
X188214000Y-111899263D01*
X188201856Y-111933302D01*
X143637000Y-111933302D01*
X143637000Y-111863119D01*
X143623169Y-111829727D01*
X143621362Y-111793632D01*
X143462397Y-111409857D01*
X143447481Y-111405579D01*
X143424320Y-111349663D01*
X143031337Y-110956680D01*
X142975421Y-110933519D01*
X142971143Y-110918603D01*
X142742345Y-110836976D01*
X142517881Y-110744000D01*
X142481737Y-110744000D01*
X142447698Y-110731856D01*
X142205069Y-110744000D01*
X141962119Y-110744000D01*
X141928727Y-110757831D01*
X141892632Y-110759638D01*
X141508857Y-110918603D01*
X141504579Y-110933519D01*
X141448663Y-110956680D01*
X141055680Y-111349663D01*
X141032519Y-111405579D01*
X141017603Y-111409857D01*
X140935976Y-111638655D01*
X140843000Y-111863119D01*
X140843000Y-111899263D01*
X140830856Y-111933302D01*
X105537000Y-111933302D01*
X105537000Y-111863119D01*
X105523169Y-111829727D01*
X105521362Y-111793632D01*
X105362397Y-111409857D01*
X105347481Y-111405579D01*
X105324320Y-111349663D01*
X104931337Y-110956680D01*
X104875421Y-110933519D01*
X104871143Y-110918603D01*
X104642345Y-110836976D01*
X104417881Y-110744000D01*
X104381737Y-110744000D01*
X104347698Y-110731856D01*
X104105069Y-110744000D01*
X103862119Y-110744000D01*
X103828727Y-110757831D01*
X103792632Y-110759638D01*
X103408857Y-110918603D01*
X103404579Y-110933519D01*
X103348663Y-110956680D01*
X102955680Y-111349663D01*
X102932519Y-111405579D01*
X102917603Y-111409857D01*
X102835976Y-111638655D01*
X102743000Y-111863119D01*
X102743000Y-111899263D01*
X102730856Y-111933302D01*
X58166000Y-111933302D01*
X58166000Y-111863119D01*
X58152169Y-111829727D01*
X58150362Y-111793632D01*
X57991397Y-111409857D01*
X57976481Y-111405579D01*
X57953320Y-111349663D01*
X57560337Y-110956680D01*
X57504421Y-110933519D01*
X57500143Y-110918603D01*
X57271345Y-110836976D01*
X57046881Y-110744000D01*
X57010737Y-110744000D01*
X56976698Y-110731856D01*
X56734069Y-110744000D01*
X56491119Y-110744000D01*
X56457727Y-110757831D01*
X56421632Y-110759638D01*
X56037857Y-110918603D01*
X56033579Y-110933519D01*
X55977663Y-110956680D01*
X55584680Y-111349663D01*
X55561519Y-111405579D01*
X55546603Y-111409857D01*
X55464976Y-111638655D01*
X55372000Y-111863119D01*
X55372000Y-111899263D01*
X55359856Y-111933302D01*
X55320000Y-111933302D01*
X55320000Y-95885000D01*
X58356581Y-95885000D01*
X58370001Y-95952467D01*
X58370000Y-109787538D01*
X58356581Y-109855000D01*
X58409745Y-110122273D01*
X58561143Y-110348857D01*
X58787727Y-110500255D01*
X59055000Y-110553419D01*
X59122461Y-110540000D01*
X72957539Y-110540000D01*
X73025000Y-110553419D01*
X73292273Y-110500255D01*
X73518857Y-110348857D01*
X73670255Y-110122273D01*
X73710000Y-109922462D01*
X73710000Y-109922461D01*
X73723419Y-109855000D01*
X73710000Y-109787538D01*
X73710000Y-95952462D01*
X73723419Y-95885000D01*
X77406581Y-95885000D01*
X77420001Y-95952467D01*
X77420000Y-109787538D01*
X77406581Y-109855000D01*
X77459745Y-110122273D01*
X77611143Y-110348857D01*
X77837727Y-110500255D01*
X78105000Y-110553419D01*
X78172461Y-110540000D01*
X92007539Y-110540000D01*
X92075000Y-110553419D01*
X92342273Y-110500255D01*
X92568857Y-110348857D01*
X92720255Y-110122273D01*
X92760000Y-109922462D01*
X92760000Y-109922461D01*
X92773419Y-109855000D01*
X92760000Y-109787538D01*
X92760000Y-95952462D01*
X92773419Y-95885000D01*
X96456581Y-95885000D01*
X96470001Y-95952467D01*
X96470000Y-109787538D01*
X96456581Y-109855000D01*
X96509745Y-110122273D01*
X96661143Y-110348857D01*
X96887727Y-110500255D01*
X97155000Y-110553419D01*
X97222461Y-110540000D01*
X111057539Y-110540000D01*
X111125000Y-110553419D01*
X111392273Y-110500255D01*
X111618857Y-110348857D01*
X111770255Y-110122273D01*
X111810000Y-109922462D01*
X111810000Y-109922461D01*
X111823419Y-109855000D01*
X111810000Y-109787538D01*
X111810000Y-95952462D01*
X111823419Y-95885000D01*
X115506581Y-95885000D01*
X115520001Y-95952467D01*
X115520000Y-109787538D01*
X115506581Y-109855000D01*
X115559745Y-110122273D01*
X115711143Y-110348857D01*
X115937727Y-110500255D01*
X116205000Y-110553419D01*
X116272461Y-110540000D01*
X130107539Y-110540000D01*
X130175000Y-110553419D01*
X130442273Y-110500255D01*
X130668857Y-110348857D01*
X130820255Y-110122273D01*
X130860000Y-109922462D01*
X130860000Y-109922461D01*
X130873419Y-109855000D01*
X130860000Y-109787538D01*
X130860000Y-95952462D01*
X130873419Y-95885000D01*
X134556581Y-95885000D01*
X134570001Y-95952467D01*
X134570000Y-109787538D01*
X134556581Y-109855000D01*
X134609745Y-110122273D01*
X134761143Y-110348857D01*
X134987727Y-110500255D01*
X135255000Y-110553419D01*
X135322461Y-110540000D01*
X149157539Y-110540000D01*
X149225000Y-110553419D01*
X149492273Y-110500255D01*
X149718857Y-110348857D01*
X149870255Y-110122273D01*
X149910000Y-109922462D01*
X149910000Y-109922461D01*
X149923419Y-109855000D01*
X149910000Y-109787538D01*
X149910000Y-95952462D01*
X149923419Y-95885000D01*
X153606581Y-95885000D01*
X153620001Y-95952467D01*
X153620000Y-109787538D01*
X153606581Y-109855000D01*
X153659745Y-110122273D01*
X153811143Y-110348857D01*
X154037727Y-110500255D01*
X154305000Y-110553419D01*
X154372461Y-110540000D01*
X168207539Y-110540000D01*
X168275000Y-110553419D01*
X168542273Y-110500255D01*
X168768857Y-110348857D01*
X168920255Y-110122273D01*
X168960000Y-109922462D01*
X168960000Y-109922461D01*
X168973419Y-109855000D01*
X168960000Y-109787538D01*
X168960000Y-95952462D01*
X168973419Y-95885000D01*
X172656581Y-95885000D01*
X172670001Y-95952467D01*
X172670000Y-109787538D01*
X172656581Y-109855000D01*
X172709745Y-110122273D01*
X172861143Y-110348857D01*
X173087727Y-110500255D01*
X173355000Y-110553419D01*
X173422461Y-110540000D01*
X187257539Y-110540000D01*
X187325000Y-110553419D01*
X187592273Y-110500255D01*
X187818857Y-110348857D01*
X187970255Y-110122273D01*
X188010000Y-109922462D01*
X188010000Y-109922461D01*
X188023419Y-109855000D01*
X188010000Y-109787538D01*
X188010000Y-95952462D01*
X188023419Y-95885000D01*
X187970255Y-95617727D01*
X187818857Y-95391143D01*
X187592273Y-95239745D01*
X187392462Y-95200000D01*
X187392461Y-95200000D01*
X187325000Y-95186581D01*
X187257538Y-95200000D01*
X173422462Y-95200000D01*
X173355000Y-95186581D01*
X173287539Y-95200000D01*
X173287538Y-95200000D01*
X173087727Y-95239745D01*
X172861143Y-95391143D01*
X172709745Y-95617727D01*
X172656581Y-95885000D01*
X168973419Y-95885000D01*
X168920255Y-95617727D01*
X168768857Y-95391143D01*
X168542273Y-95239745D01*
X168342462Y-95200000D01*
X168342461Y-95200000D01*
X168275000Y-95186581D01*
X168207538Y-95200000D01*
X154372462Y-95200000D01*
X154305000Y-95186581D01*
X154237539Y-95200000D01*
X154237538Y-95200000D01*
X154037727Y-95239745D01*
X153811143Y-95391143D01*
X153659745Y-95617727D01*
X153606581Y-95885000D01*
X149923419Y-95885000D01*
X149870255Y-95617727D01*
X149718857Y-95391143D01*
X149492273Y-95239745D01*
X149292462Y-95200000D01*
X149292461Y-95200000D01*
X149225000Y-95186581D01*
X149157538Y-95200000D01*
X135322462Y-95200000D01*
X135255000Y-95186581D01*
X135187539Y-95200000D01*
X135187538Y-95200000D01*
X134987727Y-95239745D01*
X134761143Y-95391143D01*
X134609745Y-95617727D01*
X134556581Y-95885000D01*
X130873419Y-95885000D01*
X130820255Y-95617727D01*
X130668857Y-95391143D01*
X130442273Y-95239745D01*
X130242462Y-95200000D01*
X130242461Y-95200000D01*
X130175000Y-95186581D01*
X130107538Y-95200000D01*
X116272462Y-95200000D01*
X116205000Y-95186581D01*
X116137539Y-95200000D01*
X116137538Y-95200000D01*
X115937727Y-95239745D01*
X115711143Y-95391143D01*
X115559745Y-95617727D01*
X115506581Y-95885000D01*
X111823419Y-95885000D01*
X111770255Y-95617727D01*
X111618857Y-95391143D01*
X111392273Y-95239745D01*
X111192462Y-95200000D01*
X111192461Y-95200000D01*
X111125000Y-95186581D01*
X111057538Y-95200000D01*
X97222462Y-95200000D01*
X97155000Y-95186581D01*
X97087539Y-95200000D01*
X97087538Y-95200000D01*
X96887727Y-95239745D01*
X96661143Y-95391143D01*
X96509745Y-95617727D01*
X96456581Y-95885000D01*
X92773419Y-95885000D01*
X92720255Y-95617727D01*
X92568857Y-95391143D01*
X92342273Y-95239745D01*
X92142462Y-95200000D01*
X92142461Y-95200000D01*
X92075000Y-95186581D01*
X92007538Y-95200000D01*
X78172462Y-95200000D01*
X78105000Y-95186581D01*
X78037539Y-95200000D01*
X78037538Y-95200000D01*
X77837727Y-95239745D01*
X77611143Y-95391143D01*
X77459745Y-95617727D01*
X77406581Y-95885000D01*
X73723419Y-95885000D01*
X73670255Y-95617727D01*
X73518857Y-95391143D01*
X73292273Y-95239745D01*
X73092462Y-95200000D01*
X73092461Y-95200000D01*
X73025000Y-95186581D01*
X72957538Y-95200000D01*
X59122462Y-95200000D01*
X59055000Y-95186581D01*
X58987539Y-95200000D01*
X58987538Y-95200000D01*
X58787727Y-95239745D01*
X58561143Y-95391143D01*
X58409745Y-95617727D01*
X58356581Y-95885000D01*
X55320000Y-95885000D01*
X55320000Y-93137302D01*
X55359856Y-93137302D01*
X55372000Y-93379931D01*
X55372000Y-93622881D01*
X55385831Y-93656273D01*
X55387638Y-93692368D01*
X55546603Y-94076143D01*
X55561519Y-94080421D01*
X55584680Y-94136337D01*
X55977663Y-94529320D01*
X56033579Y-94552481D01*
X56037857Y-94567397D01*
X56266655Y-94649024D01*
X56491119Y-94742000D01*
X56527263Y-94742000D01*
X56561302Y-94754144D01*
X56803931Y-94742000D01*
X57046881Y-94742000D01*
X57080273Y-94728169D01*
X57116368Y-94726362D01*
X57500143Y-94567397D01*
X57504421Y-94552481D01*
X57560337Y-94529320D01*
X57953320Y-94136337D01*
X57976481Y-94080421D01*
X57991397Y-94076143D01*
X58073024Y-93847345D01*
X58166000Y-93622881D01*
X58166000Y-93586737D01*
X58178144Y-93552698D01*
X58166000Y-93310069D01*
X58166000Y-93137302D01*
X188201856Y-93137302D01*
X188214000Y-93379931D01*
X188214000Y-93622881D01*
X188227831Y-93656273D01*
X188229638Y-93692368D01*
X188388603Y-94076143D01*
X188403519Y-94080421D01*
X188426680Y-94136337D01*
X188819663Y-94529320D01*
X188875579Y-94552481D01*
X188879857Y-94567397D01*
X189108655Y-94649024D01*
X189333119Y-94742000D01*
X189369263Y-94742000D01*
X189403302Y-94754144D01*
X189645931Y-94742000D01*
X189888881Y-94742000D01*
X189922273Y-94728169D01*
X189958368Y-94726362D01*
X190342143Y-94567397D01*
X190346421Y-94552481D01*
X190402337Y-94529320D01*
X190795320Y-94136337D01*
X190818481Y-94080421D01*
X190833397Y-94076143D01*
X190915024Y-93847345D01*
X191008000Y-93622881D01*
X191008000Y-93586737D01*
X191020144Y-93552698D01*
X191008000Y-93310069D01*
X191008000Y-93067119D01*
X190994169Y-93033727D01*
X190992362Y-92997632D01*
X190833397Y-92613857D01*
X190818481Y-92609579D01*
X190795320Y-92553663D01*
X190402337Y-92160680D01*
X190346421Y-92137519D01*
X190342143Y-92122603D01*
X190113345Y-92040976D01*
X189888881Y-91948000D01*
X189852737Y-91948000D01*
X189818698Y-91935856D01*
X189576069Y-91948000D01*
X189333119Y-91948000D01*
X189299727Y-91961831D01*
X189263632Y-91963638D01*
X188879857Y-92122603D01*
X188875579Y-92137519D01*
X188819663Y-92160680D01*
X188426680Y-92553663D01*
X188403519Y-92609579D01*
X188388603Y-92613857D01*
X188306976Y-92842655D01*
X188214000Y-93067119D01*
X188214000Y-93103263D01*
X188201856Y-93137302D01*
X58166000Y-93137302D01*
X58166000Y-93067119D01*
X58152169Y-93033727D01*
X58150362Y-92997632D01*
X57991397Y-92613857D01*
X57976481Y-92609579D01*
X57953320Y-92553663D01*
X57560337Y-92160680D01*
X57504421Y-92137519D01*
X57500143Y-92122603D01*
X57271345Y-92040976D01*
X57046881Y-91948000D01*
X57010737Y-91948000D01*
X56976698Y-91935856D01*
X56734069Y-91948000D01*
X56491119Y-91948000D01*
X56457727Y-91961831D01*
X56421632Y-91963638D01*
X56037857Y-92122603D01*
X56033579Y-92137519D01*
X55977663Y-92160680D01*
X55584680Y-92553663D01*
X55561519Y-92609579D01*
X55546603Y-92613857D01*
X55464976Y-92842655D01*
X55372000Y-93067119D01*
X55372000Y-93103263D01*
X55359856Y-93137302D01*
X55320000Y-93137302D01*
X55320000Y-76835000D01*
X58356581Y-76835000D01*
X58370001Y-76902467D01*
X58370000Y-90737538D01*
X58356581Y-90805000D01*
X58409745Y-91072273D01*
X58561143Y-91298857D01*
X58787727Y-91450255D01*
X59055000Y-91503419D01*
X59122461Y-91490000D01*
X72957539Y-91490000D01*
X73025000Y-91503419D01*
X73292273Y-91450255D01*
X73518857Y-91298857D01*
X73670255Y-91072273D01*
X73710000Y-90872462D01*
X73710000Y-90872461D01*
X73723419Y-90805000D01*
X73710000Y-90737538D01*
X73710000Y-76902462D01*
X73723419Y-76835000D01*
X77406581Y-76835000D01*
X77420001Y-76902467D01*
X77420000Y-90737538D01*
X77406581Y-90805000D01*
X77459745Y-91072273D01*
X77611143Y-91298857D01*
X77837727Y-91450255D01*
X78105000Y-91503419D01*
X78172461Y-91490000D01*
X92007539Y-91490000D01*
X92075000Y-91503419D01*
X92342273Y-91450255D01*
X92568857Y-91298857D01*
X92720255Y-91072273D01*
X92760000Y-90872462D01*
X92760000Y-90872461D01*
X92773419Y-90805000D01*
X92760000Y-90737538D01*
X92760000Y-76902462D01*
X92773419Y-76835000D01*
X96456581Y-76835000D01*
X96470001Y-76902467D01*
X96470000Y-90737538D01*
X96456581Y-90805000D01*
X96509745Y-91072273D01*
X96661143Y-91298857D01*
X96887727Y-91450255D01*
X97155000Y-91503419D01*
X97222461Y-91490000D01*
X111057539Y-91490000D01*
X111125000Y-91503419D01*
X111392273Y-91450255D01*
X111618857Y-91298857D01*
X111770255Y-91072273D01*
X111810000Y-90872462D01*
X111810000Y-90872461D01*
X111823419Y-90805000D01*
X111810000Y-90737538D01*
X111810000Y-76902462D01*
X111823419Y-76835000D01*
X115506581Y-76835000D01*
X115520001Y-76902467D01*
X115520000Y-90737538D01*
X115506581Y-90805000D01*
X115559745Y-91072273D01*
X115711143Y-91298857D01*
X115937727Y-91450255D01*
X116205000Y-91503419D01*
X116272461Y-91490000D01*
X130107539Y-91490000D01*
X130175000Y-91503419D01*
X130442273Y-91450255D01*
X130668857Y-91298857D01*
X130820255Y-91072273D01*
X130860000Y-90872462D01*
X130860000Y-90872461D01*
X130873419Y-90805000D01*
X130860000Y-90737538D01*
X130860000Y-76902462D01*
X130873419Y-76835000D01*
X134556581Y-76835000D01*
X134570001Y-76902467D01*
X134570000Y-90737538D01*
X134556581Y-90805000D01*
X134609745Y-91072273D01*
X134761143Y-91298857D01*
X134987727Y-91450255D01*
X135255000Y-91503419D01*
X135322461Y-91490000D01*
X149157539Y-91490000D01*
X149225000Y-91503419D01*
X149492273Y-91450255D01*
X149718857Y-91298857D01*
X149870255Y-91072273D01*
X149910000Y-90872462D01*
X149910000Y-90872461D01*
X149923419Y-90805000D01*
X149910000Y-90737538D01*
X149910000Y-76902462D01*
X149923419Y-76835000D01*
X153606581Y-76835000D01*
X153620001Y-76902467D01*
X153620000Y-90737538D01*
X153606581Y-90805000D01*
X153659745Y-91072273D01*
X153811143Y-91298857D01*
X154037727Y-91450255D01*
X154305000Y-91503419D01*
X154372461Y-91490000D01*
X168207539Y-91490000D01*
X168275000Y-91503419D01*
X168542273Y-91450255D01*
X168768857Y-91298857D01*
X168920255Y-91072273D01*
X168960000Y-90872462D01*
X168960000Y-90872461D01*
X168973419Y-90805000D01*
X168960000Y-90737538D01*
X168960000Y-76902462D01*
X168973419Y-76835000D01*
X172656581Y-76835000D01*
X172670001Y-76902467D01*
X172670000Y-90737538D01*
X172656581Y-90805000D01*
X172709745Y-91072273D01*
X172861143Y-91298857D01*
X173087727Y-91450255D01*
X173355000Y-91503419D01*
X173422461Y-91490000D01*
X187257539Y-91490000D01*
X187325000Y-91503419D01*
X187592273Y-91450255D01*
X187818857Y-91298857D01*
X187970255Y-91072273D01*
X188010000Y-90872462D01*
X188010000Y-90872461D01*
X188023419Y-90805000D01*
X188010000Y-90737538D01*
X188010000Y-76902462D01*
X188023419Y-76835000D01*
X187970255Y-76567727D01*
X187818857Y-76341143D01*
X187592273Y-76189745D01*
X187392462Y-76150000D01*
X187392461Y-76150000D01*
X187325000Y-76136581D01*
X187257538Y-76150000D01*
X173422462Y-76150000D01*
X173355000Y-76136581D01*
X173287539Y-76150000D01*
X173287538Y-76150000D01*
X173087727Y-76189745D01*
X172861143Y-76341143D01*
X172709745Y-76567727D01*
X172656581Y-76835000D01*
X168973419Y-76835000D01*
X168920255Y-76567727D01*
X168768857Y-76341143D01*
X168542273Y-76189745D01*
X168342462Y-76150000D01*
X168342461Y-76150000D01*
X168275000Y-76136581D01*
X168207538Y-76150000D01*
X154372462Y-76150000D01*
X154305000Y-76136581D01*
X154237539Y-76150000D01*
X154237538Y-76150000D01*
X154037727Y-76189745D01*
X153811143Y-76341143D01*
X153659745Y-76567727D01*
X153606581Y-76835000D01*
X149923419Y-76835000D01*
X149870255Y-76567727D01*
X149718857Y-76341143D01*
X149492273Y-76189745D01*
X149292462Y-76150000D01*
X149292461Y-76150000D01*
X149225000Y-76136581D01*
X149157538Y-76150000D01*
X135322462Y-76150000D01*
X135255000Y-76136581D01*
X135187539Y-76150000D01*
X135187538Y-76150000D01*
X134987727Y-76189745D01*
X134761143Y-76341143D01*
X134609745Y-76567727D01*
X134556581Y-76835000D01*
X130873419Y-76835000D01*
X130820255Y-76567727D01*
X130668857Y-76341143D01*
X130442273Y-76189745D01*
X130242462Y-76150000D01*
X130242461Y-76150000D01*
X130175000Y-76136581D01*
X130107538Y-76150000D01*
X116272462Y-76150000D01*
X116205000Y-76136581D01*
X116137539Y-76150000D01*
X116137538Y-76150000D01*
X115937727Y-76189745D01*
X115711143Y-76341143D01*
X115559745Y-76567727D01*
X115506581Y-76835000D01*
X111823419Y-76835000D01*
X111770255Y-76567727D01*
X111618857Y-76341143D01*
X111392273Y-76189745D01*
X111192462Y-76150000D01*
X111192461Y-76150000D01*
X111125000Y-76136581D01*
X111057538Y-76150000D01*
X97222462Y-76150000D01*
X97155000Y-76136581D01*
X97087539Y-76150000D01*
X97087538Y-76150000D01*
X96887727Y-76189745D01*
X96661143Y-76341143D01*
X96509745Y-76567727D01*
X96456581Y-76835000D01*
X92773419Y-76835000D01*
X92720255Y-76567727D01*
X92568857Y-76341143D01*
X92342273Y-76189745D01*
X92142462Y-76150000D01*
X92142461Y-76150000D01*
X92075000Y-76136581D01*
X92007538Y-76150000D01*
X78172462Y-76150000D01*
X78105000Y-76136581D01*
X78037539Y-76150000D01*
X78037538Y-76150000D01*
X77837727Y-76189745D01*
X77611143Y-76341143D01*
X77459745Y-76567727D01*
X77406581Y-76835000D01*
X73723419Y-76835000D01*
X73670255Y-76567727D01*
X73518857Y-76341143D01*
X73292273Y-76189745D01*
X73092462Y-76150000D01*
X73092461Y-76150000D01*
X73025000Y-76136581D01*
X72957538Y-76150000D01*
X59122462Y-76150000D01*
X59055000Y-76136581D01*
X58987539Y-76150000D01*
X58987538Y-76150000D01*
X58787727Y-76189745D01*
X58561143Y-76341143D01*
X58409745Y-76567727D01*
X58356581Y-76835000D01*
X55320000Y-76835000D01*
X55320000Y-74087302D01*
X93205856Y-74087302D01*
X93218000Y-74329931D01*
X93218000Y-74572881D01*
X93231831Y-74606273D01*
X93233638Y-74642368D01*
X93392603Y-75026143D01*
X93407519Y-75030421D01*
X93430680Y-75086337D01*
X93823663Y-75479320D01*
X93879579Y-75502481D01*
X93883857Y-75517397D01*
X94112655Y-75599024D01*
X94337119Y-75692000D01*
X94373263Y-75692000D01*
X94407302Y-75704144D01*
X94649931Y-75692000D01*
X94892881Y-75692000D01*
X94926273Y-75678169D01*
X94962368Y-75676362D01*
X95346143Y-75517397D01*
X95350421Y-75502481D01*
X95406337Y-75479320D01*
X95799320Y-75086337D01*
X95822481Y-75030421D01*
X95837397Y-75026143D01*
X95919024Y-74797345D01*
X96012000Y-74572881D01*
X96012000Y-74536737D01*
X96024144Y-74502698D01*
X96012000Y-74260069D01*
X96012000Y-74087302D01*
X150355856Y-74087302D01*
X150368000Y-74329931D01*
X150368000Y-74572881D01*
X150381831Y-74606273D01*
X150383638Y-74642368D01*
X150542603Y-75026143D01*
X150557519Y-75030421D01*
X150580680Y-75086337D01*
X150973663Y-75479320D01*
X151029579Y-75502481D01*
X151033857Y-75517397D01*
X151262655Y-75599024D01*
X151487119Y-75692000D01*
X151523263Y-75692000D01*
X151557302Y-75704144D01*
X151799931Y-75692000D01*
X152042881Y-75692000D01*
X152076273Y-75678169D01*
X152112368Y-75676362D01*
X152496143Y-75517397D01*
X152500421Y-75502481D01*
X152556337Y-75479320D01*
X152949320Y-75086337D01*
X152972481Y-75030421D01*
X152987397Y-75026143D01*
X153069024Y-74797345D01*
X153162000Y-74572881D01*
X153162000Y-74536737D01*
X153174144Y-74502698D01*
X153162000Y-74260069D01*
X153162000Y-74017119D01*
X153148169Y-73983727D01*
X153146362Y-73947632D01*
X152987397Y-73563857D01*
X152972481Y-73559579D01*
X152949320Y-73503663D01*
X152556337Y-73110680D01*
X152500421Y-73087519D01*
X152496143Y-73072603D01*
X152267345Y-72990976D01*
X152042881Y-72898000D01*
X152006737Y-72898000D01*
X151972698Y-72885856D01*
X151730069Y-72898000D01*
X151487119Y-72898000D01*
X151453727Y-72911831D01*
X151417632Y-72913638D01*
X151033857Y-73072603D01*
X151029579Y-73087519D01*
X150973663Y-73110680D01*
X150580680Y-73503663D01*
X150557519Y-73559579D01*
X150542603Y-73563857D01*
X150460976Y-73792655D01*
X150368000Y-74017119D01*
X150368000Y-74053263D01*
X150355856Y-74087302D01*
X96012000Y-74087302D01*
X96012000Y-74017119D01*
X95998169Y-73983727D01*
X95996362Y-73947632D01*
X95837397Y-73563857D01*
X95822481Y-73559579D01*
X95799320Y-73503663D01*
X95406337Y-73110680D01*
X95350421Y-73087519D01*
X95346143Y-73072603D01*
X95117345Y-72990976D01*
X94892881Y-72898000D01*
X94856737Y-72898000D01*
X94822698Y-72885856D01*
X94580069Y-72898000D01*
X94337119Y-72898000D01*
X94303727Y-72911831D01*
X94267632Y-72913638D01*
X93883857Y-73072603D01*
X93879579Y-73087519D01*
X93823663Y-73110680D01*
X93430680Y-73503663D01*
X93407519Y-73559579D01*
X93392603Y-73563857D01*
X93310976Y-73792655D01*
X93218000Y-74017119D01*
X93218000Y-74053263D01*
X93205856Y-74087302D01*
X55320000Y-74087302D01*
X55320000Y-57785000D01*
X58356581Y-57785000D01*
X58370001Y-57852467D01*
X58370000Y-71687538D01*
X58356581Y-71755000D01*
X58409745Y-72022273D01*
X58561143Y-72248857D01*
X58787727Y-72400255D01*
X59055000Y-72453419D01*
X59122461Y-72440000D01*
X72957539Y-72440000D01*
X73025000Y-72453419D01*
X73292273Y-72400255D01*
X73518857Y-72248857D01*
X73670255Y-72022273D01*
X73710000Y-71822462D01*
X73710000Y-71822461D01*
X73723419Y-71755000D01*
X73710000Y-71687538D01*
X73710000Y-57852462D01*
X73723419Y-57785000D01*
X77406581Y-57785000D01*
X77420001Y-57852467D01*
X77420000Y-71687538D01*
X77406581Y-71755000D01*
X77459745Y-72022273D01*
X77611143Y-72248857D01*
X77837727Y-72400255D01*
X78105000Y-72453419D01*
X78172461Y-72440000D01*
X92007539Y-72440000D01*
X92075000Y-72453419D01*
X92342273Y-72400255D01*
X92568857Y-72248857D01*
X92720255Y-72022273D01*
X92760000Y-71822462D01*
X92760000Y-71822461D01*
X92773419Y-71755000D01*
X92760000Y-71687538D01*
X92760000Y-57852462D01*
X92773419Y-57785000D01*
X96456581Y-57785000D01*
X96470001Y-57852467D01*
X96470000Y-71687538D01*
X96456581Y-71755000D01*
X96509745Y-72022273D01*
X96661143Y-72248857D01*
X96887727Y-72400255D01*
X97155000Y-72453419D01*
X97222461Y-72440000D01*
X111057539Y-72440000D01*
X111125000Y-72453419D01*
X111392273Y-72400255D01*
X111618857Y-72248857D01*
X111770255Y-72022273D01*
X111810000Y-71822462D01*
X111810000Y-71822461D01*
X111823419Y-71755000D01*
X111810000Y-71687538D01*
X111810000Y-57852462D01*
X111823419Y-57785000D01*
X115506581Y-57785000D01*
X115520001Y-57852467D01*
X115520000Y-71687538D01*
X115506581Y-71755000D01*
X115559745Y-72022273D01*
X115711143Y-72248857D01*
X115937727Y-72400255D01*
X116205000Y-72453419D01*
X116272461Y-72440000D01*
X130107539Y-72440000D01*
X130175000Y-72453419D01*
X130442273Y-72400255D01*
X130668857Y-72248857D01*
X130820255Y-72022273D01*
X130860000Y-71822462D01*
X130860000Y-71822461D01*
X130873419Y-71755000D01*
X130860000Y-71687538D01*
X130860000Y-57852462D01*
X130873419Y-57785000D01*
X134556581Y-57785000D01*
X134570001Y-57852467D01*
X134570000Y-71687538D01*
X134556581Y-71755000D01*
X134609745Y-72022273D01*
X134761143Y-72248857D01*
X134987727Y-72400255D01*
X135255000Y-72453419D01*
X135322461Y-72440000D01*
X149157539Y-72440000D01*
X149225000Y-72453419D01*
X149492273Y-72400255D01*
X149718857Y-72248857D01*
X149870255Y-72022273D01*
X149910000Y-71822462D01*
X149910000Y-71822461D01*
X149923419Y-71755000D01*
X149910000Y-71687538D01*
X149910000Y-57852462D01*
X149923419Y-57785000D01*
X153606581Y-57785000D01*
X153620001Y-57852467D01*
X153620000Y-71687538D01*
X153606581Y-71755000D01*
X153659745Y-72022273D01*
X153811143Y-72248857D01*
X154037727Y-72400255D01*
X154305000Y-72453419D01*
X154372461Y-72440000D01*
X168207539Y-72440000D01*
X168275000Y-72453419D01*
X168542273Y-72400255D01*
X168768857Y-72248857D01*
X168920255Y-72022273D01*
X168960000Y-71822462D01*
X168960000Y-71822461D01*
X168973419Y-71755000D01*
X168960000Y-71687538D01*
X168960000Y-57852462D01*
X168973419Y-57785000D01*
X172656581Y-57785000D01*
X172670001Y-57852467D01*
X172670000Y-71687538D01*
X172656581Y-71755000D01*
X172709745Y-72022273D01*
X172861143Y-72248857D01*
X173087727Y-72400255D01*
X173355000Y-72453419D01*
X173422461Y-72440000D01*
X187257539Y-72440000D01*
X187325000Y-72453419D01*
X187592273Y-72400255D01*
X187818857Y-72248857D01*
X187970255Y-72022273D01*
X188010000Y-71822462D01*
X188010000Y-71822461D01*
X188023419Y-71755000D01*
X188010000Y-71687538D01*
X188010000Y-57852462D01*
X188023419Y-57785000D01*
X187970255Y-57517727D01*
X187818857Y-57291143D01*
X187592273Y-57139745D01*
X187392462Y-57100000D01*
X187392461Y-57100000D01*
X187325000Y-57086581D01*
X187257538Y-57100000D01*
X173422462Y-57100000D01*
X173355000Y-57086581D01*
X173287539Y-57100000D01*
X173287538Y-57100000D01*
X173087727Y-57139745D01*
X172861143Y-57291143D01*
X172709745Y-57517727D01*
X172656581Y-57785000D01*
X168973419Y-57785000D01*
X168920255Y-57517727D01*
X168768857Y-57291143D01*
X168542273Y-57139745D01*
X168342462Y-57100000D01*
X168342461Y-57100000D01*
X168275000Y-57086581D01*
X168207538Y-57100000D01*
X154372462Y-57100000D01*
X154305000Y-57086581D01*
X154237539Y-57100000D01*
X154237538Y-57100000D01*
X154037727Y-57139745D01*
X153811143Y-57291143D01*
X153659745Y-57517727D01*
X153606581Y-57785000D01*
X149923419Y-57785000D01*
X149870255Y-57517727D01*
X149718857Y-57291143D01*
X149492273Y-57139745D01*
X149292462Y-57100000D01*
X149292461Y-57100000D01*
X149225000Y-57086581D01*
X149157538Y-57100000D01*
X135322462Y-57100000D01*
X135255000Y-57086581D01*
X135187539Y-57100000D01*
X135187538Y-57100000D01*
X134987727Y-57139745D01*
X134761143Y-57291143D01*
X134609745Y-57517727D01*
X134556581Y-57785000D01*
X130873419Y-57785000D01*
X130820255Y-57517727D01*
X130668857Y-57291143D01*
X130442273Y-57139745D01*
X130242462Y-57100000D01*
X130242461Y-57100000D01*
X130175000Y-57086581D01*
X130107538Y-57100000D01*
X116272462Y-57100000D01*
X116205000Y-57086581D01*
X116137539Y-57100000D01*
X116137538Y-57100000D01*
X115937727Y-57139745D01*
X115711143Y-57291143D01*
X115559745Y-57517727D01*
X115506581Y-57785000D01*
X111823419Y-57785000D01*
X111770255Y-57517727D01*
X111618857Y-57291143D01*
X111392273Y-57139745D01*
X111192462Y-57100000D01*
X111192461Y-57100000D01*
X111125000Y-57086581D01*
X111057538Y-57100000D01*
X97222462Y-57100000D01*
X97155000Y-57086581D01*
X97087539Y-57100000D01*
X97087538Y-57100000D01*
X96887727Y-57139745D01*
X96661143Y-57291143D01*
X96509745Y-57517727D01*
X96456581Y-57785000D01*
X92773419Y-57785000D01*
X92720255Y-57517727D01*
X92568857Y-57291143D01*
X92342273Y-57139745D01*
X92142462Y-57100000D01*
X92142461Y-57100000D01*
X92075000Y-57086581D01*
X92007538Y-57100000D01*
X78172462Y-57100000D01*
X78105000Y-57086581D01*
X78037539Y-57100000D01*
X78037538Y-57100000D01*
X77837727Y-57139745D01*
X77611143Y-57291143D01*
X77459745Y-57517727D01*
X77406581Y-57785000D01*
X73723419Y-57785000D01*
X73670255Y-57517727D01*
X73518857Y-57291143D01*
X73292273Y-57139745D01*
X73092462Y-57100000D01*
X73092461Y-57100000D01*
X73025000Y-57086581D01*
X72957538Y-57100000D01*
X59122462Y-57100000D01*
X59055000Y-57086581D01*
X58987539Y-57100000D01*
X58987538Y-57100000D01*
X58787727Y-57139745D01*
X58561143Y-57291143D01*
X58409745Y-57517727D01*
X58356581Y-57785000D01*
X55320000Y-57785000D01*
X55320000Y-55037302D01*
X55359856Y-55037302D01*
X55372000Y-55279931D01*
X55372000Y-55522881D01*
X55385831Y-55556273D01*
X55387638Y-55592368D01*
X55546603Y-55976143D01*
X55561519Y-55980421D01*
X55584680Y-56036337D01*
X55977663Y-56429320D01*
X56033579Y-56452481D01*
X56037857Y-56467397D01*
X56266655Y-56549024D01*
X56491119Y-56642000D01*
X56527263Y-56642000D01*
X56561302Y-56654144D01*
X56803931Y-56642000D01*
X57046881Y-56642000D01*
X57080273Y-56628169D01*
X57116368Y-56626362D01*
X57500143Y-56467397D01*
X57504421Y-56452481D01*
X57560337Y-56429320D01*
X57953320Y-56036337D01*
X57976481Y-55980421D01*
X57991397Y-55976143D01*
X58073024Y-55747345D01*
X58166000Y-55522881D01*
X58166000Y-55486737D01*
X58178144Y-55452698D01*
X58166000Y-55210069D01*
X58166000Y-55037302D01*
X188201856Y-55037302D01*
X188214000Y-55279931D01*
X188214000Y-55522881D01*
X188227831Y-55556273D01*
X188229638Y-55592368D01*
X188388603Y-55976143D01*
X188403519Y-55980421D01*
X188426680Y-56036337D01*
X188819663Y-56429320D01*
X188875579Y-56452481D01*
X188879857Y-56467397D01*
X189108655Y-56549024D01*
X189333119Y-56642000D01*
X189369263Y-56642000D01*
X189403302Y-56654144D01*
X189645931Y-56642000D01*
X189888881Y-56642000D01*
X189922273Y-56628169D01*
X189958368Y-56626362D01*
X190342143Y-56467397D01*
X190346421Y-56452481D01*
X190402337Y-56429320D01*
X190795320Y-56036337D01*
X190818481Y-55980421D01*
X190833397Y-55976143D01*
X190915024Y-55747345D01*
X191008000Y-55522881D01*
X191008000Y-55486737D01*
X191020144Y-55452698D01*
X191008000Y-55210069D01*
X191008000Y-54967119D01*
X190994169Y-54933727D01*
X190992362Y-54897632D01*
X190833397Y-54513857D01*
X190818481Y-54509579D01*
X190795320Y-54453663D01*
X190402337Y-54060680D01*
X190346421Y-54037519D01*
X190342143Y-54022603D01*
X190113345Y-53940976D01*
X189888881Y-53848000D01*
X189852737Y-53848000D01*
X189818698Y-53835856D01*
X189576069Y-53848000D01*
X189333119Y-53848000D01*
X189299727Y-53861831D01*
X189263632Y-53863638D01*
X188879857Y-54022603D01*
X188875579Y-54037519D01*
X188819663Y-54060680D01*
X188426680Y-54453663D01*
X188403519Y-54509579D01*
X188388603Y-54513857D01*
X188306976Y-54742655D01*
X188214000Y-54967119D01*
X188214000Y-55003263D01*
X188201856Y-55037302D01*
X58166000Y-55037302D01*
X58166000Y-54967119D01*
X58152169Y-54933727D01*
X58150362Y-54897632D01*
X57991397Y-54513857D01*
X57976481Y-54509579D01*
X57953320Y-54453663D01*
X57560337Y-54060680D01*
X57504421Y-54037519D01*
X57500143Y-54022603D01*
X57271345Y-53940976D01*
X57046881Y-53848000D01*
X57010737Y-53848000D01*
X56976698Y-53835856D01*
X56734069Y-53848000D01*
X56491119Y-53848000D01*
X56457727Y-53861831D01*
X56421632Y-53863638D01*
X56037857Y-54022603D01*
X56033579Y-54037519D01*
X55977663Y-54060680D01*
X55584680Y-54453663D01*
X55561519Y-54509579D01*
X55546603Y-54513857D01*
X55464976Y-54742655D01*
X55372000Y-54967119D01*
X55372000Y-55003263D01*
X55359856Y-55037302D01*
X55320000Y-55037302D01*
X55320000Y-38735000D01*
X58356581Y-38735000D01*
X58370000Y-38802462D01*
X58370001Y-52637533D01*
X58356581Y-52705000D01*
X58409745Y-52972273D01*
X58561143Y-53198857D01*
X58787727Y-53350255D01*
X58987538Y-53390000D01*
X58987539Y-53390000D01*
X59055000Y-53403419D01*
X59122462Y-53390000D01*
X72957538Y-53390000D01*
X73025000Y-53403419D01*
X73092461Y-53390000D01*
X73092462Y-53390000D01*
X73292273Y-53350255D01*
X73518857Y-53198857D01*
X73670255Y-52972273D01*
X73723419Y-52705000D01*
X73710000Y-52637538D01*
X73710000Y-38802462D01*
X73723419Y-38735000D01*
X77406581Y-38735000D01*
X77420000Y-38802462D01*
X77420001Y-52637533D01*
X77406581Y-52705000D01*
X77459745Y-52972273D01*
X77611143Y-53198857D01*
X77837727Y-53350255D01*
X78037538Y-53390000D01*
X78037539Y-53390000D01*
X78105000Y-53403419D01*
X78172462Y-53390000D01*
X92007538Y-53390000D01*
X92075000Y-53403419D01*
X92142461Y-53390000D01*
X92142462Y-53390000D01*
X92342273Y-53350255D01*
X92568857Y-53198857D01*
X92720255Y-52972273D01*
X92773419Y-52705000D01*
X92760000Y-52637538D01*
X92760000Y-38802462D01*
X92773419Y-38735000D01*
X96456581Y-38735000D01*
X96470000Y-38802462D01*
X96470001Y-52637533D01*
X96456581Y-52705000D01*
X96509745Y-52972273D01*
X96661143Y-53198857D01*
X96887727Y-53350255D01*
X97087538Y-53390000D01*
X97087539Y-53390000D01*
X97155000Y-53403419D01*
X97222462Y-53390000D01*
X111057538Y-53390000D01*
X111125000Y-53403419D01*
X111192461Y-53390000D01*
X111192462Y-53390000D01*
X111392273Y-53350255D01*
X111618857Y-53198857D01*
X111770255Y-52972273D01*
X111823419Y-52705000D01*
X111810000Y-52637538D01*
X111810000Y-38802462D01*
X111823419Y-38735000D01*
X115506581Y-38735000D01*
X115520000Y-38802462D01*
X115520001Y-52637533D01*
X115506581Y-52705000D01*
X115559745Y-52972273D01*
X115711143Y-53198857D01*
X115937727Y-53350255D01*
X116137538Y-53390000D01*
X116137539Y-53390000D01*
X116205000Y-53403419D01*
X116272462Y-53390000D01*
X130107538Y-53390000D01*
X130175000Y-53403419D01*
X130242461Y-53390000D01*
X130242462Y-53390000D01*
X130442273Y-53350255D01*
X130668857Y-53198857D01*
X130820255Y-52972273D01*
X130873419Y-52705000D01*
X130860000Y-52637538D01*
X130860000Y-38802462D01*
X130873419Y-38735000D01*
X134556581Y-38735000D01*
X134570000Y-38802462D01*
X134570001Y-52637533D01*
X134556581Y-52705000D01*
X134609745Y-52972273D01*
X134761143Y-53198857D01*
X134987727Y-53350255D01*
X135187538Y-53390000D01*
X135187539Y-53390000D01*
X135255000Y-53403419D01*
X135322462Y-53390000D01*
X149157538Y-53390000D01*
X149225000Y-53403419D01*
X149292461Y-53390000D01*
X149292462Y-53390000D01*
X149492273Y-53350255D01*
X149718857Y-53198857D01*
X149870255Y-52972273D01*
X149923419Y-52705000D01*
X149910000Y-52637538D01*
X149910000Y-38802462D01*
X149923419Y-38735000D01*
X153606581Y-38735000D01*
X153620000Y-38802462D01*
X153620001Y-52637533D01*
X153606581Y-52705000D01*
X153659745Y-52972273D01*
X153811143Y-53198857D01*
X154037727Y-53350255D01*
X154237538Y-53390000D01*
X154237539Y-53390000D01*
X154305000Y-53403419D01*
X154372462Y-53390000D01*
X168207538Y-53390000D01*
X168275000Y-53403419D01*
X168342461Y-53390000D01*
X168342462Y-53390000D01*
X168542273Y-53350255D01*
X168768857Y-53198857D01*
X168920255Y-52972273D01*
X168973419Y-52705000D01*
X168960000Y-52637538D01*
X168960000Y-38802462D01*
X168973419Y-38735000D01*
X172656581Y-38735000D01*
X172670000Y-38802462D01*
X172670001Y-52637533D01*
X172656581Y-52705000D01*
X172709745Y-52972273D01*
X172861143Y-53198857D01*
X173087727Y-53350255D01*
X173287538Y-53390000D01*
X173287539Y-53390000D01*
X173355000Y-53403419D01*
X173422462Y-53390000D01*
X187257538Y-53390000D01*
X187325000Y-53403419D01*
X187392461Y-53390000D01*
X187392462Y-53390000D01*
X187592273Y-53350255D01*
X187818857Y-53198857D01*
X187970255Y-52972273D01*
X188023419Y-52705000D01*
X188010000Y-52637538D01*
X188010000Y-38802462D01*
X188023419Y-38735000D01*
X187970255Y-38467727D01*
X187818857Y-38241143D01*
X187592273Y-38089745D01*
X187392462Y-38050000D01*
X187325000Y-38036581D01*
X187257539Y-38050000D01*
X173422461Y-38050000D01*
X173355000Y-38036581D01*
X173287538Y-38050000D01*
X173087727Y-38089745D01*
X172861143Y-38241143D01*
X172709745Y-38467727D01*
X172656581Y-38735000D01*
X168973419Y-38735000D01*
X168920255Y-38467727D01*
X168768857Y-38241143D01*
X168542273Y-38089745D01*
X168342462Y-38050000D01*
X168275000Y-38036581D01*
X168207539Y-38050000D01*
X154372461Y-38050000D01*
X154305000Y-38036581D01*
X154237538Y-38050000D01*
X154037727Y-38089745D01*
X153811143Y-38241143D01*
X153659745Y-38467727D01*
X153606581Y-38735000D01*
X149923419Y-38735000D01*
X149870255Y-38467727D01*
X149718857Y-38241143D01*
X149492273Y-38089745D01*
X149292462Y-38050000D01*
X149225000Y-38036581D01*
X149157539Y-38050000D01*
X135322461Y-38050000D01*
X135255000Y-38036581D01*
X135187538Y-38050000D01*
X134987727Y-38089745D01*
X134761143Y-38241143D01*
X134609745Y-38467727D01*
X134556581Y-38735000D01*
X130873419Y-38735000D01*
X130820255Y-38467727D01*
X130668857Y-38241143D01*
X130442273Y-38089745D01*
X130242462Y-38050000D01*
X130175000Y-38036581D01*
X130107539Y-38050000D01*
X116272461Y-38050000D01*
X116205000Y-38036581D01*
X116137538Y-38050000D01*
X115937727Y-38089745D01*
X115711143Y-38241143D01*
X115559745Y-38467727D01*
X115506581Y-38735000D01*
X111823419Y-38735000D01*
X111770255Y-38467727D01*
X111618857Y-38241143D01*
X111392273Y-38089745D01*
X111192462Y-38050000D01*
X111125000Y-38036581D01*
X111057539Y-38050000D01*
X97222461Y-38050000D01*
X97155000Y-38036581D01*
X97087538Y-38050000D01*
X96887727Y-38089745D01*
X96661143Y-38241143D01*
X96509745Y-38467727D01*
X96456581Y-38735000D01*
X92773419Y-38735000D01*
X92720255Y-38467727D01*
X92568857Y-38241143D01*
X92342273Y-38089745D01*
X92142462Y-38050000D01*
X92075000Y-38036581D01*
X92007539Y-38050000D01*
X78172461Y-38050000D01*
X78105000Y-38036581D01*
X78037538Y-38050000D01*
X77837727Y-38089745D01*
X77611143Y-38241143D01*
X77459745Y-38467727D01*
X77406581Y-38735000D01*
X73723419Y-38735000D01*
X73670255Y-38467727D01*
X73518857Y-38241143D01*
X73292273Y-38089745D01*
X73092462Y-38050000D01*
X73025000Y-38036581D01*
X72957539Y-38050000D01*
X59122461Y-38050000D01*
X59055000Y-38036581D01*
X58987538Y-38050000D01*
X58787727Y-38089745D01*
X58561143Y-38241143D01*
X58409745Y-38467727D01*
X58356581Y-38735000D01*
X55320000Y-38735000D01*
X55320000Y-36245580D01*
X55320612Y-36241302D01*
X55359856Y-36241302D01*
X55372000Y-36483931D01*
X55372000Y-36726881D01*
X55385831Y-36760273D01*
X55387638Y-36796368D01*
X55546603Y-37180143D01*
X55561519Y-37184421D01*
X55584680Y-37240337D01*
X55977663Y-37633320D01*
X56033579Y-37656481D01*
X56037857Y-37671397D01*
X56266655Y-37753024D01*
X56491119Y-37846000D01*
X56527263Y-37846000D01*
X56561302Y-37858144D01*
X56803931Y-37846000D01*
X57046881Y-37846000D01*
X57080273Y-37832169D01*
X57116368Y-37830362D01*
X57500143Y-37671397D01*
X57504421Y-37656481D01*
X57560337Y-37633320D01*
X57953320Y-37240337D01*
X57976481Y-37184421D01*
X57991397Y-37180143D01*
X58073024Y-36951345D01*
X58166000Y-36726881D01*
X58166000Y-36690737D01*
X58178144Y-36656698D01*
X58166000Y-36414069D01*
X58166000Y-36241302D01*
X102730856Y-36241302D01*
X102743000Y-36483931D01*
X102743000Y-36726881D01*
X102756831Y-36760273D01*
X102758638Y-36796368D01*
X102917603Y-37180143D01*
X102932519Y-37184421D01*
X102955680Y-37240337D01*
X103348663Y-37633320D01*
X103404579Y-37656481D01*
X103408857Y-37671397D01*
X103637655Y-37753024D01*
X103862119Y-37846000D01*
X103898263Y-37846000D01*
X103932302Y-37858144D01*
X104174931Y-37846000D01*
X104417881Y-37846000D01*
X104451273Y-37832169D01*
X104487368Y-37830362D01*
X104871143Y-37671397D01*
X104875421Y-37656481D01*
X104931337Y-37633320D01*
X105324320Y-37240337D01*
X105347481Y-37184421D01*
X105362397Y-37180143D01*
X105444024Y-36951345D01*
X105537000Y-36726881D01*
X105537000Y-36690737D01*
X105549144Y-36656698D01*
X105537000Y-36414069D01*
X105537000Y-36241302D01*
X140830856Y-36241302D01*
X140843000Y-36483931D01*
X140843000Y-36726881D01*
X140856831Y-36760273D01*
X140858638Y-36796368D01*
X141017603Y-37180143D01*
X141032519Y-37184421D01*
X141055680Y-37240337D01*
X141448663Y-37633320D01*
X141504579Y-37656481D01*
X141508857Y-37671397D01*
X141737655Y-37753024D01*
X141962119Y-37846000D01*
X141998263Y-37846000D01*
X142032302Y-37858144D01*
X142274931Y-37846000D01*
X142517881Y-37846000D01*
X142551273Y-37832169D01*
X142587368Y-37830362D01*
X142971143Y-37671397D01*
X142975421Y-37656481D01*
X143031337Y-37633320D01*
X143424320Y-37240337D01*
X143447481Y-37184421D01*
X143462397Y-37180143D01*
X143544024Y-36951345D01*
X143637000Y-36726881D01*
X143637000Y-36690737D01*
X143649144Y-36656698D01*
X143637000Y-36414069D01*
X143637000Y-36241302D01*
X188201856Y-36241302D01*
X188214000Y-36483931D01*
X188214000Y-36726881D01*
X188227831Y-36760273D01*
X188229638Y-36796368D01*
X188388603Y-37180143D01*
X188403519Y-37184421D01*
X188426680Y-37240337D01*
X188819663Y-37633320D01*
X188875579Y-37656481D01*
X188879857Y-37671397D01*
X189108655Y-37753024D01*
X189333119Y-37846000D01*
X189369263Y-37846000D01*
X189403302Y-37858144D01*
X189645931Y-37846000D01*
X189888881Y-37846000D01*
X189922273Y-37832169D01*
X189958368Y-37830362D01*
X190342143Y-37671397D01*
X190346421Y-37656481D01*
X190402337Y-37633320D01*
X190795320Y-37240337D01*
X190818481Y-37184421D01*
X190833397Y-37180143D01*
X190915024Y-36951345D01*
X191008000Y-36726881D01*
X191008000Y-36690737D01*
X191020144Y-36656698D01*
X191008000Y-36414069D01*
X191008000Y-36171119D01*
X190994169Y-36137727D01*
X190992362Y-36101632D01*
X190833397Y-35717857D01*
X190818481Y-35713579D01*
X190795320Y-35657663D01*
X190402337Y-35264680D01*
X190346421Y-35241519D01*
X190342143Y-35226603D01*
X190113345Y-35144976D01*
X189888881Y-35052000D01*
X189852737Y-35052000D01*
X189818698Y-35039856D01*
X189576069Y-35052000D01*
X189333119Y-35052000D01*
X189299727Y-35065831D01*
X189263632Y-35067638D01*
X188879857Y-35226603D01*
X188875579Y-35241519D01*
X188819663Y-35264680D01*
X188426680Y-35657663D01*
X188403519Y-35713579D01*
X188388603Y-35717857D01*
X188306976Y-35946655D01*
X188214000Y-36171119D01*
X188214000Y-36207263D01*
X188201856Y-36241302D01*
X143637000Y-36241302D01*
X143637000Y-36171119D01*
X143623169Y-36137727D01*
X143621362Y-36101632D01*
X143462397Y-35717857D01*
X143447481Y-35713579D01*
X143424320Y-35657663D01*
X143031337Y-35264680D01*
X142975421Y-35241519D01*
X142971143Y-35226603D01*
X142742345Y-35144976D01*
X142517881Y-35052000D01*
X142481737Y-35052000D01*
X142447698Y-35039856D01*
X142205069Y-35052000D01*
X141962119Y-35052000D01*
X141928727Y-35065831D01*
X141892632Y-35067638D01*
X141508857Y-35226603D01*
X141504579Y-35241519D01*
X141448663Y-35264680D01*
X141055680Y-35657663D01*
X141032519Y-35713579D01*
X141017603Y-35717857D01*
X140935976Y-35946655D01*
X140843000Y-36171119D01*
X140843000Y-36207263D01*
X140830856Y-36241302D01*
X105537000Y-36241302D01*
X105537000Y-36171119D01*
X105523169Y-36137727D01*
X105521362Y-36101632D01*
X105362397Y-35717857D01*
X105347481Y-35713579D01*
X105324320Y-35657663D01*
X104931337Y-35264680D01*
X104875421Y-35241519D01*
X104871143Y-35226603D01*
X104642345Y-35144976D01*
X104417881Y-35052000D01*
X104381737Y-35052000D01*
X104347698Y-35039856D01*
X104105069Y-35052000D01*
X103862119Y-35052000D01*
X103828727Y-35065831D01*
X103792632Y-35067638D01*
X103408857Y-35226603D01*
X103404579Y-35241519D01*
X103348663Y-35264680D01*
X102955680Y-35657663D01*
X102932519Y-35713579D01*
X102917603Y-35717857D01*
X102835976Y-35946655D01*
X102743000Y-36171119D01*
X102743000Y-36207263D01*
X102730856Y-36241302D01*
X58166000Y-36241302D01*
X58166000Y-36171119D01*
X58152169Y-36137727D01*
X58150362Y-36101632D01*
X57991397Y-35717857D01*
X57976481Y-35713579D01*
X57953320Y-35657663D01*
X57560337Y-35264680D01*
X57504421Y-35241519D01*
X57500143Y-35226603D01*
X57271345Y-35144976D01*
X57046881Y-35052000D01*
X57010737Y-35052000D01*
X56976698Y-35039856D01*
X56734069Y-35052000D01*
X56491119Y-35052000D01*
X56457727Y-35065831D01*
X56421632Y-35067638D01*
X56037857Y-35226603D01*
X56033579Y-35241519D01*
X55977663Y-35264680D01*
X55584680Y-35657663D01*
X55561519Y-35713579D01*
X55546603Y-35717857D01*
X55464976Y-35946655D01*
X55372000Y-36171119D01*
X55372000Y-36207263D01*
X55359856Y-36241302D01*
X55320612Y-36241302D01*
X55374985Y-35861636D01*
X55514372Y-35555072D01*
X55734199Y-35299950D01*
X56016792Y-35116782D01*
X56362959Y-35013257D01*
X56541350Y-35000000D01*
X189814420Y-35000000D01*
X190198364Y-35054985D01*
X190198364Y-35054985D01*
G37*
X190198364Y-35054985D02*
X190504928Y-35194372D01*
X190760050Y-35414199D01*
X190943218Y-35696792D01*
X191046743Y-36042959D01*
X191060000Y-36221350D01*
X191060001Y-112344413D01*
X191005015Y-112728364D01*
X190865628Y-113034928D01*
X190645804Y-113290047D01*
X190363207Y-113473218D01*
X190017043Y-113576743D01*
X189838649Y-113590000D01*
X56565580Y-113590000D01*
X56181636Y-113535015D01*
X55875072Y-113395628D01*
X55619953Y-113175804D01*
X55436782Y-112893207D01*
X55333257Y-112547043D01*
X55320000Y-112368649D01*
X55320000Y-111933302D01*
X55359856Y-111933302D01*
X55372000Y-112175931D01*
X55372000Y-112418881D01*
X55385831Y-112452273D01*
X55387638Y-112488368D01*
X55546603Y-112872143D01*
X55561519Y-112876421D01*
X55584680Y-112932337D01*
X55977663Y-113325320D01*
X56033579Y-113348481D01*
X56037857Y-113363397D01*
X56266655Y-113445024D01*
X56491119Y-113538000D01*
X56527263Y-113538000D01*
X56561302Y-113550144D01*
X56803931Y-113538000D01*
X57046881Y-113538000D01*
X57080273Y-113524169D01*
X57116368Y-113522362D01*
X57500143Y-113363397D01*
X57504421Y-113348481D01*
X57560337Y-113325320D01*
X57953320Y-112932337D01*
X57976481Y-112876421D01*
X57991397Y-112872143D01*
X58073024Y-112643345D01*
X58166000Y-112418881D01*
X58166000Y-112382737D01*
X58178144Y-112348698D01*
X58166000Y-112106069D01*
X58166000Y-111933302D01*
X102730856Y-111933302D01*
X102743000Y-112175931D01*
X102743000Y-112418881D01*
X102756831Y-112452273D01*
X102758638Y-112488368D01*
X102917603Y-112872143D01*
X102932519Y-112876421D01*
X102955680Y-112932337D01*
X103348663Y-113325320D01*
X103404579Y-113348481D01*
X103408857Y-113363397D01*
X103637655Y-113445024D01*
X103862119Y-113538000D01*
X103898263Y-113538000D01*
X103932302Y-113550144D01*
X104174931Y-113538000D01*
X104417881Y-113538000D01*
X104451273Y-113524169D01*
X104487368Y-113522362D01*
X104871143Y-113363397D01*
X104875421Y-113348481D01*
X104931337Y-113325320D01*
X105324320Y-112932337D01*
X105347481Y-112876421D01*
X105362397Y-112872143D01*
X105444024Y-112643345D01*
X105537000Y-112418881D01*
X105537000Y-112382737D01*
X105549144Y-112348698D01*
X105537000Y-112106069D01*
X105537000Y-111933302D01*
X140830856Y-111933302D01*
X140843000Y-112175931D01*
X140843000Y-112418881D01*
X140856831Y-112452273D01*
X140858638Y-112488368D01*
X141017603Y-112872143D01*
X141032519Y-112876421D01*
X141055680Y-112932337D01*
X141448663Y-113325320D01*
X141504579Y-113348481D01*
X141508857Y-113363397D01*
X141737655Y-113445024D01*
X141962119Y-113538000D01*
X141998263Y-113538000D01*
X142032302Y-113550144D01*
X142274931Y-113538000D01*
X142517881Y-113538000D01*
X142551273Y-113524169D01*
X142587368Y-113522362D01*
X142971143Y-113363397D01*
X142975421Y-113348481D01*
X143031337Y-113325320D01*
X143424320Y-112932337D01*
X143447481Y-112876421D01*
X143462397Y-112872143D01*
X143544024Y-112643345D01*
X143637000Y-112418881D01*
X143637000Y-112382737D01*
X143649144Y-112348698D01*
X143637000Y-112106069D01*
X143637000Y-111933302D01*
X188201856Y-111933302D01*
X188214000Y-112175931D01*
X188214000Y-112418881D01*
X188227831Y-112452273D01*
X188229638Y-112488368D01*
X188388603Y-112872143D01*
X188403519Y-112876421D01*
X188426680Y-112932337D01*
X188819663Y-113325320D01*
X188875579Y-113348481D01*
X188879857Y-113363397D01*
X189108655Y-113445024D01*
X189333119Y-113538000D01*
X189369263Y-113538000D01*
X189403302Y-113550144D01*
X189645931Y-113538000D01*
X189888881Y-113538000D01*
X189922273Y-113524169D01*
X189958368Y-113522362D01*
X190342143Y-113363397D01*
X190346421Y-113348481D01*
X190402337Y-113325320D01*
X190795320Y-112932337D01*
X190818481Y-112876421D01*
X190833397Y-112872143D01*
X190915024Y-112643345D01*
X191008000Y-112418881D01*
X191008000Y-112382737D01*
X191020144Y-112348698D01*
X191008000Y-112106069D01*
X191008000Y-111863119D01*
X190994169Y-111829727D01*
X190992362Y-111793632D01*
X190833397Y-111409857D01*
X190818481Y-111405579D01*
X190795320Y-111349663D01*
X190402337Y-110956680D01*
X190346421Y-110933519D01*
X190342143Y-110918603D01*
X190113345Y-110836976D01*
X189888881Y-110744000D01*
X189852737Y-110744000D01*
X189818698Y-110731856D01*
X189576069Y-110744000D01*
X189333119Y-110744000D01*
X189299727Y-110757831D01*
X189263632Y-110759638D01*
X188879857Y-110918603D01*
X188875579Y-110933519D01*
X188819663Y-110956680D01*
X188426680Y-111349663D01*
X188403519Y-111405579D01*
X188388603Y-111409857D01*
X188306976Y-111638655D01*
X188214000Y-111863119D01*
X188214000Y-111899263D01*
X188201856Y-111933302D01*
X143637000Y-111933302D01*
X143637000Y-111863119D01*
X143623169Y-111829727D01*
X143621362Y-111793632D01*
X143462397Y-111409857D01*
X143447481Y-111405579D01*
X143424320Y-111349663D01*
X143031337Y-110956680D01*
X142975421Y-110933519D01*
X142971143Y-110918603D01*
X142742345Y-110836976D01*
X142517881Y-110744000D01*
X142481737Y-110744000D01*
X142447698Y-110731856D01*
X142205069Y-110744000D01*
X141962119Y-110744000D01*
X141928727Y-110757831D01*
X141892632Y-110759638D01*
X141508857Y-110918603D01*
X141504579Y-110933519D01*
X141448663Y-110956680D01*
X141055680Y-111349663D01*
X141032519Y-111405579D01*
X141017603Y-111409857D01*
X140935976Y-111638655D01*
X140843000Y-111863119D01*
X140843000Y-111899263D01*
X140830856Y-111933302D01*
X105537000Y-111933302D01*
X105537000Y-111863119D01*
X105523169Y-111829727D01*
X105521362Y-111793632D01*
X105362397Y-111409857D01*
X105347481Y-111405579D01*
X105324320Y-111349663D01*
X104931337Y-110956680D01*
X104875421Y-110933519D01*
X104871143Y-110918603D01*
X104642345Y-110836976D01*
X104417881Y-110744000D01*
X104381737Y-110744000D01*
X104347698Y-110731856D01*
X104105069Y-110744000D01*
X103862119Y-110744000D01*
X103828727Y-110757831D01*
X103792632Y-110759638D01*
X103408857Y-110918603D01*
X103404579Y-110933519D01*
X103348663Y-110956680D01*
X102955680Y-111349663D01*
X102932519Y-111405579D01*
X102917603Y-111409857D01*
X102835976Y-111638655D01*
X102743000Y-111863119D01*
X102743000Y-111899263D01*
X102730856Y-111933302D01*
X58166000Y-111933302D01*
X58166000Y-111863119D01*
X58152169Y-111829727D01*
X58150362Y-111793632D01*
X57991397Y-111409857D01*
X57976481Y-111405579D01*
X57953320Y-111349663D01*
X57560337Y-110956680D01*
X57504421Y-110933519D01*
X57500143Y-110918603D01*
X57271345Y-110836976D01*
X57046881Y-110744000D01*
X57010737Y-110744000D01*
X56976698Y-110731856D01*
X56734069Y-110744000D01*
X56491119Y-110744000D01*
X56457727Y-110757831D01*
X56421632Y-110759638D01*
X56037857Y-110918603D01*
X56033579Y-110933519D01*
X55977663Y-110956680D01*
X55584680Y-111349663D01*
X55561519Y-111405579D01*
X55546603Y-111409857D01*
X55464976Y-111638655D01*
X55372000Y-111863119D01*
X55372000Y-111899263D01*
X55359856Y-111933302D01*
X55320000Y-111933302D01*
X55320000Y-95885000D01*
X58356581Y-95885000D01*
X58370001Y-95952467D01*
X58370000Y-109787538D01*
X58356581Y-109855000D01*
X58409745Y-110122273D01*
X58561143Y-110348857D01*
X58787727Y-110500255D01*
X59055000Y-110553419D01*
X59122461Y-110540000D01*
X72957539Y-110540000D01*
X73025000Y-110553419D01*
X73292273Y-110500255D01*
X73518857Y-110348857D01*
X73670255Y-110122273D01*
X73710000Y-109922462D01*
X73710000Y-109922461D01*
X73723419Y-109855000D01*
X73710000Y-109787538D01*
X73710000Y-95952462D01*
X73723419Y-95885000D01*
X77406581Y-95885000D01*
X77420001Y-95952467D01*
X77420000Y-109787538D01*
X77406581Y-109855000D01*
X77459745Y-110122273D01*
X77611143Y-110348857D01*
X77837727Y-110500255D01*
X78105000Y-110553419D01*
X78172461Y-110540000D01*
X92007539Y-110540000D01*
X92075000Y-110553419D01*
X92342273Y-110500255D01*
X92568857Y-110348857D01*
X92720255Y-110122273D01*
X92760000Y-109922462D01*
X92760000Y-109922461D01*
X92773419Y-109855000D01*
X92760000Y-109787538D01*
X92760000Y-95952462D01*
X92773419Y-95885000D01*
X96456581Y-95885000D01*
X96470001Y-95952467D01*
X96470000Y-109787538D01*
X96456581Y-109855000D01*
X96509745Y-110122273D01*
X96661143Y-110348857D01*
X96887727Y-110500255D01*
X97155000Y-110553419D01*
X97222461Y-110540000D01*
X111057539Y-110540000D01*
X111125000Y-110553419D01*
X111392273Y-110500255D01*
X111618857Y-110348857D01*
X111770255Y-110122273D01*
X111810000Y-109922462D01*
X111810000Y-109922461D01*
X111823419Y-109855000D01*
X111810000Y-109787538D01*
X111810000Y-95952462D01*
X111823419Y-95885000D01*
X115506581Y-95885000D01*
X115520001Y-95952467D01*
X115520000Y-109787538D01*
X115506581Y-109855000D01*
X115559745Y-110122273D01*
X115711143Y-110348857D01*
X115937727Y-110500255D01*
X116205000Y-110553419D01*
X116272461Y-110540000D01*
X130107539Y-110540000D01*
X130175000Y-110553419D01*
X130442273Y-110500255D01*
X130668857Y-110348857D01*
X130820255Y-110122273D01*
X130860000Y-109922462D01*
X130860000Y-109922461D01*
X130873419Y-109855000D01*
X130860000Y-109787538D01*
X130860000Y-95952462D01*
X130873419Y-95885000D01*
X134556581Y-95885000D01*
X134570001Y-95952467D01*
X134570000Y-109787538D01*
X134556581Y-109855000D01*
X134609745Y-110122273D01*
X134761143Y-110348857D01*
X134987727Y-110500255D01*
X135255000Y-110553419D01*
X135322461Y-110540000D01*
X149157539Y-110540000D01*
X149225000Y-110553419D01*
X149492273Y-110500255D01*
X149718857Y-110348857D01*
X149870255Y-110122273D01*
X149910000Y-109922462D01*
X149910000Y-109922461D01*
X149923419Y-109855000D01*
X149910000Y-109787538D01*
X149910000Y-95952462D01*
X149923419Y-95885000D01*
X153606581Y-95885000D01*
X153620001Y-95952467D01*
X153620000Y-109787538D01*
X153606581Y-109855000D01*
X153659745Y-110122273D01*
X153811143Y-110348857D01*
X154037727Y-110500255D01*
X154305000Y-110553419D01*
X154372461Y-110540000D01*
X168207539Y-110540000D01*
X168275000Y-110553419D01*
X168542273Y-110500255D01*
X168768857Y-110348857D01*
X168920255Y-110122273D01*
X168960000Y-109922462D01*
X168960000Y-109922461D01*
X168973419Y-109855000D01*
X168960000Y-109787538D01*
X168960000Y-95952462D01*
X168973419Y-95885000D01*
X172656581Y-95885000D01*
X172670001Y-95952467D01*
X172670000Y-109787538D01*
X172656581Y-109855000D01*
X172709745Y-110122273D01*
X172861143Y-110348857D01*
X173087727Y-110500255D01*
X173355000Y-110553419D01*
X173422461Y-110540000D01*
X187257539Y-110540000D01*
X187325000Y-110553419D01*
X187592273Y-110500255D01*
X187818857Y-110348857D01*
X187970255Y-110122273D01*
X188010000Y-109922462D01*
X188010000Y-109922461D01*
X188023419Y-109855000D01*
X188010000Y-109787538D01*
X188010000Y-95952462D01*
X188023419Y-95885000D01*
X187970255Y-95617727D01*
X187818857Y-95391143D01*
X187592273Y-95239745D01*
X187392462Y-95200000D01*
X187392461Y-95200000D01*
X187325000Y-95186581D01*
X187257538Y-95200000D01*
X173422462Y-95200000D01*
X173355000Y-95186581D01*
X173287539Y-95200000D01*
X173287538Y-95200000D01*
X173087727Y-95239745D01*
X172861143Y-95391143D01*
X172709745Y-95617727D01*
X172656581Y-95885000D01*
X168973419Y-95885000D01*
X168920255Y-95617727D01*
X168768857Y-95391143D01*
X168542273Y-95239745D01*
X168342462Y-95200000D01*
X168342461Y-95200000D01*
X168275000Y-95186581D01*
X168207538Y-95200000D01*
X154372462Y-95200000D01*
X154305000Y-95186581D01*
X154237539Y-95200000D01*
X154237538Y-95200000D01*
X154037727Y-95239745D01*
X153811143Y-95391143D01*
X153659745Y-95617727D01*
X153606581Y-95885000D01*
X149923419Y-95885000D01*
X149870255Y-95617727D01*
X149718857Y-95391143D01*
X149492273Y-95239745D01*
X149292462Y-95200000D01*
X149292461Y-95200000D01*
X149225000Y-95186581D01*
X149157538Y-95200000D01*
X135322462Y-95200000D01*
X135255000Y-95186581D01*
X135187539Y-95200000D01*
X135187538Y-95200000D01*
X134987727Y-95239745D01*
X134761143Y-95391143D01*
X134609745Y-95617727D01*
X134556581Y-95885000D01*
X130873419Y-95885000D01*
X130820255Y-95617727D01*
X130668857Y-95391143D01*
X130442273Y-95239745D01*
X130242462Y-95200000D01*
X130242461Y-95200000D01*
X130175000Y-95186581D01*
X130107538Y-95200000D01*
X116272462Y-95200000D01*
X116205000Y-95186581D01*
X116137539Y-95200000D01*
X116137538Y-95200000D01*
X115937727Y-95239745D01*
X115711143Y-95391143D01*
X115559745Y-95617727D01*
X115506581Y-95885000D01*
X111823419Y-95885000D01*
X111770255Y-95617727D01*
X111618857Y-95391143D01*
X111392273Y-95239745D01*
X111192462Y-95200000D01*
X111192461Y-95200000D01*
X111125000Y-95186581D01*
X111057538Y-95200000D01*
X97222462Y-95200000D01*
X97155000Y-95186581D01*
X97087539Y-95200000D01*
X97087538Y-95200000D01*
X96887727Y-95239745D01*
X96661143Y-95391143D01*
X96509745Y-95617727D01*
X96456581Y-95885000D01*
X92773419Y-95885000D01*
X92720255Y-95617727D01*
X92568857Y-95391143D01*
X92342273Y-95239745D01*
X92142462Y-95200000D01*
X92142461Y-95200000D01*
X92075000Y-95186581D01*
X92007538Y-95200000D01*
X78172462Y-95200000D01*
X78105000Y-95186581D01*
X78037539Y-95200000D01*
X78037538Y-95200000D01*
X77837727Y-95239745D01*
X77611143Y-95391143D01*
X77459745Y-95617727D01*
X77406581Y-95885000D01*
X73723419Y-95885000D01*
X73670255Y-95617727D01*
X73518857Y-95391143D01*
X73292273Y-95239745D01*
X73092462Y-95200000D01*
X73092461Y-95200000D01*
X73025000Y-95186581D01*
X72957538Y-95200000D01*
X59122462Y-95200000D01*
X59055000Y-95186581D01*
X58987539Y-95200000D01*
X58987538Y-95200000D01*
X58787727Y-95239745D01*
X58561143Y-95391143D01*
X58409745Y-95617727D01*
X58356581Y-95885000D01*
X55320000Y-95885000D01*
X55320000Y-93137302D01*
X55359856Y-93137302D01*
X55372000Y-93379931D01*
X55372000Y-93622881D01*
X55385831Y-93656273D01*
X55387638Y-93692368D01*
X55546603Y-94076143D01*
X55561519Y-94080421D01*
X55584680Y-94136337D01*
X55977663Y-94529320D01*
X56033579Y-94552481D01*
X56037857Y-94567397D01*
X56266655Y-94649024D01*
X56491119Y-94742000D01*
X56527263Y-94742000D01*
X56561302Y-94754144D01*
X56803931Y-94742000D01*
X57046881Y-94742000D01*
X57080273Y-94728169D01*
X57116368Y-94726362D01*
X57500143Y-94567397D01*
X57504421Y-94552481D01*
X57560337Y-94529320D01*
X57953320Y-94136337D01*
X57976481Y-94080421D01*
X57991397Y-94076143D01*
X58073024Y-93847345D01*
X58166000Y-93622881D01*
X58166000Y-93586737D01*
X58178144Y-93552698D01*
X58166000Y-93310069D01*
X58166000Y-93137302D01*
X188201856Y-93137302D01*
X188214000Y-93379931D01*
X188214000Y-93622881D01*
X188227831Y-93656273D01*
X188229638Y-93692368D01*
X188388603Y-94076143D01*
X188403519Y-94080421D01*
X188426680Y-94136337D01*
X188819663Y-94529320D01*
X188875579Y-94552481D01*
X188879857Y-94567397D01*
X189108655Y-94649024D01*
X189333119Y-94742000D01*
X189369263Y-94742000D01*
X189403302Y-94754144D01*
X189645931Y-94742000D01*
X189888881Y-94742000D01*
X189922273Y-94728169D01*
X189958368Y-94726362D01*
X190342143Y-94567397D01*
X190346421Y-94552481D01*
X190402337Y-94529320D01*
X190795320Y-94136337D01*
X190818481Y-94080421D01*
X190833397Y-94076143D01*
X190915024Y-93847345D01*
X191008000Y-93622881D01*
X191008000Y-93586737D01*
X191020144Y-93552698D01*
X191008000Y-93310069D01*
X191008000Y-93067119D01*
X190994169Y-93033727D01*
X190992362Y-92997632D01*
X190833397Y-92613857D01*
X190818481Y-92609579D01*
X190795320Y-92553663D01*
X190402337Y-92160680D01*
X190346421Y-92137519D01*
X190342143Y-92122603D01*
X190113345Y-92040976D01*
X189888881Y-91948000D01*
X189852737Y-91948000D01*
X189818698Y-91935856D01*
X189576069Y-91948000D01*
X189333119Y-91948000D01*
X189299727Y-91961831D01*
X189263632Y-91963638D01*
X188879857Y-92122603D01*
X188875579Y-92137519D01*
X188819663Y-92160680D01*
X188426680Y-92553663D01*
X188403519Y-92609579D01*
X188388603Y-92613857D01*
X188306976Y-92842655D01*
X188214000Y-93067119D01*
X188214000Y-93103263D01*
X188201856Y-93137302D01*
X58166000Y-93137302D01*
X58166000Y-93067119D01*
X58152169Y-93033727D01*
X58150362Y-92997632D01*
X57991397Y-92613857D01*
X57976481Y-92609579D01*
X57953320Y-92553663D01*
X57560337Y-92160680D01*
X57504421Y-92137519D01*
X57500143Y-92122603D01*
X57271345Y-92040976D01*
X57046881Y-91948000D01*
X57010737Y-91948000D01*
X56976698Y-91935856D01*
X56734069Y-91948000D01*
X56491119Y-91948000D01*
X56457727Y-91961831D01*
X56421632Y-91963638D01*
X56037857Y-92122603D01*
X56033579Y-92137519D01*
X55977663Y-92160680D01*
X55584680Y-92553663D01*
X55561519Y-92609579D01*
X55546603Y-92613857D01*
X55464976Y-92842655D01*
X55372000Y-93067119D01*
X55372000Y-93103263D01*
X55359856Y-93137302D01*
X55320000Y-93137302D01*
X55320000Y-76835000D01*
X58356581Y-76835000D01*
X58370001Y-76902467D01*
X58370000Y-90737538D01*
X58356581Y-90805000D01*
X58409745Y-91072273D01*
X58561143Y-91298857D01*
X58787727Y-91450255D01*
X59055000Y-91503419D01*
X59122461Y-91490000D01*
X72957539Y-91490000D01*
X73025000Y-91503419D01*
X73292273Y-91450255D01*
X73518857Y-91298857D01*
X73670255Y-91072273D01*
X73710000Y-90872462D01*
X73710000Y-90872461D01*
X73723419Y-90805000D01*
X73710000Y-90737538D01*
X73710000Y-76902462D01*
X73723419Y-76835000D01*
X77406581Y-76835000D01*
X77420001Y-76902467D01*
X77420000Y-90737538D01*
X77406581Y-90805000D01*
X77459745Y-91072273D01*
X77611143Y-91298857D01*
X77837727Y-91450255D01*
X78105000Y-91503419D01*
X78172461Y-91490000D01*
X92007539Y-91490000D01*
X92075000Y-91503419D01*
X92342273Y-91450255D01*
X92568857Y-91298857D01*
X92720255Y-91072273D01*
X92760000Y-90872462D01*
X92760000Y-90872461D01*
X92773419Y-90805000D01*
X92760000Y-90737538D01*
X92760000Y-76902462D01*
X92773419Y-76835000D01*
X96456581Y-76835000D01*
X96470001Y-76902467D01*
X96470000Y-90737538D01*
X96456581Y-90805000D01*
X96509745Y-91072273D01*
X96661143Y-91298857D01*
X96887727Y-91450255D01*
X97155000Y-91503419D01*
X97222461Y-91490000D01*
X111057539Y-91490000D01*
X111125000Y-91503419D01*
X111392273Y-91450255D01*
X111618857Y-91298857D01*
X111770255Y-91072273D01*
X111810000Y-90872462D01*
X111810000Y-90872461D01*
X111823419Y-90805000D01*
X111810000Y-90737538D01*
X111810000Y-76902462D01*
X111823419Y-76835000D01*
X115506581Y-76835000D01*
X115520001Y-76902467D01*
X115520000Y-90737538D01*
X115506581Y-90805000D01*
X115559745Y-91072273D01*
X115711143Y-91298857D01*
X115937727Y-91450255D01*
X116205000Y-91503419D01*
X116272461Y-91490000D01*
X130107539Y-91490000D01*
X130175000Y-91503419D01*
X130442273Y-91450255D01*
X130668857Y-91298857D01*
X130820255Y-91072273D01*
X130860000Y-90872462D01*
X130860000Y-90872461D01*
X130873419Y-90805000D01*
X130860000Y-90737538D01*
X130860000Y-76902462D01*
X130873419Y-76835000D01*
X134556581Y-76835000D01*
X134570001Y-76902467D01*
X134570000Y-90737538D01*
X134556581Y-90805000D01*
X134609745Y-91072273D01*
X134761143Y-91298857D01*
X134987727Y-91450255D01*
X135255000Y-91503419D01*
X135322461Y-91490000D01*
X149157539Y-91490000D01*
X149225000Y-91503419D01*
X149492273Y-91450255D01*
X149718857Y-91298857D01*
X149870255Y-91072273D01*
X149910000Y-90872462D01*
X149910000Y-90872461D01*
X149923419Y-90805000D01*
X149910000Y-90737538D01*
X149910000Y-76902462D01*
X149923419Y-76835000D01*
X153606581Y-76835000D01*
X153620001Y-76902467D01*
X153620000Y-90737538D01*
X153606581Y-90805000D01*
X153659745Y-91072273D01*
X153811143Y-91298857D01*
X154037727Y-91450255D01*
X154305000Y-91503419D01*
X154372461Y-91490000D01*
X168207539Y-91490000D01*
X168275000Y-91503419D01*
X168542273Y-91450255D01*
X168768857Y-91298857D01*
X168920255Y-91072273D01*
X168960000Y-90872462D01*
X168960000Y-90872461D01*
X168973419Y-90805000D01*
X168960000Y-90737538D01*
X168960000Y-76902462D01*
X168973419Y-76835000D01*
X172656581Y-76835000D01*
X172670001Y-76902467D01*
X172670000Y-90737538D01*
X172656581Y-90805000D01*
X172709745Y-91072273D01*
X172861143Y-91298857D01*
X173087727Y-91450255D01*
X173355000Y-91503419D01*
X173422461Y-91490000D01*
X187257539Y-91490000D01*
X187325000Y-91503419D01*
X187592273Y-91450255D01*
X187818857Y-91298857D01*
X187970255Y-91072273D01*
X188010000Y-90872462D01*
X188010000Y-90872461D01*
X188023419Y-90805000D01*
X188010000Y-90737538D01*
X188010000Y-76902462D01*
X188023419Y-76835000D01*
X187970255Y-76567727D01*
X187818857Y-76341143D01*
X187592273Y-76189745D01*
X187392462Y-76150000D01*
X187392461Y-76150000D01*
X187325000Y-76136581D01*
X187257538Y-76150000D01*
X173422462Y-76150000D01*
X173355000Y-76136581D01*
X173287539Y-76150000D01*
X173287538Y-76150000D01*
X173087727Y-76189745D01*
X172861143Y-76341143D01*
X172709745Y-76567727D01*
X172656581Y-76835000D01*
X168973419Y-76835000D01*
X168920255Y-76567727D01*
X168768857Y-76341143D01*
X168542273Y-76189745D01*
X168342462Y-76150000D01*
X168342461Y-76150000D01*
X168275000Y-76136581D01*
X168207538Y-76150000D01*
X154372462Y-76150000D01*
X154305000Y-76136581D01*
X154237539Y-76150000D01*
X154237538Y-76150000D01*
X154037727Y-76189745D01*
X153811143Y-76341143D01*
X153659745Y-76567727D01*
X153606581Y-76835000D01*
X149923419Y-76835000D01*
X149870255Y-76567727D01*
X149718857Y-76341143D01*
X149492273Y-76189745D01*
X149292462Y-76150000D01*
X149292461Y-76150000D01*
X149225000Y-76136581D01*
X149157538Y-76150000D01*
X135322462Y-76150000D01*
X135255000Y-76136581D01*
X135187539Y-76150000D01*
X135187538Y-76150000D01*
X134987727Y-76189745D01*
X134761143Y-76341143D01*
X134609745Y-76567727D01*
X134556581Y-76835000D01*
X130873419Y-76835000D01*
X130820255Y-76567727D01*
X130668857Y-76341143D01*
X130442273Y-76189745D01*
X130242462Y-76150000D01*
X130242461Y-76150000D01*
X130175000Y-76136581D01*
X130107538Y-76150000D01*
X116272462Y-76150000D01*
X116205000Y-76136581D01*
X116137539Y-76150000D01*
X116137538Y-76150000D01*
X115937727Y-76189745D01*
X115711143Y-76341143D01*
X115559745Y-76567727D01*
X115506581Y-76835000D01*
X111823419Y-76835000D01*
X111770255Y-76567727D01*
X111618857Y-76341143D01*
X111392273Y-76189745D01*
X111192462Y-76150000D01*
X111192461Y-76150000D01*
X111125000Y-76136581D01*
X111057538Y-76150000D01*
X97222462Y-76150000D01*
X97155000Y-76136581D01*
X97087539Y-76150000D01*
X97087538Y-76150000D01*
X96887727Y-76189745D01*
X96661143Y-76341143D01*
X96509745Y-76567727D01*
X96456581Y-76835000D01*
X92773419Y-76835000D01*
X92720255Y-76567727D01*
X92568857Y-76341143D01*
X92342273Y-76189745D01*
X92142462Y-76150000D01*
X92142461Y-76150000D01*
X92075000Y-76136581D01*
X92007538Y-76150000D01*
X78172462Y-76150000D01*
X78105000Y-76136581D01*
X78037539Y-76150000D01*
X78037538Y-76150000D01*
X77837727Y-76189745D01*
X77611143Y-76341143D01*
X77459745Y-76567727D01*
X77406581Y-76835000D01*
X73723419Y-76835000D01*
X73670255Y-76567727D01*
X73518857Y-76341143D01*
X73292273Y-76189745D01*
X73092462Y-76150000D01*
X73092461Y-76150000D01*
X73025000Y-76136581D01*
X72957538Y-76150000D01*
X59122462Y-76150000D01*
X59055000Y-76136581D01*
X58987539Y-76150000D01*
X58987538Y-76150000D01*
X58787727Y-76189745D01*
X58561143Y-76341143D01*
X58409745Y-76567727D01*
X58356581Y-76835000D01*
X55320000Y-76835000D01*
X55320000Y-74087302D01*
X93205856Y-74087302D01*
X93218000Y-74329931D01*
X93218000Y-74572881D01*
X93231831Y-74606273D01*
X93233638Y-74642368D01*
X93392603Y-75026143D01*
X93407519Y-75030421D01*
X93430680Y-75086337D01*
X93823663Y-75479320D01*
X93879579Y-75502481D01*
X93883857Y-75517397D01*
X94112655Y-75599024D01*
X94337119Y-75692000D01*
X94373263Y-75692000D01*
X94407302Y-75704144D01*
X94649931Y-75692000D01*
X94892881Y-75692000D01*
X94926273Y-75678169D01*
X94962368Y-75676362D01*
X95346143Y-75517397D01*
X95350421Y-75502481D01*
X95406337Y-75479320D01*
X95799320Y-75086337D01*
X95822481Y-75030421D01*
X95837397Y-75026143D01*
X95919024Y-74797345D01*
X96012000Y-74572881D01*
X96012000Y-74536737D01*
X96024144Y-74502698D01*
X96012000Y-74260069D01*
X96012000Y-74087302D01*
X150355856Y-74087302D01*
X150368000Y-74329931D01*
X150368000Y-74572881D01*
X150381831Y-74606273D01*
X150383638Y-74642368D01*
X150542603Y-75026143D01*
X150557519Y-75030421D01*
X150580680Y-75086337D01*
X150973663Y-75479320D01*
X151029579Y-75502481D01*
X151033857Y-75517397D01*
X151262655Y-75599024D01*
X151487119Y-75692000D01*
X151523263Y-75692000D01*
X151557302Y-75704144D01*
X151799931Y-75692000D01*
X152042881Y-75692000D01*
X152076273Y-75678169D01*
X152112368Y-75676362D01*
X152496143Y-75517397D01*
X152500421Y-75502481D01*
X152556337Y-75479320D01*
X152949320Y-75086337D01*
X152972481Y-75030421D01*
X152987397Y-75026143D01*
X153069024Y-74797345D01*
X153162000Y-74572881D01*
X153162000Y-74536737D01*
X153174144Y-74502698D01*
X153162000Y-74260069D01*
X153162000Y-74017119D01*
X153148169Y-73983727D01*
X153146362Y-73947632D01*
X152987397Y-73563857D01*
X152972481Y-73559579D01*
X152949320Y-73503663D01*
X152556337Y-73110680D01*
X152500421Y-73087519D01*
X152496143Y-73072603D01*
X152267345Y-72990976D01*
X152042881Y-72898000D01*
X152006737Y-72898000D01*
X151972698Y-72885856D01*
X151730069Y-72898000D01*
X151487119Y-72898000D01*
X151453727Y-72911831D01*
X151417632Y-72913638D01*
X151033857Y-73072603D01*
X151029579Y-73087519D01*
X150973663Y-73110680D01*
X150580680Y-73503663D01*
X150557519Y-73559579D01*
X150542603Y-73563857D01*
X150460976Y-73792655D01*
X150368000Y-74017119D01*
X150368000Y-74053263D01*
X150355856Y-74087302D01*
X96012000Y-74087302D01*
X96012000Y-74017119D01*
X95998169Y-73983727D01*
X95996362Y-73947632D01*
X95837397Y-73563857D01*
X95822481Y-73559579D01*
X95799320Y-73503663D01*
X95406337Y-73110680D01*
X95350421Y-73087519D01*
X95346143Y-73072603D01*
X95117345Y-72990976D01*
X94892881Y-72898000D01*
X94856737Y-72898000D01*
X94822698Y-72885856D01*
X94580069Y-72898000D01*
X94337119Y-72898000D01*
X94303727Y-72911831D01*
X94267632Y-72913638D01*
X93883857Y-73072603D01*
X93879579Y-73087519D01*
X93823663Y-73110680D01*
X93430680Y-73503663D01*
X93407519Y-73559579D01*
X93392603Y-73563857D01*
X93310976Y-73792655D01*
X93218000Y-74017119D01*
X93218000Y-74053263D01*
X93205856Y-74087302D01*
X55320000Y-74087302D01*
X55320000Y-57785000D01*
X58356581Y-57785000D01*
X58370001Y-57852467D01*
X58370000Y-71687538D01*
X58356581Y-71755000D01*
X58409745Y-72022273D01*
X58561143Y-72248857D01*
X58787727Y-72400255D01*
X59055000Y-72453419D01*
X59122461Y-72440000D01*
X72957539Y-72440000D01*
X73025000Y-72453419D01*
X73292273Y-72400255D01*
X73518857Y-72248857D01*
X73670255Y-72022273D01*
X73710000Y-71822462D01*
X73710000Y-71822461D01*
X73723419Y-71755000D01*
X73710000Y-71687538D01*
X73710000Y-57852462D01*
X73723419Y-57785000D01*
X77406581Y-57785000D01*
X77420001Y-57852467D01*
X77420000Y-71687538D01*
X77406581Y-71755000D01*
X77459745Y-72022273D01*
X77611143Y-72248857D01*
X77837727Y-72400255D01*
X78105000Y-72453419D01*
X78172461Y-72440000D01*
X92007539Y-72440000D01*
X92075000Y-72453419D01*
X92342273Y-72400255D01*
X92568857Y-72248857D01*
X92720255Y-72022273D01*
X92760000Y-71822462D01*
X92760000Y-71822461D01*
X92773419Y-71755000D01*
X92760000Y-71687538D01*
X92760000Y-57852462D01*
X92773419Y-57785000D01*
X96456581Y-57785000D01*
X96470001Y-57852467D01*
X96470000Y-71687538D01*
X96456581Y-71755000D01*
X96509745Y-72022273D01*
X96661143Y-72248857D01*
X96887727Y-72400255D01*
X97155000Y-72453419D01*
X97222461Y-72440000D01*
X111057539Y-72440000D01*
X111125000Y-72453419D01*
X111392273Y-72400255D01*
X111618857Y-72248857D01*
X111770255Y-72022273D01*
X111810000Y-71822462D01*
X111810000Y-71822461D01*
X111823419Y-71755000D01*
X111810000Y-71687538D01*
X111810000Y-57852462D01*
X111823419Y-57785000D01*
X115506581Y-57785000D01*
X115520001Y-57852467D01*
X115520000Y-71687538D01*
X115506581Y-71755000D01*
X115559745Y-72022273D01*
X115711143Y-72248857D01*
X115937727Y-72400255D01*
X116205000Y-72453419D01*
X116272461Y-72440000D01*
X130107539Y-72440000D01*
X130175000Y-72453419D01*
X130442273Y-72400255D01*
X130668857Y-72248857D01*
X130820255Y-72022273D01*
X130860000Y-71822462D01*
X130860000Y-71822461D01*
X130873419Y-71755000D01*
X130860000Y-71687538D01*
X130860000Y-57852462D01*
X130873419Y-57785000D01*
X134556581Y-57785000D01*
X134570001Y-57852467D01*
X134570000Y-71687538D01*
X134556581Y-71755000D01*
X134609745Y-72022273D01*
X134761143Y-72248857D01*
X134987727Y-72400255D01*
X135255000Y-72453419D01*
X135322461Y-72440000D01*
X149157539Y-72440000D01*
X149225000Y-72453419D01*
X149492273Y-72400255D01*
X149718857Y-72248857D01*
X149870255Y-72022273D01*
X149910000Y-71822462D01*
X149910000Y-71822461D01*
X149923419Y-71755000D01*
X149910000Y-71687538D01*
X149910000Y-57852462D01*
X149923419Y-57785000D01*
X153606581Y-57785000D01*
X153620001Y-57852467D01*
X153620000Y-71687538D01*
X153606581Y-71755000D01*
X153659745Y-72022273D01*
X153811143Y-72248857D01*
X154037727Y-72400255D01*
X154305000Y-72453419D01*
X154372461Y-72440000D01*
X168207539Y-72440000D01*
X168275000Y-72453419D01*
X168542273Y-72400255D01*
X168768857Y-72248857D01*
X168920255Y-72022273D01*
X168960000Y-71822462D01*
X168960000Y-71822461D01*
X168973419Y-71755000D01*
X168960000Y-71687538D01*
X168960000Y-57852462D01*
X168973419Y-57785000D01*
X172656581Y-57785000D01*
X172670001Y-57852467D01*
X172670000Y-71687538D01*
X172656581Y-71755000D01*
X172709745Y-72022273D01*
X172861143Y-72248857D01*
X173087727Y-72400255D01*
X173355000Y-72453419D01*
X173422461Y-72440000D01*
X187257539Y-72440000D01*
X187325000Y-72453419D01*
X187592273Y-72400255D01*
X187818857Y-72248857D01*
X187970255Y-72022273D01*
X188010000Y-71822462D01*
X188010000Y-71822461D01*
X188023419Y-71755000D01*
X188010000Y-71687538D01*
X188010000Y-57852462D01*
X188023419Y-57785000D01*
X187970255Y-57517727D01*
X187818857Y-57291143D01*
X187592273Y-57139745D01*
X187392462Y-57100000D01*
X187392461Y-57100000D01*
X187325000Y-57086581D01*
X187257538Y-57100000D01*
X173422462Y-57100000D01*
X173355000Y-57086581D01*
X173287539Y-57100000D01*
X173287538Y-57100000D01*
X173087727Y-57139745D01*
X172861143Y-57291143D01*
X172709745Y-57517727D01*
X172656581Y-57785000D01*
X168973419Y-57785000D01*
X168920255Y-57517727D01*
X168768857Y-57291143D01*
X168542273Y-57139745D01*
X168342462Y-57100000D01*
X168342461Y-57100000D01*
X168275000Y-57086581D01*
X168207538Y-57100000D01*
X154372462Y-57100000D01*
X154305000Y-57086581D01*
X154237539Y-57100000D01*
X154237538Y-57100000D01*
X154037727Y-57139745D01*
X153811143Y-57291143D01*
X153659745Y-57517727D01*
X153606581Y-57785000D01*
X149923419Y-57785000D01*
X149870255Y-57517727D01*
X149718857Y-57291143D01*
X149492273Y-57139745D01*
X149292462Y-57100000D01*
X149292461Y-57100000D01*
X149225000Y-57086581D01*
X149157538Y-57100000D01*
X135322462Y-57100000D01*
X135255000Y-57086581D01*
X135187539Y-57100000D01*
X135187538Y-57100000D01*
X134987727Y-57139745D01*
X134761143Y-57291143D01*
X134609745Y-57517727D01*
X134556581Y-57785000D01*
X130873419Y-57785000D01*
X130820255Y-57517727D01*
X130668857Y-57291143D01*
X130442273Y-57139745D01*
X130242462Y-57100000D01*
X130242461Y-57100000D01*
X130175000Y-57086581D01*
X130107538Y-57100000D01*
X116272462Y-57100000D01*
X116205000Y-57086581D01*
X116137539Y-57100000D01*
X116137538Y-57100000D01*
X115937727Y-57139745D01*
X115711143Y-57291143D01*
X115559745Y-57517727D01*
X115506581Y-57785000D01*
X111823419Y-57785000D01*
X111770255Y-57517727D01*
X111618857Y-57291143D01*
X111392273Y-57139745D01*
X111192462Y-57100000D01*
X111192461Y-57100000D01*
X111125000Y-57086581D01*
X111057538Y-57100000D01*
X97222462Y-57100000D01*
X97155000Y-57086581D01*
X97087539Y-57100000D01*
X97087538Y-57100000D01*
X96887727Y-57139745D01*
X96661143Y-57291143D01*
X96509745Y-57517727D01*
X96456581Y-57785000D01*
X92773419Y-57785000D01*
X92720255Y-57517727D01*
X92568857Y-57291143D01*
X92342273Y-57139745D01*
X92142462Y-57100000D01*
X92142461Y-57100000D01*
X92075000Y-57086581D01*
X92007538Y-57100000D01*
X78172462Y-57100000D01*
X78105000Y-57086581D01*
X78037539Y-57100000D01*
X78037538Y-57100000D01*
X77837727Y-57139745D01*
X77611143Y-57291143D01*
X77459745Y-57517727D01*
X77406581Y-57785000D01*
X73723419Y-57785000D01*
X73670255Y-57517727D01*
X73518857Y-57291143D01*
X73292273Y-57139745D01*
X73092462Y-57100000D01*
X73092461Y-57100000D01*
X73025000Y-57086581D01*
X72957538Y-57100000D01*
X59122462Y-57100000D01*
X59055000Y-57086581D01*
X58987539Y-57100000D01*
X58987538Y-57100000D01*
X58787727Y-57139745D01*
X58561143Y-57291143D01*
X58409745Y-57517727D01*
X58356581Y-57785000D01*
X55320000Y-57785000D01*
X55320000Y-55037302D01*
X55359856Y-55037302D01*
X55372000Y-55279931D01*
X55372000Y-55522881D01*
X55385831Y-55556273D01*
X55387638Y-55592368D01*
X55546603Y-55976143D01*
X55561519Y-55980421D01*
X55584680Y-56036337D01*
X55977663Y-56429320D01*
X56033579Y-56452481D01*
X56037857Y-56467397D01*
X56266655Y-56549024D01*
X56491119Y-56642000D01*
X56527263Y-56642000D01*
X56561302Y-56654144D01*
X56803931Y-56642000D01*
X57046881Y-56642000D01*
X57080273Y-56628169D01*
X57116368Y-56626362D01*
X57500143Y-56467397D01*
X57504421Y-56452481D01*
X57560337Y-56429320D01*
X57953320Y-56036337D01*
X57976481Y-55980421D01*
X57991397Y-55976143D01*
X58073024Y-55747345D01*
X58166000Y-55522881D01*
X58166000Y-55486737D01*
X58178144Y-55452698D01*
X58166000Y-55210069D01*
X58166000Y-55037302D01*
X188201856Y-55037302D01*
X188214000Y-55279931D01*
X188214000Y-55522881D01*
X188227831Y-55556273D01*
X188229638Y-55592368D01*
X188388603Y-55976143D01*
X188403519Y-55980421D01*
X188426680Y-56036337D01*
X188819663Y-56429320D01*
X188875579Y-56452481D01*
X188879857Y-56467397D01*
X189108655Y-56549024D01*
X189333119Y-56642000D01*
X189369263Y-56642000D01*
X189403302Y-56654144D01*
X189645931Y-56642000D01*
X189888881Y-56642000D01*
X189922273Y-56628169D01*
X189958368Y-56626362D01*
X190342143Y-56467397D01*
X190346421Y-56452481D01*
X190402337Y-56429320D01*
X190795320Y-56036337D01*
X190818481Y-55980421D01*
X190833397Y-55976143D01*
X190915024Y-55747345D01*
X191008000Y-55522881D01*
X191008000Y-55486737D01*
X191020144Y-55452698D01*
X191008000Y-55210069D01*
X191008000Y-54967119D01*
X190994169Y-54933727D01*
X190992362Y-54897632D01*
X190833397Y-54513857D01*
X190818481Y-54509579D01*
X190795320Y-54453663D01*
X190402337Y-54060680D01*
X190346421Y-54037519D01*
X190342143Y-54022603D01*
X190113345Y-53940976D01*
X189888881Y-53848000D01*
X189852737Y-53848000D01*
X189818698Y-53835856D01*
X189576069Y-53848000D01*
X189333119Y-53848000D01*
X189299727Y-53861831D01*
X189263632Y-53863638D01*
X188879857Y-54022603D01*
X188875579Y-54037519D01*
X188819663Y-54060680D01*
X188426680Y-54453663D01*
X188403519Y-54509579D01*
X188388603Y-54513857D01*
X188306976Y-54742655D01*
X188214000Y-54967119D01*
X188214000Y-55003263D01*
X188201856Y-55037302D01*
X58166000Y-55037302D01*
X58166000Y-54967119D01*
X58152169Y-54933727D01*
X58150362Y-54897632D01*
X57991397Y-54513857D01*
X57976481Y-54509579D01*
X57953320Y-54453663D01*
X57560337Y-54060680D01*
X57504421Y-54037519D01*
X57500143Y-54022603D01*
X57271345Y-53940976D01*
X57046881Y-53848000D01*
X57010737Y-53848000D01*
X56976698Y-53835856D01*
X56734069Y-53848000D01*
X56491119Y-53848000D01*
X56457727Y-53861831D01*
X56421632Y-53863638D01*
X56037857Y-54022603D01*
X56033579Y-54037519D01*
X55977663Y-54060680D01*
X55584680Y-54453663D01*
X55561519Y-54509579D01*
X55546603Y-54513857D01*
X55464976Y-54742655D01*
X55372000Y-54967119D01*
X55372000Y-55003263D01*
X55359856Y-55037302D01*
X55320000Y-55037302D01*
X55320000Y-38735000D01*
X58356581Y-38735000D01*
X58370000Y-38802462D01*
X58370001Y-52637533D01*
X58356581Y-52705000D01*
X58409745Y-52972273D01*
X58561143Y-53198857D01*
X58787727Y-53350255D01*
X58987538Y-53390000D01*
X58987539Y-53390000D01*
X59055000Y-53403419D01*
X59122462Y-53390000D01*
X72957538Y-53390000D01*
X73025000Y-53403419D01*
X73092461Y-53390000D01*
X73092462Y-53390000D01*
X73292273Y-53350255D01*
X73518857Y-53198857D01*
X73670255Y-52972273D01*
X73723419Y-52705000D01*
X73710000Y-52637538D01*
X73710000Y-38802462D01*
X73723419Y-38735000D01*
X77406581Y-38735000D01*
X77420000Y-38802462D01*
X77420001Y-52637533D01*
X77406581Y-52705000D01*
X77459745Y-52972273D01*
X77611143Y-53198857D01*
X77837727Y-53350255D01*
X78037538Y-53390000D01*
X78037539Y-53390000D01*
X78105000Y-53403419D01*
X78172462Y-53390000D01*
X92007538Y-53390000D01*
X92075000Y-53403419D01*
X92142461Y-53390000D01*
X92142462Y-53390000D01*
X92342273Y-53350255D01*
X92568857Y-53198857D01*
X92720255Y-52972273D01*
X92773419Y-52705000D01*
X92760000Y-52637538D01*
X92760000Y-38802462D01*
X92773419Y-38735000D01*
X96456581Y-38735000D01*
X96470000Y-38802462D01*
X96470001Y-52637533D01*
X96456581Y-52705000D01*
X96509745Y-52972273D01*
X96661143Y-53198857D01*
X96887727Y-53350255D01*
X97087538Y-53390000D01*
X97087539Y-53390000D01*
X97155000Y-53403419D01*
X97222462Y-53390000D01*
X111057538Y-53390000D01*
X111125000Y-53403419D01*
X111192461Y-53390000D01*
X111192462Y-53390000D01*
X111392273Y-53350255D01*
X111618857Y-53198857D01*
X111770255Y-52972273D01*
X111823419Y-52705000D01*
X111810000Y-52637538D01*
X111810000Y-38802462D01*
X111823419Y-38735000D01*
X115506581Y-38735000D01*
X115520000Y-38802462D01*
X115520001Y-52637533D01*
X115506581Y-52705000D01*
X115559745Y-52972273D01*
X115711143Y-53198857D01*
X115937727Y-53350255D01*
X116137538Y-53390000D01*
X116137539Y-53390000D01*
X116205000Y-53403419D01*
X116272462Y-53390000D01*
X130107538Y-53390000D01*
X130175000Y-53403419D01*
X130242461Y-53390000D01*
X130242462Y-53390000D01*
X130442273Y-53350255D01*
X130668857Y-53198857D01*
X130820255Y-52972273D01*
X130873419Y-52705000D01*
X130860000Y-52637538D01*
X130860000Y-38802462D01*
X130873419Y-38735000D01*
X134556581Y-38735000D01*
X134570000Y-38802462D01*
X134570001Y-52637533D01*
X134556581Y-52705000D01*
X134609745Y-52972273D01*
X134761143Y-53198857D01*
X134987727Y-53350255D01*
X135187538Y-53390000D01*
X135187539Y-53390000D01*
X135255000Y-53403419D01*
X135322462Y-53390000D01*
X149157538Y-53390000D01*
X149225000Y-53403419D01*
X149292461Y-53390000D01*
X149292462Y-53390000D01*
X149492273Y-53350255D01*
X149718857Y-53198857D01*
X149870255Y-52972273D01*
X149923419Y-52705000D01*
X149910000Y-52637538D01*
X149910000Y-38802462D01*
X149923419Y-38735000D01*
X153606581Y-38735000D01*
X153620000Y-38802462D01*
X153620001Y-52637533D01*
X153606581Y-52705000D01*
X153659745Y-52972273D01*
X153811143Y-53198857D01*
X154037727Y-53350255D01*
X154237538Y-53390000D01*
X154237539Y-53390000D01*
X154305000Y-53403419D01*
X154372462Y-53390000D01*
X168207538Y-53390000D01*
X168275000Y-53403419D01*
X168342461Y-53390000D01*
X168342462Y-53390000D01*
X168542273Y-53350255D01*
X168768857Y-53198857D01*
X168920255Y-52972273D01*
X168973419Y-52705000D01*
X168960000Y-52637538D01*
X168960000Y-38802462D01*
X168973419Y-38735000D01*
X172656581Y-38735000D01*
X172670000Y-38802462D01*
X172670001Y-52637533D01*
X172656581Y-52705000D01*
X172709745Y-52972273D01*
X172861143Y-53198857D01*
X173087727Y-53350255D01*
X173287538Y-53390000D01*
X173287539Y-53390000D01*
X173355000Y-53403419D01*
X173422462Y-53390000D01*
X187257538Y-53390000D01*
X187325000Y-53403419D01*
X187392461Y-53390000D01*
X187392462Y-53390000D01*
X187592273Y-53350255D01*
X187818857Y-53198857D01*
X187970255Y-52972273D01*
X188023419Y-52705000D01*
X188010000Y-52637538D01*
X188010000Y-38802462D01*
X188023419Y-38735000D01*
X187970255Y-38467727D01*
X187818857Y-38241143D01*
X187592273Y-38089745D01*
X187392462Y-38050000D01*
X187325000Y-38036581D01*
X187257539Y-38050000D01*
X173422461Y-38050000D01*
X173355000Y-38036581D01*
X173287538Y-38050000D01*
X173087727Y-38089745D01*
X172861143Y-38241143D01*
X172709745Y-38467727D01*
X172656581Y-38735000D01*
X168973419Y-38735000D01*
X168920255Y-38467727D01*
X168768857Y-38241143D01*
X168542273Y-38089745D01*
X168342462Y-38050000D01*
X168275000Y-38036581D01*
X168207539Y-38050000D01*
X154372461Y-38050000D01*
X154305000Y-38036581D01*
X154237538Y-38050000D01*
X154037727Y-38089745D01*
X153811143Y-38241143D01*
X153659745Y-38467727D01*
X153606581Y-38735000D01*
X149923419Y-38735000D01*
X149870255Y-38467727D01*
X149718857Y-38241143D01*
X149492273Y-38089745D01*
X149292462Y-38050000D01*
X149225000Y-38036581D01*
X149157539Y-38050000D01*
X135322461Y-38050000D01*
X135255000Y-38036581D01*
X135187538Y-38050000D01*
X134987727Y-38089745D01*
X134761143Y-38241143D01*
X134609745Y-38467727D01*
X134556581Y-38735000D01*
X130873419Y-38735000D01*
X130820255Y-38467727D01*
X130668857Y-38241143D01*
X130442273Y-38089745D01*
X130242462Y-38050000D01*
X130175000Y-38036581D01*
X130107539Y-38050000D01*
X116272461Y-38050000D01*
X116205000Y-38036581D01*
X116137538Y-38050000D01*
X115937727Y-38089745D01*
X115711143Y-38241143D01*
X115559745Y-38467727D01*
X115506581Y-38735000D01*
X111823419Y-38735000D01*
X111770255Y-38467727D01*
X111618857Y-38241143D01*
X111392273Y-38089745D01*
X111192462Y-38050000D01*
X111125000Y-38036581D01*
X111057539Y-38050000D01*
X97222461Y-38050000D01*
X97155000Y-38036581D01*
X97087538Y-38050000D01*
X96887727Y-38089745D01*
X96661143Y-38241143D01*
X96509745Y-38467727D01*
X96456581Y-38735000D01*
X92773419Y-38735000D01*
X92720255Y-38467727D01*
X92568857Y-38241143D01*
X92342273Y-38089745D01*
X92142462Y-38050000D01*
X92075000Y-38036581D01*
X92007539Y-38050000D01*
X78172461Y-38050000D01*
X78105000Y-38036581D01*
X78037538Y-38050000D01*
X77837727Y-38089745D01*
X77611143Y-38241143D01*
X77459745Y-38467727D01*
X77406581Y-38735000D01*
X73723419Y-38735000D01*
X73670255Y-38467727D01*
X73518857Y-38241143D01*
X73292273Y-38089745D01*
X73092462Y-38050000D01*
X73025000Y-38036581D01*
X72957539Y-38050000D01*
X59122461Y-38050000D01*
X59055000Y-38036581D01*
X58987538Y-38050000D01*
X58787727Y-38089745D01*
X58561143Y-38241143D01*
X58409745Y-38467727D01*
X58356581Y-38735000D01*
X55320000Y-38735000D01*
X55320000Y-36245580D01*
X55320612Y-36241302D01*
X55359856Y-36241302D01*
X55372000Y-36483931D01*
X55372000Y-36726881D01*
X55385831Y-36760273D01*
X55387638Y-36796368D01*
X55546603Y-37180143D01*
X55561519Y-37184421D01*
X55584680Y-37240337D01*
X55977663Y-37633320D01*
X56033579Y-37656481D01*
X56037857Y-37671397D01*
X56266655Y-37753024D01*
X56491119Y-37846000D01*
X56527263Y-37846000D01*
X56561302Y-37858144D01*
X56803931Y-37846000D01*
X57046881Y-37846000D01*
X57080273Y-37832169D01*
X57116368Y-37830362D01*
X57500143Y-37671397D01*
X57504421Y-37656481D01*
X57560337Y-37633320D01*
X57953320Y-37240337D01*
X57976481Y-37184421D01*
X57991397Y-37180143D01*
X58073024Y-36951345D01*
X58166000Y-36726881D01*
X58166000Y-36690737D01*
X58178144Y-36656698D01*
X58166000Y-36414069D01*
X58166000Y-36241302D01*
X102730856Y-36241302D01*
X102743000Y-36483931D01*
X102743000Y-36726881D01*
X102756831Y-36760273D01*
X102758638Y-36796368D01*
X102917603Y-37180143D01*
X102932519Y-37184421D01*
X102955680Y-37240337D01*
X103348663Y-37633320D01*
X103404579Y-37656481D01*
X103408857Y-37671397D01*
X103637655Y-37753024D01*
X103862119Y-37846000D01*
X103898263Y-37846000D01*
X103932302Y-37858144D01*
X104174931Y-37846000D01*
X104417881Y-37846000D01*
X104451273Y-37832169D01*
X104487368Y-37830362D01*
X104871143Y-37671397D01*
X104875421Y-37656481D01*
X104931337Y-37633320D01*
X105324320Y-37240337D01*
X105347481Y-37184421D01*
X105362397Y-37180143D01*
X105444024Y-36951345D01*
X105537000Y-36726881D01*
X105537000Y-36690737D01*
X105549144Y-36656698D01*
X105537000Y-36414069D01*
X105537000Y-36241302D01*
X140830856Y-36241302D01*
X140843000Y-36483931D01*
X140843000Y-36726881D01*
X140856831Y-36760273D01*
X140858638Y-36796368D01*
X141017603Y-37180143D01*
X141032519Y-37184421D01*
X141055680Y-37240337D01*
X141448663Y-37633320D01*
X141504579Y-37656481D01*
X141508857Y-37671397D01*
X141737655Y-37753024D01*
X141962119Y-37846000D01*
X141998263Y-37846000D01*
X142032302Y-37858144D01*
X142274931Y-37846000D01*
X142517881Y-37846000D01*
X142551273Y-37832169D01*
X142587368Y-37830362D01*
X142971143Y-37671397D01*
X142975421Y-37656481D01*
X143031337Y-37633320D01*
X143424320Y-37240337D01*
X143447481Y-37184421D01*
X143462397Y-37180143D01*
X143544024Y-36951345D01*
X143637000Y-36726881D01*
X143637000Y-36690737D01*
X143649144Y-36656698D01*
X143637000Y-36414069D01*
X143637000Y-36241302D01*
X188201856Y-36241302D01*
X188214000Y-36483931D01*
X188214000Y-36726881D01*
X188227831Y-36760273D01*
X188229638Y-36796368D01*
X188388603Y-37180143D01*
X188403519Y-37184421D01*
X188426680Y-37240337D01*
X188819663Y-37633320D01*
X188875579Y-37656481D01*
X188879857Y-37671397D01*
X189108655Y-37753024D01*
X189333119Y-37846000D01*
X189369263Y-37846000D01*
X189403302Y-37858144D01*
X189645931Y-37846000D01*
X189888881Y-37846000D01*
X189922273Y-37832169D01*
X189958368Y-37830362D01*
X190342143Y-37671397D01*
X190346421Y-37656481D01*
X190402337Y-37633320D01*
X190795320Y-37240337D01*
X190818481Y-37184421D01*
X190833397Y-37180143D01*
X190915024Y-36951345D01*
X191008000Y-36726881D01*
X191008000Y-36690737D01*
X191020144Y-36656698D01*
X191008000Y-36414069D01*
X191008000Y-36171119D01*
X190994169Y-36137727D01*
X190992362Y-36101632D01*
X190833397Y-35717857D01*
X190818481Y-35713579D01*
X190795320Y-35657663D01*
X190402337Y-35264680D01*
X190346421Y-35241519D01*
X190342143Y-35226603D01*
X190113345Y-35144976D01*
X189888881Y-35052000D01*
X189852737Y-35052000D01*
X189818698Y-35039856D01*
X189576069Y-35052000D01*
X189333119Y-35052000D01*
X189299727Y-35065831D01*
X189263632Y-35067638D01*
X188879857Y-35226603D01*
X188875579Y-35241519D01*
X188819663Y-35264680D01*
X188426680Y-35657663D01*
X188403519Y-35713579D01*
X188388603Y-35717857D01*
X188306976Y-35946655D01*
X188214000Y-36171119D01*
X188214000Y-36207263D01*
X188201856Y-36241302D01*
X143637000Y-36241302D01*
X143637000Y-36171119D01*
X143623169Y-36137727D01*
X143621362Y-36101632D01*
X143462397Y-35717857D01*
X143447481Y-35713579D01*
X143424320Y-35657663D01*
X143031337Y-35264680D01*
X142975421Y-35241519D01*
X142971143Y-35226603D01*
X142742345Y-35144976D01*
X142517881Y-35052000D01*
X142481737Y-35052000D01*
X142447698Y-35039856D01*
X142205069Y-35052000D01*
X141962119Y-35052000D01*
X141928727Y-35065831D01*
X141892632Y-35067638D01*
X141508857Y-35226603D01*
X141504579Y-35241519D01*
X141448663Y-35264680D01*
X141055680Y-35657663D01*
X141032519Y-35713579D01*
X141017603Y-35717857D01*
X140935976Y-35946655D01*
X140843000Y-36171119D01*
X140843000Y-36207263D01*
X140830856Y-36241302D01*
X105537000Y-36241302D01*
X105537000Y-36171119D01*
X105523169Y-36137727D01*
X105521362Y-36101632D01*
X105362397Y-35717857D01*
X105347481Y-35713579D01*
X105324320Y-35657663D01*
X104931337Y-35264680D01*
X104875421Y-35241519D01*
X104871143Y-35226603D01*
X104642345Y-35144976D01*
X104417881Y-35052000D01*
X104381737Y-35052000D01*
X104347698Y-35039856D01*
X104105069Y-35052000D01*
X103862119Y-35052000D01*
X103828727Y-35065831D01*
X103792632Y-35067638D01*
X103408857Y-35226603D01*
X103404579Y-35241519D01*
X103348663Y-35264680D01*
X102955680Y-35657663D01*
X102932519Y-35713579D01*
X102917603Y-35717857D01*
X102835976Y-35946655D01*
X102743000Y-36171119D01*
X102743000Y-36207263D01*
X102730856Y-36241302D01*
X58166000Y-36241302D01*
X58166000Y-36171119D01*
X58152169Y-36137727D01*
X58150362Y-36101632D01*
X57991397Y-35717857D01*
X57976481Y-35713579D01*
X57953320Y-35657663D01*
X57560337Y-35264680D01*
X57504421Y-35241519D01*
X57500143Y-35226603D01*
X57271345Y-35144976D01*
X57046881Y-35052000D01*
X57010737Y-35052000D01*
X56976698Y-35039856D01*
X56734069Y-35052000D01*
X56491119Y-35052000D01*
X56457727Y-35065831D01*
X56421632Y-35067638D01*
X56037857Y-35226603D01*
X56033579Y-35241519D01*
X55977663Y-35264680D01*
X55584680Y-35657663D01*
X55561519Y-35713579D01*
X55546603Y-35717857D01*
X55464976Y-35946655D01*
X55372000Y-36171119D01*
X55372000Y-36207263D01*
X55359856Y-36241302D01*
X55320612Y-36241302D01*
X55374985Y-35861636D01*
X55514372Y-35555072D01*
X55734199Y-35299950D01*
X56016792Y-35116782D01*
X56362959Y-35013257D01*
X56541350Y-35000000D01*
X189814420Y-35000000D01*
X190198364Y-35054985D01*
M02*
