G04 #@! TF.GenerationSoftware,KiCad,Pcbnew,5.0.1-33cea8e~68~ubuntu18.04.1*
G04 #@! TF.CreationDate,2018-10-28T17:23:43+09:00*
G04 #@! TF.ProjectId,modulo-ergo42-mountplate,6D6F64756C6F2D6572676F34322D6D6F,rev?*
G04 #@! TF.SameCoordinates,Original*
G04 #@! TF.FileFunction,Profile,NP*
%FSLAX46Y46*%
G04 Gerber Fmt 4.6, Leading zero omitted, Abs format (unit mm)*
G04 Created by KiCad (PCBNEW 5.0.1-33cea8e~68~ubuntu18.04.1) date 2018年10月28日 17時23分43秒*
%MOMM*%
%LPD*%
G01*
G04 APERTURE LIST*
%ADD10C,0.100000*%
%ADD11C,0.150000*%
G04 APERTURE END LIST*
D10*
X173355000Y-90805000D02*
X173355000Y-76835000D01*
X168275000Y-57785000D02*
X168275000Y-71755000D01*
X173355000Y-95885000D02*
X187325000Y-95885000D01*
X168275000Y-109855000D02*
X154305000Y-109855000D01*
X154305000Y-71755000D02*
X154305000Y-57785000D01*
X173355000Y-57785000D02*
X187325000Y-57785000D01*
X173355000Y-109855000D02*
X173355000Y-95885000D01*
X187325000Y-95885000D02*
X187325000Y-109855000D01*
X187325000Y-109855000D02*
X173355000Y-109855000D01*
X154305000Y-76835000D02*
X168275000Y-76835000D01*
X168275000Y-71755000D02*
X154305000Y-71755000D01*
X168275000Y-90805000D02*
X154305000Y-90805000D01*
X187325000Y-90805000D02*
X173355000Y-90805000D01*
X154305000Y-95885000D02*
X168275000Y-95885000D01*
X168275000Y-76835000D02*
X168275000Y-90805000D01*
X168275000Y-95885000D02*
X168275000Y-109855000D01*
X173355000Y-76835000D02*
X187325000Y-76835000D01*
X187325000Y-71755000D02*
X173355000Y-71755000D01*
X173355000Y-71755000D02*
X173355000Y-57785000D01*
X154305000Y-90805000D02*
X154305000Y-76835000D01*
X187325000Y-76835000D02*
X187325000Y-90805000D01*
X187325000Y-57785000D02*
X187325000Y-71755000D01*
X154305000Y-57785000D02*
X168275000Y-57785000D01*
X154305000Y-109855000D02*
X154305000Y-95885000D01*
X149225000Y-57785000D02*
X149225000Y-71755000D01*
X149225000Y-109855000D02*
X135255000Y-109855000D01*
X135255000Y-71755000D02*
X135255000Y-57785000D01*
X135255000Y-76835000D02*
X149225000Y-76835000D01*
X149225000Y-71755000D02*
X135255000Y-71755000D01*
X149225000Y-90805000D02*
X135255000Y-90805000D01*
X135255000Y-95885000D02*
X149225000Y-95885000D01*
X149225000Y-76835000D02*
X149225000Y-90805000D01*
X149225000Y-95885000D02*
X149225000Y-109855000D01*
X135255000Y-90805000D02*
X135255000Y-76835000D01*
X135255000Y-57785000D02*
X149225000Y-57785000D01*
X135255000Y-109855000D02*
X135255000Y-95885000D01*
X116205000Y-71755000D02*
X116205000Y-57785000D01*
X130175000Y-109855000D02*
X116205000Y-109855000D01*
X130175000Y-57785000D02*
X130175000Y-71755000D01*
X130175000Y-90805000D02*
X116205000Y-90805000D01*
X130175000Y-71755000D02*
X116205000Y-71755000D01*
X116205000Y-109855000D02*
X116205000Y-95885000D01*
X130175000Y-76835000D02*
X130175000Y-90805000D01*
X116205000Y-57785000D02*
X130175000Y-57785000D01*
X116205000Y-76835000D02*
X130175000Y-76835000D01*
X116205000Y-95885000D02*
X130175000Y-95885000D01*
X130175000Y-95885000D02*
X130175000Y-109855000D01*
X116205000Y-90805000D02*
X116205000Y-76835000D01*
X173355000Y-38735000D02*
X173355000Y-52705000D01*
X187325000Y-38735000D02*
X173355000Y-38735000D01*
X173355000Y-52705000D02*
X187325000Y-52705000D01*
X187325000Y-52705000D02*
X187325000Y-38735000D01*
X116205000Y-38735000D02*
X116205000Y-52705000D01*
X130175000Y-38735000D02*
X116205000Y-38735000D01*
X135255000Y-38735000D02*
X135255000Y-52705000D01*
X149225000Y-52705000D02*
X149225000Y-38735000D01*
X149225000Y-38735000D02*
X135255000Y-38735000D01*
X130175000Y-52705000D02*
X130175000Y-38735000D01*
X168275000Y-38735000D02*
X154305000Y-38735000D01*
X154305000Y-38735000D02*
X154305000Y-52705000D01*
X135255000Y-52705000D02*
X149225000Y-52705000D01*
X168275000Y-52705000D02*
X168275000Y-38735000D01*
X116205000Y-52705000D02*
X130175000Y-52705000D01*
X154305000Y-52705000D02*
X168275000Y-52705000D01*
X97155000Y-71755000D02*
X97155000Y-57785000D01*
X111125000Y-109855000D02*
X97155000Y-109855000D01*
X111125000Y-57785000D02*
X111125000Y-71755000D01*
X111125000Y-90805000D02*
X97155000Y-90805000D01*
X97155000Y-38735000D02*
X97155000Y-52705000D01*
X111125000Y-71755000D02*
X97155000Y-71755000D01*
X111125000Y-52705000D02*
X111125000Y-38735000D01*
X111125000Y-38735000D02*
X97155000Y-38735000D01*
X97155000Y-109855000D02*
X97155000Y-95885000D01*
X111125000Y-76835000D02*
X111125000Y-90805000D01*
X97155000Y-57785000D02*
X111125000Y-57785000D01*
X97155000Y-76835000D02*
X111125000Y-76835000D01*
X97155000Y-95885000D02*
X111125000Y-95885000D01*
X111125000Y-95885000D02*
X111125000Y-109855000D01*
X97155000Y-90805000D02*
X97155000Y-76835000D01*
X97155000Y-52705000D02*
X111125000Y-52705000D01*
X92075000Y-57785000D02*
X92075000Y-71755000D01*
X78105000Y-57785000D02*
X92075000Y-57785000D01*
X92075000Y-76835000D02*
X92075000Y-90805000D01*
X92075000Y-71755000D02*
X78105000Y-71755000D01*
X92075000Y-95885000D02*
X92075000Y-109855000D01*
X78105000Y-76835000D02*
X92075000Y-76835000D01*
X78105000Y-95885000D02*
X92075000Y-95885000D01*
X78105000Y-90805000D02*
X78105000Y-76835000D01*
X78105000Y-109855000D02*
X78105000Y-95885000D01*
X92075000Y-90805000D02*
X78105000Y-90805000D01*
X92075000Y-109855000D02*
X78105000Y-109855000D01*
X78105000Y-71755000D02*
X78105000Y-57785000D01*
X73025000Y-95885000D02*
X73025000Y-109855000D01*
X59055000Y-95885000D02*
X73025000Y-95885000D01*
X73025000Y-109855000D02*
X59055000Y-109855000D01*
X59055000Y-109855000D02*
X59055000Y-95885000D01*
X59055000Y-90805000D02*
X59055000Y-76835000D01*
X73025000Y-90805000D02*
X59055000Y-90805000D01*
X73025000Y-76835000D02*
X73025000Y-90805000D01*
X59055000Y-76835000D02*
X73025000Y-76835000D01*
X59055000Y-57785000D02*
X73025000Y-57785000D01*
X59055000Y-71755000D02*
X59055000Y-57785000D01*
X73025000Y-71755000D02*
X59055000Y-71755000D01*
X73025000Y-57785000D02*
X73025000Y-71755000D01*
X92075000Y-38735000D02*
X78105000Y-38735000D01*
X92075000Y-52705000D02*
X92075000Y-38735000D01*
X78105000Y-52705000D02*
X92075000Y-52705000D01*
X78105000Y-38735000D02*
X78105000Y-52705000D01*
X73025000Y-38735000D02*
X59055000Y-38735000D01*
X73025000Y-52705000D02*
X73025000Y-38735000D01*
X59055000Y-52705000D02*
X73025000Y-52705000D01*
X59055000Y-38735000D02*
X59055000Y-52705000D01*
D11*
X56515000Y-114300000D02*
G75*
G02X54610000Y-112395000I0J1905000D01*
G01*
X191770000Y-112395000D02*
G75*
G02X189865000Y-114300000I-1905000J0D01*
G01*
X189865000Y-34290000D02*
G75*
G02X191770000Y-36195000I0J-1905000D01*
G01*
X54610000Y-36195000D02*
G75*
G02X56515000Y-34290000I1905000J0D01*
G01*
X189865000Y-114300000D02*
X56515000Y-114300000D01*
X54610000Y-36195000D02*
X54610000Y-112395000D01*
X191770000Y-36195000D02*
X191770000Y-112395000D01*
X56515000Y-34290000D02*
X189865000Y-34290000D01*
M02*
