G04 #@! TF.GenerationSoftware,KiCad,Pcbnew,5.0.1-33cea8e~68~ubuntu18.04.1*
G04 #@! TF.CreationDate,2018-10-28T17:23:43+09:00*
G04 #@! TF.ProjectId,modulo-ergo42-mountplate,6D6F64756C6F2D6572676F34322D6D6F,rev?*
G04 #@! TF.SameCoordinates,Original*
G04 #@! TF.FileFunction,Soldermask,Bot*
G04 #@! TF.FilePolarity,Negative*
%FSLAX46Y46*%
G04 Gerber Fmt 4.6, Leading zero omitted, Abs format (unit mm)*
G04 Created by KiCad (PCBNEW 5.0.1-33cea8e~68~ubuntu18.04.1) date 2018年10月28日 17時23分43秒*
%MOMM*%
%LPD*%
G01*
G04 APERTURE LIST*
%ADD10C,0.100000*%
G04 APERTURE END LIST*
D10*
G36*
X142477142Y-111359242D02*
X142625102Y-111420530D01*
X142758258Y-111509502D01*
X142871498Y-111622742D01*
X142960470Y-111755898D01*
X143021758Y-111903858D01*
X143053000Y-112060925D01*
X143053000Y-112221075D01*
X143021758Y-112378142D01*
X142960470Y-112526102D01*
X142871498Y-112659258D01*
X142758258Y-112772498D01*
X142625102Y-112861470D01*
X142477142Y-112922758D01*
X142320075Y-112954000D01*
X142159925Y-112954000D01*
X142002858Y-112922758D01*
X141854898Y-112861470D01*
X141721742Y-112772498D01*
X141608502Y-112659258D01*
X141519530Y-112526102D01*
X141458242Y-112378142D01*
X141427000Y-112221075D01*
X141427000Y-112060925D01*
X141458242Y-111903858D01*
X141519530Y-111755898D01*
X141608502Y-111622742D01*
X141721742Y-111509502D01*
X141854898Y-111420530D01*
X142002858Y-111359242D01*
X142159925Y-111328000D01*
X142320075Y-111328000D01*
X142477142Y-111359242D01*
X142477142Y-111359242D01*
G37*
G36*
X104377142Y-111359242D02*
X104525102Y-111420530D01*
X104658258Y-111509502D01*
X104771498Y-111622742D01*
X104860470Y-111755898D01*
X104921758Y-111903858D01*
X104953000Y-112060925D01*
X104953000Y-112221075D01*
X104921758Y-112378142D01*
X104860470Y-112526102D01*
X104771498Y-112659258D01*
X104658258Y-112772498D01*
X104525102Y-112861470D01*
X104377142Y-112922758D01*
X104220075Y-112954000D01*
X104059925Y-112954000D01*
X103902858Y-112922758D01*
X103754898Y-112861470D01*
X103621742Y-112772498D01*
X103508502Y-112659258D01*
X103419530Y-112526102D01*
X103358242Y-112378142D01*
X103327000Y-112221075D01*
X103327000Y-112060925D01*
X103358242Y-111903858D01*
X103419530Y-111755898D01*
X103508502Y-111622742D01*
X103621742Y-111509502D01*
X103754898Y-111420530D01*
X103902858Y-111359242D01*
X104059925Y-111328000D01*
X104220075Y-111328000D01*
X104377142Y-111359242D01*
X104377142Y-111359242D01*
G37*
G36*
X57006142Y-111359242D02*
X57154102Y-111420530D01*
X57287258Y-111509502D01*
X57400498Y-111622742D01*
X57489470Y-111755898D01*
X57550758Y-111903858D01*
X57582000Y-112060925D01*
X57582000Y-112221075D01*
X57550758Y-112378142D01*
X57489470Y-112526102D01*
X57400498Y-112659258D01*
X57287258Y-112772498D01*
X57154102Y-112861470D01*
X57006142Y-112922758D01*
X56849075Y-112954000D01*
X56688925Y-112954000D01*
X56531858Y-112922758D01*
X56383898Y-112861470D01*
X56250742Y-112772498D01*
X56137502Y-112659258D01*
X56048530Y-112526102D01*
X55987242Y-112378142D01*
X55956000Y-112221075D01*
X55956000Y-112060925D01*
X55987242Y-111903858D01*
X56048530Y-111755898D01*
X56137502Y-111622742D01*
X56250742Y-111509502D01*
X56383898Y-111420530D01*
X56531858Y-111359242D01*
X56688925Y-111328000D01*
X56849075Y-111328000D01*
X57006142Y-111359242D01*
X57006142Y-111359242D01*
G37*
G36*
X189848142Y-111359242D02*
X189996102Y-111420530D01*
X190129258Y-111509502D01*
X190242498Y-111622742D01*
X190331470Y-111755898D01*
X190392758Y-111903858D01*
X190424000Y-112060925D01*
X190424000Y-112221075D01*
X190392758Y-112378142D01*
X190331470Y-112526102D01*
X190242498Y-112659258D01*
X190129258Y-112772498D01*
X189996102Y-112861470D01*
X189848142Y-112922758D01*
X189691075Y-112954000D01*
X189530925Y-112954000D01*
X189373858Y-112922758D01*
X189225898Y-112861470D01*
X189092742Y-112772498D01*
X188979502Y-112659258D01*
X188890530Y-112526102D01*
X188829242Y-112378142D01*
X188798000Y-112221075D01*
X188798000Y-112060925D01*
X188829242Y-111903858D01*
X188890530Y-111755898D01*
X188979502Y-111622742D01*
X189092742Y-111509502D01*
X189225898Y-111420530D01*
X189373858Y-111359242D01*
X189530925Y-111328000D01*
X189691075Y-111328000D01*
X189848142Y-111359242D01*
X189848142Y-111359242D01*
G37*
G36*
X189848142Y-92563242D02*
X189996102Y-92624530D01*
X190129258Y-92713502D01*
X190242498Y-92826742D01*
X190331470Y-92959898D01*
X190392758Y-93107858D01*
X190424000Y-93264925D01*
X190424000Y-93425075D01*
X190392758Y-93582142D01*
X190331470Y-93730102D01*
X190242498Y-93863258D01*
X190129258Y-93976498D01*
X189996102Y-94065470D01*
X189848142Y-94126758D01*
X189691075Y-94158000D01*
X189530925Y-94158000D01*
X189373858Y-94126758D01*
X189225898Y-94065470D01*
X189092742Y-93976498D01*
X188979502Y-93863258D01*
X188890530Y-93730102D01*
X188829242Y-93582142D01*
X188798000Y-93425075D01*
X188798000Y-93264925D01*
X188829242Y-93107858D01*
X188890530Y-92959898D01*
X188979502Y-92826742D01*
X189092742Y-92713502D01*
X189225898Y-92624530D01*
X189373858Y-92563242D01*
X189530925Y-92532000D01*
X189691075Y-92532000D01*
X189848142Y-92563242D01*
X189848142Y-92563242D01*
G37*
G36*
X57006142Y-92563242D02*
X57154102Y-92624530D01*
X57287258Y-92713502D01*
X57400498Y-92826742D01*
X57489470Y-92959898D01*
X57550758Y-93107858D01*
X57582000Y-93264925D01*
X57582000Y-93425075D01*
X57550758Y-93582142D01*
X57489470Y-93730102D01*
X57400498Y-93863258D01*
X57287258Y-93976498D01*
X57154102Y-94065470D01*
X57006142Y-94126758D01*
X56849075Y-94158000D01*
X56688925Y-94158000D01*
X56531858Y-94126758D01*
X56383898Y-94065470D01*
X56250742Y-93976498D01*
X56137502Y-93863258D01*
X56048530Y-93730102D01*
X55987242Y-93582142D01*
X55956000Y-93425075D01*
X55956000Y-93264925D01*
X55987242Y-93107858D01*
X56048530Y-92959898D01*
X56137502Y-92826742D01*
X56250742Y-92713502D01*
X56383898Y-92624530D01*
X56531858Y-92563242D01*
X56688925Y-92532000D01*
X56849075Y-92532000D01*
X57006142Y-92563242D01*
X57006142Y-92563242D01*
G37*
G36*
X152002142Y-73513242D02*
X152150102Y-73574530D01*
X152283258Y-73663502D01*
X152396498Y-73776742D01*
X152485470Y-73909898D01*
X152546758Y-74057858D01*
X152578000Y-74214925D01*
X152578000Y-74375075D01*
X152546758Y-74532142D01*
X152485470Y-74680102D01*
X152396498Y-74813258D01*
X152283258Y-74926498D01*
X152150102Y-75015470D01*
X152002142Y-75076758D01*
X151845075Y-75108000D01*
X151684925Y-75108000D01*
X151527858Y-75076758D01*
X151379898Y-75015470D01*
X151246742Y-74926498D01*
X151133502Y-74813258D01*
X151044530Y-74680102D01*
X150983242Y-74532142D01*
X150952000Y-74375075D01*
X150952000Y-74214925D01*
X150983242Y-74057858D01*
X151044530Y-73909898D01*
X151133502Y-73776742D01*
X151246742Y-73663502D01*
X151379898Y-73574530D01*
X151527858Y-73513242D01*
X151684925Y-73482000D01*
X151845075Y-73482000D01*
X152002142Y-73513242D01*
X152002142Y-73513242D01*
G37*
G36*
X94852142Y-73513242D02*
X95000102Y-73574530D01*
X95133258Y-73663502D01*
X95246498Y-73776742D01*
X95335470Y-73909898D01*
X95396758Y-74057858D01*
X95428000Y-74214925D01*
X95428000Y-74375075D01*
X95396758Y-74532142D01*
X95335470Y-74680102D01*
X95246498Y-74813258D01*
X95133258Y-74926498D01*
X95000102Y-75015470D01*
X94852142Y-75076758D01*
X94695075Y-75108000D01*
X94534925Y-75108000D01*
X94377858Y-75076758D01*
X94229898Y-75015470D01*
X94096742Y-74926498D01*
X93983502Y-74813258D01*
X93894530Y-74680102D01*
X93833242Y-74532142D01*
X93802000Y-74375075D01*
X93802000Y-74214925D01*
X93833242Y-74057858D01*
X93894530Y-73909898D01*
X93983502Y-73776742D01*
X94096742Y-73663502D01*
X94229898Y-73574530D01*
X94377858Y-73513242D01*
X94534925Y-73482000D01*
X94695075Y-73482000D01*
X94852142Y-73513242D01*
X94852142Y-73513242D01*
G37*
G36*
X57006142Y-54463242D02*
X57154102Y-54524530D01*
X57287258Y-54613502D01*
X57400498Y-54726742D01*
X57489470Y-54859898D01*
X57550758Y-55007858D01*
X57582000Y-55164925D01*
X57582000Y-55325075D01*
X57550758Y-55482142D01*
X57489470Y-55630102D01*
X57400498Y-55763258D01*
X57287258Y-55876498D01*
X57154102Y-55965470D01*
X57006142Y-56026758D01*
X56849075Y-56058000D01*
X56688925Y-56058000D01*
X56531858Y-56026758D01*
X56383898Y-55965470D01*
X56250742Y-55876498D01*
X56137502Y-55763258D01*
X56048530Y-55630102D01*
X55987242Y-55482142D01*
X55956000Y-55325075D01*
X55956000Y-55164925D01*
X55987242Y-55007858D01*
X56048530Y-54859898D01*
X56137502Y-54726742D01*
X56250742Y-54613502D01*
X56383898Y-54524530D01*
X56531858Y-54463242D01*
X56688925Y-54432000D01*
X56849075Y-54432000D01*
X57006142Y-54463242D01*
X57006142Y-54463242D01*
G37*
G36*
X189848142Y-54463242D02*
X189996102Y-54524530D01*
X190129258Y-54613502D01*
X190242498Y-54726742D01*
X190331470Y-54859898D01*
X190392758Y-55007858D01*
X190424000Y-55164925D01*
X190424000Y-55325075D01*
X190392758Y-55482142D01*
X190331470Y-55630102D01*
X190242498Y-55763258D01*
X190129258Y-55876498D01*
X189996102Y-55965470D01*
X189848142Y-56026758D01*
X189691075Y-56058000D01*
X189530925Y-56058000D01*
X189373858Y-56026758D01*
X189225898Y-55965470D01*
X189092742Y-55876498D01*
X188979502Y-55763258D01*
X188890530Y-55630102D01*
X188829242Y-55482142D01*
X188798000Y-55325075D01*
X188798000Y-55164925D01*
X188829242Y-55007858D01*
X188890530Y-54859898D01*
X188979502Y-54726742D01*
X189092742Y-54613502D01*
X189225898Y-54524530D01*
X189373858Y-54463242D01*
X189530925Y-54432000D01*
X189691075Y-54432000D01*
X189848142Y-54463242D01*
X189848142Y-54463242D01*
G37*
G36*
X57006142Y-35667242D02*
X57154102Y-35728530D01*
X57287258Y-35817502D01*
X57400498Y-35930742D01*
X57489470Y-36063898D01*
X57550758Y-36211858D01*
X57582000Y-36368925D01*
X57582000Y-36529075D01*
X57550758Y-36686142D01*
X57489470Y-36834102D01*
X57400498Y-36967258D01*
X57287258Y-37080498D01*
X57154102Y-37169470D01*
X57006142Y-37230758D01*
X56849075Y-37262000D01*
X56688925Y-37262000D01*
X56531858Y-37230758D01*
X56383898Y-37169470D01*
X56250742Y-37080498D01*
X56137502Y-36967258D01*
X56048530Y-36834102D01*
X55987242Y-36686142D01*
X55956000Y-36529075D01*
X55956000Y-36368925D01*
X55987242Y-36211858D01*
X56048530Y-36063898D01*
X56137502Y-35930742D01*
X56250742Y-35817502D01*
X56383898Y-35728530D01*
X56531858Y-35667242D01*
X56688925Y-35636000D01*
X56849075Y-35636000D01*
X57006142Y-35667242D01*
X57006142Y-35667242D01*
G37*
G36*
X104377142Y-35667242D02*
X104525102Y-35728530D01*
X104658258Y-35817502D01*
X104771498Y-35930742D01*
X104860470Y-36063898D01*
X104921758Y-36211858D01*
X104953000Y-36368925D01*
X104953000Y-36529075D01*
X104921758Y-36686142D01*
X104860470Y-36834102D01*
X104771498Y-36967258D01*
X104658258Y-37080498D01*
X104525102Y-37169470D01*
X104377142Y-37230758D01*
X104220075Y-37262000D01*
X104059925Y-37262000D01*
X103902858Y-37230758D01*
X103754898Y-37169470D01*
X103621742Y-37080498D01*
X103508502Y-36967258D01*
X103419530Y-36834102D01*
X103358242Y-36686142D01*
X103327000Y-36529075D01*
X103327000Y-36368925D01*
X103358242Y-36211858D01*
X103419530Y-36063898D01*
X103508502Y-35930742D01*
X103621742Y-35817502D01*
X103754898Y-35728530D01*
X103902858Y-35667242D01*
X104059925Y-35636000D01*
X104220075Y-35636000D01*
X104377142Y-35667242D01*
X104377142Y-35667242D01*
G37*
G36*
X142477142Y-35667242D02*
X142625102Y-35728530D01*
X142758258Y-35817502D01*
X142871498Y-35930742D01*
X142960470Y-36063898D01*
X143021758Y-36211858D01*
X143053000Y-36368925D01*
X143053000Y-36529075D01*
X143021758Y-36686142D01*
X142960470Y-36834102D01*
X142871498Y-36967258D01*
X142758258Y-37080498D01*
X142625102Y-37169470D01*
X142477142Y-37230758D01*
X142320075Y-37262000D01*
X142159925Y-37262000D01*
X142002858Y-37230758D01*
X141854898Y-37169470D01*
X141721742Y-37080498D01*
X141608502Y-36967258D01*
X141519530Y-36834102D01*
X141458242Y-36686142D01*
X141427000Y-36529075D01*
X141427000Y-36368925D01*
X141458242Y-36211858D01*
X141519530Y-36063898D01*
X141608502Y-35930742D01*
X141721742Y-35817502D01*
X141854898Y-35728530D01*
X142002858Y-35667242D01*
X142159925Y-35636000D01*
X142320075Y-35636000D01*
X142477142Y-35667242D01*
X142477142Y-35667242D01*
G37*
G36*
X189848142Y-35667242D02*
X189996102Y-35728530D01*
X190129258Y-35817502D01*
X190242498Y-35930742D01*
X190331470Y-36063898D01*
X190392758Y-36211858D01*
X190424000Y-36368925D01*
X190424000Y-36529075D01*
X190392758Y-36686142D01*
X190331470Y-36834102D01*
X190242498Y-36967258D01*
X190129258Y-37080498D01*
X189996102Y-37169470D01*
X189848142Y-37230758D01*
X189691075Y-37262000D01*
X189530925Y-37262000D01*
X189373858Y-37230758D01*
X189225898Y-37169470D01*
X189092742Y-37080498D01*
X188979502Y-36967258D01*
X188890530Y-36834102D01*
X188829242Y-36686142D01*
X188798000Y-36529075D01*
X188798000Y-36368925D01*
X188829242Y-36211858D01*
X188890530Y-36063898D01*
X188979502Y-35930742D01*
X189092742Y-35817502D01*
X189225898Y-35728530D01*
X189373858Y-35667242D01*
X189530925Y-35636000D01*
X189691075Y-35636000D01*
X189848142Y-35667242D01*
X189848142Y-35667242D01*
G37*
M02*
