M48
;DRILL file {KiCad 5.0.1-33cea8e~68~ubuntu18.04.1} date 2018年10月28日 16時56分42秒
;FORMAT={-:-/ absolute / metric / decimal}
FMAT,2
METRIC,TZ
T1C0.400
T2C1.524
T3C1.702
T4C3.000
T5C3.988
%
G90
G05
M71
T1
X60.325Y-73.66
X73.025Y-45.72
X73.406Y-42.164
X73.66Y-39.37
X74.93Y-50.8
X80.137Y-76.962
X80.137Y-78.486
X83.82Y-75.311
X85.471Y-70.485
X86.581Y-43.401
X86.614Y-69.469
X86.995Y-53.721
X89.535Y-73.66
X90.424Y-74.549
X90.805Y-53.975
X92.71Y-47.371
X93.345Y-42.926
X93.345Y-53.975
X100.33Y-58.42
X105.156Y-69.469
X107.188Y-70.055
X109.982Y-55.499
X110.871Y-75.184
X112.268Y-75.184
X114.554Y-49.911
X117.602Y-48.387
X123.19Y-69.215
X123.19Y-109.22
X128.143Y-45.974
X131.826Y-45.974
X136.779Y-47.498
X146.05Y-47.625
X146.685Y-43.815
X149.86Y-46.355
X154.976Y-74.141
X156.591Y-74.755
X157.988Y-66.929
X159.893Y-75.311
X160.641Y-39.342
X163.195Y-41.91
X165.1Y-44.45
X165.608Y-72.771
X166.243Y-73.66
X167.005Y-74.676
X167.64Y-40.64
X170.18Y-46.863
X185.42Y-74.295
T2
X149.86Y-37.46
X149.86Y-44.46
X104.14Y-36.449
X189.611Y-112.141
X142.24Y-36.449
X73.66Y-37.46
X73.66Y-44.46
X92.71Y-37.46
X92.71Y-44.46
X151.765Y-74.295
X94.615Y-74.295
X189.611Y-55.245
X168.91Y-37.46
X168.91Y-44.46
X56.769Y-112.141
X104.14Y-112.141
X189.611Y-93.345
X56.769Y-93.345
X56.769Y-36.449
X142.24Y-112.141
X56.769Y-55.245
X189.611Y-36.449
T3
X180.34Y-59.69
X180.34Y-69.85
X118.11Y-102.87
X128.27Y-102.87
X156.21Y-102.87
X166.37Y-102.87
X137.16Y-64.77
X147.32Y-64.77
X104.14Y-40.64
X104.14Y-50.8
X123.19Y-40.64
X123.19Y-50.8
X137.16Y-102.87
X147.32Y-102.87
X137.16Y-83.82
X147.32Y-83.82
X180.34Y-78.74
X180.34Y-88.9
X99.06Y-83.82
X109.22Y-83.82
X80.01Y-64.77
X90.17Y-64.77
X66.04Y-78.74
X66.04Y-88.9
X80.01Y-83.82
X90.17Y-83.82
X156.21Y-64.77
X166.37Y-64.77
X180.34Y-40.64
X180.34Y-50.8
X80.01Y-102.87
X90.17Y-102.87
X180.34Y-97.79
X180.34Y-107.95
X99.06Y-102.87
X109.22Y-102.87
X66.04Y-40.64
X66.04Y-50.8
X118.11Y-64.77
X128.27Y-64.77
X66.04Y-97.79
X66.04Y-107.95
X118.11Y-83.82
X128.27Y-83.82
X161.29Y-40.64
X161.29Y-50.8
X142.24Y-40.64
X142.24Y-50.8
X85.09Y-40.64
X85.09Y-50.8
X66.04Y-59.69
X66.04Y-69.85
X99.06Y-64.77
X109.22Y-64.77
X156.21Y-83.82
X166.37Y-83.82
T4
X175.26Y-62.23
X177.8Y-68.58
X119.38Y-100.33
X125.73Y-97.79
X157.48Y-100.33
X163.83Y-97.79
X138.43Y-62.23
X144.78Y-59.69
X99.06Y-43.18
X101.6Y-49.53
X118.11Y-43.18
X120.65Y-49.53
X138.43Y-100.33
X144.78Y-97.79
X138.43Y-81.28
X144.78Y-78.74
X175.26Y-81.28
X177.8Y-87.63
X100.33Y-81.28
X106.68Y-78.74
X81.28Y-62.23
X87.63Y-59.69
X68.58Y-80.01
X71.12Y-86.36
X81.28Y-81.28
X87.63Y-78.74
X157.48Y-62.23
X163.83Y-59.69
X175.26Y-43.18
X177.8Y-49.53
X81.28Y-100.33
X87.63Y-97.79
X182.88Y-99.06
X185.42Y-105.41
X100.33Y-100.33
X106.68Y-97.79
X60.96Y-43.18
X63.5Y-49.53
X119.38Y-62.23
X125.73Y-59.69
X68.58Y-99.06
X71.12Y-105.41
X119.38Y-81.28
X125.73Y-78.74
X156.21Y-43.18
X158.75Y-49.53
X137.16Y-43.18
X139.7Y-49.53
X80.01Y-43.18
X82.55Y-49.53
X68.58Y-60.96
X71.12Y-67.31
X100.33Y-62.23
X106.68Y-59.69
X157.48Y-81.28
X163.83Y-78.74
T5
X180.34Y-102.87
X104.14Y-102.87
X66.04Y-45.72
X123.19Y-64.77
X66.04Y-102.87
X123.19Y-83.82
X161.29Y-45.72
X142.24Y-45.72
X85.09Y-45.72
X66.04Y-64.77
X104.14Y-64.77
X161.29Y-83.82
X180.34Y-64.77
X123.19Y-102.87
X161.29Y-102.87
X142.24Y-64.77
X104.14Y-45.72
X123.19Y-45.72
X142.24Y-102.87
X142.24Y-83.82
X180.34Y-83.82
X104.14Y-83.82
X85.09Y-64.77
X66.04Y-83.82
X85.09Y-83.82
X161.29Y-64.77
X180.34Y-45.72
X85.09Y-102.87
T0
M30
