M48
;DRILL file {KiCad 5.0.2-bee76a0~70~ubuntu18.04.1} date 2018年12月19日 03時49分36秒
;FORMAT={-:-/ absolute / metric / decimal}
FMAT,2
METRIC,TZ
T1C0.400
T2C0.950
T3C1.524
T4C1.702
T5C3.000
T6C3.988
%
G90
G05
T1
X71.247Y-36.957
X71.501Y-46.101
X75.819Y-47.752
X92.71Y-42.545
X107.97Y-52.705
X112.395Y-53.975
X112.395Y-56.425
X112.776Y-51.308
X114.3Y-87.63
X114.39Y-53.555
X115.48Y-89.535
X115.75Y-54.61
X116.205Y-51.435
X116.84Y-90.805
X117.729Y-56.425
X118.11Y-49.53
X118.725Y-51.855
X119.634Y-54.229
X119.634Y-92.456
X120.142Y-38.227
X123.19Y-51.435
X126.746Y-51.054
X126.746Y-89.154
X130.81Y-53.594
X131.572Y-89.916
X132.588Y-91.059
X132.842Y-48.768
X133.604Y-54.737
X133.985Y-40.894
X133.985Y-48.768
X142.24Y-42.545
X162.814Y-38.227
X162.814Y-39.497
X166.878Y-46.101
X170.815Y-47.879
T2
X73.66Y-37.46
X73.66Y-44.46
X168.91Y-37.46
X168.91Y-44.46
X149.86Y-37.46
X149.86Y-44.46
X92.71Y-37.46
X92.71Y-44.46
T3
X56.769Y-36.449
X189.611Y-93.345
X56.769Y-93.345
X189.611Y-36.449
X104.14Y-36.449
X104.14Y-112.141
X56.769Y-55.245
X189.611Y-112.141
X142.24Y-36.449
X189.611Y-55.245
X56.769Y-112.141
X94.615Y-74.295
X142.24Y-112.141
X151.765Y-74.295
T4
X104.14Y-40.64
X104.14Y-50.8
X180.34Y-78.74
X180.34Y-88.9
X180.34Y-40.64
X180.34Y-50.8
X80.01Y-83.82
X90.17Y-83.82
X137.16Y-102.87
X147.32Y-102.87
X161.29Y-40.64
X161.29Y-50.8
X142.24Y-40.64
X142.24Y-50.8
X118.11Y-64.77
X128.27Y-64.77
X137.16Y-64.77
X147.32Y-64.77
X156.21Y-64.77
X166.37Y-64.77
X99.06Y-64.77
X109.22Y-64.77
X180.34Y-59.69
X180.34Y-69.85
X66.04Y-40.64
X66.04Y-50.8
X66.04Y-97.79
X66.04Y-107.95
X118.11Y-45.72
X128.27Y-45.72
X99.06Y-102.87
X109.22Y-102.87
X137.16Y-83.82
X147.32Y-83.82
X99.06Y-83.82
X109.22Y-83.82
X118.11Y-83.82
X128.27Y-83.82
X156.21Y-83.82
X166.37Y-83.82
X180.34Y-97.79
X180.34Y-107.95
X80.01Y-102.87
X90.17Y-102.87
X85.09Y-40.64
X85.09Y-50.8
X80.01Y-64.77
X90.17Y-64.77
X118.11Y-102.87
X128.27Y-102.87
X66.04Y-59.69
X66.04Y-69.85
X156.21Y-102.87
X166.37Y-102.87
X66.04Y-78.74
X66.04Y-88.9
T5
X99.06Y-43.18
X101.6Y-49.53
X175.26Y-81.28
X177.8Y-87.63
X175.26Y-43.18
X177.8Y-49.53
X81.28Y-81.28
X87.63Y-78.74
X138.43Y-100.33
X144.78Y-97.79
X156.21Y-43.18
X158.75Y-49.53
X137.16Y-43.18
X139.7Y-49.53
X119.38Y-62.23
X125.73Y-59.69
X138.43Y-62.23
X144.78Y-59.69
X157.48Y-62.23
X163.83Y-59.69
X100.33Y-62.23
X106.68Y-59.69
X175.26Y-62.23
X177.8Y-68.58
X60.96Y-43.18
X63.5Y-49.53
X68.58Y-99.06
X71.12Y-105.41
X119.38Y-43.18
X125.73Y-40.64
X100.33Y-100.33
X106.68Y-97.79
X138.43Y-81.28
X144.78Y-78.74
X100.33Y-81.28
X106.68Y-78.74
X119.38Y-81.28
X125.73Y-78.74
X157.48Y-81.28
X163.83Y-78.74
X182.88Y-99.06
X185.42Y-105.41
X81.28Y-100.33
X87.63Y-97.79
X80.01Y-43.18
X82.55Y-49.53
X81.28Y-62.23
X87.63Y-59.69
X119.38Y-100.33
X125.73Y-97.79
X68.58Y-60.96
X71.12Y-67.31
X157.48Y-100.33
X163.83Y-97.79
X68.58Y-80.01
X71.12Y-86.36
T6
X161.29Y-45.72
X142.24Y-45.72
X123.19Y-64.77
X142.24Y-64.77
X161.29Y-64.77
X104.14Y-64.77
X180.34Y-64.77
X66.04Y-45.72
X66.04Y-102.87
X123.19Y-45.72
X104.14Y-102.87
X142.24Y-83.82
X104.14Y-83.82
X123.19Y-83.82
X161.29Y-83.82
X180.34Y-102.87
X85.09Y-102.87
X85.09Y-45.72
X85.09Y-64.77
X123.19Y-102.87
X66.04Y-64.77
X161.29Y-102.87
X66.04Y-83.82
X104.14Y-45.72
X180.34Y-83.82
X180.34Y-45.72
X85.09Y-83.82
X142.24Y-102.87
T0
M30
