G04 #@! TF.GenerationSoftware,KiCad,Pcbnew,5.0.1-33cea8e~68~ubuntu18.04.1*
G04 #@! TF.CreationDate,2018-10-28T16:56:34+09:00*
G04 #@! TF.ProjectId,modulo-ergo42,6D6F64756C6F2D6572676F34322E6B69,rev?*
G04 #@! TF.SameCoordinates,Original*
G04 #@! TF.FileFunction,Copper,L1,Top,Signal*
G04 #@! TF.FilePolarity,Positive*
%FSLAX46Y46*%
G04 Gerber Fmt 4.6, Leading zero omitted, Abs format (unit mm)*
G04 Created by KiCad (PCBNEW 5.0.1-33cea8e~68~ubuntu18.04.1) date 2018年10月28日 16時56分34秒*
%MOMM*%
%LPD*%
G01*
G04 APERTURE LIST*
G04 #@! TA.AperFunction,ViaPad*
%ADD10C,0.800000*%
G04 #@! TD*
G04 #@! TA.AperFunction,Conductor*
%ADD11C,0.250000*%
G04 #@! TD*
G04 #@! TA.AperFunction,Conductor*
%ADD12C,0.254000*%
G04 #@! TD*
G04 APERTURE END LIST*
D10*
G04 #@! TO.N,3V3*
X92710000Y-47371000D03*
X117602000Y-48387000D03*
X136779000Y-47498000D03*
X165608000Y-72771000D03*
X90424000Y-74549000D03*
X73025000Y-45720000D03*
X93345000Y-53975000D03*
X86581099Y-43401099D03*
X149860000Y-46355000D03*
X146050000Y-47625000D03*
X165100000Y-44450000D03*
G04 #@! TO.N,GND*
X157988000Y-66929000D03*
X89535000Y-73660000D03*
X60325000Y-73660000D03*
X123190000Y-69215000D03*
X185420000Y-74295000D03*
X123190000Y-109220000D03*
X109982000Y-55499000D03*
X86995000Y-53721000D03*
X100330000Y-58420000D03*
G04 #@! TO.N,INT*
X93345000Y-42926000D03*
X159893000Y-75311000D03*
X83820000Y-75311000D03*
X90805000Y-53975000D03*
X146685000Y-43815000D03*
G04 #@! TO.N,A1*
X131826000Y-45974000D03*
X156591000Y-74755000D03*
X80137000Y-76962000D03*
X114554000Y-49911000D03*
G04 #@! TO.N,A2*
X128143000Y-45974000D03*
X154976153Y-74141153D03*
X80137000Y-78486000D03*
G04 #@! TO.N,R3C3*
X105156000Y-69469000D03*
X110871000Y-75184000D03*
G04 #@! TO.N,R4C3*
X107188000Y-70055000D03*
X112268000Y-75184000D03*
G04 #@! TO.N,SCL*
X166243000Y-73660000D03*
X86614000Y-69469000D03*
X74930000Y-50800000D03*
X73660000Y-39370000D03*
X167640000Y-40640000D03*
X160641137Y-39342274D03*
G04 #@! TO.N,SDA*
X167005000Y-74676000D03*
X170180000Y-46863000D03*
X85471000Y-70485000D03*
X73406000Y-42164000D03*
X163195000Y-41910000D03*
G04 #@! TD*
D11*
G04 #@! TO.N,3V3*
X83976927Y-43401099D02*
X86581099Y-43401099D01*
X74930000Y-45720000D02*
X81658026Y-45720000D01*
X81658026Y-45720000D02*
X83976927Y-43401099D01*
X103158002Y-48387000D02*
X117602000Y-48387000D01*
X92710000Y-47371000D02*
X102142002Y-47371000D01*
X102142002Y-47371000D02*
X103158002Y-48387000D01*
X136779000Y-47498000D02*
X140369002Y-47498000D01*
X140369002Y-47498000D02*
X141004002Y-48133000D01*
X74930000Y-45720000D02*
X73025000Y-45720000D01*
X94615000Y-49276000D02*
X92710000Y-47371000D01*
X90424000Y-74549000D02*
X94615000Y-70358000D01*
X94615000Y-55245000D02*
X93345000Y-53975000D01*
X94615000Y-55245000D02*
X94615000Y-49276000D01*
X94615000Y-70358000D02*
X94615000Y-55245000D01*
X141004002Y-48133000D02*
X145542000Y-48133000D01*
X145542000Y-48133000D02*
X146050000Y-47625000D01*
X156591000Y-46355000D02*
X149860000Y-46355000D01*
X159766000Y-43180000D02*
X156591000Y-46355000D01*
X167545901Y-70833099D02*
X167545901Y-51848901D01*
X167545901Y-51848901D02*
X163830000Y-48133000D01*
X165608000Y-72771000D02*
X167545901Y-70833099D01*
X163830000Y-48133000D02*
X163830000Y-44450000D01*
X163830000Y-44450000D02*
X162560000Y-43180000D01*
X162560000Y-43180000D02*
X159766000Y-43180000D01*
X165100000Y-44450000D02*
X163830000Y-44450000D01*
G04 #@! TO.N,INT*
X87503000Y-71628000D02*
X83820000Y-75311000D01*
X87503000Y-64897000D02*
X87503000Y-71628000D01*
X93345000Y-42926000D02*
X91694000Y-42926000D01*
X89535000Y-62865000D02*
X87503000Y-64897000D01*
X91694000Y-42926000D02*
X89535000Y-45085000D01*
X89535000Y-55245000D02*
X90805000Y-53975000D01*
X89535000Y-55245000D02*
X89535000Y-62865000D01*
X89535000Y-45085000D02*
X89535000Y-55245000D01*
X98183999Y-45005001D02*
X96104998Y-42926000D01*
X102179002Y-42762000D02*
X99936001Y-45005001D01*
X159305001Y-63106001D02*
X159305001Y-58975001D01*
X96104998Y-42926000D02*
X93345000Y-42926000D01*
X160292999Y-74911001D02*
X160292999Y-74149001D01*
X99936001Y-45005001D02*
X98183999Y-45005001D01*
X134040998Y-42762000D02*
X121229002Y-42762000D01*
X158877000Y-63534002D02*
X159305001Y-63106001D01*
X159893000Y-75311000D02*
X160292999Y-74911001D01*
X158877000Y-72733002D02*
X158877000Y-63534002D01*
X160292999Y-74149001D02*
X158877000Y-72733002D01*
X114990998Y-42762000D02*
X102179002Y-42762000D01*
X143092000Y-42762000D02*
X140279002Y-42762000D01*
X121229002Y-42762000D02*
X118986001Y-45005001D01*
X140279002Y-42762000D02*
X138036001Y-45005001D01*
X138036001Y-45005001D02*
X136283999Y-45005001D01*
X136283999Y-45005001D02*
X134040998Y-42762000D01*
X118986001Y-45005001D02*
X117233999Y-45005001D01*
X117233999Y-45005001D02*
X114990998Y-42762000D01*
X145415000Y-45085000D02*
X146685000Y-43815000D01*
X145415000Y-45085000D02*
X143092000Y-42762000D01*
X159305001Y-58975001D02*
X145415000Y-45085000D01*
G04 #@! TO.N,A1*
X132225999Y-46373999D02*
X131826000Y-45974000D01*
X132225999Y-50056999D02*
X132225999Y-46373999D01*
X155701154Y-73865154D02*
X155701154Y-73532154D01*
X153289000Y-57277000D02*
X148844000Y-52832000D01*
X156591000Y-74755000D02*
X155701154Y-73865154D01*
X155701154Y-73532154D02*
X153289000Y-71120000D01*
X153289000Y-71120000D02*
X153289000Y-57277000D01*
X135001000Y-52832000D02*
X132225999Y-50056999D01*
X148844000Y-52832000D02*
X135001000Y-52832000D01*
X112649000Y-49911000D02*
X114554000Y-49911000D01*
X103759000Y-61502002D02*
X103759000Y-58801000D01*
X103759000Y-58801000D02*
X112649000Y-49911000D01*
X101600000Y-63661002D02*
X103759000Y-61502002D01*
X80137000Y-76962000D02*
X85979000Y-76962000D01*
X85979000Y-76962000D02*
X86741000Y-76200000D01*
X86741000Y-76200000D02*
X89846002Y-76200000D01*
X89846002Y-76200000D02*
X101600000Y-64446002D01*
X101600000Y-64446002D02*
X101600000Y-63661002D01*
G04 #@! TO.N,A2*
X128542999Y-46373999D02*
X128143000Y-45974000D01*
X128651000Y-46482000D02*
X128542999Y-46373999D01*
X128651000Y-49975172D02*
X128651000Y-46482000D01*
X154432000Y-74168000D02*
X152527000Y-72263000D01*
X132396828Y-53721000D02*
X128651000Y-49975172D01*
X152527000Y-72263000D02*
X152527000Y-57531000D01*
X152527000Y-57531000D02*
X148717000Y-53721000D01*
X148717000Y-53721000D02*
X132396828Y-53721000D01*
X154949306Y-74168000D02*
X154432000Y-74168000D01*
X154976153Y-74141153D02*
X154949306Y-74168000D01*
X124905172Y-53721000D02*
X128651000Y-49975172D01*
X95599656Y-76650010D02*
X118528666Y-53721000D01*
X118528666Y-53721000D02*
X124905172Y-53721000D01*
X87018988Y-76650010D02*
X95599656Y-76650010D01*
X80137000Y-78486000D02*
X85182998Y-78486000D01*
X85182998Y-78486000D02*
X87018988Y-76650010D01*
G04 #@! TO.N,R3C3*
X105156000Y-69469000D02*
X110871000Y-75184000D01*
G04 #@! TO.N,R4C3*
X107188000Y-70055000D02*
X112268000Y-75135000D01*
X112268000Y-75135000D02*
X112268000Y-75184000D01*
G04 #@! TO.N,SCL*
X166243000Y-73660000D02*
X168529000Y-71374000D01*
X83105001Y-63323025D02*
X83105001Y-60880001D01*
X82771099Y-63656927D02*
X83105001Y-63323025D01*
X82771099Y-66191784D02*
X82771099Y-63656927D01*
X86614000Y-69469000D02*
X86048315Y-69469000D01*
X86048315Y-69469000D02*
X82771099Y-66191784D01*
X83105001Y-60880001D02*
X79629000Y-57404000D01*
X79629000Y-57404000D02*
X76708000Y-54483000D01*
X76708000Y-54483000D02*
X74930000Y-52705000D01*
X74930000Y-52705000D02*
X74930000Y-50800000D01*
X168529000Y-71374000D02*
X168529000Y-47879000D01*
X167640000Y-46551998D02*
X167640000Y-40640000D01*
X168529000Y-47879000D02*
X168529000Y-47440998D01*
X168529000Y-47440998D02*
X167640000Y-46551998D01*
X73660000Y-39370000D02*
X73914000Y-39116000D01*
X160414863Y-39116000D02*
X160641137Y-39342274D01*
X73914000Y-39116000D02*
X160414863Y-39116000D01*
G04 #@! TO.N,SDA*
X167005000Y-74676000D02*
X169418000Y-72263000D01*
X169418000Y-72263000D02*
X170053000Y-71628000D01*
X170053000Y-71628000D02*
X170180000Y-71501000D01*
X170180000Y-71501000D02*
X170180000Y-46863000D01*
X83984666Y-70485000D02*
X85471000Y-70485000D01*
X72136000Y-58636334D02*
X83984666Y-70485000D01*
X72136000Y-43434000D02*
X72136000Y-58636334D01*
X73406000Y-42164000D02*
X72136000Y-43434000D01*
X84064665Y-41354999D02*
X74215001Y-41354999D01*
X84746666Y-42037000D02*
X84064665Y-41354999D01*
X97501998Y-42037000D02*
X84746666Y-42037000D01*
X141896666Y-42037000D02*
X141214665Y-41354999D01*
X155333999Y-41354999D02*
X154651998Y-42037000D01*
X154651998Y-42037000D02*
X141896666Y-42037000D01*
X163195000Y-41910000D02*
X160020000Y-41910000D01*
X159464999Y-41354999D02*
X155333999Y-41354999D01*
X160020000Y-41910000D02*
X159464999Y-41354999D01*
X103114665Y-41354999D02*
X98183999Y-41354999D01*
X141214665Y-41354999D02*
X136283999Y-41354999D01*
X74215001Y-41354999D02*
X73406000Y-42164000D01*
X136283999Y-41354999D02*
X135601998Y-42037000D01*
X122846666Y-42037000D02*
X122164665Y-41354999D01*
X122164665Y-41354999D02*
X117233999Y-41354999D01*
X116551998Y-42037000D02*
X103796666Y-42037000D01*
X135601998Y-42037000D02*
X122846666Y-42037000D01*
X103796666Y-42037000D02*
X103114665Y-41354999D01*
X117233999Y-41354999D02*
X116551998Y-42037000D01*
X98183999Y-41354999D02*
X97501998Y-42037000D01*
G04 #@! TD*
D12*
G04 #@! TO.N,GND*
G36*
X190198364Y-35054985D02*
X190504928Y-35194372D01*
X190760050Y-35414199D01*
X190943218Y-35696792D01*
X191046743Y-36042959D01*
X191060000Y-36221350D01*
X191060001Y-112344413D01*
X191005015Y-112728364D01*
X190865628Y-113034928D01*
X190645804Y-113290047D01*
X190363207Y-113473218D01*
X190017043Y-113576743D01*
X189838649Y-113590000D01*
X56565580Y-113590000D01*
X56181636Y-113535015D01*
X55875072Y-113395628D01*
X55619953Y-113175804D01*
X55436782Y-112893207D01*
X55333257Y-112547043D01*
X55320000Y-112368649D01*
X55320000Y-111863119D01*
X55372000Y-111863119D01*
X55372000Y-112418881D01*
X55584680Y-112932337D01*
X55977663Y-113325320D01*
X56491119Y-113538000D01*
X57046881Y-113538000D01*
X57560337Y-113325320D01*
X57953320Y-112932337D01*
X58166000Y-112418881D01*
X58166000Y-111863119D01*
X102743000Y-111863119D01*
X102743000Y-112418881D01*
X102955680Y-112932337D01*
X103348663Y-113325320D01*
X103862119Y-113538000D01*
X104417881Y-113538000D01*
X104931337Y-113325320D01*
X105324320Y-112932337D01*
X105537000Y-112418881D01*
X105537000Y-111863119D01*
X140843000Y-111863119D01*
X140843000Y-112418881D01*
X141055680Y-112932337D01*
X141448663Y-113325320D01*
X141962119Y-113538000D01*
X142517881Y-113538000D01*
X143031337Y-113325320D01*
X143424320Y-112932337D01*
X143637000Y-112418881D01*
X143637000Y-111863119D01*
X188214000Y-111863119D01*
X188214000Y-112418881D01*
X188426680Y-112932337D01*
X188819663Y-113325320D01*
X189333119Y-113538000D01*
X189888881Y-113538000D01*
X190402337Y-113325320D01*
X190795320Y-112932337D01*
X191008000Y-112418881D01*
X191008000Y-111863119D01*
X190795320Y-111349663D01*
X190402337Y-110956680D01*
X189888881Y-110744000D01*
X189333119Y-110744000D01*
X188819663Y-110956680D01*
X188426680Y-111349663D01*
X188214000Y-111863119D01*
X143637000Y-111863119D01*
X143424320Y-111349663D01*
X143031337Y-110956680D01*
X142517881Y-110744000D01*
X141962119Y-110744000D01*
X141448663Y-110956680D01*
X141055680Y-111349663D01*
X140843000Y-111863119D01*
X105537000Y-111863119D01*
X105324320Y-111349663D01*
X104931337Y-110956680D01*
X104417881Y-110744000D01*
X103862119Y-110744000D01*
X103348663Y-110956680D01*
X102955680Y-111349663D01*
X102743000Y-111863119D01*
X58166000Y-111863119D01*
X57953320Y-111349663D01*
X57560337Y-110956680D01*
X57046881Y-110744000D01*
X56491119Y-110744000D01*
X55977663Y-110956680D01*
X55584680Y-111349663D01*
X55372000Y-111863119D01*
X55320000Y-111863119D01*
X55320000Y-107654436D01*
X64554100Y-107654436D01*
X64554100Y-108245564D01*
X64780314Y-108791695D01*
X65198305Y-109209686D01*
X65744436Y-109435900D01*
X66335564Y-109435900D01*
X66881695Y-109209686D01*
X67299686Y-108791695D01*
X67525900Y-108245564D01*
X67525900Y-107654436D01*
X178854100Y-107654436D01*
X178854100Y-108245564D01*
X179080314Y-108791695D01*
X179498305Y-109209686D01*
X180044436Y-109435900D01*
X180635564Y-109435900D01*
X181181695Y-109209686D01*
X181599686Y-108791695D01*
X181825900Y-108245564D01*
X181825900Y-107654436D01*
X181599686Y-107108305D01*
X181181695Y-106690314D01*
X180635564Y-106464100D01*
X180044436Y-106464100D01*
X179498305Y-106690314D01*
X179080314Y-107108305D01*
X178854100Y-107654436D01*
X67525900Y-107654436D01*
X67299686Y-107108305D01*
X66881695Y-106690314D01*
X66335564Y-106464100D01*
X65744436Y-106464100D01*
X65198305Y-106690314D01*
X64780314Y-107108305D01*
X64554100Y-107654436D01*
X55320000Y-107654436D01*
X55320000Y-102347079D01*
X63411100Y-102347079D01*
X63411100Y-103392921D01*
X63811326Y-104359152D01*
X64550848Y-105098674D01*
X65517079Y-105498900D01*
X66562921Y-105498900D01*
X67529152Y-105098674D01*
X67642504Y-104985322D01*
X68985000Y-104985322D01*
X68985000Y-105834678D01*
X69310034Y-106619380D01*
X69910620Y-107219966D01*
X70695322Y-107545000D01*
X71544678Y-107545000D01*
X72329380Y-107219966D01*
X72929966Y-106619380D01*
X73255000Y-105834678D01*
X73255000Y-104985322D01*
X72929966Y-104200620D01*
X72329380Y-103600034D01*
X71544678Y-103275000D01*
X70695322Y-103275000D01*
X69910620Y-103600034D01*
X69310034Y-104200620D01*
X68985000Y-104985322D01*
X67642504Y-104985322D01*
X68268674Y-104359152D01*
X68668900Y-103392921D01*
X68668900Y-102574436D01*
X78524100Y-102574436D01*
X78524100Y-103165564D01*
X78750314Y-103711695D01*
X79168305Y-104129686D01*
X79714436Y-104355900D01*
X80305564Y-104355900D01*
X80851695Y-104129686D01*
X81269686Y-103711695D01*
X81495900Y-103165564D01*
X81495900Y-102574436D01*
X81450570Y-102465000D01*
X81704678Y-102465000D01*
X82489380Y-102139966D01*
X82587554Y-102041792D01*
X82461100Y-102347079D01*
X82461100Y-103392921D01*
X82861326Y-104359152D01*
X83600848Y-105098674D01*
X84567079Y-105498900D01*
X85612921Y-105498900D01*
X86579152Y-105098674D01*
X87318674Y-104359152D01*
X87718900Y-103392921D01*
X87718900Y-102574436D01*
X88684100Y-102574436D01*
X88684100Y-103165564D01*
X88910314Y-103711695D01*
X89328305Y-104129686D01*
X89874436Y-104355900D01*
X90465564Y-104355900D01*
X91011695Y-104129686D01*
X91429686Y-103711695D01*
X91655900Y-103165564D01*
X91655900Y-102574436D01*
X97574100Y-102574436D01*
X97574100Y-103165564D01*
X97800314Y-103711695D01*
X98218305Y-104129686D01*
X98764436Y-104355900D01*
X99355564Y-104355900D01*
X99901695Y-104129686D01*
X100319686Y-103711695D01*
X100545900Y-103165564D01*
X100545900Y-102574436D01*
X100500570Y-102465000D01*
X100754678Y-102465000D01*
X101539380Y-102139966D01*
X101637554Y-102041792D01*
X101511100Y-102347079D01*
X101511100Y-103392921D01*
X101911326Y-104359152D01*
X102650848Y-105098674D01*
X103617079Y-105498900D01*
X104662921Y-105498900D01*
X105629152Y-105098674D01*
X106368674Y-104359152D01*
X106768900Y-103392921D01*
X106768900Y-102574436D01*
X107734100Y-102574436D01*
X107734100Y-103165564D01*
X107960314Y-103711695D01*
X108378305Y-104129686D01*
X108924436Y-104355900D01*
X109515564Y-104355900D01*
X110061695Y-104129686D01*
X110479686Y-103711695D01*
X110705900Y-103165564D01*
X110705900Y-102574436D01*
X116624100Y-102574436D01*
X116624100Y-103165564D01*
X116850314Y-103711695D01*
X117268305Y-104129686D01*
X117814436Y-104355900D01*
X118405564Y-104355900D01*
X118951695Y-104129686D01*
X119369686Y-103711695D01*
X119595900Y-103165564D01*
X119595900Y-102574436D01*
X119550570Y-102465000D01*
X119804678Y-102465000D01*
X120589380Y-102139966D01*
X120687554Y-102041792D01*
X120561100Y-102347079D01*
X120561100Y-103392921D01*
X120961326Y-104359152D01*
X121700848Y-105098674D01*
X122667079Y-105498900D01*
X123712921Y-105498900D01*
X124679152Y-105098674D01*
X125418674Y-104359152D01*
X125818900Y-103392921D01*
X125818900Y-102574436D01*
X126784100Y-102574436D01*
X126784100Y-103165564D01*
X127010314Y-103711695D01*
X127428305Y-104129686D01*
X127974436Y-104355900D01*
X128565564Y-104355900D01*
X129111695Y-104129686D01*
X129529686Y-103711695D01*
X129755900Y-103165564D01*
X129755900Y-102574436D01*
X135674100Y-102574436D01*
X135674100Y-103165564D01*
X135900314Y-103711695D01*
X136318305Y-104129686D01*
X136864436Y-104355900D01*
X137455564Y-104355900D01*
X138001695Y-104129686D01*
X138419686Y-103711695D01*
X138645900Y-103165564D01*
X138645900Y-102574436D01*
X138600570Y-102465000D01*
X138854678Y-102465000D01*
X139639380Y-102139966D01*
X139737554Y-102041792D01*
X139611100Y-102347079D01*
X139611100Y-103392921D01*
X140011326Y-104359152D01*
X140750848Y-105098674D01*
X141717079Y-105498900D01*
X142762921Y-105498900D01*
X143729152Y-105098674D01*
X144468674Y-104359152D01*
X144868900Y-103392921D01*
X144868900Y-102574436D01*
X145834100Y-102574436D01*
X145834100Y-103165564D01*
X146060314Y-103711695D01*
X146478305Y-104129686D01*
X147024436Y-104355900D01*
X147615564Y-104355900D01*
X148161695Y-104129686D01*
X148579686Y-103711695D01*
X148805900Y-103165564D01*
X148805900Y-102574436D01*
X154724100Y-102574436D01*
X154724100Y-103165564D01*
X154950314Y-103711695D01*
X155368305Y-104129686D01*
X155914436Y-104355900D01*
X156505564Y-104355900D01*
X157051695Y-104129686D01*
X157469686Y-103711695D01*
X157695900Y-103165564D01*
X157695900Y-102574436D01*
X157650570Y-102465000D01*
X157904678Y-102465000D01*
X158689380Y-102139966D01*
X158787554Y-102041792D01*
X158661100Y-102347079D01*
X158661100Y-103392921D01*
X159061326Y-104359152D01*
X159800848Y-105098674D01*
X160767079Y-105498900D01*
X161812921Y-105498900D01*
X162779152Y-105098674D01*
X163518674Y-104359152D01*
X163918900Y-103392921D01*
X163918900Y-102574436D01*
X164884100Y-102574436D01*
X164884100Y-103165564D01*
X165110314Y-103711695D01*
X165528305Y-104129686D01*
X166074436Y-104355900D01*
X166665564Y-104355900D01*
X167211695Y-104129686D01*
X167629686Y-103711695D01*
X167855900Y-103165564D01*
X167855900Y-102574436D01*
X167761727Y-102347079D01*
X177711100Y-102347079D01*
X177711100Y-103392921D01*
X178111326Y-104359152D01*
X178850848Y-105098674D01*
X179817079Y-105498900D01*
X180862921Y-105498900D01*
X181829152Y-105098674D01*
X181942504Y-104985322D01*
X183285000Y-104985322D01*
X183285000Y-105834678D01*
X183610034Y-106619380D01*
X184210620Y-107219966D01*
X184995322Y-107545000D01*
X185844678Y-107545000D01*
X186629380Y-107219966D01*
X187229966Y-106619380D01*
X187555000Y-105834678D01*
X187555000Y-104985322D01*
X187229966Y-104200620D01*
X186629380Y-103600034D01*
X185844678Y-103275000D01*
X184995322Y-103275000D01*
X184210620Y-103600034D01*
X183610034Y-104200620D01*
X183285000Y-104985322D01*
X181942504Y-104985322D01*
X182568674Y-104359152D01*
X182968900Y-103392921D01*
X182968900Y-102347079D01*
X182568674Y-101380848D01*
X182331564Y-101143738D01*
X182455322Y-101195000D01*
X183304678Y-101195000D01*
X184089380Y-100869966D01*
X184689966Y-100269380D01*
X185015000Y-99484678D01*
X185015000Y-98635322D01*
X184689966Y-97850620D01*
X184089380Y-97250034D01*
X183304678Y-96925000D01*
X182455322Y-96925000D01*
X181716751Y-97230926D01*
X181599686Y-96948305D01*
X181181695Y-96530314D01*
X180635564Y-96304100D01*
X180044436Y-96304100D01*
X179498305Y-96530314D01*
X179080314Y-96948305D01*
X178854100Y-97494436D01*
X178854100Y-98085564D01*
X179080314Y-98631695D01*
X179498305Y-99049686D01*
X180044436Y-99275900D01*
X180635564Y-99275900D01*
X180745000Y-99230570D01*
X180745000Y-99484678D01*
X181070034Y-100269380D01*
X181168208Y-100367554D01*
X180862921Y-100241100D01*
X179817079Y-100241100D01*
X178850848Y-100641326D01*
X178111326Y-101380848D01*
X177711100Y-102347079D01*
X167761727Y-102347079D01*
X167629686Y-102028305D01*
X167211695Y-101610314D01*
X166665564Y-101384100D01*
X166074436Y-101384100D01*
X165528305Y-101610314D01*
X165110314Y-102028305D01*
X164884100Y-102574436D01*
X163918900Y-102574436D01*
X163918900Y-102347079D01*
X163518674Y-101380848D01*
X162779152Y-100641326D01*
X161812921Y-100241100D01*
X160767079Y-100241100D01*
X159800848Y-100641326D01*
X159563738Y-100878436D01*
X159615000Y-100754678D01*
X159615000Y-99905322D01*
X159289966Y-99120620D01*
X158689380Y-98520034D01*
X157904678Y-98195000D01*
X157055322Y-98195000D01*
X156270620Y-98520034D01*
X155670034Y-99120620D01*
X155345000Y-99905322D01*
X155345000Y-100754678D01*
X155650926Y-101493249D01*
X155368305Y-101610314D01*
X154950314Y-102028305D01*
X154724100Y-102574436D01*
X148805900Y-102574436D01*
X148579686Y-102028305D01*
X148161695Y-101610314D01*
X147615564Y-101384100D01*
X147024436Y-101384100D01*
X146478305Y-101610314D01*
X146060314Y-102028305D01*
X145834100Y-102574436D01*
X144868900Y-102574436D01*
X144868900Y-102347079D01*
X144468674Y-101380848D01*
X143729152Y-100641326D01*
X142762921Y-100241100D01*
X141717079Y-100241100D01*
X140750848Y-100641326D01*
X140513738Y-100878436D01*
X140565000Y-100754678D01*
X140565000Y-99905322D01*
X140239966Y-99120620D01*
X139639380Y-98520034D01*
X138854678Y-98195000D01*
X138005322Y-98195000D01*
X137220620Y-98520034D01*
X136620034Y-99120620D01*
X136295000Y-99905322D01*
X136295000Y-100754678D01*
X136600926Y-101493249D01*
X136318305Y-101610314D01*
X135900314Y-102028305D01*
X135674100Y-102574436D01*
X129755900Y-102574436D01*
X129529686Y-102028305D01*
X129111695Y-101610314D01*
X128565564Y-101384100D01*
X127974436Y-101384100D01*
X127428305Y-101610314D01*
X127010314Y-102028305D01*
X126784100Y-102574436D01*
X125818900Y-102574436D01*
X125818900Y-102347079D01*
X125418674Y-101380848D01*
X124679152Y-100641326D01*
X123712921Y-100241100D01*
X122667079Y-100241100D01*
X121700848Y-100641326D01*
X121463738Y-100878436D01*
X121515000Y-100754678D01*
X121515000Y-99905322D01*
X121189966Y-99120620D01*
X120589380Y-98520034D01*
X119804678Y-98195000D01*
X118955322Y-98195000D01*
X118170620Y-98520034D01*
X117570034Y-99120620D01*
X117245000Y-99905322D01*
X117245000Y-100754678D01*
X117550926Y-101493249D01*
X117268305Y-101610314D01*
X116850314Y-102028305D01*
X116624100Y-102574436D01*
X110705900Y-102574436D01*
X110479686Y-102028305D01*
X110061695Y-101610314D01*
X109515564Y-101384100D01*
X108924436Y-101384100D01*
X108378305Y-101610314D01*
X107960314Y-102028305D01*
X107734100Y-102574436D01*
X106768900Y-102574436D01*
X106768900Y-102347079D01*
X106368674Y-101380848D01*
X105629152Y-100641326D01*
X104662921Y-100241100D01*
X103617079Y-100241100D01*
X102650848Y-100641326D01*
X102413738Y-100878436D01*
X102465000Y-100754678D01*
X102465000Y-99905322D01*
X102139966Y-99120620D01*
X101539380Y-98520034D01*
X100754678Y-98195000D01*
X99905322Y-98195000D01*
X99120620Y-98520034D01*
X98520034Y-99120620D01*
X98195000Y-99905322D01*
X98195000Y-100754678D01*
X98500926Y-101493249D01*
X98218305Y-101610314D01*
X97800314Y-102028305D01*
X97574100Y-102574436D01*
X91655900Y-102574436D01*
X91429686Y-102028305D01*
X91011695Y-101610314D01*
X90465564Y-101384100D01*
X89874436Y-101384100D01*
X89328305Y-101610314D01*
X88910314Y-102028305D01*
X88684100Y-102574436D01*
X87718900Y-102574436D01*
X87718900Y-102347079D01*
X87318674Y-101380848D01*
X86579152Y-100641326D01*
X85612921Y-100241100D01*
X84567079Y-100241100D01*
X83600848Y-100641326D01*
X83363738Y-100878436D01*
X83415000Y-100754678D01*
X83415000Y-99905322D01*
X83089966Y-99120620D01*
X82489380Y-98520034D01*
X81704678Y-98195000D01*
X80855322Y-98195000D01*
X80070620Y-98520034D01*
X79470034Y-99120620D01*
X79145000Y-99905322D01*
X79145000Y-100754678D01*
X79450926Y-101493249D01*
X79168305Y-101610314D01*
X78750314Y-102028305D01*
X78524100Y-102574436D01*
X68668900Y-102574436D01*
X68668900Y-102347079D01*
X68268674Y-101380848D01*
X68031564Y-101143738D01*
X68155322Y-101195000D01*
X69004678Y-101195000D01*
X69789380Y-100869966D01*
X70389966Y-100269380D01*
X70715000Y-99484678D01*
X70715000Y-98635322D01*
X70389966Y-97850620D01*
X69904668Y-97365322D01*
X85495000Y-97365322D01*
X85495000Y-98214678D01*
X85820034Y-98999380D01*
X86420620Y-99599966D01*
X87205322Y-99925000D01*
X88054678Y-99925000D01*
X88839380Y-99599966D01*
X89439966Y-98999380D01*
X89765000Y-98214678D01*
X89765000Y-97365322D01*
X104545000Y-97365322D01*
X104545000Y-98214678D01*
X104870034Y-98999380D01*
X105470620Y-99599966D01*
X106255322Y-99925000D01*
X107104678Y-99925000D01*
X107889380Y-99599966D01*
X108489966Y-98999380D01*
X108815000Y-98214678D01*
X108815000Y-97365322D01*
X123595000Y-97365322D01*
X123595000Y-98214678D01*
X123920034Y-98999380D01*
X124520620Y-99599966D01*
X125305322Y-99925000D01*
X126154678Y-99925000D01*
X126939380Y-99599966D01*
X127539966Y-98999380D01*
X127865000Y-98214678D01*
X127865000Y-97365322D01*
X142645000Y-97365322D01*
X142645000Y-98214678D01*
X142970034Y-98999380D01*
X143570620Y-99599966D01*
X144355322Y-99925000D01*
X145204678Y-99925000D01*
X145989380Y-99599966D01*
X146589966Y-98999380D01*
X146915000Y-98214678D01*
X146915000Y-97365322D01*
X161695000Y-97365322D01*
X161695000Y-98214678D01*
X162020034Y-98999380D01*
X162620620Y-99599966D01*
X163405322Y-99925000D01*
X164254678Y-99925000D01*
X165039380Y-99599966D01*
X165639966Y-98999380D01*
X165965000Y-98214678D01*
X165965000Y-97365322D01*
X165639966Y-96580620D01*
X165039380Y-95980034D01*
X164254678Y-95655000D01*
X163405322Y-95655000D01*
X162620620Y-95980034D01*
X162020034Y-96580620D01*
X161695000Y-97365322D01*
X146915000Y-97365322D01*
X146589966Y-96580620D01*
X145989380Y-95980034D01*
X145204678Y-95655000D01*
X144355322Y-95655000D01*
X143570620Y-95980034D01*
X142970034Y-96580620D01*
X142645000Y-97365322D01*
X127865000Y-97365322D01*
X127539966Y-96580620D01*
X126939380Y-95980034D01*
X126154678Y-95655000D01*
X125305322Y-95655000D01*
X124520620Y-95980034D01*
X123920034Y-96580620D01*
X123595000Y-97365322D01*
X108815000Y-97365322D01*
X108489966Y-96580620D01*
X107889380Y-95980034D01*
X107104678Y-95655000D01*
X106255322Y-95655000D01*
X105470620Y-95980034D01*
X104870034Y-96580620D01*
X104545000Y-97365322D01*
X89765000Y-97365322D01*
X89439966Y-96580620D01*
X88839380Y-95980034D01*
X88054678Y-95655000D01*
X87205322Y-95655000D01*
X86420620Y-95980034D01*
X85820034Y-96580620D01*
X85495000Y-97365322D01*
X69904668Y-97365322D01*
X69789380Y-97250034D01*
X69004678Y-96925000D01*
X68155322Y-96925000D01*
X67416751Y-97230926D01*
X67299686Y-96948305D01*
X66881695Y-96530314D01*
X66335564Y-96304100D01*
X65744436Y-96304100D01*
X65198305Y-96530314D01*
X64780314Y-96948305D01*
X64554100Y-97494436D01*
X64554100Y-98085564D01*
X64780314Y-98631695D01*
X65198305Y-99049686D01*
X65744436Y-99275900D01*
X66335564Y-99275900D01*
X66445000Y-99230570D01*
X66445000Y-99484678D01*
X66770034Y-100269380D01*
X66868208Y-100367554D01*
X66562921Y-100241100D01*
X65517079Y-100241100D01*
X64550848Y-100641326D01*
X63811326Y-101380848D01*
X63411100Y-102347079D01*
X55320000Y-102347079D01*
X55320000Y-93067119D01*
X55372000Y-93067119D01*
X55372000Y-93622881D01*
X55584680Y-94136337D01*
X55977663Y-94529320D01*
X56491119Y-94742000D01*
X57046881Y-94742000D01*
X57560337Y-94529320D01*
X57953320Y-94136337D01*
X58166000Y-93622881D01*
X58166000Y-93067119D01*
X188214000Y-93067119D01*
X188214000Y-93622881D01*
X188426680Y-94136337D01*
X188819663Y-94529320D01*
X189333119Y-94742000D01*
X189888881Y-94742000D01*
X190402337Y-94529320D01*
X190795320Y-94136337D01*
X191008000Y-93622881D01*
X191008000Y-93067119D01*
X190795320Y-92553663D01*
X190402337Y-92160680D01*
X189888881Y-91948000D01*
X189333119Y-91948000D01*
X188819663Y-92160680D01*
X188426680Y-92553663D01*
X188214000Y-93067119D01*
X58166000Y-93067119D01*
X57953320Y-92553663D01*
X57560337Y-92160680D01*
X57046881Y-91948000D01*
X56491119Y-91948000D01*
X55977663Y-92160680D01*
X55584680Y-92553663D01*
X55372000Y-93067119D01*
X55320000Y-93067119D01*
X55320000Y-88604436D01*
X64554100Y-88604436D01*
X64554100Y-89195564D01*
X64780314Y-89741695D01*
X65198305Y-90159686D01*
X65744436Y-90385900D01*
X66335564Y-90385900D01*
X66881695Y-90159686D01*
X67299686Y-89741695D01*
X67525900Y-89195564D01*
X67525900Y-88604436D01*
X67299686Y-88058305D01*
X66881695Y-87640314D01*
X66335564Y-87414100D01*
X65744436Y-87414100D01*
X65198305Y-87640314D01*
X64780314Y-88058305D01*
X64554100Y-88604436D01*
X55320000Y-88604436D01*
X55320000Y-83297079D01*
X63411100Y-83297079D01*
X63411100Y-84342921D01*
X63811326Y-85309152D01*
X64550848Y-86048674D01*
X65517079Y-86448900D01*
X66562921Y-86448900D01*
X67529152Y-86048674D01*
X67642504Y-85935322D01*
X68985000Y-85935322D01*
X68985000Y-86784678D01*
X69310034Y-87569380D01*
X69910620Y-88169966D01*
X70695322Y-88495000D01*
X71544678Y-88495000D01*
X72329380Y-88169966D01*
X72929966Y-87569380D01*
X73080763Y-87205322D01*
X175665000Y-87205322D01*
X175665000Y-88054678D01*
X175990034Y-88839380D01*
X176590620Y-89439966D01*
X177375322Y-89765000D01*
X178224678Y-89765000D01*
X178963249Y-89459074D01*
X179080314Y-89741695D01*
X179498305Y-90159686D01*
X180044436Y-90385900D01*
X180635564Y-90385900D01*
X181181695Y-90159686D01*
X181599686Y-89741695D01*
X181825900Y-89195564D01*
X181825900Y-88604436D01*
X181599686Y-88058305D01*
X181181695Y-87640314D01*
X180635564Y-87414100D01*
X180044436Y-87414100D01*
X179935000Y-87459430D01*
X179935000Y-87205322D01*
X179609966Y-86420620D01*
X179511792Y-86322446D01*
X179817079Y-86448900D01*
X180862921Y-86448900D01*
X181829152Y-86048674D01*
X182568674Y-85309152D01*
X182968900Y-84342921D01*
X182968900Y-83297079D01*
X182568674Y-82330848D01*
X181829152Y-81591326D01*
X180862921Y-81191100D01*
X179817079Y-81191100D01*
X178850848Y-81591326D01*
X178111326Y-82330848D01*
X177711100Y-83297079D01*
X177711100Y-84342921D01*
X178111326Y-85309152D01*
X178348436Y-85546262D01*
X178224678Y-85495000D01*
X177375322Y-85495000D01*
X176590620Y-85820034D01*
X175990034Y-86420620D01*
X175665000Y-87205322D01*
X73080763Y-87205322D01*
X73255000Y-86784678D01*
X73255000Y-85935322D01*
X72929966Y-85150620D01*
X72329380Y-84550034D01*
X71544678Y-84225000D01*
X70695322Y-84225000D01*
X69910620Y-84550034D01*
X69310034Y-85150620D01*
X68985000Y-85935322D01*
X67642504Y-85935322D01*
X68268674Y-85309152D01*
X68668900Y-84342921D01*
X68668900Y-83297079D01*
X68268674Y-82330848D01*
X68031564Y-82093738D01*
X68155322Y-82145000D01*
X69004678Y-82145000D01*
X69789380Y-81819966D01*
X70389966Y-81219380D01*
X70715000Y-80434678D01*
X70715000Y-79585322D01*
X70389966Y-78800620D01*
X69789380Y-78200034D01*
X69004678Y-77875000D01*
X68155322Y-77875000D01*
X67416751Y-78180926D01*
X67299686Y-77898305D01*
X66881695Y-77480314D01*
X66335564Y-77254100D01*
X65744436Y-77254100D01*
X65198305Y-77480314D01*
X64780314Y-77898305D01*
X64554100Y-78444436D01*
X64554100Y-79035564D01*
X64780314Y-79581695D01*
X65198305Y-79999686D01*
X65744436Y-80225900D01*
X66335564Y-80225900D01*
X66445000Y-80180570D01*
X66445000Y-80434678D01*
X66770034Y-81219380D01*
X66868208Y-81317554D01*
X66562921Y-81191100D01*
X65517079Y-81191100D01*
X64550848Y-81591326D01*
X63811326Y-82330848D01*
X63411100Y-83297079D01*
X55320000Y-83297079D01*
X55320000Y-69554436D01*
X64554100Y-69554436D01*
X64554100Y-70145564D01*
X64780314Y-70691695D01*
X65198305Y-71109686D01*
X65744436Y-71335900D01*
X66335564Y-71335900D01*
X66881695Y-71109686D01*
X67299686Y-70691695D01*
X67525900Y-70145564D01*
X67525900Y-69554436D01*
X67299686Y-69008305D01*
X66881695Y-68590314D01*
X66335564Y-68364100D01*
X65744436Y-68364100D01*
X65198305Y-68590314D01*
X64780314Y-69008305D01*
X64554100Y-69554436D01*
X55320000Y-69554436D01*
X55320000Y-64247079D01*
X63411100Y-64247079D01*
X63411100Y-65292921D01*
X63811326Y-66259152D01*
X64550848Y-66998674D01*
X65517079Y-67398900D01*
X66562921Y-67398900D01*
X67529152Y-66998674D01*
X67642504Y-66885322D01*
X68985000Y-66885322D01*
X68985000Y-67734678D01*
X69310034Y-68519380D01*
X69910620Y-69119966D01*
X70695322Y-69445000D01*
X71544678Y-69445000D01*
X72329380Y-69119966D01*
X72929966Y-68519380D01*
X73255000Y-67734678D01*
X73255000Y-66885322D01*
X72929966Y-66100620D01*
X72329380Y-65500034D01*
X71544678Y-65175000D01*
X70695322Y-65175000D01*
X69910620Y-65500034D01*
X69310034Y-66100620D01*
X68985000Y-66885322D01*
X67642504Y-66885322D01*
X68268674Y-66259152D01*
X68668900Y-65292921D01*
X68668900Y-64247079D01*
X68268674Y-63280848D01*
X68031564Y-63043738D01*
X68155322Y-63095000D01*
X69004678Y-63095000D01*
X69789380Y-62769966D01*
X70389966Y-62169380D01*
X70715000Y-61384678D01*
X70715000Y-60535322D01*
X70389966Y-59750620D01*
X69789380Y-59150034D01*
X69004678Y-58825000D01*
X68155322Y-58825000D01*
X67416751Y-59130926D01*
X67299686Y-58848305D01*
X66881695Y-58430314D01*
X66335564Y-58204100D01*
X65744436Y-58204100D01*
X65198305Y-58430314D01*
X64780314Y-58848305D01*
X64554100Y-59394436D01*
X64554100Y-59985564D01*
X64780314Y-60531695D01*
X65198305Y-60949686D01*
X65744436Y-61175900D01*
X66335564Y-61175900D01*
X66445000Y-61130570D01*
X66445000Y-61384678D01*
X66770034Y-62169380D01*
X66868208Y-62267554D01*
X66562921Y-62141100D01*
X65517079Y-62141100D01*
X64550848Y-62541326D01*
X63811326Y-63280848D01*
X63411100Y-64247079D01*
X55320000Y-64247079D01*
X55320000Y-54967119D01*
X55372000Y-54967119D01*
X55372000Y-55522881D01*
X55584680Y-56036337D01*
X55977663Y-56429320D01*
X56491119Y-56642000D01*
X57046881Y-56642000D01*
X57560337Y-56429320D01*
X57953320Y-56036337D01*
X58166000Y-55522881D01*
X58166000Y-54967119D01*
X57953320Y-54453663D01*
X57560337Y-54060680D01*
X57046881Y-53848000D01*
X56491119Y-53848000D01*
X55977663Y-54060680D01*
X55584680Y-54453663D01*
X55372000Y-54967119D01*
X55320000Y-54967119D01*
X55320000Y-49105322D01*
X61365000Y-49105322D01*
X61365000Y-49954678D01*
X61690034Y-50739380D01*
X62290620Y-51339966D01*
X63075322Y-51665000D01*
X63924678Y-51665000D01*
X64663249Y-51359074D01*
X64780314Y-51641695D01*
X65198305Y-52059686D01*
X65744436Y-52285900D01*
X66335564Y-52285900D01*
X66881695Y-52059686D01*
X67299686Y-51641695D01*
X67525900Y-51095564D01*
X67525900Y-50504436D01*
X67299686Y-49958305D01*
X66881695Y-49540314D01*
X66335564Y-49314100D01*
X65744436Y-49314100D01*
X65635000Y-49359430D01*
X65635000Y-49105322D01*
X65309966Y-48320620D01*
X65211792Y-48222446D01*
X65517079Y-48348900D01*
X66562921Y-48348900D01*
X67529152Y-47948674D01*
X68268674Y-47209152D01*
X68668900Y-46242921D01*
X68668900Y-45197079D01*
X68268674Y-44230848D01*
X67529152Y-43491326D01*
X67390755Y-43434000D01*
X71361112Y-43434000D01*
X71376000Y-43508847D01*
X71376001Y-58561482D01*
X71361112Y-58636334D01*
X71376001Y-58711186D01*
X71420097Y-58932871D01*
X71588072Y-59184263D01*
X71651528Y-59226663D01*
X83394337Y-70969473D01*
X83436737Y-71032929D01*
X83688129Y-71200904D01*
X83909814Y-71245000D01*
X83909818Y-71245000D01*
X83984665Y-71259888D01*
X84059512Y-71245000D01*
X84767289Y-71245000D01*
X84884720Y-71362431D01*
X85265126Y-71520000D01*
X85676874Y-71520000D01*
X86057280Y-71362431D01*
X86348431Y-71071280D01*
X86506000Y-70690874D01*
X86506000Y-70504000D01*
X86743001Y-70504000D01*
X86743001Y-71313197D01*
X83780199Y-74276000D01*
X83614126Y-74276000D01*
X83233720Y-74433569D01*
X82942569Y-74724720D01*
X82785000Y-75105126D01*
X82785000Y-75516874D01*
X82942569Y-75897280D01*
X83233720Y-76188431D01*
X83266479Y-76202000D01*
X80840711Y-76202000D01*
X80723280Y-76084569D01*
X80342874Y-75927000D01*
X79931126Y-75927000D01*
X79550720Y-76084569D01*
X79259569Y-76375720D01*
X79102000Y-76756126D01*
X79102000Y-77167874D01*
X79259569Y-77548280D01*
X79435289Y-77724000D01*
X79259569Y-77899720D01*
X79102000Y-78280126D01*
X79102000Y-78691874D01*
X79259569Y-79072280D01*
X79550720Y-79363431D01*
X79931126Y-79521000D01*
X80019654Y-79521000D01*
X79470034Y-80070620D01*
X79145000Y-80855322D01*
X79145000Y-81704678D01*
X79450926Y-82443249D01*
X79168305Y-82560314D01*
X78750314Y-82978305D01*
X78524100Y-83524436D01*
X78524100Y-84115564D01*
X78750314Y-84661695D01*
X79168305Y-85079686D01*
X79714436Y-85305900D01*
X80305564Y-85305900D01*
X80851695Y-85079686D01*
X81269686Y-84661695D01*
X81495900Y-84115564D01*
X81495900Y-83524436D01*
X81450570Y-83415000D01*
X81704678Y-83415000D01*
X82489380Y-83089966D01*
X82587554Y-82991792D01*
X82461100Y-83297079D01*
X82461100Y-84342921D01*
X82861326Y-85309152D01*
X83600848Y-86048674D01*
X84567079Y-86448900D01*
X85612921Y-86448900D01*
X86579152Y-86048674D01*
X87318674Y-85309152D01*
X87718900Y-84342921D01*
X87718900Y-83524436D01*
X88684100Y-83524436D01*
X88684100Y-84115564D01*
X88910314Y-84661695D01*
X89328305Y-85079686D01*
X89874436Y-85305900D01*
X90465564Y-85305900D01*
X91011695Y-85079686D01*
X91429686Y-84661695D01*
X91655900Y-84115564D01*
X91655900Y-83524436D01*
X97574100Y-83524436D01*
X97574100Y-84115564D01*
X97800314Y-84661695D01*
X98218305Y-85079686D01*
X98764436Y-85305900D01*
X99355564Y-85305900D01*
X99901695Y-85079686D01*
X100319686Y-84661695D01*
X100545900Y-84115564D01*
X100545900Y-83524436D01*
X100500570Y-83415000D01*
X100754678Y-83415000D01*
X101539380Y-83089966D01*
X101637554Y-82991792D01*
X101511100Y-83297079D01*
X101511100Y-84342921D01*
X101911326Y-85309152D01*
X102650848Y-86048674D01*
X103617079Y-86448900D01*
X104662921Y-86448900D01*
X105629152Y-86048674D01*
X106368674Y-85309152D01*
X106768900Y-84342921D01*
X106768900Y-83524436D01*
X107734100Y-83524436D01*
X107734100Y-84115564D01*
X107960314Y-84661695D01*
X108378305Y-85079686D01*
X108924436Y-85305900D01*
X109515564Y-85305900D01*
X110061695Y-85079686D01*
X110479686Y-84661695D01*
X110705900Y-84115564D01*
X110705900Y-83524436D01*
X116624100Y-83524436D01*
X116624100Y-84115564D01*
X116850314Y-84661695D01*
X117268305Y-85079686D01*
X117814436Y-85305900D01*
X118405564Y-85305900D01*
X118951695Y-85079686D01*
X119369686Y-84661695D01*
X119595900Y-84115564D01*
X119595900Y-83524436D01*
X119550570Y-83415000D01*
X119804678Y-83415000D01*
X120589380Y-83089966D01*
X120687554Y-82991792D01*
X120561100Y-83297079D01*
X120561100Y-84342921D01*
X120961326Y-85309152D01*
X121700848Y-86048674D01*
X122667079Y-86448900D01*
X123712921Y-86448900D01*
X124679152Y-86048674D01*
X125418674Y-85309152D01*
X125818900Y-84342921D01*
X125818900Y-83524436D01*
X126784100Y-83524436D01*
X126784100Y-84115564D01*
X127010314Y-84661695D01*
X127428305Y-85079686D01*
X127974436Y-85305900D01*
X128565564Y-85305900D01*
X129111695Y-85079686D01*
X129529686Y-84661695D01*
X129755900Y-84115564D01*
X129755900Y-83524436D01*
X135674100Y-83524436D01*
X135674100Y-84115564D01*
X135900314Y-84661695D01*
X136318305Y-85079686D01*
X136864436Y-85305900D01*
X137455564Y-85305900D01*
X138001695Y-85079686D01*
X138419686Y-84661695D01*
X138645900Y-84115564D01*
X138645900Y-83524436D01*
X138600570Y-83415000D01*
X138854678Y-83415000D01*
X139639380Y-83089966D01*
X139737554Y-82991792D01*
X139611100Y-83297079D01*
X139611100Y-84342921D01*
X140011326Y-85309152D01*
X140750848Y-86048674D01*
X141717079Y-86448900D01*
X142762921Y-86448900D01*
X143729152Y-86048674D01*
X144468674Y-85309152D01*
X144868900Y-84342921D01*
X144868900Y-83524436D01*
X145834100Y-83524436D01*
X145834100Y-84115564D01*
X146060314Y-84661695D01*
X146478305Y-85079686D01*
X147024436Y-85305900D01*
X147615564Y-85305900D01*
X148161695Y-85079686D01*
X148579686Y-84661695D01*
X148805900Y-84115564D01*
X148805900Y-83524436D01*
X154724100Y-83524436D01*
X154724100Y-84115564D01*
X154950314Y-84661695D01*
X155368305Y-85079686D01*
X155914436Y-85305900D01*
X156505564Y-85305900D01*
X157051695Y-85079686D01*
X157469686Y-84661695D01*
X157695900Y-84115564D01*
X157695900Y-83524436D01*
X157650570Y-83415000D01*
X157904678Y-83415000D01*
X158689380Y-83089966D01*
X158787554Y-82991792D01*
X158661100Y-83297079D01*
X158661100Y-84342921D01*
X159061326Y-85309152D01*
X159800848Y-86048674D01*
X160767079Y-86448900D01*
X161812921Y-86448900D01*
X162779152Y-86048674D01*
X163518674Y-85309152D01*
X163918900Y-84342921D01*
X163918900Y-83524436D01*
X164884100Y-83524436D01*
X164884100Y-84115564D01*
X165110314Y-84661695D01*
X165528305Y-85079686D01*
X166074436Y-85305900D01*
X166665564Y-85305900D01*
X167211695Y-85079686D01*
X167629686Y-84661695D01*
X167855900Y-84115564D01*
X167855900Y-83524436D01*
X167629686Y-82978305D01*
X167211695Y-82560314D01*
X166665564Y-82334100D01*
X166074436Y-82334100D01*
X165528305Y-82560314D01*
X165110314Y-82978305D01*
X164884100Y-83524436D01*
X163918900Y-83524436D01*
X163918900Y-83297079D01*
X163518674Y-82330848D01*
X162779152Y-81591326D01*
X161812921Y-81191100D01*
X160767079Y-81191100D01*
X159800848Y-81591326D01*
X159563738Y-81828436D01*
X159615000Y-81704678D01*
X159615000Y-80855322D01*
X159289966Y-80070620D01*
X158689380Y-79470034D01*
X157904678Y-79145000D01*
X157055322Y-79145000D01*
X156270620Y-79470034D01*
X155670034Y-80070620D01*
X155345000Y-80855322D01*
X155345000Y-81704678D01*
X155650926Y-82443249D01*
X155368305Y-82560314D01*
X154950314Y-82978305D01*
X154724100Y-83524436D01*
X148805900Y-83524436D01*
X148579686Y-82978305D01*
X148161695Y-82560314D01*
X147615564Y-82334100D01*
X147024436Y-82334100D01*
X146478305Y-82560314D01*
X146060314Y-82978305D01*
X145834100Y-83524436D01*
X144868900Y-83524436D01*
X144868900Y-83297079D01*
X144468674Y-82330848D01*
X143729152Y-81591326D01*
X142762921Y-81191100D01*
X141717079Y-81191100D01*
X140750848Y-81591326D01*
X140513738Y-81828436D01*
X140565000Y-81704678D01*
X140565000Y-80855322D01*
X140239966Y-80070620D01*
X139639380Y-79470034D01*
X138854678Y-79145000D01*
X138005322Y-79145000D01*
X137220620Y-79470034D01*
X136620034Y-80070620D01*
X136295000Y-80855322D01*
X136295000Y-81704678D01*
X136600926Y-82443249D01*
X136318305Y-82560314D01*
X135900314Y-82978305D01*
X135674100Y-83524436D01*
X129755900Y-83524436D01*
X129529686Y-82978305D01*
X129111695Y-82560314D01*
X128565564Y-82334100D01*
X127974436Y-82334100D01*
X127428305Y-82560314D01*
X127010314Y-82978305D01*
X126784100Y-83524436D01*
X125818900Y-83524436D01*
X125818900Y-83297079D01*
X125418674Y-82330848D01*
X124679152Y-81591326D01*
X123712921Y-81191100D01*
X122667079Y-81191100D01*
X121700848Y-81591326D01*
X121463738Y-81828436D01*
X121515000Y-81704678D01*
X121515000Y-80855322D01*
X121189966Y-80070620D01*
X120589380Y-79470034D01*
X119804678Y-79145000D01*
X118955322Y-79145000D01*
X118170620Y-79470034D01*
X117570034Y-80070620D01*
X117245000Y-80855322D01*
X117245000Y-81704678D01*
X117550926Y-82443249D01*
X117268305Y-82560314D01*
X116850314Y-82978305D01*
X116624100Y-83524436D01*
X110705900Y-83524436D01*
X110479686Y-82978305D01*
X110061695Y-82560314D01*
X109515564Y-82334100D01*
X108924436Y-82334100D01*
X108378305Y-82560314D01*
X107960314Y-82978305D01*
X107734100Y-83524436D01*
X106768900Y-83524436D01*
X106768900Y-83297079D01*
X106368674Y-82330848D01*
X105629152Y-81591326D01*
X104662921Y-81191100D01*
X103617079Y-81191100D01*
X102650848Y-81591326D01*
X102413738Y-81828436D01*
X102465000Y-81704678D01*
X102465000Y-80855322D01*
X102139966Y-80070620D01*
X101539380Y-79470034D01*
X100754678Y-79145000D01*
X99905322Y-79145000D01*
X99120620Y-79470034D01*
X98520034Y-80070620D01*
X98195000Y-80855322D01*
X98195000Y-81704678D01*
X98500926Y-82443249D01*
X98218305Y-82560314D01*
X97800314Y-82978305D01*
X97574100Y-83524436D01*
X91655900Y-83524436D01*
X91429686Y-82978305D01*
X91011695Y-82560314D01*
X90465564Y-82334100D01*
X89874436Y-82334100D01*
X89328305Y-82560314D01*
X88910314Y-82978305D01*
X88684100Y-83524436D01*
X87718900Y-83524436D01*
X87718900Y-83297079D01*
X87318674Y-82330848D01*
X86579152Y-81591326D01*
X85612921Y-81191100D01*
X84567079Y-81191100D01*
X83600848Y-81591326D01*
X83363738Y-81828436D01*
X83415000Y-81704678D01*
X83415000Y-80855322D01*
X83089966Y-80070620D01*
X82489380Y-79470034D01*
X81948514Y-79246000D01*
X85108151Y-79246000D01*
X85182998Y-79260888D01*
X85257845Y-79246000D01*
X85257850Y-79246000D01*
X85479535Y-79201904D01*
X85503725Y-79185741D01*
X85820034Y-79949380D01*
X86420620Y-80549966D01*
X87205322Y-80875000D01*
X88054678Y-80875000D01*
X88839380Y-80549966D01*
X89439966Y-79949380D01*
X89765000Y-79164678D01*
X89765000Y-78315322D01*
X104545000Y-78315322D01*
X104545000Y-79164678D01*
X104870034Y-79949380D01*
X105470620Y-80549966D01*
X106255322Y-80875000D01*
X107104678Y-80875000D01*
X107889380Y-80549966D01*
X108489966Y-79949380D01*
X108815000Y-79164678D01*
X108815000Y-78315322D01*
X123595000Y-78315322D01*
X123595000Y-79164678D01*
X123920034Y-79949380D01*
X124520620Y-80549966D01*
X125305322Y-80875000D01*
X126154678Y-80875000D01*
X126939380Y-80549966D01*
X127539966Y-79949380D01*
X127865000Y-79164678D01*
X127865000Y-78315322D01*
X142645000Y-78315322D01*
X142645000Y-79164678D01*
X142970034Y-79949380D01*
X143570620Y-80549966D01*
X144355322Y-80875000D01*
X145204678Y-80875000D01*
X145989380Y-80549966D01*
X146589966Y-79949380D01*
X146915000Y-79164678D01*
X146915000Y-78315322D01*
X161695000Y-78315322D01*
X161695000Y-79164678D01*
X162020034Y-79949380D01*
X162620620Y-80549966D01*
X163405322Y-80875000D01*
X164254678Y-80875000D01*
X164302184Y-80855322D01*
X173125000Y-80855322D01*
X173125000Y-81704678D01*
X173450034Y-82489380D01*
X174050620Y-83089966D01*
X174835322Y-83415000D01*
X175684678Y-83415000D01*
X176469380Y-83089966D01*
X177069966Y-82489380D01*
X177395000Y-81704678D01*
X177395000Y-80855322D01*
X177069966Y-80070620D01*
X176469380Y-79470034D01*
X175684678Y-79145000D01*
X174835322Y-79145000D01*
X174050620Y-79470034D01*
X173450034Y-80070620D01*
X173125000Y-80855322D01*
X164302184Y-80855322D01*
X165039380Y-80549966D01*
X165639966Y-79949380D01*
X165965000Y-79164678D01*
X165965000Y-78444436D01*
X178854100Y-78444436D01*
X178854100Y-79035564D01*
X179080314Y-79581695D01*
X179498305Y-79999686D01*
X180044436Y-80225900D01*
X180635564Y-80225900D01*
X181181695Y-79999686D01*
X181599686Y-79581695D01*
X181825900Y-79035564D01*
X181825900Y-78444436D01*
X181599686Y-77898305D01*
X181181695Y-77480314D01*
X180635564Y-77254100D01*
X180044436Y-77254100D01*
X179498305Y-77480314D01*
X179080314Y-77898305D01*
X178854100Y-78444436D01*
X165965000Y-78444436D01*
X165965000Y-78315322D01*
X165639966Y-77530620D01*
X165039380Y-76930034D01*
X164254678Y-76605000D01*
X163405322Y-76605000D01*
X162620620Y-76930034D01*
X162020034Y-77530620D01*
X161695000Y-78315322D01*
X146915000Y-78315322D01*
X146589966Y-77530620D01*
X145989380Y-76930034D01*
X145204678Y-76605000D01*
X144355322Y-76605000D01*
X143570620Y-76930034D01*
X142970034Y-77530620D01*
X142645000Y-78315322D01*
X127865000Y-78315322D01*
X127539966Y-77530620D01*
X126939380Y-76930034D01*
X126154678Y-76605000D01*
X125305322Y-76605000D01*
X124520620Y-76930034D01*
X123920034Y-77530620D01*
X123595000Y-78315322D01*
X108815000Y-78315322D01*
X108489966Y-77530620D01*
X107889380Y-76930034D01*
X107104678Y-76605000D01*
X106255322Y-76605000D01*
X105470620Y-76930034D01*
X104870034Y-77530620D01*
X104545000Y-78315322D01*
X89765000Y-78315322D01*
X89439966Y-77530620D01*
X89319356Y-77410010D01*
X95524809Y-77410010D01*
X95599656Y-77424898D01*
X95674503Y-77410010D01*
X95674508Y-77410010D01*
X95896193Y-77365914D01*
X96147585Y-77197939D01*
X96189987Y-77134480D01*
X104163185Y-69161282D01*
X104121000Y-69263126D01*
X104121000Y-69674874D01*
X104278569Y-70055280D01*
X104569720Y-70346431D01*
X104950126Y-70504000D01*
X105116199Y-70504000D01*
X109836000Y-75223802D01*
X109836000Y-75389874D01*
X109993569Y-75770280D01*
X110284720Y-76061431D01*
X110665126Y-76219000D01*
X111076874Y-76219000D01*
X111457280Y-76061431D01*
X111569500Y-75949211D01*
X111681720Y-76061431D01*
X112062126Y-76219000D01*
X112473874Y-76219000D01*
X112854280Y-76061431D01*
X113145431Y-75770280D01*
X113303000Y-75389874D01*
X113303000Y-74978126D01*
X113145431Y-74597720D01*
X112854280Y-74306569D01*
X112473874Y-74149000D01*
X112356802Y-74149000D01*
X108223000Y-70015199D01*
X108223000Y-69849126D01*
X108065431Y-69468720D01*
X107774280Y-69177569D01*
X107393874Y-69020000D01*
X106982126Y-69020000D01*
X106601720Y-69177569D01*
X106310569Y-69468720D01*
X106287124Y-69525322D01*
X106191000Y-69429199D01*
X106191000Y-69263126D01*
X106033431Y-68882720D01*
X105742280Y-68591569D01*
X105361874Y-68434000D01*
X104950126Y-68434000D01*
X104848283Y-68476185D01*
X107887811Y-65436657D01*
X107960314Y-65611695D01*
X108378305Y-66029686D01*
X108924436Y-66255900D01*
X109515564Y-66255900D01*
X110061695Y-66029686D01*
X110479686Y-65611695D01*
X110705900Y-65065564D01*
X110705900Y-64474436D01*
X116624100Y-64474436D01*
X116624100Y-65065564D01*
X116850314Y-65611695D01*
X117268305Y-66029686D01*
X117814436Y-66255900D01*
X118405564Y-66255900D01*
X118951695Y-66029686D01*
X119369686Y-65611695D01*
X119595900Y-65065564D01*
X119595900Y-64474436D01*
X119550570Y-64365000D01*
X119804678Y-64365000D01*
X120589380Y-64039966D01*
X120687554Y-63941792D01*
X120561100Y-64247079D01*
X120561100Y-65292921D01*
X120961326Y-66259152D01*
X121700848Y-66998674D01*
X122667079Y-67398900D01*
X123712921Y-67398900D01*
X124679152Y-66998674D01*
X125418674Y-66259152D01*
X125818900Y-65292921D01*
X125818900Y-64474436D01*
X126784100Y-64474436D01*
X126784100Y-65065564D01*
X127010314Y-65611695D01*
X127428305Y-66029686D01*
X127974436Y-66255900D01*
X128565564Y-66255900D01*
X129111695Y-66029686D01*
X129529686Y-65611695D01*
X129755900Y-65065564D01*
X129755900Y-64474436D01*
X135674100Y-64474436D01*
X135674100Y-65065564D01*
X135900314Y-65611695D01*
X136318305Y-66029686D01*
X136864436Y-66255900D01*
X137455564Y-66255900D01*
X138001695Y-66029686D01*
X138419686Y-65611695D01*
X138645900Y-65065564D01*
X138645900Y-64474436D01*
X138600570Y-64365000D01*
X138854678Y-64365000D01*
X139639380Y-64039966D01*
X139737554Y-63941792D01*
X139611100Y-64247079D01*
X139611100Y-65292921D01*
X140011326Y-66259152D01*
X140750848Y-66998674D01*
X141717079Y-67398900D01*
X142762921Y-67398900D01*
X143729152Y-66998674D01*
X144468674Y-66259152D01*
X144868900Y-65292921D01*
X144868900Y-64474436D01*
X145834100Y-64474436D01*
X145834100Y-65065564D01*
X146060314Y-65611695D01*
X146478305Y-66029686D01*
X147024436Y-66255900D01*
X147615564Y-66255900D01*
X148161695Y-66029686D01*
X148579686Y-65611695D01*
X148805900Y-65065564D01*
X148805900Y-64474436D01*
X148579686Y-63928305D01*
X148161695Y-63510314D01*
X147615564Y-63284100D01*
X147024436Y-63284100D01*
X146478305Y-63510314D01*
X146060314Y-63928305D01*
X145834100Y-64474436D01*
X144868900Y-64474436D01*
X144868900Y-64247079D01*
X144468674Y-63280848D01*
X143729152Y-62541326D01*
X142762921Y-62141100D01*
X141717079Y-62141100D01*
X140750848Y-62541326D01*
X140513738Y-62778436D01*
X140565000Y-62654678D01*
X140565000Y-61805322D01*
X140239966Y-61020620D01*
X139639380Y-60420034D01*
X138854678Y-60095000D01*
X138005322Y-60095000D01*
X137220620Y-60420034D01*
X136620034Y-61020620D01*
X136295000Y-61805322D01*
X136295000Y-62654678D01*
X136600926Y-63393249D01*
X136318305Y-63510314D01*
X135900314Y-63928305D01*
X135674100Y-64474436D01*
X129755900Y-64474436D01*
X129529686Y-63928305D01*
X129111695Y-63510314D01*
X128565564Y-63284100D01*
X127974436Y-63284100D01*
X127428305Y-63510314D01*
X127010314Y-63928305D01*
X126784100Y-64474436D01*
X125818900Y-64474436D01*
X125818900Y-64247079D01*
X125418674Y-63280848D01*
X124679152Y-62541326D01*
X123712921Y-62141100D01*
X122667079Y-62141100D01*
X121700848Y-62541326D01*
X121463738Y-62778436D01*
X121515000Y-62654678D01*
X121515000Y-61805322D01*
X121189966Y-61020620D01*
X120589380Y-60420034D01*
X119804678Y-60095000D01*
X118955322Y-60095000D01*
X118170620Y-60420034D01*
X117570034Y-61020620D01*
X117245000Y-61805322D01*
X117245000Y-62654678D01*
X117550926Y-63393249D01*
X117268305Y-63510314D01*
X116850314Y-63928305D01*
X116624100Y-64474436D01*
X110705900Y-64474436D01*
X110479686Y-63928305D01*
X110061695Y-63510314D01*
X109886657Y-63437811D01*
X114059146Y-59265322D01*
X123595000Y-59265322D01*
X123595000Y-60114678D01*
X123920034Y-60899380D01*
X124520620Y-61499966D01*
X125305322Y-61825000D01*
X126154678Y-61825000D01*
X126939380Y-61499966D01*
X127539966Y-60899380D01*
X127865000Y-60114678D01*
X127865000Y-59265322D01*
X142645000Y-59265322D01*
X142645000Y-60114678D01*
X142970034Y-60899380D01*
X143570620Y-61499966D01*
X144355322Y-61825000D01*
X145204678Y-61825000D01*
X145989380Y-61499966D01*
X146589966Y-60899380D01*
X146915000Y-60114678D01*
X146915000Y-59265322D01*
X146589966Y-58480620D01*
X145989380Y-57880034D01*
X145204678Y-57555000D01*
X144355322Y-57555000D01*
X143570620Y-57880034D01*
X142970034Y-58480620D01*
X142645000Y-59265322D01*
X127865000Y-59265322D01*
X127539966Y-58480620D01*
X126939380Y-57880034D01*
X126154678Y-57555000D01*
X125305322Y-57555000D01*
X124520620Y-57880034D01*
X123920034Y-58480620D01*
X123595000Y-59265322D01*
X114059146Y-59265322D01*
X118843468Y-54481000D01*
X124830325Y-54481000D01*
X124905172Y-54495888D01*
X124980019Y-54481000D01*
X124980024Y-54481000D01*
X125201709Y-54436904D01*
X125453101Y-54268929D01*
X125495503Y-54205470D01*
X128651000Y-51049974D01*
X131806498Y-54205472D01*
X131848899Y-54268929D01*
X131912355Y-54311329D01*
X132100290Y-54436904D01*
X132148433Y-54446480D01*
X132321976Y-54481000D01*
X132321980Y-54481000D01*
X132396828Y-54495888D01*
X132471676Y-54481000D01*
X148402199Y-54481000D01*
X151767001Y-57845803D01*
X151767000Y-72188153D01*
X151752112Y-72263000D01*
X151767000Y-72337847D01*
X151767000Y-72337851D01*
X151811096Y-72559536D01*
X151979071Y-72810929D01*
X152042530Y-72853331D01*
X152118536Y-72929337D01*
X152042881Y-72898000D01*
X151487119Y-72898000D01*
X150973663Y-73110680D01*
X150580680Y-73503663D01*
X150368000Y-74017119D01*
X150368000Y-74572881D01*
X150580680Y-75086337D01*
X150973663Y-75479320D01*
X151487119Y-75692000D01*
X152042881Y-75692000D01*
X152556337Y-75479320D01*
X152949320Y-75086337D01*
X153162000Y-74572881D01*
X153162000Y-74017119D01*
X153130663Y-73941465D01*
X153841671Y-74652473D01*
X153884071Y-74715929D01*
X153947527Y-74758329D01*
X154135462Y-74883904D01*
X154153355Y-74887463D01*
X154284922Y-74913633D01*
X154389873Y-75018584D01*
X154770279Y-75176153D01*
X155182027Y-75176153D01*
X155562433Y-75018584D01*
X155574787Y-75006230D01*
X155713569Y-75341280D01*
X156004720Y-75632431D01*
X156385126Y-75790000D01*
X156796874Y-75790000D01*
X157177280Y-75632431D01*
X157468431Y-75341280D01*
X157626000Y-74960874D01*
X157626000Y-74549126D01*
X157468431Y-74168720D01*
X157177280Y-73877569D01*
X156796874Y-73720000D01*
X156630801Y-73720000D01*
X156470553Y-73559751D01*
X156476042Y-73532154D01*
X156461154Y-73457307D01*
X156461154Y-73457303D01*
X156417058Y-73235617D01*
X156249083Y-72984225D01*
X156185627Y-72941825D01*
X154049000Y-70805199D01*
X154049000Y-57351846D01*
X154063888Y-57276999D01*
X154049000Y-57202152D01*
X154049000Y-57202148D01*
X154004904Y-56980463D01*
X153836929Y-56729071D01*
X153773473Y-56686671D01*
X149434331Y-52347530D01*
X149391929Y-52284071D01*
X149140537Y-52116096D01*
X148918852Y-52072000D01*
X148918847Y-52072000D01*
X148844000Y-52057112D01*
X148769153Y-52072000D01*
X143051966Y-52072000D01*
X143081695Y-52059686D01*
X143499686Y-51641695D01*
X143725900Y-51095564D01*
X143725900Y-50504436D01*
X143499686Y-49958305D01*
X143081695Y-49540314D01*
X142535564Y-49314100D01*
X141944436Y-49314100D01*
X141835000Y-49359430D01*
X141835000Y-49105322D01*
X141747053Y-48893000D01*
X145467153Y-48893000D01*
X145542000Y-48907888D01*
X145616847Y-48893000D01*
X145616852Y-48893000D01*
X145838537Y-48848904D01*
X146089929Y-48680929D01*
X146103913Y-48660000D01*
X146255874Y-48660000D01*
X146636280Y-48502431D01*
X146927431Y-48211280D01*
X147085000Y-47830874D01*
X147085000Y-47829801D01*
X158545002Y-59289804D01*
X158545002Y-60360231D01*
X157904678Y-60095000D01*
X157055322Y-60095000D01*
X156270620Y-60420034D01*
X155670034Y-61020620D01*
X155345000Y-61805322D01*
X155345000Y-62654678D01*
X155650926Y-63393249D01*
X155368305Y-63510314D01*
X154950314Y-63928305D01*
X154724100Y-64474436D01*
X154724100Y-65065564D01*
X154950314Y-65611695D01*
X155368305Y-66029686D01*
X155914436Y-66255900D01*
X156505564Y-66255900D01*
X157051695Y-66029686D01*
X157469686Y-65611695D01*
X157695900Y-65065564D01*
X157695900Y-64474436D01*
X157650570Y-64365000D01*
X157904678Y-64365000D01*
X158117001Y-64277053D01*
X158117000Y-72658155D01*
X158102112Y-72733002D01*
X158117000Y-72807849D01*
X158117000Y-72807853D01*
X158161096Y-73029538D01*
X158329071Y-73280931D01*
X158392530Y-73323333D01*
X159445345Y-74376149D01*
X159306720Y-74433569D01*
X159015569Y-74724720D01*
X158858000Y-75105126D01*
X158858000Y-75516874D01*
X159015569Y-75897280D01*
X159306720Y-76188431D01*
X159687126Y-76346000D01*
X160098874Y-76346000D01*
X160479280Y-76188431D01*
X160770431Y-75897280D01*
X160928000Y-75516874D01*
X160928000Y-75328618D01*
X161008903Y-75207538D01*
X161052999Y-74985853D01*
X161052999Y-74985849D01*
X161067887Y-74911002D01*
X161052999Y-74836155D01*
X161052999Y-74223848D01*
X161067887Y-74149001D01*
X161052999Y-74074154D01*
X161052999Y-74074149D01*
X161008903Y-73852464D01*
X160840928Y-73601072D01*
X160777472Y-73558672D01*
X159637000Y-72418201D01*
X159637000Y-66834826D01*
X159800848Y-66998674D01*
X160767079Y-67398900D01*
X161812921Y-67398900D01*
X162779152Y-66998674D01*
X163518674Y-66259152D01*
X163918900Y-65292921D01*
X163918900Y-64247079D01*
X163518674Y-63280848D01*
X162779152Y-62541326D01*
X161812921Y-62141100D01*
X160767079Y-62141100D01*
X160065001Y-62431910D01*
X160065001Y-59265322D01*
X161695000Y-59265322D01*
X161695000Y-60114678D01*
X162020034Y-60899380D01*
X162620620Y-61499966D01*
X163405322Y-61825000D01*
X164254678Y-61825000D01*
X165039380Y-61499966D01*
X165639966Y-60899380D01*
X165965000Y-60114678D01*
X165965000Y-59265322D01*
X165639966Y-58480620D01*
X165039380Y-57880034D01*
X164254678Y-57555000D01*
X163405322Y-57555000D01*
X162620620Y-57880034D01*
X162020034Y-58480620D01*
X161695000Y-59265322D01*
X160065001Y-59265322D01*
X160065001Y-59049849D01*
X160079889Y-58975001D01*
X160065001Y-58900153D01*
X160065001Y-58900149D01*
X160020905Y-58678464D01*
X160020905Y-58678463D01*
X159895330Y-58490528D01*
X159852930Y-58427072D01*
X159789474Y-58384672D01*
X146489801Y-45085000D01*
X146724802Y-44850000D01*
X146890874Y-44850000D01*
X147271280Y-44692431D01*
X147562431Y-44401280D01*
X147720000Y-44020874D01*
X147720000Y-43609126D01*
X147562431Y-43228720D01*
X147271280Y-42937569D01*
X146931916Y-42797000D01*
X154075000Y-42797000D01*
X154075000Y-43604678D01*
X154400034Y-44389380D01*
X155000620Y-44989966D01*
X155785322Y-45315000D01*
X156556199Y-45315000D01*
X156276199Y-45595000D01*
X150700657Y-45595000D01*
X151044320Y-45251337D01*
X151257000Y-44737881D01*
X151257000Y-44182119D01*
X151044320Y-43668663D01*
X150651337Y-43275680D01*
X150137881Y-43063000D01*
X149582119Y-43063000D01*
X149068663Y-43275680D01*
X148675680Y-43668663D01*
X148463000Y-44182119D01*
X148463000Y-44737881D01*
X148675680Y-45251337D01*
X149068663Y-45644320D01*
X149095749Y-45655540D01*
X148982569Y-45768720D01*
X148825000Y-46149126D01*
X148825000Y-46560874D01*
X148982569Y-46941280D01*
X149273720Y-47232431D01*
X149654126Y-47390000D01*
X150065874Y-47390000D01*
X150446280Y-47232431D01*
X150563711Y-47115000D01*
X156516153Y-47115000D01*
X156591000Y-47129888D01*
X156665847Y-47115000D01*
X156665852Y-47115000D01*
X156887537Y-47070904D01*
X157138929Y-46902929D01*
X157181331Y-46839470D01*
X158661100Y-45359701D01*
X158661100Y-46242921D01*
X159061326Y-47209152D01*
X159298436Y-47446262D01*
X159174678Y-47395000D01*
X158325322Y-47395000D01*
X157540620Y-47720034D01*
X156940034Y-48320620D01*
X156615000Y-49105322D01*
X156615000Y-49954678D01*
X156940034Y-50739380D01*
X157540620Y-51339966D01*
X158325322Y-51665000D01*
X159174678Y-51665000D01*
X159913249Y-51359074D01*
X160030314Y-51641695D01*
X160448305Y-52059686D01*
X160994436Y-52285900D01*
X161585564Y-52285900D01*
X162131695Y-52059686D01*
X162549686Y-51641695D01*
X162775900Y-51095564D01*
X162775900Y-50504436D01*
X162549686Y-49958305D01*
X162131695Y-49540314D01*
X161585564Y-49314100D01*
X160994436Y-49314100D01*
X160885000Y-49359430D01*
X160885000Y-49105322D01*
X160559966Y-48320620D01*
X160461792Y-48222446D01*
X160767079Y-48348900D01*
X161812921Y-48348900D01*
X162779152Y-47948674D01*
X163070000Y-47657826D01*
X163070000Y-48058153D01*
X163055112Y-48133000D01*
X163070000Y-48207847D01*
X163070000Y-48207851D01*
X163114096Y-48429536D01*
X163282071Y-48680929D01*
X163345530Y-48723331D01*
X166785902Y-52163704D01*
X166785901Y-63333945D01*
X166665564Y-63284100D01*
X166074436Y-63284100D01*
X165528305Y-63510314D01*
X165110314Y-63928305D01*
X164884100Y-64474436D01*
X164884100Y-65065564D01*
X165110314Y-65611695D01*
X165528305Y-66029686D01*
X166074436Y-66255900D01*
X166665564Y-66255900D01*
X166785901Y-66206055D01*
X166785901Y-70518297D01*
X165568199Y-71736000D01*
X165402126Y-71736000D01*
X165021720Y-71893569D01*
X164730569Y-72184720D01*
X164573000Y-72565126D01*
X164573000Y-72976874D01*
X164730569Y-73357280D01*
X165021720Y-73648431D01*
X165208000Y-73725591D01*
X165208000Y-73865874D01*
X165365569Y-74246280D01*
X165656720Y-74537431D01*
X165970000Y-74667196D01*
X165970000Y-74881874D01*
X166127569Y-75262280D01*
X166418720Y-75553431D01*
X166799126Y-75711000D01*
X167210874Y-75711000D01*
X167591280Y-75553431D01*
X167882431Y-75262280D01*
X168040000Y-74881874D01*
X168040000Y-74715801D01*
X170008329Y-72747474D01*
X170008333Y-72747468D01*
X170643329Y-72112473D01*
X170643331Y-72112470D01*
X170664470Y-72091331D01*
X170727929Y-72048929D01*
X170895904Y-71797537D01*
X170940000Y-71575852D01*
X170940000Y-71575848D01*
X170954888Y-71501001D01*
X170940000Y-71426154D01*
X170940000Y-68155322D01*
X175665000Y-68155322D01*
X175665000Y-69004678D01*
X175990034Y-69789380D01*
X176590620Y-70389966D01*
X177375322Y-70715000D01*
X178224678Y-70715000D01*
X178963249Y-70409074D01*
X179080314Y-70691695D01*
X179498305Y-71109686D01*
X180044436Y-71335900D01*
X180635564Y-71335900D01*
X181181695Y-71109686D01*
X181599686Y-70691695D01*
X181825900Y-70145564D01*
X181825900Y-69554436D01*
X181599686Y-69008305D01*
X181181695Y-68590314D01*
X180635564Y-68364100D01*
X180044436Y-68364100D01*
X179935000Y-68409430D01*
X179935000Y-68155322D01*
X179609966Y-67370620D01*
X179511792Y-67272446D01*
X179817079Y-67398900D01*
X180862921Y-67398900D01*
X181829152Y-66998674D01*
X182568674Y-66259152D01*
X182968900Y-65292921D01*
X182968900Y-64247079D01*
X182568674Y-63280848D01*
X181829152Y-62541326D01*
X180862921Y-62141100D01*
X179817079Y-62141100D01*
X178850848Y-62541326D01*
X178111326Y-63280848D01*
X177711100Y-64247079D01*
X177711100Y-65292921D01*
X178111326Y-66259152D01*
X178348436Y-66496262D01*
X178224678Y-66445000D01*
X177375322Y-66445000D01*
X176590620Y-66770034D01*
X175990034Y-67370620D01*
X175665000Y-68155322D01*
X170940000Y-68155322D01*
X170940000Y-61805322D01*
X173125000Y-61805322D01*
X173125000Y-62654678D01*
X173450034Y-63439380D01*
X174050620Y-64039966D01*
X174835322Y-64365000D01*
X175684678Y-64365000D01*
X176469380Y-64039966D01*
X177069966Y-63439380D01*
X177395000Y-62654678D01*
X177395000Y-61805322D01*
X177069966Y-61020620D01*
X176469380Y-60420034D01*
X175684678Y-60095000D01*
X174835322Y-60095000D01*
X174050620Y-60420034D01*
X173450034Y-61020620D01*
X173125000Y-61805322D01*
X170940000Y-61805322D01*
X170940000Y-59394436D01*
X178854100Y-59394436D01*
X178854100Y-59985564D01*
X179080314Y-60531695D01*
X179498305Y-60949686D01*
X180044436Y-61175900D01*
X180635564Y-61175900D01*
X181181695Y-60949686D01*
X181599686Y-60531695D01*
X181825900Y-59985564D01*
X181825900Y-59394436D01*
X181599686Y-58848305D01*
X181181695Y-58430314D01*
X180635564Y-58204100D01*
X180044436Y-58204100D01*
X179498305Y-58430314D01*
X179080314Y-58848305D01*
X178854100Y-59394436D01*
X170940000Y-59394436D01*
X170940000Y-54967119D01*
X188214000Y-54967119D01*
X188214000Y-55522881D01*
X188426680Y-56036337D01*
X188819663Y-56429320D01*
X189333119Y-56642000D01*
X189888881Y-56642000D01*
X190402337Y-56429320D01*
X190795320Y-56036337D01*
X191008000Y-55522881D01*
X191008000Y-54967119D01*
X190795320Y-54453663D01*
X190402337Y-54060680D01*
X189888881Y-53848000D01*
X189333119Y-53848000D01*
X188819663Y-54060680D01*
X188426680Y-54453663D01*
X188214000Y-54967119D01*
X170940000Y-54967119D01*
X170940000Y-49105322D01*
X175665000Y-49105322D01*
X175665000Y-49954678D01*
X175990034Y-50739380D01*
X176590620Y-51339966D01*
X177375322Y-51665000D01*
X178224678Y-51665000D01*
X178963249Y-51359074D01*
X179080314Y-51641695D01*
X179498305Y-52059686D01*
X180044436Y-52285900D01*
X180635564Y-52285900D01*
X181181695Y-52059686D01*
X181599686Y-51641695D01*
X181825900Y-51095564D01*
X181825900Y-50504436D01*
X181599686Y-49958305D01*
X181181695Y-49540314D01*
X180635564Y-49314100D01*
X180044436Y-49314100D01*
X179935000Y-49359430D01*
X179935000Y-49105322D01*
X179609966Y-48320620D01*
X179511792Y-48222446D01*
X179817079Y-48348900D01*
X180862921Y-48348900D01*
X181829152Y-47948674D01*
X182568674Y-47209152D01*
X182968900Y-46242921D01*
X182968900Y-45197079D01*
X182568674Y-44230848D01*
X181829152Y-43491326D01*
X180862921Y-43091100D01*
X179817079Y-43091100D01*
X178850848Y-43491326D01*
X178111326Y-44230848D01*
X177711100Y-45197079D01*
X177711100Y-46242921D01*
X178111326Y-47209152D01*
X178348436Y-47446262D01*
X178224678Y-47395000D01*
X177375322Y-47395000D01*
X176590620Y-47720034D01*
X175990034Y-48320620D01*
X175665000Y-49105322D01*
X170940000Y-49105322D01*
X170940000Y-47566711D01*
X171057431Y-47449280D01*
X171215000Y-47068874D01*
X171215000Y-46657126D01*
X171057431Y-46276720D01*
X170766280Y-45985569D01*
X170385874Y-45828000D01*
X169974126Y-45828000D01*
X169593720Y-45985569D01*
X169302569Y-46276720D01*
X169145000Y-46657126D01*
X169145000Y-46994944D01*
X169076929Y-46893069D01*
X169013473Y-46850669D01*
X168400000Y-46237197D01*
X168400000Y-45760853D01*
X168632119Y-45857000D01*
X169187881Y-45857000D01*
X169701337Y-45644320D01*
X170094320Y-45251337D01*
X170307000Y-44737881D01*
X170307000Y-44182119D01*
X170094320Y-43668663D01*
X169701337Y-43275680D01*
X169187881Y-43063000D01*
X168632119Y-43063000D01*
X168400000Y-43159147D01*
X168400000Y-42755322D01*
X173125000Y-42755322D01*
X173125000Y-43604678D01*
X173450034Y-44389380D01*
X174050620Y-44989966D01*
X174835322Y-45315000D01*
X175684678Y-45315000D01*
X176469380Y-44989966D01*
X177069966Y-44389380D01*
X177395000Y-43604678D01*
X177395000Y-42755322D01*
X177069966Y-41970620D01*
X176469380Y-41370034D01*
X175684678Y-41045000D01*
X174835322Y-41045000D01*
X174050620Y-41370034D01*
X173450034Y-41970620D01*
X173125000Y-42755322D01*
X168400000Y-42755322D01*
X168400000Y-41343711D01*
X168517431Y-41226280D01*
X168675000Y-40845874D01*
X168675000Y-40434126D01*
X168637850Y-40344436D01*
X178854100Y-40344436D01*
X178854100Y-40935564D01*
X179080314Y-41481695D01*
X179498305Y-41899686D01*
X180044436Y-42125900D01*
X180635564Y-42125900D01*
X181181695Y-41899686D01*
X181599686Y-41481695D01*
X181825900Y-40935564D01*
X181825900Y-40344436D01*
X181599686Y-39798305D01*
X181181695Y-39380314D01*
X180635564Y-39154100D01*
X180044436Y-39154100D01*
X179498305Y-39380314D01*
X179080314Y-39798305D01*
X178854100Y-40344436D01*
X168637850Y-40344436D01*
X168517431Y-40053720D01*
X168226280Y-39762569D01*
X167845874Y-39605000D01*
X167434126Y-39605000D01*
X167053720Y-39762569D01*
X166762569Y-40053720D01*
X166605000Y-40434126D01*
X166605000Y-40845874D01*
X166762569Y-41226280D01*
X166880001Y-41343712D01*
X166880000Y-46477151D01*
X166865112Y-46551998D01*
X166880000Y-46626845D01*
X166880000Y-46626849D01*
X166924096Y-46848534D01*
X167092071Y-47099927D01*
X167155530Y-47142329D01*
X167769000Y-47755800D01*
X167769000Y-47953851D01*
X167769001Y-47953856D01*
X167769001Y-50997199D01*
X164590000Y-47818199D01*
X164590000Y-45359027D01*
X164894126Y-45485000D01*
X165305874Y-45485000D01*
X165686280Y-45327431D01*
X165977431Y-45036280D01*
X166135000Y-44655874D01*
X166135000Y-44244126D01*
X165977431Y-43863720D01*
X165686280Y-43572569D01*
X165305874Y-43415000D01*
X164894126Y-43415000D01*
X164513720Y-43572569D01*
X164396289Y-43690000D01*
X164144802Y-43690000D01*
X163399801Y-42945000D01*
X163400874Y-42945000D01*
X163781280Y-42787431D01*
X164072431Y-42496280D01*
X164230000Y-42115874D01*
X164230000Y-41704126D01*
X164072431Y-41323720D01*
X163781280Y-41032569D01*
X163400874Y-40875000D01*
X162989126Y-40875000D01*
X162762022Y-40969070D01*
X162775900Y-40935564D01*
X162775900Y-40344436D01*
X162549686Y-39798305D01*
X162131695Y-39380314D01*
X161676137Y-39191616D01*
X161676137Y-39136400D01*
X161518568Y-38755994D01*
X161227417Y-38464843D01*
X160847011Y-38307274D01*
X160435263Y-38307274D01*
X160317628Y-38356000D01*
X150939657Y-38356000D01*
X151044320Y-38251337D01*
X151257000Y-37737881D01*
X151257000Y-37182119D01*
X167513000Y-37182119D01*
X167513000Y-37737881D01*
X167725680Y-38251337D01*
X168118663Y-38644320D01*
X168632119Y-38857000D01*
X169187881Y-38857000D01*
X169701337Y-38644320D01*
X170094320Y-38251337D01*
X170307000Y-37737881D01*
X170307000Y-37182119D01*
X170094320Y-36668663D01*
X169701337Y-36275680D01*
X169448904Y-36171119D01*
X188214000Y-36171119D01*
X188214000Y-36726881D01*
X188426680Y-37240337D01*
X188819663Y-37633320D01*
X189333119Y-37846000D01*
X189888881Y-37846000D01*
X190402337Y-37633320D01*
X190795320Y-37240337D01*
X191008000Y-36726881D01*
X191008000Y-36171119D01*
X190795320Y-35657663D01*
X190402337Y-35264680D01*
X189888881Y-35052000D01*
X189333119Y-35052000D01*
X188819663Y-35264680D01*
X188426680Y-35657663D01*
X188214000Y-36171119D01*
X169448904Y-36171119D01*
X169187881Y-36063000D01*
X168632119Y-36063000D01*
X168118663Y-36275680D01*
X167725680Y-36668663D01*
X167513000Y-37182119D01*
X151257000Y-37182119D01*
X151044320Y-36668663D01*
X150651337Y-36275680D01*
X150137881Y-36063000D01*
X149582119Y-36063000D01*
X149068663Y-36275680D01*
X148675680Y-36668663D01*
X148463000Y-37182119D01*
X148463000Y-37737881D01*
X148675680Y-38251337D01*
X148780343Y-38356000D01*
X93789657Y-38356000D01*
X93894320Y-38251337D01*
X94107000Y-37737881D01*
X94107000Y-37182119D01*
X93894320Y-36668663D01*
X93501337Y-36275680D01*
X93248904Y-36171119D01*
X102743000Y-36171119D01*
X102743000Y-36726881D01*
X102955680Y-37240337D01*
X103348663Y-37633320D01*
X103862119Y-37846000D01*
X104417881Y-37846000D01*
X104931337Y-37633320D01*
X105324320Y-37240337D01*
X105537000Y-36726881D01*
X105537000Y-36171119D01*
X140843000Y-36171119D01*
X140843000Y-36726881D01*
X141055680Y-37240337D01*
X141448663Y-37633320D01*
X141962119Y-37846000D01*
X142517881Y-37846000D01*
X143031337Y-37633320D01*
X143424320Y-37240337D01*
X143637000Y-36726881D01*
X143637000Y-36171119D01*
X143424320Y-35657663D01*
X143031337Y-35264680D01*
X142517881Y-35052000D01*
X141962119Y-35052000D01*
X141448663Y-35264680D01*
X141055680Y-35657663D01*
X140843000Y-36171119D01*
X105537000Y-36171119D01*
X105324320Y-35657663D01*
X104931337Y-35264680D01*
X104417881Y-35052000D01*
X103862119Y-35052000D01*
X103348663Y-35264680D01*
X102955680Y-35657663D01*
X102743000Y-36171119D01*
X93248904Y-36171119D01*
X92987881Y-36063000D01*
X92432119Y-36063000D01*
X91918663Y-36275680D01*
X91525680Y-36668663D01*
X91313000Y-37182119D01*
X91313000Y-37737881D01*
X91525680Y-38251337D01*
X91630343Y-38356000D01*
X74739657Y-38356000D01*
X74844320Y-38251337D01*
X75057000Y-37737881D01*
X75057000Y-37182119D01*
X74844320Y-36668663D01*
X74451337Y-36275680D01*
X73937881Y-36063000D01*
X73382119Y-36063000D01*
X72868663Y-36275680D01*
X72475680Y-36668663D01*
X72263000Y-37182119D01*
X72263000Y-37737881D01*
X72475680Y-38251337D01*
X72868663Y-38644320D01*
X72906356Y-38659933D01*
X72782569Y-38783720D01*
X72625000Y-39164126D01*
X72625000Y-39575874D01*
X72782569Y-39956280D01*
X73073720Y-40247431D01*
X73454126Y-40405000D01*
X73865874Y-40405000D01*
X74246280Y-40247431D01*
X74537431Y-39956280D01*
X74570684Y-39876000D01*
X83798132Y-39876000D01*
X83604100Y-40344436D01*
X83604100Y-40594999D01*
X74289847Y-40594999D01*
X74215000Y-40580111D01*
X74140153Y-40594999D01*
X74140149Y-40594999D01*
X73918464Y-40639095D01*
X73667072Y-40807070D01*
X73624672Y-40870526D01*
X73366198Y-41129000D01*
X73200126Y-41129000D01*
X72819720Y-41286569D01*
X72528569Y-41577720D01*
X72371000Y-41958126D01*
X72371000Y-42124198D01*
X71651530Y-42843669D01*
X71588071Y-42886071D01*
X71420096Y-43137464D01*
X71376000Y-43359149D01*
X71376000Y-43359153D01*
X71361112Y-43434000D01*
X67390755Y-43434000D01*
X66562921Y-43091100D01*
X65517079Y-43091100D01*
X64550848Y-43491326D01*
X63811326Y-44230848D01*
X63411100Y-45197079D01*
X63411100Y-46242921D01*
X63811326Y-47209152D01*
X64048436Y-47446262D01*
X63924678Y-47395000D01*
X63075322Y-47395000D01*
X62290620Y-47720034D01*
X61690034Y-48320620D01*
X61365000Y-49105322D01*
X55320000Y-49105322D01*
X55320000Y-42755322D01*
X58825000Y-42755322D01*
X58825000Y-43604678D01*
X59150034Y-44389380D01*
X59750620Y-44989966D01*
X60535322Y-45315000D01*
X61384678Y-45315000D01*
X62169380Y-44989966D01*
X62769966Y-44389380D01*
X63095000Y-43604678D01*
X63095000Y-42755322D01*
X62769966Y-41970620D01*
X62169380Y-41370034D01*
X61384678Y-41045000D01*
X60535322Y-41045000D01*
X59750620Y-41370034D01*
X59150034Y-41970620D01*
X58825000Y-42755322D01*
X55320000Y-42755322D01*
X55320000Y-40344436D01*
X64554100Y-40344436D01*
X64554100Y-40935564D01*
X64780314Y-41481695D01*
X65198305Y-41899686D01*
X65744436Y-42125900D01*
X66335564Y-42125900D01*
X66881695Y-41899686D01*
X67299686Y-41481695D01*
X67525900Y-40935564D01*
X67525900Y-40344436D01*
X67299686Y-39798305D01*
X66881695Y-39380314D01*
X66335564Y-39154100D01*
X65744436Y-39154100D01*
X65198305Y-39380314D01*
X64780314Y-39798305D01*
X64554100Y-40344436D01*
X55320000Y-40344436D01*
X55320000Y-36245580D01*
X55330663Y-36171119D01*
X55372000Y-36171119D01*
X55372000Y-36726881D01*
X55584680Y-37240337D01*
X55977663Y-37633320D01*
X56491119Y-37846000D01*
X57046881Y-37846000D01*
X57560337Y-37633320D01*
X57953320Y-37240337D01*
X58166000Y-36726881D01*
X58166000Y-36171119D01*
X57953320Y-35657663D01*
X57560337Y-35264680D01*
X57046881Y-35052000D01*
X56491119Y-35052000D01*
X55977663Y-35264680D01*
X55584680Y-35657663D01*
X55372000Y-36171119D01*
X55330663Y-36171119D01*
X55374985Y-35861636D01*
X55514372Y-35555072D01*
X55734199Y-35299950D01*
X56016792Y-35116782D01*
X56362959Y-35013257D01*
X56541350Y-35000000D01*
X189814420Y-35000000D01*
X190198364Y-35054985D01*
X190198364Y-35054985D01*
G37*
X190198364Y-35054985D02*
X190504928Y-35194372D01*
X190760050Y-35414199D01*
X190943218Y-35696792D01*
X191046743Y-36042959D01*
X191060000Y-36221350D01*
X191060001Y-112344413D01*
X191005015Y-112728364D01*
X190865628Y-113034928D01*
X190645804Y-113290047D01*
X190363207Y-113473218D01*
X190017043Y-113576743D01*
X189838649Y-113590000D01*
X56565580Y-113590000D01*
X56181636Y-113535015D01*
X55875072Y-113395628D01*
X55619953Y-113175804D01*
X55436782Y-112893207D01*
X55333257Y-112547043D01*
X55320000Y-112368649D01*
X55320000Y-111863119D01*
X55372000Y-111863119D01*
X55372000Y-112418881D01*
X55584680Y-112932337D01*
X55977663Y-113325320D01*
X56491119Y-113538000D01*
X57046881Y-113538000D01*
X57560337Y-113325320D01*
X57953320Y-112932337D01*
X58166000Y-112418881D01*
X58166000Y-111863119D01*
X102743000Y-111863119D01*
X102743000Y-112418881D01*
X102955680Y-112932337D01*
X103348663Y-113325320D01*
X103862119Y-113538000D01*
X104417881Y-113538000D01*
X104931337Y-113325320D01*
X105324320Y-112932337D01*
X105537000Y-112418881D01*
X105537000Y-111863119D01*
X140843000Y-111863119D01*
X140843000Y-112418881D01*
X141055680Y-112932337D01*
X141448663Y-113325320D01*
X141962119Y-113538000D01*
X142517881Y-113538000D01*
X143031337Y-113325320D01*
X143424320Y-112932337D01*
X143637000Y-112418881D01*
X143637000Y-111863119D01*
X188214000Y-111863119D01*
X188214000Y-112418881D01*
X188426680Y-112932337D01*
X188819663Y-113325320D01*
X189333119Y-113538000D01*
X189888881Y-113538000D01*
X190402337Y-113325320D01*
X190795320Y-112932337D01*
X191008000Y-112418881D01*
X191008000Y-111863119D01*
X190795320Y-111349663D01*
X190402337Y-110956680D01*
X189888881Y-110744000D01*
X189333119Y-110744000D01*
X188819663Y-110956680D01*
X188426680Y-111349663D01*
X188214000Y-111863119D01*
X143637000Y-111863119D01*
X143424320Y-111349663D01*
X143031337Y-110956680D01*
X142517881Y-110744000D01*
X141962119Y-110744000D01*
X141448663Y-110956680D01*
X141055680Y-111349663D01*
X140843000Y-111863119D01*
X105537000Y-111863119D01*
X105324320Y-111349663D01*
X104931337Y-110956680D01*
X104417881Y-110744000D01*
X103862119Y-110744000D01*
X103348663Y-110956680D01*
X102955680Y-111349663D01*
X102743000Y-111863119D01*
X58166000Y-111863119D01*
X57953320Y-111349663D01*
X57560337Y-110956680D01*
X57046881Y-110744000D01*
X56491119Y-110744000D01*
X55977663Y-110956680D01*
X55584680Y-111349663D01*
X55372000Y-111863119D01*
X55320000Y-111863119D01*
X55320000Y-107654436D01*
X64554100Y-107654436D01*
X64554100Y-108245564D01*
X64780314Y-108791695D01*
X65198305Y-109209686D01*
X65744436Y-109435900D01*
X66335564Y-109435900D01*
X66881695Y-109209686D01*
X67299686Y-108791695D01*
X67525900Y-108245564D01*
X67525900Y-107654436D01*
X178854100Y-107654436D01*
X178854100Y-108245564D01*
X179080314Y-108791695D01*
X179498305Y-109209686D01*
X180044436Y-109435900D01*
X180635564Y-109435900D01*
X181181695Y-109209686D01*
X181599686Y-108791695D01*
X181825900Y-108245564D01*
X181825900Y-107654436D01*
X181599686Y-107108305D01*
X181181695Y-106690314D01*
X180635564Y-106464100D01*
X180044436Y-106464100D01*
X179498305Y-106690314D01*
X179080314Y-107108305D01*
X178854100Y-107654436D01*
X67525900Y-107654436D01*
X67299686Y-107108305D01*
X66881695Y-106690314D01*
X66335564Y-106464100D01*
X65744436Y-106464100D01*
X65198305Y-106690314D01*
X64780314Y-107108305D01*
X64554100Y-107654436D01*
X55320000Y-107654436D01*
X55320000Y-102347079D01*
X63411100Y-102347079D01*
X63411100Y-103392921D01*
X63811326Y-104359152D01*
X64550848Y-105098674D01*
X65517079Y-105498900D01*
X66562921Y-105498900D01*
X67529152Y-105098674D01*
X67642504Y-104985322D01*
X68985000Y-104985322D01*
X68985000Y-105834678D01*
X69310034Y-106619380D01*
X69910620Y-107219966D01*
X70695322Y-107545000D01*
X71544678Y-107545000D01*
X72329380Y-107219966D01*
X72929966Y-106619380D01*
X73255000Y-105834678D01*
X73255000Y-104985322D01*
X72929966Y-104200620D01*
X72329380Y-103600034D01*
X71544678Y-103275000D01*
X70695322Y-103275000D01*
X69910620Y-103600034D01*
X69310034Y-104200620D01*
X68985000Y-104985322D01*
X67642504Y-104985322D01*
X68268674Y-104359152D01*
X68668900Y-103392921D01*
X68668900Y-102574436D01*
X78524100Y-102574436D01*
X78524100Y-103165564D01*
X78750314Y-103711695D01*
X79168305Y-104129686D01*
X79714436Y-104355900D01*
X80305564Y-104355900D01*
X80851695Y-104129686D01*
X81269686Y-103711695D01*
X81495900Y-103165564D01*
X81495900Y-102574436D01*
X81450570Y-102465000D01*
X81704678Y-102465000D01*
X82489380Y-102139966D01*
X82587554Y-102041792D01*
X82461100Y-102347079D01*
X82461100Y-103392921D01*
X82861326Y-104359152D01*
X83600848Y-105098674D01*
X84567079Y-105498900D01*
X85612921Y-105498900D01*
X86579152Y-105098674D01*
X87318674Y-104359152D01*
X87718900Y-103392921D01*
X87718900Y-102574436D01*
X88684100Y-102574436D01*
X88684100Y-103165564D01*
X88910314Y-103711695D01*
X89328305Y-104129686D01*
X89874436Y-104355900D01*
X90465564Y-104355900D01*
X91011695Y-104129686D01*
X91429686Y-103711695D01*
X91655900Y-103165564D01*
X91655900Y-102574436D01*
X97574100Y-102574436D01*
X97574100Y-103165564D01*
X97800314Y-103711695D01*
X98218305Y-104129686D01*
X98764436Y-104355900D01*
X99355564Y-104355900D01*
X99901695Y-104129686D01*
X100319686Y-103711695D01*
X100545900Y-103165564D01*
X100545900Y-102574436D01*
X100500570Y-102465000D01*
X100754678Y-102465000D01*
X101539380Y-102139966D01*
X101637554Y-102041792D01*
X101511100Y-102347079D01*
X101511100Y-103392921D01*
X101911326Y-104359152D01*
X102650848Y-105098674D01*
X103617079Y-105498900D01*
X104662921Y-105498900D01*
X105629152Y-105098674D01*
X106368674Y-104359152D01*
X106768900Y-103392921D01*
X106768900Y-102574436D01*
X107734100Y-102574436D01*
X107734100Y-103165564D01*
X107960314Y-103711695D01*
X108378305Y-104129686D01*
X108924436Y-104355900D01*
X109515564Y-104355900D01*
X110061695Y-104129686D01*
X110479686Y-103711695D01*
X110705900Y-103165564D01*
X110705900Y-102574436D01*
X116624100Y-102574436D01*
X116624100Y-103165564D01*
X116850314Y-103711695D01*
X117268305Y-104129686D01*
X117814436Y-104355900D01*
X118405564Y-104355900D01*
X118951695Y-104129686D01*
X119369686Y-103711695D01*
X119595900Y-103165564D01*
X119595900Y-102574436D01*
X119550570Y-102465000D01*
X119804678Y-102465000D01*
X120589380Y-102139966D01*
X120687554Y-102041792D01*
X120561100Y-102347079D01*
X120561100Y-103392921D01*
X120961326Y-104359152D01*
X121700848Y-105098674D01*
X122667079Y-105498900D01*
X123712921Y-105498900D01*
X124679152Y-105098674D01*
X125418674Y-104359152D01*
X125818900Y-103392921D01*
X125818900Y-102574436D01*
X126784100Y-102574436D01*
X126784100Y-103165564D01*
X127010314Y-103711695D01*
X127428305Y-104129686D01*
X127974436Y-104355900D01*
X128565564Y-104355900D01*
X129111695Y-104129686D01*
X129529686Y-103711695D01*
X129755900Y-103165564D01*
X129755900Y-102574436D01*
X135674100Y-102574436D01*
X135674100Y-103165564D01*
X135900314Y-103711695D01*
X136318305Y-104129686D01*
X136864436Y-104355900D01*
X137455564Y-104355900D01*
X138001695Y-104129686D01*
X138419686Y-103711695D01*
X138645900Y-103165564D01*
X138645900Y-102574436D01*
X138600570Y-102465000D01*
X138854678Y-102465000D01*
X139639380Y-102139966D01*
X139737554Y-102041792D01*
X139611100Y-102347079D01*
X139611100Y-103392921D01*
X140011326Y-104359152D01*
X140750848Y-105098674D01*
X141717079Y-105498900D01*
X142762921Y-105498900D01*
X143729152Y-105098674D01*
X144468674Y-104359152D01*
X144868900Y-103392921D01*
X144868900Y-102574436D01*
X145834100Y-102574436D01*
X145834100Y-103165564D01*
X146060314Y-103711695D01*
X146478305Y-104129686D01*
X147024436Y-104355900D01*
X147615564Y-104355900D01*
X148161695Y-104129686D01*
X148579686Y-103711695D01*
X148805900Y-103165564D01*
X148805900Y-102574436D01*
X154724100Y-102574436D01*
X154724100Y-103165564D01*
X154950314Y-103711695D01*
X155368305Y-104129686D01*
X155914436Y-104355900D01*
X156505564Y-104355900D01*
X157051695Y-104129686D01*
X157469686Y-103711695D01*
X157695900Y-103165564D01*
X157695900Y-102574436D01*
X157650570Y-102465000D01*
X157904678Y-102465000D01*
X158689380Y-102139966D01*
X158787554Y-102041792D01*
X158661100Y-102347079D01*
X158661100Y-103392921D01*
X159061326Y-104359152D01*
X159800848Y-105098674D01*
X160767079Y-105498900D01*
X161812921Y-105498900D01*
X162779152Y-105098674D01*
X163518674Y-104359152D01*
X163918900Y-103392921D01*
X163918900Y-102574436D01*
X164884100Y-102574436D01*
X164884100Y-103165564D01*
X165110314Y-103711695D01*
X165528305Y-104129686D01*
X166074436Y-104355900D01*
X166665564Y-104355900D01*
X167211695Y-104129686D01*
X167629686Y-103711695D01*
X167855900Y-103165564D01*
X167855900Y-102574436D01*
X167761727Y-102347079D01*
X177711100Y-102347079D01*
X177711100Y-103392921D01*
X178111326Y-104359152D01*
X178850848Y-105098674D01*
X179817079Y-105498900D01*
X180862921Y-105498900D01*
X181829152Y-105098674D01*
X181942504Y-104985322D01*
X183285000Y-104985322D01*
X183285000Y-105834678D01*
X183610034Y-106619380D01*
X184210620Y-107219966D01*
X184995322Y-107545000D01*
X185844678Y-107545000D01*
X186629380Y-107219966D01*
X187229966Y-106619380D01*
X187555000Y-105834678D01*
X187555000Y-104985322D01*
X187229966Y-104200620D01*
X186629380Y-103600034D01*
X185844678Y-103275000D01*
X184995322Y-103275000D01*
X184210620Y-103600034D01*
X183610034Y-104200620D01*
X183285000Y-104985322D01*
X181942504Y-104985322D01*
X182568674Y-104359152D01*
X182968900Y-103392921D01*
X182968900Y-102347079D01*
X182568674Y-101380848D01*
X182331564Y-101143738D01*
X182455322Y-101195000D01*
X183304678Y-101195000D01*
X184089380Y-100869966D01*
X184689966Y-100269380D01*
X185015000Y-99484678D01*
X185015000Y-98635322D01*
X184689966Y-97850620D01*
X184089380Y-97250034D01*
X183304678Y-96925000D01*
X182455322Y-96925000D01*
X181716751Y-97230926D01*
X181599686Y-96948305D01*
X181181695Y-96530314D01*
X180635564Y-96304100D01*
X180044436Y-96304100D01*
X179498305Y-96530314D01*
X179080314Y-96948305D01*
X178854100Y-97494436D01*
X178854100Y-98085564D01*
X179080314Y-98631695D01*
X179498305Y-99049686D01*
X180044436Y-99275900D01*
X180635564Y-99275900D01*
X180745000Y-99230570D01*
X180745000Y-99484678D01*
X181070034Y-100269380D01*
X181168208Y-100367554D01*
X180862921Y-100241100D01*
X179817079Y-100241100D01*
X178850848Y-100641326D01*
X178111326Y-101380848D01*
X177711100Y-102347079D01*
X167761727Y-102347079D01*
X167629686Y-102028305D01*
X167211695Y-101610314D01*
X166665564Y-101384100D01*
X166074436Y-101384100D01*
X165528305Y-101610314D01*
X165110314Y-102028305D01*
X164884100Y-102574436D01*
X163918900Y-102574436D01*
X163918900Y-102347079D01*
X163518674Y-101380848D01*
X162779152Y-100641326D01*
X161812921Y-100241100D01*
X160767079Y-100241100D01*
X159800848Y-100641326D01*
X159563738Y-100878436D01*
X159615000Y-100754678D01*
X159615000Y-99905322D01*
X159289966Y-99120620D01*
X158689380Y-98520034D01*
X157904678Y-98195000D01*
X157055322Y-98195000D01*
X156270620Y-98520034D01*
X155670034Y-99120620D01*
X155345000Y-99905322D01*
X155345000Y-100754678D01*
X155650926Y-101493249D01*
X155368305Y-101610314D01*
X154950314Y-102028305D01*
X154724100Y-102574436D01*
X148805900Y-102574436D01*
X148579686Y-102028305D01*
X148161695Y-101610314D01*
X147615564Y-101384100D01*
X147024436Y-101384100D01*
X146478305Y-101610314D01*
X146060314Y-102028305D01*
X145834100Y-102574436D01*
X144868900Y-102574436D01*
X144868900Y-102347079D01*
X144468674Y-101380848D01*
X143729152Y-100641326D01*
X142762921Y-100241100D01*
X141717079Y-100241100D01*
X140750848Y-100641326D01*
X140513738Y-100878436D01*
X140565000Y-100754678D01*
X140565000Y-99905322D01*
X140239966Y-99120620D01*
X139639380Y-98520034D01*
X138854678Y-98195000D01*
X138005322Y-98195000D01*
X137220620Y-98520034D01*
X136620034Y-99120620D01*
X136295000Y-99905322D01*
X136295000Y-100754678D01*
X136600926Y-101493249D01*
X136318305Y-101610314D01*
X135900314Y-102028305D01*
X135674100Y-102574436D01*
X129755900Y-102574436D01*
X129529686Y-102028305D01*
X129111695Y-101610314D01*
X128565564Y-101384100D01*
X127974436Y-101384100D01*
X127428305Y-101610314D01*
X127010314Y-102028305D01*
X126784100Y-102574436D01*
X125818900Y-102574436D01*
X125818900Y-102347079D01*
X125418674Y-101380848D01*
X124679152Y-100641326D01*
X123712921Y-100241100D01*
X122667079Y-100241100D01*
X121700848Y-100641326D01*
X121463738Y-100878436D01*
X121515000Y-100754678D01*
X121515000Y-99905322D01*
X121189966Y-99120620D01*
X120589380Y-98520034D01*
X119804678Y-98195000D01*
X118955322Y-98195000D01*
X118170620Y-98520034D01*
X117570034Y-99120620D01*
X117245000Y-99905322D01*
X117245000Y-100754678D01*
X117550926Y-101493249D01*
X117268305Y-101610314D01*
X116850314Y-102028305D01*
X116624100Y-102574436D01*
X110705900Y-102574436D01*
X110479686Y-102028305D01*
X110061695Y-101610314D01*
X109515564Y-101384100D01*
X108924436Y-101384100D01*
X108378305Y-101610314D01*
X107960314Y-102028305D01*
X107734100Y-102574436D01*
X106768900Y-102574436D01*
X106768900Y-102347079D01*
X106368674Y-101380848D01*
X105629152Y-100641326D01*
X104662921Y-100241100D01*
X103617079Y-100241100D01*
X102650848Y-100641326D01*
X102413738Y-100878436D01*
X102465000Y-100754678D01*
X102465000Y-99905322D01*
X102139966Y-99120620D01*
X101539380Y-98520034D01*
X100754678Y-98195000D01*
X99905322Y-98195000D01*
X99120620Y-98520034D01*
X98520034Y-99120620D01*
X98195000Y-99905322D01*
X98195000Y-100754678D01*
X98500926Y-101493249D01*
X98218305Y-101610314D01*
X97800314Y-102028305D01*
X97574100Y-102574436D01*
X91655900Y-102574436D01*
X91429686Y-102028305D01*
X91011695Y-101610314D01*
X90465564Y-101384100D01*
X89874436Y-101384100D01*
X89328305Y-101610314D01*
X88910314Y-102028305D01*
X88684100Y-102574436D01*
X87718900Y-102574436D01*
X87718900Y-102347079D01*
X87318674Y-101380848D01*
X86579152Y-100641326D01*
X85612921Y-100241100D01*
X84567079Y-100241100D01*
X83600848Y-100641326D01*
X83363738Y-100878436D01*
X83415000Y-100754678D01*
X83415000Y-99905322D01*
X83089966Y-99120620D01*
X82489380Y-98520034D01*
X81704678Y-98195000D01*
X80855322Y-98195000D01*
X80070620Y-98520034D01*
X79470034Y-99120620D01*
X79145000Y-99905322D01*
X79145000Y-100754678D01*
X79450926Y-101493249D01*
X79168305Y-101610314D01*
X78750314Y-102028305D01*
X78524100Y-102574436D01*
X68668900Y-102574436D01*
X68668900Y-102347079D01*
X68268674Y-101380848D01*
X68031564Y-101143738D01*
X68155322Y-101195000D01*
X69004678Y-101195000D01*
X69789380Y-100869966D01*
X70389966Y-100269380D01*
X70715000Y-99484678D01*
X70715000Y-98635322D01*
X70389966Y-97850620D01*
X69904668Y-97365322D01*
X85495000Y-97365322D01*
X85495000Y-98214678D01*
X85820034Y-98999380D01*
X86420620Y-99599966D01*
X87205322Y-99925000D01*
X88054678Y-99925000D01*
X88839380Y-99599966D01*
X89439966Y-98999380D01*
X89765000Y-98214678D01*
X89765000Y-97365322D01*
X104545000Y-97365322D01*
X104545000Y-98214678D01*
X104870034Y-98999380D01*
X105470620Y-99599966D01*
X106255322Y-99925000D01*
X107104678Y-99925000D01*
X107889380Y-99599966D01*
X108489966Y-98999380D01*
X108815000Y-98214678D01*
X108815000Y-97365322D01*
X123595000Y-97365322D01*
X123595000Y-98214678D01*
X123920034Y-98999380D01*
X124520620Y-99599966D01*
X125305322Y-99925000D01*
X126154678Y-99925000D01*
X126939380Y-99599966D01*
X127539966Y-98999380D01*
X127865000Y-98214678D01*
X127865000Y-97365322D01*
X142645000Y-97365322D01*
X142645000Y-98214678D01*
X142970034Y-98999380D01*
X143570620Y-99599966D01*
X144355322Y-99925000D01*
X145204678Y-99925000D01*
X145989380Y-99599966D01*
X146589966Y-98999380D01*
X146915000Y-98214678D01*
X146915000Y-97365322D01*
X161695000Y-97365322D01*
X161695000Y-98214678D01*
X162020034Y-98999380D01*
X162620620Y-99599966D01*
X163405322Y-99925000D01*
X164254678Y-99925000D01*
X165039380Y-99599966D01*
X165639966Y-98999380D01*
X165965000Y-98214678D01*
X165965000Y-97365322D01*
X165639966Y-96580620D01*
X165039380Y-95980034D01*
X164254678Y-95655000D01*
X163405322Y-95655000D01*
X162620620Y-95980034D01*
X162020034Y-96580620D01*
X161695000Y-97365322D01*
X146915000Y-97365322D01*
X146589966Y-96580620D01*
X145989380Y-95980034D01*
X145204678Y-95655000D01*
X144355322Y-95655000D01*
X143570620Y-95980034D01*
X142970034Y-96580620D01*
X142645000Y-97365322D01*
X127865000Y-97365322D01*
X127539966Y-96580620D01*
X126939380Y-95980034D01*
X126154678Y-95655000D01*
X125305322Y-95655000D01*
X124520620Y-95980034D01*
X123920034Y-96580620D01*
X123595000Y-97365322D01*
X108815000Y-97365322D01*
X108489966Y-96580620D01*
X107889380Y-95980034D01*
X107104678Y-95655000D01*
X106255322Y-95655000D01*
X105470620Y-95980034D01*
X104870034Y-96580620D01*
X104545000Y-97365322D01*
X89765000Y-97365322D01*
X89439966Y-96580620D01*
X88839380Y-95980034D01*
X88054678Y-95655000D01*
X87205322Y-95655000D01*
X86420620Y-95980034D01*
X85820034Y-96580620D01*
X85495000Y-97365322D01*
X69904668Y-97365322D01*
X69789380Y-97250034D01*
X69004678Y-96925000D01*
X68155322Y-96925000D01*
X67416751Y-97230926D01*
X67299686Y-96948305D01*
X66881695Y-96530314D01*
X66335564Y-96304100D01*
X65744436Y-96304100D01*
X65198305Y-96530314D01*
X64780314Y-96948305D01*
X64554100Y-97494436D01*
X64554100Y-98085564D01*
X64780314Y-98631695D01*
X65198305Y-99049686D01*
X65744436Y-99275900D01*
X66335564Y-99275900D01*
X66445000Y-99230570D01*
X66445000Y-99484678D01*
X66770034Y-100269380D01*
X66868208Y-100367554D01*
X66562921Y-100241100D01*
X65517079Y-100241100D01*
X64550848Y-100641326D01*
X63811326Y-101380848D01*
X63411100Y-102347079D01*
X55320000Y-102347079D01*
X55320000Y-93067119D01*
X55372000Y-93067119D01*
X55372000Y-93622881D01*
X55584680Y-94136337D01*
X55977663Y-94529320D01*
X56491119Y-94742000D01*
X57046881Y-94742000D01*
X57560337Y-94529320D01*
X57953320Y-94136337D01*
X58166000Y-93622881D01*
X58166000Y-93067119D01*
X188214000Y-93067119D01*
X188214000Y-93622881D01*
X188426680Y-94136337D01*
X188819663Y-94529320D01*
X189333119Y-94742000D01*
X189888881Y-94742000D01*
X190402337Y-94529320D01*
X190795320Y-94136337D01*
X191008000Y-93622881D01*
X191008000Y-93067119D01*
X190795320Y-92553663D01*
X190402337Y-92160680D01*
X189888881Y-91948000D01*
X189333119Y-91948000D01*
X188819663Y-92160680D01*
X188426680Y-92553663D01*
X188214000Y-93067119D01*
X58166000Y-93067119D01*
X57953320Y-92553663D01*
X57560337Y-92160680D01*
X57046881Y-91948000D01*
X56491119Y-91948000D01*
X55977663Y-92160680D01*
X55584680Y-92553663D01*
X55372000Y-93067119D01*
X55320000Y-93067119D01*
X55320000Y-88604436D01*
X64554100Y-88604436D01*
X64554100Y-89195564D01*
X64780314Y-89741695D01*
X65198305Y-90159686D01*
X65744436Y-90385900D01*
X66335564Y-90385900D01*
X66881695Y-90159686D01*
X67299686Y-89741695D01*
X67525900Y-89195564D01*
X67525900Y-88604436D01*
X67299686Y-88058305D01*
X66881695Y-87640314D01*
X66335564Y-87414100D01*
X65744436Y-87414100D01*
X65198305Y-87640314D01*
X64780314Y-88058305D01*
X64554100Y-88604436D01*
X55320000Y-88604436D01*
X55320000Y-83297079D01*
X63411100Y-83297079D01*
X63411100Y-84342921D01*
X63811326Y-85309152D01*
X64550848Y-86048674D01*
X65517079Y-86448900D01*
X66562921Y-86448900D01*
X67529152Y-86048674D01*
X67642504Y-85935322D01*
X68985000Y-85935322D01*
X68985000Y-86784678D01*
X69310034Y-87569380D01*
X69910620Y-88169966D01*
X70695322Y-88495000D01*
X71544678Y-88495000D01*
X72329380Y-88169966D01*
X72929966Y-87569380D01*
X73080763Y-87205322D01*
X175665000Y-87205322D01*
X175665000Y-88054678D01*
X175990034Y-88839380D01*
X176590620Y-89439966D01*
X177375322Y-89765000D01*
X178224678Y-89765000D01*
X178963249Y-89459074D01*
X179080314Y-89741695D01*
X179498305Y-90159686D01*
X180044436Y-90385900D01*
X180635564Y-90385900D01*
X181181695Y-90159686D01*
X181599686Y-89741695D01*
X181825900Y-89195564D01*
X181825900Y-88604436D01*
X181599686Y-88058305D01*
X181181695Y-87640314D01*
X180635564Y-87414100D01*
X180044436Y-87414100D01*
X179935000Y-87459430D01*
X179935000Y-87205322D01*
X179609966Y-86420620D01*
X179511792Y-86322446D01*
X179817079Y-86448900D01*
X180862921Y-86448900D01*
X181829152Y-86048674D01*
X182568674Y-85309152D01*
X182968900Y-84342921D01*
X182968900Y-83297079D01*
X182568674Y-82330848D01*
X181829152Y-81591326D01*
X180862921Y-81191100D01*
X179817079Y-81191100D01*
X178850848Y-81591326D01*
X178111326Y-82330848D01*
X177711100Y-83297079D01*
X177711100Y-84342921D01*
X178111326Y-85309152D01*
X178348436Y-85546262D01*
X178224678Y-85495000D01*
X177375322Y-85495000D01*
X176590620Y-85820034D01*
X175990034Y-86420620D01*
X175665000Y-87205322D01*
X73080763Y-87205322D01*
X73255000Y-86784678D01*
X73255000Y-85935322D01*
X72929966Y-85150620D01*
X72329380Y-84550034D01*
X71544678Y-84225000D01*
X70695322Y-84225000D01*
X69910620Y-84550034D01*
X69310034Y-85150620D01*
X68985000Y-85935322D01*
X67642504Y-85935322D01*
X68268674Y-85309152D01*
X68668900Y-84342921D01*
X68668900Y-83297079D01*
X68268674Y-82330848D01*
X68031564Y-82093738D01*
X68155322Y-82145000D01*
X69004678Y-82145000D01*
X69789380Y-81819966D01*
X70389966Y-81219380D01*
X70715000Y-80434678D01*
X70715000Y-79585322D01*
X70389966Y-78800620D01*
X69789380Y-78200034D01*
X69004678Y-77875000D01*
X68155322Y-77875000D01*
X67416751Y-78180926D01*
X67299686Y-77898305D01*
X66881695Y-77480314D01*
X66335564Y-77254100D01*
X65744436Y-77254100D01*
X65198305Y-77480314D01*
X64780314Y-77898305D01*
X64554100Y-78444436D01*
X64554100Y-79035564D01*
X64780314Y-79581695D01*
X65198305Y-79999686D01*
X65744436Y-80225900D01*
X66335564Y-80225900D01*
X66445000Y-80180570D01*
X66445000Y-80434678D01*
X66770034Y-81219380D01*
X66868208Y-81317554D01*
X66562921Y-81191100D01*
X65517079Y-81191100D01*
X64550848Y-81591326D01*
X63811326Y-82330848D01*
X63411100Y-83297079D01*
X55320000Y-83297079D01*
X55320000Y-69554436D01*
X64554100Y-69554436D01*
X64554100Y-70145564D01*
X64780314Y-70691695D01*
X65198305Y-71109686D01*
X65744436Y-71335900D01*
X66335564Y-71335900D01*
X66881695Y-71109686D01*
X67299686Y-70691695D01*
X67525900Y-70145564D01*
X67525900Y-69554436D01*
X67299686Y-69008305D01*
X66881695Y-68590314D01*
X66335564Y-68364100D01*
X65744436Y-68364100D01*
X65198305Y-68590314D01*
X64780314Y-69008305D01*
X64554100Y-69554436D01*
X55320000Y-69554436D01*
X55320000Y-64247079D01*
X63411100Y-64247079D01*
X63411100Y-65292921D01*
X63811326Y-66259152D01*
X64550848Y-66998674D01*
X65517079Y-67398900D01*
X66562921Y-67398900D01*
X67529152Y-66998674D01*
X67642504Y-66885322D01*
X68985000Y-66885322D01*
X68985000Y-67734678D01*
X69310034Y-68519380D01*
X69910620Y-69119966D01*
X70695322Y-69445000D01*
X71544678Y-69445000D01*
X72329380Y-69119966D01*
X72929966Y-68519380D01*
X73255000Y-67734678D01*
X73255000Y-66885322D01*
X72929966Y-66100620D01*
X72329380Y-65500034D01*
X71544678Y-65175000D01*
X70695322Y-65175000D01*
X69910620Y-65500034D01*
X69310034Y-66100620D01*
X68985000Y-66885322D01*
X67642504Y-66885322D01*
X68268674Y-66259152D01*
X68668900Y-65292921D01*
X68668900Y-64247079D01*
X68268674Y-63280848D01*
X68031564Y-63043738D01*
X68155322Y-63095000D01*
X69004678Y-63095000D01*
X69789380Y-62769966D01*
X70389966Y-62169380D01*
X70715000Y-61384678D01*
X70715000Y-60535322D01*
X70389966Y-59750620D01*
X69789380Y-59150034D01*
X69004678Y-58825000D01*
X68155322Y-58825000D01*
X67416751Y-59130926D01*
X67299686Y-58848305D01*
X66881695Y-58430314D01*
X66335564Y-58204100D01*
X65744436Y-58204100D01*
X65198305Y-58430314D01*
X64780314Y-58848305D01*
X64554100Y-59394436D01*
X64554100Y-59985564D01*
X64780314Y-60531695D01*
X65198305Y-60949686D01*
X65744436Y-61175900D01*
X66335564Y-61175900D01*
X66445000Y-61130570D01*
X66445000Y-61384678D01*
X66770034Y-62169380D01*
X66868208Y-62267554D01*
X66562921Y-62141100D01*
X65517079Y-62141100D01*
X64550848Y-62541326D01*
X63811326Y-63280848D01*
X63411100Y-64247079D01*
X55320000Y-64247079D01*
X55320000Y-54967119D01*
X55372000Y-54967119D01*
X55372000Y-55522881D01*
X55584680Y-56036337D01*
X55977663Y-56429320D01*
X56491119Y-56642000D01*
X57046881Y-56642000D01*
X57560337Y-56429320D01*
X57953320Y-56036337D01*
X58166000Y-55522881D01*
X58166000Y-54967119D01*
X57953320Y-54453663D01*
X57560337Y-54060680D01*
X57046881Y-53848000D01*
X56491119Y-53848000D01*
X55977663Y-54060680D01*
X55584680Y-54453663D01*
X55372000Y-54967119D01*
X55320000Y-54967119D01*
X55320000Y-49105322D01*
X61365000Y-49105322D01*
X61365000Y-49954678D01*
X61690034Y-50739380D01*
X62290620Y-51339966D01*
X63075322Y-51665000D01*
X63924678Y-51665000D01*
X64663249Y-51359074D01*
X64780314Y-51641695D01*
X65198305Y-52059686D01*
X65744436Y-52285900D01*
X66335564Y-52285900D01*
X66881695Y-52059686D01*
X67299686Y-51641695D01*
X67525900Y-51095564D01*
X67525900Y-50504436D01*
X67299686Y-49958305D01*
X66881695Y-49540314D01*
X66335564Y-49314100D01*
X65744436Y-49314100D01*
X65635000Y-49359430D01*
X65635000Y-49105322D01*
X65309966Y-48320620D01*
X65211792Y-48222446D01*
X65517079Y-48348900D01*
X66562921Y-48348900D01*
X67529152Y-47948674D01*
X68268674Y-47209152D01*
X68668900Y-46242921D01*
X68668900Y-45197079D01*
X68268674Y-44230848D01*
X67529152Y-43491326D01*
X67390755Y-43434000D01*
X71361112Y-43434000D01*
X71376000Y-43508847D01*
X71376001Y-58561482D01*
X71361112Y-58636334D01*
X71376001Y-58711186D01*
X71420097Y-58932871D01*
X71588072Y-59184263D01*
X71651528Y-59226663D01*
X83394337Y-70969473D01*
X83436737Y-71032929D01*
X83688129Y-71200904D01*
X83909814Y-71245000D01*
X83909818Y-71245000D01*
X83984665Y-71259888D01*
X84059512Y-71245000D01*
X84767289Y-71245000D01*
X84884720Y-71362431D01*
X85265126Y-71520000D01*
X85676874Y-71520000D01*
X86057280Y-71362431D01*
X86348431Y-71071280D01*
X86506000Y-70690874D01*
X86506000Y-70504000D01*
X86743001Y-70504000D01*
X86743001Y-71313197D01*
X83780199Y-74276000D01*
X83614126Y-74276000D01*
X83233720Y-74433569D01*
X82942569Y-74724720D01*
X82785000Y-75105126D01*
X82785000Y-75516874D01*
X82942569Y-75897280D01*
X83233720Y-76188431D01*
X83266479Y-76202000D01*
X80840711Y-76202000D01*
X80723280Y-76084569D01*
X80342874Y-75927000D01*
X79931126Y-75927000D01*
X79550720Y-76084569D01*
X79259569Y-76375720D01*
X79102000Y-76756126D01*
X79102000Y-77167874D01*
X79259569Y-77548280D01*
X79435289Y-77724000D01*
X79259569Y-77899720D01*
X79102000Y-78280126D01*
X79102000Y-78691874D01*
X79259569Y-79072280D01*
X79550720Y-79363431D01*
X79931126Y-79521000D01*
X80019654Y-79521000D01*
X79470034Y-80070620D01*
X79145000Y-80855322D01*
X79145000Y-81704678D01*
X79450926Y-82443249D01*
X79168305Y-82560314D01*
X78750314Y-82978305D01*
X78524100Y-83524436D01*
X78524100Y-84115564D01*
X78750314Y-84661695D01*
X79168305Y-85079686D01*
X79714436Y-85305900D01*
X80305564Y-85305900D01*
X80851695Y-85079686D01*
X81269686Y-84661695D01*
X81495900Y-84115564D01*
X81495900Y-83524436D01*
X81450570Y-83415000D01*
X81704678Y-83415000D01*
X82489380Y-83089966D01*
X82587554Y-82991792D01*
X82461100Y-83297079D01*
X82461100Y-84342921D01*
X82861326Y-85309152D01*
X83600848Y-86048674D01*
X84567079Y-86448900D01*
X85612921Y-86448900D01*
X86579152Y-86048674D01*
X87318674Y-85309152D01*
X87718900Y-84342921D01*
X87718900Y-83524436D01*
X88684100Y-83524436D01*
X88684100Y-84115564D01*
X88910314Y-84661695D01*
X89328305Y-85079686D01*
X89874436Y-85305900D01*
X90465564Y-85305900D01*
X91011695Y-85079686D01*
X91429686Y-84661695D01*
X91655900Y-84115564D01*
X91655900Y-83524436D01*
X97574100Y-83524436D01*
X97574100Y-84115564D01*
X97800314Y-84661695D01*
X98218305Y-85079686D01*
X98764436Y-85305900D01*
X99355564Y-85305900D01*
X99901695Y-85079686D01*
X100319686Y-84661695D01*
X100545900Y-84115564D01*
X100545900Y-83524436D01*
X100500570Y-83415000D01*
X100754678Y-83415000D01*
X101539380Y-83089966D01*
X101637554Y-82991792D01*
X101511100Y-83297079D01*
X101511100Y-84342921D01*
X101911326Y-85309152D01*
X102650848Y-86048674D01*
X103617079Y-86448900D01*
X104662921Y-86448900D01*
X105629152Y-86048674D01*
X106368674Y-85309152D01*
X106768900Y-84342921D01*
X106768900Y-83524436D01*
X107734100Y-83524436D01*
X107734100Y-84115564D01*
X107960314Y-84661695D01*
X108378305Y-85079686D01*
X108924436Y-85305900D01*
X109515564Y-85305900D01*
X110061695Y-85079686D01*
X110479686Y-84661695D01*
X110705900Y-84115564D01*
X110705900Y-83524436D01*
X116624100Y-83524436D01*
X116624100Y-84115564D01*
X116850314Y-84661695D01*
X117268305Y-85079686D01*
X117814436Y-85305900D01*
X118405564Y-85305900D01*
X118951695Y-85079686D01*
X119369686Y-84661695D01*
X119595900Y-84115564D01*
X119595900Y-83524436D01*
X119550570Y-83415000D01*
X119804678Y-83415000D01*
X120589380Y-83089966D01*
X120687554Y-82991792D01*
X120561100Y-83297079D01*
X120561100Y-84342921D01*
X120961326Y-85309152D01*
X121700848Y-86048674D01*
X122667079Y-86448900D01*
X123712921Y-86448900D01*
X124679152Y-86048674D01*
X125418674Y-85309152D01*
X125818900Y-84342921D01*
X125818900Y-83524436D01*
X126784100Y-83524436D01*
X126784100Y-84115564D01*
X127010314Y-84661695D01*
X127428305Y-85079686D01*
X127974436Y-85305900D01*
X128565564Y-85305900D01*
X129111695Y-85079686D01*
X129529686Y-84661695D01*
X129755900Y-84115564D01*
X129755900Y-83524436D01*
X135674100Y-83524436D01*
X135674100Y-84115564D01*
X135900314Y-84661695D01*
X136318305Y-85079686D01*
X136864436Y-85305900D01*
X137455564Y-85305900D01*
X138001695Y-85079686D01*
X138419686Y-84661695D01*
X138645900Y-84115564D01*
X138645900Y-83524436D01*
X138600570Y-83415000D01*
X138854678Y-83415000D01*
X139639380Y-83089966D01*
X139737554Y-82991792D01*
X139611100Y-83297079D01*
X139611100Y-84342921D01*
X140011326Y-85309152D01*
X140750848Y-86048674D01*
X141717079Y-86448900D01*
X142762921Y-86448900D01*
X143729152Y-86048674D01*
X144468674Y-85309152D01*
X144868900Y-84342921D01*
X144868900Y-83524436D01*
X145834100Y-83524436D01*
X145834100Y-84115564D01*
X146060314Y-84661695D01*
X146478305Y-85079686D01*
X147024436Y-85305900D01*
X147615564Y-85305900D01*
X148161695Y-85079686D01*
X148579686Y-84661695D01*
X148805900Y-84115564D01*
X148805900Y-83524436D01*
X154724100Y-83524436D01*
X154724100Y-84115564D01*
X154950314Y-84661695D01*
X155368305Y-85079686D01*
X155914436Y-85305900D01*
X156505564Y-85305900D01*
X157051695Y-85079686D01*
X157469686Y-84661695D01*
X157695900Y-84115564D01*
X157695900Y-83524436D01*
X157650570Y-83415000D01*
X157904678Y-83415000D01*
X158689380Y-83089966D01*
X158787554Y-82991792D01*
X158661100Y-83297079D01*
X158661100Y-84342921D01*
X159061326Y-85309152D01*
X159800848Y-86048674D01*
X160767079Y-86448900D01*
X161812921Y-86448900D01*
X162779152Y-86048674D01*
X163518674Y-85309152D01*
X163918900Y-84342921D01*
X163918900Y-83524436D01*
X164884100Y-83524436D01*
X164884100Y-84115564D01*
X165110314Y-84661695D01*
X165528305Y-85079686D01*
X166074436Y-85305900D01*
X166665564Y-85305900D01*
X167211695Y-85079686D01*
X167629686Y-84661695D01*
X167855900Y-84115564D01*
X167855900Y-83524436D01*
X167629686Y-82978305D01*
X167211695Y-82560314D01*
X166665564Y-82334100D01*
X166074436Y-82334100D01*
X165528305Y-82560314D01*
X165110314Y-82978305D01*
X164884100Y-83524436D01*
X163918900Y-83524436D01*
X163918900Y-83297079D01*
X163518674Y-82330848D01*
X162779152Y-81591326D01*
X161812921Y-81191100D01*
X160767079Y-81191100D01*
X159800848Y-81591326D01*
X159563738Y-81828436D01*
X159615000Y-81704678D01*
X159615000Y-80855322D01*
X159289966Y-80070620D01*
X158689380Y-79470034D01*
X157904678Y-79145000D01*
X157055322Y-79145000D01*
X156270620Y-79470034D01*
X155670034Y-80070620D01*
X155345000Y-80855322D01*
X155345000Y-81704678D01*
X155650926Y-82443249D01*
X155368305Y-82560314D01*
X154950314Y-82978305D01*
X154724100Y-83524436D01*
X148805900Y-83524436D01*
X148579686Y-82978305D01*
X148161695Y-82560314D01*
X147615564Y-82334100D01*
X147024436Y-82334100D01*
X146478305Y-82560314D01*
X146060314Y-82978305D01*
X145834100Y-83524436D01*
X144868900Y-83524436D01*
X144868900Y-83297079D01*
X144468674Y-82330848D01*
X143729152Y-81591326D01*
X142762921Y-81191100D01*
X141717079Y-81191100D01*
X140750848Y-81591326D01*
X140513738Y-81828436D01*
X140565000Y-81704678D01*
X140565000Y-80855322D01*
X140239966Y-80070620D01*
X139639380Y-79470034D01*
X138854678Y-79145000D01*
X138005322Y-79145000D01*
X137220620Y-79470034D01*
X136620034Y-80070620D01*
X136295000Y-80855322D01*
X136295000Y-81704678D01*
X136600926Y-82443249D01*
X136318305Y-82560314D01*
X135900314Y-82978305D01*
X135674100Y-83524436D01*
X129755900Y-83524436D01*
X129529686Y-82978305D01*
X129111695Y-82560314D01*
X128565564Y-82334100D01*
X127974436Y-82334100D01*
X127428305Y-82560314D01*
X127010314Y-82978305D01*
X126784100Y-83524436D01*
X125818900Y-83524436D01*
X125818900Y-83297079D01*
X125418674Y-82330848D01*
X124679152Y-81591326D01*
X123712921Y-81191100D01*
X122667079Y-81191100D01*
X121700848Y-81591326D01*
X121463738Y-81828436D01*
X121515000Y-81704678D01*
X121515000Y-80855322D01*
X121189966Y-80070620D01*
X120589380Y-79470034D01*
X119804678Y-79145000D01*
X118955322Y-79145000D01*
X118170620Y-79470034D01*
X117570034Y-80070620D01*
X117245000Y-80855322D01*
X117245000Y-81704678D01*
X117550926Y-82443249D01*
X117268305Y-82560314D01*
X116850314Y-82978305D01*
X116624100Y-83524436D01*
X110705900Y-83524436D01*
X110479686Y-82978305D01*
X110061695Y-82560314D01*
X109515564Y-82334100D01*
X108924436Y-82334100D01*
X108378305Y-82560314D01*
X107960314Y-82978305D01*
X107734100Y-83524436D01*
X106768900Y-83524436D01*
X106768900Y-83297079D01*
X106368674Y-82330848D01*
X105629152Y-81591326D01*
X104662921Y-81191100D01*
X103617079Y-81191100D01*
X102650848Y-81591326D01*
X102413738Y-81828436D01*
X102465000Y-81704678D01*
X102465000Y-80855322D01*
X102139966Y-80070620D01*
X101539380Y-79470034D01*
X100754678Y-79145000D01*
X99905322Y-79145000D01*
X99120620Y-79470034D01*
X98520034Y-80070620D01*
X98195000Y-80855322D01*
X98195000Y-81704678D01*
X98500926Y-82443249D01*
X98218305Y-82560314D01*
X97800314Y-82978305D01*
X97574100Y-83524436D01*
X91655900Y-83524436D01*
X91429686Y-82978305D01*
X91011695Y-82560314D01*
X90465564Y-82334100D01*
X89874436Y-82334100D01*
X89328305Y-82560314D01*
X88910314Y-82978305D01*
X88684100Y-83524436D01*
X87718900Y-83524436D01*
X87718900Y-83297079D01*
X87318674Y-82330848D01*
X86579152Y-81591326D01*
X85612921Y-81191100D01*
X84567079Y-81191100D01*
X83600848Y-81591326D01*
X83363738Y-81828436D01*
X83415000Y-81704678D01*
X83415000Y-80855322D01*
X83089966Y-80070620D01*
X82489380Y-79470034D01*
X81948514Y-79246000D01*
X85108151Y-79246000D01*
X85182998Y-79260888D01*
X85257845Y-79246000D01*
X85257850Y-79246000D01*
X85479535Y-79201904D01*
X85503725Y-79185741D01*
X85820034Y-79949380D01*
X86420620Y-80549966D01*
X87205322Y-80875000D01*
X88054678Y-80875000D01*
X88839380Y-80549966D01*
X89439966Y-79949380D01*
X89765000Y-79164678D01*
X89765000Y-78315322D01*
X104545000Y-78315322D01*
X104545000Y-79164678D01*
X104870034Y-79949380D01*
X105470620Y-80549966D01*
X106255322Y-80875000D01*
X107104678Y-80875000D01*
X107889380Y-80549966D01*
X108489966Y-79949380D01*
X108815000Y-79164678D01*
X108815000Y-78315322D01*
X123595000Y-78315322D01*
X123595000Y-79164678D01*
X123920034Y-79949380D01*
X124520620Y-80549966D01*
X125305322Y-80875000D01*
X126154678Y-80875000D01*
X126939380Y-80549966D01*
X127539966Y-79949380D01*
X127865000Y-79164678D01*
X127865000Y-78315322D01*
X142645000Y-78315322D01*
X142645000Y-79164678D01*
X142970034Y-79949380D01*
X143570620Y-80549966D01*
X144355322Y-80875000D01*
X145204678Y-80875000D01*
X145989380Y-80549966D01*
X146589966Y-79949380D01*
X146915000Y-79164678D01*
X146915000Y-78315322D01*
X161695000Y-78315322D01*
X161695000Y-79164678D01*
X162020034Y-79949380D01*
X162620620Y-80549966D01*
X163405322Y-80875000D01*
X164254678Y-80875000D01*
X164302184Y-80855322D01*
X173125000Y-80855322D01*
X173125000Y-81704678D01*
X173450034Y-82489380D01*
X174050620Y-83089966D01*
X174835322Y-83415000D01*
X175684678Y-83415000D01*
X176469380Y-83089966D01*
X177069966Y-82489380D01*
X177395000Y-81704678D01*
X177395000Y-80855322D01*
X177069966Y-80070620D01*
X176469380Y-79470034D01*
X175684678Y-79145000D01*
X174835322Y-79145000D01*
X174050620Y-79470034D01*
X173450034Y-80070620D01*
X173125000Y-80855322D01*
X164302184Y-80855322D01*
X165039380Y-80549966D01*
X165639966Y-79949380D01*
X165965000Y-79164678D01*
X165965000Y-78444436D01*
X178854100Y-78444436D01*
X178854100Y-79035564D01*
X179080314Y-79581695D01*
X179498305Y-79999686D01*
X180044436Y-80225900D01*
X180635564Y-80225900D01*
X181181695Y-79999686D01*
X181599686Y-79581695D01*
X181825900Y-79035564D01*
X181825900Y-78444436D01*
X181599686Y-77898305D01*
X181181695Y-77480314D01*
X180635564Y-77254100D01*
X180044436Y-77254100D01*
X179498305Y-77480314D01*
X179080314Y-77898305D01*
X178854100Y-78444436D01*
X165965000Y-78444436D01*
X165965000Y-78315322D01*
X165639966Y-77530620D01*
X165039380Y-76930034D01*
X164254678Y-76605000D01*
X163405322Y-76605000D01*
X162620620Y-76930034D01*
X162020034Y-77530620D01*
X161695000Y-78315322D01*
X146915000Y-78315322D01*
X146589966Y-77530620D01*
X145989380Y-76930034D01*
X145204678Y-76605000D01*
X144355322Y-76605000D01*
X143570620Y-76930034D01*
X142970034Y-77530620D01*
X142645000Y-78315322D01*
X127865000Y-78315322D01*
X127539966Y-77530620D01*
X126939380Y-76930034D01*
X126154678Y-76605000D01*
X125305322Y-76605000D01*
X124520620Y-76930034D01*
X123920034Y-77530620D01*
X123595000Y-78315322D01*
X108815000Y-78315322D01*
X108489966Y-77530620D01*
X107889380Y-76930034D01*
X107104678Y-76605000D01*
X106255322Y-76605000D01*
X105470620Y-76930034D01*
X104870034Y-77530620D01*
X104545000Y-78315322D01*
X89765000Y-78315322D01*
X89439966Y-77530620D01*
X89319356Y-77410010D01*
X95524809Y-77410010D01*
X95599656Y-77424898D01*
X95674503Y-77410010D01*
X95674508Y-77410010D01*
X95896193Y-77365914D01*
X96147585Y-77197939D01*
X96189987Y-77134480D01*
X104163185Y-69161282D01*
X104121000Y-69263126D01*
X104121000Y-69674874D01*
X104278569Y-70055280D01*
X104569720Y-70346431D01*
X104950126Y-70504000D01*
X105116199Y-70504000D01*
X109836000Y-75223802D01*
X109836000Y-75389874D01*
X109993569Y-75770280D01*
X110284720Y-76061431D01*
X110665126Y-76219000D01*
X111076874Y-76219000D01*
X111457280Y-76061431D01*
X111569500Y-75949211D01*
X111681720Y-76061431D01*
X112062126Y-76219000D01*
X112473874Y-76219000D01*
X112854280Y-76061431D01*
X113145431Y-75770280D01*
X113303000Y-75389874D01*
X113303000Y-74978126D01*
X113145431Y-74597720D01*
X112854280Y-74306569D01*
X112473874Y-74149000D01*
X112356802Y-74149000D01*
X108223000Y-70015199D01*
X108223000Y-69849126D01*
X108065431Y-69468720D01*
X107774280Y-69177569D01*
X107393874Y-69020000D01*
X106982126Y-69020000D01*
X106601720Y-69177569D01*
X106310569Y-69468720D01*
X106287124Y-69525322D01*
X106191000Y-69429199D01*
X106191000Y-69263126D01*
X106033431Y-68882720D01*
X105742280Y-68591569D01*
X105361874Y-68434000D01*
X104950126Y-68434000D01*
X104848283Y-68476185D01*
X107887811Y-65436657D01*
X107960314Y-65611695D01*
X108378305Y-66029686D01*
X108924436Y-66255900D01*
X109515564Y-66255900D01*
X110061695Y-66029686D01*
X110479686Y-65611695D01*
X110705900Y-65065564D01*
X110705900Y-64474436D01*
X116624100Y-64474436D01*
X116624100Y-65065564D01*
X116850314Y-65611695D01*
X117268305Y-66029686D01*
X117814436Y-66255900D01*
X118405564Y-66255900D01*
X118951695Y-66029686D01*
X119369686Y-65611695D01*
X119595900Y-65065564D01*
X119595900Y-64474436D01*
X119550570Y-64365000D01*
X119804678Y-64365000D01*
X120589380Y-64039966D01*
X120687554Y-63941792D01*
X120561100Y-64247079D01*
X120561100Y-65292921D01*
X120961326Y-66259152D01*
X121700848Y-66998674D01*
X122667079Y-67398900D01*
X123712921Y-67398900D01*
X124679152Y-66998674D01*
X125418674Y-66259152D01*
X125818900Y-65292921D01*
X125818900Y-64474436D01*
X126784100Y-64474436D01*
X126784100Y-65065564D01*
X127010314Y-65611695D01*
X127428305Y-66029686D01*
X127974436Y-66255900D01*
X128565564Y-66255900D01*
X129111695Y-66029686D01*
X129529686Y-65611695D01*
X129755900Y-65065564D01*
X129755900Y-64474436D01*
X135674100Y-64474436D01*
X135674100Y-65065564D01*
X135900314Y-65611695D01*
X136318305Y-66029686D01*
X136864436Y-66255900D01*
X137455564Y-66255900D01*
X138001695Y-66029686D01*
X138419686Y-65611695D01*
X138645900Y-65065564D01*
X138645900Y-64474436D01*
X138600570Y-64365000D01*
X138854678Y-64365000D01*
X139639380Y-64039966D01*
X139737554Y-63941792D01*
X139611100Y-64247079D01*
X139611100Y-65292921D01*
X140011326Y-66259152D01*
X140750848Y-66998674D01*
X141717079Y-67398900D01*
X142762921Y-67398900D01*
X143729152Y-66998674D01*
X144468674Y-66259152D01*
X144868900Y-65292921D01*
X144868900Y-64474436D01*
X145834100Y-64474436D01*
X145834100Y-65065564D01*
X146060314Y-65611695D01*
X146478305Y-66029686D01*
X147024436Y-66255900D01*
X147615564Y-66255900D01*
X148161695Y-66029686D01*
X148579686Y-65611695D01*
X148805900Y-65065564D01*
X148805900Y-64474436D01*
X148579686Y-63928305D01*
X148161695Y-63510314D01*
X147615564Y-63284100D01*
X147024436Y-63284100D01*
X146478305Y-63510314D01*
X146060314Y-63928305D01*
X145834100Y-64474436D01*
X144868900Y-64474436D01*
X144868900Y-64247079D01*
X144468674Y-63280848D01*
X143729152Y-62541326D01*
X142762921Y-62141100D01*
X141717079Y-62141100D01*
X140750848Y-62541326D01*
X140513738Y-62778436D01*
X140565000Y-62654678D01*
X140565000Y-61805322D01*
X140239966Y-61020620D01*
X139639380Y-60420034D01*
X138854678Y-60095000D01*
X138005322Y-60095000D01*
X137220620Y-60420034D01*
X136620034Y-61020620D01*
X136295000Y-61805322D01*
X136295000Y-62654678D01*
X136600926Y-63393249D01*
X136318305Y-63510314D01*
X135900314Y-63928305D01*
X135674100Y-64474436D01*
X129755900Y-64474436D01*
X129529686Y-63928305D01*
X129111695Y-63510314D01*
X128565564Y-63284100D01*
X127974436Y-63284100D01*
X127428305Y-63510314D01*
X127010314Y-63928305D01*
X126784100Y-64474436D01*
X125818900Y-64474436D01*
X125818900Y-64247079D01*
X125418674Y-63280848D01*
X124679152Y-62541326D01*
X123712921Y-62141100D01*
X122667079Y-62141100D01*
X121700848Y-62541326D01*
X121463738Y-62778436D01*
X121515000Y-62654678D01*
X121515000Y-61805322D01*
X121189966Y-61020620D01*
X120589380Y-60420034D01*
X119804678Y-60095000D01*
X118955322Y-60095000D01*
X118170620Y-60420034D01*
X117570034Y-61020620D01*
X117245000Y-61805322D01*
X117245000Y-62654678D01*
X117550926Y-63393249D01*
X117268305Y-63510314D01*
X116850314Y-63928305D01*
X116624100Y-64474436D01*
X110705900Y-64474436D01*
X110479686Y-63928305D01*
X110061695Y-63510314D01*
X109886657Y-63437811D01*
X114059146Y-59265322D01*
X123595000Y-59265322D01*
X123595000Y-60114678D01*
X123920034Y-60899380D01*
X124520620Y-61499966D01*
X125305322Y-61825000D01*
X126154678Y-61825000D01*
X126939380Y-61499966D01*
X127539966Y-60899380D01*
X127865000Y-60114678D01*
X127865000Y-59265322D01*
X142645000Y-59265322D01*
X142645000Y-60114678D01*
X142970034Y-60899380D01*
X143570620Y-61499966D01*
X144355322Y-61825000D01*
X145204678Y-61825000D01*
X145989380Y-61499966D01*
X146589966Y-60899380D01*
X146915000Y-60114678D01*
X146915000Y-59265322D01*
X146589966Y-58480620D01*
X145989380Y-57880034D01*
X145204678Y-57555000D01*
X144355322Y-57555000D01*
X143570620Y-57880034D01*
X142970034Y-58480620D01*
X142645000Y-59265322D01*
X127865000Y-59265322D01*
X127539966Y-58480620D01*
X126939380Y-57880034D01*
X126154678Y-57555000D01*
X125305322Y-57555000D01*
X124520620Y-57880034D01*
X123920034Y-58480620D01*
X123595000Y-59265322D01*
X114059146Y-59265322D01*
X118843468Y-54481000D01*
X124830325Y-54481000D01*
X124905172Y-54495888D01*
X124980019Y-54481000D01*
X124980024Y-54481000D01*
X125201709Y-54436904D01*
X125453101Y-54268929D01*
X125495503Y-54205470D01*
X128651000Y-51049974D01*
X131806498Y-54205472D01*
X131848899Y-54268929D01*
X131912355Y-54311329D01*
X132100290Y-54436904D01*
X132148433Y-54446480D01*
X132321976Y-54481000D01*
X132321980Y-54481000D01*
X132396828Y-54495888D01*
X132471676Y-54481000D01*
X148402199Y-54481000D01*
X151767001Y-57845803D01*
X151767000Y-72188153D01*
X151752112Y-72263000D01*
X151767000Y-72337847D01*
X151767000Y-72337851D01*
X151811096Y-72559536D01*
X151979071Y-72810929D01*
X152042530Y-72853331D01*
X152118536Y-72929337D01*
X152042881Y-72898000D01*
X151487119Y-72898000D01*
X150973663Y-73110680D01*
X150580680Y-73503663D01*
X150368000Y-74017119D01*
X150368000Y-74572881D01*
X150580680Y-75086337D01*
X150973663Y-75479320D01*
X151487119Y-75692000D01*
X152042881Y-75692000D01*
X152556337Y-75479320D01*
X152949320Y-75086337D01*
X153162000Y-74572881D01*
X153162000Y-74017119D01*
X153130663Y-73941465D01*
X153841671Y-74652473D01*
X153884071Y-74715929D01*
X153947527Y-74758329D01*
X154135462Y-74883904D01*
X154153355Y-74887463D01*
X154284922Y-74913633D01*
X154389873Y-75018584D01*
X154770279Y-75176153D01*
X155182027Y-75176153D01*
X155562433Y-75018584D01*
X155574787Y-75006230D01*
X155713569Y-75341280D01*
X156004720Y-75632431D01*
X156385126Y-75790000D01*
X156796874Y-75790000D01*
X157177280Y-75632431D01*
X157468431Y-75341280D01*
X157626000Y-74960874D01*
X157626000Y-74549126D01*
X157468431Y-74168720D01*
X157177280Y-73877569D01*
X156796874Y-73720000D01*
X156630801Y-73720000D01*
X156470553Y-73559751D01*
X156476042Y-73532154D01*
X156461154Y-73457307D01*
X156461154Y-73457303D01*
X156417058Y-73235617D01*
X156249083Y-72984225D01*
X156185627Y-72941825D01*
X154049000Y-70805199D01*
X154049000Y-57351846D01*
X154063888Y-57276999D01*
X154049000Y-57202152D01*
X154049000Y-57202148D01*
X154004904Y-56980463D01*
X153836929Y-56729071D01*
X153773473Y-56686671D01*
X149434331Y-52347530D01*
X149391929Y-52284071D01*
X149140537Y-52116096D01*
X148918852Y-52072000D01*
X148918847Y-52072000D01*
X148844000Y-52057112D01*
X148769153Y-52072000D01*
X143051966Y-52072000D01*
X143081695Y-52059686D01*
X143499686Y-51641695D01*
X143725900Y-51095564D01*
X143725900Y-50504436D01*
X143499686Y-49958305D01*
X143081695Y-49540314D01*
X142535564Y-49314100D01*
X141944436Y-49314100D01*
X141835000Y-49359430D01*
X141835000Y-49105322D01*
X141747053Y-48893000D01*
X145467153Y-48893000D01*
X145542000Y-48907888D01*
X145616847Y-48893000D01*
X145616852Y-48893000D01*
X145838537Y-48848904D01*
X146089929Y-48680929D01*
X146103913Y-48660000D01*
X146255874Y-48660000D01*
X146636280Y-48502431D01*
X146927431Y-48211280D01*
X147085000Y-47830874D01*
X147085000Y-47829801D01*
X158545002Y-59289804D01*
X158545002Y-60360231D01*
X157904678Y-60095000D01*
X157055322Y-60095000D01*
X156270620Y-60420034D01*
X155670034Y-61020620D01*
X155345000Y-61805322D01*
X155345000Y-62654678D01*
X155650926Y-63393249D01*
X155368305Y-63510314D01*
X154950314Y-63928305D01*
X154724100Y-64474436D01*
X154724100Y-65065564D01*
X154950314Y-65611695D01*
X155368305Y-66029686D01*
X155914436Y-66255900D01*
X156505564Y-66255900D01*
X157051695Y-66029686D01*
X157469686Y-65611695D01*
X157695900Y-65065564D01*
X157695900Y-64474436D01*
X157650570Y-64365000D01*
X157904678Y-64365000D01*
X158117001Y-64277053D01*
X158117000Y-72658155D01*
X158102112Y-72733002D01*
X158117000Y-72807849D01*
X158117000Y-72807853D01*
X158161096Y-73029538D01*
X158329071Y-73280931D01*
X158392530Y-73323333D01*
X159445345Y-74376149D01*
X159306720Y-74433569D01*
X159015569Y-74724720D01*
X158858000Y-75105126D01*
X158858000Y-75516874D01*
X159015569Y-75897280D01*
X159306720Y-76188431D01*
X159687126Y-76346000D01*
X160098874Y-76346000D01*
X160479280Y-76188431D01*
X160770431Y-75897280D01*
X160928000Y-75516874D01*
X160928000Y-75328618D01*
X161008903Y-75207538D01*
X161052999Y-74985853D01*
X161052999Y-74985849D01*
X161067887Y-74911002D01*
X161052999Y-74836155D01*
X161052999Y-74223848D01*
X161067887Y-74149001D01*
X161052999Y-74074154D01*
X161052999Y-74074149D01*
X161008903Y-73852464D01*
X160840928Y-73601072D01*
X160777472Y-73558672D01*
X159637000Y-72418201D01*
X159637000Y-66834826D01*
X159800848Y-66998674D01*
X160767079Y-67398900D01*
X161812921Y-67398900D01*
X162779152Y-66998674D01*
X163518674Y-66259152D01*
X163918900Y-65292921D01*
X163918900Y-64247079D01*
X163518674Y-63280848D01*
X162779152Y-62541326D01*
X161812921Y-62141100D01*
X160767079Y-62141100D01*
X160065001Y-62431910D01*
X160065001Y-59265322D01*
X161695000Y-59265322D01*
X161695000Y-60114678D01*
X162020034Y-60899380D01*
X162620620Y-61499966D01*
X163405322Y-61825000D01*
X164254678Y-61825000D01*
X165039380Y-61499966D01*
X165639966Y-60899380D01*
X165965000Y-60114678D01*
X165965000Y-59265322D01*
X165639966Y-58480620D01*
X165039380Y-57880034D01*
X164254678Y-57555000D01*
X163405322Y-57555000D01*
X162620620Y-57880034D01*
X162020034Y-58480620D01*
X161695000Y-59265322D01*
X160065001Y-59265322D01*
X160065001Y-59049849D01*
X160079889Y-58975001D01*
X160065001Y-58900153D01*
X160065001Y-58900149D01*
X160020905Y-58678464D01*
X160020905Y-58678463D01*
X159895330Y-58490528D01*
X159852930Y-58427072D01*
X159789474Y-58384672D01*
X146489801Y-45085000D01*
X146724802Y-44850000D01*
X146890874Y-44850000D01*
X147271280Y-44692431D01*
X147562431Y-44401280D01*
X147720000Y-44020874D01*
X147720000Y-43609126D01*
X147562431Y-43228720D01*
X147271280Y-42937569D01*
X146931916Y-42797000D01*
X154075000Y-42797000D01*
X154075000Y-43604678D01*
X154400034Y-44389380D01*
X155000620Y-44989966D01*
X155785322Y-45315000D01*
X156556199Y-45315000D01*
X156276199Y-45595000D01*
X150700657Y-45595000D01*
X151044320Y-45251337D01*
X151257000Y-44737881D01*
X151257000Y-44182119D01*
X151044320Y-43668663D01*
X150651337Y-43275680D01*
X150137881Y-43063000D01*
X149582119Y-43063000D01*
X149068663Y-43275680D01*
X148675680Y-43668663D01*
X148463000Y-44182119D01*
X148463000Y-44737881D01*
X148675680Y-45251337D01*
X149068663Y-45644320D01*
X149095749Y-45655540D01*
X148982569Y-45768720D01*
X148825000Y-46149126D01*
X148825000Y-46560874D01*
X148982569Y-46941280D01*
X149273720Y-47232431D01*
X149654126Y-47390000D01*
X150065874Y-47390000D01*
X150446280Y-47232431D01*
X150563711Y-47115000D01*
X156516153Y-47115000D01*
X156591000Y-47129888D01*
X156665847Y-47115000D01*
X156665852Y-47115000D01*
X156887537Y-47070904D01*
X157138929Y-46902929D01*
X157181331Y-46839470D01*
X158661100Y-45359701D01*
X158661100Y-46242921D01*
X159061326Y-47209152D01*
X159298436Y-47446262D01*
X159174678Y-47395000D01*
X158325322Y-47395000D01*
X157540620Y-47720034D01*
X156940034Y-48320620D01*
X156615000Y-49105322D01*
X156615000Y-49954678D01*
X156940034Y-50739380D01*
X157540620Y-51339966D01*
X158325322Y-51665000D01*
X159174678Y-51665000D01*
X159913249Y-51359074D01*
X160030314Y-51641695D01*
X160448305Y-52059686D01*
X160994436Y-52285900D01*
X161585564Y-52285900D01*
X162131695Y-52059686D01*
X162549686Y-51641695D01*
X162775900Y-51095564D01*
X162775900Y-50504436D01*
X162549686Y-49958305D01*
X162131695Y-49540314D01*
X161585564Y-49314100D01*
X160994436Y-49314100D01*
X160885000Y-49359430D01*
X160885000Y-49105322D01*
X160559966Y-48320620D01*
X160461792Y-48222446D01*
X160767079Y-48348900D01*
X161812921Y-48348900D01*
X162779152Y-47948674D01*
X163070000Y-47657826D01*
X163070000Y-48058153D01*
X163055112Y-48133000D01*
X163070000Y-48207847D01*
X163070000Y-48207851D01*
X163114096Y-48429536D01*
X163282071Y-48680929D01*
X163345530Y-48723331D01*
X166785902Y-52163704D01*
X166785901Y-63333945D01*
X166665564Y-63284100D01*
X166074436Y-63284100D01*
X165528305Y-63510314D01*
X165110314Y-63928305D01*
X164884100Y-64474436D01*
X164884100Y-65065564D01*
X165110314Y-65611695D01*
X165528305Y-66029686D01*
X166074436Y-66255900D01*
X166665564Y-66255900D01*
X166785901Y-66206055D01*
X166785901Y-70518297D01*
X165568199Y-71736000D01*
X165402126Y-71736000D01*
X165021720Y-71893569D01*
X164730569Y-72184720D01*
X164573000Y-72565126D01*
X164573000Y-72976874D01*
X164730569Y-73357280D01*
X165021720Y-73648431D01*
X165208000Y-73725591D01*
X165208000Y-73865874D01*
X165365569Y-74246280D01*
X165656720Y-74537431D01*
X165970000Y-74667196D01*
X165970000Y-74881874D01*
X166127569Y-75262280D01*
X166418720Y-75553431D01*
X166799126Y-75711000D01*
X167210874Y-75711000D01*
X167591280Y-75553431D01*
X167882431Y-75262280D01*
X168040000Y-74881874D01*
X168040000Y-74715801D01*
X170008329Y-72747474D01*
X170008333Y-72747468D01*
X170643329Y-72112473D01*
X170643331Y-72112470D01*
X170664470Y-72091331D01*
X170727929Y-72048929D01*
X170895904Y-71797537D01*
X170940000Y-71575852D01*
X170940000Y-71575848D01*
X170954888Y-71501001D01*
X170940000Y-71426154D01*
X170940000Y-68155322D01*
X175665000Y-68155322D01*
X175665000Y-69004678D01*
X175990034Y-69789380D01*
X176590620Y-70389966D01*
X177375322Y-70715000D01*
X178224678Y-70715000D01*
X178963249Y-70409074D01*
X179080314Y-70691695D01*
X179498305Y-71109686D01*
X180044436Y-71335900D01*
X180635564Y-71335900D01*
X181181695Y-71109686D01*
X181599686Y-70691695D01*
X181825900Y-70145564D01*
X181825900Y-69554436D01*
X181599686Y-69008305D01*
X181181695Y-68590314D01*
X180635564Y-68364100D01*
X180044436Y-68364100D01*
X179935000Y-68409430D01*
X179935000Y-68155322D01*
X179609966Y-67370620D01*
X179511792Y-67272446D01*
X179817079Y-67398900D01*
X180862921Y-67398900D01*
X181829152Y-66998674D01*
X182568674Y-66259152D01*
X182968900Y-65292921D01*
X182968900Y-64247079D01*
X182568674Y-63280848D01*
X181829152Y-62541326D01*
X180862921Y-62141100D01*
X179817079Y-62141100D01*
X178850848Y-62541326D01*
X178111326Y-63280848D01*
X177711100Y-64247079D01*
X177711100Y-65292921D01*
X178111326Y-66259152D01*
X178348436Y-66496262D01*
X178224678Y-66445000D01*
X177375322Y-66445000D01*
X176590620Y-66770034D01*
X175990034Y-67370620D01*
X175665000Y-68155322D01*
X170940000Y-68155322D01*
X170940000Y-61805322D01*
X173125000Y-61805322D01*
X173125000Y-62654678D01*
X173450034Y-63439380D01*
X174050620Y-64039966D01*
X174835322Y-64365000D01*
X175684678Y-64365000D01*
X176469380Y-64039966D01*
X177069966Y-63439380D01*
X177395000Y-62654678D01*
X177395000Y-61805322D01*
X177069966Y-61020620D01*
X176469380Y-60420034D01*
X175684678Y-60095000D01*
X174835322Y-60095000D01*
X174050620Y-60420034D01*
X173450034Y-61020620D01*
X173125000Y-61805322D01*
X170940000Y-61805322D01*
X170940000Y-59394436D01*
X178854100Y-59394436D01*
X178854100Y-59985564D01*
X179080314Y-60531695D01*
X179498305Y-60949686D01*
X180044436Y-61175900D01*
X180635564Y-61175900D01*
X181181695Y-60949686D01*
X181599686Y-60531695D01*
X181825900Y-59985564D01*
X181825900Y-59394436D01*
X181599686Y-58848305D01*
X181181695Y-58430314D01*
X180635564Y-58204100D01*
X180044436Y-58204100D01*
X179498305Y-58430314D01*
X179080314Y-58848305D01*
X178854100Y-59394436D01*
X170940000Y-59394436D01*
X170940000Y-54967119D01*
X188214000Y-54967119D01*
X188214000Y-55522881D01*
X188426680Y-56036337D01*
X188819663Y-56429320D01*
X189333119Y-56642000D01*
X189888881Y-56642000D01*
X190402337Y-56429320D01*
X190795320Y-56036337D01*
X191008000Y-55522881D01*
X191008000Y-54967119D01*
X190795320Y-54453663D01*
X190402337Y-54060680D01*
X189888881Y-53848000D01*
X189333119Y-53848000D01*
X188819663Y-54060680D01*
X188426680Y-54453663D01*
X188214000Y-54967119D01*
X170940000Y-54967119D01*
X170940000Y-49105322D01*
X175665000Y-49105322D01*
X175665000Y-49954678D01*
X175990034Y-50739380D01*
X176590620Y-51339966D01*
X177375322Y-51665000D01*
X178224678Y-51665000D01*
X178963249Y-51359074D01*
X179080314Y-51641695D01*
X179498305Y-52059686D01*
X180044436Y-52285900D01*
X180635564Y-52285900D01*
X181181695Y-52059686D01*
X181599686Y-51641695D01*
X181825900Y-51095564D01*
X181825900Y-50504436D01*
X181599686Y-49958305D01*
X181181695Y-49540314D01*
X180635564Y-49314100D01*
X180044436Y-49314100D01*
X179935000Y-49359430D01*
X179935000Y-49105322D01*
X179609966Y-48320620D01*
X179511792Y-48222446D01*
X179817079Y-48348900D01*
X180862921Y-48348900D01*
X181829152Y-47948674D01*
X182568674Y-47209152D01*
X182968900Y-46242921D01*
X182968900Y-45197079D01*
X182568674Y-44230848D01*
X181829152Y-43491326D01*
X180862921Y-43091100D01*
X179817079Y-43091100D01*
X178850848Y-43491326D01*
X178111326Y-44230848D01*
X177711100Y-45197079D01*
X177711100Y-46242921D01*
X178111326Y-47209152D01*
X178348436Y-47446262D01*
X178224678Y-47395000D01*
X177375322Y-47395000D01*
X176590620Y-47720034D01*
X175990034Y-48320620D01*
X175665000Y-49105322D01*
X170940000Y-49105322D01*
X170940000Y-47566711D01*
X171057431Y-47449280D01*
X171215000Y-47068874D01*
X171215000Y-46657126D01*
X171057431Y-46276720D01*
X170766280Y-45985569D01*
X170385874Y-45828000D01*
X169974126Y-45828000D01*
X169593720Y-45985569D01*
X169302569Y-46276720D01*
X169145000Y-46657126D01*
X169145000Y-46994944D01*
X169076929Y-46893069D01*
X169013473Y-46850669D01*
X168400000Y-46237197D01*
X168400000Y-45760853D01*
X168632119Y-45857000D01*
X169187881Y-45857000D01*
X169701337Y-45644320D01*
X170094320Y-45251337D01*
X170307000Y-44737881D01*
X170307000Y-44182119D01*
X170094320Y-43668663D01*
X169701337Y-43275680D01*
X169187881Y-43063000D01*
X168632119Y-43063000D01*
X168400000Y-43159147D01*
X168400000Y-42755322D01*
X173125000Y-42755322D01*
X173125000Y-43604678D01*
X173450034Y-44389380D01*
X174050620Y-44989966D01*
X174835322Y-45315000D01*
X175684678Y-45315000D01*
X176469380Y-44989966D01*
X177069966Y-44389380D01*
X177395000Y-43604678D01*
X177395000Y-42755322D01*
X177069966Y-41970620D01*
X176469380Y-41370034D01*
X175684678Y-41045000D01*
X174835322Y-41045000D01*
X174050620Y-41370034D01*
X173450034Y-41970620D01*
X173125000Y-42755322D01*
X168400000Y-42755322D01*
X168400000Y-41343711D01*
X168517431Y-41226280D01*
X168675000Y-40845874D01*
X168675000Y-40434126D01*
X168637850Y-40344436D01*
X178854100Y-40344436D01*
X178854100Y-40935564D01*
X179080314Y-41481695D01*
X179498305Y-41899686D01*
X180044436Y-42125900D01*
X180635564Y-42125900D01*
X181181695Y-41899686D01*
X181599686Y-41481695D01*
X181825900Y-40935564D01*
X181825900Y-40344436D01*
X181599686Y-39798305D01*
X181181695Y-39380314D01*
X180635564Y-39154100D01*
X180044436Y-39154100D01*
X179498305Y-39380314D01*
X179080314Y-39798305D01*
X178854100Y-40344436D01*
X168637850Y-40344436D01*
X168517431Y-40053720D01*
X168226280Y-39762569D01*
X167845874Y-39605000D01*
X167434126Y-39605000D01*
X167053720Y-39762569D01*
X166762569Y-40053720D01*
X166605000Y-40434126D01*
X166605000Y-40845874D01*
X166762569Y-41226280D01*
X166880001Y-41343712D01*
X166880000Y-46477151D01*
X166865112Y-46551998D01*
X166880000Y-46626845D01*
X166880000Y-46626849D01*
X166924096Y-46848534D01*
X167092071Y-47099927D01*
X167155530Y-47142329D01*
X167769000Y-47755800D01*
X167769000Y-47953851D01*
X167769001Y-47953856D01*
X167769001Y-50997199D01*
X164590000Y-47818199D01*
X164590000Y-45359027D01*
X164894126Y-45485000D01*
X165305874Y-45485000D01*
X165686280Y-45327431D01*
X165977431Y-45036280D01*
X166135000Y-44655874D01*
X166135000Y-44244126D01*
X165977431Y-43863720D01*
X165686280Y-43572569D01*
X165305874Y-43415000D01*
X164894126Y-43415000D01*
X164513720Y-43572569D01*
X164396289Y-43690000D01*
X164144802Y-43690000D01*
X163399801Y-42945000D01*
X163400874Y-42945000D01*
X163781280Y-42787431D01*
X164072431Y-42496280D01*
X164230000Y-42115874D01*
X164230000Y-41704126D01*
X164072431Y-41323720D01*
X163781280Y-41032569D01*
X163400874Y-40875000D01*
X162989126Y-40875000D01*
X162762022Y-40969070D01*
X162775900Y-40935564D01*
X162775900Y-40344436D01*
X162549686Y-39798305D01*
X162131695Y-39380314D01*
X161676137Y-39191616D01*
X161676137Y-39136400D01*
X161518568Y-38755994D01*
X161227417Y-38464843D01*
X160847011Y-38307274D01*
X160435263Y-38307274D01*
X160317628Y-38356000D01*
X150939657Y-38356000D01*
X151044320Y-38251337D01*
X151257000Y-37737881D01*
X151257000Y-37182119D01*
X167513000Y-37182119D01*
X167513000Y-37737881D01*
X167725680Y-38251337D01*
X168118663Y-38644320D01*
X168632119Y-38857000D01*
X169187881Y-38857000D01*
X169701337Y-38644320D01*
X170094320Y-38251337D01*
X170307000Y-37737881D01*
X170307000Y-37182119D01*
X170094320Y-36668663D01*
X169701337Y-36275680D01*
X169448904Y-36171119D01*
X188214000Y-36171119D01*
X188214000Y-36726881D01*
X188426680Y-37240337D01*
X188819663Y-37633320D01*
X189333119Y-37846000D01*
X189888881Y-37846000D01*
X190402337Y-37633320D01*
X190795320Y-37240337D01*
X191008000Y-36726881D01*
X191008000Y-36171119D01*
X190795320Y-35657663D01*
X190402337Y-35264680D01*
X189888881Y-35052000D01*
X189333119Y-35052000D01*
X188819663Y-35264680D01*
X188426680Y-35657663D01*
X188214000Y-36171119D01*
X169448904Y-36171119D01*
X169187881Y-36063000D01*
X168632119Y-36063000D01*
X168118663Y-36275680D01*
X167725680Y-36668663D01*
X167513000Y-37182119D01*
X151257000Y-37182119D01*
X151044320Y-36668663D01*
X150651337Y-36275680D01*
X150137881Y-36063000D01*
X149582119Y-36063000D01*
X149068663Y-36275680D01*
X148675680Y-36668663D01*
X148463000Y-37182119D01*
X148463000Y-37737881D01*
X148675680Y-38251337D01*
X148780343Y-38356000D01*
X93789657Y-38356000D01*
X93894320Y-38251337D01*
X94107000Y-37737881D01*
X94107000Y-37182119D01*
X93894320Y-36668663D01*
X93501337Y-36275680D01*
X93248904Y-36171119D01*
X102743000Y-36171119D01*
X102743000Y-36726881D01*
X102955680Y-37240337D01*
X103348663Y-37633320D01*
X103862119Y-37846000D01*
X104417881Y-37846000D01*
X104931337Y-37633320D01*
X105324320Y-37240337D01*
X105537000Y-36726881D01*
X105537000Y-36171119D01*
X140843000Y-36171119D01*
X140843000Y-36726881D01*
X141055680Y-37240337D01*
X141448663Y-37633320D01*
X141962119Y-37846000D01*
X142517881Y-37846000D01*
X143031337Y-37633320D01*
X143424320Y-37240337D01*
X143637000Y-36726881D01*
X143637000Y-36171119D01*
X143424320Y-35657663D01*
X143031337Y-35264680D01*
X142517881Y-35052000D01*
X141962119Y-35052000D01*
X141448663Y-35264680D01*
X141055680Y-35657663D01*
X140843000Y-36171119D01*
X105537000Y-36171119D01*
X105324320Y-35657663D01*
X104931337Y-35264680D01*
X104417881Y-35052000D01*
X103862119Y-35052000D01*
X103348663Y-35264680D01*
X102955680Y-35657663D01*
X102743000Y-36171119D01*
X93248904Y-36171119D01*
X92987881Y-36063000D01*
X92432119Y-36063000D01*
X91918663Y-36275680D01*
X91525680Y-36668663D01*
X91313000Y-37182119D01*
X91313000Y-37737881D01*
X91525680Y-38251337D01*
X91630343Y-38356000D01*
X74739657Y-38356000D01*
X74844320Y-38251337D01*
X75057000Y-37737881D01*
X75057000Y-37182119D01*
X74844320Y-36668663D01*
X74451337Y-36275680D01*
X73937881Y-36063000D01*
X73382119Y-36063000D01*
X72868663Y-36275680D01*
X72475680Y-36668663D01*
X72263000Y-37182119D01*
X72263000Y-37737881D01*
X72475680Y-38251337D01*
X72868663Y-38644320D01*
X72906356Y-38659933D01*
X72782569Y-38783720D01*
X72625000Y-39164126D01*
X72625000Y-39575874D01*
X72782569Y-39956280D01*
X73073720Y-40247431D01*
X73454126Y-40405000D01*
X73865874Y-40405000D01*
X74246280Y-40247431D01*
X74537431Y-39956280D01*
X74570684Y-39876000D01*
X83798132Y-39876000D01*
X83604100Y-40344436D01*
X83604100Y-40594999D01*
X74289847Y-40594999D01*
X74215000Y-40580111D01*
X74140153Y-40594999D01*
X74140149Y-40594999D01*
X73918464Y-40639095D01*
X73667072Y-40807070D01*
X73624672Y-40870526D01*
X73366198Y-41129000D01*
X73200126Y-41129000D01*
X72819720Y-41286569D01*
X72528569Y-41577720D01*
X72371000Y-41958126D01*
X72371000Y-42124198D01*
X71651530Y-42843669D01*
X71588071Y-42886071D01*
X71420096Y-43137464D01*
X71376000Y-43359149D01*
X71376000Y-43359153D01*
X71361112Y-43434000D01*
X67390755Y-43434000D01*
X66562921Y-43091100D01*
X65517079Y-43091100D01*
X64550848Y-43491326D01*
X63811326Y-44230848D01*
X63411100Y-45197079D01*
X63411100Y-46242921D01*
X63811326Y-47209152D01*
X64048436Y-47446262D01*
X63924678Y-47395000D01*
X63075322Y-47395000D01*
X62290620Y-47720034D01*
X61690034Y-48320620D01*
X61365000Y-49105322D01*
X55320000Y-49105322D01*
X55320000Y-42755322D01*
X58825000Y-42755322D01*
X58825000Y-43604678D01*
X59150034Y-44389380D01*
X59750620Y-44989966D01*
X60535322Y-45315000D01*
X61384678Y-45315000D01*
X62169380Y-44989966D01*
X62769966Y-44389380D01*
X63095000Y-43604678D01*
X63095000Y-42755322D01*
X62769966Y-41970620D01*
X62169380Y-41370034D01*
X61384678Y-41045000D01*
X60535322Y-41045000D01*
X59750620Y-41370034D01*
X59150034Y-41970620D01*
X58825000Y-42755322D01*
X55320000Y-42755322D01*
X55320000Y-40344436D01*
X64554100Y-40344436D01*
X64554100Y-40935564D01*
X64780314Y-41481695D01*
X65198305Y-41899686D01*
X65744436Y-42125900D01*
X66335564Y-42125900D01*
X66881695Y-41899686D01*
X67299686Y-41481695D01*
X67525900Y-40935564D01*
X67525900Y-40344436D01*
X67299686Y-39798305D01*
X66881695Y-39380314D01*
X66335564Y-39154100D01*
X65744436Y-39154100D01*
X65198305Y-39380314D01*
X64780314Y-39798305D01*
X64554100Y-40344436D01*
X55320000Y-40344436D01*
X55320000Y-36245580D01*
X55330663Y-36171119D01*
X55372000Y-36171119D01*
X55372000Y-36726881D01*
X55584680Y-37240337D01*
X55977663Y-37633320D01*
X56491119Y-37846000D01*
X57046881Y-37846000D01*
X57560337Y-37633320D01*
X57953320Y-37240337D01*
X58166000Y-36726881D01*
X58166000Y-36171119D01*
X57953320Y-35657663D01*
X57560337Y-35264680D01*
X57046881Y-35052000D01*
X56491119Y-35052000D01*
X55977663Y-35264680D01*
X55584680Y-35657663D01*
X55372000Y-36171119D01*
X55330663Y-36171119D01*
X55374985Y-35861636D01*
X55514372Y-35555072D01*
X55734199Y-35299950D01*
X56016792Y-35116782D01*
X56362959Y-35013257D01*
X56541350Y-35000000D01*
X189814420Y-35000000D01*
X190198364Y-35054985D01*
G36*
X101911326Y-44230848D02*
X101511100Y-45197079D01*
X101511100Y-46242921D01*
X101663563Y-46611000D01*
X93413711Y-46611000D01*
X93296280Y-46493569D01*
X92915874Y-46336000D01*
X92504126Y-46336000D01*
X92123720Y-46493569D01*
X91832569Y-46784720D01*
X91675000Y-47165126D01*
X91675000Y-47576874D01*
X91832569Y-47957280D01*
X92123720Y-48248431D01*
X92504126Y-48406000D01*
X92670199Y-48406000D01*
X93855001Y-49590803D01*
X93855000Y-53065973D01*
X93550874Y-52940000D01*
X93139126Y-52940000D01*
X92758720Y-53097569D01*
X92467569Y-53388720D01*
X92310000Y-53769126D01*
X92310000Y-54180874D01*
X92467569Y-54561280D01*
X92758720Y-54852431D01*
X93139126Y-55010000D01*
X93305199Y-55010000D01*
X93855001Y-55559803D01*
X93855000Y-70043198D01*
X90384199Y-73514000D01*
X90218126Y-73514000D01*
X89837720Y-73671569D01*
X89546569Y-73962720D01*
X89389000Y-74343126D01*
X89389000Y-74754874D01*
X89546569Y-75135280D01*
X89691245Y-75279956D01*
X89531201Y-75440000D01*
X86815848Y-75440000D01*
X86741000Y-75425112D01*
X86666152Y-75440000D01*
X86666148Y-75440000D01*
X86510789Y-75470903D01*
X86444462Y-75484096D01*
X86340696Y-75553431D01*
X86193071Y-75652071D01*
X86150671Y-75715527D01*
X85664199Y-76202000D01*
X84373521Y-76202000D01*
X84406280Y-76188431D01*
X84697431Y-75897280D01*
X84855000Y-75516874D01*
X84855000Y-75350801D01*
X87987473Y-72218329D01*
X88050929Y-72175929D01*
X88218904Y-71924537D01*
X88263000Y-71702852D01*
X88263000Y-71702848D01*
X88277888Y-71628000D01*
X88263000Y-71553152D01*
X88263000Y-65211801D01*
X88684100Y-64790701D01*
X88684100Y-65065564D01*
X88910314Y-65611695D01*
X89328305Y-66029686D01*
X89874436Y-66255900D01*
X90465564Y-66255900D01*
X91011695Y-66029686D01*
X91429686Y-65611695D01*
X91655900Y-65065564D01*
X91655900Y-64474436D01*
X91429686Y-63928305D01*
X91011695Y-63510314D01*
X90465564Y-63284100D01*
X90169010Y-63284100D01*
X90250904Y-63161537D01*
X90295000Y-62939852D01*
X90295000Y-62939847D01*
X90309888Y-62865000D01*
X90295000Y-62790153D01*
X90295000Y-55559801D01*
X90844802Y-55010000D01*
X91010874Y-55010000D01*
X91391280Y-54852431D01*
X91682431Y-54561280D01*
X91840000Y-54180874D01*
X91840000Y-53769126D01*
X91682431Y-53388720D01*
X91391280Y-53097569D01*
X91010874Y-52940000D01*
X90599126Y-52940000D01*
X90295000Y-53065973D01*
X90295000Y-45399801D01*
X91313000Y-44381802D01*
X91313000Y-44737881D01*
X91525680Y-45251337D01*
X91918663Y-45644320D01*
X92432119Y-45857000D01*
X92987881Y-45857000D01*
X93501337Y-45644320D01*
X93894320Y-45251337D01*
X94107000Y-44737881D01*
X94107000Y-44182119D01*
X93944618Y-43790093D01*
X94048711Y-43686000D01*
X95790197Y-43686000D01*
X97593672Y-45489477D01*
X97636070Y-45552930D01*
X97699523Y-45595328D01*
X97699525Y-45595330D01*
X97793460Y-45658095D01*
X97887462Y-45720905D01*
X98109147Y-45765001D01*
X98109151Y-45765001D01*
X98183998Y-45779889D01*
X98258845Y-45765001D01*
X99861154Y-45765001D01*
X99936001Y-45779889D01*
X100010848Y-45765001D01*
X100010853Y-45765001D01*
X100232538Y-45720905D01*
X100483930Y-45552930D01*
X100526332Y-45489471D01*
X102493805Y-43522000D01*
X102620174Y-43522000D01*
X101911326Y-44230848D01*
X101911326Y-44230848D01*
G37*
X101911326Y-44230848D02*
X101511100Y-45197079D01*
X101511100Y-46242921D01*
X101663563Y-46611000D01*
X93413711Y-46611000D01*
X93296280Y-46493569D01*
X92915874Y-46336000D01*
X92504126Y-46336000D01*
X92123720Y-46493569D01*
X91832569Y-46784720D01*
X91675000Y-47165126D01*
X91675000Y-47576874D01*
X91832569Y-47957280D01*
X92123720Y-48248431D01*
X92504126Y-48406000D01*
X92670199Y-48406000D01*
X93855001Y-49590803D01*
X93855000Y-53065973D01*
X93550874Y-52940000D01*
X93139126Y-52940000D01*
X92758720Y-53097569D01*
X92467569Y-53388720D01*
X92310000Y-53769126D01*
X92310000Y-54180874D01*
X92467569Y-54561280D01*
X92758720Y-54852431D01*
X93139126Y-55010000D01*
X93305199Y-55010000D01*
X93855001Y-55559803D01*
X93855000Y-70043198D01*
X90384199Y-73514000D01*
X90218126Y-73514000D01*
X89837720Y-73671569D01*
X89546569Y-73962720D01*
X89389000Y-74343126D01*
X89389000Y-74754874D01*
X89546569Y-75135280D01*
X89691245Y-75279956D01*
X89531201Y-75440000D01*
X86815848Y-75440000D01*
X86741000Y-75425112D01*
X86666152Y-75440000D01*
X86666148Y-75440000D01*
X86510789Y-75470903D01*
X86444462Y-75484096D01*
X86340696Y-75553431D01*
X86193071Y-75652071D01*
X86150671Y-75715527D01*
X85664199Y-76202000D01*
X84373521Y-76202000D01*
X84406280Y-76188431D01*
X84697431Y-75897280D01*
X84855000Y-75516874D01*
X84855000Y-75350801D01*
X87987473Y-72218329D01*
X88050929Y-72175929D01*
X88218904Y-71924537D01*
X88263000Y-71702852D01*
X88263000Y-71702848D01*
X88277888Y-71628000D01*
X88263000Y-71553152D01*
X88263000Y-65211801D01*
X88684100Y-64790701D01*
X88684100Y-65065564D01*
X88910314Y-65611695D01*
X89328305Y-66029686D01*
X89874436Y-66255900D01*
X90465564Y-66255900D01*
X91011695Y-66029686D01*
X91429686Y-65611695D01*
X91655900Y-65065564D01*
X91655900Y-64474436D01*
X91429686Y-63928305D01*
X91011695Y-63510314D01*
X90465564Y-63284100D01*
X90169010Y-63284100D01*
X90250904Y-63161537D01*
X90295000Y-62939852D01*
X90295000Y-62939847D01*
X90309888Y-62865000D01*
X90295000Y-62790153D01*
X90295000Y-55559801D01*
X90844802Y-55010000D01*
X91010874Y-55010000D01*
X91391280Y-54852431D01*
X91682431Y-54561280D01*
X91840000Y-54180874D01*
X91840000Y-53769126D01*
X91682431Y-53388720D01*
X91391280Y-53097569D01*
X91010874Y-52940000D01*
X90599126Y-52940000D01*
X90295000Y-53065973D01*
X90295000Y-45399801D01*
X91313000Y-44381802D01*
X91313000Y-44737881D01*
X91525680Y-45251337D01*
X91918663Y-45644320D01*
X92432119Y-45857000D01*
X92987881Y-45857000D01*
X93501337Y-45644320D01*
X93894320Y-45251337D01*
X94107000Y-44737881D01*
X94107000Y-44182119D01*
X93944618Y-43790093D01*
X94048711Y-43686000D01*
X95790197Y-43686000D01*
X97593672Y-45489477D01*
X97636070Y-45552930D01*
X97699523Y-45595328D01*
X97699525Y-45595330D01*
X97793460Y-45658095D01*
X97887462Y-45720905D01*
X98109147Y-45765001D01*
X98109151Y-45765001D01*
X98183998Y-45779889D01*
X98258845Y-45765001D01*
X99861154Y-45765001D01*
X99936001Y-45779889D01*
X100010848Y-45765001D01*
X100010853Y-45765001D01*
X100232538Y-45720905D01*
X100483930Y-45552930D01*
X100526332Y-45489471D01*
X102493805Y-43522000D01*
X102620174Y-43522000D01*
X101911326Y-44230848D01*
G36*
X99790034Y-48320620D02*
X99465000Y-49105322D01*
X99465000Y-49954678D01*
X99790034Y-50739380D01*
X100390620Y-51339966D01*
X101175322Y-51665000D01*
X102024678Y-51665000D01*
X102763249Y-51359074D01*
X102880314Y-51641695D01*
X103298305Y-52059686D01*
X103844436Y-52285900D01*
X104435564Y-52285900D01*
X104981695Y-52059686D01*
X105399686Y-51641695D01*
X105625900Y-51095564D01*
X105625900Y-50504436D01*
X105399686Y-49958305D01*
X104981695Y-49540314D01*
X104435564Y-49314100D01*
X103844436Y-49314100D01*
X103735000Y-49359430D01*
X103735000Y-49147000D01*
X112594262Y-49147000D01*
X112574152Y-49151000D01*
X112574148Y-49151000D01*
X112352463Y-49195096D01*
X112101071Y-49363071D01*
X112058671Y-49426527D01*
X103274528Y-58210671D01*
X103211072Y-58253071D01*
X103168672Y-58316527D01*
X103168671Y-58316528D01*
X103043097Y-58504463D01*
X102984112Y-58801000D01*
X102999001Y-58875852D01*
X102999000Y-61187200D01*
X102440361Y-61745839D01*
X102139966Y-61020620D01*
X101539380Y-60420034D01*
X100754678Y-60095000D01*
X99905322Y-60095000D01*
X99120620Y-60420034D01*
X98520034Y-61020620D01*
X98195000Y-61805322D01*
X98195000Y-62654678D01*
X98500926Y-63393249D01*
X98218305Y-63510314D01*
X97800314Y-63928305D01*
X97574100Y-64474436D01*
X97574100Y-65065564D01*
X97800314Y-65611695D01*
X98218305Y-66029686D01*
X98729691Y-66241508D01*
X95375000Y-69596200D01*
X95375000Y-55319846D01*
X95389888Y-55244999D01*
X95375000Y-55170152D01*
X95375000Y-49350848D01*
X95389888Y-49276000D01*
X95375000Y-49201152D01*
X95375000Y-49201148D01*
X95330904Y-48979463D01*
X95330904Y-48979462D01*
X95205329Y-48791527D01*
X95162929Y-48728071D01*
X95099473Y-48685671D01*
X94544802Y-48131000D01*
X99979654Y-48131000D01*
X99790034Y-48320620D01*
X99790034Y-48320620D01*
G37*
X99790034Y-48320620D02*
X99465000Y-49105322D01*
X99465000Y-49954678D01*
X99790034Y-50739380D01*
X100390620Y-51339966D01*
X101175322Y-51665000D01*
X102024678Y-51665000D01*
X102763249Y-51359074D01*
X102880314Y-51641695D01*
X103298305Y-52059686D01*
X103844436Y-52285900D01*
X104435564Y-52285900D01*
X104981695Y-52059686D01*
X105399686Y-51641695D01*
X105625900Y-51095564D01*
X105625900Y-50504436D01*
X105399686Y-49958305D01*
X104981695Y-49540314D01*
X104435564Y-49314100D01*
X103844436Y-49314100D01*
X103735000Y-49359430D01*
X103735000Y-49147000D01*
X112594262Y-49147000D01*
X112574152Y-49151000D01*
X112574148Y-49151000D01*
X112352463Y-49195096D01*
X112101071Y-49363071D01*
X112058671Y-49426527D01*
X103274528Y-58210671D01*
X103211072Y-58253071D01*
X103168672Y-58316527D01*
X103168671Y-58316528D01*
X103043097Y-58504463D01*
X102984112Y-58801000D01*
X102999001Y-58875852D01*
X102999000Y-61187200D01*
X102440361Y-61745839D01*
X102139966Y-61020620D01*
X101539380Y-60420034D01*
X100754678Y-60095000D01*
X99905322Y-60095000D01*
X99120620Y-60420034D01*
X98520034Y-61020620D01*
X98195000Y-61805322D01*
X98195000Y-62654678D01*
X98500926Y-63393249D01*
X98218305Y-63510314D01*
X97800314Y-63928305D01*
X97574100Y-64474436D01*
X97574100Y-65065564D01*
X97800314Y-65611695D01*
X98218305Y-66029686D01*
X98729691Y-66241508D01*
X95375000Y-69596200D01*
X95375000Y-55319846D01*
X95389888Y-55244999D01*
X95375000Y-55170152D01*
X95375000Y-49350848D01*
X95389888Y-49276000D01*
X95375000Y-49201152D01*
X95375000Y-49201148D01*
X95330904Y-48979463D01*
X95330904Y-48979462D01*
X95205329Y-48791527D01*
X95162929Y-48728071D01*
X95099473Y-48685671D01*
X94544802Y-48131000D01*
X99979654Y-48131000D01*
X99790034Y-48320620D01*
G36*
X116643672Y-45489477D02*
X116686070Y-45552930D01*
X116749523Y-45595328D01*
X116749525Y-45595330D01*
X116843460Y-45658095D01*
X116937462Y-45720905D01*
X117159147Y-45765001D01*
X117159151Y-45765001D01*
X117233998Y-45779889D01*
X117308845Y-45765001D01*
X118911154Y-45765001D01*
X118986001Y-45779889D01*
X119060848Y-45765001D01*
X119060853Y-45765001D01*
X119282538Y-45720905D01*
X119533930Y-45552930D01*
X119576332Y-45489471D01*
X121543805Y-43522000D01*
X121670174Y-43522000D01*
X120961326Y-44230848D01*
X120561100Y-45197079D01*
X120561100Y-46242921D01*
X120961326Y-47209152D01*
X121198436Y-47446262D01*
X121074678Y-47395000D01*
X120225322Y-47395000D01*
X119440620Y-47720034D01*
X118840034Y-48320620D01*
X118515000Y-49105322D01*
X118515000Y-49954678D01*
X118840034Y-50739380D01*
X119440620Y-51339966D01*
X120225322Y-51665000D01*
X121074678Y-51665000D01*
X121813249Y-51359074D01*
X121930314Y-51641695D01*
X122348305Y-52059686D01*
X122894436Y-52285900D01*
X123485564Y-52285900D01*
X124031695Y-52059686D01*
X124449686Y-51641695D01*
X124675900Y-51095564D01*
X124675900Y-50504436D01*
X124449686Y-49958305D01*
X124031695Y-49540314D01*
X123485564Y-49314100D01*
X122894436Y-49314100D01*
X122785000Y-49359430D01*
X122785000Y-49105322D01*
X122459966Y-48320620D01*
X122361792Y-48222446D01*
X122667079Y-48348900D01*
X123712921Y-48348900D01*
X124679152Y-47948674D01*
X125418674Y-47209152D01*
X125818900Y-46242921D01*
X125818900Y-45197079D01*
X125418674Y-44230848D01*
X124709826Y-43522000D01*
X133726197Y-43522000D01*
X135693672Y-45489477D01*
X135736070Y-45552930D01*
X135799523Y-45595328D01*
X135799525Y-45595330D01*
X135893460Y-45658095D01*
X135987462Y-45720905D01*
X136209147Y-45765001D01*
X136209151Y-45765001D01*
X136283998Y-45779889D01*
X136358845Y-45765001D01*
X137961154Y-45765001D01*
X138036001Y-45779889D01*
X138110848Y-45765001D01*
X138110853Y-45765001D01*
X138332538Y-45720905D01*
X138583930Y-45552930D01*
X138626332Y-45489471D01*
X140593805Y-43522000D01*
X140720174Y-43522000D01*
X140011326Y-44230848D01*
X139611100Y-45197079D01*
X139611100Y-46242921D01*
X139816168Y-46738000D01*
X137482711Y-46738000D01*
X137365280Y-46620569D01*
X136984874Y-46463000D01*
X136573126Y-46463000D01*
X136192720Y-46620569D01*
X135901569Y-46911720D01*
X135744000Y-47292126D01*
X135744000Y-47703874D01*
X135901569Y-48084280D01*
X136192720Y-48375431D01*
X136573126Y-48533000D01*
X136984874Y-48533000D01*
X137365280Y-48375431D01*
X137482711Y-48258000D01*
X137952654Y-48258000D01*
X137890034Y-48320620D01*
X137565000Y-49105322D01*
X137565000Y-49954678D01*
X137890034Y-50739380D01*
X138490620Y-51339966D01*
X139275322Y-51665000D01*
X140124678Y-51665000D01*
X140863249Y-51359074D01*
X140980314Y-51641695D01*
X141398305Y-52059686D01*
X141428034Y-52072000D01*
X135315802Y-52072000D01*
X132985999Y-49742198D01*
X132985999Y-46448845D01*
X133000887Y-46373998D01*
X132985999Y-46299151D01*
X132985999Y-46299147D01*
X132941903Y-46077462D01*
X132861000Y-45956382D01*
X132861000Y-45768126D01*
X132703431Y-45387720D01*
X132412280Y-45096569D01*
X132031874Y-44939000D01*
X131620126Y-44939000D01*
X131239720Y-45096569D01*
X130948569Y-45387720D01*
X130791000Y-45768126D01*
X130791000Y-46179874D01*
X130948569Y-46560280D01*
X131239720Y-46851431D01*
X131466000Y-46945159D01*
X131465999Y-49982152D01*
X131451111Y-50056999D01*
X131465999Y-50131846D01*
X131465999Y-50131850D01*
X131510095Y-50353535D01*
X131678070Y-50604928D01*
X131741529Y-50647330D01*
X134055198Y-52961000D01*
X132711630Y-52961000D01*
X129411000Y-49660371D01*
X129411000Y-46556846D01*
X129425888Y-46481999D01*
X129411000Y-46407152D01*
X129411000Y-46407148D01*
X129366904Y-46185463D01*
X129198929Y-45934071D01*
X129178000Y-45920087D01*
X129178000Y-45768126D01*
X129020431Y-45387720D01*
X128729280Y-45096569D01*
X128348874Y-44939000D01*
X127937126Y-44939000D01*
X127556720Y-45096569D01*
X127265569Y-45387720D01*
X127108000Y-45768126D01*
X127108000Y-46179874D01*
X127265569Y-46560280D01*
X127556720Y-46851431D01*
X127891001Y-46989894D01*
X127891000Y-49660370D01*
X124590371Y-52961000D01*
X118603513Y-52961000D01*
X118528666Y-52946112D01*
X118453819Y-52961000D01*
X118453814Y-52961000D01*
X118232129Y-53005096D01*
X117980737Y-53173071D01*
X117938337Y-53236527D01*
X106768900Y-64405964D01*
X106768900Y-64247079D01*
X106368674Y-63280848D01*
X105629152Y-62541326D01*
X104662921Y-62141100D01*
X104194704Y-62141100D01*
X104243473Y-62092331D01*
X104306929Y-62049931D01*
X104474904Y-61798539D01*
X104519000Y-61576854D01*
X104519000Y-61576850D01*
X104533888Y-61502003D01*
X104519000Y-61427156D01*
X104519000Y-59115801D01*
X104669112Y-58965689D01*
X104545000Y-59265322D01*
X104545000Y-60114678D01*
X104870034Y-60899380D01*
X105470620Y-61499966D01*
X106255322Y-61825000D01*
X107104678Y-61825000D01*
X107889380Y-61499966D01*
X108489966Y-60899380D01*
X108815000Y-60114678D01*
X108815000Y-59265322D01*
X108489966Y-58480620D01*
X107889380Y-57880034D01*
X107104678Y-57555000D01*
X106255322Y-57555000D01*
X105955689Y-57679112D01*
X112963802Y-50671000D01*
X113850289Y-50671000D01*
X113967720Y-50788431D01*
X114348126Y-50946000D01*
X114759874Y-50946000D01*
X115140280Y-50788431D01*
X115431431Y-50497280D01*
X115589000Y-50116874D01*
X115589000Y-49705126D01*
X115431431Y-49324720D01*
X115253711Y-49147000D01*
X116898289Y-49147000D01*
X117015720Y-49264431D01*
X117396126Y-49422000D01*
X117807874Y-49422000D01*
X118188280Y-49264431D01*
X118479431Y-48973280D01*
X118637000Y-48592874D01*
X118637000Y-48181126D01*
X118479431Y-47800720D01*
X118188280Y-47509569D01*
X117807874Y-47352000D01*
X117396126Y-47352000D01*
X117015720Y-47509569D01*
X116898289Y-47627000D01*
X105950826Y-47627000D01*
X106368674Y-47209152D01*
X106768900Y-46242921D01*
X106768900Y-45197079D01*
X106368674Y-44230848D01*
X105659826Y-43522000D01*
X114676197Y-43522000D01*
X116643672Y-45489477D01*
X116643672Y-45489477D01*
G37*
X116643672Y-45489477D02*
X116686070Y-45552930D01*
X116749523Y-45595328D01*
X116749525Y-45595330D01*
X116843460Y-45658095D01*
X116937462Y-45720905D01*
X117159147Y-45765001D01*
X117159151Y-45765001D01*
X117233998Y-45779889D01*
X117308845Y-45765001D01*
X118911154Y-45765001D01*
X118986001Y-45779889D01*
X119060848Y-45765001D01*
X119060853Y-45765001D01*
X119282538Y-45720905D01*
X119533930Y-45552930D01*
X119576332Y-45489471D01*
X121543805Y-43522000D01*
X121670174Y-43522000D01*
X120961326Y-44230848D01*
X120561100Y-45197079D01*
X120561100Y-46242921D01*
X120961326Y-47209152D01*
X121198436Y-47446262D01*
X121074678Y-47395000D01*
X120225322Y-47395000D01*
X119440620Y-47720034D01*
X118840034Y-48320620D01*
X118515000Y-49105322D01*
X118515000Y-49954678D01*
X118840034Y-50739380D01*
X119440620Y-51339966D01*
X120225322Y-51665000D01*
X121074678Y-51665000D01*
X121813249Y-51359074D01*
X121930314Y-51641695D01*
X122348305Y-52059686D01*
X122894436Y-52285900D01*
X123485564Y-52285900D01*
X124031695Y-52059686D01*
X124449686Y-51641695D01*
X124675900Y-51095564D01*
X124675900Y-50504436D01*
X124449686Y-49958305D01*
X124031695Y-49540314D01*
X123485564Y-49314100D01*
X122894436Y-49314100D01*
X122785000Y-49359430D01*
X122785000Y-49105322D01*
X122459966Y-48320620D01*
X122361792Y-48222446D01*
X122667079Y-48348900D01*
X123712921Y-48348900D01*
X124679152Y-47948674D01*
X125418674Y-47209152D01*
X125818900Y-46242921D01*
X125818900Y-45197079D01*
X125418674Y-44230848D01*
X124709826Y-43522000D01*
X133726197Y-43522000D01*
X135693672Y-45489477D01*
X135736070Y-45552930D01*
X135799523Y-45595328D01*
X135799525Y-45595330D01*
X135893460Y-45658095D01*
X135987462Y-45720905D01*
X136209147Y-45765001D01*
X136209151Y-45765001D01*
X136283998Y-45779889D01*
X136358845Y-45765001D01*
X137961154Y-45765001D01*
X138036001Y-45779889D01*
X138110848Y-45765001D01*
X138110853Y-45765001D01*
X138332538Y-45720905D01*
X138583930Y-45552930D01*
X138626332Y-45489471D01*
X140593805Y-43522000D01*
X140720174Y-43522000D01*
X140011326Y-44230848D01*
X139611100Y-45197079D01*
X139611100Y-46242921D01*
X139816168Y-46738000D01*
X137482711Y-46738000D01*
X137365280Y-46620569D01*
X136984874Y-46463000D01*
X136573126Y-46463000D01*
X136192720Y-46620569D01*
X135901569Y-46911720D01*
X135744000Y-47292126D01*
X135744000Y-47703874D01*
X135901569Y-48084280D01*
X136192720Y-48375431D01*
X136573126Y-48533000D01*
X136984874Y-48533000D01*
X137365280Y-48375431D01*
X137482711Y-48258000D01*
X137952654Y-48258000D01*
X137890034Y-48320620D01*
X137565000Y-49105322D01*
X137565000Y-49954678D01*
X137890034Y-50739380D01*
X138490620Y-51339966D01*
X139275322Y-51665000D01*
X140124678Y-51665000D01*
X140863249Y-51359074D01*
X140980314Y-51641695D01*
X141398305Y-52059686D01*
X141428034Y-52072000D01*
X135315802Y-52072000D01*
X132985999Y-49742198D01*
X132985999Y-46448845D01*
X133000887Y-46373998D01*
X132985999Y-46299151D01*
X132985999Y-46299147D01*
X132941903Y-46077462D01*
X132861000Y-45956382D01*
X132861000Y-45768126D01*
X132703431Y-45387720D01*
X132412280Y-45096569D01*
X132031874Y-44939000D01*
X131620126Y-44939000D01*
X131239720Y-45096569D01*
X130948569Y-45387720D01*
X130791000Y-45768126D01*
X130791000Y-46179874D01*
X130948569Y-46560280D01*
X131239720Y-46851431D01*
X131466000Y-46945159D01*
X131465999Y-49982152D01*
X131451111Y-50056999D01*
X131465999Y-50131846D01*
X131465999Y-50131850D01*
X131510095Y-50353535D01*
X131678070Y-50604928D01*
X131741529Y-50647330D01*
X134055198Y-52961000D01*
X132711630Y-52961000D01*
X129411000Y-49660371D01*
X129411000Y-46556846D01*
X129425888Y-46481999D01*
X129411000Y-46407152D01*
X129411000Y-46407148D01*
X129366904Y-46185463D01*
X129198929Y-45934071D01*
X129178000Y-45920087D01*
X129178000Y-45768126D01*
X129020431Y-45387720D01*
X128729280Y-45096569D01*
X128348874Y-44939000D01*
X127937126Y-44939000D01*
X127556720Y-45096569D01*
X127265569Y-45387720D01*
X127108000Y-45768126D01*
X127108000Y-46179874D01*
X127265569Y-46560280D01*
X127556720Y-46851431D01*
X127891001Y-46989894D01*
X127891000Y-49660370D01*
X124590371Y-52961000D01*
X118603513Y-52961000D01*
X118528666Y-52946112D01*
X118453819Y-52961000D01*
X118453814Y-52961000D01*
X118232129Y-53005096D01*
X117980737Y-53173071D01*
X117938337Y-53236527D01*
X106768900Y-64405964D01*
X106768900Y-64247079D01*
X106368674Y-63280848D01*
X105629152Y-62541326D01*
X104662921Y-62141100D01*
X104194704Y-62141100D01*
X104243473Y-62092331D01*
X104306929Y-62049931D01*
X104474904Y-61798539D01*
X104519000Y-61576854D01*
X104519000Y-61576850D01*
X104533888Y-61502003D01*
X104519000Y-61427156D01*
X104519000Y-59115801D01*
X104669112Y-58965689D01*
X104545000Y-59265322D01*
X104545000Y-60114678D01*
X104870034Y-60899380D01*
X105470620Y-61499966D01*
X106255322Y-61825000D01*
X107104678Y-61825000D01*
X107889380Y-61499966D01*
X108489966Y-60899380D01*
X108815000Y-60114678D01*
X108815000Y-59265322D01*
X108489966Y-58480620D01*
X107889380Y-57880034D01*
X107104678Y-57555000D01*
X106255322Y-57555000D01*
X105955689Y-57679112D01*
X112963802Y-50671000D01*
X113850289Y-50671000D01*
X113967720Y-50788431D01*
X114348126Y-50946000D01*
X114759874Y-50946000D01*
X115140280Y-50788431D01*
X115431431Y-50497280D01*
X115589000Y-50116874D01*
X115589000Y-49705126D01*
X115431431Y-49324720D01*
X115253711Y-49147000D01*
X116898289Y-49147000D01*
X117015720Y-49264431D01*
X117396126Y-49422000D01*
X117807874Y-49422000D01*
X118188280Y-49264431D01*
X118479431Y-48973280D01*
X118637000Y-48592874D01*
X118637000Y-48181126D01*
X118479431Y-47800720D01*
X118188280Y-47509569D01*
X117807874Y-47352000D01*
X117396126Y-47352000D01*
X117015720Y-47509569D01*
X116898289Y-47627000D01*
X105950826Y-47627000D01*
X106368674Y-47209152D01*
X106768900Y-46242921D01*
X106768900Y-45197079D01*
X106368674Y-44230848D01*
X105659826Y-43522000D01*
X114676197Y-43522000D01*
X116643672Y-45489477D01*
G36*
X89050530Y-44494669D02*
X88987071Y-44537071D01*
X88819096Y-44788464D01*
X88775000Y-45010149D01*
X88775000Y-45010153D01*
X88760112Y-45085000D01*
X88775000Y-45159847D01*
X88775001Y-55170144D01*
X88775000Y-55170149D01*
X88775000Y-55170153D01*
X88760112Y-55245000D01*
X88775000Y-55319847D01*
X88775000Y-57853367D01*
X88054678Y-57555000D01*
X87205322Y-57555000D01*
X86420620Y-57880034D01*
X85820034Y-58480620D01*
X85495000Y-59265322D01*
X85495000Y-60114678D01*
X85820034Y-60899380D01*
X86420620Y-61499966D01*
X87205322Y-61825000D01*
X88054678Y-61825000D01*
X88775001Y-61526633D01*
X88775001Y-62550197D01*
X87531220Y-63793979D01*
X87318674Y-63280848D01*
X86579152Y-62541326D01*
X85612921Y-62141100D01*
X84567079Y-62141100D01*
X83865001Y-62431910D01*
X83865001Y-60954849D01*
X83879889Y-60880001D01*
X83865001Y-60805153D01*
X83865001Y-60805149D01*
X83820905Y-60583464D01*
X83820905Y-60583463D01*
X83695330Y-60395528D01*
X83652930Y-60332072D01*
X83589474Y-60289672D01*
X80219331Y-56919530D01*
X80219329Y-56919527D01*
X77298331Y-53998530D01*
X77298329Y-53998527D01*
X75690000Y-52390199D01*
X75690000Y-51503711D01*
X75807431Y-51386280D01*
X75965000Y-51005874D01*
X75965000Y-50594126D01*
X75807431Y-50213720D01*
X75516280Y-49922569D01*
X75135874Y-49765000D01*
X74724126Y-49765000D01*
X74343720Y-49922569D01*
X74052569Y-50213720D01*
X73895000Y-50594126D01*
X73895000Y-51005874D01*
X74052569Y-51386280D01*
X74170001Y-51503712D01*
X74170000Y-52630153D01*
X74155112Y-52705000D01*
X74170000Y-52779847D01*
X74170000Y-52779851D01*
X74214096Y-53001536D01*
X74382071Y-53252929D01*
X74445530Y-53295331D01*
X76223527Y-55073329D01*
X76223530Y-55073331D01*
X79144527Y-57994329D01*
X79144530Y-57994331D01*
X81245198Y-60095000D01*
X80855322Y-60095000D01*
X80070620Y-60420034D01*
X79470034Y-61020620D01*
X79145000Y-61805322D01*
X79145000Y-62654678D01*
X79450926Y-63393249D01*
X79168305Y-63510314D01*
X78750314Y-63928305D01*
X78677811Y-64103343D01*
X72896000Y-58321533D01*
X72896000Y-46755000D01*
X73230874Y-46755000D01*
X73611280Y-46597431D01*
X73728711Y-46480000D01*
X81583179Y-46480000D01*
X81658026Y-46494888D01*
X81732873Y-46480000D01*
X81732878Y-46480000D01*
X81954563Y-46435904D01*
X82205955Y-46267929D01*
X82248357Y-46204470D01*
X82461100Y-45991727D01*
X82461100Y-46242921D01*
X82861326Y-47209152D01*
X83098436Y-47446262D01*
X82974678Y-47395000D01*
X82125322Y-47395000D01*
X81340620Y-47720034D01*
X80740034Y-48320620D01*
X80415000Y-49105322D01*
X80415000Y-49954678D01*
X80740034Y-50739380D01*
X81340620Y-51339966D01*
X82125322Y-51665000D01*
X82974678Y-51665000D01*
X83713249Y-51359074D01*
X83830314Y-51641695D01*
X84248305Y-52059686D01*
X84794436Y-52285900D01*
X85385564Y-52285900D01*
X85931695Y-52059686D01*
X86349686Y-51641695D01*
X86575900Y-51095564D01*
X86575900Y-50504436D01*
X86349686Y-49958305D01*
X85931695Y-49540314D01*
X85385564Y-49314100D01*
X84794436Y-49314100D01*
X84685000Y-49359430D01*
X84685000Y-49105322D01*
X84359966Y-48320620D01*
X84261792Y-48222446D01*
X84567079Y-48348900D01*
X85612921Y-48348900D01*
X86579152Y-47948674D01*
X87318674Y-47209152D01*
X87718900Y-46242921D01*
X87718900Y-45197079D01*
X87318674Y-44230848D01*
X87266868Y-44179042D01*
X87458530Y-43987379D01*
X87616099Y-43606973D01*
X87616099Y-43195225D01*
X87458530Y-42814819D01*
X87440711Y-42797000D01*
X90748198Y-42797000D01*
X89050530Y-44494669D01*
X89050530Y-44494669D01*
G37*
X89050530Y-44494669D02*
X88987071Y-44537071D01*
X88819096Y-44788464D01*
X88775000Y-45010149D01*
X88775000Y-45010153D01*
X88760112Y-45085000D01*
X88775000Y-45159847D01*
X88775001Y-55170144D01*
X88775000Y-55170149D01*
X88775000Y-55170153D01*
X88760112Y-55245000D01*
X88775000Y-55319847D01*
X88775000Y-57853367D01*
X88054678Y-57555000D01*
X87205322Y-57555000D01*
X86420620Y-57880034D01*
X85820034Y-58480620D01*
X85495000Y-59265322D01*
X85495000Y-60114678D01*
X85820034Y-60899380D01*
X86420620Y-61499966D01*
X87205322Y-61825000D01*
X88054678Y-61825000D01*
X88775001Y-61526633D01*
X88775001Y-62550197D01*
X87531220Y-63793979D01*
X87318674Y-63280848D01*
X86579152Y-62541326D01*
X85612921Y-62141100D01*
X84567079Y-62141100D01*
X83865001Y-62431910D01*
X83865001Y-60954849D01*
X83879889Y-60880001D01*
X83865001Y-60805153D01*
X83865001Y-60805149D01*
X83820905Y-60583464D01*
X83820905Y-60583463D01*
X83695330Y-60395528D01*
X83652930Y-60332072D01*
X83589474Y-60289672D01*
X80219331Y-56919530D01*
X80219329Y-56919527D01*
X77298331Y-53998530D01*
X77298329Y-53998527D01*
X75690000Y-52390199D01*
X75690000Y-51503711D01*
X75807431Y-51386280D01*
X75965000Y-51005874D01*
X75965000Y-50594126D01*
X75807431Y-50213720D01*
X75516280Y-49922569D01*
X75135874Y-49765000D01*
X74724126Y-49765000D01*
X74343720Y-49922569D01*
X74052569Y-50213720D01*
X73895000Y-50594126D01*
X73895000Y-51005874D01*
X74052569Y-51386280D01*
X74170001Y-51503712D01*
X74170000Y-52630153D01*
X74155112Y-52705000D01*
X74170000Y-52779847D01*
X74170000Y-52779851D01*
X74214096Y-53001536D01*
X74382071Y-53252929D01*
X74445530Y-53295331D01*
X76223527Y-55073329D01*
X76223530Y-55073331D01*
X79144527Y-57994329D01*
X79144530Y-57994331D01*
X81245198Y-60095000D01*
X80855322Y-60095000D01*
X80070620Y-60420034D01*
X79470034Y-61020620D01*
X79145000Y-61805322D01*
X79145000Y-62654678D01*
X79450926Y-63393249D01*
X79168305Y-63510314D01*
X78750314Y-63928305D01*
X78677811Y-64103343D01*
X72896000Y-58321533D01*
X72896000Y-46755000D01*
X73230874Y-46755000D01*
X73611280Y-46597431D01*
X73728711Y-46480000D01*
X81583179Y-46480000D01*
X81658026Y-46494888D01*
X81732873Y-46480000D01*
X81732878Y-46480000D01*
X81954563Y-46435904D01*
X82205955Y-46267929D01*
X82248357Y-46204470D01*
X82461100Y-45991727D01*
X82461100Y-46242921D01*
X82861326Y-47209152D01*
X83098436Y-47446262D01*
X82974678Y-47395000D01*
X82125322Y-47395000D01*
X81340620Y-47720034D01*
X80740034Y-48320620D01*
X80415000Y-49105322D01*
X80415000Y-49954678D01*
X80740034Y-50739380D01*
X81340620Y-51339966D01*
X82125322Y-51665000D01*
X82974678Y-51665000D01*
X83713249Y-51359074D01*
X83830314Y-51641695D01*
X84248305Y-52059686D01*
X84794436Y-52285900D01*
X85385564Y-52285900D01*
X85931695Y-52059686D01*
X86349686Y-51641695D01*
X86575900Y-51095564D01*
X86575900Y-50504436D01*
X86349686Y-49958305D01*
X85931695Y-49540314D01*
X85385564Y-49314100D01*
X84794436Y-49314100D01*
X84685000Y-49359430D01*
X84685000Y-49105322D01*
X84359966Y-48320620D01*
X84261792Y-48222446D01*
X84567079Y-48348900D01*
X85612921Y-48348900D01*
X86579152Y-47948674D01*
X87318674Y-47209152D01*
X87718900Y-46242921D01*
X87718900Y-45197079D01*
X87318674Y-44230848D01*
X87266868Y-44179042D01*
X87458530Y-43987379D01*
X87616099Y-43606973D01*
X87616099Y-43195225D01*
X87458530Y-42814819D01*
X87440711Y-42797000D01*
X90748198Y-42797000D01*
X89050530Y-44494669D01*
G04 #@! TD*
M02*
