G04 #@! TF.GenerationSoftware,KiCad,Pcbnew,5.0.1-33cea8e~68~ubuntu18.04.1*
G04 #@! TF.CreationDate,2018-10-28T16:56:34+09:00*
G04 #@! TF.ProjectId,modulo-ergo42,6D6F64756C6F2D6572676F34322E6B69,rev?*
G04 #@! TF.SameCoordinates,Original*
G04 #@! TF.FileFunction,Soldermask,Bot*
G04 #@! TF.FilePolarity,Negative*
%FSLAX46Y46*%
G04 Gerber Fmt 4.6, Leading zero omitted, Abs format (unit mm)*
G04 Created by KiCad (PCBNEW 5.0.1-33cea8e~68~ubuntu18.04.1) date 2018年10月28日 16時56分34秒*
%MOMM*%
%LPD*%
G01*
G04 APERTURE LIST*
%ADD10C,0.100000*%
G04 APERTURE END LIST*
D10*
G36*
X189848142Y-111359242D02*
X189996102Y-111420530D01*
X190129258Y-111509502D01*
X190242498Y-111622742D01*
X190331470Y-111755898D01*
X190392758Y-111903858D01*
X190424000Y-112060925D01*
X190424000Y-112221075D01*
X190392758Y-112378142D01*
X190331470Y-112526102D01*
X190242498Y-112659258D01*
X190129258Y-112772498D01*
X189996102Y-112861470D01*
X189848142Y-112922758D01*
X189691075Y-112954000D01*
X189530925Y-112954000D01*
X189373858Y-112922758D01*
X189225898Y-112861470D01*
X189092742Y-112772498D01*
X188979502Y-112659258D01*
X188890530Y-112526102D01*
X188829242Y-112378142D01*
X188798000Y-112221075D01*
X188798000Y-112060925D01*
X188829242Y-111903858D01*
X188890530Y-111755898D01*
X188979502Y-111622742D01*
X189092742Y-111509502D01*
X189225898Y-111420530D01*
X189373858Y-111359242D01*
X189530925Y-111328000D01*
X189691075Y-111328000D01*
X189848142Y-111359242D01*
X189848142Y-111359242D01*
G37*
G36*
X142477142Y-111359242D02*
X142625102Y-111420530D01*
X142758258Y-111509502D01*
X142871498Y-111622742D01*
X142960470Y-111755898D01*
X143021758Y-111903858D01*
X143053000Y-112060925D01*
X143053000Y-112221075D01*
X143021758Y-112378142D01*
X142960470Y-112526102D01*
X142871498Y-112659258D01*
X142758258Y-112772498D01*
X142625102Y-112861470D01*
X142477142Y-112922758D01*
X142320075Y-112954000D01*
X142159925Y-112954000D01*
X142002858Y-112922758D01*
X141854898Y-112861470D01*
X141721742Y-112772498D01*
X141608502Y-112659258D01*
X141519530Y-112526102D01*
X141458242Y-112378142D01*
X141427000Y-112221075D01*
X141427000Y-112060925D01*
X141458242Y-111903858D01*
X141519530Y-111755898D01*
X141608502Y-111622742D01*
X141721742Y-111509502D01*
X141854898Y-111420530D01*
X142002858Y-111359242D01*
X142159925Y-111328000D01*
X142320075Y-111328000D01*
X142477142Y-111359242D01*
X142477142Y-111359242D01*
G37*
G36*
X104377142Y-111359242D02*
X104525102Y-111420530D01*
X104658258Y-111509502D01*
X104771498Y-111622742D01*
X104860470Y-111755898D01*
X104921758Y-111903858D01*
X104953000Y-112060925D01*
X104953000Y-112221075D01*
X104921758Y-112378142D01*
X104860470Y-112526102D01*
X104771498Y-112659258D01*
X104658258Y-112772498D01*
X104525102Y-112861470D01*
X104377142Y-112922758D01*
X104220075Y-112954000D01*
X104059925Y-112954000D01*
X103902858Y-112922758D01*
X103754898Y-112861470D01*
X103621742Y-112772498D01*
X103508502Y-112659258D01*
X103419530Y-112526102D01*
X103358242Y-112378142D01*
X103327000Y-112221075D01*
X103327000Y-112060925D01*
X103358242Y-111903858D01*
X103419530Y-111755898D01*
X103508502Y-111622742D01*
X103621742Y-111509502D01*
X103754898Y-111420530D01*
X103902858Y-111359242D01*
X104059925Y-111328000D01*
X104220075Y-111328000D01*
X104377142Y-111359242D01*
X104377142Y-111359242D01*
G37*
G36*
X57006142Y-111359242D02*
X57154102Y-111420530D01*
X57287258Y-111509502D01*
X57400498Y-111622742D01*
X57489470Y-111755898D01*
X57550758Y-111903858D01*
X57582000Y-112060925D01*
X57582000Y-112221075D01*
X57550758Y-112378142D01*
X57489470Y-112526102D01*
X57400498Y-112659258D01*
X57287258Y-112772498D01*
X57154102Y-112861470D01*
X57006142Y-112922758D01*
X56849075Y-112954000D01*
X56688925Y-112954000D01*
X56531858Y-112922758D01*
X56383898Y-112861470D01*
X56250742Y-112772498D01*
X56137502Y-112659258D01*
X56048530Y-112526102D01*
X55987242Y-112378142D01*
X55956000Y-112221075D01*
X55956000Y-112060925D01*
X55987242Y-111903858D01*
X56048530Y-111755898D01*
X56137502Y-111622742D01*
X56250742Y-111509502D01*
X56383898Y-111420530D01*
X56531858Y-111359242D01*
X56688925Y-111328000D01*
X56849075Y-111328000D01*
X57006142Y-111359242D01*
X57006142Y-111359242D01*
G37*
G36*
X186721000Y-111171000D02*
X184119000Y-111171000D01*
X184119000Y-108069000D01*
X186721000Y-108069000D01*
X186721000Y-111171000D01*
X186721000Y-111171000D01*
G37*
G36*
X72421000Y-111171000D02*
X69819000Y-111171000D01*
X69819000Y-108069000D01*
X72421000Y-108069000D01*
X72421000Y-111171000D01*
X72421000Y-111171000D01*
G37*
G36*
X180544993Y-107071206D02*
X180603075Y-107082759D01*
X180651149Y-107102672D01*
X180767210Y-107150746D01*
X180914931Y-107249450D01*
X181040550Y-107375069D01*
X181139254Y-107522790D01*
X181207241Y-107686926D01*
X181241900Y-107861169D01*
X181241900Y-108038831D01*
X181207241Y-108213074D01*
X181139254Y-108377210D01*
X181040550Y-108524931D01*
X180914931Y-108650550D01*
X180767210Y-108749254D01*
X180651149Y-108797328D01*
X180603075Y-108817241D01*
X180544993Y-108828794D01*
X180428831Y-108851900D01*
X180251169Y-108851900D01*
X180135007Y-108828794D01*
X180076925Y-108817241D01*
X180028851Y-108797328D01*
X179912790Y-108749254D01*
X179765069Y-108650550D01*
X179639450Y-108524931D01*
X179540746Y-108377210D01*
X179472759Y-108213074D01*
X179438100Y-108038831D01*
X179438100Y-107861169D01*
X179472759Y-107686926D01*
X179540746Y-107522790D01*
X179639450Y-107375069D01*
X179765069Y-107249450D01*
X179912790Y-107150746D01*
X180028851Y-107102672D01*
X180076925Y-107082759D01*
X180135007Y-107071206D01*
X180251169Y-107048100D01*
X180428831Y-107048100D01*
X180544993Y-107071206D01*
X180544993Y-107071206D01*
G37*
G36*
X66244993Y-107071206D02*
X66303075Y-107082759D01*
X66351149Y-107102672D01*
X66467210Y-107150746D01*
X66614931Y-107249450D01*
X66740550Y-107375069D01*
X66839254Y-107522790D01*
X66907241Y-107686926D01*
X66941900Y-107861169D01*
X66941900Y-108038831D01*
X66907241Y-108213074D01*
X66839254Y-108377210D01*
X66740550Y-108524931D01*
X66614931Y-108650550D01*
X66467210Y-108749254D01*
X66351149Y-108797328D01*
X66303075Y-108817241D01*
X66244993Y-108828794D01*
X66128831Y-108851900D01*
X65951169Y-108851900D01*
X65835007Y-108828794D01*
X65776925Y-108817241D01*
X65728851Y-108797328D01*
X65612790Y-108749254D01*
X65465069Y-108650550D01*
X65339450Y-108524931D01*
X65240746Y-108377210D01*
X65172759Y-108213074D01*
X65138100Y-108038831D01*
X65138100Y-107861169D01*
X65172759Y-107686926D01*
X65240746Y-107522790D01*
X65339450Y-107375069D01*
X65465069Y-107249450D01*
X65612790Y-107150746D01*
X65728851Y-107102672D01*
X65776925Y-107082759D01*
X65835007Y-107071206D01*
X65951169Y-107048100D01*
X66128831Y-107048100D01*
X66244993Y-107071206D01*
X66244993Y-107071206D01*
G37*
G36*
X71472527Y-103898736D02*
X71572410Y-103918604D01*
X71854674Y-104035521D01*
X72108705Y-104205259D01*
X72324741Y-104421295D01*
X72494479Y-104675326D01*
X72611396Y-104957590D01*
X72671000Y-105257240D01*
X72671000Y-105562760D01*
X72611396Y-105862410D01*
X72494479Y-106144674D01*
X72324741Y-106398705D01*
X72108705Y-106614741D01*
X71854674Y-106784479D01*
X71572410Y-106901396D01*
X71472527Y-106921264D01*
X71272762Y-106961000D01*
X70967238Y-106961000D01*
X70767473Y-106921264D01*
X70667590Y-106901396D01*
X70385326Y-106784479D01*
X70131295Y-106614741D01*
X69915259Y-106398705D01*
X69745521Y-106144674D01*
X69628604Y-105862410D01*
X69569000Y-105562760D01*
X69569000Y-105257240D01*
X69628604Y-104957590D01*
X69745521Y-104675326D01*
X69915259Y-104421295D01*
X70131295Y-104205259D01*
X70385326Y-104035521D01*
X70667590Y-103918604D01*
X70767473Y-103898736D01*
X70967238Y-103859000D01*
X71272762Y-103859000D01*
X71472527Y-103898736D01*
X71472527Y-103898736D01*
G37*
G36*
X185772527Y-103898736D02*
X185872410Y-103918604D01*
X186154674Y-104035521D01*
X186408705Y-104205259D01*
X186624741Y-104421295D01*
X186794479Y-104675326D01*
X186911396Y-104957590D01*
X186971000Y-105257240D01*
X186971000Y-105562760D01*
X186911396Y-105862410D01*
X186794479Y-106144674D01*
X186624741Y-106398705D01*
X186408705Y-106614741D01*
X186154674Y-106784479D01*
X185872410Y-106901396D01*
X185772527Y-106921264D01*
X185572762Y-106961000D01*
X185267238Y-106961000D01*
X185067473Y-106921264D01*
X184967590Y-106901396D01*
X184685326Y-106784479D01*
X184431295Y-106614741D01*
X184215259Y-106398705D01*
X184045521Y-106144674D01*
X183928604Y-105862410D01*
X183869000Y-105562760D01*
X183869000Y-105257240D01*
X183928604Y-104957590D01*
X184045521Y-104675326D01*
X184215259Y-104421295D01*
X184431295Y-104205259D01*
X184685326Y-104035521D01*
X184967590Y-103918604D01*
X185067473Y-103898736D01*
X185267238Y-103859000D01*
X185572762Y-103859000D01*
X185772527Y-103898736D01*
X185772527Y-103898736D01*
G37*
G36*
X66636472Y-100903684D02*
X66636474Y-100903685D01*
X66636475Y-100903685D01*
X67008623Y-101057833D01*
X67343548Y-101281623D01*
X67628377Y-101566452D01*
X67852167Y-101901377D01*
X67922322Y-102070747D01*
X68006316Y-102273528D01*
X68084900Y-102668594D01*
X68084900Y-103071406D01*
X68010601Y-103444931D01*
X68006315Y-103466475D01*
X67852167Y-103838623D01*
X67628377Y-104173548D01*
X67343548Y-104458377D01*
X67008623Y-104682167D01*
X66636475Y-104836315D01*
X66636474Y-104836315D01*
X66636472Y-104836316D01*
X66241406Y-104914900D01*
X65838594Y-104914900D01*
X65443528Y-104836316D01*
X65443526Y-104836315D01*
X65443525Y-104836315D01*
X65071377Y-104682167D01*
X64736452Y-104458377D01*
X64451623Y-104173548D01*
X64227833Y-103838623D01*
X64073685Y-103466475D01*
X64069400Y-103444931D01*
X63995100Y-103071406D01*
X63995100Y-102668594D01*
X64073684Y-102273528D01*
X64157678Y-102070747D01*
X64227833Y-101901377D01*
X64451623Y-101566452D01*
X64736452Y-101281623D01*
X65071377Y-101057833D01*
X65443525Y-100903685D01*
X65443526Y-100903685D01*
X65443528Y-100903684D01*
X65838594Y-100825100D01*
X66241406Y-100825100D01*
X66636472Y-100903684D01*
X66636472Y-100903684D01*
G37*
G36*
X142836472Y-100903684D02*
X142836474Y-100903685D01*
X142836475Y-100903685D01*
X143208623Y-101057833D01*
X143543548Y-101281623D01*
X143828377Y-101566452D01*
X144052167Y-101901377D01*
X144122322Y-102070747D01*
X144206316Y-102273528D01*
X144284900Y-102668594D01*
X144284900Y-103071406D01*
X144210601Y-103444931D01*
X144206315Y-103466475D01*
X144052167Y-103838623D01*
X143828377Y-104173548D01*
X143543548Y-104458377D01*
X143208623Y-104682167D01*
X142836475Y-104836315D01*
X142836474Y-104836315D01*
X142836472Y-104836316D01*
X142441406Y-104914900D01*
X142038594Y-104914900D01*
X141643528Y-104836316D01*
X141643526Y-104836315D01*
X141643525Y-104836315D01*
X141271377Y-104682167D01*
X140936452Y-104458377D01*
X140651623Y-104173548D01*
X140427833Y-103838623D01*
X140273685Y-103466475D01*
X140269400Y-103444931D01*
X140195100Y-103071406D01*
X140195100Y-102668594D01*
X140273684Y-102273528D01*
X140357678Y-102070747D01*
X140427833Y-101901377D01*
X140651623Y-101566452D01*
X140936452Y-101281623D01*
X141271377Y-101057833D01*
X141643525Y-100903685D01*
X141643526Y-100903685D01*
X141643528Y-100903684D01*
X142038594Y-100825100D01*
X142441406Y-100825100D01*
X142836472Y-100903684D01*
X142836472Y-100903684D01*
G37*
G36*
X161886472Y-100903684D02*
X161886474Y-100903685D01*
X161886475Y-100903685D01*
X162258623Y-101057833D01*
X162593548Y-101281623D01*
X162878377Y-101566452D01*
X163102167Y-101901377D01*
X163172322Y-102070747D01*
X163256316Y-102273528D01*
X163334900Y-102668594D01*
X163334900Y-103071406D01*
X163260601Y-103444931D01*
X163256315Y-103466475D01*
X163102167Y-103838623D01*
X162878377Y-104173548D01*
X162593548Y-104458377D01*
X162258623Y-104682167D01*
X161886475Y-104836315D01*
X161886474Y-104836315D01*
X161886472Y-104836316D01*
X161491406Y-104914900D01*
X161088594Y-104914900D01*
X160693528Y-104836316D01*
X160693526Y-104836315D01*
X160693525Y-104836315D01*
X160321377Y-104682167D01*
X159986452Y-104458377D01*
X159701623Y-104173548D01*
X159477833Y-103838623D01*
X159323685Y-103466475D01*
X159319400Y-103444931D01*
X159245100Y-103071406D01*
X159245100Y-102668594D01*
X159323684Y-102273528D01*
X159407678Y-102070747D01*
X159477833Y-101901377D01*
X159701623Y-101566452D01*
X159986452Y-101281623D01*
X160321377Y-101057833D01*
X160693525Y-100903685D01*
X160693526Y-100903685D01*
X160693528Y-100903684D01*
X161088594Y-100825100D01*
X161491406Y-100825100D01*
X161886472Y-100903684D01*
X161886472Y-100903684D01*
G37*
G36*
X180936472Y-100903684D02*
X180936474Y-100903685D01*
X180936475Y-100903685D01*
X181308623Y-101057833D01*
X181643548Y-101281623D01*
X181928377Y-101566452D01*
X182152167Y-101901377D01*
X182222322Y-102070747D01*
X182306316Y-102273528D01*
X182384900Y-102668594D01*
X182384900Y-103071406D01*
X182310601Y-103444931D01*
X182306315Y-103466475D01*
X182152167Y-103838623D01*
X181928377Y-104173548D01*
X181643548Y-104458377D01*
X181308623Y-104682167D01*
X180936475Y-104836315D01*
X180936474Y-104836315D01*
X180936472Y-104836316D01*
X180541406Y-104914900D01*
X180138594Y-104914900D01*
X179743528Y-104836316D01*
X179743526Y-104836315D01*
X179743525Y-104836315D01*
X179371377Y-104682167D01*
X179036452Y-104458377D01*
X178751623Y-104173548D01*
X178527833Y-103838623D01*
X178373685Y-103466475D01*
X178369400Y-103444931D01*
X178295100Y-103071406D01*
X178295100Y-102668594D01*
X178373684Y-102273528D01*
X178457678Y-102070747D01*
X178527833Y-101901377D01*
X178751623Y-101566452D01*
X179036452Y-101281623D01*
X179371377Y-101057833D01*
X179743525Y-100903685D01*
X179743526Y-100903685D01*
X179743528Y-100903684D01*
X180138594Y-100825100D01*
X180541406Y-100825100D01*
X180936472Y-100903684D01*
X180936472Y-100903684D01*
G37*
G36*
X104736472Y-100903684D02*
X104736474Y-100903685D01*
X104736475Y-100903685D01*
X105108623Y-101057833D01*
X105443548Y-101281623D01*
X105728377Y-101566452D01*
X105952167Y-101901377D01*
X106022322Y-102070747D01*
X106106316Y-102273528D01*
X106184900Y-102668594D01*
X106184900Y-103071406D01*
X106110601Y-103444931D01*
X106106315Y-103466475D01*
X105952167Y-103838623D01*
X105728377Y-104173548D01*
X105443548Y-104458377D01*
X105108623Y-104682167D01*
X104736475Y-104836315D01*
X104736474Y-104836315D01*
X104736472Y-104836316D01*
X104341406Y-104914900D01*
X103938594Y-104914900D01*
X103543528Y-104836316D01*
X103543526Y-104836315D01*
X103543525Y-104836315D01*
X103171377Y-104682167D01*
X102836452Y-104458377D01*
X102551623Y-104173548D01*
X102327833Y-103838623D01*
X102173685Y-103466475D01*
X102169400Y-103444931D01*
X102095100Y-103071406D01*
X102095100Y-102668594D01*
X102173684Y-102273528D01*
X102257678Y-102070747D01*
X102327833Y-101901377D01*
X102551623Y-101566452D01*
X102836452Y-101281623D01*
X103171377Y-101057833D01*
X103543525Y-100903685D01*
X103543526Y-100903685D01*
X103543528Y-100903684D01*
X103938594Y-100825100D01*
X104341406Y-100825100D01*
X104736472Y-100903684D01*
X104736472Y-100903684D01*
G37*
G36*
X85686472Y-100903684D02*
X85686474Y-100903685D01*
X85686475Y-100903685D01*
X86058623Y-101057833D01*
X86393548Y-101281623D01*
X86678377Y-101566452D01*
X86902167Y-101901377D01*
X86972322Y-102070747D01*
X87056316Y-102273528D01*
X87134900Y-102668594D01*
X87134900Y-103071406D01*
X87060601Y-103444931D01*
X87056315Y-103466475D01*
X86902167Y-103838623D01*
X86678377Y-104173548D01*
X86393548Y-104458377D01*
X86058623Y-104682167D01*
X85686475Y-104836315D01*
X85686474Y-104836315D01*
X85686472Y-104836316D01*
X85291406Y-104914900D01*
X84888594Y-104914900D01*
X84493528Y-104836316D01*
X84493526Y-104836315D01*
X84493525Y-104836315D01*
X84121377Y-104682167D01*
X83786452Y-104458377D01*
X83501623Y-104173548D01*
X83277833Y-103838623D01*
X83123685Y-103466475D01*
X83119400Y-103444931D01*
X83045100Y-103071406D01*
X83045100Y-102668594D01*
X83123684Y-102273528D01*
X83207678Y-102070747D01*
X83277833Y-101901377D01*
X83501623Y-101566452D01*
X83786452Y-101281623D01*
X84121377Y-101057833D01*
X84493525Y-100903685D01*
X84493526Y-100903685D01*
X84493528Y-100903684D01*
X84888594Y-100825100D01*
X85291406Y-100825100D01*
X85686472Y-100903684D01*
X85686472Y-100903684D01*
G37*
G36*
X123786472Y-100903684D02*
X123786474Y-100903685D01*
X123786475Y-100903685D01*
X124158623Y-101057833D01*
X124493548Y-101281623D01*
X124778377Y-101566452D01*
X125002167Y-101901377D01*
X125072322Y-102070747D01*
X125156316Y-102273528D01*
X125234900Y-102668594D01*
X125234900Y-103071406D01*
X125160601Y-103444931D01*
X125156315Y-103466475D01*
X125002167Y-103838623D01*
X124778377Y-104173548D01*
X124493548Y-104458377D01*
X124158623Y-104682167D01*
X123786475Y-104836315D01*
X123786474Y-104836315D01*
X123786472Y-104836316D01*
X123391406Y-104914900D01*
X122988594Y-104914900D01*
X122593528Y-104836316D01*
X122593526Y-104836315D01*
X122593525Y-104836315D01*
X122221377Y-104682167D01*
X121886452Y-104458377D01*
X121601623Y-104173548D01*
X121377833Y-103838623D01*
X121223685Y-103466475D01*
X121219400Y-103444931D01*
X121145100Y-103071406D01*
X121145100Y-102668594D01*
X121223684Y-102273528D01*
X121307678Y-102070747D01*
X121377833Y-101901377D01*
X121601623Y-101566452D01*
X121886452Y-101281623D01*
X122221377Y-101057833D01*
X122593525Y-100903685D01*
X122593526Y-100903685D01*
X122593528Y-100903684D01*
X122988594Y-100825100D01*
X123391406Y-100825100D01*
X123786472Y-100903684D01*
X123786472Y-100903684D01*
G37*
G36*
X90374993Y-101991206D02*
X90433075Y-102002759D01*
X90481149Y-102022672D01*
X90597210Y-102070746D01*
X90744931Y-102169450D01*
X90870550Y-102295069D01*
X90969254Y-102442790D01*
X91037241Y-102606926D01*
X91071900Y-102781169D01*
X91071900Y-102958831D01*
X91037241Y-103133074D01*
X90969254Y-103297210D01*
X90870550Y-103444931D01*
X90744931Y-103570550D01*
X90597210Y-103669254D01*
X90481149Y-103717328D01*
X90433075Y-103737241D01*
X90374993Y-103748794D01*
X90258831Y-103771900D01*
X90081169Y-103771900D01*
X89965007Y-103748794D01*
X89906925Y-103737241D01*
X89858851Y-103717328D01*
X89742790Y-103669254D01*
X89595069Y-103570550D01*
X89469450Y-103444931D01*
X89370746Y-103297210D01*
X89302759Y-103133074D01*
X89268100Y-102958831D01*
X89268100Y-102781169D01*
X89302759Y-102606926D01*
X89370746Y-102442790D01*
X89469450Y-102295069D01*
X89595069Y-102169450D01*
X89742790Y-102070746D01*
X89858851Y-102022672D01*
X89906925Y-102002759D01*
X89965007Y-101991206D01*
X90081169Y-101968100D01*
X90258831Y-101968100D01*
X90374993Y-101991206D01*
X90374993Y-101991206D01*
G37*
G36*
X147524993Y-101991206D02*
X147583075Y-102002759D01*
X147631149Y-102022672D01*
X147747210Y-102070746D01*
X147894931Y-102169450D01*
X148020550Y-102295069D01*
X148119254Y-102442790D01*
X148187241Y-102606926D01*
X148221900Y-102781169D01*
X148221900Y-102958831D01*
X148187241Y-103133074D01*
X148119254Y-103297210D01*
X148020550Y-103444931D01*
X147894931Y-103570550D01*
X147747210Y-103669254D01*
X147631149Y-103717328D01*
X147583075Y-103737241D01*
X147524993Y-103748794D01*
X147408831Y-103771900D01*
X147231169Y-103771900D01*
X147115007Y-103748794D01*
X147056925Y-103737241D01*
X147008851Y-103717328D01*
X146892790Y-103669254D01*
X146745069Y-103570550D01*
X146619450Y-103444931D01*
X146520746Y-103297210D01*
X146452759Y-103133074D01*
X146418100Y-102958831D01*
X146418100Y-102781169D01*
X146452759Y-102606926D01*
X146520746Y-102442790D01*
X146619450Y-102295069D01*
X146745069Y-102169450D01*
X146892790Y-102070746D01*
X147008851Y-102022672D01*
X147056925Y-102002759D01*
X147115007Y-101991206D01*
X147231169Y-101968100D01*
X147408831Y-101968100D01*
X147524993Y-101991206D01*
X147524993Y-101991206D01*
G37*
G36*
X128474993Y-101991206D02*
X128533075Y-102002759D01*
X128581149Y-102022672D01*
X128697210Y-102070746D01*
X128844931Y-102169450D01*
X128970550Y-102295069D01*
X129069254Y-102442790D01*
X129137241Y-102606926D01*
X129171900Y-102781169D01*
X129171900Y-102958831D01*
X129137241Y-103133074D01*
X129069254Y-103297210D01*
X128970550Y-103444931D01*
X128844931Y-103570550D01*
X128697210Y-103669254D01*
X128581149Y-103717328D01*
X128533075Y-103737241D01*
X128474993Y-103748794D01*
X128358831Y-103771900D01*
X128181169Y-103771900D01*
X128065007Y-103748794D01*
X128006925Y-103737241D01*
X127958851Y-103717328D01*
X127842790Y-103669254D01*
X127695069Y-103570550D01*
X127569450Y-103444931D01*
X127470746Y-103297210D01*
X127402759Y-103133074D01*
X127368100Y-102958831D01*
X127368100Y-102781169D01*
X127402759Y-102606926D01*
X127470746Y-102442790D01*
X127569450Y-102295069D01*
X127695069Y-102169450D01*
X127842790Y-102070746D01*
X127958851Y-102022672D01*
X128006925Y-102002759D01*
X128065007Y-101991206D01*
X128181169Y-101968100D01*
X128358831Y-101968100D01*
X128474993Y-101991206D01*
X128474993Y-101991206D01*
G37*
G36*
X118314993Y-101991206D02*
X118373075Y-102002759D01*
X118421149Y-102022672D01*
X118537210Y-102070746D01*
X118684931Y-102169450D01*
X118810550Y-102295069D01*
X118909254Y-102442790D01*
X118977241Y-102606926D01*
X119011900Y-102781169D01*
X119011900Y-102958831D01*
X118977241Y-103133074D01*
X118909254Y-103297210D01*
X118810550Y-103444931D01*
X118684931Y-103570550D01*
X118537210Y-103669254D01*
X118421149Y-103717328D01*
X118373075Y-103737241D01*
X118314993Y-103748794D01*
X118198831Y-103771900D01*
X118021169Y-103771900D01*
X117905007Y-103748794D01*
X117846925Y-103737241D01*
X117798851Y-103717328D01*
X117682790Y-103669254D01*
X117535069Y-103570550D01*
X117409450Y-103444931D01*
X117310746Y-103297210D01*
X117242759Y-103133074D01*
X117208100Y-102958831D01*
X117208100Y-102781169D01*
X117242759Y-102606926D01*
X117310746Y-102442790D01*
X117409450Y-102295069D01*
X117535069Y-102169450D01*
X117682790Y-102070746D01*
X117798851Y-102022672D01*
X117846925Y-102002759D01*
X117905007Y-101991206D01*
X118021169Y-101968100D01*
X118198831Y-101968100D01*
X118314993Y-101991206D01*
X118314993Y-101991206D01*
G37*
G36*
X137364993Y-101991206D02*
X137423075Y-102002759D01*
X137471149Y-102022672D01*
X137587210Y-102070746D01*
X137734931Y-102169450D01*
X137860550Y-102295069D01*
X137959254Y-102442790D01*
X138027241Y-102606926D01*
X138061900Y-102781169D01*
X138061900Y-102958831D01*
X138027241Y-103133074D01*
X137959254Y-103297210D01*
X137860550Y-103444931D01*
X137734931Y-103570550D01*
X137587210Y-103669254D01*
X137471149Y-103717328D01*
X137423075Y-103737241D01*
X137364993Y-103748794D01*
X137248831Y-103771900D01*
X137071169Y-103771900D01*
X136955007Y-103748794D01*
X136896925Y-103737241D01*
X136848851Y-103717328D01*
X136732790Y-103669254D01*
X136585069Y-103570550D01*
X136459450Y-103444931D01*
X136360746Y-103297210D01*
X136292759Y-103133074D01*
X136258100Y-102958831D01*
X136258100Y-102781169D01*
X136292759Y-102606926D01*
X136360746Y-102442790D01*
X136459450Y-102295069D01*
X136585069Y-102169450D01*
X136732790Y-102070746D01*
X136848851Y-102022672D01*
X136896925Y-102002759D01*
X136955007Y-101991206D01*
X137071169Y-101968100D01*
X137248831Y-101968100D01*
X137364993Y-101991206D01*
X137364993Y-101991206D01*
G37*
G36*
X99264993Y-101991206D02*
X99323075Y-102002759D01*
X99371149Y-102022672D01*
X99487210Y-102070746D01*
X99634931Y-102169450D01*
X99760550Y-102295069D01*
X99859254Y-102442790D01*
X99927241Y-102606926D01*
X99961900Y-102781169D01*
X99961900Y-102958831D01*
X99927241Y-103133074D01*
X99859254Y-103297210D01*
X99760550Y-103444931D01*
X99634931Y-103570550D01*
X99487210Y-103669254D01*
X99371149Y-103717328D01*
X99323075Y-103737241D01*
X99264993Y-103748794D01*
X99148831Y-103771900D01*
X98971169Y-103771900D01*
X98855007Y-103748794D01*
X98796925Y-103737241D01*
X98748851Y-103717328D01*
X98632790Y-103669254D01*
X98485069Y-103570550D01*
X98359450Y-103444931D01*
X98260746Y-103297210D01*
X98192759Y-103133074D01*
X98158100Y-102958831D01*
X98158100Y-102781169D01*
X98192759Y-102606926D01*
X98260746Y-102442790D01*
X98359450Y-102295069D01*
X98485069Y-102169450D01*
X98632790Y-102070746D01*
X98748851Y-102022672D01*
X98796925Y-102002759D01*
X98855007Y-101991206D01*
X98971169Y-101968100D01*
X99148831Y-101968100D01*
X99264993Y-101991206D01*
X99264993Y-101991206D01*
G37*
G36*
X109424993Y-101991206D02*
X109483075Y-102002759D01*
X109531149Y-102022672D01*
X109647210Y-102070746D01*
X109794931Y-102169450D01*
X109920550Y-102295069D01*
X110019254Y-102442790D01*
X110087241Y-102606926D01*
X110121900Y-102781169D01*
X110121900Y-102958831D01*
X110087241Y-103133074D01*
X110019254Y-103297210D01*
X109920550Y-103444931D01*
X109794931Y-103570550D01*
X109647210Y-103669254D01*
X109531149Y-103717328D01*
X109483075Y-103737241D01*
X109424993Y-103748794D01*
X109308831Y-103771900D01*
X109131169Y-103771900D01*
X109015007Y-103748794D01*
X108956925Y-103737241D01*
X108908851Y-103717328D01*
X108792790Y-103669254D01*
X108645069Y-103570550D01*
X108519450Y-103444931D01*
X108420746Y-103297210D01*
X108352759Y-103133074D01*
X108318100Y-102958831D01*
X108318100Y-102781169D01*
X108352759Y-102606926D01*
X108420746Y-102442790D01*
X108519450Y-102295069D01*
X108645069Y-102169450D01*
X108792790Y-102070746D01*
X108908851Y-102022672D01*
X108956925Y-102002759D01*
X109015007Y-101991206D01*
X109131169Y-101968100D01*
X109308831Y-101968100D01*
X109424993Y-101991206D01*
X109424993Y-101991206D01*
G37*
G36*
X80214993Y-101991206D02*
X80273075Y-102002759D01*
X80321149Y-102022672D01*
X80437210Y-102070746D01*
X80584931Y-102169450D01*
X80710550Y-102295069D01*
X80809254Y-102442790D01*
X80877241Y-102606926D01*
X80911900Y-102781169D01*
X80911900Y-102958831D01*
X80877241Y-103133074D01*
X80809254Y-103297210D01*
X80710550Y-103444931D01*
X80584931Y-103570550D01*
X80437210Y-103669254D01*
X80321149Y-103717328D01*
X80273075Y-103737241D01*
X80214993Y-103748794D01*
X80098831Y-103771900D01*
X79921169Y-103771900D01*
X79805007Y-103748794D01*
X79746925Y-103737241D01*
X79698851Y-103717328D01*
X79582790Y-103669254D01*
X79435069Y-103570550D01*
X79309450Y-103444931D01*
X79210746Y-103297210D01*
X79142759Y-103133074D01*
X79108100Y-102958831D01*
X79108100Y-102781169D01*
X79142759Y-102606926D01*
X79210746Y-102442790D01*
X79309450Y-102295069D01*
X79435069Y-102169450D01*
X79582790Y-102070746D01*
X79698851Y-102022672D01*
X79746925Y-102002759D01*
X79805007Y-101991206D01*
X79921169Y-101968100D01*
X80098831Y-101968100D01*
X80214993Y-101991206D01*
X80214993Y-101991206D01*
G37*
G36*
X166574993Y-101991206D02*
X166633075Y-102002759D01*
X166681149Y-102022672D01*
X166797210Y-102070746D01*
X166944931Y-102169450D01*
X167070550Y-102295069D01*
X167169254Y-102442790D01*
X167237241Y-102606926D01*
X167271900Y-102781169D01*
X167271900Y-102958831D01*
X167237241Y-103133074D01*
X167169254Y-103297210D01*
X167070550Y-103444931D01*
X166944931Y-103570550D01*
X166797210Y-103669254D01*
X166681149Y-103717328D01*
X166633075Y-103737241D01*
X166574993Y-103748794D01*
X166458831Y-103771900D01*
X166281169Y-103771900D01*
X166165007Y-103748794D01*
X166106925Y-103737241D01*
X166058851Y-103717328D01*
X165942790Y-103669254D01*
X165795069Y-103570550D01*
X165669450Y-103444931D01*
X165570746Y-103297210D01*
X165502759Y-103133074D01*
X165468100Y-102958831D01*
X165468100Y-102781169D01*
X165502759Y-102606926D01*
X165570746Y-102442790D01*
X165669450Y-102295069D01*
X165795069Y-102169450D01*
X165942790Y-102070746D01*
X166058851Y-102022672D01*
X166106925Y-102002759D01*
X166165007Y-101991206D01*
X166281169Y-101968100D01*
X166458831Y-101968100D01*
X166574993Y-101991206D01*
X166574993Y-101991206D01*
G37*
G36*
X156414993Y-101991206D02*
X156473075Y-102002759D01*
X156521149Y-102022672D01*
X156637210Y-102070746D01*
X156784931Y-102169450D01*
X156910550Y-102295069D01*
X157009254Y-102442790D01*
X157077241Y-102606926D01*
X157111900Y-102781169D01*
X157111900Y-102958831D01*
X157077241Y-103133074D01*
X157009254Y-103297210D01*
X156910550Y-103444931D01*
X156784931Y-103570550D01*
X156637210Y-103669254D01*
X156521149Y-103717328D01*
X156473075Y-103737241D01*
X156414993Y-103748794D01*
X156298831Y-103771900D01*
X156121169Y-103771900D01*
X156005007Y-103748794D01*
X155946925Y-103737241D01*
X155898851Y-103717328D01*
X155782790Y-103669254D01*
X155635069Y-103570550D01*
X155509450Y-103444931D01*
X155410746Y-103297210D01*
X155342759Y-103133074D01*
X155308100Y-102958831D01*
X155308100Y-102781169D01*
X155342759Y-102606926D01*
X155410746Y-102442790D01*
X155509450Y-102295069D01*
X155635069Y-102169450D01*
X155782790Y-102070746D01*
X155898851Y-102022672D01*
X155946925Y-102002759D01*
X156005007Y-101991206D01*
X156121169Y-101968100D01*
X156298831Y-101968100D01*
X156414993Y-101991206D01*
X156414993Y-101991206D01*
G37*
G36*
X100682527Y-98818736D02*
X100782410Y-98838604D01*
X101064674Y-98955521D01*
X101318705Y-99125259D01*
X101534741Y-99341295D01*
X101704479Y-99595326D01*
X101787050Y-99794672D01*
X101821396Y-99877591D01*
X101881000Y-100177238D01*
X101881000Y-100482762D01*
X101855492Y-100611000D01*
X101821396Y-100782410D01*
X101704479Y-101064674D01*
X101534741Y-101318705D01*
X101318705Y-101534741D01*
X101064674Y-101704479D01*
X100782410Y-101821396D01*
X100682527Y-101841264D01*
X100482762Y-101881000D01*
X100177238Y-101881000D01*
X99977473Y-101841264D01*
X99877590Y-101821396D01*
X99595326Y-101704479D01*
X99341295Y-101534741D01*
X99125259Y-101318705D01*
X98955521Y-101064674D01*
X98838604Y-100782410D01*
X98804508Y-100611000D01*
X98779000Y-100482762D01*
X98779000Y-100177238D01*
X98838604Y-99877591D01*
X98872950Y-99794672D01*
X98955521Y-99595326D01*
X99125259Y-99341295D01*
X99341295Y-99125259D01*
X99595326Y-98955521D01*
X99877590Y-98838604D01*
X99977473Y-98818736D01*
X100177238Y-98779000D01*
X100482762Y-98779000D01*
X100682527Y-98818736D01*
X100682527Y-98818736D01*
G37*
G36*
X81632527Y-98818736D02*
X81732410Y-98838604D01*
X82014674Y-98955521D01*
X82268705Y-99125259D01*
X82484741Y-99341295D01*
X82654479Y-99595326D01*
X82737050Y-99794672D01*
X82771396Y-99877591D01*
X82831000Y-100177238D01*
X82831000Y-100482762D01*
X82805492Y-100611000D01*
X82771396Y-100782410D01*
X82654479Y-101064674D01*
X82484741Y-101318705D01*
X82268705Y-101534741D01*
X82014674Y-101704479D01*
X81732410Y-101821396D01*
X81632527Y-101841264D01*
X81432762Y-101881000D01*
X81127238Y-101881000D01*
X80927473Y-101841264D01*
X80827590Y-101821396D01*
X80545326Y-101704479D01*
X80291295Y-101534741D01*
X80075259Y-101318705D01*
X79905521Y-101064674D01*
X79788604Y-100782410D01*
X79754508Y-100611000D01*
X79729000Y-100482762D01*
X79729000Y-100177238D01*
X79788604Y-99877591D01*
X79822950Y-99794672D01*
X79905521Y-99595326D01*
X80075259Y-99341295D01*
X80291295Y-99125259D01*
X80545326Y-98955521D01*
X80827590Y-98838604D01*
X80927473Y-98818736D01*
X81127238Y-98779000D01*
X81432762Y-98779000D01*
X81632527Y-98818736D01*
X81632527Y-98818736D01*
G37*
G36*
X119732527Y-98818736D02*
X119832410Y-98838604D01*
X120114674Y-98955521D01*
X120368705Y-99125259D01*
X120584741Y-99341295D01*
X120754479Y-99595326D01*
X120837050Y-99794672D01*
X120871396Y-99877591D01*
X120931000Y-100177238D01*
X120931000Y-100482762D01*
X120905492Y-100611000D01*
X120871396Y-100782410D01*
X120754479Y-101064674D01*
X120584741Y-101318705D01*
X120368705Y-101534741D01*
X120114674Y-101704479D01*
X119832410Y-101821396D01*
X119732527Y-101841264D01*
X119532762Y-101881000D01*
X119227238Y-101881000D01*
X119027473Y-101841264D01*
X118927590Y-101821396D01*
X118645326Y-101704479D01*
X118391295Y-101534741D01*
X118175259Y-101318705D01*
X118005521Y-101064674D01*
X117888604Y-100782410D01*
X117854508Y-100611000D01*
X117829000Y-100482762D01*
X117829000Y-100177238D01*
X117888604Y-99877591D01*
X117922950Y-99794672D01*
X118005521Y-99595326D01*
X118175259Y-99341295D01*
X118391295Y-99125259D01*
X118645326Y-98955521D01*
X118927590Y-98838604D01*
X119027473Y-98818736D01*
X119227238Y-98779000D01*
X119532762Y-98779000D01*
X119732527Y-98818736D01*
X119732527Y-98818736D01*
G37*
G36*
X138782527Y-98818736D02*
X138882410Y-98838604D01*
X139164674Y-98955521D01*
X139418705Y-99125259D01*
X139634741Y-99341295D01*
X139804479Y-99595326D01*
X139887050Y-99794672D01*
X139921396Y-99877591D01*
X139981000Y-100177238D01*
X139981000Y-100482762D01*
X139955492Y-100611000D01*
X139921396Y-100782410D01*
X139804479Y-101064674D01*
X139634741Y-101318705D01*
X139418705Y-101534741D01*
X139164674Y-101704479D01*
X138882410Y-101821396D01*
X138782527Y-101841264D01*
X138582762Y-101881000D01*
X138277238Y-101881000D01*
X138077473Y-101841264D01*
X137977590Y-101821396D01*
X137695326Y-101704479D01*
X137441295Y-101534741D01*
X137225259Y-101318705D01*
X137055521Y-101064674D01*
X136938604Y-100782410D01*
X136904508Y-100611000D01*
X136879000Y-100482762D01*
X136879000Y-100177238D01*
X136938604Y-99877591D01*
X136972950Y-99794672D01*
X137055521Y-99595326D01*
X137225259Y-99341295D01*
X137441295Y-99125259D01*
X137695326Y-98955521D01*
X137977590Y-98838604D01*
X138077473Y-98818736D01*
X138277238Y-98779000D01*
X138582762Y-98779000D01*
X138782527Y-98818736D01*
X138782527Y-98818736D01*
G37*
G36*
X157832527Y-98818736D02*
X157932410Y-98838604D01*
X158214674Y-98955521D01*
X158468705Y-99125259D01*
X158684741Y-99341295D01*
X158854479Y-99595326D01*
X158937050Y-99794672D01*
X158971396Y-99877591D01*
X159031000Y-100177238D01*
X159031000Y-100482762D01*
X159005492Y-100611000D01*
X158971396Y-100782410D01*
X158854479Y-101064674D01*
X158684741Y-101318705D01*
X158468705Y-101534741D01*
X158214674Y-101704479D01*
X157932410Y-101821396D01*
X157832527Y-101841264D01*
X157632762Y-101881000D01*
X157327238Y-101881000D01*
X157127473Y-101841264D01*
X157027590Y-101821396D01*
X156745326Y-101704479D01*
X156491295Y-101534741D01*
X156275259Y-101318705D01*
X156105521Y-101064674D01*
X155988604Y-100782410D01*
X155954508Y-100611000D01*
X155929000Y-100482762D01*
X155929000Y-100177238D01*
X155988604Y-99877591D01*
X156022950Y-99794672D01*
X156105521Y-99595326D01*
X156275259Y-99341295D01*
X156491295Y-99125259D01*
X156745326Y-98955521D01*
X157027590Y-98838604D01*
X157127473Y-98818736D01*
X157327238Y-98779000D01*
X157632762Y-98779000D01*
X157832527Y-98818736D01*
X157832527Y-98818736D01*
G37*
G36*
X135771000Y-101631000D02*
X132669000Y-101631000D01*
X132669000Y-99029000D01*
X135771000Y-99029000D01*
X135771000Y-101631000D01*
X135771000Y-101631000D01*
G37*
G36*
X97671000Y-101631000D02*
X94569000Y-101631000D01*
X94569000Y-99029000D01*
X97671000Y-99029000D01*
X97671000Y-101631000D01*
X97671000Y-101631000D01*
G37*
G36*
X78621000Y-101631000D02*
X75519000Y-101631000D01*
X75519000Y-99029000D01*
X78621000Y-99029000D01*
X78621000Y-101631000D01*
X78621000Y-101631000D01*
G37*
G36*
X116721000Y-101631000D02*
X113619000Y-101631000D01*
X113619000Y-99029000D01*
X116721000Y-99029000D01*
X116721000Y-101631000D01*
X116721000Y-101631000D01*
G37*
G36*
X154821000Y-101631000D02*
X151719000Y-101631000D01*
X151719000Y-99029000D01*
X154821000Y-99029000D01*
X154821000Y-101631000D01*
X154821000Y-101631000D01*
G37*
G36*
X183232527Y-97548736D02*
X183332410Y-97568604D01*
X183614674Y-97685521D01*
X183868705Y-97855259D01*
X184084741Y-98071295D01*
X184254479Y-98325326D01*
X184363801Y-98589254D01*
X184371396Y-98607591D01*
X184431000Y-98907238D01*
X184431000Y-99212762D01*
X184405492Y-99341000D01*
X184371396Y-99512410D01*
X184254479Y-99794674D01*
X184084741Y-100048705D01*
X183868705Y-100264741D01*
X183614674Y-100434479D01*
X183332410Y-100551396D01*
X183232527Y-100571264D01*
X183032762Y-100611000D01*
X182727238Y-100611000D01*
X182527473Y-100571264D01*
X182427590Y-100551396D01*
X182145326Y-100434479D01*
X181891295Y-100264741D01*
X181675259Y-100048705D01*
X181505521Y-99794674D01*
X181388604Y-99512410D01*
X181354508Y-99341000D01*
X181329000Y-99212762D01*
X181329000Y-98907238D01*
X181388604Y-98607591D01*
X181396199Y-98589254D01*
X181505521Y-98325326D01*
X181675259Y-98071295D01*
X181891295Y-97855259D01*
X182145326Y-97685521D01*
X182427590Y-97568604D01*
X182527473Y-97548736D01*
X182727238Y-97509000D01*
X183032762Y-97509000D01*
X183232527Y-97548736D01*
X183232527Y-97548736D01*
G37*
G36*
X68932527Y-97548736D02*
X69032410Y-97568604D01*
X69314674Y-97685521D01*
X69568705Y-97855259D01*
X69784741Y-98071295D01*
X69954479Y-98325326D01*
X70063801Y-98589254D01*
X70071396Y-98607591D01*
X70131000Y-98907238D01*
X70131000Y-99212762D01*
X70105492Y-99341000D01*
X70071396Y-99512410D01*
X69954479Y-99794674D01*
X69784741Y-100048705D01*
X69568705Y-100264741D01*
X69314674Y-100434479D01*
X69032410Y-100551396D01*
X68932527Y-100571264D01*
X68732762Y-100611000D01*
X68427238Y-100611000D01*
X68227473Y-100571264D01*
X68127590Y-100551396D01*
X67845326Y-100434479D01*
X67591295Y-100264741D01*
X67375259Y-100048705D01*
X67205521Y-99794674D01*
X67088604Y-99512410D01*
X67054508Y-99341000D01*
X67029000Y-99212762D01*
X67029000Y-98907238D01*
X67088604Y-98607591D01*
X67096199Y-98589254D01*
X67205521Y-98325326D01*
X67375259Y-98071295D01*
X67591295Y-97855259D01*
X67845326Y-97685521D01*
X68127590Y-97568604D01*
X68227473Y-97548736D01*
X68427238Y-97509000D01*
X68732762Y-97509000D01*
X68932527Y-97548736D01*
X68932527Y-97548736D01*
G37*
G36*
X145132527Y-96278736D02*
X145232410Y-96298604D01*
X145514674Y-96415521D01*
X145768705Y-96585259D01*
X145984741Y-96801295D01*
X146154479Y-97055326D01*
X146271396Y-97337590D01*
X146291264Y-97437473D01*
X146317348Y-97568604D01*
X146331000Y-97637240D01*
X146331000Y-97942760D01*
X146271396Y-98242410D01*
X146154479Y-98524674D01*
X145984741Y-98778705D01*
X145768705Y-98994741D01*
X145514674Y-99164479D01*
X145232410Y-99281396D01*
X145132527Y-99301264D01*
X144932762Y-99341000D01*
X144627238Y-99341000D01*
X144427473Y-99301264D01*
X144327590Y-99281396D01*
X144045326Y-99164479D01*
X143791295Y-98994741D01*
X143575259Y-98778705D01*
X143405521Y-98524674D01*
X143288604Y-98242410D01*
X143229000Y-97942760D01*
X143229000Y-97637240D01*
X143242653Y-97568604D01*
X143268736Y-97437473D01*
X143288604Y-97337590D01*
X143405521Y-97055326D01*
X143575259Y-96801295D01*
X143791295Y-96585259D01*
X144045326Y-96415521D01*
X144327590Y-96298604D01*
X144427473Y-96278736D01*
X144627238Y-96239000D01*
X144932762Y-96239000D01*
X145132527Y-96278736D01*
X145132527Y-96278736D01*
G37*
G36*
X87982527Y-96278736D02*
X88082410Y-96298604D01*
X88364674Y-96415521D01*
X88618705Y-96585259D01*
X88834741Y-96801295D01*
X89004479Y-97055326D01*
X89121396Y-97337590D01*
X89141264Y-97437473D01*
X89167348Y-97568604D01*
X89181000Y-97637240D01*
X89181000Y-97942760D01*
X89121396Y-98242410D01*
X89004479Y-98524674D01*
X88834741Y-98778705D01*
X88618705Y-98994741D01*
X88364674Y-99164479D01*
X88082410Y-99281396D01*
X87982527Y-99301264D01*
X87782762Y-99341000D01*
X87477238Y-99341000D01*
X87277473Y-99301264D01*
X87177590Y-99281396D01*
X86895326Y-99164479D01*
X86641295Y-98994741D01*
X86425259Y-98778705D01*
X86255521Y-98524674D01*
X86138604Y-98242410D01*
X86079000Y-97942760D01*
X86079000Y-97637240D01*
X86092653Y-97568604D01*
X86118736Y-97437473D01*
X86138604Y-97337590D01*
X86255521Y-97055326D01*
X86425259Y-96801295D01*
X86641295Y-96585259D01*
X86895326Y-96415521D01*
X87177590Y-96298604D01*
X87277473Y-96278736D01*
X87477238Y-96239000D01*
X87782762Y-96239000D01*
X87982527Y-96278736D01*
X87982527Y-96278736D01*
G37*
G36*
X107032527Y-96278736D02*
X107132410Y-96298604D01*
X107414674Y-96415521D01*
X107668705Y-96585259D01*
X107884741Y-96801295D01*
X108054479Y-97055326D01*
X108171396Y-97337590D01*
X108191264Y-97437473D01*
X108217348Y-97568604D01*
X108231000Y-97637240D01*
X108231000Y-97942760D01*
X108171396Y-98242410D01*
X108054479Y-98524674D01*
X107884741Y-98778705D01*
X107668705Y-98994741D01*
X107414674Y-99164479D01*
X107132410Y-99281396D01*
X107032527Y-99301264D01*
X106832762Y-99341000D01*
X106527238Y-99341000D01*
X106327473Y-99301264D01*
X106227590Y-99281396D01*
X105945326Y-99164479D01*
X105691295Y-98994741D01*
X105475259Y-98778705D01*
X105305521Y-98524674D01*
X105188604Y-98242410D01*
X105129000Y-97942760D01*
X105129000Y-97637240D01*
X105142653Y-97568604D01*
X105168736Y-97437473D01*
X105188604Y-97337590D01*
X105305521Y-97055326D01*
X105475259Y-96801295D01*
X105691295Y-96585259D01*
X105945326Y-96415521D01*
X106227590Y-96298604D01*
X106327473Y-96278736D01*
X106527238Y-96239000D01*
X106832762Y-96239000D01*
X107032527Y-96278736D01*
X107032527Y-96278736D01*
G37*
G36*
X126082527Y-96278736D02*
X126182410Y-96298604D01*
X126464674Y-96415521D01*
X126718705Y-96585259D01*
X126934741Y-96801295D01*
X127104479Y-97055326D01*
X127221396Y-97337590D01*
X127241264Y-97437473D01*
X127267348Y-97568604D01*
X127281000Y-97637240D01*
X127281000Y-97942760D01*
X127221396Y-98242410D01*
X127104479Y-98524674D01*
X126934741Y-98778705D01*
X126718705Y-98994741D01*
X126464674Y-99164479D01*
X126182410Y-99281396D01*
X126082527Y-99301264D01*
X125882762Y-99341000D01*
X125577238Y-99341000D01*
X125377473Y-99301264D01*
X125277590Y-99281396D01*
X124995326Y-99164479D01*
X124741295Y-98994741D01*
X124525259Y-98778705D01*
X124355521Y-98524674D01*
X124238604Y-98242410D01*
X124179000Y-97942760D01*
X124179000Y-97637240D01*
X124192653Y-97568604D01*
X124218736Y-97437473D01*
X124238604Y-97337590D01*
X124355521Y-97055326D01*
X124525259Y-96801295D01*
X124741295Y-96585259D01*
X124995326Y-96415521D01*
X125277590Y-96298604D01*
X125377473Y-96278736D01*
X125577238Y-96239000D01*
X125882762Y-96239000D01*
X126082527Y-96278736D01*
X126082527Y-96278736D01*
G37*
G36*
X164182527Y-96278736D02*
X164282410Y-96298604D01*
X164564674Y-96415521D01*
X164818705Y-96585259D01*
X165034741Y-96801295D01*
X165204479Y-97055326D01*
X165321396Y-97337590D01*
X165341264Y-97437473D01*
X165367348Y-97568604D01*
X165381000Y-97637240D01*
X165381000Y-97942760D01*
X165321396Y-98242410D01*
X165204479Y-98524674D01*
X165034741Y-98778705D01*
X164818705Y-98994741D01*
X164564674Y-99164479D01*
X164282410Y-99281396D01*
X164182527Y-99301264D01*
X163982762Y-99341000D01*
X163677238Y-99341000D01*
X163477473Y-99301264D01*
X163377590Y-99281396D01*
X163095326Y-99164479D01*
X162841295Y-98994741D01*
X162625259Y-98778705D01*
X162455521Y-98524674D01*
X162338604Y-98242410D01*
X162279000Y-97942760D01*
X162279000Y-97637240D01*
X162292653Y-97568604D01*
X162318736Y-97437473D01*
X162338604Y-97337590D01*
X162455521Y-97055326D01*
X162625259Y-96801295D01*
X162841295Y-96585259D01*
X163095326Y-96415521D01*
X163377590Y-96298604D01*
X163477473Y-96278736D01*
X163677238Y-96239000D01*
X163982762Y-96239000D01*
X164182527Y-96278736D01*
X164182527Y-96278736D01*
G37*
G36*
X131491000Y-99091000D02*
X128389000Y-99091000D01*
X128389000Y-96489000D01*
X131491000Y-96489000D01*
X131491000Y-99091000D01*
X131491000Y-99091000D01*
G37*
G36*
X93391000Y-99091000D02*
X90289000Y-99091000D01*
X90289000Y-96489000D01*
X93391000Y-96489000D01*
X93391000Y-99091000D01*
X93391000Y-99091000D01*
G37*
G36*
X150541000Y-99091000D02*
X147439000Y-99091000D01*
X147439000Y-96489000D01*
X150541000Y-96489000D01*
X150541000Y-99091000D01*
X150541000Y-99091000D01*
G37*
G36*
X169591000Y-99091000D02*
X166489000Y-99091000D01*
X166489000Y-96489000D01*
X169591000Y-96489000D01*
X169591000Y-99091000D01*
X169591000Y-99091000D01*
G37*
G36*
X112441000Y-99091000D02*
X109339000Y-99091000D01*
X109339000Y-96489000D01*
X112441000Y-96489000D01*
X112441000Y-99091000D01*
X112441000Y-99091000D01*
G37*
G36*
X180544993Y-96911206D02*
X180603075Y-96922759D01*
X180651149Y-96942672D01*
X180767210Y-96990746D01*
X180914931Y-97089450D01*
X181040550Y-97215069D01*
X181139254Y-97362790D01*
X181187328Y-97478851D01*
X181207241Y-97526925D01*
X181241900Y-97701171D01*
X181241900Y-97878829D01*
X181207241Y-98053075D01*
X181199694Y-98071295D01*
X181139254Y-98217210D01*
X181040550Y-98364931D01*
X180914931Y-98490550D01*
X180767210Y-98589254D01*
X180651149Y-98637328D01*
X180603075Y-98657241D01*
X180544993Y-98668794D01*
X180428831Y-98691900D01*
X180251169Y-98691900D01*
X180135007Y-98668794D01*
X180076925Y-98657241D01*
X180028851Y-98637328D01*
X179912790Y-98589254D01*
X179765069Y-98490550D01*
X179639450Y-98364931D01*
X179540746Y-98217210D01*
X179480306Y-98071295D01*
X179472759Y-98053075D01*
X179438100Y-97878829D01*
X179438100Y-97701171D01*
X179472759Y-97526925D01*
X179492672Y-97478851D01*
X179540746Y-97362790D01*
X179639450Y-97215069D01*
X179765069Y-97089450D01*
X179912790Y-96990746D01*
X180028851Y-96942672D01*
X180076925Y-96922759D01*
X180135007Y-96911206D01*
X180251169Y-96888100D01*
X180428831Y-96888100D01*
X180544993Y-96911206D01*
X180544993Y-96911206D01*
G37*
G36*
X66244993Y-96911206D02*
X66303075Y-96922759D01*
X66351149Y-96942672D01*
X66467210Y-96990746D01*
X66614931Y-97089450D01*
X66740550Y-97215069D01*
X66839254Y-97362790D01*
X66887328Y-97478851D01*
X66907241Y-97526925D01*
X66941900Y-97701171D01*
X66941900Y-97878829D01*
X66907241Y-98053075D01*
X66899694Y-98071295D01*
X66839254Y-98217210D01*
X66740550Y-98364931D01*
X66614931Y-98490550D01*
X66467210Y-98589254D01*
X66351149Y-98637328D01*
X66303075Y-98657241D01*
X66244993Y-98668794D01*
X66128831Y-98691900D01*
X65951169Y-98691900D01*
X65835007Y-98668794D01*
X65776925Y-98657241D01*
X65728851Y-98637328D01*
X65612790Y-98589254D01*
X65465069Y-98490550D01*
X65339450Y-98364931D01*
X65240746Y-98217210D01*
X65180306Y-98071295D01*
X65172759Y-98053075D01*
X65138100Y-97878829D01*
X65138100Y-97701171D01*
X65172759Y-97526925D01*
X65192672Y-97478851D01*
X65240746Y-97362790D01*
X65339450Y-97215069D01*
X65465069Y-97089450D01*
X65612790Y-96990746D01*
X65728851Y-96942672D01*
X65776925Y-96922759D01*
X65835007Y-96911206D01*
X65951169Y-96888100D01*
X66128831Y-96888100D01*
X66244993Y-96911206D01*
X66244993Y-96911206D01*
G37*
G36*
X69881000Y-96401000D02*
X67279000Y-96401000D01*
X67279000Y-93299000D01*
X69881000Y-93299000D01*
X69881000Y-96401000D01*
X69881000Y-96401000D01*
G37*
G36*
X184181000Y-96401000D02*
X181579000Y-96401000D01*
X181579000Y-93299000D01*
X184181000Y-93299000D01*
X184181000Y-96401000D01*
X184181000Y-96401000D01*
G37*
G36*
X57006142Y-92563242D02*
X57154102Y-92624530D01*
X57287258Y-92713502D01*
X57400498Y-92826742D01*
X57489470Y-92959898D01*
X57550758Y-93107858D01*
X57582000Y-93264925D01*
X57582000Y-93425075D01*
X57550758Y-93582142D01*
X57489470Y-93730102D01*
X57400498Y-93863258D01*
X57287258Y-93976498D01*
X57154102Y-94065470D01*
X57006142Y-94126758D01*
X56849075Y-94158000D01*
X56688925Y-94158000D01*
X56531858Y-94126758D01*
X56383898Y-94065470D01*
X56250742Y-93976498D01*
X56137502Y-93863258D01*
X56048530Y-93730102D01*
X55987242Y-93582142D01*
X55956000Y-93425075D01*
X55956000Y-93264925D01*
X55987242Y-93107858D01*
X56048530Y-92959898D01*
X56137502Y-92826742D01*
X56250742Y-92713502D01*
X56383898Y-92624530D01*
X56531858Y-92563242D01*
X56688925Y-92532000D01*
X56849075Y-92532000D01*
X57006142Y-92563242D01*
X57006142Y-92563242D01*
G37*
G36*
X189848142Y-92563242D02*
X189996102Y-92624530D01*
X190129258Y-92713502D01*
X190242498Y-92826742D01*
X190331470Y-92959898D01*
X190392758Y-93107858D01*
X190424000Y-93264925D01*
X190424000Y-93425075D01*
X190392758Y-93582142D01*
X190331470Y-93730102D01*
X190242498Y-93863258D01*
X190129258Y-93976498D01*
X189996102Y-94065470D01*
X189848142Y-94126758D01*
X189691075Y-94158000D01*
X189530925Y-94158000D01*
X189373858Y-94126758D01*
X189225898Y-94065470D01*
X189092742Y-93976498D01*
X188979502Y-93863258D01*
X188890530Y-93730102D01*
X188829242Y-93582142D01*
X188798000Y-93425075D01*
X188798000Y-93264925D01*
X188829242Y-93107858D01*
X188890530Y-92959898D01*
X188979502Y-92826742D01*
X189092742Y-92713502D01*
X189225898Y-92624530D01*
X189373858Y-92563242D01*
X189530925Y-92532000D01*
X189691075Y-92532000D01*
X189848142Y-92563242D01*
X189848142Y-92563242D01*
G37*
G36*
X179101000Y-93391000D02*
X176499000Y-93391000D01*
X176499000Y-90289000D01*
X179101000Y-90289000D01*
X179101000Y-93391000D01*
X179101000Y-93391000D01*
G37*
G36*
X72421000Y-92121000D02*
X69819000Y-92121000D01*
X69819000Y-89019000D01*
X72421000Y-89019000D01*
X72421000Y-92121000D01*
X72421000Y-92121000D01*
G37*
G36*
X180544993Y-88021206D02*
X180603075Y-88032759D01*
X180651149Y-88052672D01*
X180767210Y-88100746D01*
X180914931Y-88199450D01*
X181040550Y-88325069D01*
X181139254Y-88472790D01*
X181187328Y-88588851D01*
X181199695Y-88618707D01*
X181207241Y-88636926D01*
X181241900Y-88811169D01*
X181241900Y-88988831D01*
X181207241Y-89163074D01*
X181139254Y-89327210D01*
X181040550Y-89474931D01*
X180914931Y-89600550D01*
X180767210Y-89699254D01*
X180651149Y-89747328D01*
X180603075Y-89767241D01*
X180544993Y-89778794D01*
X180428831Y-89801900D01*
X180251169Y-89801900D01*
X180135007Y-89778794D01*
X180076925Y-89767241D01*
X180028851Y-89747328D01*
X179912790Y-89699254D01*
X179765069Y-89600550D01*
X179639450Y-89474931D01*
X179540746Y-89327210D01*
X179472759Y-89163074D01*
X179438100Y-88988831D01*
X179438100Y-88811169D01*
X179472759Y-88636926D01*
X179480306Y-88618707D01*
X179492672Y-88588851D01*
X179540746Y-88472790D01*
X179639450Y-88325069D01*
X179765069Y-88199450D01*
X179912790Y-88100746D01*
X180028851Y-88052672D01*
X180076925Y-88032759D01*
X180135007Y-88021206D01*
X180251169Y-87998100D01*
X180428831Y-87998100D01*
X180544993Y-88021206D01*
X180544993Y-88021206D01*
G37*
G36*
X66244993Y-88021206D02*
X66303075Y-88032759D01*
X66351149Y-88052672D01*
X66467210Y-88100746D01*
X66614931Y-88199450D01*
X66740550Y-88325069D01*
X66839254Y-88472790D01*
X66887328Y-88588851D01*
X66899695Y-88618707D01*
X66907241Y-88636926D01*
X66941900Y-88811169D01*
X66941900Y-88988831D01*
X66907241Y-89163074D01*
X66839254Y-89327210D01*
X66740550Y-89474931D01*
X66614931Y-89600550D01*
X66467210Y-89699254D01*
X66351149Y-89747328D01*
X66303075Y-89767241D01*
X66244993Y-89778794D01*
X66128831Y-89801900D01*
X65951169Y-89801900D01*
X65835007Y-89778794D01*
X65776925Y-89767241D01*
X65728851Y-89747328D01*
X65612790Y-89699254D01*
X65465069Y-89600550D01*
X65339450Y-89474931D01*
X65240746Y-89327210D01*
X65172759Y-89163074D01*
X65138100Y-88988831D01*
X65138100Y-88811169D01*
X65172759Y-88636926D01*
X65180306Y-88618707D01*
X65192672Y-88588851D01*
X65240746Y-88472790D01*
X65339450Y-88325069D01*
X65465069Y-88199450D01*
X65612790Y-88100746D01*
X65728851Y-88052672D01*
X65776925Y-88032759D01*
X65835007Y-88021206D01*
X65951169Y-87998100D01*
X66128831Y-87998100D01*
X66244993Y-88021206D01*
X66244993Y-88021206D01*
G37*
G36*
X178152527Y-86118736D02*
X178252410Y-86138604D01*
X178534674Y-86255521D01*
X178788705Y-86425259D01*
X179004741Y-86641295D01*
X179174479Y-86895326D01*
X179257050Y-87094672D01*
X179291396Y-87177591D01*
X179351000Y-87477238D01*
X179351000Y-87782762D01*
X179325492Y-87911000D01*
X179291396Y-88082410D01*
X179174479Y-88364674D01*
X179004741Y-88618705D01*
X178788705Y-88834741D01*
X178534674Y-89004479D01*
X178252410Y-89121396D01*
X178152527Y-89141264D01*
X177952762Y-89181000D01*
X177647238Y-89181000D01*
X177447473Y-89141264D01*
X177347590Y-89121396D01*
X177065326Y-89004479D01*
X176811295Y-88834741D01*
X176595259Y-88618705D01*
X176425521Y-88364674D01*
X176308604Y-88082410D01*
X176274508Y-87911000D01*
X176249000Y-87782762D01*
X176249000Y-87477238D01*
X176308604Y-87177591D01*
X176342950Y-87094672D01*
X176425521Y-86895326D01*
X176595259Y-86641295D01*
X176811295Y-86425259D01*
X177065326Y-86255521D01*
X177347590Y-86138604D01*
X177447473Y-86118736D01*
X177647238Y-86079000D01*
X177952762Y-86079000D01*
X178152527Y-86118736D01*
X178152527Y-86118736D01*
G37*
G36*
X71472527Y-84848736D02*
X71572410Y-84868604D01*
X71854674Y-84985521D01*
X72108705Y-85155259D01*
X72324741Y-85371295D01*
X72494479Y-85625326D01*
X72593713Y-85864900D01*
X72611396Y-85907591D01*
X72657348Y-86138604D01*
X72671000Y-86207240D01*
X72671000Y-86512760D01*
X72611396Y-86812410D01*
X72494479Y-87094674D01*
X72324741Y-87348705D01*
X72108705Y-87564741D01*
X71854674Y-87734479D01*
X71572410Y-87851396D01*
X71472527Y-87871264D01*
X71272762Y-87911000D01*
X70967238Y-87911000D01*
X70767473Y-87871264D01*
X70667590Y-87851396D01*
X70385326Y-87734479D01*
X70131295Y-87564741D01*
X69915259Y-87348705D01*
X69745521Y-87094674D01*
X69628604Y-86812410D01*
X69569000Y-86512760D01*
X69569000Y-86207240D01*
X69582653Y-86138604D01*
X69628604Y-85907591D01*
X69646287Y-85864900D01*
X69745521Y-85625326D01*
X69915259Y-85371295D01*
X70131295Y-85155259D01*
X70385326Y-84985521D01*
X70667590Y-84868604D01*
X70767473Y-84848736D01*
X70967238Y-84809000D01*
X71272762Y-84809000D01*
X71472527Y-84848736D01*
X71472527Y-84848736D01*
G37*
G36*
X104736472Y-81853684D02*
X104736474Y-81853685D01*
X104736475Y-81853685D01*
X105108623Y-82007833D01*
X105443548Y-82231623D01*
X105728377Y-82516452D01*
X105952167Y-82851377D01*
X106022322Y-83020747D01*
X106106316Y-83223528D01*
X106184900Y-83618594D01*
X106184900Y-84021406D01*
X106110601Y-84394931D01*
X106106315Y-84416475D01*
X105952167Y-84788623D01*
X105728377Y-85123548D01*
X105443548Y-85408377D01*
X105108623Y-85632167D01*
X104736475Y-85786315D01*
X104736474Y-85786315D01*
X104736472Y-85786316D01*
X104341406Y-85864900D01*
X103938594Y-85864900D01*
X103543528Y-85786316D01*
X103543526Y-85786315D01*
X103543525Y-85786315D01*
X103171377Y-85632167D01*
X102836452Y-85408377D01*
X102551623Y-85123548D01*
X102327833Y-84788623D01*
X102173685Y-84416475D01*
X102169400Y-84394931D01*
X102095100Y-84021406D01*
X102095100Y-83618594D01*
X102173684Y-83223528D01*
X102257678Y-83020747D01*
X102327833Y-82851377D01*
X102551623Y-82516452D01*
X102836452Y-82231623D01*
X103171377Y-82007833D01*
X103543525Y-81853685D01*
X103543526Y-81853685D01*
X103543528Y-81853684D01*
X103938594Y-81775100D01*
X104341406Y-81775100D01*
X104736472Y-81853684D01*
X104736472Y-81853684D01*
G37*
G36*
X180936472Y-81853684D02*
X180936474Y-81853685D01*
X180936475Y-81853685D01*
X181308623Y-82007833D01*
X181643548Y-82231623D01*
X181928377Y-82516452D01*
X182152167Y-82851377D01*
X182222322Y-83020747D01*
X182306316Y-83223528D01*
X182384900Y-83618594D01*
X182384900Y-84021406D01*
X182310601Y-84394931D01*
X182306315Y-84416475D01*
X182152167Y-84788623D01*
X181928377Y-85123548D01*
X181643548Y-85408377D01*
X181308623Y-85632167D01*
X180936475Y-85786315D01*
X180936474Y-85786315D01*
X180936472Y-85786316D01*
X180541406Y-85864900D01*
X180138594Y-85864900D01*
X179743528Y-85786316D01*
X179743526Y-85786315D01*
X179743525Y-85786315D01*
X179371377Y-85632167D01*
X179036452Y-85408377D01*
X178751623Y-85123548D01*
X178527833Y-84788623D01*
X178373685Y-84416475D01*
X178369400Y-84394931D01*
X178295100Y-84021406D01*
X178295100Y-83618594D01*
X178373684Y-83223528D01*
X178457678Y-83020747D01*
X178527833Y-82851377D01*
X178751623Y-82516452D01*
X179036452Y-82231623D01*
X179371377Y-82007833D01*
X179743525Y-81853685D01*
X179743526Y-81853685D01*
X179743528Y-81853684D01*
X180138594Y-81775100D01*
X180541406Y-81775100D01*
X180936472Y-81853684D01*
X180936472Y-81853684D01*
G37*
G36*
X66636472Y-81853684D02*
X66636474Y-81853685D01*
X66636475Y-81853685D01*
X67008623Y-82007833D01*
X67343548Y-82231623D01*
X67628377Y-82516452D01*
X67852167Y-82851377D01*
X67922322Y-83020747D01*
X68006316Y-83223528D01*
X68084900Y-83618594D01*
X68084900Y-84021406D01*
X68010601Y-84394931D01*
X68006315Y-84416475D01*
X67852167Y-84788623D01*
X67628377Y-85123548D01*
X67343548Y-85408377D01*
X67008623Y-85632167D01*
X66636475Y-85786315D01*
X66636474Y-85786315D01*
X66636472Y-85786316D01*
X66241406Y-85864900D01*
X65838594Y-85864900D01*
X65443528Y-85786316D01*
X65443526Y-85786315D01*
X65443525Y-85786315D01*
X65071377Y-85632167D01*
X64736452Y-85408377D01*
X64451623Y-85123548D01*
X64227833Y-84788623D01*
X64073685Y-84416475D01*
X64069400Y-84394931D01*
X63995100Y-84021406D01*
X63995100Y-83618594D01*
X64073684Y-83223528D01*
X64157678Y-83020747D01*
X64227833Y-82851377D01*
X64451623Y-82516452D01*
X64736452Y-82231623D01*
X65071377Y-82007833D01*
X65443525Y-81853685D01*
X65443526Y-81853685D01*
X65443528Y-81853684D01*
X65838594Y-81775100D01*
X66241406Y-81775100D01*
X66636472Y-81853684D01*
X66636472Y-81853684D01*
G37*
G36*
X85686472Y-81853684D02*
X85686474Y-81853685D01*
X85686475Y-81853685D01*
X86058623Y-82007833D01*
X86393548Y-82231623D01*
X86678377Y-82516452D01*
X86902167Y-82851377D01*
X86972322Y-83020747D01*
X87056316Y-83223528D01*
X87134900Y-83618594D01*
X87134900Y-84021406D01*
X87060601Y-84394931D01*
X87056315Y-84416475D01*
X86902167Y-84788623D01*
X86678377Y-85123548D01*
X86393548Y-85408377D01*
X86058623Y-85632167D01*
X85686475Y-85786315D01*
X85686474Y-85786315D01*
X85686472Y-85786316D01*
X85291406Y-85864900D01*
X84888594Y-85864900D01*
X84493528Y-85786316D01*
X84493526Y-85786315D01*
X84493525Y-85786315D01*
X84121377Y-85632167D01*
X83786452Y-85408377D01*
X83501623Y-85123548D01*
X83277833Y-84788623D01*
X83123685Y-84416475D01*
X83119400Y-84394931D01*
X83045100Y-84021406D01*
X83045100Y-83618594D01*
X83123684Y-83223528D01*
X83207678Y-83020747D01*
X83277833Y-82851377D01*
X83501623Y-82516452D01*
X83786452Y-82231623D01*
X84121377Y-82007833D01*
X84493525Y-81853685D01*
X84493526Y-81853685D01*
X84493528Y-81853684D01*
X84888594Y-81775100D01*
X85291406Y-81775100D01*
X85686472Y-81853684D01*
X85686472Y-81853684D01*
G37*
G36*
X142836472Y-81853684D02*
X142836474Y-81853685D01*
X142836475Y-81853685D01*
X143208623Y-82007833D01*
X143543548Y-82231623D01*
X143828377Y-82516452D01*
X144052167Y-82851377D01*
X144122322Y-83020747D01*
X144206316Y-83223528D01*
X144284900Y-83618594D01*
X144284900Y-84021406D01*
X144210601Y-84394931D01*
X144206315Y-84416475D01*
X144052167Y-84788623D01*
X143828377Y-85123548D01*
X143543548Y-85408377D01*
X143208623Y-85632167D01*
X142836475Y-85786315D01*
X142836474Y-85786315D01*
X142836472Y-85786316D01*
X142441406Y-85864900D01*
X142038594Y-85864900D01*
X141643528Y-85786316D01*
X141643526Y-85786315D01*
X141643525Y-85786315D01*
X141271377Y-85632167D01*
X140936452Y-85408377D01*
X140651623Y-85123548D01*
X140427833Y-84788623D01*
X140273685Y-84416475D01*
X140269400Y-84394931D01*
X140195100Y-84021406D01*
X140195100Y-83618594D01*
X140273684Y-83223528D01*
X140357678Y-83020747D01*
X140427833Y-82851377D01*
X140651623Y-82516452D01*
X140936452Y-82231623D01*
X141271377Y-82007833D01*
X141643525Y-81853685D01*
X141643526Y-81853685D01*
X141643528Y-81853684D01*
X142038594Y-81775100D01*
X142441406Y-81775100D01*
X142836472Y-81853684D01*
X142836472Y-81853684D01*
G37*
G36*
X161886472Y-81853684D02*
X161886474Y-81853685D01*
X161886475Y-81853685D01*
X162258623Y-82007833D01*
X162593548Y-82231623D01*
X162878377Y-82516452D01*
X163102167Y-82851377D01*
X163172322Y-83020747D01*
X163256316Y-83223528D01*
X163334900Y-83618594D01*
X163334900Y-84021406D01*
X163260601Y-84394931D01*
X163256315Y-84416475D01*
X163102167Y-84788623D01*
X162878377Y-85123548D01*
X162593548Y-85408377D01*
X162258623Y-85632167D01*
X161886475Y-85786315D01*
X161886474Y-85786315D01*
X161886472Y-85786316D01*
X161491406Y-85864900D01*
X161088594Y-85864900D01*
X160693528Y-85786316D01*
X160693526Y-85786315D01*
X160693525Y-85786315D01*
X160321377Y-85632167D01*
X159986452Y-85408377D01*
X159701623Y-85123548D01*
X159477833Y-84788623D01*
X159323685Y-84416475D01*
X159319400Y-84394931D01*
X159245100Y-84021406D01*
X159245100Y-83618594D01*
X159323684Y-83223528D01*
X159407678Y-83020747D01*
X159477833Y-82851377D01*
X159701623Y-82516452D01*
X159986452Y-82231623D01*
X160321377Y-82007833D01*
X160693525Y-81853685D01*
X160693526Y-81853685D01*
X160693528Y-81853684D01*
X161088594Y-81775100D01*
X161491406Y-81775100D01*
X161886472Y-81853684D01*
X161886472Y-81853684D01*
G37*
G36*
X123786472Y-81853684D02*
X123786474Y-81853685D01*
X123786475Y-81853685D01*
X124158623Y-82007833D01*
X124493548Y-82231623D01*
X124778377Y-82516452D01*
X125002167Y-82851377D01*
X125072322Y-83020747D01*
X125156316Y-83223528D01*
X125234900Y-83618594D01*
X125234900Y-84021406D01*
X125160601Y-84394931D01*
X125156315Y-84416475D01*
X125002167Y-84788623D01*
X124778377Y-85123548D01*
X124493548Y-85408377D01*
X124158623Y-85632167D01*
X123786475Y-85786315D01*
X123786474Y-85786315D01*
X123786472Y-85786316D01*
X123391406Y-85864900D01*
X122988594Y-85864900D01*
X122593528Y-85786316D01*
X122593526Y-85786315D01*
X122593525Y-85786315D01*
X122221377Y-85632167D01*
X121886452Y-85408377D01*
X121601623Y-85123548D01*
X121377833Y-84788623D01*
X121223685Y-84416475D01*
X121219400Y-84394931D01*
X121145100Y-84021406D01*
X121145100Y-83618594D01*
X121223684Y-83223528D01*
X121307678Y-83020747D01*
X121377833Y-82851377D01*
X121601623Y-82516452D01*
X121886452Y-82231623D01*
X122221377Y-82007833D01*
X122593525Y-81853685D01*
X122593526Y-81853685D01*
X122593528Y-81853684D01*
X122988594Y-81775100D01*
X123391406Y-81775100D01*
X123786472Y-81853684D01*
X123786472Y-81853684D01*
G37*
G36*
X128474993Y-82941206D02*
X128533075Y-82952759D01*
X128581149Y-82972672D01*
X128697210Y-83020746D01*
X128844931Y-83119450D01*
X128970550Y-83245069D01*
X129069254Y-83392790D01*
X129137241Y-83556926D01*
X129171900Y-83731169D01*
X129171900Y-83908831D01*
X129137241Y-84083074D01*
X129069254Y-84247210D01*
X128970550Y-84394931D01*
X128844931Y-84520550D01*
X128697210Y-84619254D01*
X128581149Y-84667328D01*
X128533075Y-84687241D01*
X128474993Y-84698794D01*
X128358831Y-84721900D01*
X128181169Y-84721900D01*
X128065007Y-84698794D01*
X128006925Y-84687241D01*
X127958851Y-84667328D01*
X127842790Y-84619254D01*
X127695069Y-84520550D01*
X127569450Y-84394931D01*
X127470746Y-84247210D01*
X127402759Y-84083074D01*
X127368100Y-83908831D01*
X127368100Y-83731169D01*
X127402759Y-83556926D01*
X127470746Y-83392790D01*
X127569450Y-83245069D01*
X127695069Y-83119450D01*
X127842790Y-83020746D01*
X127958851Y-82972672D01*
X128006925Y-82952759D01*
X128065007Y-82941206D01*
X128181169Y-82918100D01*
X128358831Y-82918100D01*
X128474993Y-82941206D01*
X128474993Y-82941206D01*
G37*
G36*
X80214993Y-82941206D02*
X80273075Y-82952759D01*
X80321149Y-82972672D01*
X80437210Y-83020746D01*
X80584931Y-83119450D01*
X80710550Y-83245069D01*
X80809254Y-83392790D01*
X80877241Y-83556926D01*
X80911900Y-83731169D01*
X80911900Y-83908831D01*
X80877241Y-84083074D01*
X80809254Y-84247210D01*
X80710550Y-84394931D01*
X80584931Y-84520550D01*
X80437210Y-84619254D01*
X80321149Y-84667328D01*
X80273075Y-84687241D01*
X80214993Y-84698794D01*
X80098831Y-84721900D01*
X79921169Y-84721900D01*
X79805007Y-84698794D01*
X79746925Y-84687241D01*
X79698851Y-84667328D01*
X79582790Y-84619254D01*
X79435069Y-84520550D01*
X79309450Y-84394931D01*
X79210746Y-84247210D01*
X79142759Y-84083074D01*
X79108100Y-83908831D01*
X79108100Y-83731169D01*
X79142759Y-83556926D01*
X79210746Y-83392790D01*
X79309450Y-83245069D01*
X79435069Y-83119450D01*
X79582790Y-83020746D01*
X79698851Y-82972672D01*
X79746925Y-82952759D01*
X79805007Y-82941206D01*
X79921169Y-82918100D01*
X80098831Y-82918100D01*
X80214993Y-82941206D01*
X80214993Y-82941206D01*
G37*
G36*
X90374993Y-82941206D02*
X90433075Y-82952759D01*
X90481149Y-82972672D01*
X90597210Y-83020746D01*
X90744931Y-83119450D01*
X90870550Y-83245069D01*
X90969254Y-83392790D01*
X91037241Y-83556926D01*
X91071900Y-83731169D01*
X91071900Y-83908831D01*
X91037241Y-84083074D01*
X90969254Y-84247210D01*
X90870550Y-84394931D01*
X90744931Y-84520550D01*
X90597210Y-84619254D01*
X90481149Y-84667328D01*
X90433075Y-84687241D01*
X90374993Y-84698794D01*
X90258831Y-84721900D01*
X90081169Y-84721900D01*
X89965007Y-84698794D01*
X89906925Y-84687241D01*
X89858851Y-84667328D01*
X89742790Y-84619254D01*
X89595069Y-84520550D01*
X89469450Y-84394931D01*
X89370746Y-84247210D01*
X89302759Y-84083074D01*
X89268100Y-83908831D01*
X89268100Y-83731169D01*
X89302759Y-83556926D01*
X89370746Y-83392790D01*
X89469450Y-83245069D01*
X89595069Y-83119450D01*
X89742790Y-83020746D01*
X89858851Y-82972672D01*
X89906925Y-82952759D01*
X89965007Y-82941206D01*
X90081169Y-82918100D01*
X90258831Y-82918100D01*
X90374993Y-82941206D01*
X90374993Y-82941206D01*
G37*
G36*
X99264993Y-82941206D02*
X99323075Y-82952759D01*
X99371149Y-82972672D01*
X99487210Y-83020746D01*
X99634931Y-83119450D01*
X99760550Y-83245069D01*
X99859254Y-83392790D01*
X99927241Y-83556926D01*
X99961900Y-83731169D01*
X99961900Y-83908831D01*
X99927241Y-84083074D01*
X99859254Y-84247210D01*
X99760550Y-84394931D01*
X99634931Y-84520550D01*
X99487210Y-84619254D01*
X99371149Y-84667328D01*
X99323075Y-84687241D01*
X99264993Y-84698794D01*
X99148831Y-84721900D01*
X98971169Y-84721900D01*
X98855007Y-84698794D01*
X98796925Y-84687241D01*
X98748851Y-84667328D01*
X98632790Y-84619254D01*
X98485069Y-84520550D01*
X98359450Y-84394931D01*
X98260746Y-84247210D01*
X98192759Y-84083074D01*
X98158100Y-83908831D01*
X98158100Y-83731169D01*
X98192759Y-83556926D01*
X98260746Y-83392790D01*
X98359450Y-83245069D01*
X98485069Y-83119450D01*
X98632790Y-83020746D01*
X98748851Y-82972672D01*
X98796925Y-82952759D01*
X98855007Y-82941206D01*
X98971169Y-82918100D01*
X99148831Y-82918100D01*
X99264993Y-82941206D01*
X99264993Y-82941206D01*
G37*
G36*
X118314993Y-82941206D02*
X118373075Y-82952759D01*
X118421149Y-82972672D01*
X118537210Y-83020746D01*
X118684931Y-83119450D01*
X118810550Y-83245069D01*
X118909254Y-83392790D01*
X118977241Y-83556926D01*
X119011900Y-83731169D01*
X119011900Y-83908831D01*
X118977241Y-84083074D01*
X118909254Y-84247210D01*
X118810550Y-84394931D01*
X118684931Y-84520550D01*
X118537210Y-84619254D01*
X118421149Y-84667328D01*
X118373075Y-84687241D01*
X118314993Y-84698794D01*
X118198831Y-84721900D01*
X118021169Y-84721900D01*
X117905007Y-84698794D01*
X117846925Y-84687241D01*
X117798851Y-84667328D01*
X117682790Y-84619254D01*
X117535069Y-84520550D01*
X117409450Y-84394931D01*
X117310746Y-84247210D01*
X117242759Y-84083074D01*
X117208100Y-83908831D01*
X117208100Y-83731169D01*
X117242759Y-83556926D01*
X117310746Y-83392790D01*
X117409450Y-83245069D01*
X117535069Y-83119450D01*
X117682790Y-83020746D01*
X117798851Y-82972672D01*
X117846925Y-82952759D01*
X117905007Y-82941206D01*
X118021169Y-82918100D01*
X118198831Y-82918100D01*
X118314993Y-82941206D01*
X118314993Y-82941206D01*
G37*
G36*
X137364993Y-82941206D02*
X137423075Y-82952759D01*
X137471149Y-82972672D01*
X137587210Y-83020746D01*
X137734931Y-83119450D01*
X137860550Y-83245069D01*
X137959254Y-83392790D01*
X138027241Y-83556926D01*
X138061900Y-83731169D01*
X138061900Y-83908831D01*
X138027241Y-84083074D01*
X137959254Y-84247210D01*
X137860550Y-84394931D01*
X137734931Y-84520550D01*
X137587210Y-84619254D01*
X137471149Y-84667328D01*
X137423075Y-84687241D01*
X137364993Y-84698794D01*
X137248831Y-84721900D01*
X137071169Y-84721900D01*
X136955007Y-84698794D01*
X136896925Y-84687241D01*
X136848851Y-84667328D01*
X136732790Y-84619254D01*
X136585069Y-84520550D01*
X136459450Y-84394931D01*
X136360746Y-84247210D01*
X136292759Y-84083074D01*
X136258100Y-83908831D01*
X136258100Y-83731169D01*
X136292759Y-83556926D01*
X136360746Y-83392790D01*
X136459450Y-83245069D01*
X136585069Y-83119450D01*
X136732790Y-83020746D01*
X136848851Y-82972672D01*
X136896925Y-82952759D01*
X136955007Y-82941206D01*
X137071169Y-82918100D01*
X137248831Y-82918100D01*
X137364993Y-82941206D01*
X137364993Y-82941206D01*
G37*
G36*
X147524993Y-82941206D02*
X147583075Y-82952759D01*
X147631149Y-82972672D01*
X147747210Y-83020746D01*
X147894931Y-83119450D01*
X148020550Y-83245069D01*
X148119254Y-83392790D01*
X148187241Y-83556926D01*
X148221900Y-83731169D01*
X148221900Y-83908831D01*
X148187241Y-84083074D01*
X148119254Y-84247210D01*
X148020550Y-84394931D01*
X147894931Y-84520550D01*
X147747210Y-84619254D01*
X147631149Y-84667328D01*
X147583075Y-84687241D01*
X147524993Y-84698794D01*
X147408831Y-84721900D01*
X147231169Y-84721900D01*
X147115007Y-84698794D01*
X147056925Y-84687241D01*
X147008851Y-84667328D01*
X146892790Y-84619254D01*
X146745069Y-84520550D01*
X146619450Y-84394931D01*
X146520746Y-84247210D01*
X146452759Y-84083074D01*
X146418100Y-83908831D01*
X146418100Y-83731169D01*
X146452759Y-83556926D01*
X146520746Y-83392790D01*
X146619450Y-83245069D01*
X146745069Y-83119450D01*
X146892790Y-83020746D01*
X147008851Y-82972672D01*
X147056925Y-82952759D01*
X147115007Y-82941206D01*
X147231169Y-82918100D01*
X147408831Y-82918100D01*
X147524993Y-82941206D01*
X147524993Y-82941206D01*
G37*
G36*
X109424993Y-82941206D02*
X109483075Y-82952759D01*
X109531149Y-82972672D01*
X109647210Y-83020746D01*
X109794931Y-83119450D01*
X109920550Y-83245069D01*
X110019254Y-83392790D01*
X110087241Y-83556926D01*
X110121900Y-83731169D01*
X110121900Y-83908831D01*
X110087241Y-84083074D01*
X110019254Y-84247210D01*
X109920550Y-84394931D01*
X109794931Y-84520550D01*
X109647210Y-84619254D01*
X109531149Y-84667328D01*
X109483075Y-84687241D01*
X109424993Y-84698794D01*
X109308831Y-84721900D01*
X109131169Y-84721900D01*
X109015007Y-84698794D01*
X108956925Y-84687241D01*
X108908851Y-84667328D01*
X108792790Y-84619254D01*
X108645069Y-84520550D01*
X108519450Y-84394931D01*
X108420746Y-84247210D01*
X108352759Y-84083074D01*
X108318100Y-83908831D01*
X108318100Y-83731169D01*
X108352759Y-83556926D01*
X108420746Y-83392790D01*
X108519450Y-83245069D01*
X108645069Y-83119450D01*
X108792790Y-83020746D01*
X108908851Y-82972672D01*
X108956925Y-82952759D01*
X109015007Y-82941206D01*
X109131169Y-82918100D01*
X109308831Y-82918100D01*
X109424993Y-82941206D01*
X109424993Y-82941206D01*
G37*
G36*
X156414993Y-82941206D02*
X156473075Y-82952759D01*
X156521149Y-82972672D01*
X156637210Y-83020746D01*
X156784931Y-83119450D01*
X156910550Y-83245069D01*
X157009254Y-83392790D01*
X157077241Y-83556926D01*
X157111900Y-83731169D01*
X157111900Y-83908831D01*
X157077241Y-84083074D01*
X157009254Y-84247210D01*
X156910550Y-84394931D01*
X156784931Y-84520550D01*
X156637210Y-84619254D01*
X156521149Y-84667328D01*
X156473075Y-84687241D01*
X156414993Y-84698794D01*
X156298831Y-84721900D01*
X156121169Y-84721900D01*
X156005007Y-84698794D01*
X155946925Y-84687241D01*
X155898851Y-84667328D01*
X155782790Y-84619254D01*
X155635069Y-84520550D01*
X155509450Y-84394931D01*
X155410746Y-84247210D01*
X155342759Y-84083074D01*
X155308100Y-83908831D01*
X155308100Y-83731169D01*
X155342759Y-83556926D01*
X155410746Y-83392790D01*
X155509450Y-83245069D01*
X155635069Y-83119450D01*
X155782790Y-83020746D01*
X155898851Y-82972672D01*
X155946925Y-82952759D01*
X156005007Y-82941206D01*
X156121169Y-82918100D01*
X156298831Y-82918100D01*
X156414993Y-82941206D01*
X156414993Y-82941206D01*
G37*
G36*
X166574993Y-82941206D02*
X166633075Y-82952759D01*
X166681149Y-82972672D01*
X166797210Y-83020746D01*
X166944931Y-83119450D01*
X167070550Y-83245069D01*
X167169254Y-83392790D01*
X167237241Y-83556926D01*
X167271900Y-83731169D01*
X167271900Y-83908831D01*
X167237241Y-84083074D01*
X167169254Y-84247210D01*
X167070550Y-84394931D01*
X166944931Y-84520550D01*
X166797210Y-84619254D01*
X166681149Y-84667328D01*
X166633075Y-84687241D01*
X166574993Y-84698794D01*
X166458831Y-84721900D01*
X166281169Y-84721900D01*
X166165007Y-84698794D01*
X166106925Y-84687241D01*
X166058851Y-84667328D01*
X165942790Y-84619254D01*
X165795069Y-84520550D01*
X165669450Y-84394931D01*
X165570746Y-84247210D01*
X165502759Y-84083074D01*
X165468100Y-83908831D01*
X165468100Y-83731169D01*
X165502759Y-83556926D01*
X165570746Y-83392790D01*
X165669450Y-83245069D01*
X165795069Y-83119450D01*
X165942790Y-83020746D01*
X166058851Y-82972672D01*
X166106925Y-82952759D01*
X166165007Y-82941206D01*
X166281169Y-82918100D01*
X166458831Y-82918100D01*
X166574993Y-82941206D01*
X166574993Y-82941206D01*
G37*
G36*
X81632527Y-79768736D02*
X81732410Y-79788604D01*
X82014674Y-79905521D01*
X82268705Y-80075259D01*
X82484741Y-80291295D01*
X82654479Y-80545326D01*
X82737050Y-80744672D01*
X82771396Y-80827591D01*
X82831000Y-81127238D01*
X82831000Y-81432762D01*
X82805492Y-81561000D01*
X82771396Y-81732410D01*
X82654479Y-82014674D01*
X82484741Y-82268705D01*
X82268705Y-82484741D01*
X82014674Y-82654479D01*
X81732410Y-82771396D01*
X81632527Y-82791264D01*
X81432762Y-82831000D01*
X81127238Y-82831000D01*
X80927473Y-82791264D01*
X80827590Y-82771396D01*
X80545326Y-82654479D01*
X80291295Y-82484741D01*
X80075259Y-82268705D01*
X79905521Y-82014674D01*
X79788604Y-81732410D01*
X79754508Y-81561000D01*
X79729000Y-81432762D01*
X79729000Y-81127238D01*
X79788604Y-80827591D01*
X79822950Y-80744672D01*
X79905521Y-80545326D01*
X80075259Y-80291295D01*
X80291295Y-80075259D01*
X80545326Y-79905521D01*
X80827590Y-79788604D01*
X80927473Y-79768736D01*
X81127238Y-79729000D01*
X81432762Y-79729000D01*
X81632527Y-79768736D01*
X81632527Y-79768736D01*
G37*
G36*
X157832527Y-79768736D02*
X157932410Y-79788604D01*
X158214674Y-79905521D01*
X158468705Y-80075259D01*
X158684741Y-80291295D01*
X158854479Y-80545326D01*
X158937050Y-80744672D01*
X158971396Y-80827591D01*
X159031000Y-81127238D01*
X159031000Y-81432762D01*
X159005492Y-81561000D01*
X158971396Y-81732410D01*
X158854479Y-82014674D01*
X158684741Y-82268705D01*
X158468705Y-82484741D01*
X158214674Y-82654479D01*
X157932410Y-82771396D01*
X157832527Y-82791264D01*
X157632762Y-82831000D01*
X157327238Y-82831000D01*
X157127473Y-82791264D01*
X157027590Y-82771396D01*
X156745326Y-82654479D01*
X156491295Y-82484741D01*
X156275259Y-82268705D01*
X156105521Y-82014674D01*
X155988604Y-81732410D01*
X155954508Y-81561000D01*
X155929000Y-81432762D01*
X155929000Y-81127238D01*
X155988604Y-80827591D01*
X156022950Y-80744672D01*
X156105521Y-80545326D01*
X156275259Y-80291295D01*
X156491295Y-80075259D01*
X156745326Y-79905521D01*
X157027590Y-79788604D01*
X157127473Y-79768736D01*
X157327238Y-79729000D01*
X157632762Y-79729000D01*
X157832527Y-79768736D01*
X157832527Y-79768736D01*
G37*
G36*
X100682527Y-79768736D02*
X100782410Y-79788604D01*
X101064674Y-79905521D01*
X101318705Y-80075259D01*
X101534741Y-80291295D01*
X101704479Y-80545326D01*
X101787050Y-80744672D01*
X101821396Y-80827591D01*
X101881000Y-81127238D01*
X101881000Y-81432762D01*
X101855492Y-81561000D01*
X101821396Y-81732410D01*
X101704479Y-82014674D01*
X101534741Y-82268705D01*
X101318705Y-82484741D01*
X101064674Y-82654479D01*
X100782410Y-82771396D01*
X100682527Y-82791264D01*
X100482762Y-82831000D01*
X100177238Y-82831000D01*
X99977473Y-82791264D01*
X99877590Y-82771396D01*
X99595326Y-82654479D01*
X99341295Y-82484741D01*
X99125259Y-82268705D01*
X98955521Y-82014674D01*
X98838604Y-81732410D01*
X98804508Y-81561000D01*
X98779000Y-81432762D01*
X98779000Y-81127238D01*
X98838604Y-80827591D01*
X98872950Y-80744672D01*
X98955521Y-80545326D01*
X99125259Y-80291295D01*
X99341295Y-80075259D01*
X99595326Y-79905521D01*
X99877590Y-79788604D01*
X99977473Y-79768736D01*
X100177238Y-79729000D01*
X100482762Y-79729000D01*
X100682527Y-79768736D01*
X100682527Y-79768736D01*
G37*
G36*
X175612527Y-79768736D02*
X175712410Y-79788604D01*
X175994674Y-79905521D01*
X176248705Y-80075259D01*
X176464741Y-80291295D01*
X176634479Y-80545326D01*
X176717050Y-80744672D01*
X176751396Y-80827591D01*
X176811000Y-81127238D01*
X176811000Y-81432762D01*
X176785492Y-81561000D01*
X176751396Y-81732410D01*
X176634479Y-82014674D01*
X176464741Y-82268705D01*
X176248705Y-82484741D01*
X175994674Y-82654479D01*
X175712410Y-82771396D01*
X175612527Y-82791264D01*
X175412762Y-82831000D01*
X175107238Y-82831000D01*
X174907473Y-82791264D01*
X174807590Y-82771396D01*
X174525326Y-82654479D01*
X174271295Y-82484741D01*
X174055259Y-82268705D01*
X173885521Y-82014674D01*
X173768604Y-81732410D01*
X173734508Y-81561000D01*
X173709000Y-81432762D01*
X173709000Y-81127238D01*
X173768604Y-80827591D01*
X173802950Y-80744672D01*
X173885521Y-80545326D01*
X174055259Y-80291295D01*
X174271295Y-80075259D01*
X174525326Y-79905521D01*
X174807590Y-79788604D01*
X174907473Y-79768736D01*
X175107238Y-79729000D01*
X175412762Y-79729000D01*
X175612527Y-79768736D01*
X175612527Y-79768736D01*
G37*
G36*
X119732527Y-79768736D02*
X119832410Y-79788604D01*
X120114674Y-79905521D01*
X120368705Y-80075259D01*
X120584741Y-80291295D01*
X120754479Y-80545326D01*
X120837050Y-80744672D01*
X120871396Y-80827591D01*
X120931000Y-81127238D01*
X120931000Y-81432762D01*
X120905492Y-81561000D01*
X120871396Y-81732410D01*
X120754479Y-82014674D01*
X120584741Y-82268705D01*
X120368705Y-82484741D01*
X120114674Y-82654479D01*
X119832410Y-82771396D01*
X119732527Y-82791264D01*
X119532762Y-82831000D01*
X119227238Y-82831000D01*
X119027473Y-82791264D01*
X118927590Y-82771396D01*
X118645326Y-82654479D01*
X118391295Y-82484741D01*
X118175259Y-82268705D01*
X118005521Y-82014674D01*
X117888604Y-81732410D01*
X117854508Y-81561000D01*
X117829000Y-81432762D01*
X117829000Y-81127238D01*
X117888604Y-80827591D01*
X117922950Y-80744672D01*
X118005521Y-80545326D01*
X118175259Y-80291295D01*
X118391295Y-80075259D01*
X118645326Y-79905521D01*
X118927590Y-79788604D01*
X119027473Y-79768736D01*
X119227238Y-79729000D01*
X119532762Y-79729000D01*
X119732527Y-79768736D01*
X119732527Y-79768736D01*
G37*
G36*
X138782527Y-79768736D02*
X138882410Y-79788604D01*
X139164674Y-79905521D01*
X139418705Y-80075259D01*
X139634741Y-80291295D01*
X139804479Y-80545326D01*
X139887050Y-80744672D01*
X139921396Y-80827591D01*
X139981000Y-81127238D01*
X139981000Y-81432762D01*
X139955492Y-81561000D01*
X139921396Y-81732410D01*
X139804479Y-82014674D01*
X139634741Y-82268705D01*
X139418705Y-82484741D01*
X139164674Y-82654479D01*
X138882410Y-82771396D01*
X138782527Y-82791264D01*
X138582762Y-82831000D01*
X138277238Y-82831000D01*
X138077473Y-82791264D01*
X137977590Y-82771396D01*
X137695326Y-82654479D01*
X137441295Y-82484741D01*
X137225259Y-82268705D01*
X137055521Y-82014674D01*
X136938604Y-81732410D01*
X136904508Y-81561000D01*
X136879000Y-81432762D01*
X136879000Y-81127238D01*
X136938604Y-80827591D01*
X136972950Y-80744672D01*
X137055521Y-80545326D01*
X137225259Y-80291295D01*
X137441295Y-80075259D01*
X137695326Y-79905521D01*
X137977590Y-79788604D01*
X138077473Y-79768736D01*
X138277238Y-79729000D01*
X138582762Y-79729000D01*
X138782527Y-79768736D01*
X138782527Y-79768736D01*
G37*
G36*
X154821000Y-82581000D02*
X151719000Y-82581000D01*
X151719000Y-79979000D01*
X154821000Y-79979000D01*
X154821000Y-82581000D01*
X154821000Y-82581000D01*
G37*
G36*
X78621000Y-82581000D02*
X75519000Y-82581000D01*
X75519000Y-79979000D01*
X78621000Y-79979000D01*
X78621000Y-82581000D01*
X78621000Y-82581000D01*
G37*
G36*
X97671000Y-82581000D02*
X94569000Y-82581000D01*
X94569000Y-79979000D01*
X97671000Y-79979000D01*
X97671000Y-82581000D01*
X97671000Y-82581000D01*
G37*
G36*
X116721000Y-82581000D02*
X113619000Y-82581000D01*
X113619000Y-79979000D01*
X116721000Y-79979000D01*
X116721000Y-82581000D01*
X116721000Y-82581000D01*
G37*
G36*
X135771000Y-82581000D02*
X132669000Y-82581000D01*
X132669000Y-79979000D01*
X135771000Y-79979000D01*
X135771000Y-82581000D01*
X135771000Y-82581000D01*
G37*
G36*
X68932527Y-78498736D02*
X69032410Y-78518604D01*
X69314674Y-78635521D01*
X69568705Y-78805259D01*
X69784741Y-79021295D01*
X69954479Y-79275326D01*
X70063801Y-79539254D01*
X70071396Y-79557591D01*
X70131000Y-79857238D01*
X70131000Y-80162762D01*
X70105492Y-80291000D01*
X70071396Y-80462410D01*
X69954479Y-80744674D01*
X69784741Y-80998705D01*
X69568705Y-81214741D01*
X69314674Y-81384479D01*
X69032410Y-81501396D01*
X68932527Y-81521264D01*
X68732762Y-81561000D01*
X68427238Y-81561000D01*
X68227473Y-81521264D01*
X68127590Y-81501396D01*
X67845326Y-81384479D01*
X67591295Y-81214741D01*
X67375259Y-80998705D01*
X67205521Y-80744674D01*
X67088604Y-80462410D01*
X67054508Y-80291000D01*
X67029000Y-80162762D01*
X67029000Y-79857238D01*
X67088604Y-79557591D01*
X67096199Y-79539254D01*
X67205521Y-79275326D01*
X67375259Y-79021295D01*
X67591295Y-78805259D01*
X67845326Y-78635521D01*
X68127590Y-78518604D01*
X68227473Y-78498736D01*
X68427238Y-78459000D01*
X68732762Y-78459000D01*
X68932527Y-78498736D01*
X68932527Y-78498736D01*
G37*
G36*
X87982527Y-77228736D02*
X88082410Y-77248604D01*
X88364674Y-77365521D01*
X88618705Y-77535259D01*
X88834741Y-77751295D01*
X89004479Y-78005326D01*
X89121396Y-78287590D01*
X89141264Y-78387473D01*
X89167348Y-78518604D01*
X89181000Y-78587240D01*
X89181000Y-78892760D01*
X89121396Y-79192410D01*
X89004479Y-79474674D01*
X88834741Y-79728705D01*
X88618705Y-79944741D01*
X88364674Y-80114479D01*
X88082410Y-80231396D01*
X87982527Y-80251264D01*
X87782762Y-80291000D01*
X87477238Y-80291000D01*
X87277473Y-80251264D01*
X87177590Y-80231396D01*
X86895326Y-80114479D01*
X86641295Y-79944741D01*
X86425259Y-79728705D01*
X86255521Y-79474674D01*
X86138604Y-79192410D01*
X86079000Y-78892760D01*
X86079000Y-78587240D01*
X86092653Y-78518604D01*
X86118736Y-78387473D01*
X86138604Y-78287590D01*
X86255521Y-78005326D01*
X86425259Y-77751295D01*
X86641295Y-77535259D01*
X86895326Y-77365521D01*
X87177590Y-77248604D01*
X87277473Y-77228736D01*
X87477238Y-77189000D01*
X87782762Y-77189000D01*
X87982527Y-77228736D01*
X87982527Y-77228736D01*
G37*
G36*
X107032527Y-77228736D02*
X107132410Y-77248604D01*
X107414674Y-77365521D01*
X107668705Y-77535259D01*
X107884741Y-77751295D01*
X108054479Y-78005326D01*
X108171396Y-78287590D01*
X108191264Y-78387473D01*
X108217348Y-78518604D01*
X108231000Y-78587240D01*
X108231000Y-78892760D01*
X108171396Y-79192410D01*
X108054479Y-79474674D01*
X107884741Y-79728705D01*
X107668705Y-79944741D01*
X107414674Y-80114479D01*
X107132410Y-80231396D01*
X107032527Y-80251264D01*
X106832762Y-80291000D01*
X106527238Y-80291000D01*
X106327473Y-80251264D01*
X106227590Y-80231396D01*
X105945326Y-80114479D01*
X105691295Y-79944741D01*
X105475259Y-79728705D01*
X105305521Y-79474674D01*
X105188604Y-79192410D01*
X105129000Y-78892760D01*
X105129000Y-78587240D01*
X105142653Y-78518604D01*
X105168736Y-78387473D01*
X105188604Y-78287590D01*
X105305521Y-78005326D01*
X105475259Y-77751295D01*
X105691295Y-77535259D01*
X105945326Y-77365521D01*
X106227590Y-77248604D01*
X106327473Y-77228736D01*
X106527238Y-77189000D01*
X106832762Y-77189000D01*
X107032527Y-77228736D01*
X107032527Y-77228736D01*
G37*
G36*
X164182527Y-77228736D02*
X164282410Y-77248604D01*
X164564674Y-77365521D01*
X164818705Y-77535259D01*
X165034741Y-77751295D01*
X165204479Y-78005326D01*
X165321396Y-78287590D01*
X165341264Y-78387473D01*
X165367348Y-78518604D01*
X165381000Y-78587240D01*
X165381000Y-78892760D01*
X165321396Y-79192410D01*
X165204479Y-79474674D01*
X165034741Y-79728705D01*
X164818705Y-79944741D01*
X164564674Y-80114479D01*
X164282410Y-80231396D01*
X164182527Y-80251264D01*
X163982762Y-80291000D01*
X163677238Y-80291000D01*
X163477473Y-80251264D01*
X163377590Y-80231396D01*
X163095326Y-80114479D01*
X162841295Y-79944741D01*
X162625259Y-79728705D01*
X162455521Y-79474674D01*
X162338604Y-79192410D01*
X162279000Y-78892760D01*
X162279000Y-78587240D01*
X162292653Y-78518604D01*
X162318736Y-78387473D01*
X162338604Y-78287590D01*
X162455521Y-78005326D01*
X162625259Y-77751295D01*
X162841295Y-77535259D01*
X163095326Y-77365521D01*
X163377590Y-77248604D01*
X163477473Y-77228736D01*
X163677238Y-77189000D01*
X163982762Y-77189000D01*
X164182527Y-77228736D01*
X164182527Y-77228736D01*
G37*
G36*
X145132527Y-77228736D02*
X145232410Y-77248604D01*
X145514674Y-77365521D01*
X145768705Y-77535259D01*
X145984741Y-77751295D01*
X146154479Y-78005326D01*
X146271396Y-78287590D01*
X146291264Y-78387473D01*
X146317348Y-78518604D01*
X146331000Y-78587240D01*
X146331000Y-78892760D01*
X146271396Y-79192410D01*
X146154479Y-79474674D01*
X145984741Y-79728705D01*
X145768705Y-79944741D01*
X145514674Y-80114479D01*
X145232410Y-80231396D01*
X145132527Y-80251264D01*
X144932762Y-80291000D01*
X144627238Y-80291000D01*
X144427473Y-80251264D01*
X144327590Y-80231396D01*
X144045326Y-80114479D01*
X143791295Y-79944741D01*
X143575259Y-79728705D01*
X143405521Y-79474674D01*
X143288604Y-79192410D01*
X143229000Y-78892760D01*
X143229000Y-78587240D01*
X143242653Y-78518604D01*
X143268736Y-78387473D01*
X143288604Y-78287590D01*
X143405521Y-78005326D01*
X143575259Y-77751295D01*
X143791295Y-77535259D01*
X144045326Y-77365521D01*
X144327590Y-77248604D01*
X144427473Y-77228736D01*
X144627238Y-77189000D01*
X144932762Y-77189000D01*
X145132527Y-77228736D01*
X145132527Y-77228736D01*
G37*
G36*
X126082527Y-77228736D02*
X126182410Y-77248604D01*
X126464674Y-77365521D01*
X126718705Y-77535259D01*
X126934741Y-77751295D01*
X127104479Y-78005326D01*
X127221396Y-78287590D01*
X127241264Y-78387473D01*
X127267348Y-78518604D01*
X127281000Y-78587240D01*
X127281000Y-78892760D01*
X127221396Y-79192410D01*
X127104479Y-79474674D01*
X126934741Y-79728705D01*
X126718705Y-79944741D01*
X126464674Y-80114479D01*
X126182410Y-80231396D01*
X126082527Y-80251264D01*
X125882762Y-80291000D01*
X125577238Y-80291000D01*
X125377473Y-80251264D01*
X125277590Y-80231396D01*
X124995326Y-80114479D01*
X124741295Y-79944741D01*
X124525259Y-79728705D01*
X124355521Y-79474674D01*
X124238604Y-79192410D01*
X124179000Y-78892760D01*
X124179000Y-78587240D01*
X124192653Y-78518604D01*
X124218736Y-78387473D01*
X124238604Y-78287590D01*
X124355521Y-78005326D01*
X124525259Y-77751295D01*
X124741295Y-77535259D01*
X124995326Y-77365521D01*
X125277590Y-77248604D01*
X125377473Y-77228736D01*
X125577238Y-77189000D01*
X125882762Y-77189000D01*
X126082527Y-77228736D01*
X126082527Y-77228736D01*
G37*
G36*
X131491000Y-80041000D02*
X128389000Y-80041000D01*
X128389000Y-77439000D01*
X131491000Y-77439000D01*
X131491000Y-80041000D01*
X131491000Y-80041000D01*
G37*
G36*
X169591000Y-80041000D02*
X166489000Y-80041000D01*
X166489000Y-77439000D01*
X169591000Y-77439000D01*
X169591000Y-80041000D01*
X169591000Y-80041000D01*
G37*
G36*
X150541000Y-80041000D02*
X147439000Y-80041000D01*
X147439000Y-77439000D01*
X150541000Y-77439000D01*
X150541000Y-80041000D01*
X150541000Y-80041000D01*
G37*
G36*
X112441000Y-80041000D02*
X109339000Y-80041000D01*
X109339000Y-77439000D01*
X112441000Y-77439000D01*
X112441000Y-80041000D01*
X112441000Y-80041000D01*
G37*
G36*
X93391000Y-80041000D02*
X90289000Y-80041000D01*
X90289000Y-77439000D01*
X93391000Y-77439000D01*
X93391000Y-80041000D01*
X93391000Y-80041000D01*
G37*
G36*
X66244993Y-77861206D02*
X66303075Y-77872759D01*
X66351149Y-77892672D01*
X66467210Y-77940746D01*
X66614931Y-78039450D01*
X66740550Y-78165069D01*
X66839254Y-78312790D01*
X66887328Y-78428851D01*
X66907241Y-78476925D01*
X66941900Y-78651171D01*
X66941900Y-78828829D01*
X66907241Y-79003075D01*
X66899694Y-79021295D01*
X66839254Y-79167210D01*
X66740550Y-79314931D01*
X66614931Y-79440550D01*
X66467210Y-79539254D01*
X66351149Y-79587328D01*
X66303075Y-79607241D01*
X66244993Y-79618794D01*
X66128831Y-79641900D01*
X65951169Y-79641900D01*
X65835007Y-79618794D01*
X65776925Y-79607241D01*
X65728851Y-79587328D01*
X65612790Y-79539254D01*
X65465069Y-79440550D01*
X65339450Y-79314931D01*
X65240746Y-79167210D01*
X65180306Y-79021295D01*
X65172759Y-79003075D01*
X65138100Y-78828829D01*
X65138100Y-78651171D01*
X65172759Y-78476925D01*
X65192672Y-78428851D01*
X65240746Y-78312790D01*
X65339450Y-78165069D01*
X65465069Y-78039450D01*
X65612790Y-77940746D01*
X65728851Y-77892672D01*
X65776925Y-77872759D01*
X65835007Y-77861206D01*
X65951169Y-77838100D01*
X66128831Y-77838100D01*
X66244993Y-77861206D01*
X66244993Y-77861206D01*
G37*
G36*
X180544993Y-77861206D02*
X180603075Y-77872759D01*
X180651149Y-77892672D01*
X180767210Y-77940746D01*
X180914931Y-78039450D01*
X181040550Y-78165069D01*
X181139254Y-78312790D01*
X181187328Y-78428851D01*
X181207241Y-78476925D01*
X181241900Y-78651171D01*
X181241900Y-78828829D01*
X181207241Y-79003075D01*
X181199694Y-79021295D01*
X181139254Y-79167210D01*
X181040550Y-79314931D01*
X180914931Y-79440550D01*
X180767210Y-79539254D01*
X180651149Y-79587328D01*
X180603075Y-79607241D01*
X180544993Y-79618794D01*
X180428831Y-79641900D01*
X180251169Y-79641900D01*
X180135007Y-79618794D01*
X180076925Y-79607241D01*
X180028851Y-79587328D01*
X179912790Y-79539254D01*
X179765069Y-79440550D01*
X179639450Y-79314931D01*
X179540746Y-79167210D01*
X179480306Y-79021295D01*
X179472759Y-79003075D01*
X179438100Y-78828829D01*
X179438100Y-78651171D01*
X179472759Y-78476925D01*
X179492672Y-78428851D01*
X179540746Y-78312790D01*
X179639450Y-78165069D01*
X179765069Y-78039450D01*
X179912790Y-77940746D01*
X180028851Y-77892672D01*
X180076925Y-77872759D01*
X180135007Y-77861206D01*
X180251169Y-77838100D01*
X180428831Y-77838100D01*
X180544993Y-77861206D01*
X180544993Y-77861206D01*
G37*
G36*
X176561000Y-78621000D02*
X173959000Y-78621000D01*
X173959000Y-75519000D01*
X176561000Y-75519000D01*
X176561000Y-78621000D01*
X176561000Y-78621000D01*
G37*
G36*
X69881000Y-77351000D02*
X67279000Y-77351000D01*
X67279000Y-74249000D01*
X69881000Y-74249000D01*
X69881000Y-77351000D01*
X69881000Y-77351000D01*
G37*
G36*
X164741000Y-75581000D02*
X163539000Y-75581000D01*
X163539000Y-67929000D01*
X164741000Y-67929000D01*
X164741000Y-75581000D01*
X164741000Y-75581000D01*
G37*
G36*
X88541000Y-75581000D02*
X87339000Y-75581000D01*
X87339000Y-67929000D01*
X88541000Y-67929000D01*
X88541000Y-75581000D01*
X88541000Y-75581000D01*
G37*
G36*
X82841000Y-75581000D02*
X81639000Y-75581000D01*
X81639000Y-67929000D01*
X82841000Y-67929000D01*
X82841000Y-75581000D01*
X82841000Y-75581000D01*
G37*
G36*
X159041000Y-75581000D02*
X157839000Y-75581000D01*
X157839000Y-67929000D01*
X159041000Y-67929000D01*
X159041000Y-75581000D01*
X159041000Y-75581000D01*
G37*
G36*
X94852142Y-73513242D02*
X95000102Y-73574530D01*
X95133258Y-73663502D01*
X95246498Y-73776742D01*
X95335470Y-73909898D01*
X95396758Y-74057858D01*
X95428000Y-74214925D01*
X95428000Y-74375075D01*
X95396758Y-74532142D01*
X95349354Y-74646583D01*
X95335471Y-74680100D01*
X95246499Y-74813257D01*
X95133257Y-74926499D01*
X95067130Y-74970683D01*
X95000102Y-75015470D01*
X94852142Y-75076758D01*
X94695075Y-75108000D01*
X94534925Y-75108000D01*
X94377858Y-75076758D01*
X94229898Y-75015470D01*
X94162870Y-74970683D01*
X94096743Y-74926499D01*
X93983501Y-74813257D01*
X93894529Y-74680100D01*
X93880646Y-74646583D01*
X93833242Y-74532142D01*
X93802000Y-74375075D01*
X93802000Y-74214925D01*
X93833242Y-74057858D01*
X93894530Y-73909898D01*
X93983502Y-73776742D01*
X94096742Y-73663502D01*
X94229898Y-73574530D01*
X94377858Y-73513242D01*
X94534925Y-73482000D01*
X94695075Y-73482000D01*
X94852142Y-73513242D01*
X94852142Y-73513242D01*
G37*
G36*
X152002142Y-73513242D02*
X152150102Y-73574530D01*
X152283258Y-73663502D01*
X152396498Y-73776742D01*
X152485470Y-73909898D01*
X152546758Y-74057858D01*
X152578000Y-74214925D01*
X152578000Y-74375075D01*
X152546758Y-74532142D01*
X152499354Y-74646583D01*
X152485471Y-74680100D01*
X152396499Y-74813257D01*
X152283257Y-74926499D01*
X152217130Y-74970683D01*
X152150102Y-75015470D01*
X152002142Y-75076758D01*
X151845075Y-75108000D01*
X151684925Y-75108000D01*
X151527858Y-75076758D01*
X151379898Y-75015470D01*
X151312870Y-74970683D01*
X151246743Y-74926499D01*
X151133501Y-74813257D01*
X151044529Y-74680100D01*
X151030646Y-74646583D01*
X150983242Y-74532142D01*
X150952000Y-74375075D01*
X150952000Y-74214925D01*
X150983242Y-74057858D01*
X151044530Y-73909898D01*
X151133502Y-73776742D01*
X151246742Y-73663502D01*
X151379898Y-73574530D01*
X151527858Y-73513242D01*
X151684925Y-73482000D01*
X151845075Y-73482000D01*
X152002142Y-73513242D01*
X152002142Y-73513242D01*
G37*
G36*
X179101000Y-74341000D02*
X176499000Y-74341000D01*
X176499000Y-71239000D01*
X179101000Y-71239000D01*
X179101000Y-74341000D01*
X179101000Y-74341000D01*
G37*
G36*
X72421000Y-73071000D02*
X69819000Y-73071000D01*
X69819000Y-69969000D01*
X72421000Y-69969000D01*
X72421000Y-73071000D01*
X72421000Y-73071000D01*
G37*
G36*
X66244993Y-68971206D02*
X66303075Y-68982759D01*
X66351149Y-69002672D01*
X66467210Y-69050746D01*
X66614931Y-69149450D01*
X66740550Y-69275069D01*
X66839254Y-69422790D01*
X66887328Y-69538851D01*
X66899695Y-69568707D01*
X66907241Y-69586926D01*
X66941900Y-69761169D01*
X66941900Y-69938831D01*
X66907241Y-70113074D01*
X66839254Y-70277210D01*
X66740550Y-70424931D01*
X66614931Y-70550550D01*
X66467210Y-70649254D01*
X66351149Y-70697328D01*
X66303075Y-70717241D01*
X66244993Y-70728794D01*
X66128831Y-70751900D01*
X65951169Y-70751900D01*
X65835007Y-70728794D01*
X65776925Y-70717241D01*
X65728851Y-70697328D01*
X65612790Y-70649254D01*
X65465069Y-70550550D01*
X65339450Y-70424931D01*
X65240746Y-70277210D01*
X65172759Y-70113074D01*
X65138100Y-69938831D01*
X65138100Y-69761169D01*
X65172759Y-69586926D01*
X65180306Y-69568707D01*
X65192672Y-69538851D01*
X65240746Y-69422790D01*
X65339450Y-69275069D01*
X65465069Y-69149450D01*
X65612790Y-69050746D01*
X65728851Y-69002672D01*
X65776925Y-68982759D01*
X65835007Y-68971206D01*
X65951169Y-68948100D01*
X66128831Y-68948100D01*
X66244993Y-68971206D01*
X66244993Y-68971206D01*
G37*
G36*
X180544993Y-68971206D02*
X180603075Y-68982759D01*
X180651149Y-69002672D01*
X180767210Y-69050746D01*
X180914931Y-69149450D01*
X181040550Y-69275069D01*
X181139254Y-69422790D01*
X181187328Y-69538851D01*
X181199695Y-69568707D01*
X181207241Y-69586926D01*
X181241900Y-69761169D01*
X181241900Y-69938831D01*
X181207241Y-70113074D01*
X181139254Y-70277210D01*
X181040550Y-70424931D01*
X180914931Y-70550550D01*
X180767210Y-70649254D01*
X180651149Y-70697328D01*
X180603075Y-70717241D01*
X180544993Y-70728794D01*
X180428831Y-70751900D01*
X180251169Y-70751900D01*
X180135007Y-70728794D01*
X180076925Y-70717241D01*
X180028851Y-70697328D01*
X179912790Y-70649254D01*
X179765069Y-70550550D01*
X179639450Y-70424931D01*
X179540746Y-70277210D01*
X179472759Y-70113074D01*
X179438100Y-69938831D01*
X179438100Y-69761169D01*
X179472759Y-69586926D01*
X179480306Y-69568707D01*
X179492672Y-69538851D01*
X179540746Y-69422790D01*
X179639450Y-69275069D01*
X179765069Y-69149450D01*
X179912790Y-69050746D01*
X180028851Y-69002672D01*
X180076925Y-68982759D01*
X180135007Y-68971206D01*
X180251169Y-68948100D01*
X180428831Y-68948100D01*
X180544993Y-68971206D01*
X180544993Y-68971206D01*
G37*
G36*
X178152527Y-67068736D02*
X178252410Y-67088604D01*
X178534674Y-67205521D01*
X178788705Y-67375259D01*
X179004741Y-67591295D01*
X179174479Y-67845326D01*
X179257050Y-68044672D01*
X179291396Y-68127591D01*
X179351000Y-68427238D01*
X179351000Y-68732762D01*
X179325492Y-68861000D01*
X179291396Y-69032410D01*
X179174479Y-69314674D01*
X179004741Y-69568705D01*
X178788705Y-69784741D01*
X178534674Y-69954479D01*
X178252410Y-70071396D01*
X178152527Y-70091264D01*
X177952762Y-70131000D01*
X177647238Y-70131000D01*
X177447473Y-70091264D01*
X177347590Y-70071396D01*
X177065326Y-69954479D01*
X176811295Y-69784741D01*
X176595259Y-69568705D01*
X176425521Y-69314674D01*
X176308604Y-69032410D01*
X176274508Y-68861000D01*
X176249000Y-68732762D01*
X176249000Y-68427238D01*
X176308604Y-68127591D01*
X176342950Y-68044672D01*
X176425521Y-67845326D01*
X176595259Y-67591295D01*
X176811295Y-67375259D01*
X177065326Y-67205521D01*
X177347590Y-67088604D01*
X177447473Y-67068736D01*
X177647238Y-67029000D01*
X177952762Y-67029000D01*
X178152527Y-67068736D01*
X178152527Y-67068736D01*
G37*
G36*
X71472527Y-65798736D02*
X71572410Y-65818604D01*
X71854674Y-65935521D01*
X72108705Y-66105259D01*
X72324741Y-66321295D01*
X72494479Y-66575326D01*
X72593713Y-66814900D01*
X72611396Y-66857591D01*
X72657348Y-67088604D01*
X72671000Y-67157240D01*
X72671000Y-67462760D01*
X72611396Y-67762410D01*
X72494479Y-68044674D01*
X72324741Y-68298705D01*
X72108705Y-68514741D01*
X71854674Y-68684479D01*
X71572410Y-68801396D01*
X71472527Y-68821264D01*
X71272762Y-68861000D01*
X70967238Y-68861000D01*
X70767473Y-68821264D01*
X70667590Y-68801396D01*
X70385326Y-68684479D01*
X70131295Y-68514741D01*
X69915259Y-68298705D01*
X69745521Y-68044674D01*
X69628604Y-67762410D01*
X69569000Y-67462760D01*
X69569000Y-67157240D01*
X69582653Y-67088604D01*
X69628604Y-66857591D01*
X69646287Y-66814900D01*
X69745521Y-66575326D01*
X69915259Y-66321295D01*
X70131295Y-66105259D01*
X70385326Y-65935521D01*
X70667590Y-65818604D01*
X70767473Y-65798736D01*
X70967238Y-65759000D01*
X71272762Y-65759000D01*
X71472527Y-65798736D01*
X71472527Y-65798736D01*
G37*
G36*
X161886472Y-62803684D02*
X161886474Y-62803685D01*
X161886475Y-62803685D01*
X162258623Y-62957833D01*
X162593548Y-63181623D01*
X162878377Y-63466452D01*
X163102167Y-63801377D01*
X163172322Y-63970747D01*
X163256316Y-64173528D01*
X163334900Y-64568594D01*
X163334900Y-64971406D01*
X163260601Y-65344931D01*
X163256315Y-65366475D01*
X163102167Y-65738623D01*
X162878377Y-66073548D01*
X162593548Y-66358377D01*
X162258623Y-66582167D01*
X161886475Y-66736315D01*
X161886474Y-66736315D01*
X161886472Y-66736316D01*
X161491406Y-66814900D01*
X161088594Y-66814900D01*
X160693528Y-66736316D01*
X160693526Y-66736315D01*
X160693525Y-66736315D01*
X160321377Y-66582167D01*
X159986452Y-66358377D01*
X159701623Y-66073548D01*
X159477833Y-65738623D01*
X159323685Y-65366475D01*
X159319400Y-65344931D01*
X159245100Y-64971406D01*
X159245100Y-64568594D01*
X159323684Y-64173528D01*
X159407678Y-63970747D01*
X159477833Y-63801377D01*
X159701623Y-63466452D01*
X159986452Y-63181623D01*
X160321377Y-62957833D01*
X160693525Y-62803685D01*
X160693526Y-62803685D01*
X160693528Y-62803684D01*
X161088594Y-62725100D01*
X161491406Y-62725100D01*
X161886472Y-62803684D01*
X161886472Y-62803684D01*
G37*
G36*
X85686472Y-62803684D02*
X85686474Y-62803685D01*
X85686475Y-62803685D01*
X86058623Y-62957833D01*
X86393548Y-63181623D01*
X86678377Y-63466452D01*
X86902167Y-63801377D01*
X86972322Y-63970747D01*
X87056316Y-64173528D01*
X87134900Y-64568594D01*
X87134900Y-64971406D01*
X87060601Y-65344931D01*
X87056315Y-65366475D01*
X86902167Y-65738623D01*
X86678377Y-66073548D01*
X86393548Y-66358377D01*
X86058623Y-66582167D01*
X85686475Y-66736315D01*
X85686474Y-66736315D01*
X85686472Y-66736316D01*
X85291406Y-66814900D01*
X84888594Y-66814900D01*
X84493528Y-66736316D01*
X84493526Y-66736315D01*
X84493525Y-66736315D01*
X84121377Y-66582167D01*
X83786452Y-66358377D01*
X83501623Y-66073548D01*
X83277833Y-65738623D01*
X83123685Y-65366475D01*
X83119400Y-65344931D01*
X83045100Y-64971406D01*
X83045100Y-64568594D01*
X83123684Y-64173528D01*
X83207678Y-63970747D01*
X83277833Y-63801377D01*
X83501623Y-63466452D01*
X83786452Y-63181623D01*
X84121377Y-62957833D01*
X84493525Y-62803685D01*
X84493526Y-62803685D01*
X84493528Y-62803684D01*
X84888594Y-62725100D01*
X85291406Y-62725100D01*
X85686472Y-62803684D01*
X85686472Y-62803684D01*
G37*
G36*
X66636472Y-62803684D02*
X66636474Y-62803685D01*
X66636475Y-62803685D01*
X67008623Y-62957833D01*
X67343548Y-63181623D01*
X67628377Y-63466452D01*
X67852167Y-63801377D01*
X67922322Y-63970747D01*
X68006316Y-64173528D01*
X68084900Y-64568594D01*
X68084900Y-64971406D01*
X68010601Y-65344931D01*
X68006315Y-65366475D01*
X67852167Y-65738623D01*
X67628377Y-66073548D01*
X67343548Y-66358377D01*
X67008623Y-66582167D01*
X66636475Y-66736315D01*
X66636474Y-66736315D01*
X66636472Y-66736316D01*
X66241406Y-66814900D01*
X65838594Y-66814900D01*
X65443528Y-66736316D01*
X65443526Y-66736315D01*
X65443525Y-66736315D01*
X65071377Y-66582167D01*
X64736452Y-66358377D01*
X64451623Y-66073548D01*
X64227833Y-65738623D01*
X64073685Y-65366475D01*
X64069400Y-65344931D01*
X63995100Y-64971406D01*
X63995100Y-64568594D01*
X64073684Y-64173528D01*
X64157678Y-63970747D01*
X64227833Y-63801377D01*
X64451623Y-63466452D01*
X64736452Y-63181623D01*
X65071377Y-62957833D01*
X65443525Y-62803685D01*
X65443526Y-62803685D01*
X65443528Y-62803684D01*
X65838594Y-62725100D01*
X66241406Y-62725100D01*
X66636472Y-62803684D01*
X66636472Y-62803684D01*
G37*
G36*
X104736472Y-62803684D02*
X104736474Y-62803685D01*
X104736475Y-62803685D01*
X105108623Y-62957833D01*
X105443548Y-63181623D01*
X105728377Y-63466452D01*
X105952167Y-63801377D01*
X106022322Y-63970747D01*
X106106316Y-64173528D01*
X106184900Y-64568594D01*
X106184900Y-64971406D01*
X106110601Y-65344931D01*
X106106315Y-65366475D01*
X105952167Y-65738623D01*
X105728377Y-66073548D01*
X105443548Y-66358377D01*
X105108623Y-66582167D01*
X104736475Y-66736315D01*
X104736474Y-66736315D01*
X104736472Y-66736316D01*
X104341406Y-66814900D01*
X103938594Y-66814900D01*
X103543528Y-66736316D01*
X103543526Y-66736315D01*
X103543525Y-66736315D01*
X103171377Y-66582167D01*
X102836452Y-66358377D01*
X102551623Y-66073548D01*
X102327833Y-65738623D01*
X102173685Y-65366475D01*
X102169400Y-65344931D01*
X102095100Y-64971406D01*
X102095100Y-64568594D01*
X102173684Y-64173528D01*
X102257678Y-63970747D01*
X102327833Y-63801377D01*
X102551623Y-63466452D01*
X102836452Y-63181623D01*
X103171377Y-62957833D01*
X103543525Y-62803685D01*
X103543526Y-62803685D01*
X103543528Y-62803684D01*
X103938594Y-62725100D01*
X104341406Y-62725100D01*
X104736472Y-62803684D01*
X104736472Y-62803684D01*
G37*
G36*
X123786472Y-62803684D02*
X123786474Y-62803685D01*
X123786475Y-62803685D01*
X124158623Y-62957833D01*
X124493548Y-63181623D01*
X124778377Y-63466452D01*
X125002167Y-63801377D01*
X125072322Y-63970747D01*
X125156316Y-64173528D01*
X125234900Y-64568594D01*
X125234900Y-64971406D01*
X125160601Y-65344931D01*
X125156315Y-65366475D01*
X125002167Y-65738623D01*
X124778377Y-66073548D01*
X124493548Y-66358377D01*
X124158623Y-66582167D01*
X123786475Y-66736315D01*
X123786474Y-66736315D01*
X123786472Y-66736316D01*
X123391406Y-66814900D01*
X122988594Y-66814900D01*
X122593528Y-66736316D01*
X122593526Y-66736315D01*
X122593525Y-66736315D01*
X122221377Y-66582167D01*
X121886452Y-66358377D01*
X121601623Y-66073548D01*
X121377833Y-65738623D01*
X121223685Y-65366475D01*
X121219400Y-65344931D01*
X121145100Y-64971406D01*
X121145100Y-64568594D01*
X121223684Y-64173528D01*
X121307678Y-63970747D01*
X121377833Y-63801377D01*
X121601623Y-63466452D01*
X121886452Y-63181623D01*
X122221377Y-62957833D01*
X122593525Y-62803685D01*
X122593526Y-62803685D01*
X122593528Y-62803684D01*
X122988594Y-62725100D01*
X123391406Y-62725100D01*
X123786472Y-62803684D01*
X123786472Y-62803684D01*
G37*
G36*
X180936472Y-62803684D02*
X180936474Y-62803685D01*
X180936475Y-62803685D01*
X181308623Y-62957833D01*
X181643548Y-63181623D01*
X181928377Y-63466452D01*
X182152167Y-63801377D01*
X182222322Y-63970747D01*
X182306316Y-64173528D01*
X182384900Y-64568594D01*
X182384900Y-64971406D01*
X182310601Y-65344931D01*
X182306315Y-65366475D01*
X182152167Y-65738623D01*
X181928377Y-66073548D01*
X181643548Y-66358377D01*
X181308623Y-66582167D01*
X180936475Y-66736315D01*
X180936474Y-66736315D01*
X180936472Y-66736316D01*
X180541406Y-66814900D01*
X180138594Y-66814900D01*
X179743528Y-66736316D01*
X179743526Y-66736315D01*
X179743525Y-66736315D01*
X179371377Y-66582167D01*
X179036452Y-66358377D01*
X178751623Y-66073548D01*
X178527833Y-65738623D01*
X178373685Y-65366475D01*
X178369400Y-65344931D01*
X178295100Y-64971406D01*
X178295100Y-64568594D01*
X178373684Y-64173528D01*
X178457678Y-63970747D01*
X178527833Y-63801377D01*
X178751623Y-63466452D01*
X179036452Y-63181623D01*
X179371377Y-62957833D01*
X179743525Y-62803685D01*
X179743526Y-62803685D01*
X179743528Y-62803684D01*
X180138594Y-62725100D01*
X180541406Y-62725100D01*
X180936472Y-62803684D01*
X180936472Y-62803684D01*
G37*
G36*
X142836472Y-62803684D02*
X142836474Y-62803685D01*
X142836475Y-62803685D01*
X143208623Y-62957833D01*
X143543548Y-63181623D01*
X143828377Y-63466452D01*
X144052167Y-63801377D01*
X144122322Y-63970747D01*
X144206316Y-64173528D01*
X144284900Y-64568594D01*
X144284900Y-64971406D01*
X144210601Y-65344931D01*
X144206315Y-65366475D01*
X144052167Y-65738623D01*
X143828377Y-66073548D01*
X143543548Y-66358377D01*
X143208623Y-66582167D01*
X142836475Y-66736315D01*
X142836474Y-66736315D01*
X142836472Y-66736316D01*
X142441406Y-66814900D01*
X142038594Y-66814900D01*
X141643528Y-66736316D01*
X141643526Y-66736315D01*
X141643525Y-66736315D01*
X141271377Y-66582167D01*
X140936452Y-66358377D01*
X140651623Y-66073548D01*
X140427833Y-65738623D01*
X140273685Y-65366475D01*
X140269400Y-65344931D01*
X140195100Y-64971406D01*
X140195100Y-64568594D01*
X140273684Y-64173528D01*
X140357678Y-63970747D01*
X140427833Y-63801377D01*
X140651623Y-63466452D01*
X140936452Y-63181623D01*
X141271377Y-62957833D01*
X141643525Y-62803685D01*
X141643526Y-62803685D01*
X141643528Y-62803684D01*
X142038594Y-62725100D01*
X142441406Y-62725100D01*
X142836472Y-62803684D01*
X142836472Y-62803684D01*
G37*
G36*
X99264993Y-63891206D02*
X99323075Y-63902759D01*
X99371149Y-63922672D01*
X99487210Y-63970746D01*
X99634931Y-64069450D01*
X99760550Y-64195069D01*
X99859254Y-64342790D01*
X99927241Y-64506926D01*
X99961900Y-64681169D01*
X99961900Y-64858831D01*
X99927241Y-65033074D01*
X99859254Y-65197210D01*
X99760550Y-65344931D01*
X99634931Y-65470550D01*
X99487210Y-65569254D01*
X99371149Y-65617328D01*
X99323075Y-65637241D01*
X99264993Y-65648794D01*
X99148831Y-65671900D01*
X98971169Y-65671900D01*
X98855007Y-65648794D01*
X98796925Y-65637241D01*
X98748851Y-65617328D01*
X98632790Y-65569254D01*
X98485069Y-65470550D01*
X98359450Y-65344931D01*
X98260746Y-65197210D01*
X98192759Y-65033074D01*
X98158100Y-64858831D01*
X98158100Y-64681169D01*
X98192759Y-64506926D01*
X98260746Y-64342790D01*
X98359450Y-64195069D01*
X98485069Y-64069450D01*
X98632790Y-63970746D01*
X98748851Y-63922672D01*
X98796925Y-63902759D01*
X98855007Y-63891206D01*
X98971169Y-63868100D01*
X99148831Y-63868100D01*
X99264993Y-63891206D01*
X99264993Y-63891206D01*
G37*
G36*
X128474993Y-63891206D02*
X128533075Y-63902759D01*
X128581149Y-63922672D01*
X128697210Y-63970746D01*
X128844931Y-64069450D01*
X128970550Y-64195069D01*
X129069254Y-64342790D01*
X129137241Y-64506926D01*
X129171900Y-64681169D01*
X129171900Y-64858831D01*
X129137241Y-65033074D01*
X129069254Y-65197210D01*
X128970550Y-65344931D01*
X128844931Y-65470550D01*
X128697210Y-65569254D01*
X128581149Y-65617328D01*
X128533075Y-65637241D01*
X128474993Y-65648794D01*
X128358831Y-65671900D01*
X128181169Y-65671900D01*
X128065007Y-65648794D01*
X128006925Y-65637241D01*
X127958851Y-65617328D01*
X127842790Y-65569254D01*
X127695069Y-65470550D01*
X127569450Y-65344931D01*
X127470746Y-65197210D01*
X127402759Y-65033074D01*
X127368100Y-64858831D01*
X127368100Y-64681169D01*
X127402759Y-64506926D01*
X127470746Y-64342790D01*
X127569450Y-64195069D01*
X127695069Y-64069450D01*
X127842790Y-63970746D01*
X127958851Y-63922672D01*
X128006925Y-63902759D01*
X128065007Y-63891206D01*
X128181169Y-63868100D01*
X128358831Y-63868100D01*
X128474993Y-63891206D01*
X128474993Y-63891206D01*
G37*
G36*
X109424993Y-63891206D02*
X109483075Y-63902759D01*
X109531149Y-63922672D01*
X109647210Y-63970746D01*
X109794931Y-64069450D01*
X109920550Y-64195069D01*
X110019254Y-64342790D01*
X110087241Y-64506926D01*
X110121900Y-64681169D01*
X110121900Y-64858831D01*
X110087241Y-65033074D01*
X110019254Y-65197210D01*
X109920550Y-65344931D01*
X109794931Y-65470550D01*
X109647210Y-65569254D01*
X109531149Y-65617328D01*
X109483075Y-65637241D01*
X109424993Y-65648794D01*
X109308831Y-65671900D01*
X109131169Y-65671900D01*
X109015007Y-65648794D01*
X108956925Y-65637241D01*
X108908851Y-65617328D01*
X108792790Y-65569254D01*
X108645069Y-65470550D01*
X108519450Y-65344931D01*
X108420746Y-65197210D01*
X108352759Y-65033074D01*
X108318100Y-64858831D01*
X108318100Y-64681169D01*
X108352759Y-64506926D01*
X108420746Y-64342790D01*
X108519450Y-64195069D01*
X108645069Y-64069450D01*
X108792790Y-63970746D01*
X108908851Y-63922672D01*
X108956925Y-63902759D01*
X109015007Y-63891206D01*
X109131169Y-63868100D01*
X109308831Y-63868100D01*
X109424993Y-63891206D01*
X109424993Y-63891206D01*
G37*
G36*
X90374993Y-63891206D02*
X90433075Y-63902759D01*
X90481149Y-63922672D01*
X90597210Y-63970746D01*
X90744931Y-64069450D01*
X90870550Y-64195069D01*
X90969254Y-64342790D01*
X91037241Y-64506926D01*
X91071900Y-64681169D01*
X91071900Y-64858831D01*
X91037241Y-65033074D01*
X90969254Y-65197210D01*
X90870550Y-65344931D01*
X90744931Y-65470550D01*
X90597210Y-65569254D01*
X90481149Y-65617328D01*
X90433075Y-65637241D01*
X90374993Y-65648794D01*
X90258831Y-65671900D01*
X90081169Y-65671900D01*
X89965007Y-65648794D01*
X89906925Y-65637241D01*
X89858851Y-65617328D01*
X89742790Y-65569254D01*
X89595069Y-65470550D01*
X89469450Y-65344931D01*
X89370746Y-65197210D01*
X89302759Y-65033074D01*
X89268100Y-64858831D01*
X89268100Y-64681169D01*
X89302759Y-64506926D01*
X89370746Y-64342790D01*
X89469450Y-64195069D01*
X89595069Y-64069450D01*
X89742790Y-63970746D01*
X89858851Y-63922672D01*
X89906925Y-63902759D01*
X89965007Y-63891206D01*
X90081169Y-63868100D01*
X90258831Y-63868100D01*
X90374993Y-63891206D01*
X90374993Y-63891206D01*
G37*
G36*
X166574993Y-63891206D02*
X166633075Y-63902759D01*
X166681149Y-63922672D01*
X166797210Y-63970746D01*
X166944931Y-64069450D01*
X167070550Y-64195069D01*
X167169254Y-64342790D01*
X167237241Y-64506926D01*
X167271900Y-64681169D01*
X167271900Y-64858831D01*
X167237241Y-65033074D01*
X167169254Y-65197210D01*
X167070550Y-65344931D01*
X166944931Y-65470550D01*
X166797210Y-65569254D01*
X166681149Y-65617328D01*
X166633075Y-65637241D01*
X166574993Y-65648794D01*
X166458831Y-65671900D01*
X166281169Y-65671900D01*
X166165007Y-65648794D01*
X166106925Y-65637241D01*
X166058851Y-65617328D01*
X165942790Y-65569254D01*
X165795069Y-65470550D01*
X165669450Y-65344931D01*
X165570746Y-65197210D01*
X165502759Y-65033074D01*
X165468100Y-64858831D01*
X165468100Y-64681169D01*
X165502759Y-64506926D01*
X165570746Y-64342790D01*
X165669450Y-64195069D01*
X165795069Y-64069450D01*
X165942790Y-63970746D01*
X166058851Y-63922672D01*
X166106925Y-63902759D01*
X166165007Y-63891206D01*
X166281169Y-63868100D01*
X166458831Y-63868100D01*
X166574993Y-63891206D01*
X166574993Y-63891206D01*
G37*
G36*
X137364993Y-63891206D02*
X137423075Y-63902759D01*
X137471149Y-63922672D01*
X137587210Y-63970746D01*
X137734931Y-64069450D01*
X137860550Y-64195069D01*
X137959254Y-64342790D01*
X138027241Y-64506926D01*
X138061900Y-64681169D01*
X138061900Y-64858831D01*
X138027241Y-65033074D01*
X137959254Y-65197210D01*
X137860550Y-65344931D01*
X137734931Y-65470550D01*
X137587210Y-65569254D01*
X137471149Y-65617328D01*
X137423075Y-65637241D01*
X137364993Y-65648794D01*
X137248831Y-65671900D01*
X137071169Y-65671900D01*
X136955007Y-65648794D01*
X136896925Y-65637241D01*
X136848851Y-65617328D01*
X136732790Y-65569254D01*
X136585069Y-65470550D01*
X136459450Y-65344931D01*
X136360746Y-65197210D01*
X136292759Y-65033074D01*
X136258100Y-64858831D01*
X136258100Y-64681169D01*
X136292759Y-64506926D01*
X136360746Y-64342790D01*
X136459450Y-64195069D01*
X136585069Y-64069450D01*
X136732790Y-63970746D01*
X136848851Y-63922672D01*
X136896925Y-63902759D01*
X136955007Y-63891206D01*
X137071169Y-63868100D01*
X137248831Y-63868100D01*
X137364993Y-63891206D01*
X137364993Y-63891206D01*
G37*
G36*
X118314993Y-63891206D02*
X118373075Y-63902759D01*
X118421149Y-63922672D01*
X118537210Y-63970746D01*
X118684931Y-64069450D01*
X118810550Y-64195069D01*
X118909254Y-64342790D01*
X118977241Y-64506926D01*
X119011900Y-64681169D01*
X119011900Y-64858831D01*
X118977241Y-65033074D01*
X118909254Y-65197210D01*
X118810550Y-65344931D01*
X118684931Y-65470550D01*
X118537210Y-65569254D01*
X118421149Y-65617328D01*
X118373075Y-65637241D01*
X118314993Y-65648794D01*
X118198831Y-65671900D01*
X118021169Y-65671900D01*
X117905007Y-65648794D01*
X117846925Y-65637241D01*
X117798851Y-65617328D01*
X117682790Y-65569254D01*
X117535069Y-65470550D01*
X117409450Y-65344931D01*
X117310746Y-65197210D01*
X117242759Y-65033074D01*
X117208100Y-64858831D01*
X117208100Y-64681169D01*
X117242759Y-64506926D01*
X117310746Y-64342790D01*
X117409450Y-64195069D01*
X117535069Y-64069450D01*
X117682790Y-63970746D01*
X117798851Y-63922672D01*
X117846925Y-63902759D01*
X117905007Y-63891206D01*
X118021169Y-63868100D01*
X118198831Y-63868100D01*
X118314993Y-63891206D01*
X118314993Y-63891206D01*
G37*
G36*
X156414993Y-63891206D02*
X156473075Y-63902759D01*
X156521149Y-63922672D01*
X156637210Y-63970746D01*
X156784931Y-64069450D01*
X156910550Y-64195069D01*
X157009254Y-64342790D01*
X157077241Y-64506926D01*
X157111900Y-64681169D01*
X157111900Y-64858831D01*
X157077241Y-65033074D01*
X157009254Y-65197210D01*
X156910550Y-65344931D01*
X156784931Y-65470550D01*
X156637210Y-65569254D01*
X156521149Y-65617328D01*
X156473075Y-65637241D01*
X156414993Y-65648794D01*
X156298831Y-65671900D01*
X156121169Y-65671900D01*
X156005007Y-65648794D01*
X155946925Y-65637241D01*
X155898851Y-65617328D01*
X155782790Y-65569254D01*
X155635069Y-65470550D01*
X155509450Y-65344931D01*
X155410746Y-65197210D01*
X155342759Y-65033074D01*
X155308100Y-64858831D01*
X155308100Y-64681169D01*
X155342759Y-64506926D01*
X155410746Y-64342790D01*
X155509450Y-64195069D01*
X155635069Y-64069450D01*
X155782790Y-63970746D01*
X155898851Y-63922672D01*
X155946925Y-63902759D01*
X156005007Y-63891206D01*
X156121169Y-63868100D01*
X156298831Y-63868100D01*
X156414993Y-63891206D01*
X156414993Y-63891206D01*
G37*
G36*
X147524993Y-63891206D02*
X147583075Y-63902759D01*
X147631149Y-63922672D01*
X147747210Y-63970746D01*
X147894931Y-64069450D01*
X148020550Y-64195069D01*
X148119254Y-64342790D01*
X148187241Y-64506926D01*
X148221900Y-64681169D01*
X148221900Y-64858831D01*
X148187241Y-65033074D01*
X148119254Y-65197210D01*
X148020550Y-65344931D01*
X147894931Y-65470550D01*
X147747210Y-65569254D01*
X147631149Y-65617328D01*
X147583075Y-65637241D01*
X147524993Y-65648794D01*
X147408831Y-65671900D01*
X147231169Y-65671900D01*
X147115007Y-65648794D01*
X147056925Y-65637241D01*
X147008851Y-65617328D01*
X146892790Y-65569254D01*
X146745069Y-65470550D01*
X146619450Y-65344931D01*
X146520746Y-65197210D01*
X146452759Y-65033074D01*
X146418100Y-64858831D01*
X146418100Y-64681169D01*
X146452759Y-64506926D01*
X146520746Y-64342790D01*
X146619450Y-64195069D01*
X146745069Y-64069450D01*
X146892790Y-63970746D01*
X147008851Y-63922672D01*
X147056925Y-63902759D01*
X147115007Y-63891206D01*
X147231169Y-63868100D01*
X147408831Y-63868100D01*
X147524993Y-63891206D01*
X147524993Y-63891206D01*
G37*
G36*
X80214993Y-63891206D02*
X80273075Y-63902759D01*
X80321149Y-63922672D01*
X80437210Y-63970746D01*
X80584931Y-64069450D01*
X80710550Y-64195069D01*
X80809254Y-64342790D01*
X80877241Y-64506926D01*
X80911900Y-64681169D01*
X80911900Y-64858831D01*
X80877241Y-65033074D01*
X80809254Y-65197210D01*
X80710550Y-65344931D01*
X80584931Y-65470550D01*
X80437210Y-65569254D01*
X80321149Y-65617328D01*
X80273075Y-65637241D01*
X80214993Y-65648794D01*
X80098831Y-65671900D01*
X79921169Y-65671900D01*
X79805007Y-65648794D01*
X79746925Y-65637241D01*
X79698851Y-65617328D01*
X79582790Y-65569254D01*
X79435069Y-65470550D01*
X79309450Y-65344931D01*
X79210746Y-65197210D01*
X79142759Y-65033074D01*
X79108100Y-64858831D01*
X79108100Y-64681169D01*
X79142759Y-64506926D01*
X79210746Y-64342790D01*
X79309450Y-64195069D01*
X79435069Y-64069450D01*
X79582790Y-63970746D01*
X79698851Y-63922672D01*
X79746925Y-63902759D01*
X79805007Y-63891206D01*
X79921169Y-63868100D01*
X80098831Y-63868100D01*
X80214993Y-63891206D01*
X80214993Y-63891206D01*
G37*
G36*
X138782527Y-60718736D02*
X138882410Y-60738604D01*
X139164674Y-60855521D01*
X139418705Y-61025259D01*
X139634741Y-61241295D01*
X139804479Y-61495326D01*
X139887050Y-61694672D01*
X139921396Y-61777591D01*
X139981000Y-62077238D01*
X139981000Y-62382762D01*
X139955492Y-62511000D01*
X139921396Y-62682410D01*
X139804479Y-62964674D01*
X139634741Y-63218705D01*
X139418705Y-63434741D01*
X139164674Y-63604479D01*
X138882410Y-63721396D01*
X138782527Y-63741264D01*
X138582762Y-63781000D01*
X138277238Y-63781000D01*
X138077473Y-63741264D01*
X137977590Y-63721396D01*
X137695326Y-63604479D01*
X137441295Y-63434741D01*
X137225259Y-63218705D01*
X137055521Y-62964674D01*
X136938604Y-62682410D01*
X136904508Y-62511000D01*
X136879000Y-62382762D01*
X136879000Y-62077238D01*
X136938604Y-61777591D01*
X136972950Y-61694672D01*
X137055521Y-61495326D01*
X137225259Y-61241295D01*
X137441295Y-61025259D01*
X137695326Y-60855521D01*
X137977590Y-60738604D01*
X138077473Y-60718736D01*
X138277238Y-60679000D01*
X138582762Y-60679000D01*
X138782527Y-60718736D01*
X138782527Y-60718736D01*
G37*
G36*
X157832527Y-60718736D02*
X157932410Y-60738604D01*
X158214674Y-60855521D01*
X158468705Y-61025259D01*
X158684741Y-61241295D01*
X158854479Y-61495326D01*
X158937050Y-61694672D01*
X158971396Y-61777591D01*
X159031000Y-62077238D01*
X159031000Y-62382762D01*
X159005492Y-62511000D01*
X158971396Y-62682410D01*
X158854479Y-62964674D01*
X158684741Y-63218705D01*
X158468705Y-63434741D01*
X158214674Y-63604479D01*
X157932410Y-63721396D01*
X157832527Y-63741264D01*
X157632762Y-63781000D01*
X157327238Y-63781000D01*
X157127473Y-63741264D01*
X157027590Y-63721396D01*
X156745326Y-63604479D01*
X156491295Y-63434741D01*
X156275259Y-63218705D01*
X156105521Y-62964674D01*
X155988604Y-62682410D01*
X155954508Y-62511000D01*
X155929000Y-62382762D01*
X155929000Y-62077238D01*
X155988604Y-61777591D01*
X156022950Y-61694672D01*
X156105521Y-61495326D01*
X156275259Y-61241295D01*
X156491295Y-61025259D01*
X156745326Y-60855521D01*
X157027590Y-60738604D01*
X157127473Y-60718736D01*
X157327238Y-60679000D01*
X157632762Y-60679000D01*
X157832527Y-60718736D01*
X157832527Y-60718736D01*
G37*
G36*
X100682527Y-60718736D02*
X100782410Y-60738604D01*
X101064674Y-60855521D01*
X101318705Y-61025259D01*
X101534741Y-61241295D01*
X101704479Y-61495326D01*
X101787050Y-61694672D01*
X101821396Y-61777591D01*
X101881000Y-62077238D01*
X101881000Y-62382762D01*
X101855492Y-62511000D01*
X101821396Y-62682410D01*
X101704479Y-62964674D01*
X101534741Y-63218705D01*
X101318705Y-63434741D01*
X101064674Y-63604479D01*
X100782410Y-63721396D01*
X100682527Y-63741264D01*
X100482762Y-63781000D01*
X100177238Y-63781000D01*
X99977473Y-63741264D01*
X99877590Y-63721396D01*
X99595326Y-63604479D01*
X99341295Y-63434741D01*
X99125259Y-63218705D01*
X98955521Y-62964674D01*
X98838604Y-62682410D01*
X98804508Y-62511000D01*
X98779000Y-62382762D01*
X98779000Y-62077238D01*
X98838604Y-61777591D01*
X98872950Y-61694672D01*
X98955521Y-61495326D01*
X99125259Y-61241295D01*
X99341295Y-61025259D01*
X99595326Y-60855521D01*
X99877590Y-60738604D01*
X99977473Y-60718736D01*
X100177238Y-60679000D01*
X100482762Y-60679000D01*
X100682527Y-60718736D01*
X100682527Y-60718736D01*
G37*
G36*
X81632527Y-60718736D02*
X81732410Y-60738604D01*
X82014674Y-60855521D01*
X82268705Y-61025259D01*
X82484741Y-61241295D01*
X82654479Y-61495326D01*
X82737050Y-61694672D01*
X82771396Y-61777591D01*
X82831000Y-62077238D01*
X82831000Y-62382762D01*
X82805492Y-62511000D01*
X82771396Y-62682410D01*
X82654479Y-62964674D01*
X82484741Y-63218705D01*
X82268705Y-63434741D01*
X82014674Y-63604479D01*
X81732410Y-63721396D01*
X81632527Y-63741264D01*
X81432762Y-63781000D01*
X81127238Y-63781000D01*
X80927473Y-63741264D01*
X80827590Y-63721396D01*
X80545326Y-63604479D01*
X80291295Y-63434741D01*
X80075259Y-63218705D01*
X79905521Y-62964674D01*
X79788604Y-62682410D01*
X79754508Y-62511000D01*
X79729000Y-62382762D01*
X79729000Y-62077238D01*
X79788604Y-61777591D01*
X79822950Y-61694672D01*
X79905521Y-61495326D01*
X80075259Y-61241295D01*
X80291295Y-61025259D01*
X80545326Y-60855521D01*
X80827590Y-60738604D01*
X80927473Y-60718736D01*
X81127238Y-60679000D01*
X81432762Y-60679000D01*
X81632527Y-60718736D01*
X81632527Y-60718736D01*
G37*
G36*
X175612527Y-60718736D02*
X175712410Y-60738604D01*
X175994674Y-60855521D01*
X176248705Y-61025259D01*
X176464741Y-61241295D01*
X176634479Y-61495326D01*
X176717050Y-61694672D01*
X176751396Y-61777591D01*
X176811000Y-62077238D01*
X176811000Y-62382762D01*
X176785492Y-62511000D01*
X176751396Y-62682410D01*
X176634479Y-62964674D01*
X176464741Y-63218705D01*
X176248705Y-63434741D01*
X175994674Y-63604479D01*
X175712410Y-63721396D01*
X175612527Y-63741264D01*
X175412762Y-63781000D01*
X175107238Y-63781000D01*
X174907473Y-63741264D01*
X174807590Y-63721396D01*
X174525326Y-63604479D01*
X174271295Y-63434741D01*
X174055259Y-63218705D01*
X173885521Y-62964674D01*
X173768604Y-62682410D01*
X173734508Y-62511000D01*
X173709000Y-62382762D01*
X173709000Y-62077238D01*
X173768604Y-61777591D01*
X173802950Y-61694672D01*
X173885521Y-61495326D01*
X174055259Y-61241295D01*
X174271295Y-61025259D01*
X174525326Y-60855521D01*
X174807590Y-60738604D01*
X174907473Y-60718736D01*
X175107238Y-60679000D01*
X175412762Y-60679000D01*
X175612527Y-60718736D01*
X175612527Y-60718736D01*
G37*
G36*
X119732527Y-60718736D02*
X119832410Y-60738604D01*
X120114674Y-60855521D01*
X120368705Y-61025259D01*
X120584741Y-61241295D01*
X120754479Y-61495326D01*
X120837050Y-61694672D01*
X120871396Y-61777591D01*
X120931000Y-62077238D01*
X120931000Y-62382762D01*
X120905492Y-62511000D01*
X120871396Y-62682410D01*
X120754479Y-62964674D01*
X120584741Y-63218705D01*
X120368705Y-63434741D01*
X120114674Y-63604479D01*
X119832410Y-63721396D01*
X119732527Y-63741264D01*
X119532762Y-63781000D01*
X119227238Y-63781000D01*
X119027473Y-63741264D01*
X118927590Y-63721396D01*
X118645326Y-63604479D01*
X118391295Y-63434741D01*
X118175259Y-63218705D01*
X118005521Y-62964674D01*
X117888604Y-62682410D01*
X117854508Y-62511000D01*
X117829000Y-62382762D01*
X117829000Y-62077238D01*
X117888604Y-61777591D01*
X117922950Y-61694672D01*
X118005521Y-61495326D01*
X118175259Y-61241295D01*
X118391295Y-61025259D01*
X118645326Y-60855521D01*
X118927590Y-60738604D01*
X119027473Y-60718736D01*
X119227238Y-60679000D01*
X119532762Y-60679000D01*
X119732527Y-60718736D01*
X119732527Y-60718736D01*
G37*
G36*
X116721000Y-63531000D02*
X113619000Y-63531000D01*
X113619000Y-60929000D01*
X116721000Y-60929000D01*
X116721000Y-63531000D01*
X116721000Y-63531000D01*
G37*
G36*
X78621000Y-63531000D02*
X75519000Y-63531000D01*
X75519000Y-60929000D01*
X78621000Y-60929000D01*
X78621000Y-63531000D01*
X78621000Y-63531000D01*
G37*
G36*
X154821000Y-63531000D02*
X151719000Y-63531000D01*
X151719000Y-60929000D01*
X154821000Y-60929000D01*
X154821000Y-63531000D01*
X154821000Y-63531000D01*
G37*
G36*
X97671000Y-63531000D02*
X94569000Y-63531000D01*
X94569000Y-60929000D01*
X97671000Y-60929000D01*
X97671000Y-63531000D01*
X97671000Y-63531000D01*
G37*
G36*
X135771000Y-63531000D02*
X132669000Y-63531000D01*
X132669000Y-60929000D01*
X135771000Y-60929000D01*
X135771000Y-63531000D01*
X135771000Y-63531000D01*
G37*
G36*
X68932527Y-59448736D02*
X69032410Y-59468604D01*
X69314674Y-59585521D01*
X69568705Y-59755259D01*
X69784741Y-59971295D01*
X69954479Y-60225326D01*
X70063801Y-60489254D01*
X70071396Y-60507591D01*
X70131000Y-60807238D01*
X70131000Y-61112762D01*
X70105492Y-61241000D01*
X70071396Y-61412410D01*
X69954479Y-61694674D01*
X69784741Y-61948705D01*
X69568705Y-62164741D01*
X69314674Y-62334479D01*
X69032410Y-62451396D01*
X68932527Y-62471264D01*
X68732762Y-62511000D01*
X68427238Y-62511000D01*
X68227473Y-62471264D01*
X68127590Y-62451396D01*
X67845326Y-62334479D01*
X67591295Y-62164741D01*
X67375259Y-61948705D01*
X67205521Y-61694674D01*
X67088604Y-61412410D01*
X67054508Y-61241000D01*
X67029000Y-61112762D01*
X67029000Y-60807238D01*
X67088604Y-60507591D01*
X67096199Y-60489254D01*
X67205521Y-60225326D01*
X67375259Y-59971295D01*
X67591295Y-59755259D01*
X67845326Y-59585521D01*
X68127590Y-59468604D01*
X68227473Y-59448736D01*
X68427238Y-59409000D01*
X68732762Y-59409000D01*
X68932527Y-59448736D01*
X68932527Y-59448736D01*
G37*
G36*
X107032527Y-58178736D02*
X107132410Y-58198604D01*
X107414674Y-58315521D01*
X107668705Y-58485259D01*
X107884741Y-58701295D01*
X108054479Y-58955326D01*
X108171396Y-59237590D01*
X108191264Y-59337473D01*
X108217348Y-59468604D01*
X108231000Y-59537240D01*
X108231000Y-59842760D01*
X108171396Y-60142410D01*
X108054479Y-60424674D01*
X107884741Y-60678705D01*
X107668705Y-60894741D01*
X107414674Y-61064479D01*
X107132410Y-61181396D01*
X107032527Y-61201264D01*
X106832762Y-61241000D01*
X106527238Y-61241000D01*
X106327473Y-61201264D01*
X106227590Y-61181396D01*
X105945326Y-61064479D01*
X105691295Y-60894741D01*
X105475259Y-60678705D01*
X105305521Y-60424674D01*
X105188604Y-60142410D01*
X105129000Y-59842760D01*
X105129000Y-59537240D01*
X105142653Y-59468604D01*
X105168736Y-59337473D01*
X105188604Y-59237590D01*
X105305521Y-58955326D01*
X105475259Y-58701295D01*
X105691295Y-58485259D01*
X105945326Y-58315521D01*
X106227590Y-58198604D01*
X106327473Y-58178736D01*
X106527238Y-58139000D01*
X106832762Y-58139000D01*
X107032527Y-58178736D01*
X107032527Y-58178736D01*
G37*
G36*
X164182527Y-58178736D02*
X164282410Y-58198604D01*
X164564674Y-58315521D01*
X164818705Y-58485259D01*
X165034741Y-58701295D01*
X165204479Y-58955326D01*
X165321396Y-59237590D01*
X165341264Y-59337473D01*
X165367348Y-59468604D01*
X165381000Y-59537240D01*
X165381000Y-59842760D01*
X165321396Y-60142410D01*
X165204479Y-60424674D01*
X165034741Y-60678705D01*
X164818705Y-60894741D01*
X164564674Y-61064479D01*
X164282410Y-61181396D01*
X164182527Y-61201264D01*
X163982762Y-61241000D01*
X163677238Y-61241000D01*
X163477473Y-61201264D01*
X163377590Y-61181396D01*
X163095326Y-61064479D01*
X162841295Y-60894741D01*
X162625259Y-60678705D01*
X162455521Y-60424674D01*
X162338604Y-60142410D01*
X162279000Y-59842760D01*
X162279000Y-59537240D01*
X162292653Y-59468604D01*
X162318736Y-59337473D01*
X162338604Y-59237590D01*
X162455521Y-58955326D01*
X162625259Y-58701295D01*
X162841295Y-58485259D01*
X163095326Y-58315521D01*
X163377590Y-58198604D01*
X163477473Y-58178736D01*
X163677238Y-58139000D01*
X163982762Y-58139000D01*
X164182527Y-58178736D01*
X164182527Y-58178736D01*
G37*
G36*
X145132527Y-58178736D02*
X145232410Y-58198604D01*
X145514674Y-58315521D01*
X145768705Y-58485259D01*
X145984741Y-58701295D01*
X146154479Y-58955326D01*
X146271396Y-59237590D01*
X146291264Y-59337473D01*
X146317348Y-59468604D01*
X146331000Y-59537240D01*
X146331000Y-59842760D01*
X146271396Y-60142410D01*
X146154479Y-60424674D01*
X145984741Y-60678705D01*
X145768705Y-60894741D01*
X145514674Y-61064479D01*
X145232410Y-61181396D01*
X145132527Y-61201264D01*
X144932762Y-61241000D01*
X144627238Y-61241000D01*
X144427473Y-61201264D01*
X144327590Y-61181396D01*
X144045326Y-61064479D01*
X143791295Y-60894741D01*
X143575259Y-60678705D01*
X143405521Y-60424674D01*
X143288604Y-60142410D01*
X143229000Y-59842760D01*
X143229000Y-59537240D01*
X143242653Y-59468604D01*
X143268736Y-59337473D01*
X143288604Y-59237590D01*
X143405521Y-58955326D01*
X143575259Y-58701295D01*
X143791295Y-58485259D01*
X144045326Y-58315521D01*
X144327590Y-58198604D01*
X144427473Y-58178736D01*
X144627238Y-58139000D01*
X144932762Y-58139000D01*
X145132527Y-58178736D01*
X145132527Y-58178736D01*
G37*
G36*
X126082527Y-58178736D02*
X126182410Y-58198604D01*
X126464674Y-58315521D01*
X126718705Y-58485259D01*
X126934741Y-58701295D01*
X127104479Y-58955326D01*
X127221396Y-59237590D01*
X127241264Y-59337473D01*
X127267348Y-59468604D01*
X127281000Y-59537240D01*
X127281000Y-59842760D01*
X127221396Y-60142410D01*
X127104479Y-60424674D01*
X126934741Y-60678705D01*
X126718705Y-60894741D01*
X126464674Y-61064479D01*
X126182410Y-61181396D01*
X126082527Y-61201264D01*
X125882762Y-61241000D01*
X125577238Y-61241000D01*
X125377473Y-61201264D01*
X125277590Y-61181396D01*
X124995326Y-61064479D01*
X124741295Y-60894741D01*
X124525259Y-60678705D01*
X124355521Y-60424674D01*
X124238604Y-60142410D01*
X124179000Y-59842760D01*
X124179000Y-59537240D01*
X124192653Y-59468604D01*
X124218736Y-59337473D01*
X124238604Y-59237590D01*
X124355521Y-58955326D01*
X124525259Y-58701295D01*
X124741295Y-58485259D01*
X124995326Y-58315521D01*
X125277590Y-58198604D01*
X125377473Y-58178736D01*
X125577238Y-58139000D01*
X125882762Y-58139000D01*
X126082527Y-58178736D01*
X126082527Y-58178736D01*
G37*
G36*
X87982527Y-58178736D02*
X88082410Y-58198604D01*
X88364674Y-58315521D01*
X88618705Y-58485259D01*
X88834741Y-58701295D01*
X89004479Y-58955326D01*
X89121396Y-59237590D01*
X89141264Y-59337473D01*
X89167348Y-59468604D01*
X89181000Y-59537240D01*
X89181000Y-59842760D01*
X89121396Y-60142410D01*
X89004479Y-60424674D01*
X88834741Y-60678705D01*
X88618705Y-60894741D01*
X88364674Y-61064479D01*
X88082410Y-61181396D01*
X87982527Y-61201264D01*
X87782762Y-61241000D01*
X87477238Y-61241000D01*
X87277473Y-61201264D01*
X87177590Y-61181396D01*
X86895326Y-61064479D01*
X86641295Y-60894741D01*
X86425259Y-60678705D01*
X86255521Y-60424674D01*
X86138604Y-60142410D01*
X86079000Y-59842760D01*
X86079000Y-59537240D01*
X86092653Y-59468604D01*
X86118736Y-59337473D01*
X86138604Y-59237590D01*
X86255521Y-58955326D01*
X86425259Y-58701295D01*
X86641295Y-58485259D01*
X86895326Y-58315521D01*
X87177590Y-58198604D01*
X87277473Y-58178736D01*
X87477238Y-58139000D01*
X87782762Y-58139000D01*
X87982527Y-58178736D01*
X87982527Y-58178736D01*
G37*
G36*
X112441000Y-60991000D02*
X109339000Y-60991000D01*
X109339000Y-58389000D01*
X112441000Y-58389000D01*
X112441000Y-60991000D01*
X112441000Y-60991000D01*
G37*
G36*
X169591000Y-60991000D02*
X166489000Y-60991000D01*
X166489000Y-58389000D01*
X169591000Y-58389000D01*
X169591000Y-60991000D01*
X169591000Y-60991000D01*
G37*
G36*
X131491000Y-60991000D02*
X128389000Y-60991000D01*
X128389000Y-58389000D01*
X131491000Y-58389000D01*
X131491000Y-60991000D01*
X131491000Y-60991000D01*
G37*
G36*
X93391000Y-60991000D02*
X90289000Y-60991000D01*
X90289000Y-58389000D01*
X93391000Y-58389000D01*
X93391000Y-60991000D01*
X93391000Y-60991000D01*
G37*
G36*
X150541000Y-60991000D02*
X147439000Y-60991000D01*
X147439000Y-58389000D01*
X150541000Y-58389000D01*
X150541000Y-60991000D01*
X150541000Y-60991000D01*
G37*
G36*
X66244993Y-58811206D02*
X66303075Y-58822759D01*
X66351149Y-58842672D01*
X66467210Y-58890746D01*
X66614931Y-58989450D01*
X66740550Y-59115069D01*
X66839254Y-59262790D01*
X66887328Y-59378851D01*
X66907241Y-59426925D01*
X66941900Y-59601171D01*
X66941900Y-59778829D01*
X66907241Y-59953075D01*
X66899694Y-59971295D01*
X66839254Y-60117210D01*
X66740550Y-60264931D01*
X66614931Y-60390550D01*
X66467210Y-60489254D01*
X66351149Y-60537328D01*
X66303075Y-60557241D01*
X66244993Y-60568794D01*
X66128831Y-60591900D01*
X65951169Y-60591900D01*
X65835007Y-60568794D01*
X65776925Y-60557241D01*
X65728851Y-60537328D01*
X65612790Y-60489254D01*
X65465069Y-60390550D01*
X65339450Y-60264931D01*
X65240746Y-60117210D01*
X65180306Y-59971295D01*
X65172759Y-59953075D01*
X65138100Y-59778829D01*
X65138100Y-59601171D01*
X65172759Y-59426925D01*
X65192672Y-59378851D01*
X65240746Y-59262790D01*
X65339450Y-59115069D01*
X65465069Y-58989450D01*
X65612790Y-58890746D01*
X65728851Y-58842672D01*
X65776925Y-58822759D01*
X65835007Y-58811206D01*
X65951169Y-58788100D01*
X66128831Y-58788100D01*
X66244993Y-58811206D01*
X66244993Y-58811206D01*
G37*
G36*
X180544993Y-58811206D02*
X180603075Y-58822759D01*
X180651149Y-58842672D01*
X180767210Y-58890746D01*
X180914931Y-58989450D01*
X181040550Y-59115069D01*
X181139254Y-59262790D01*
X181187328Y-59378851D01*
X181207241Y-59426925D01*
X181241900Y-59601171D01*
X181241900Y-59778829D01*
X181207241Y-59953075D01*
X181199694Y-59971295D01*
X181139254Y-60117210D01*
X181040550Y-60264931D01*
X180914931Y-60390550D01*
X180767210Y-60489254D01*
X180651149Y-60537328D01*
X180603075Y-60557241D01*
X180544993Y-60568794D01*
X180428831Y-60591900D01*
X180251169Y-60591900D01*
X180135007Y-60568794D01*
X180076925Y-60557241D01*
X180028851Y-60537328D01*
X179912790Y-60489254D01*
X179765069Y-60390550D01*
X179639450Y-60264931D01*
X179540746Y-60117210D01*
X179480306Y-59971295D01*
X179472759Y-59953075D01*
X179438100Y-59778829D01*
X179438100Y-59601171D01*
X179472759Y-59426925D01*
X179492672Y-59378851D01*
X179540746Y-59262790D01*
X179639450Y-59115069D01*
X179765069Y-58989450D01*
X179912790Y-58890746D01*
X180028851Y-58842672D01*
X180076925Y-58822759D01*
X180135007Y-58811206D01*
X180251169Y-58788100D01*
X180428831Y-58788100D01*
X180544993Y-58811206D01*
X180544993Y-58811206D01*
G37*
G36*
X176561000Y-59571000D02*
X173959000Y-59571000D01*
X173959000Y-56469000D01*
X176561000Y-56469000D01*
X176561000Y-59571000D01*
X176561000Y-59571000D01*
G37*
G36*
X69881000Y-58301000D02*
X67279000Y-58301000D01*
X67279000Y-55199000D01*
X69881000Y-55199000D01*
X69881000Y-58301000D01*
X69881000Y-58301000D01*
G37*
G36*
X189848142Y-54463242D02*
X189996102Y-54524530D01*
X190129258Y-54613502D01*
X190242498Y-54726742D01*
X190331470Y-54859898D01*
X190392758Y-55007858D01*
X190424000Y-55164925D01*
X190424000Y-55325075D01*
X190392758Y-55482142D01*
X190331470Y-55630102D01*
X190242498Y-55763258D01*
X190129258Y-55876498D01*
X189996102Y-55965470D01*
X189848142Y-56026758D01*
X189691075Y-56058000D01*
X189530925Y-56058000D01*
X189373858Y-56026758D01*
X189225898Y-55965470D01*
X189092742Y-55876498D01*
X188979502Y-55763258D01*
X188890530Y-55630102D01*
X188829242Y-55482142D01*
X188798000Y-55325075D01*
X188798000Y-55164925D01*
X188829242Y-55007858D01*
X188890530Y-54859898D01*
X188979502Y-54726742D01*
X189092742Y-54613502D01*
X189225898Y-54524530D01*
X189373858Y-54463242D01*
X189530925Y-54432000D01*
X189691075Y-54432000D01*
X189848142Y-54463242D01*
X189848142Y-54463242D01*
G37*
G36*
X57006142Y-54463242D02*
X57154102Y-54524530D01*
X57287258Y-54613502D01*
X57400498Y-54726742D01*
X57489470Y-54859898D01*
X57550758Y-55007858D01*
X57582000Y-55164925D01*
X57582000Y-55325075D01*
X57550758Y-55482142D01*
X57489470Y-55630102D01*
X57400498Y-55763258D01*
X57287258Y-55876498D01*
X57154102Y-55965470D01*
X57006142Y-56026758D01*
X56849075Y-56058000D01*
X56688925Y-56058000D01*
X56531858Y-56026758D01*
X56383898Y-55965470D01*
X56250742Y-55876498D01*
X56137502Y-55763258D01*
X56048530Y-55630102D01*
X55987242Y-55482142D01*
X55956000Y-55325075D01*
X55956000Y-55164925D01*
X55987242Y-55007858D01*
X56048530Y-54859898D01*
X56137502Y-54726742D01*
X56250742Y-54613502D01*
X56383898Y-54524530D01*
X56531858Y-54463242D01*
X56688925Y-54432000D01*
X56849075Y-54432000D01*
X57006142Y-54463242D01*
X57006142Y-54463242D01*
G37*
G36*
X179101000Y-55291000D02*
X176499000Y-55291000D01*
X176499000Y-52189000D01*
X179101000Y-52189000D01*
X179101000Y-55291000D01*
X179101000Y-55291000D01*
G37*
G36*
X102901000Y-55291000D02*
X100299000Y-55291000D01*
X100299000Y-52189000D01*
X102901000Y-52189000D01*
X102901000Y-55291000D01*
X102901000Y-55291000D01*
G37*
G36*
X64801000Y-55291000D02*
X62199000Y-55291000D01*
X62199000Y-52189000D01*
X64801000Y-52189000D01*
X64801000Y-55291000D01*
X64801000Y-55291000D01*
G37*
G36*
X121951000Y-55291000D02*
X119349000Y-55291000D01*
X119349000Y-52189000D01*
X121951000Y-52189000D01*
X121951000Y-55291000D01*
X121951000Y-55291000D01*
G37*
G36*
X83851000Y-55291000D02*
X81249000Y-55291000D01*
X81249000Y-52189000D01*
X83851000Y-52189000D01*
X83851000Y-55291000D01*
X83851000Y-55291000D01*
G37*
G36*
X141001000Y-55291000D02*
X138399000Y-55291000D01*
X138399000Y-52189000D01*
X141001000Y-52189000D01*
X141001000Y-55291000D01*
X141001000Y-55291000D01*
G37*
G36*
X160051000Y-55291000D02*
X157449000Y-55291000D01*
X157449000Y-52189000D01*
X160051000Y-52189000D01*
X160051000Y-55291000D01*
X160051000Y-55291000D01*
G37*
G36*
X91629591Y-51548085D02*
X91663569Y-51558393D01*
X91694887Y-51575133D01*
X91722339Y-51597661D01*
X91744867Y-51625113D01*
X91761607Y-51656431D01*
X91771915Y-51690409D01*
X91776000Y-51731890D01*
X91776000Y-52408110D01*
X91771915Y-52449591D01*
X91761607Y-52483569D01*
X91744867Y-52514887D01*
X91722339Y-52542339D01*
X91694887Y-52564867D01*
X91663569Y-52581607D01*
X91629591Y-52591915D01*
X91588110Y-52596000D01*
X90986890Y-52596000D01*
X90945409Y-52591915D01*
X90911431Y-52581607D01*
X90880113Y-52564867D01*
X90852661Y-52542339D01*
X90830133Y-52514887D01*
X90813393Y-52483569D01*
X90803085Y-52449591D01*
X90799000Y-52408110D01*
X90799000Y-51731890D01*
X90803085Y-51690409D01*
X90813393Y-51656431D01*
X90830133Y-51625113D01*
X90852661Y-51597661D01*
X90880113Y-51575133D01*
X90911431Y-51558393D01*
X90945409Y-51548085D01*
X90986890Y-51544000D01*
X91588110Y-51544000D01*
X91629591Y-51548085D01*
X91629591Y-51548085D01*
G37*
G36*
X93204591Y-51548085D02*
X93238569Y-51558393D01*
X93269887Y-51575133D01*
X93297339Y-51597661D01*
X93319867Y-51625113D01*
X93336607Y-51656431D01*
X93346915Y-51690409D01*
X93351000Y-51731890D01*
X93351000Y-52408110D01*
X93346915Y-52449591D01*
X93336607Y-52483569D01*
X93319867Y-52514887D01*
X93297339Y-52542339D01*
X93269887Y-52564867D01*
X93238569Y-52581607D01*
X93204591Y-52591915D01*
X93163110Y-52596000D01*
X92561890Y-52596000D01*
X92520409Y-52591915D01*
X92486431Y-52581607D01*
X92455113Y-52564867D01*
X92427661Y-52542339D01*
X92405133Y-52514887D01*
X92388393Y-52483569D01*
X92378085Y-52449591D01*
X92374000Y-52408110D01*
X92374000Y-51731890D01*
X92378085Y-51690409D01*
X92388393Y-51656431D01*
X92405133Y-51625113D01*
X92427661Y-51597661D01*
X92455113Y-51575133D01*
X92486431Y-51558393D01*
X92520409Y-51548085D01*
X92561890Y-51544000D01*
X93163110Y-51544000D01*
X93204591Y-51548085D01*
X93204591Y-51548085D01*
G37*
G36*
X180544993Y-49921206D02*
X180603075Y-49932759D01*
X180651149Y-49952672D01*
X180767210Y-50000746D01*
X180914931Y-50099450D01*
X181040550Y-50225069D01*
X181139254Y-50372790D01*
X181187328Y-50488851D01*
X181199695Y-50518707D01*
X181207241Y-50536926D01*
X181241900Y-50711169D01*
X181241900Y-50888831D01*
X181207241Y-51063074D01*
X181139254Y-51227210D01*
X181040550Y-51374931D01*
X180914931Y-51500550D01*
X180767210Y-51599254D01*
X180651149Y-51647328D01*
X180603075Y-51667241D01*
X180544993Y-51678794D01*
X180428831Y-51701900D01*
X180251169Y-51701900D01*
X180135007Y-51678794D01*
X180076925Y-51667241D01*
X180028851Y-51647328D01*
X179912790Y-51599254D01*
X179765069Y-51500550D01*
X179639450Y-51374931D01*
X179540746Y-51227210D01*
X179472759Y-51063074D01*
X179438100Y-50888831D01*
X179438100Y-50711169D01*
X179472759Y-50536926D01*
X179480306Y-50518707D01*
X179492672Y-50488851D01*
X179540746Y-50372790D01*
X179639450Y-50225069D01*
X179765069Y-50099450D01*
X179912790Y-50000746D01*
X180028851Y-49952672D01*
X180076925Y-49932759D01*
X180135007Y-49921206D01*
X180251169Y-49898100D01*
X180428831Y-49898100D01*
X180544993Y-49921206D01*
X180544993Y-49921206D01*
G37*
G36*
X142444993Y-49921206D02*
X142503075Y-49932759D01*
X142551149Y-49952672D01*
X142667210Y-50000746D01*
X142814931Y-50099450D01*
X142940550Y-50225069D01*
X143039254Y-50372790D01*
X143087328Y-50488851D01*
X143099695Y-50518707D01*
X143107241Y-50536926D01*
X143141900Y-50711169D01*
X143141900Y-50888831D01*
X143107241Y-51063074D01*
X143039254Y-51227210D01*
X142940550Y-51374931D01*
X142814931Y-51500550D01*
X142667210Y-51599254D01*
X142551149Y-51647328D01*
X142503075Y-51667241D01*
X142444993Y-51678794D01*
X142328831Y-51701900D01*
X142151169Y-51701900D01*
X142035007Y-51678794D01*
X141976925Y-51667241D01*
X141928851Y-51647328D01*
X141812790Y-51599254D01*
X141665069Y-51500550D01*
X141539450Y-51374931D01*
X141440746Y-51227210D01*
X141372759Y-51063074D01*
X141338100Y-50888831D01*
X141338100Y-50711169D01*
X141372759Y-50536926D01*
X141380306Y-50518707D01*
X141392672Y-50488851D01*
X141440746Y-50372790D01*
X141539450Y-50225069D01*
X141665069Y-50099450D01*
X141812790Y-50000746D01*
X141928851Y-49952672D01*
X141976925Y-49932759D01*
X142035007Y-49921206D01*
X142151169Y-49898100D01*
X142328831Y-49898100D01*
X142444993Y-49921206D01*
X142444993Y-49921206D01*
G37*
G36*
X85294993Y-49921206D02*
X85353075Y-49932759D01*
X85401149Y-49952672D01*
X85517210Y-50000746D01*
X85664931Y-50099450D01*
X85790550Y-50225069D01*
X85889254Y-50372790D01*
X85937328Y-50488851D01*
X85949695Y-50518707D01*
X85957241Y-50536926D01*
X85991900Y-50711169D01*
X85991900Y-50888831D01*
X85957241Y-51063074D01*
X85889254Y-51227210D01*
X85790550Y-51374931D01*
X85664931Y-51500550D01*
X85517210Y-51599254D01*
X85401149Y-51647328D01*
X85353075Y-51667241D01*
X85294993Y-51678794D01*
X85178831Y-51701900D01*
X85001169Y-51701900D01*
X84885007Y-51678794D01*
X84826925Y-51667241D01*
X84778851Y-51647328D01*
X84662790Y-51599254D01*
X84515069Y-51500550D01*
X84389450Y-51374931D01*
X84290746Y-51227210D01*
X84222759Y-51063074D01*
X84188100Y-50888831D01*
X84188100Y-50711169D01*
X84222759Y-50536926D01*
X84230306Y-50518707D01*
X84242672Y-50488851D01*
X84290746Y-50372790D01*
X84389450Y-50225069D01*
X84515069Y-50099450D01*
X84662790Y-50000746D01*
X84778851Y-49952672D01*
X84826925Y-49932759D01*
X84885007Y-49921206D01*
X85001169Y-49898100D01*
X85178831Y-49898100D01*
X85294993Y-49921206D01*
X85294993Y-49921206D01*
G37*
G36*
X104344993Y-49921206D02*
X104403075Y-49932759D01*
X104451149Y-49952672D01*
X104567210Y-50000746D01*
X104714931Y-50099450D01*
X104840550Y-50225069D01*
X104939254Y-50372790D01*
X104987328Y-50488851D01*
X104999695Y-50518707D01*
X105007241Y-50536926D01*
X105041900Y-50711169D01*
X105041900Y-50888831D01*
X105007241Y-51063074D01*
X104939254Y-51227210D01*
X104840550Y-51374931D01*
X104714931Y-51500550D01*
X104567210Y-51599254D01*
X104451149Y-51647328D01*
X104403075Y-51667241D01*
X104344993Y-51678794D01*
X104228831Y-51701900D01*
X104051169Y-51701900D01*
X103935007Y-51678794D01*
X103876925Y-51667241D01*
X103828851Y-51647328D01*
X103712790Y-51599254D01*
X103565069Y-51500550D01*
X103439450Y-51374931D01*
X103340746Y-51227210D01*
X103272759Y-51063074D01*
X103238100Y-50888831D01*
X103238100Y-50711169D01*
X103272759Y-50536926D01*
X103280306Y-50518707D01*
X103292672Y-50488851D01*
X103340746Y-50372790D01*
X103439450Y-50225069D01*
X103565069Y-50099450D01*
X103712790Y-50000746D01*
X103828851Y-49952672D01*
X103876925Y-49932759D01*
X103935007Y-49921206D01*
X104051169Y-49898100D01*
X104228831Y-49898100D01*
X104344993Y-49921206D01*
X104344993Y-49921206D01*
G37*
G36*
X66244993Y-49921206D02*
X66303075Y-49932759D01*
X66351149Y-49952672D01*
X66467210Y-50000746D01*
X66614931Y-50099450D01*
X66740550Y-50225069D01*
X66839254Y-50372790D01*
X66887328Y-50488851D01*
X66899695Y-50518707D01*
X66907241Y-50536926D01*
X66941900Y-50711169D01*
X66941900Y-50888831D01*
X66907241Y-51063074D01*
X66839254Y-51227210D01*
X66740550Y-51374931D01*
X66614931Y-51500550D01*
X66467210Y-51599254D01*
X66351149Y-51647328D01*
X66303075Y-51667241D01*
X66244993Y-51678794D01*
X66128831Y-51701900D01*
X65951169Y-51701900D01*
X65835007Y-51678794D01*
X65776925Y-51667241D01*
X65728851Y-51647328D01*
X65612790Y-51599254D01*
X65465069Y-51500550D01*
X65339450Y-51374931D01*
X65240746Y-51227210D01*
X65172759Y-51063074D01*
X65138100Y-50888831D01*
X65138100Y-50711169D01*
X65172759Y-50536926D01*
X65180306Y-50518707D01*
X65192672Y-50488851D01*
X65240746Y-50372790D01*
X65339450Y-50225069D01*
X65465069Y-50099450D01*
X65612790Y-50000746D01*
X65728851Y-49952672D01*
X65776925Y-49932759D01*
X65835007Y-49921206D01*
X65951169Y-49898100D01*
X66128831Y-49898100D01*
X66244993Y-49921206D01*
X66244993Y-49921206D01*
G37*
G36*
X123394993Y-49921206D02*
X123453075Y-49932759D01*
X123501149Y-49952672D01*
X123617210Y-50000746D01*
X123764931Y-50099450D01*
X123890550Y-50225069D01*
X123989254Y-50372790D01*
X124037328Y-50488851D01*
X124049695Y-50518707D01*
X124057241Y-50536926D01*
X124091900Y-50711169D01*
X124091900Y-50888831D01*
X124057241Y-51063074D01*
X123989254Y-51227210D01*
X123890550Y-51374931D01*
X123764931Y-51500550D01*
X123617210Y-51599254D01*
X123501149Y-51647328D01*
X123453075Y-51667241D01*
X123394993Y-51678794D01*
X123278831Y-51701900D01*
X123101169Y-51701900D01*
X122985007Y-51678794D01*
X122926925Y-51667241D01*
X122878851Y-51647328D01*
X122762790Y-51599254D01*
X122615069Y-51500550D01*
X122489450Y-51374931D01*
X122390746Y-51227210D01*
X122322759Y-51063074D01*
X122288100Y-50888831D01*
X122288100Y-50711169D01*
X122322759Y-50536926D01*
X122330306Y-50518707D01*
X122342672Y-50488851D01*
X122390746Y-50372790D01*
X122489450Y-50225069D01*
X122615069Y-50099450D01*
X122762790Y-50000746D01*
X122878851Y-49952672D01*
X122926925Y-49932759D01*
X122985007Y-49921206D01*
X123101169Y-49898100D01*
X123278831Y-49898100D01*
X123394993Y-49921206D01*
X123394993Y-49921206D01*
G37*
G36*
X161494993Y-49921206D02*
X161553075Y-49932759D01*
X161601149Y-49952672D01*
X161717210Y-50000746D01*
X161864931Y-50099450D01*
X161990550Y-50225069D01*
X162089254Y-50372790D01*
X162137328Y-50488851D01*
X162149695Y-50518707D01*
X162157241Y-50536926D01*
X162191900Y-50711169D01*
X162191900Y-50888831D01*
X162157241Y-51063074D01*
X162089254Y-51227210D01*
X161990550Y-51374931D01*
X161864931Y-51500550D01*
X161717210Y-51599254D01*
X161601149Y-51647328D01*
X161553075Y-51667241D01*
X161494993Y-51678794D01*
X161378831Y-51701900D01*
X161201169Y-51701900D01*
X161085007Y-51678794D01*
X161026925Y-51667241D01*
X160978851Y-51647328D01*
X160862790Y-51599254D01*
X160715069Y-51500550D01*
X160589450Y-51374931D01*
X160490746Y-51227210D01*
X160422759Y-51063074D01*
X160388100Y-50888831D01*
X160388100Y-50711169D01*
X160422759Y-50536926D01*
X160430306Y-50518707D01*
X160442672Y-50488851D01*
X160490746Y-50372790D01*
X160589450Y-50225069D01*
X160715069Y-50099450D01*
X160862790Y-50000746D01*
X160978851Y-49952672D01*
X161026925Y-49932759D01*
X161085007Y-49921206D01*
X161201169Y-49898100D01*
X161378831Y-49898100D01*
X161494993Y-49921206D01*
X161494993Y-49921206D01*
G37*
G36*
X121002527Y-48018736D02*
X121102410Y-48038604D01*
X121384674Y-48155521D01*
X121638705Y-48325259D01*
X121854741Y-48541295D01*
X122024479Y-48795326D01*
X122141396Y-49077590D01*
X122201000Y-49377240D01*
X122201000Y-49682760D01*
X122141396Y-49982410D01*
X122024479Y-50264674D01*
X121854741Y-50518705D01*
X121638705Y-50734741D01*
X121384674Y-50904479D01*
X121102410Y-51021396D01*
X121002527Y-51041264D01*
X120802762Y-51081000D01*
X120497238Y-51081000D01*
X120297473Y-51041264D01*
X120197590Y-51021396D01*
X119915326Y-50904479D01*
X119661295Y-50734741D01*
X119445259Y-50518705D01*
X119275521Y-50264674D01*
X119158604Y-49982410D01*
X119099000Y-49682760D01*
X119099000Y-49377240D01*
X119158604Y-49077590D01*
X119275521Y-48795326D01*
X119445259Y-48541295D01*
X119661295Y-48325259D01*
X119915326Y-48155521D01*
X120197590Y-48038604D01*
X120297473Y-48018736D01*
X120497238Y-47979000D01*
X120802762Y-47979000D01*
X121002527Y-48018736D01*
X121002527Y-48018736D01*
G37*
G36*
X140052527Y-48018736D02*
X140152410Y-48038604D01*
X140434674Y-48155521D01*
X140688705Y-48325259D01*
X140904741Y-48541295D01*
X141074479Y-48795326D01*
X141191396Y-49077590D01*
X141251000Y-49377240D01*
X141251000Y-49682760D01*
X141191396Y-49982410D01*
X141074479Y-50264674D01*
X140904741Y-50518705D01*
X140688705Y-50734741D01*
X140434674Y-50904479D01*
X140152410Y-51021396D01*
X140052527Y-51041264D01*
X139852762Y-51081000D01*
X139547238Y-51081000D01*
X139347473Y-51041264D01*
X139247590Y-51021396D01*
X138965326Y-50904479D01*
X138711295Y-50734741D01*
X138495259Y-50518705D01*
X138325521Y-50264674D01*
X138208604Y-49982410D01*
X138149000Y-49682760D01*
X138149000Y-49377240D01*
X138208604Y-49077590D01*
X138325521Y-48795326D01*
X138495259Y-48541295D01*
X138711295Y-48325259D01*
X138965326Y-48155521D01*
X139247590Y-48038604D01*
X139347473Y-48018736D01*
X139547238Y-47979000D01*
X139852762Y-47979000D01*
X140052527Y-48018736D01*
X140052527Y-48018736D01*
G37*
G36*
X82902527Y-48018736D02*
X83002410Y-48038604D01*
X83284674Y-48155521D01*
X83538705Y-48325259D01*
X83754741Y-48541295D01*
X83924479Y-48795326D01*
X84041396Y-49077590D01*
X84101000Y-49377240D01*
X84101000Y-49682760D01*
X84041396Y-49982410D01*
X83924479Y-50264674D01*
X83754741Y-50518705D01*
X83538705Y-50734741D01*
X83284674Y-50904479D01*
X83002410Y-51021396D01*
X82902527Y-51041264D01*
X82702762Y-51081000D01*
X82397238Y-51081000D01*
X82197473Y-51041264D01*
X82097590Y-51021396D01*
X81815326Y-50904479D01*
X81561295Y-50734741D01*
X81345259Y-50518705D01*
X81175521Y-50264674D01*
X81058604Y-49982410D01*
X80999000Y-49682760D01*
X80999000Y-49377240D01*
X81058604Y-49077590D01*
X81175521Y-48795326D01*
X81345259Y-48541295D01*
X81561295Y-48325259D01*
X81815326Y-48155521D01*
X82097590Y-48038604D01*
X82197473Y-48018736D01*
X82397238Y-47979000D01*
X82702762Y-47979000D01*
X82902527Y-48018736D01*
X82902527Y-48018736D01*
G37*
G36*
X101952527Y-48018736D02*
X102052410Y-48038604D01*
X102334674Y-48155521D01*
X102588705Y-48325259D01*
X102804741Y-48541295D01*
X102974479Y-48795326D01*
X103091396Y-49077590D01*
X103151000Y-49377240D01*
X103151000Y-49682760D01*
X103091396Y-49982410D01*
X102974479Y-50264674D01*
X102804741Y-50518705D01*
X102588705Y-50734741D01*
X102334674Y-50904479D01*
X102052410Y-51021396D01*
X101952527Y-51041264D01*
X101752762Y-51081000D01*
X101447238Y-51081000D01*
X101247473Y-51041264D01*
X101147590Y-51021396D01*
X100865326Y-50904479D01*
X100611295Y-50734741D01*
X100395259Y-50518705D01*
X100225521Y-50264674D01*
X100108604Y-49982410D01*
X100049000Y-49682760D01*
X100049000Y-49377240D01*
X100108604Y-49077590D01*
X100225521Y-48795326D01*
X100395259Y-48541295D01*
X100611295Y-48325259D01*
X100865326Y-48155521D01*
X101147590Y-48038604D01*
X101247473Y-48018736D01*
X101447238Y-47979000D01*
X101752762Y-47979000D01*
X101952527Y-48018736D01*
X101952527Y-48018736D01*
G37*
G36*
X159102527Y-48018736D02*
X159202410Y-48038604D01*
X159484674Y-48155521D01*
X159738705Y-48325259D01*
X159954741Y-48541295D01*
X160124479Y-48795326D01*
X160241396Y-49077590D01*
X160301000Y-49377240D01*
X160301000Y-49682760D01*
X160241396Y-49982410D01*
X160124479Y-50264674D01*
X159954741Y-50518705D01*
X159738705Y-50734741D01*
X159484674Y-50904479D01*
X159202410Y-51021396D01*
X159102527Y-51041264D01*
X158902762Y-51081000D01*
X158597238Y-51081000D01*
X158397473Y-51041264D01*
X158297590Y-51021396D01*
X158015326Y-50904479D01*
X157761295Y-50734741D01*
X157545259Y-50518705D01*
X157375521Y-50264674D01*
X157258604Y-49982410D01*
X157199000Y-49682760D01*
X157199000Y-49377240D01*
X157258604Y-49077590D01*
X157375521Y-48795326D01*
X157545259Y-48541295D01*
X157761295Y-48325259D01*
X158015326Y-48155521D01*
X158297590Y-48038604D01*
X158397473Y-48018736D01*
X158597238Y-47979000D01*
X158902762Y-47979000D01*
X159102527Y-48018736D01*
X159102527Y-48018736D01*
G37*
G36*
X63852527Y-48018736D02*
X63952410Y-48038604D01*
X64234674Y-48155521D01*
X64488705Y-48325259D01*
X64704741Y-48541295D01*
X64874479Y-48795326D01*
X64991396Y-49077590D01*
X65051000Y-49377240D01*
X65051000Y-49682760D01*
X64991396Y-49982410D01*
X64874479Y-50264674D01*
X64704741Y-50518705D01*
X64488705Y-50734741D01*
X64234674Y-50904479D01*
X63952410Y-51021396D01*
X63852527Y-51041264D01*
X63652762Y-51081000D01*
X63347238Y-51081000D01*
X63147473Y-51041264D01*
X63047590Y-51021396D01*
X62765326Y-50904479D01*
X62511295Y-50734741D01*
X62295259Y-50518705D01*
X62125521Y-50264674D01*
X62008604Y-49982410D01*
X61949000Y-49682760D01*
X61949000Y-49377240D01*
X62008604Y-49077590D01*
X62125521Y-48795326D01*
X62295259Y-48541295D01*
X62511295Y-48325259D01*
X62765326Y-48155521D01*
X63047590Y-48038604D01*
X63147473Y-48018736D01*
X63347238Y-47979000D01*
X63652762Y-47979000D01*
X63852527Y-48018736D01*
X63852527Y-48018736D01*
G37*
G36*
X178152527Y-48018736D02*
X178252410Y-48038604D01*
X178534674Y-48155521D01*
X178788705Y-48325259D01*
X179004741Y-48541295D01*
X179174479Y-48795326D01*
X179291396Y-49077590D01*
X179351000Y-49377240D01*
X179351000Y-49682760D01*
X179291396Y-49982410D01*
X179174479Y-50264674D01*
X179004741Y-50518705D01*
X178788705Y-50734741D01*
X178534674Y-50904479D01*
X178252410Y-51021396D01*
X178152527Y-51041264D01*
X177952762Y-51081000D01*
X177647238Y-51081000D01*
X177447473Y-51041264D01*
X177347590Y-51021396D01*
X177065326Y-50904479D01*
X176811295Y-50734741D01*
X176595259Y-50518705D01*
X176425521Y-50264674D01*
X176308604Y-49982410D01*
X176249000Y-49682760D01*
X176249000Y-49377240D01*
X176308604Y-49077590D01*
X176425521Y-48795326D01*
X176595259Y-48541295D01*
X176811295Y-48325259D01*
X177065326Y-48155521D01*
X177347590Y-48038604D01*
X177447473Y-48018736D01*
X177647238Y-47979000D01*
X177952762Y-47979000D01*
X178152527Y-48018736D01*
X178152527Y-48018736D01*
G37*
G36*
X130554591Y-47039085D02*
X130588569Y-47049393D01*
X130619887Y-47066133D01*
X130647339Y-47088661D01*
X130669867Y-47116113D01*
X130686607Y-47147431D01*
X130696915Y-47181409D01*
X130701000Y-47222890D01*
X130701000Y-47824110D01*
X130696915Y-47865591D01*
X130686607Y-47899569D01*
X130669867Y-47930887D01*
X130647339Y-47958339D01*
X130619887Y-47980867D01*
X130588569Y-47997607D01*
X130554591Y-48007915D01*
X130513110Y-48012000D01*
X129836890Y-48012000D01*
X129795409Y-48007915D01*
X129761431Y-47997607D01*
X129730113Y-47980867D01*
X129702661Y-47958339D01*
X129680133Y-47930887D01*
X129663393Y-47899569D01*
X129653085Y-47865591D01*
X129649000Y-47824110D01*
X129649000Y-47222890D01*
X129653085Y-47181409D01*
X129663393Y-47147431D01*
X129680133Y-47116113D01*
X129702661Y-47088661D01*
X129730113Y-47066133D01*
X129761431Y-47049393D01*
X129795409Y-47039085D01*
X129836890Y-47035000D01*
X130513110Y-47035000D01*
X130554591Y-47039085D01*
X130554591Y-47039085D01*
G37*
G36*
X127125591Y-47039085D02*
X127159569Y-47049393D01*
X127190887Y-47066133D01*
X127218339Y-47088661D01*
X127240867Y-47116113D01*
X127257607Y-47147431D01*
X127267915Y-47181409D01*
X127272000Y-47222890D01*
X127272000Y-47824110D01*
X127267915Y-47865591D01*
X127257607Y-47899569D01*
X127240867Y-47930887D01*
X127218339Y-47958339D01*
X127190887Y-47980867D01*
X127159569Y-47997607D01*
X127125591Y-48007915D01*
X127084110Y-48012000D01*
X126407890Y-48012000D01*
X126366409Y-48007915D01*
X126332431Y-47997607D01*
X126301113Y-47980867D01*
X126273661Y-47958339D01*
X126251133Y-47930887D01*
X126234393Y-47899569D01*
X126224085Y-47865591D01*
X126220000Y-47824110D01*
X126220000Y-47222890D01*
X126224085Y-47181409D01*
X126234393Y-47147431D01*
X126251133Y-47116113D01*
X126273661Y-47088661D01*
X126301113Y-47066133D01*
X126332431Y-47049393D01*
X126366409Y-47039085D01*
X126407890Y-47035000D01*
X127084110Y-47035000D01*
X127125591Y-47039085D01*
X127125591Y-47039085D01*
G37*
G36*
X97061000Y-47811000D02*
X94959000Y-47811000D01*
X94959000Y-46509000D01*
X97061000Y-46509000D01*
X97061000Y-47811000D01*
X97061000Y-47811000D01*
G37*
G36*
X173261000Y-47811000D02*
X171159000Y-47811000D01*
X171159000Y-46509000D01*
X173261000Y-46509000D01*
X173261000Y-47811000D01*
X173261000Y-47811000D01*
G37*
G36*
X78011000Y-47811000D02*
X75909000Y-47811000D01*
X75909000Y-46509000D01*
X78011000Y-46509000D01*
X78011000Y-47811000D01*
X78011000Y-47811000D01*
G37*
G36*
X154211000Y-47811000D02*
X152109000Y-47811000D01*
X152109000Y-46509000D01*
X154211000Y-46509000D01*
X154211000Y-47811000D01*
X154211000Y-47811000D01*
G37*
G36*
X66636472Y-43753684D02*
X66636474Y-43753685D01*
X66636475Y-43753685D01*
X67008623Y-43907833D01*
X67343548Y-44131623D01*
X67628377Y-44416452D01*
X67852167Y-44751377D01*
X67993049Y-45091498D01*
X68006316Y-45123528D01*
X68084900Y-45518594D01*
X68084900Y-45921406D01*
X68012334Y-46286220D01*
X68006315Y-46316475D01*
X67852167Y-46688623D01*
X67628377Y-47023548D01*
X67343548Y-47308377D01*
X67008623Y-47532167D01*
X66636475Y-47686315D01*
X66636474Y-47686315D01*
X66636472Y-47686316D01*
X66241406Y-47764900D01*
X65838594Y-47764900D01*
X65443528Y-47686316D01*
X65443526Y-47686315D01*
X65443525Y-47686315D01*
X65071377Y-47532167D01*
X64736452Y-47308377D01*
X64451623Y-47023548D01*
X64227833Y-46688623D01*
X64073685Y-46316475D01*
X64067667Y-46286220D01*
X63995100Y-45921406D01*
X63995100Y-45518594D01*
X64073684Y-45123528D01*
X64086951Y-45091498D01*
X64227833Y-44751377D01*
X64451623Y-44416452D01*
X64736452Y-44131623D01*
X65071377Y-43907833D01*
X65443525Y-43753685D01*
X65443526Y-43753685D01*
X65443528Y-43753684D01*
X65838594Y-43675100D01*
X66241406Y-43675100D01*
X66636472Y-43753684D01*
X66636472Y-43753684D01*
G37*
G36*
X123786472Y-43753684D02*
X123786474Y-43753685D01*
X123786475Y-43753685D01*
X124158623Y-43907833D01*
X124493548Y-44131623D01*
X124778377Y-44416452D01*
X125002167Y-44751377D01*
X125143049Y-45091498D01*
X125156316Y-45123528D01*
X125234900Y-45518594D01*
X125234900Y-45921406D01*
X125162334Y-46286220D01*
X125156315Y-46316475D01*
X125002167Y-46688623D01*
X124778377Y-47023548D01*
X124493548Y-47308377D01*
X124158623Y-47532167D01*
X123786475Y-47686315D01*
X123786474Y-47686315D01*
X123786472Y-47686316D01*
X123391406Y-47764900D01*
X122988594Y-47764900D01*
X122593528Y-47686316D01*
X122593526Y-47686315D01*
X122593525Y-47686315D01*
X122221377Y-47532167D01*
X121886452Y-47308377D01*
X121601623Y-47023548D01*
X121377833Y-46688623D01*
X121223685Y-46316475D01*
X121217667Y-46286220D01*
X121145100Y-45921406D01*
X121145100Y-45518594D01*
X121223684Y-45123528D01*
X121236951Y-45091498D01*
X121377833Y-44751377D01*
X121601623Y-44416452D01*
X121886452Y-44131623D01*
X122221377Y-43907833D01*
X122593525Y-43753685D01*
X122593526Y-43753685D01*
X122593528Y-43753684D01*
X122988594Y-43675100D01*
X123391406Y-43675100D01*
X123786472Y-43753684D01*
X123786472Y-43753684D01*
G37*
G36*
X85686472Y-43753684D02*
X85686474Y-43753685D01*
X85686475Y-43753685D01*
X86058623Y-43907833D01*
X86393548Y-44131623D01*
X86678377Y-44416452D01*
X86902167Y-44751377D01*
X87043049Y-45091498D01*
X87056316Y-45123528D01*
X87134900Y-45518594D01*
X87134900Y-45921406D01*
X87062334Y-46286220D01*
X87056315Y-46316475D01*
X86902167Y-46688623D01*
X86678377Y-47023548D01*
X86393548Y-47308377D01*
X86058623Y-47532167D01*
X85686475Y-47686315D01*
X85686474Y-47686315D01*
X85686472Y-47686316D01*
X85291406Y-47764900D01*
X84888594Y-47764900D01*
X84493528Y-47686316D01*
X84493526Y-47686315D01*
X84493525Y-47686315D01*
X84121377Y-47532167D01*
X83786452Y-47308377D01*
X83501623Y-47023548D01*
X83277833Y-46688623D01*
X83123685Y-46316475D01*
X83117667Y-46286220D01*
X83045100Y-45921406D01*
X83045100Y-45518594D01*
X83123684Y-45123528D01*
X83136951Y-45091498D01*
X83277833Y-44751377D01*
X83501623Y-44416452D01*
X83786452Y-44131623D01*
X84121377Y-43907833D01*
X84493525Y-43753685D01*
X84493526Y-43753685D01*
X84493528Y-43753684D01*
X84888594Y-43675100D01*
X85291406Y-43675100D01*
X85686472Y-43753684D01*
X85686472Y-43753684D01*
G37*
G36*
X104736472Y-43753684D02*
X104736474Y-43753685D01*
X104736475Y-43753685D01*
X105108623Y-43907833D01*
X105443548Y-44131623D01*
X105728377Y-44416452D01*
X105952167Y-44751377D01*
X106093049Y-45091498D01*
X106106316Y-45123528D01*
X106184900Y-45518594D01*
X106184900Y-45921406D01*
X106112334Y-46286220D01*
X106106315Y-46316475D01*
X105952167Y-46688623D01*
X105728377Y-47023548D01*
X105443548Y-47308377D01*
X105108623Y-47532167D01*
X104736475Y-47686315D01*
X104736474Y-47686315D01*
X104736472Y-47686316D01*
X104341406Y-47764900D01*
X103938594Y-47764900D01*
X103543528Y-47686316D01*
X103543526Y-47686315D01*
X103543525Y-47686315D01*
X103171377Y-47532167D01*
X102836452Y-47308377D01*
X102551623Y-47023548D01*
X102327833Y-46688623D01*
X102173685Y-46316475D01*
X102167667Y-46286220D01*
X102095100Y-45921406D01*
X102095100Y-45518594D01*
X102173684Y-45123528D01*
X102186951Y-45091498D01*
X102327833Y-44751377D01*
X102551623Y-44416452D01*
X102836452Y-44131623D01*
X103171377Y-43907833D01*
X103543525Y-43753685D01*
X103543526Y-43753685D01*
X103543528Y-43753684D01*
X103938594Y-43675100D01*
X104341406Y-43675100D01*
X104736472Y-43753684D01*
X104736472Y-43753684D01*
G37*
G36*
X161886472Y-43753684D02*
X161886474Y-43753685D01*
X161886475Y-43753685D01*
X162258623Y-43907833D01*
X162593548Y-44131623D01*
X162878377Y-44416452D01*
X163102167Y-44751377D01*
X163243049Y-45091498D01*
X163256316Y-45123528D01*
X163334900Y-45518594D01*
X163334900Y-45921406D01*
X163262334Y-46286220D01*
X163256315Y-46316475D01*
X163102167Y-46688623D01*
X162878377Y-47023548D01*
X162593548Y-47308377D01*
X162258623Y-47532167D01*
X161886475Y-47686315D01*
X161886474Y-47686315D01*
X161886472Y-47686316D01*
X161491406Y-47764900D01*
X161088594Y-47764900D01*
X160693528Y-47686316D01*
X160693526Y-47686315D01*
X160693525Y-47686315D01*
X160321377Y-47532167D01*
X159986452Y-47308377D01*
X159701623Y-47023548D01*
X159477833Y-46688623D01*
X159323685Y-46316475D01*
X159317667Y-46286220D01*
X159245100Y-45921406D01*
X159245100Y-45518594D01*
X159323684Y-45123528D01*
X159336951Y-45091498D01*
X159477833Y-44751377D01*
X159701623Y-44416452D01*
X159986452Y-44131623D01*
X160321377Y-43907833D01*
X160693525Y-43753685D01*
X160693526Y-43753685D01*
X160693528Y-43753684D01*
X161088594Y-43675100D01*
X161491406Y-43675100D01*
X161886472Y-43753684D01*
X161886472Y-43753684D01*
G37*
G36*
X142836472Y-43753684D02*
X142836474Y-43753685D01*
X142836475Y-43753685D01*
X143208623Y-43907833D01*
X143543548Y-44131623D01*
X143828377Y-44416452D01*
X144052167Y-44751377D01*
X144193049Y-45091498D01*
X144206316Y-45123528D01*
X144284900Y-45518594D01*
X144284900Y-45921406D01*
X144212334Y-46286220D01*
X144206315Y-46316475D01*
X144052167Y-46688623D01*
X143828377Y-47023548D01*
X143543548Y-47308377D01*
X143208623Y-47532167D01*
X142836475Y-47686315D01*
X142836474Y-47686315D01*
X142836472Y-47686316D01*
X142441406Y-47764900D01*
X142038594Y-47764900D01*
X141643528Y-47686316D01*
X141643526Y-47686315D01*
X141643525Y-47686315D01*
X141271377Y-47532167D01*
X140936452Y-47308377D01*
X140651623Y-47023548D01*
X140427833Y-46688623D01*
X140273685Y-46316475D01*
X140267667Y-46286220D01*
X140195100Y-45921406D01*
X140195100Y-45518594D01*
X140273684Y-45123528D01*
X140286951Y-45091498D01*
X140427833Y-44751377D01*
X140651623Y-44416452D01*
X140936452Y-44131623D01*
X141271377Y-43907833D01*
X141643525Y-43753685D01*
X141643526Y-43753685D01*
X141643528Y-43753684D01*
X142038594Y-43675100D01*
X142441406Y-43675100D01*
X142836472Y-43753684D01*
X142836472Y-43753684D01*
G37*
G36*
X180936472Y-43753684D02*
X180936474Y-43753685D01*
X180936475Y-43753685D01*
X181308623Y-43907833D01*
X181643548Y-44131623D01*
X181928377Y-44416452D01*
X182152167Y-44751377D01*
X182293049Y-45091498D01*
X182306316Y-45123528D01*
X182384900Y-45518594D01*
X182384900Y-45921406D01*
X182312334Y-46286220D01*
X182306315Y-46316475D01*
X182152167Y-46688623D01*
X181928377Y-47023548D01*
X181643548Y-47308377D01*
X181308623Y-47532167D01*
X180936475Y-47686315D01*
X180936474Y-47686315D01*
X180936472Y-47686316D01*
X180541406Y-47764900D01*
X180138594Y-47764900D01*
X179743528Y-47686316D01*
X179743526Y-47686315D01*
X179743525Y-47686315D01*
X179371377Y-47532167D01*
X179036452Y-47308377D01*
X178751623Y-47023548D01*
X178527833Y-46688623D01*
X178373685Y-46316475D01*
X178367667Y-46286220D01*
X178295100Y-45921406D01*
X178295100Y-45518594D01*
X178373684Y-45123528D01*
X178386951Y-45091498D01*
X178527833Y-44751377D01*
X178751623Y-44416452D01*
X179036452Y-44131623D01*
X179371377Y-43907833D01*
X179743525Y-43753685D01*
X179743526Y-43753685D01*
X179743528Y-43753684D01*
X180138594Y-43675100D01*
X180541406Y-43675100D01*
X180936472Y-43753684D01*
X180936472Y-43753684D01*
G37*
G36*
X166661000Y-46711000D02*
X164559000Y-46711000D01*
X164559000Y-45409000D01*
X166661000Y-45409000D01*
X166661000Y-46711000D01*
X166661000Y-46711000D01*
G37*
G36*
X147611000Y-46711000D02*
X145509000Y-46711000D01*
X145509000Y-45409000D01*
X147611000Y-45409000D01*
X147611000Y-46711000D01*
X147611000Y-46711000D01*
G37*
G36*
X90461000Y-46711000D02*
X88359000Y-46711000D01*
X88359000Y-45409000D01*
X90461000Y-45409000D01*
X90461000Y-46711000D01*
X90461000Y-46711000D01*
G37*
G36*
X71411000Y-46711000D02*
X69309000Y-46711000D01*
X69309000Y-45409000D01*
X71411000Y-45409000D01*
X71411000Y-46711000D01*
X71411000Y-46711000D01*
G37*
G36*
X127125591Y-45464085D02*
X127159569Y-45474393D01*
X127190887Y-45491133D01*
X127218339Y-45513661D01*
X127240867Y-45541113D01*
X127257607Y-45572431D01*
X127267915Y-45606409D01*
X127272000Y-45647890D01*
X127272000Y-46249110D01*
X127267915Y-46290591D01*
X127257607Y-46324569D01*
X127240867Y-46355887D01*
X127218339Y-46383339D01*
X127190887Y-46405867D01*
X127159569Y-46422607D01*
X127125591Y-46432915D01*
X127084110Y-46437000D01*
X126407890Y-46437000D01*
X126366409Y-46432915D01*
X126332431Y-46422607D01*
X126301113Y-46405867D01*
X126273661Y-46383339D01*
X126251133Y-46355887D01*
X126234393Y-46324569D01*
X126224085Y-46290591D01*
X126220000Y-46249110D01*
X126220000Y-45647890D01*
X126224085Y-45606409D01*
X126234393Y-45572431D01*
X126251133Y-45541113D01*
X126273661Y-45513661D01*
X126301113Y-45491133D01*
X126332431Y-45474393D01*
X126366409Y-45464085D01*
X126407890Y-45460000D01*
X127084110Y-45460000D01*
X127125591Y-45464085D01*
X127125591Y-45464085D01*
G37*
G36*
X130554591Y-45464085D02*
X130588569Y-45474393D01*
X130619887Y-45491133D01*
X130647339Y-45513661D01*
X130669867Y-45541113D01*
X130686607Y-45572431D01*
X130696915Y-45606409D01*
X130701000Y-45647890D01*
X130701000Y-46249110D01*
X130696915Y-46290591D01*
X130686607Y-46324569D01*
X130669867Y-46355887D01*
X130647339Y-46383339D01*
X130619887Y-46405867D01*
X130588569Y-46422607D01*
X130554591Y-46432915D01*
X130513110Y-46437000D01*
X129836890Y-46437000D01*
X129795409Y-46432915D01*
X129761431Y-46422607D01*
X129730113Y-46405867D01*
X129702661Y-46383339D01*
X129680133Y-46355887D01*
X129663393Y-46324569D01*
X129653085Y-46290591D01*
X129649000Y-46249110D01*
X129649000Y-45647890D01*
X129653085Y-45606409D01*
X129663393Y-45572431D01*
X129680133Y-45541113D01*
X129702661Y-45513661D01*
X129730113Y-45491133D01*
X129761431Y-45474393D01*
X129795409Y-45464085D01*
X129836890Y-45460000D01*
X130513110Y-45460000D01*
X130554591Y-45464085D01*
X130554591Y-45464085D01*
G37*
G36*
X92947142Y-43678242D02*
X93095102Y-43739530D01*
X93228258Y-43828502D01*
X93341498Y-43941742D01*
X93430470Y-44074898D01*
X93491758Y-44222858D01*
X93523000Y-44379925D01*
X93523000Y-44540075D01*
X93491758Y-44697142D01*
X93430470Y-44845102D01*
X93341498Y-44978258D01*
X93228258Y-45091498D01*
X93095102Y-45180470D01*
X92947142Y-45241758D01*
X92790075Y-45273000D01*
X92629925Y-45273000D01*
X92472858Y-45241758D01*
X92324898Y-45180470D01*
X92191742Y-45091498D01*
X92078502Y-44978258D01*
X91989530Y-44845102D01*
X91928242Y-44697142D01*
X91897000Y-44540075D01*
X91897000Y-44379925D01*
X91928242Y-44222858D01*
X91989530Y-44074898D01*
X92078502Y-43941742D01*
X92191742Y-43828502D01*
X92324898Y-43739530D01*
X92472858Y-43678242D01*
X92629925Y-43647000D01*
X92790075Y-43647000D01*
X92947142Y-43678242D01*
X92947142Y-43678242D01*
G37*
G36*
X73897142Y-43678242D02*
X74045102Y-43739530D01*
X74178258Y-43828502D01*
X74291498Y-43941742D01*
X74380470Y-44074898D01*
X74441758Y-44222858D01*
X74473000Y-44379925D01*
X74473000Y-44540075D01*
X74441758Y-44697142D01*
X74380470Y-44845102D01*
X74291498Y-44978258D01*
X74178258Y-45091498D01*
X74045102Y-45180470D01*
X73897142Y-45241758D01*
X73740075Y-45273000D01*
X73579925Y-45273000D01*
X73422858Y-45241758D01*
X73274898Y-45180470D01*
X73141742Y-45091498D01*
X73028502Y-44978258D01*
X72939530Y-44845102D01*
X72878242Y-44697142D01*
X72847000Y-44540075D01*
X72847000Y-44379925D01*
X72878242Y-44222858D01*
X72939530Y-44074898D01*
X73028502Y-43941742D01*
X73141742Y-43828502D01*
X73274898Y-43739530D01*
X73422858Y-43678242D01*
X73579925Y-43647000D01*
X73740075Y-43647000D01*
X73897142Y-43678242D01*
X73897142Y-43678242D01*
G37*
G36*
X169147142Y-43678242D02*
X169295102Y-43739530D01*
X169428258Y-43828502D01*
X169541498Y-43941742D01*
X169630470Y-44074898D01*
X169691758Y-44222858D01*
X169723000Y-44379925D01*
X169723000Y-44540075D01*
X169691758Y-44697142D01*
X169630470Y-44845102D01*
X169541498Y-44978258D01*
X169428258Y-45091498D01*
X169295102Y-45180470D01*
X169147142Y-45241758D01*
X168990075Y-45273000D01*
X168829925Y-45273000D01*
X168672858Y-45241758D01*
X168524898Y-45180470D01*
X168391742Y-45091498D01*
X168278502Y-44978258D01*
X168189530Y-44845102D01*
X168128242Y-44697142D01*
X168097000Y-44540075D01*
X168097000Y-44379925D01*
X168128242Y-44222858D01*
X168189530Y-44074898D01*
X168278502Y-43941742D01*
X168391742Y-43828502D01*
X168524898Y-43739530D01*
X168672858Y-43678242D01*
X168829925Y-43647000D01*
X168990075Y-43647000D01*
X169147142Y-43678242D01*
X169147142Y-43678242D01*
G37*
G36*
X150097142Y-43678242D02*
X150245102Y-43739530D01*
X150378258Y-43828502D01*
X150491498Y-43941742D01*
X150580470Y-44074898D01*
X150641758Y-44222858D01*
X150673000Y-44379925D01*
X150673000Y-44540075D01*
X150641758Y-44697142D01*
X150580470Y-44845102D01*
X150491498Y-44978258D01*
X150378258Y-45091498D01*
X150245102Y-45180470D01*
X150097142Y-45241758D01*
X149940075Y-45273000D01*
X149779925Y-45273000D01*
X149622858Y-45241758D01*
X149474898Y-45180470D01*
X149341742Y-45091498D01*
X149228502Y-44978258D01*
X149139530Y-44845102D01*
X149078242Y-44697142D01*
X149047000Y-44540075D01*
X149047000Y-44379925D01*
X149078242Y-44222858D01*
X149139530Y-44074898D01*
X149228502Y-43941742D01*
X149341742Y-43828502D01*
X149474898Y-43739530D01*
X149622858Y-43678242D01*
X149779925Y-43647000D01*
X149940075Y-43647000D01*
X150097142Y-43678242D01*
X150097142Y-43678242D01*
G37*
G36*
X175612527Y-41668736D02*
X175712410Y-41688604D01*
X175994674Y-41805521D01*
X176248705Y-41975259D01*
X176464741Y-42191295D01*
X176634479Y-42445326D01*
X176751396Y-42727590D01*
X176811000Y-43027240D01*
X176811000Y-43332760D01*
X176751396Y-43632410D01*
X176634479Y-43914674D01*
X176464741Y-44168705D01*
X176248705Y-44384741D01*
X175994674Y-44554479D01*
X175712410Y-44671396D01*
X175612527Y-44691264D01*
X175412762Y-44731000D01*
X175107238Y-44731000D01*
X174907473Y-44691264D01*
X174807590Y-44671396D01*
X174525326Y-44554479D01*
X174271295Y-44384741D01*
X174055259Y-44168705D01*
X173885521Y-43914674D01*
X173768604Y-43632410D01*
X173709000Y-43332760D01*
X173709000Y-43027240D01*
X173768604Y-42727590D01*
X173885521Y-42445326D01*
X174055259Y-42191295D01*
X174271295Y-41975259D01*
X174525326Y-41805521D01*
X174807590Y-41688604D01*
X174907473Y-41668736D01*
X175107238Y-41629000D01*
X175412762Y-41629000D01*
X175612527Y-41668736D01*
X175612527Y-41668736D01*
G37*
G36*
X156562527Y-41668736D02*
X156662410Y-41688604D01*
X156944674Y-41805521D01*
X157198705Y-41975259D01*
X157414741Y-42191295D01*
X157584479Y-42445326D01*
X157701396Y-42727590D01*
X157761000Y-43027240D01*
X157761000Y-43332760D01*
X157701396Y-43632410D01*
X157584479Y-43914674D01*
X157414741Y-44168705D01*
X157198705Y-44384741D01*
X156944674Y-44554479D01*
X156662410Y-44671396D01*
X156562527Y-44691264D01*
X156362762Y-44731000D01*
X156057238Y-44731000D01*
X155857473Y-44691264D01*
X155757590Y-44671396D01*
X155475326Y-44554479D01*
X155221295Y-44384741D01*
X155005259Y-44168705D01*
X154835521Y-43914674D01*
X154718604Y-43632410D01*
X154659000Y-43332760D01*
X154659000Y-43027240D01*
X154718604Y-42727590D01*
X154835521Y-42445326D01*
X155005259Y-42191295D01*
X155221295Y-41975259D01*
X155475326Y-41805521D01*
X155757590Y-41688604D01*
X155857473Y-41668736D01*
X156057238Y-41629000D01*
X156362762Y-41629000D01*
X156562527Y-41668736D01*
X156562527Y-41668736D01*
G37*
G36*
X61312527Y-41668736D02*
X61412410Y-41688604D01*
X61694674Y-41805521D01*
X61948705Y-41975259D01*
X62164741Y-42191295D01*
X62334479Y-42445326D01*
X62451396Y-42727590D01*
X62511000Y-43027240D01*
X62511000Y-43332760D01*
X62451396Y-43632410D01*
X62334479Y-43914674D01*
X62164741Y-44168705D01*
X61948705Y-44384741D01*
X61694674Y-44554479D01*
X61412410Y-44671396D01*
X61312527Y-44691264D01*
X61112762Y-44731000D01*
X60807238Y-44731000D01*
X60607473Y-44691264D01*
X60507590Y-44671396D01*
X60225326Y-44554479D01*
X59971295Y-44384741D01*
X59755259Y-44168705D01*
X59585521Y-43914674D01*
X59468604Y-43632410D01*
X59409000Y-43332760D01*
X59409000Y-43027240D01*
X59468604Y-42727590D01*
X59585521Y-42445326D01*
X59755259Y-42191295D01*
X59971295Y-41975259D01*
X60225326Y-41805521D01*
X60507590Y-41688604D01*
X60607473Y-41668736D01*
X60807238Y-41629000D01*
X61112762Y-41629000D01*
X61312527Y-41668736D01*
X61312527Y-41668736D01*
G37*
G36*
X137512527Y-41668736D02*
X137612410Y-41688604D01*
X137894674Y-41805521D01*
X138148705Y-41975259D01*
X138364741Y-42191295D01*
X138534479Y-42445326D01*
X138651396Y-42727590D01*
X138711000Y-43027240D01*
X138711000Y-43332760D01*
X138651396Y-43632410D01*
X138534479Y-43914674D01*
X138364741Y-44168705D01*
X138148705Y-44384741D01*
X137894674Y-44554479D01*
X137612410Y-44671396D01*
X137512527Y-44691264D01*
X137312762Y-44731000D01*
X137007238Y-44731000D01*
X136807473Y-44691264D01*
X136707590Y-44671396D01*
X136425326Y-44554479D01*
X136171295Y-44384741D01*
X135955259Y-44168705D01*
X135785521Y-43914674D01*
X135668604Y-43632410D01*
X135609000Y-43332760D01*
X135609000Y-43027240D01*
X135668604Y-42727590D01*
X135785521Y-42445326D01*
X135955259Y-42191295D01*
X136171295Y-41975259D01*
X136425326Y-41805521D01*
X136707590Y-41688604D01*
X136807473Y-41668736D01*
X137007238Y-41629000D01*
X137312762Y-41629000D01*
X137512527Y-41668736D01*
X137512527Y-41668736D01*
G37*
G36*
X118462527Y-41668736D02*
X118562410Y-41688604D01*
X118844674Y-41805521D01*
X119098705Y-41975259D01*
X119314741Y-42191295D01*
X119484479Y-42445326D01*
X119601396Y-42727590D01*
X119661000Y-43027240D01*
X119661000Y-43332760D01*
X119601396Y-43632410D01*
X119484479Y-43914674D01*
X119314741Y-44168705D01*
X119098705Y-44384741D01*
X118844674Y-44554479D01*
X118562410Y-44671396D01*
X118462527Y-44691264D01*
X118262762Y-44731000D01*
X117957238Y-44731000D01*
X117757473Y-44691264D01*
X117657590Y-44671396D01*
X117375326Y-44554479D01*
X117121295Y-44384741D01*
X116905259Y-44168705D01*
X116735521Y-43914674D01*
X116618604Y-43632410D01*
X116559000Y-43332760D01*
X116559000Y-43027240D01*
X116618604Y-42727590D01*
X116735521Y-42445326D01*
X116905259Y-42191295D01*
X117121295Y-41975259D01*
X117375326Y-41805521D01*
X117657590Y-41688604D01*
X117757473Y-41668736D01*
X117957238Y-41629000D01*
X118262762Y-41629000D01*
X118462527Y-41668736D01*
X118462527Y-41668736D01*
G37*
G36*
X80362527Y-41668736D02*
X80462410Y-41688604D01*
X80744674Y-41805521D01*
X80998705Y-41975259D01*
X81214741Y-42191295D01*
X81384479Y-42445326D01*
X81501396Y-42727590D01*
X81561000Y-43027240D01*
X81561000Y-43332760D01*
X81501396Y-43632410D01*
X81384479Y-43914674D01*
X81214741Y-44168705D01*
X80998705Y-44384741D01*
X80744674Y-44554479D01*
X80462410Y-44671396D01*
X80362527Y-44691264D01*
X80162762Y-44731000D01*
X79857238Y-44731000D01*
X79657473Y-44691264D01*
X79557590Y-44671396D01*
X79275326Y-44554479D01*
X79021295Y-44384741D01*
X78805259Y-44168705D01*
X78635521Y-43914674D01*
X78518604Y-43632410D01*
X78459000Y-43332760D01*
X78459000Y-43027240D01*
X78518604Y-42727590D01*
X78635521Y-42445326D01*
X78805259Y-42191295D01*
X79021295Y-41975259D01*
X79275326Y-41805521D01*
X79557590Y-41688604D01*
X79657473Y-41668736D01*
X79857238Y-41629000D01*
X80162762Y-41629000D01*
X80362527Y-41668736D01*
X80362527Y-41668736D01*
G37*
G36*
X99412527Y-41668736D02*
X99512410Y-41688604D01*
X99794674Y-41805521D01*
X100048705Y-41975259D01*
X100264741Y-42191295D01*
X100434479Y-42445326D01*
X100551396Y-42727590D01*
X100611000Y-43027240D01*
X100611000Y-43332760D01*
X100551396Y-43632410D01*
X100434479Y-43914674D01*
X100264741Y-44168705D01*
X100048705Y-44384741D01*
X99794674Y-44554479D01*
X99512410Y-44671396D01*
X99412527Y-44691264D01*
X99212762Y-44731000D01*
X98907238Y-44731000D01*
X98707473Y-44691264D01*
X98607590Y-44671396D01*
X98325326Y-44554479D01*
X98071295Y-44384741D01*
X97855259Y-44168705D01*
X97685521Y-43914674D01*
X97568604Y-43632410D01*
X97509000Y-43332760D01*
X97509000Y-43027240D01*
X97568604Y-42727590D01*
X97685521Y-42445326D01*
X97855259Y-42191295D01*
X98071295Y-41975259D01*
X98325326Y-41805521D01*
X98607590Y-41688604D01*
X98707473Y-41668736D01*
X98907238Y-41629000D01*
X99212762Y-41629000D01*
X99412527Y-41668736D01*
X99412527Y-41668736D01*
G37*
G36*
X166661000Y-42711000D02*
X164559000Y-42711000D01*
X164559000Y-41409000D01*
X166661000Y-41409000D01*
X166661000Y-42711000D01*
X166661000Y-42711000D01*
G37*
G36*
X90461000Y-42711000D02*
X88359000Y-42711000D01*
X88359000Y-41409000D01*
X90461000Y-41409000D01*
X90461000Y-42711000D01*
X90461000Y-42711000D01*
G37*
G36*
X71411000Y-42711000D02*
X69309000Y-42711000D01*
X69309000Y-41409000D01*
X71411000Y-41409000D01*
X71411000Y-42711000D01*
X71411000Y-42711000D01*
G37*
G36*
X147611000Y-42711000D02*
X145509000Y-42711000D01*
X145509000Y-41409000D01*
X147611000Y-41409000D01*
X147611000Y-42711000D01*
X147611000Y-42711000D01*
G37*
G36*
X134036000Y-42341000D02*
X132664000Y-42341000D01*
X132664000Y-41479000D01*
X134036000Y-41479000D01*
X134036000Y-42341000D01*
X134036000Y-42341000D01*
G37*
G36*
X126416000Y-42341000D02*
X125044000Y-42341000D01*
X125044000Y-41479000D01*
X126416000Y-41479000D01*
X126416000Y-42341000D01*
X126416000Y-42341000D01*
G37*
G36*
X180544993Y-39761206D02*
X180603075Y-39772759D01*
X180651149Y-39792672D01*
X180767210Y-39840746D01*
X180914931Y-39939450D01*
X181040550Y-40065069D01*
X181139254Y-40212790D01*
X181207241Y-40376926D01*
X181241900Y-40551169D01*
X181241900Y-40728831D01*
X181207241Y-40903074D01*
X181139254Y-41067210D01*
X181040550Y-41214931D01*
X180914931Y-41340550D01*
X180767210Y-41439254D01*
X180671254Y-41479000D01*
X180603075Y-41507241D01*
X180544993Y-41518794D01*
X180428831Y-41541900D01*
X180251169Y-41541900D01*
X180135007Y-41518794D01*
X180076925Y-41507241D01*
X180008746Y-41479000D01*
X179912790Y-41439254D01*
X179765069Y-41340550D01*
X179639450Y-41214931D01*
X179540746Y-41067210D01*
X179472759Y-40903074D01*
X179438100Y-40728831D01*
X179438100Y-40551169D01*
X179472759Y-40376926D01*
X179540746Y-40212790D01*
X179639450Y-40065069D01*
X179765069Y-39939450D01*
X179912790Y-39840746D01*
X180028851Y-39792672D01*
X180076925Y-39772759D01*
X180135007Y-39761206D01*
X180251169Y-39738100D01*
X180428831Y-39738100D01*
X180544993Y-39761206D01*
X180544993Y-39761206D01*
G37*
G36*
X104344993Y-39761206D02*
X104403075Y-39772759D01*
X104451149Y-39792672D01*
X104567210Y-39840746D01*
X104714931Y-39939450D01*
X104840550Y-40065069D01*
X104939254Y-40212790D01*
X105007241Y-40376926D01*
X105041900Y-40551169D01*
X105041900Y-40728831D01*
X105007241Y-40903074D01*
X104939254Y-41067210D01*
X104840550Y-41214931D01*
X104714931Y-41340550D01*
X104567210Y-41439254D01*
X104471254Y-41479000D01*
X104403075Y-41507241D01*
X104344993Y-41518794D01*
X104228831Y-41541900D01*
X104051169Y-41541900D01*
X103935007Y-41518794D01*
X103876925Y-41507241D01*
X103808746Y-41479000D01*
X103712790Y-41439254D01*
X103565069Y-41340550D01*
X103439450Y-41214931D01*
X103340746Y-41067210D01*
X103272759Y-40903074D01*
X103238100Y-40728831D01*
X103238100Y-40551169D01*
X103272759Y-40376926D01*
X103340746Y-40212790D01*
X103439450Y-40065069D01*
X103565069Y-39939450D01*
X103712790Y-39840746D01*
X103828851Y-39792672D01*
X103876925Y-39772759D01*
X103935007Y-39761206D01*
X104051169Y-39738100D01*
X104228831Y-39738100D01*
X104344993Y-39761206D01*
X104344993Y-39761206D01*
G37*
G36*
X85294993Y-39761206D02*
X85353075Y-39772759D01*
X85401149Y-39792672D01*
X85517210Y-39840746D01*
X85664931Y-39939450D01*
X85790550Y-40065069D01*
X85889254Y-40212790D01*
X85957241Y-40376926D01*
X85991900Y-40551169D01*
X85991900Y-40728831D01*
X85957241Y-40903074D01*
X85889254Y-41067210D01*
X85790550Y-41214931D01*
X85664931Y-41340550D01*
X85517210Y-41439254D01*
X85421254Y-41479000D01*
X85353075Y-41507241D01*
X85294993Y-41518794D01*
X85178831Y-41541900D01*
X85001169Y-41541900D01*
X84885007Y-41518794D01*
X84826925Y-41507241D01*
X84758746Y-41479000D01*
X84662790Y-41439254D01*
X84515069Y-41340550D01*
X84389450Y-41214931D01*
X84290746Y-41067210D01*
X84222759Y-40903074D01*
X84188100Y-40728831D01*
X84188100Y-40551169D01*
X84222759Y-40376926D01*
X84290746Y-40212790D01*
X84389450Y-40065069D01*
X84515069Y-39939450D01*
X84662790Y-39840746D01*
X84778851Y-39792672D01*
X84826925Y-39772759D01*
X84885007Y-39761206D01*
X85001169Y-39738100D01*
X85178831Y-39738100D01*
X85294993Y-39761206D01*
X85294993Y-39761206D01*
G37*
G36*
X66244993Y-39761206D02*
X66303075Y-39772759D01*
X66351149Y-39792672D01*
X66467210Y-39840746D01*
X66614931Y-39939450D01*
X66740550Y-40065069D01*
X66839254Y-40212790D01*
X66907241Y-40376926D01*
X66941900Y-40551169D01*
X66941900Y-40728831D01*
X66907241Y-40903074D01*
X66839254Y-41067210D01*
X66740550Y-41214931D01*
X66614931Y-41340550D01*
X66467210Y-41439254D01*
X66371254Y-41479000D01*
X66303075Y-41507241D01*
X66244993Y-41518794D01*
X66128831Y-41541900D01*
X65951169Y-41541900D01*
X65835007Y-41518794D01*
X65776925Y-41507241D01*
X65708746Y-41479000D01*
X65612790Y-41439254D01*
X65465069Y-41340550D01*
X65339450Y-41214931D01*
X65240746Y-41067210D01*
X65172759Y-40903074D01*
X65138100Y-40728831D01*
X65138100Y-40551169D01*
X65172759Y-40376926D01*
X65240746Y-40212790D01*
X65339450Y-40065069D01*
X65465069Y-39939450D01*
X65612790Y-39840746D01*
X65728851Y-39792672D01*
X65776925Y-39772759D01*
X65835007Y-39761206D01*
X65951169Y-39738100D01*
X66128831Y-39738100D01*
X66244993Y-39761206D01*
X66244993Y-39761206D01*
G37*
G36*
X123394993Y-39761206D02*
X123453075Y-39772759D01*
X123501149Y-39792672D01*
X123617210Y-39840746D01*
X123764931Y-39939450D01*
X123890550Y-40065069D01*
X123989254Y-40212790D01*
X124057241Y-40376926D01*
X124091900Y-40551169D01*
X124091900Y-40728831D01*
X124057241Y-40903074D01*
X123989254Y-41067210D01*
X123890550Y-41214931D01*
X123764931Y-41340550D01*
X123617210Y-41439254D01*
X123521254Y-41479000D01*
X123453075Y-41507241D01*
X123394993Y-41518794D01*
X123278831Y-41541900D01*
X123101169Y-41541900D01*
X122985007Y-41518794D01*
X122926925Y-41507241D01*
X122858746Y-41479000D01*
X122762790Y-41439254D01*
X122615069Y-41340550D01*
X122489450Y-41214931D01*
X122390746Y-41067210D01*
X122322759Y-40903074D01*
X122288100Y-40728831D01*
X122288100Y-40551169D01*
X122322759Y-40376926D01*
X122390746Y-40212790D01*
X122489450Y-40065069D01*
X122615069Y-39939450D01*
X122762790Y-39840746D01*
X122878851Y-39792672D01*
X122926925Y-39772759D01*
X122985007Y-39761206D01*
X123101169Y-39738100D01*
X123278831Y-39738100D01*
X123394993Y-39761206D01*
X123394993Y-39761206D01*
G37*
G36*
X142444993Y-39761206D02*
X142503075Y-39772759D01*
X142551149Y-39792672D01*
X142667210Y-39840746D01*
X142814931Y-39939450D01*
X142940550Y-40065069D01*
X143039254Y-40212790D01*
X143107241Y-40376926D01*
X143141900Y-40551169D01*
X143141900Y-40728831D01*
X143107241Y-40903074D01*
X143039254Y-41067210D01*
X142940550Y-41214931D01*
X142814931Y-41340550D01*
X142667210Y-41439254D01*
X142571254Y-41479000D01*
X142503075Y-41507241D01*
X142444993Y-41518794D01*
X142328831Y-41541900D01*
X142151169Y-41541900D01*
X142035007Y-41518794D01*
X141976925Y-41507241D01*
X141908746Y-41479000D01*
X141812790Y-41439254D01*
X141665069Y-41340550D01*
X141539450Y-41214931D01*
X141440746Y-41067210D01*
X141372759Y-40903074D01*
X141338100Y-40728831D01*
X141338100Y-40551169D01*
X141372759Y-40376926D01*
X141440746Y-40212790D01*
X141539450Y-40065069D01*
X141665069Y-39939450D01*
X141812790Y-39840746D01*
X141928851Y-39792672D01*
X141976925Y-39772759D01*
X142035007Y-39761206D01*
X142151169Y-39738100D01*
X142328831Y-39738100D01*
X142444993Y-39761206D01*
X142444993Y-39761206D01*
G37*
G36*
X161494993Y-39761206D02*
X161553075Y-39772759D01*
X161601149Y-39792672D01*
X161717210Y-39840746D01*
X161864931Y-39939450D01*
X161990550Y-40065069D01*
X162089254Y-40212790D01*
X162157241Y-40376926D01*
X162191900Y-40551169D01*
X162191900Y-40728831D01*
X162157241Y-40903074D01*
X162089254Y-41067210D01*
X161990550Y-41214931D01*
X161864931Y-41340550D01*
X161717210Y-41439254D01*
X161621254Y-41479000D01*
X161553075Y-41507241D01*
X161494993Y-41518794D01*
X161378831Y-41541900D01*
X161201169Y-41541900D01*
X161085007Y-41518794D01*
X161026925Y-41507241D01*
X160958746Y-41479000D01*
X160862790Y-41439254D01*
X160715069Y-41340550D01*
X160589450Y-41214931D01*
X160490746Y-41067210D01*
X160422759Y-40903074D01*
X160388100Y-40728831D01*
X160388100Y-40551169D01*
X160422759Y-40376926D01*
X160490746Y-40212790D01*
X160589450Y-40065069D01*
X160715069Y-39939450D01*
X160862790Y-39840746D01*
X160978851Y-39792672D01*
X161026925Y-39772759D01*
X161085007Y-39761206D01*
X161201169Y-39738100D01*
X161378831Y-39738100D01*
X161494993Y-39761206D01*
X161494993Y-39761206D01*
G37*
G36*
X134036000Y-41071000D02*
X132664000Y-41071000D01*
X132664000Y-40209000D01*
X134036000Y-40209000D01*
X134036000Y-41071000D01*
X134036000Y-41071000D01*
G37*
G36*
X126416000Y-41071000D02*
X125044000Y-41071000D01*
X125044000Y-40209000D01*
X126416000Y-40209000D01*
X126416000Y-41071000D01*
X126416000Y-41071000D01*
G37*
G36*
X157511000Y-40521000D02*
X154909000Y-40521000D01*
X154909000Y-37419000D01*
X157511000Y-37419000D01*
X157511000Y-40521000D01*
X157511000Y-40521000D01*
G37*
G36*
X176561000Y-40521000D02*
X173959000Y-40521000D01*
X173959000Y-37419000D01*
X176561000Y-37419000D01*
X176561000Y-40521000D01*
X176561000Y-40521000D01*
G37*
G36*
X119411000Y-40521000D02*
X116809000Y-40521000D01*
X116809000Y-37419000D01*
X119411000Y-37419000D01*
X119411000Y-40521000D01*
X119411000Y-40521000D01*
G37*
G36*
X100361000Y-40521000D02*
X97759000Y-40521000D01*
X97759000Y-37419000D01*
X100361000Y-37419000D01*
X100361000Y-40521000D01*
X100361000Y-40521000D01*
G37*
G36*
X81311000Y-40521000D02*
X78709000Y-40521000D01*
X78709000Y-37419000D01*
X81311000Y-37419000D01*
X81311000Y-40521000D01*
X81311000Y-40521000D01*
G37*
G36*
X138461000Y-40521000D02*
X135859000Y-40521000D01*
X135859000Y-37419000D01*
X138461000Y-37419000D01*
X138461000Y-40521000D01*
X138461000Y-40521000D01*
G37*
G36*
X62261000Y-40521000D02*
X59659000Y-40521000D01*
X59659000Y-37419000D01*
X62261000Y-37419000D01*
X62261000Y-40521000D01*
X62261000Y-40521000D01*
G37*
G36*
X166661000Y-39711000D02*
X164559000Y-39711000D01*
X164559000Y-38409000D01*
X166661000Y-38409000D01*
X166661000Y-39711000D01*
X166661000Y-39711000D01*
G37*
G36*
X147611000Y-39711000D02*
X145509000Y-39711000D01*
X145509000Y-38409000D01*
X147611000Y-38409000D01*
X147611000Y-39711000D01*
X147611000Y-39711000D01*
G37*
G36*
X90461000Y-39711000D02*
X88359000Y-39711000D01*
X88359000Y-38409000D01*
X90461000Y-38409000D01*
X90461000Y-39711000D01*
X90461000Y-39711000D01*
G37*
G36*
X71411000Y-39711000D02*
X69309000Y-39711000D01*
X69309000Y-38409000D01*
X71411000Y-38409000D01*
X71411000Y-39711000D01*
X71411000Y-39711000D01*
G37*
G36*
X169147142Y-36678242D02*
X169295102Y-36739530D01*
X169428258Y-36828502D01*
X169541498Y-36941742D01*
X169630470Y-37074898D01*
X169691758Y-37222858D01*
X169723000Y-37379925D01*
X169723000Y-37540075D01*
X169691758Y-37697142D01*
X169630470Y-37845102D01*
X169541498Y-37978258D01*
X169428258Y-38091498D01*
X169295102Y-38180470D01*
X169147142Y-38241758D01*
X168990075Y-38273000D01*
X168829925Y-38273000D01*
X168672858Y-38241758D01*
X168524898Y-38180470D01*
X168391742Y-38091498D01*
X168278502Y-37978258D01*
X168189530Y-37845102D01*
X168128242Y-37697142D01*
X168097000Y-37540075D01*
X168097000Y-37379925D01*
X168128242Y-37222858D01*
X168189530Y-37074898D01*
X168278502Y-36941742D01*
X168391742Y-36828502D01*
X168524898Y-36739530D01*
X168672858Y-36678242D01*
X168829925Y-36647000D01*
X168990075Y-36647000D01*
X169147142Y-36678242D01*
X169147142Y-36678242D01*
G37*
G36*
X73897142Y-36678242D02*
X74045102Y-36739530D01*
X74178258Y-36828502D01*
X74291498Y-36941742D01*
X74380470Y-37074898D01*
X74441758Y-37222858D01*
X74473000Y-37379925D01*
X74473000Y-37540075D01*
X74441758Y-37697142D01*
X74380470Y-37845102D01*
X74291498Y-37978258D01*
X74178258Y-38091498D01*
X74045102Y-38180470D01*
X73897142Y-38241758D01*
X73740075Y-38273000D01*
X73579925Y-38273000D01*
X73422858Y-38241758D01*
X73274898Y-38180470D01*
X73141742Y-38091498D01*
X73028502Y-37978258D01*
X72939530Y-37845102D01*
X72878242Y-37697142D01*
X72847000Y-37540075D01*
X72847000Y-37379925D01*
X72878242Y-37222858D01*
X72939530Y-37074898D01*
X73028502Y-36941742D01*
X73141742Y-36828502D01*
X73274898Y-36739530D01*
X73422858Y-36678242D01*
X73579925Y-36647000D01*
X73740075Y-36647000D01*
X73897142Y-36678242D01*
X73897142Y-36678242D01*
G37*
G36*
X150097142Y-36678242D02*
X150245102Y-36739530D01*
X150378258Y-36828502D01*
X150491498Y-36941742D01*
X150580470Y-37074898D01*
X150641758Y-37222858D01*
X150673000Y-37379925D01*
X150673000Y-37540075D01*
X150641758Y-37697142D01*
X150580470Y-37845102D01*
X150491498Y-37978258D01*
X150378258Y-38091498D01*
X150245102Y-38180470D01*
X150097142Y-38241758D01*
X149940075Y-38273000D01*
X149779925Y-38273000D01*
X149622858Y-38241758D01*
X149474898Y-38180470D01*
X149341742Y-38091498D01*
X149228502Y-37978258D01*
X149139530Y-37845102D01*
X149078242Y-37697142D01*
X149047000Y-37540075D01*
X149047000Y-37379925D01*
X149078242Y-37222858D01*
X149139530Y-37074898D01*
X149228502Y-36941742D01*
X149341742Y-36828502D01*
X149474898Y-36739530D01*
X149622858Y-36678242D01*
X149779925Y-36647000D01*
X149940075Y-36647000D01*
X150097142Y-36678242D01*
X150097142Y-36678242D01*
G37*
G36*
X92947142Y-36678242D02*
X93095102Y-36739530D01*
X93228258Y-36828502D01*
X93341498Y-36941742D01*
X93430470Y-37074898D01*
X93491758Y-37222858D01*
X93523000Y-37379925D01*
X93523000Y-37540075D01*
X93491758Y-37697142D01*
X93430470Y-37845102D01*
X93341498Y-37978258D01*
X93228258Y-38091498D01*
X93095102Y-38180470D01*
X92947142Y-38241758D01*
X92790075Y-38273000D01*
X92629925Y-38273000D01*
X92472858Y-38241758D01*
X92324898Y-38180470D01*
X92191742Y-38091498D01*
X92078502Y-37978258D01*
X91989530Y-37845102D01*
X91928242Y-37697142D01*
X91897000Y-37540075D01*
X91897000Y-37379925D01*
X91928242Y-37222858D01*
X91989530Y-37074898D01*
X92078502Y-36941742D01*
X92191742Y-36828502D01*
X92324898Y-36739530D01*
X92472858Y-36678242D01*
X92629925Y-36647000D01*
X92790075Y-36647000D01*
X92947142Y-36678242D01*
X92947142Y-36678242D01*
G37*
G36*
X142477142Y-35667242D02*
X142625102Y-35728530D01*
X142758258Y-35817502D01*
X142871498Y-35930742D01*
X142960470Y-36063898D01*
X143021758Y-36211858D01*
X143053000Y-36368925D01*
X143053000Y-36529075D01*
X143021758Y-36686142D01*
X142960470Y-36834102D01*
X142871498Y-36967258D01*
X142758258Y-37080498D01*
X142625102Y-37169470D01*
X142477142Y-37230758D01*
X142320075Y-37262000D01*
X142159925Y-37262000D01*
X142002858Y-37230758D01*
X141854898Y-37169470D01*
X141721742Y-37080498D01*
X141608502Y-36967258D01*
X141519530Y-36834102D01*
X141458242Y-36686142D01*
X141427000Y-36529075D01*
X141427000Y-36368925D01*
X141458242Y-36211858D01*
X141519530Y-36063898D01*
X141608502Y-35930742D01*
X141721742Y-35817502D01*
X141854898Y-35728530D01*
X142002858Y-35667242D01*
X142159925Y-35636000D01*
X142320075Y-35636000D01*
X142477142Y-35667242D01*
X142477142Y-35667242D01*
G37*
G36*
X104377142Y-35667242D02*
X104525102Y-35728530D01*
X104658258Y-35817502D01*
X104771498Y-35930742D01*
X104860470Y-36063898D01*
X104921758Y-36211858D01*
X104953000Y-36368925D01*
X104953000Y-36529075D01*
X104921758Y-36686142D01*
X104860470Y-36834102D01*
X104771498Y-36967258D01*
X104658258Y-37080498D01*
X104525102Y-37169470D01*
X104377142Y-37230758D01*
X104220075Y-37262000D01*
X104059925Y-37262000D01*
X103902858Y-37230758D01*
X103754898Y-37169470D01*
X103621742Y-37080498D01*
X103508502Y-36967258D01*
X103419530Y-36834102D01*
X103358242Y-36686142D01*
X103327000Y-36529075D01*
X103327000Y-36368925D01*
X103358242Y-36211858D01*
X103419530Y-36063898D01*
X103508502Y-35930742D01*
X103621742Y-35817502D01*
X103754898Y-35728530D01*
X103902858Y-35667242D01*
X104059925Y-35636000D01*
X104220075Y-35636000D01*
X104377142Y-35667242D01*
X104377142Y-35667242D01*
G37*
G36*
X189848142Y-35667242D02*
X189996102Y-35728530D01*
X190129258Y-35817502D01*
X190242498Y-35930742D01*
X190331470Y-36063898D01*
X190392758Y-36211858D01*
X190424000Y-36368925D01*
X190424000Y-36529075D01*
X190392758Y-36686142D01*
X190331470Y-36834102D01*
X190242498Y-36967258D01*
X190129258Y-37080498D01*
X189996102Y-37169470D01*
X189848142Y-37230758D01*
X189691075Y-37262000D01*
X189530925Y-37262000D01*
X189373858Y-37230758D01*
X189225898Y-37169470D01*
X189092742Y-37080498D01*
X188979502Y-36967258D01*
X188890530Y-36834102D01*
X188829242Y-36686142D01*
X188798000Y-36529075D01*
X188798000Y-36368925D01*
X188829242Y-36211858D01*
X188890530Y-36063898D01*
X188979502Y-35930742D01*
X189092742Y-35817502D01*
X189225898Y-35728530D01*
X189373858Y-35667242D01*
X189530925Y-35636000D01*
X189691075Y-35636000D01*
X189848142Y-35667242D01*
X189848142Y-35667242D01*
G37*
G36*
X57006142Y-35667242D02*
X57154102Y-35728530D01*
X57287258Y-35817502D01*
X57400498Y-35930742D01*
X57489470Y-36063898D01*
X57550758Y-36211858D01*
X57582000Y-36368925D01*
X57582000Y-36529075D01*
X57550758Y-36686142D01*
X57489470Y-36834102D01*
X57400498Y-36967258D01*
X57287258Y-37080498D01*
X57154102Y-37169470D01*
X57006142Y-37230758D01*
X56849075Y-37262000D01*
X56688925Y-37262000D01*
X56531858Y-37230758D01*
X56383898Y-37169470D01*
X56250742Y-37080498D01*
X56137502Y-36967258D01*
X56048530Y-36834102D01*
X55987242Y-36686142D01*
X55956000Y-36529075D01*
X55956000Y-36368925D01*
X55987242Y-36211858D01*
X56048530Y-36063898D01*
X56137502Y-35930742D01*
X56250742Y-35817502D01*
X56383898Y-35728530D01*
X56531858Y-35667242D01*
X56688925Y-35636000D01*
X56849075Y-35636000D01*
X57006142Y-35667242D01*
X57006142Y-35667242D01*
G37*
M02*
