G04 #@! TF.GenerationSoftware,KiCad,Pcbnew,5.0.1-33cea8e~68~ubuntu18.04.1*
G04 #@! TF.CreationDate,2018-10-28T16:56:34+09:00*
G04 #@! TF.ProjectId,modulo-ergo42,6D6F64756C6F2D6572676F34322E6B69,rev?*
G04 #@! TF.SameCoordinates,Original*
G04 #@! TF.FileFunction,Legend,Top*
G04 #@! TF.FilePolarity,Positive*
%FSLAX46Y46*%
G04 Gerber Fmt 4.6, Leading zero omitted, Abs format (unit mm)*
G04 Created by KiCad (PCBNEW 5.0.1-33cea8e~68~ubuntu18.04.1) date 2018年10月28日 16時56分34秒*
%MOMM*%
%LPD*%
G01*
G04 APERTURE LIST*
%ADD10C,0.150000*%
%ADD11C,1.626000*%
%ADD12C,4.089800*%
%ADD13C,1.803800*%
%ADD14C,3.102000*%
G04 APERTURE END LIST*
D10*
G04 #@! TO.C,SW6*
X78090000Y-71770000D02*
X78090000Y-57770000D01*
X92090000Y-71770000D02*
X92090000Y-57770000D01*
X78090000Y-71770000D02*
X92090000Y-71770000D01*
X78090000Y-57770000D02*
X92090000Y-57770000D01*
G04 #@! TO.C,SW7*
X78090000Y-76820000D02*
X92090000Y-76820000D01*
X78090000Y-90820000D02*
X92090000Y-90820000D01*
X92090000Y-90820000D02*
X92090000Y-76820000D01*
X78090000Y-90820000D02*
X78090000Y-76820000D01*
G04 #@! TO.C,SW5*
X78090000Y-52720000D02*
X78090000Y-38720000D01*
X92090000Y-52720000D02*
X92090000Y-38720000D01*
X92090000Y-38720000D02*
X78090000Y-38720000D01*
X92090000Y-52720000D02*
X78090000Y-52720000D01*
G04 #@! TO.C,SW1*
X73040000Y-52720000D02*
X59040000Y-52720000D01*
X73040000Y-38720000D02*
X59040000Y-38720000D01*
X73040000Y-52720000D02*
X73040000Y-38720000D01*
X59040000Y-52720000D02*
X59040000Y-38720000D01*
G04 #@! TO.C,SW2*
X73040000Y-57770000D02*
X73040000Y-71770000D01*
X59040000Y-57770000D02*
X59040000Y-71770000D01*
X59040000Y-71770000D02*
X73040000Y-71770000D01*
X59040000Y-57770000D02*
X73040000Y-57770000D01*
G04 #@! TO.C,SW3*
X59040000Y-76820000D02*
X73040000Y-76820000D01*
X59040000Y-90820000D02*
X73040000Y-90820000D01*
X59040000Y-76820000D02*
X59040000Y-90820000D01*
X73040000Y-76820000D02*
X73040000Y-90820000D01*
G04 #@! TO.C,SW4*
X73040000Y-95870000D02*
X73040000Y-109870000D01*
X59040000Y-95870000D02*
X59040000Y-109870000D01*
X59040000Y-109870000D02*
X73040000Y-109870000D01*
X59040000Y-95870000D02*
X73040000Y-95870000D01*
G04 #@! TO.C,SW8*
X78090000Y-109870000D02*
X78090000Y-95870000D01*
X92090000Y-109870000D02*
X92090000Y-95870000D01*
X78090000Y-109870000D02*
X92090000Y-109870000D01*
X78090000Y-95870000D02*
X92090000Y-95870000D01*
G04 #@! TO.C,SW9*
X111140000Y-52720000D02*
X97140000Y-52720000D01*
X111140000Y-38720000D02*
X97140000Y-38720000D01*
X111140000Y-52720000D02*
X111140000Y-38720000D01*
X97140000Y-52720000D02*
X97140000Y-38720000D01*
G04 #@! TO.C,SW10*
X97140000Y-57770000D02*
X111140000Y-57770000D01*
X97140000Y-71770000D02*
X111140000Y-71770000D01*
X111140000Y-71770000D02*
X111140000Y-57770000D01*
X97140000Y-71770000D02*
X97140000Y-57770000D01*
G04 #@! TO.C,SW11*
X97140000Y-90820000D02*
X97140000Y-76820000D01*
X111140000Y-90820000D02*
X111140000Y-76820000D01*
X97140000Y-90820000D02*
X111140000Y-90820000D01*
X97140000Y-76820000D02*
X111140000Y-76820000D01*
G04 #@! TO.C,SW12*
X97140000Y-95870000D02*
X111140000Y-95870000D01*
X97140000Y-109870000D02*
X111140000Y-109870000D01*
X111140000Y-109870000D02*
X111140000Y-95870000D01*
X97140000Y-109870000D02*
X97140000Y-95870000D01*
G04 #@! TO.C,SW13*
X116190000Y-52720000D02*
X116190000Y-38720000D01*
X130190000Y-52720000D02*
X130190000Y-38720000D01*
X130190000Y-38720000D02*
X116190000Y-38720000D01*
X130190000Y-52720000D02*
X116190000Y-52720000D01*
G04 #@! TO.C,SW14*
X116190000Y-57770000D02*
X130190000Y-57770000D01*
X116190000Y-71770000D02*
X130190000Y-71770000D01*
X130190000Y-71770000D02*
X130190000Y-57770000D01*
X116190000Y-71770000D02*
X116190000Y-57770000D01*
G04 #@! TO.C,SW15*
X116190000Y-76820000D02*
X130190000Y-76820000D01*
X116190000Y-90820000D02*
X130190000Y-90820000D01*
X130190000Y-90820000D02*
X130190000Y-76820000D01*
X116190000Y-90820000D02*
X116190000Y-76820000D01*
G04 #@! TO.C,SW16*
X116190000Y-109870000D02*
X116190000Y-95870000D01*
X130190000Y-109870000D02*
X130190000Y-95870000D01*
X116190000Y-109870000D02*
X130190000Y-109870000D01*
X116190000Y-95870000D02*
X130190000Y-95870000D01*
G04 #@! TO.C,SW17*
X149240000Y-52720000D02*
X135240000Y-52720000D01*
X149240000Y-38720000D02*
X135240000Y-38720000D01*
X149240000Y-52720000D02*
X149240000Y-38720000D01*
X135240000Y-52720000D02*
X135240000Y-38720000D01*
G04 #@! TO.C,SW18*
X135240000Y-71770000D02*
X135240000Y-57770000D01*
X149240000Y-71770000D02*
X149240000Y-57770000D01*
X135240000Y-71770000D02*
X149240000Y-71770000D01*
X135240000Y-57770000D02*
X149240000Y-57770000D01*
G04 #@! TO.C,SW19*
X135240000Y-90820000D02*
X135240000Y-76820000D01*
X149240000Y-90820000D02*
X149240000Y-76820000D01*
X135240000Y-90820000D02*
X149240000Y-90820000D01*
X135240000Y-76820000D02*
X149240000Y-76820000D01*
G04 #@! TO.C,SW20*
X135240000Y-95870000D02*
X149240000Y-95870000D01*
X135240000Y-109870000D02*
X149240000Y-109870000D01*
X149240000Y-109870000D02*
X149240000Y-95870000D01*
X135240000Y-109870000D02*
X135240000Y-95870000D01*
G04 #@! TO.C,SW21*
X154290000Y-52720000D02*
X154290000Y-38720000D01*
X168290000Y-52720000D02*
X168290000Y-38720000D01*
X168290000Y-38720000D02*
X154290000Y-38720000D01*
X168290000Y-52720000D02*
X154290000Y-52720000D01*
G04 #@! TO.C,SW22*
X154290000Y-71770000D02*
X154290000Y-57770000D01*
X168290000Y-71770000D02*
X168290000Y-57770000D01*
X154290000Y-71770000D02*
X168290000Y-71770000D01*
X154290000Y-57770000D02*
X168290000Y-57770000D01*
G04 #@! TO.C,SW23*
X154290000Y-76820000D02*
X168290000Y-76820000D01*
X154290000Y-90820000D02*
X168290000Y-90820000D01*
X168290000Y-90820000D02*
X168290000Y-76820000D01*
X154290000Y-90820000D02*
X154290000Y-76820000D01*
G04 #@! TO.C,SW24*
X154290000Y-109870000D02*
X154290000Y-95870000D01*
X168290000Y-109870000D02*
X168290000Y-95870000D01*
X154290000Y-109870000D02*
X168290000Y-109870000D01*
X154290000Y-95870000D02*
X168290000Y-95870000D01*
G04 #@! TO.C,SW25*
X187340000Y-52720000D02*
X173340000Y-52720000D01*
X187340000Y-38720000D02*
X173340000Y-38720000D01*
X187340000Y-52720000D02*
X187340000Y-38720000D01*
X173340000Y-52720000D02*
X173340000Y-38720000D01*
G04 #@! TO.C,SW26*
X173340000Y-71770000D02*
X173340000Y-57770000D01*
X187340000Y-71770000D02*
X187340000Y-57770000D01*
X187340000Y-57770000D02*
X173340000Y-57770000D01*
X187340000Y-71770000D02*
X173340000Y-71770000D01*
G04 #@! TO.C,SW27*
X187340000Y-90820000D02*
X173340000Y-90820000D01*
X187340000Y-76820000D02*
X173340000Y-76820000D01*
X187340000Y-90820000D02*
X187340000Y-76820000D01*
X173340000Y-90820000D02*
X173340000Y-76820000D01*
G04 #@! TO.C,SW28*
X187340000Y-95870000D02*
X187340000Y-109870000D01*
X173340000Y-95870000D02*
X173340000Y-109870000D01*
X173340000Y-109870000D02*
X187340000Y-109870000D01*
X173340000Y-95870000D02*
X187340000Y-95870000D01*
G04 #@! TO.C,*
G04 #@! TO.C,SW6*
X83756666Y-68984761D02*
X83899523Y-69032380D01*
X84137619Y-69032380D01*
X84232857Y-68984761D01*
X84280476Y-68937142D01*
X84328095Y-68841904D01*
X84328095Y-68746666D01*
X84280476Y-68651428D01*
X84232857Y-68603809D01*
X84137619Y-68556190D01*
X83947142Y-68508571D01*
X83851904Y-68460952D01*
X83804285Y-68413333D01*
X83756666Y-68318095D01*
X83756666Y-68222857D01*
X83804285Y-68127619D01*
X83851904Y-68080000D01*
X83947142Y-68032380D01*
X84185238Y-68032380D01*
X84328095Y-68080000D01*
X84661428Y-68032380D02*
X84899523Y-69032380D01*
X85090000Y-68318095D01*
X85280476Y-69032380D01*
X85518571Y-68032380D01*
X86328095Y-68032380D02*
X86137619Y-68032380D01*
X86042380Y-68080000D01*
X85994761Y-68127619D01*
X85899523Y-68270476D01*
X85851904Y-68460952D01*
X85851904Y-68841904D01*
X85899523Y-68937142D01*
X85947142Y-68984761D01*
X86042380Y-69032380D01*
X86232857Y-69032380D01*
X86328095Y-68984761D01*
X86375714Y-68937142D01*
X86423333Y-68841904D01*
X86423333Y-68603809D01*
X86375714Y-68508571D01*
X86328095Y-68460952D01*
X86232857Y-68413333D01*
X86042380Y-68413333D01*
X85947142Y-68460952D01*
X85899523Y-68508571D01*
X85851904Y-68603809D01*
G04 #@! TO.C,SW7*
X83756666Y-88034761D02*
X83899523Y-88082380D01*
X84137619Y-88082380D01*
X84232857Y-88034761D01*
X84280476Y-87987142D01*
X84328095Y-87891904D01*
X84328095Y-87796666D01*
X84280476Y-87701428D01*
X84232857Y-87653809D01*
X84137619Y-87606190D01*
X83947142Y-87558571D01*
X83851904Y-87510952D01*
X83804285Y-87463333D01*
X83756666Y-87368095D01*
X83756666Y-87272857D01*
X83804285Y-87177619D01*
X83851904Y-87130000D01*
X83947142Y-87082380D01*
X84185238Y-87082380D01*
X84328095Y-87130000D01*
X84661428Y-87082380D02*
X84899523Y-88082380D01*
X85090000Y-87368095D01*
X85280476Y-88082380D01*
X85518571Y-87082380D01*
X85804285Y-87082380D02*
X86470952Y-87082380D01*
X86042380Y-88082380D01*
G04 #@! TO.C,SW5*
X89304761Y-47053333D02*
X89352380Y-46910476D01*
X89352380Y-46672380D01*
X89304761Y-46577142D01*
X89257142Y-46529523D01*
X89161904Y-46481904D01*
X89066666Y-46481904D01*
X88971428Y-46529523D01*
X88923809Y-46577142D01*
X88876190Y-46672380D01*
X88828571Y-46862857D01*
X88780952Y-46958095D01*
X88733333Y-47005714D01*
X88638095Y-47053333D01*
X88542857Y-47053333D01*
X88447619Y-47005714D01*
X88400000Y-46958095D01*
X88352380Y-46862857D01*
X88352380Y-46624761D01*
X88400000Y-46481904D01*
X88352380Y-46148571D02*
X89352380Y-45910476D01*
X88638095Y-45720000D01*
X89352380Y-45529523D01*
X88352380Y-45291428D01*
X88352380Y-44434285D02*
X88352380Y-44910476D01*
X88828571Y-44958095D01*
X88780952Y-44910476D01*
X88733333Y-44815238D01*
X88733333Y-44577142D01*
X88780952Y-44481904D01*
X88828571Y-44434285D01*
X88923809Y-44386666D01*
X89161904Y-44386666D01*
X89257142Y-44434285D01*
X89304761Y-44481904D01*
X89352380Y-44577142D01*
X89352380Y-44815238D01*
X89304761Y-44910476D01*
X89257142Y-44958095D01*
G04 #@! TO.C,SW1*
X70254761Y-47053333D02*
X70302380Y-46910476D01*
X70302380Y-46672380D01*
X70254761Y-46577142D01*
X70207142Y-46529523D01*
X70111904Y-46481904D01*
X70016666Y-46481904D01*
X69921428Y-46529523D01*
X69873809Y-46577142D01*
X69826190Y-46672380D01*
X69778571Y-46862857D01*
X69730952Y-46958095D01*
X69683333Y-47005714D01*
X69588095Y-47053333D01*
X69492857Y-47053333D01*
X69397619Y-47005714D01*
X69350000Y-46958095D01*
X69302380Y-46862857D01*
X69302380Y-46624761D01*
X69350000Y-46481904D01*
X69302380Y-46148571D02*
X70302380Y-45910476D01*
X69588095Y-45720000D01*
X70302380Y-45529523D01*
X69302380Y-45291428D01*
X70302380Y-44386666D02*
X70302380Y-44958095D01*
X70302380Y-44672380D02*
X69302380Y-44672380D01*
X69445238Y-44767619D01*
X69540476Y-44862857D01*
X69588095Y-44958095D01*
G04 #@! TO.C,SW2*
X62634761Y-66103333D02*
X62682380Y-65960476D01*
X62682380Y-65722380D01*
X62634761Y-65627142D01*
X62587142Y-65579523D01*
X62491904Y-65531904D01*
X62396666Y-65531904D01*
X62301428Y-65579523D01*
X62253809Y-65627142D01*
X62206190Y-65722380D01*
X62158571Y-65912857D01*
X62110952Y-66008095D01*
X62063333Y-66055714D01*
X61968095Y-66103333D01*
X61872857Y-66103333D01*
X61777619Y-66055714D01*
X61730000Y-66008095D01*
X61682380Y-65912857D01*
X61682380Y-65674761D01*
X61730000Y-65531904D01*
X61682380Y-65198571D02*
X62682380Y-64960476D01*
X61968095Y-64770000D01*
X62682380Y-64579523D01*
X61682380Y-64341428D01*
X61777619Y-64008095D02*
X61730000Y-63960476D01*
X61682380Y-63865238D01*
X61682380Y-63627142D01*
X61730000Y-63531904D01*
X61777619Y-63484285D01*
X61872857Y-63436666D01*
X61968095Y-63436666D01*
X62110952Y-63484285D01*
X62682380Y-64055714D01*
X62682380Y-63436666D01*
G04 #@! TO.C,SW3*
X62634761Y-85153333D02*
X62682380Y-85010476D01*
X62682380Y-84772380D01*
X62634761Y-84677142D01*
X62587142Y-84629523D01*
X62491904Y-84581904D01*
X62396666Y-84581904D01*
X62301428Y-84629523D01*
X62253809Y-84677142D01*
X62206190Y-84772380D01*
X62158571Y-84962857D01*
X62110952Y-85058095D01*
X62063333Y-85105714D01*
X61968095Y-85153333D01*
X61872857Y-85153333D01*
X61777619Y-85105714D01*
X61730000Y-85058095D01*
X61682380Y-84962857D01*
X61682380Y-84724761D01*
X61730000Y-84581904D01*
X61682380Y-84248571D02*
X62682380Y-84010476D01*
X61968095Y-83820000D01*
X62682380Y-83629523D01*
X61682380Y-83391428D01*
X61682380Y-83105714D02*
X61682380Y-82486666D01*
X62063333Y-82820000D01*
X62063333Y-82677142D01*
X62110952Y-82581904D01*
X62158571Y-82534285D01*
X62253809Y-82486666D01*
X62491904Y-82486666D01*
X62587142Y-82534285D01*
X62634761Y-82581904D01*
X62682380Y-82677142D01*
X62682380Y-82962857D01*
X62634761Y-83058095D01*
X62587142Y-83105714D01*
G04 #@! TO.C,SW4*
X62634761Y-104203333D02*
X62682380Y-104060476D01*
X62682380Y-103822380D01*
X62634761Y-103727142D01*
X62587142Y-103679523D01*
X62491904Y-103631904D01*
X62396666Y-103631904D01*
X62301428Y-103679523D01*
X62253809Y-103727142D01*
X62206190Y-103822380D01*
X62158571Y-104012857D01*
X62110952Y-104108095D01*
X62063333Y-104155714D01*
X61968095Y-104203333D01*
X61872857Y-104203333D01*
X61777619Y-104155714D01*
X61730000Y-104108095D01*
X61682380Y-104012857D01*
X61682380Y-103774761D01*
X61730000Y-103631904D01*
X61682380Y-103298571D02*
X62682380Y-103060476D01*
X61968095Y-102870000D01*
X62682380Y-102679523D01*
X61682380Y-102441428D01*
X62015714Y-101631904D02*
X62682380Y-101631904D01*
X61634761Y-101870000D02*
X62349047Y-102108095D01*
X62349047Y-101489047D01*
G04 #@! TO.C,SW8*
X83756666Y-107084761D02*
X83899523Y-107132380D01*
X84137619Y-107132380D01*
X84232857Y-107084761D01*
X84280476Y-107037142D01*
X84328095Y-106941904D01*
X84328095Y-106846666D01*
X84280476Y-106751428D01*
X84232857Y-106703809D01*
X84137619Y-106656190D01*
X83947142Y-106608571D01*
X83851904Y-106560952D01*
X83804285Y-106513333D01*
X83756666Y-106418095D01*
X83756666Y-106322857D01*
X83804285Y-106227619D01*
X83851904Y-106180000D01*
X83947142Y-106132380D01*
X84185238Y-106132380D01*
X84328095Y-106180000D01*
X84661428Y-106132380D02*
X84899523Y-107132380D01*
X85090000Y-106418095D01*
X85280476Y-107132380D01*
X85518571Y-106132380D01*
X86042380Y-106560952D02*
X85947142Y-106513333D01*
X85899523Y-106465714D01*
X85851904Y-106370476D01*
X85851904Y-106322857D01*
X85899523Y-106227619D01*
X85947142Y-106180000D01*
X86042380Y-106132380D01*
X86232857Y-106132380D01*
X86328095Y-106180000D01*
X86375714Y-106227619D01*
X86423333Y-106322857D01*
X86423333Y-106370476D01*
X86375714Y-106465714D01*
X86328095Y-106513333D01*
X86232857Y-106560952D01*
X86042380Y-106560952D01*
X85947142Y-106608571D01*
X85899523Y-106656190D01*
X85851904Y-106751428D01*
X85851904Y-106941904D01*
X85899523Y-107037142D01*
X85947142Y-107084761D01*
X86042380Y-107132380D01*
X86232857Y-107132380D01*
X86328095Y-107084761D01*
X86375714Y-107037142D01*
X86423333Y-106941904D01*
X86423333Y-106751428D01*
X86375714Y-106656190D01*
X86328095Y-106608571D01*
X86232857Y-106560952D01*
G04 #@! TO.C,SW9*
X108354761Y-47053333D02*
X108402380Y-46910476D01*
X108402380Y-46672380D01*
X108354761Y-46577142D01*
X108307142Y-46529523D01*
X108211904Y-46481904D01*
X108116666Y-46481904D01*
X108021428Y-46529523D01*
X107973809Y-46577142D01*
X107926190Y-46672380D01*
X107878571Y-46862857D01*
X107830952Y-46958095D01*
X107783333Y-47005714D01*
X107688095Y-47053333D01*
X107592857Y-47053333D01*
X107497619Y-47005714D01*
X107450000Y-46958095D01*
X107402380Y-46862857D01*
X107402380Y-46624761D01*
X107450000Y-46481904D01*
X107402380Y-46148571D02*
X108402380Y-45910476D01*
X107688095Y-45720000D01*
X108402380Y-45529523D01*
X107402380Y-45291428D01*
X108402380Y-44862857D02*
X108402380Y-44672380D01*
X108354761Y-44577142D01*
X108307142Y-44529523D01*
X108164285Y-44434285D01*
X107973809Y-44386666D01*
X107592857Y-44386666D01*
X107497619Y-44434285D01*
X107450000Y-44481904D01*
X107402380Y-44577142D01*
X107402380Y-44767619D01*
X107450000Y-44862857D01*
X107497619Y-44910476D01*
X107592857Y-44958095D01*
X107830952Y-44958095D01*
X107926190Y-44910476D01*
X107973809Y-44862857D01*
X108021428Y-44767619D01*
X108021428Y-44577142D01*
X107973809Y-44481904D01*
X107926190Y-44434285D01*
X107830952Y-44386666D01*
G04 #@! TO.C,SW10*
X102330476Y-68984761D02*
X102473333Y-69032380D01*
X102711428Y-69032380D01*
X102806666Y-68984761D01*
X102854285Y-68937142D01*
X102901904Y-68841904D01*
X102901904Y-68746666D01*
X102854285Y-68651428D01*
X102806666Y-68603809D01*
X102711428Y-68556190D01*
X102520952Y-68508571D01*
X102425714Y-68460952D01*
X102378095Y-68413333D01*
X102330476Y-68318095D01*
X102330476Y-68222857D01*
X102378095Y-68127619D01*
X102425714Y-68080000D01*
X102520952Y-68032380D01*
X102759047Y-68032380D01*
X102901904Y-68080000D01*
X103235238Y-68032380D02*
X103473333Y-69032380D01*
X103663809Y-68318095D01*
X103854285Y-69032380D01*
X104092380Y-68032380D01*
X104997142Y-69032380D02*
X104425714Y-69032380D01*
X104711428Y-69032380D02*
X104711428Y-68032380D01*
X104616190Y-68175238D01*
X104520952Y-68270476D01*
X104425714Y-68318095D01*
X105616190Y-68032380D02*
X105711428Y-68032380D01*
X105806666Y-68080000D01*
X105854285Y-68127619D01*
X105901904Y-68222857D01*
X105949523Y-68413333D01*
X105949523Y-68651428D01*
X105901904Y-68841904D01*
X105854285Y-68937142D01*
X105806666Y-68984761D01*
X105711428Y-69032380D01*
X105616190Y-69032380D01*
X105520952Y-68984761D01*
X105473333Y-68937142D01*
X105425714Y-68841904D01*
X105378095Y-68651428D01*
X105378095Y-68413333D01*
X105425714Y-68222857D01*
X105473333Y-68127619D01*
X105520952Y-68080000D01*
X105616190Y-68032380D01*
G04 #@! TO.C,SW11*
X102330476Y-88034761D02*
X102473333Y-88082380D01*
X102711428Y-88082380D01*
X102806666Y-88034761D01*
X102854285Y-87987142D01*
X102901904Y-87891904D01*
X102901904Y-87796666D01*
X102854285Y-87701428D01*
X102806666Y-87653809D01*
X102711428Y-87606190D01*
X102520952Y-87558571D01*
X102425714Y-87510952D01*
X102378095Y-87463333D01*
X102330476Y-87368095D01*
X102330476Y-87272857D01*
X102378095Y-87177619D01*
X102425714Y-87130000D01*
X102520952Y-87082380D01*
X102759047Y-87082380D01*
X102901904Y-87130000D01*
X103235238Y-87082380D02*
X103473333Y-88082380D01*
X103663809Y-87368095D01*
X103854285Y-88082380D01*
X104092380Y-87082380D01*
X104997142Y-88082380D02*
X104425714Y-88082380D01*
X104711428Y-88082380D02*
X104711428Y-87082380D01*
X104616190Y-87225238D01*
X104520952Y-87320476D01*
X104425714Y-87368095D01*
X105949523Y-88082380D02*
X105378095Y-88082380D01*
X105663809Y-88082380D02*
X105663809Y-87082380D01*
X105568571Y-87225238D01*
X105473333Y-87320476D01*
X105378095Y-87368095D01*
G04 #@! TO.C,SW12*
X102330476Y-107084761D02*
X102473333Y-107132380D01*
X102711428Y-107132380D01*
X102806666Y-107084761D01*
X102854285Y-107037142D01*
X102901904Y-106941904D01*
X102901904Y-106846666D01*
X102854285Y-106751428D01*
X102806666Y-106703809D01*
X102711428Y-106656190D01*
X102520952Y-106608571D01*
X102425714Y-106560952D01*
X102378095Y-106513333D01*
X102330476Y-106418095D01*
X102330476Y-106322857D01*
X102378095Y-106227619D01*
X102425714Y-106180000D01*
X102520952Y-106132380D01*
X102759047Y-106132380D01*
X102901904Y-106180000D01*
X103235238Y-106132380D02*
X103473333Y-107132380D01*
X103663809Y-106418095D01*
X103854285Y-107132380D01*
X104092380Y-106132380D01*
X104997142Y-107132380D02*
X104425714Y-107132380D01*
X104711428Y-107132380D02*
X104711428Y-106132380D01*
X104616190Y-106275238D01*
X104520952Y-106370476D01*
X104425714Y-106418095D01*
X105378095Y-106227619D02*
X105425714Y-106180000D01*
X105520952Y-106132380D01*
X105759047Y-106132380D01*
X105854285Y-106180000D01*
X105901904Y-106227619D01*
X105949523Y-106322857D01*
X105949523Y-106418095D01*
X105901904Y-106560952D01*
X105330476Y-107132380D01*
X105949523Y-107132380D01*
G04 #@! TO.C,SW13*
X127404761Y-47529523D02*
X127452380Y-47386666D01*
X127452380Y-47148571D01*
X127404761Y-47053333D01*
X127357142Y-47005714D01*
X127261904Y-46958095D01*
X127166666Y-46958095D01*
X127071428Y-47005714D01*
X127023809Y-47053333D01*
X126976190Y-47148571D01*
X126928571Y-47339047D01*
X126880952Y-47434285D01*
X126833333Y-47481904D01*
X126738095Y-47529523D01*
X126642857Y-47529523D01*
X126547619Y-47481904D01*
X126500000Y-47434285D01*
X126452380Y-47339047D01*
X126452380Y-47100952D01*
X126500000Y-46958095D01*
X126452380Y-46624761D02*
X127452380Y-46386666D01*
X126738095Y-46196190D01*
X127452380Y-46005714D01*
X126452380Y-45767619D01*
X127452380Y-44862857D02*
X127452380Y-45434285D01*
X127452380Y-45148571D02*
X126452380Y-45148571D01*
X126595238Y-45243809D01*
X126690476Y-45339047D01*
X126738095Y-45434285D01*
X126452380Y-44529523D02*
X126452380Y-43910476D01*
X126833333Y-44243809D01*
X126833333Y-44100952D01*
X126880952Y-44005714D01*
X126928571Y-43958095D01*
X127023809Y-43910476D01*
X127261904Y-43910476D01*
X127357142Y-43958095D01*
X127404761Y-44005714D01*
X127452380Y-44100952D01*
X127452380Y-44386666D01*
X127404761Y-44481904D01*
X127357142Y-44529523D01*
G04 #@! TO.C,SW14*
X121380476Y-68984761D02*
X121523333Y-69032380D01*
X121761428Y-69032380D01*
X121856666Y-68984761D01*
X121904285Y-68937142D01*
X121951904Y-68841904D01*
X121951904Y-68746666D01*
X121904285Y-68651428D01*
X121856666Y-68603809D01*
X121761428Y-68556190D01*
X121570952Y-68508571D01*
X121475714Y-68460952D01*
X121428095Y-68413333D01*
X121380476Y-68318095D01*
X121380476Y-68222857D01*
X121428095Y-68127619D01*
X121475714Y-68080000D01*
X121570952Y-68032380D01*
X121809047Y-68032380D01*
X121951904Y-68080000D01*
X122285238Y-68032380D02*
X122523333Y-69032380D01*
X122713809Y-68318095D01*
X122904285Y-69032380D01*
X123142380Y-68032380D01*
X124047142Y-69032380D02*
X123475714Y-69032380D01*
X123761428Y-69032380D02*
X123761428Y-68032380D01*
X123666190Y-68175238D01*
X123570952Y-68270476D01*
X123475714Y-68318095D01*
X124904285Y-68365714D02*
X124904285Y-69032380D01*
X124666190Y-67984761D02*
X124428095Y-68699047D01*
X125047142Y-68699047D01*
G04 #@! TO.C,SW15*
X121380476Y-88034761D02*
X121523333Y-88082380D01*
X121761428Y-88082380D01*
X121856666Y-88034761D01*
X121904285Y-87987142D01*
X121951904Y-87891904D01*
X121951904Y-87796666D01*
X121904285Y-87701428D01*
X121856666Y-87653809D01*
X121761428Y-87606190D01*
X121570952Y-87558571D01*
X121475714Y-87510952D01*
X121428095Y-87463333D01*
X121380476Y-87368095D01*
X121380476Y-87272857D01*
X121428095Y-87177619D01*
X121475714Y-87130000D01*
X121570952Y-87082380D01*
X121809047Y-87082380D01*
X121951904Y-87130000D01*
X122285238Y-87082380D02*
X122523333Y-88082380D01*
X122713809Y-87368095D01*
X122904285Y-88082380D01*
X123142380Y-87082380D01*
X124047142Y-88082380D02*
X123475714Y-88082380D01*
X123761428Y-88082380D02*
X123761428Y-87082380D01*
X123666190Y-87225238D01*
X123570952Y-87320476D01*
X123475714Y-87368095D01*
X124951904Y-87082380D02*
X124475714Y-87082380D01*
X124428095Y-87558571D01*
X124475714Y-87510952D01*
X124570952Y-87463333D01*
X124809047Y-87463333D01*
X124904285Y-87510952D01*
X124951904Y-87558571D01*
X124999523Y-87653809D01*
X124999523Y-87891904D01*
X124951904Y-87987142D01*
X124904285Y-88034761D01*
X124809047Y-88082380D01*
X124570952Y-88082380D01*
X124475714Y-88034761D01*
X124428095Y-87987142D01*
G04 #@! TO.C,SW16*
X121380476Y-107084761D02*
X121523333Y-107132380D01*
X121761428Y-107132380D01*
X121856666Y-107084761D01*
X121904285Y-107037142D01*
X121951904Y-106941904D01*
X121951904Y-106846666D01*
X121904285Y-106751428D01*
X121856666Y-106703809D01*
X121761428Y-106656190D01*
X121570952Y-106608571D01*
X121475714Y-106560952D01*
X121428095Y-106513333D01*
X121380476Y-106418095D01*
X121380476Y-106322857D01*
X121428095Y-106227619D01*
X121475714Y-106180000D01*
X121570952Y-106132380D01*
X121809047Y-106132380D01*
X121951904Y-106180000D01*
X122285238Y-106132380D02*
X122523333Y-107132380D01*
X122713809Y-106418095D01*
X122904285Y-107132380D01*
X123142380Y-106132380D01*
X124047142Y-107132380D02*
X123475714Y-107132380D01*
X123761428Y-107132380D02*
X123761428Y-106132380D01*
X123666190Y-106275238D01*
X123570952Y-106370476D01*
X123475714Y-106418095D01*
X124904285Y-106132380D02*
X124713809Y-106132380D01*
X124618571Y-106180000D01*
X124570952Y-106227619D01*
X124475714Y-106370476D01*
X124428095Y-106560952D01*
X124428095Y-106941904D01*
X124475714Y-107037142D01*
X124523333Y-107084761D01*
X124618571Y-107132380D01*
X124809047Y-107132380D01*
X124904285Y-107084761D01*
X124951904Y-107037142D01*
X124999523Y-106941904D01*
X124999523Y-106703809D01*
X124951904Y-106608571D01*
X124904285Y-106560952D01*
X124809047Y-106513333D01*
X124618571Y-106513333D01*
X124523333Y-106560952D01*
X124475714Y-106608571D01*
X124428095Y-106703809D01*
G04 #@! TO.C,SW17*
X146454761Y-47529523D02*
X146502380Y-47386666D01*
X146502380Y-47148571D01*
X146454761Y-47053333D01*
X146407142Y-47005714D01*
X146311904Y-46958095D01*
X146216666Y-46958095D01*
X146121428Y-47005714D01*
X146073809Y-47053333D01*
X146026190Y-47148571D01*
X145978571Y-47339047D01*
X145930952Y-47434285D01*
X145883333Y-47481904D01*
X145788095Y-47529523D01*
X145692857Y-47529523D01*
X145597619Y-47481904D01*
X145550000Y-47434285D01*
X145502380Y-47339047D01*
X145502380Y-47100952D01*
X145550000Y-46958095D01*
X145502380Y-46624761D02*
X146502380Y-46386666D01*
X145788095Y-46196190D01*
X146502380Y-46005714D01*
X145502380Y-45767619D01*
X146502380Y-44862857D02*
X146502380Y-45434285D01*
X146502380Y-45148571D02*
X145502380Y-45148571D01*
X145645238Y-45243809D01*
X145740476Y-45339047D01*
X145788095Y-45434285D01*
X145502380Y-44529523D02*
X145502380Y-43862857D01*
X146502380Y-44291428D01*
G04 #@! TO.C,SW18*
X140430476Y-68984761D02*
X140573333Y-69032380D01*
X140811428Y-69032380D01*
X140906666Y-68984761D01*
X140954285Y-68937142D01*
X141001904Y-68841904D01*
X141001904Y-68746666D01*
X140954285Y-68651428D01*
X140906666Y-68603809D01*
X140811428Y-68556190D01*
X140620952Y-68508571D01*
X140525714Y-68460952D01*
X140478095Y-68413333D01*
X140430476Y-68318095D01*
X140430476Y-68222857D01*
X140478095Y-68127619D01*
X140525714Y-68080000D01*
X140620952Y-68032380D01*
X140859047Y-68032380D01*
X141001904Y-68080000D01*
X141335238Y-68032380D02*
X141573333Y-69032380D01*
X141763809Y-68318095D01*
X141954285Y-69032380D01*
X142192380Y-68032380D01*
X143097142Y-69032380D02*
X142525714Y-69032380D01*
X142811428Y-69032380D02*
X142811428Y-68032380D01*
X142716190Y-68175238D01*
X142620952Y-68270476D01*
X142525714Y-68318095D01*
X143668571Y-68460952D02*
X143573333Y-68413333D01*
X143525714Y-68365714D01*
X143478095Y-68270476D01*
X143478095Y-68222857D01*
X143525714Y-68127619D01*
X143573333Y-68080000D01*
X143668571Y-68032380D01*
X143859047Y-68032380D01*
X143954285Y-68080000D01*
X144001904Y-68127619D01*
X144049523Y-68222857D01*
X144049523Y-68270476D01*
X144001904Y-68365714D01*
X143954285Y-68413333D01*
X143859047Y-68460952D01*
X143668571Y-68460952D01*
X143573333Y-68508571D01*
X143525714Y-68556190D01*
X143478095Y-68651428D01*
X143478095Y-68841904D01*
X143525714Y-68937142D01*
X143573333Y-68984761D01*
X143668571Y-69032380D01*
X143859047Y-69032380D01*
X143954285Y-68984761D01*
X144001904Y-68937142D01*
X144049523Y-68841904D01*
X144049523Y-68651428D01*
X144001904Y-68556190D01*
X143954285Y-68508571D01*
X143859047Y-68460952D01*
G04 #@! TO.C,SW19*
X140430476Y-88034761D02*
X140573333Y-88082380D01*
X140811428Y-88082380D01*
X140906666Y-88034761D01*
X140954285Y-87987142D01*
X141001904Y-87891904D01*
X141001904Y-87796666D01*
X140954285Y-87701428D01*
X140906666Y-87653809D01*
X140811428Y-87606190D01*
X140620952Y-87558571D01*
X140525714Y-87510952D01*
X140478095Y-87463333D01*
X140430476Y-87368095D01*
X140430476Y-87272857D01*
X140478095Y-87177619D01*
X140525714Y-87130000D01*
X140620952Y-87082380D01*
X140859047Y-87082380D01*
X141001904Y-87130000D01*
X141335238Y-87082380D02*
X141573333Y-88082380D01*
X141763809Y-87368095D01*
X141954285Y-88082380D01*
X142192380Y-87082380D01*
X143097142Y-88082380D02*
X142525714Y-88082380D01*
X142811428Y-88082380D02*
X142811428Y-87082380D01*
X142716190Y-87225238D01*
X142620952Y-87320476D01*
X142525714Y-87368095D01*
X143573333Y-88082380D02*
X143763809Y-88082380D01*
X143859047Y-88034761D01*
X143906666Y-87987142D01*
X144001904Y-87844285D01*
X144049523Y-87653809D01*
X144049523Y-87272857D01*
X144001904Y-87177619D01*
X143954285Y-87130000D01*
X143859047Y-87082380D01*
X143668571Y-87082380D01*
X143573333Y-87130000D01*
X143525714Y-87177619D01*
X143478095Y-87272857D01*
X143478095Y-87510952D01*
X143525714Y-87606190D01*
X143573333Y-87653809D01*
X143668571Y-87701428D01*
X143859047Y-87701428D01*
X143954285Y-87653809D01*
X144001904Y-87606190D01*
X144049523Y-87510952D01*
G04 #@! TO.C,SW20*
X140430476Y-107084761D02*
X140573333Y-107132380D01*
X140811428Y-107132380D01*
X140906666Y-107084761D01*
X140954285Y-107037142D01*
X141001904Y-106941904D01*
X141001904Y-106846666D01*
X140954285Y-106751428D01*
X140906666Y-106703809D01*
X140811428Y-106656190D01*
X140620952Y-106608571D01*
X140525714Y-106560952D01*
X140478095Y-106513333D01*
X140430476Y-106418095D01*
X140430476Y-106322857D01*
X140478095Y-106227619D01*
X140525714Y-106180000D01*
X140620952Y-106132380D01*
X140859047Y-106132380D01*
X141001904Y-106180000D01*
X141335238Y-106132380D02*
X141573333Y-107132380D01*
X141763809Y-106418095D01*
X141954285Y-107132380D01*
X142192380Y-106132380D01*
X142525714Y-106227619D02*
X142573333Y-106180000D01*
X142668571Y-106132380D01*
X142906666Y-106132380D01*
X143001904Y-106180000D01*
X143049523Y-106227619D01*
X143097142Y-106322857D01*
X143097142Y-106418095D01*
X143049523Y-106560952D01*
X142478095Y-107132380D01*
X143097142Y-107132380D01*
X143716190Y-106132380D02*
X143811428Y-106132380D01*
X143906666Y-106180000D01*
X143954285Y-106227619D01*
X144001904Y-106322857D01*
X144049523Y-106513333D01*
X144049523Y-106751428D01*
X144001904Y-106941904D01*
X143954285Y-107037142D01*
X143906666Y-107084761D01*
X143811428Y-107132380D01*
X143716190Y-107132380D01*
X143620952Y-107084761D01*
X143573333Y-107037142D01*
X143525714Y-106941904D01*
X143478095Y-106751428D01*
X143478095Y-106513333D01*
X143525714Y-106322857D01*
X143573333Y-106227619D01*
X143620952Y-106180000D01*
X143716190Y-106132380D01*
G04 #@! TO.C,SW21*
X165504761Y-47529523D02*
X165552380Y-47386666D01*
X165552380Y-47148571D01*
X165504761Y-47053333D01*
X165457142Y-47005714D01*
X165361904Y-46958095D01*
X165266666Y-46958095D01*
X165171428Y-47005714D01*
X165123809Y-47053333D01*
X165076190Y-47148571D01*
X165028571Y-47339047D01*
X164980952Y-47434285D01*
X164933333Y-47481904D01*
X164838095Y-47529523D01*
X164742857Y-47529523D01*
X164647619Y-47481904D01*
X164600000Y-47434285D01*
X164552380Y-47339047D01*
X164552380Y-47100952D01*
X164600000Y-46958095D01*
X164552380Y-46624761D02*
X165552380Y-46386666D01*
X164838095Y-46196190D01*
X165552380Y-46005714D01*
X164552380Y-45767619D01*
X164647619Y-45434285D02*
X164600000Y-45386666D01*
X164552380Y-45291428D01*
X164552380Y-45053333D01*
X164600000Y-44958095D01*
X164647619Y-44910476D01*
X164742857Y-44862857D01*
X164838095Y-44862857D01*
X164980952Y-44910476D01*
X165552380Y-45481904D01*
X165552380Y-44862857D01*
X165552380Y-43910476D02*
X165552380Y-44481904D01*
X165552380Y-44196190D02*
X164552380Y-44196190D01*
X164695238Y-44291428D01*
X164790476Y-44386666D01*
X164838095Y-44481904D01*
G04 #@! TO.C,SW22*
X159480476Y-68984761D02*
X159623333Y-69032380D01*
X159861428Y-69032380D01*
X159956666Y-68984761D01*
X160004285Y-68937142D01*
X160051904Y-68841904D01*
X160051904Y-68746666D01*
X160004285Y-68651428D01*
X159956666Y-68603809D01*
X159861428Y-68556190D01*
X159670952Y-68508571D01*
X159575714Y-68460952D01*
X159528095Y-68413333D01*
X159480476Y-68318095D01*
X159480476Y-68222857D01*
X159528095Y-68127619D01*
X159575714Y-68080000D01*
X159670952Y-68032380D01*
X159909047Y-68032380D01*
X160051904Y-68080000D01*
X160385238Y-68032380D02*
X160623333Y-69032380D01*
X160813809Y-68318095D01*
X161004285Y-69032380D01*
X161242380Y-68032380D01*
X161575714Y-68127619D02*
X161623333Y-68080000D01*
X161718571Y-68032380D01*
X161956666Y-68032380D01*
X162051904Y-68080000D01*
X162099523Y-68127619D01*
X162147142Y-68222857D01*
X162147142Y-68318095D01*
X162099523Y-68460952D01*
X161528095Y-69032380D01*
X162147142Y-69032380D01*
X162528095Y-68127619D02*
X162575714Y-68080000D01*
X162670952Y-68032380D01*
X162909047Y-68032380D01*
X163004285Y-68080000D01*
X163051904Y-68127619D01*
X163099523Y-68222857D01*
X163099523Y-68318095D01*
X163051904Y-68460952D01*
X162480476Y-69032380D01*
X163099523Y-69032380D01*
G04 #@! TO.C,SW23*
X159480476Y-88034761D02*
X159623333Y-88082380D01*
X159861428Y-88082380D01*
X159956666Y-88034761D01*
X160004285Y-87987142D01*
X160051904Y-87891904D01*
X160051904Y-87796666D01*
X160004285Y-87701428D01*
X159956666Y-87653809D01*
X159861428Y-87606190D01*
X159670952Y-87558571D01*
X159575714Y-87510952D01*
X159528095Y-87463333D01*
X159480476Y-87368095D01*
X159480476Y-87272857D01*
X159528095Y-87177619D01*
X159575714Y-87130000D01*
X159670952Y-87082380D01*
X159909047Y-87082380D01*
X160051904Y-87130000D01*
X160385238Y-87082380D02*
X160623333Y-88082380D01*
X160813809Y-87368095D01*
X161004285Y-88082380D01*
X161242380Y-87082380D01*
X161575714Y-87177619D02*
X161623333Y-87130000D01*
X161718571Y-87082380D01*
X161956666Y-87082380D01*
X162051904Y-87130000D01*
X162099523Y-87177619D01*
X162147142Y-87272857D01*
X162147142Y-87368095D01*
X162099523Y-87510952D01*
X161528095Y-88082380D01*
X162147142Y-88082380D01*
X162480476Y-87082380D02*
X163099523Y-87082380D01*
X162766190Y-87463333D01*
X162909047Y-87463333D01*
X163004285Y-87510952D01*
X163051904Y-87558571D01*
X163099523Y-87653809D01*
X163099523Y-87891904D01*
X163051904Y-87987142D01*
X163004285Y-88034761D01*
X162909047Y-88082380D01*
X162623333Y-88082380D01*
X162528095Y-88034761D01*
X162480476Y-87987142D01*
G04 #@! TO.C,SW24*
X159480476Y-107084761D02*
X159623333Y-107132380D01*
X159861428Y-107132380D01*
X159956666Y-107084761D01*
X160004285Y-107037142D01*
X160051904Y-106941904D01*
X160051904Y-106846666D01*
X160004285Y-106751428D01*
X159956666Y-106703809D01*
X159861428Y-106656190D01*
X159670952Y-106608571D01*
X159575714Y-106560952D01*
X159528095Y-106513333D01*
X159480476Y-106418095D01*
X159480476Y-106322857D01*
X159528095Y-106227619D01*
X159575714Y-106180000D01*
X159670952Y-106132380D01*
X159909047Y-106132380D01*
X160051904Y-106180000D01*
X160385238Y-106132380D02*
X160623333Y-107132380D01*
X160813809Y-106418095D01*
X161004285Y-107132380D01*
X161242380Y-106132380D01*
X161575714Y-106227619D02*
X161623333Y-106180000D01*
X161718571Y-106132380D01*
X161956666Y-106132380D01*
X162051904Y-106180000D01*
X162099523Y-106227619D01*
X162147142Y-106322857D01*
X162147142Y-106418095D01*
X162099523Y-106560952D01*
X161528095Y-107132380D01*
X162147142Y-107132380D01*
X163004285Y-106465714D02*
X163004285Y-107132380D01*
X162766190Y-106084761D02*
X162528095Y-106799047D01*
X163147142Y-106799047D01*
G04 #@! TO.C,SW25*
X184554761Y-47529523D02*
X184602380Y-47386666D01*
X184602380Y-47148571D01*
X184554761Y-47053333D01*
X184507142Y-47005714D01*
X184411904Y-46958095D01*
X184316666Y-46958095D01*
X184221428Y-47005714D01*
X184173809Y-47053333D01*
X184126190Y-47148571D01*
X184078571Y-47339047D01*
X184030952Y-47434285D01*
X183983333Y-47481904D01*
X183888095Y-47529523D01*
X183792857Y-47529523D01*
X183697619Y-47481904D01*
X183650000Y-47434285D01*
X183602380Y-47339047D01*
X183602380Y-47100952D01*
X183650000Y-46958095D01*
X183602380Y-46624761D02*
X184602380Y-46386666D01*
X183888095Y-46196190D01*
X184602380Y-46005714D01*
X183602380Y-45767619D01*
X183697619Y-45434285D02*
X183650000Y-45386666D01*
X183602380Y-45291428D01*
X183602380Y-45053333D01*
X183650000Y-44958095D01*
X183697619Y-44910476D01*
X183792857Y-44862857D01*
X183888095Y-44862857D01*
X184030952Y-44910476D01*
X184602380Y-45481904D01*
X184602380Y-44862857D01*
X183602380Y-43958095D02*
X183602380Y-44434285D01*
X184078571Y-44481904D01*
X184030952Y-44434285D01*
X183983333Y-44339047D01*
X183983333Y-44100952D01*
X184030952Y-44005714D01*
X184078571Y-43958095D01*
X184173809Y-43910476D01*
X184411904Y-43910476D01*
X184507142Y-43958095D01*
X184554761Y-44005714D01*
X184602380Y-44100952D01*
X184602380Y-44339047D01*
X184554761Y-44434285D01*
X184507142Y-44481904D01*
G04 #@! TO.C,SW26*
X184554761Y-66579523D02*
X184602380Y-66436666D01*
X184602380Y-66198571D01*
X184554761Y-66103333D01*
X184507142Y-66055714D01*
X184411904Y-66008095D01*
X184316666Y-66008095D01*
X184221428Y-66055714D01*
X184173809Y-66103333D01*
X184126190Y-66198571D01*
X184078571Y-66389047D01*
X184030952Y-66484285D01*
X183983333Y-66531904D01*
X183888095Y-66579523D01*
X183792857Y-66579523D01*
X183697619Y-66531904D01*
X183650000Y-66484285D01*
X183602380Y-66389047D01*
X183602380Y-66150952D01*
X183650000Y-66008095D01*
X183602380Y-65674761D02*
X184602380Y-65436666D01*
X183888095Y-65246190D01*
X184602380Y-65055714D01*
X183602380Y-64817619D01*
X183697619Y-64484285D02*
X183650000Y-64436666D01*
X183602380Y-64341428D01*
X183602380Y-64103333D01*
X183650000Y-64008095D01*
X183697619Y-63960476D01*
X183792857Y-63912857D01*
X183888095Y-63912857D01*
X184030952Y-63960476D01*
X184602380Y-64531904D01*
X184602380Y-63912857D01*
X183602380Y-63055714D02*
X183602380Y-63246190D01*
X183650000Y-63341428D01*
X183697619Y-63389047D01*
X183840476Y-63484285D01*
X184030952Y-63531904D01*
X184411904Y-63531904D01*
X184507142Y-63484285D01*
X184554761Y-63436666D01*
X184602380Y-63341428D01*
X184602380Y-63150952D01*
X184554761Y-63055714D01*
X184507142Y-63008095D01*
X184411904Y-62960476D01*
X184173809Y-62960476D01*
X184078571Y-63008095D01*
X184030952Y-63055714D01*
X183983333Y-63150952D01*
X183983333Y-63341428D01*
X184030952Y-63436666D01*
X184078571Y-63484285D01*
X184173809Y-63531904D01*
G04 #@! TO.C,SW27*
X184554761Y-85629523D02*
X184602380Y-85486666D01*
X184602380Y-85248571D01*
X184554761Y-85153333D01*
X184507142Y-85105714D01*
X184411904Y-85058095D01*
X184316666Y-85058095D01*
X184221428Y-85105714D01*
X184173809Y-85153333D01*
X184126190Y-85248571D01*
X184078571Y-85439047D01*
X184030952Y-85534285D01*
X183983333Y-85581904D01*
X183888095Y-85629523D01*
X183792857Y-85629523D01*
X183697619Y-85581904D01*
X183650000Y-85534285D01*
X183602380Y-85439047D01*
X183602380Y-85200952D01*
X183650000Y-85058095D01*
X183602380Y-84724761D02*
X184602380Y-84486666D01*
X183888095Y-84296190D01*
X184602380Y-84105714D01*
X183602380Y-83867619D01*
X183697619Y-83534285D02*
X183650000Y-83486666D01*
X183602380Y-83391428D01*
X183602380Y-83153333D01*
X183650000Y-83058095D01*
X183697619Y-83010476D01*
X183792857Y-82962857D01*
X183888095Y-82962857D01*
X184030952Y-83010476D01*
X184602380Y-83581904D01*
X184602380Y-82962857D01*
X183602380Y-82629523D02*
X183602380Y-81962857D01*
X184602380Y-82391428D01*
G04 #@! TO.C,SW28*
X176934761Y-104679523D02*
X176982380Y-104536666D01*
X176982380Y-104298571D01*
X176934761Y-104203333D01*
X176887142Y-104155714D01*
X176791904Y-104108095D01*
X176696666Y-104108095D01*
X176601428Y-104155714D01*
X176553809Y-104203333D01*
X176506190Y-104298571D01*
X176458571Y-104489047D01*
X176410952Y-104584285D01*
X176363333Y-104631904D01*
X176268095Y-104679523D01*
X176172857Y-104679523D01*
X176077619Y-104631904D01*
X176030000Y-104584285D01*
X175982380Y-104489047D01*
X175982380Y-104250952D01*
X176030000Y-104108095D01*
X175982380Y-103774761D02*
X176982380Y-103536666D01*
X176268095Y-103346190D01*
X176982380Y-103155714D01*
X175982380Y-102917619D01*
X176077619Y-102584285D02*
X176030000Y-102536666D01*
X175982380Y-102441428D01*
X175982380Y-102203333D01*
X176030000Y-102108095D01*
X176077619Y-102060476D01*
X176172857Y-102012857D01*
X176268095Y-102012857D01*
X176410952Y-102060476D01*
X176982380Y-102631904D01*
X176982380Y-102012857D01*
X176410952Y-101441428D02*
X176363333Y-101536666D01*
X176315714Y-101584285D01*
X176220476Y-101631904D01*
X176172857Y-101631904D01*
X176077619Y-101584285D01*
X176030000Y-101536666D01*
X175982380Y-101441428D01*
X175982380Y-101250952D01*
X176030000Y-101155714D01*
X176077619Y-101108095D01*
X176172857Y-101060476D01*
X176220476Y-101060476D01*
X176315714Y-101108095D01*
X176363333Y-101155714D01*
X176410952Y-101250952D01*
X176410952Y-101441428D01*
X176458571Y-101536666D01*
X176506190Y-101584285D01*
X176601428Y-101631904D01*
X176791904Y-101631904D01*
X176887142Y-101584285D01*
X176934761Y-101536666D01*
X176982380Y-101441428D01*
X176982380Y-101250952D01*
X176934761Y-101155714D01*
X176887142Y-101108095D01*
X176791904Y-101060476D01*
X176601428Y-101060476D01*
X176506190Y-101108095D01*
X176458571Y-101155714D01*
X176410952Y-101250952D01*
G04 #@! TO.C,*
G04 #@! TD*
%LPC*%
D11*
G04 #@! TO.C,J4*
X149860000Y-37460000D03*
X149860000Y-44460000D03*
G04 #@! TD*
G04 #@! TO.C,*
X56769000Y-55245000D03*
G04 #@! TD*
G04 #@! TO.C,*
X56769000Y-93345000D03*
G04 #@! TD*
G04 #@! TO.C,*
X189611000Y-93345000D03*
G04 #@! TD*
G04 #@! TO.C,*
X189611000Y-55245000D03*
G04 #@! TD*
G04 #@! TO.C,*
X142240000Y-36449000D03*
G04 #@! TD*
G04 #@! TO.C,*
X104140000Y-36449000D03*
G04 #@! TD*
G04 #@! TO.C,*
X56769000Y-36449000D03*
G04 #@! TD*
G04 #@! TO.C,*
X56769000Y-112141000D03*
G04 #@! TD*
G04 #@! TO.C,*
X104140000Y-112141000D03*
G04 #@! TD*
G04 #@! TO.C,*
X142240000Y-112141000D03*
G04 #@! TD*
G04 #@! TO.C,*
X189611000Y-112141000D03*
G04 #@! TD*
G04 #@! TO.C,*
X189611000Y-36449000D03*
G04 #@! TD*
G04 #@! TO.C,*
X94615000Y-74295000D03*
G04 #@! TD*
D12*
G04 #@! TO.C,SW6*
X85090000Y-64770000D03*
D13*
X80010000Y-64770000D03*
X90170000Y-64770000D03*
D14*
X81280000Y-62230000D03*
X87630000Y-59690000D03*
G04 #@! TD*
G04 #@! TO.C,SW7*
X87630000Y-78740000D03*
X81280000Y-81280000D03*
D13*
X90170000Y-83820000D03*
X80010000Y-83820000D03*
D12*
X85090000Y-83820000D03*
G04 #@! TD*
D11*
G04 #@! TO.C,J3*
X92710000Y-37460000D03*
X92710000Y-44460000D03*
G04 #@! TD*
D14*
G04 #@! TO.C,SW5*
X80010000Y-43180000D03*
X82550000Y-49530000D03*
D13*
X85090000Y-40640000D03*
X85090000Y-50800000D03*
D12*
X85090000Y-45720000D03*
G04 #@! TD*
G04 #@! TO.C,SW1*
X66040000Y-45720000D03*
D13*
X66040000Y-50800000D03*
X66040000Y-40640000D03*
D14*
X63500000Y-49530000D03*
X60960000Y-43180000D03*
G04 #@! TD*
D11*
G04 #@! TO.C,J1*
X73660000Y-44460000D03*
X73660000Y-37460000D03*
G04 #@! TD*
G04 #@! TO.C,J2*
X168910000Y-37460000D03*
X168910000Y-44460000D03*
G04 #@! TD*
D14*
G04 #@! TO.C,SW2*
X71120000Y-67310000D03*
X68580000Y-60960000D03*
D13*
X66040000Y-69850000D03*
X66040000Y-59690000D03*
D12*
X66040000Y-64770000D03*
G04 #@! TD*
G04 #@! TO.C,SW3*
X66040000Y-83820000D03*
D13*
X66040000Y-78740000D03*
X66040000Y-88900000D03*
D14*
X68580000Y-80010000D03*
X71120000Y-86360000D03*
G04 #@! TD*
G04 #@! TO.C,SW4*
X71120000Y-105410000D03*
X68580000Y-99060000D03*
D13*
X66040000Y-107950000D03*
X66040000Y-97790000D03*
D12*
X66040000Y-102870000D03*
G04 #@! TD*
G04 #@! TO.C,SW8*
X85090000Y-102870000D03*
D13*
X80010000Y-102870000D03*
X90170000Y-102870000D03*
D14*
X81280000Y-100330000D03*
X87630000Y-97790000D03*
G04 #@! TD*
D12*
G04 #@! TO.C,SW9*
X104140000Y-45720000D03*
D13*
X104140000Y-50800000D03*
X104140000Y-40640000D03*
D14*
X101600000Y-49530000D03*
X99060000Y-43180000D03*
G04 #@! TD*
G04 #@! TO.C,SW10*
X106680000Y-59690000D03*
X100330000Y-62230000D03*
D13*
X109220000Y-64770000D03*
X99060000Y-64770000D03*
D12*
X104140000Y-64770000D03*
G04 #@! TD*
G04 #@! TO.C,SW11*
X104140000Y-83820000D03*
D13*
X99060000Y-83820000D03*
X109220000Y-83820000D03*
D14*
X100330000Y-81280000D03*
X106680000Y-78740000D03*
G04 #@! TD*
G04 #@! TO.C,SW12*
X106680000Y-97790000D03*
X100330000Y-100330000D03*
D13*
X109220000Y-102870000D03*
X99060000Y-102870000D03*
D12*
X104140000Y-102870000D03*
G04 #@! TD*
D14*
G04 #@! TO.C,SW13*
X118110000Y-43180000D03*
X120650000Y-49530000D03*
D13*
X123190000Y-40640000D03*
X123190000Y-50800000D03*
D12*
X123190000Y-45720000D03*
G04 #@! TD*
D14*
G04 #@! TO.C,SW14*
X125730000Y-59690000D03*
X119380000Y-62230000D03*
D13*
X128270000Y-64770000D03*
X118110000Y-64770000D03*
D12*
X123190000Y-64770000D03*
G04 #@! TD*
D14*
G04 #@! TO.C,SW15*
X125730000Y-78740000D03*
X119380000Y-81280000D03*
D13*
X128270000Y-83820000D03*
X118110000Y-83820000D03*
D12*
X123190000Y-83820000D03*
G04 #@! TD*
G04 #@! TO.C,SW16*
X123190000Y-102870000D03*
D13*
X118110000Y-102870000D03*
X128270000Y-102870000D03*
D14*
X119380000Y-100330000D03*
X125730000Y-97790000D03*
G04 #@! TD*
D12*
G04 #@! TO.C,SW17*
X142240000Y-45720000D03*
D13*
X142240000Y-50800000D03*
X142240000Y-40640000D03*
D14*
X139700000Y-49530000D03*
X137160000Y-43180000D03*
G04 #@! TD*
D12*
G04 #@! TO.C,SW18*
X142240000Y-64770000D03*
D13*
X137160000Y-64770000D03*
X147320000Y-64770000D03*
D14*
X138430000Y-62230000D03*
X144780000Y-59690000D03*
G04 #@! TD*
D12*
G04 #@! TO.C,SW19*
X142240000Y-83820000D03*
D13*
X137160000Y-83820000D03*
X147320000Y-83820000D03*
D14*
X138430000Y-81280000D03*
X144780000Y-78740000D03*
G04 #@! TD*
G04 #@! TO.C,SW20*
X144780000Y-97790000D03*
X138430000Y-100330000D03*
D13*
X147320000Y-102870000D03*
X137160000Y-102870000D03*
D12*
X142240000Y-102870000D03*
G04 #@! TD*
D14*
G04 #@! TO.C,SW21*
X156210000Y-43180000D03*
X158750000Y-49530000D03*
D13*
X161290000Y-40640000D03*
X161290000Y-50800000D03*
D12*
X161290000Y-45720000D03*
G04 #@! TD*
G04 #@! TO.C,SW22*
X161290000Y-64770000D03*
D13*
X156210000Y-64770000D03*
X166370000Y-64770000D03*
D14*
X157480000Y-62230000D03*
X163830000Y-59690000D03*
G04 #@! TD*
G04 #@! TO.C,SW23*
X163830000Y-78740000D03*
X157480000Y-81280000D03*
D13*
X166370000Y-83820000D03*
X156210000Y-83820000D03*
D12*
X161290000Y-83820000D03*
G04 #@! TD*
G04 #@! TO.C,SW24*
X161290000Y-102870000D03*
D13*
X156210000Y-102870000D03*
X166370000Y-102870000D03*
D14*
X157480000Y-100330000D03*
X163830000Y-97790000D03*
G04 #@! TD*
D12*
G04 #@! TO.C,SW25*
X180340000Y-45720000D03*
D13*
X180340000Y-50800000D03*
X180340000Y-40640000D03*
D14*
X177800000Y-49530000D03*
X175260000Y-43180000D03*
G04 #@! TD*
G04 #@! TO.C,SW26*
X175260000Y-62230000D03*
X177800000Y-68580000D03*
D13*
X180340000Y-59690000D03*
X180340000Y-69850000D03*
D12*
X180340000Y-64770000D03*
G04 #@! TD*
G04 #@! TO.C,SW27*
X180340000Y-83820000D03*
D13*
X180340000Y-88900000D03*
X180340000Y-78740000D03*
D14*
X177800000Y-87630000D03*
X175260000Y-81280000D03*
G04 #@! TD*
G04 #@! TO.C,SW28*
X185420000Y-105410000D03*
X182880000Y-99060000D03*
D13*
X180340000Y-107950000D03*
X180340000Y-97790000D03*
D12*
X180340000Y-102870000D03*
G04 #@! TD*
D11*
G04 #@! TO.C,*
X151765000Y-74295000D03*
G04 #@! TD*
M02*
