G04 #@! TF.GenerationSoftware,KiCad,Pcbnew,5.0.2-bee76a0~70~ubuntu18.04.1*
G04 #@! TF.CreationDate,2018-12-19T03:46:31+09:00*
G04 #@! TF.ProjectId,modulo-ergo42,6d6f6475-6c6f-42d6-9572-676f34322e6b,rev?*
G04 #@! TF.SameCoordinates,Original*
G04 #@! TF.FileFunction,Legend,Top*
G04 #@! TF.FilePolarity,Positive*
%FSLAX46Y46*%
G04 Gerber Fmt 4.6, Leading zero omitted, Abs format (unit mm)*
G04 Created by KiCad (PCBNEW 5.0.2-bee76a0~70~ubuntu18.04.1) date 2018年12月19日 03時46分31秒*
%MOMM*%
%LPD*%
G01*
G04 APERTURE LIST*
%ADD10C,0.150000*%
%ADD11C,0.120000*%
%ADD12C,3.102000*%
%ADD13C,1.803800*%
%ADD14C,4.089800*%
%ADD15C,1.626000*%
%ADD16C,0.100000*%
%ADD17C,0.977000*%
%ADD18C,1.052000*%
G04 APERTURE END LIST*
D10*
G04 #@! TO.C,SW13*
X116190000Y-38720000D02*
X130190000Y-38720000D01*
X116190000Y-52720000D02*
X130190000Y-52720000D01*
X130190000Y-52720000D02*
X130190000Y-38720000D01*
X116190000Y-52720000D02*
X116190000Y-38720000D01*
D11*
G04 #@! TO.C,C3*
X73150000Y-46827221D02*
X73150000Y-47152779D01*
X74170000Y-46827221D02*
X74170000Y-47152779D01*
G04 #@! TO.C,C2*
X123027221Y-91950000D02*
X123352779Y-91950000D01*
X123027221Y-90930000D02*
X123352779Y-90930000D01*
G04 #@! TO.C,C1*
X123027221Y-53977000D02*
X123352779Y-53977000D01*
X123027221Y-52957000D02*
X123352779Y-52957000D01*
D10*
G04 #@! TO.C,SW28*
X187340000Y-95870000D02*
X187340000Y-109870000D01*
X173340000Y-95870000D02*
X173340000Y-109870000D01*
X173340000Y-109870000D02*
X187340000Y-109870000D01*
X173340000Y-95870000D02*
X187340000Y-95870000D01*
G04 #@! TO.C,SW27*
X173340000Y-90820000D02*
X173340000Y-76820000D01*
X187340000Y-90820000D02*
X187340000Y-76820000D01*
X187340000Y-76820000D02*
X173340000Y-76820000D01*
X187340000Y-90820000D02*
X173340000Y-90820000D01*
G04 #@! TO.C,SW26*
X173340000Y-71770000D02*
X173340000Y-57770000D01*
X187340000Y-71770000D02*
X187340000Y-57770000D01*
X187340000Y-57770000D02*
X173340000Y-57770000D01*
X187340000Y-71770000D02*
X173340000Y-71770000D01*
G04 #@! TO.C,SW25*
X173340000Y-52720000D02*
X173340000Y-38720000D01*
X187340000Y-52720000D02*
X187340000Y-38720000D01*
X187340000Y-38720000D02*
X173340000Y-38720000D01*
X187340000Y-52720000D02*
X173340000Y-52720000D01*
G04 #@! TO.C,SW24*
X154290000Y-95870000D02*
X168290000Y-95870000D01*
X154290000Y-109870000D02*
X168290000Y-109870000D01*
X168290000Y-109870000D02*
X168290000Y-95870000D01*
X154290000Y-109870000D02*
X154290000Y-95870000D01*
G04 #@! TO.C,SW23*
X154290000Y-76820000D02*
X168290000Y-76820000D01*
X154290000Y-90820000D02*
X168290000Y-90820000D01*
X168290000Y-90820000D02*
X168290000Y-76820000D01*
X154290000Y-90820000D02*
X154290000Y-76820000D01*
G04 #@! TO.C,SW22*
X154290000Y-57770000D02*
X168290000Y-57770000D01*
X154290000Y-71770000D02*
X168290000Y-71770000D01*
X168290000Y-71770000D02*
X168290000Y-57770000D01*
X154290000Y-71770000D02*
X154290000Y-57770000D01*
G04 #@! TO.C,SW21*
X154290000Y-52720000D02*
X154290000Y-38720000D01*
X168290000Y-52720000D02*
X168290000Y-38720000D01*
X168290000Y-38720000D02*
X154290000Y-38720000D01*
X168290000Y-52720000D02*
X154290000Y-52720000D01*
G04 #@! TO.C,SW20*
X135240000Y-95870000D02*
X149240000Y-95870000D01*
X135240000Y-109870000D02*
X149240000Y-109870000D01*
X149240000Y-109870000D02*
X149240000Y-95870000D01*
X135240000Y-109870000D02*
X135240000Y-95870000D01*
G04 #@! TO.C,SW19*
X135240000Y-76820000D02*
X149240000Y-76820000D01*
X135240000Y-90820000D02*
X149240000Y-90820000D01*
X149240000Y-90820000D02*
X149240000Y-76820000D01*
X135240000Y-90820000D02*
X135240000Y-76820000D01*
G04 #@! TO.C,SW18*
X135240000Y-57770000D02*
X149240000Y-57770000D01*
X135240000Y-71770000D02*
X149240000Y-71770000D01*
X149240000Y-71770000D02*
X149240000Y-57770000D01*
X135240000Y-71770000D02*
X135240000Y-57770000D01*
G04 #@! TO.C,SW17*
X135240000Y-52720000D02*
X135240000Y-38720000D01*
X149240000Y-52720000D02*
X149240000Y-38720000D01*
X149240000Y-38720000D02*
X135240000Y-38720000D01*
X149240000Y-52720000D02*
X135240000Y-52720000D01*
G04 #@! TO.C,SW16*
X116190000Y-95870000D02*
X130190000Y-95870000D01*
X116190000Y-109870000D02*
X130190000Y-109870000D01*
X130190000Y-109870000D02*
X130190000Y-95870000D01*
X116190000Y-109870000D02*
X116190000Y-95870000D01*
G04 #@! TO.C,SW15*
X116190000Y-76820000D02*
X130190000Y-76820000D01*
X116190000Y-90820000D02*
X130190000Y-90820000D01*
X130190000Y-90820000D02*
X130190000Y-76820000D01*
X116190000Y-90820000D02*
X116190000Y-76820000D01*
G04 #@! TO.C,SW14*
X116190000Y-57770000D02*
X130190000Y-57770000D01*
X116190000Y-71770000D02*
X130190000Y-71770000D01*
X130190000Y-71770000D02*
X130190000Y-57770000D01*
X116190000Y-71770000D02*
X116190000Y-57770000D01*
G04 #@! TO.C,SW12*
X97140000Y-95870000D02*
X111140000Y-95870000D01*
X97140000Y-109870000D02*
X111140000Y-109870000D01*
X111140000Y-109870000D02*
X111140000Y-95870000D01*
X97140000Y-109870000D02*
X97140000Y-95870000D01*
G04 #@! TO.C,SW11*
X97140000Y-76820000D02*
X111140000Y-76820000D01*
X97140000Y-90820000D02*
X111140000Y-90820000D01*
X111140000Y-90820000D02*
X111140000Y-76820000D01*
X97140000Y-90820000D02*
X97140000Y-76820000D01*
G04 #@! TO.C,SW10*
X97140000Y-57770000D02*
X111140000Y-57770000D01*
X97140000Y-71770000D02*
X111140000Y-71770000D01*
X111140000Y-71770000D02*
X111140000Y-57770000D01*
X97140000Y-71770000D02*
X97140000Y-57770000D01*
G04 #@! TO.C,SW9*
X97140000Y-52720000D02*
X97140000Y-38720000D01*
X111140000Y-52720000D02*
X111140000Y-38720000D01*
X111140000Y-38720000D02*
X97140000Y-38720000D01*
X111140000Y-52720000D02*
X97140000Y-52720000D01*
G04 #@! TO.C,SW8*
X78090000Y-95870000D02*
X92090000Y-95870000D01*
X78090000Y-109870000D02*
X92090000Y-109870000D01*
X92090000Y-109870000D02*
X92090000Y-95870000D01*
X78090000Y-109870000D02*
X78090000Y-95870000D01*
G04 #@! TO.C,SW4*
X73040000Y-95870000D02*
X73040000Y-109870000D01*
X59040000Y-95870000D02*
X59040000Y-109870000D01*
X59040000Y-109870000D02*
X73040000Y-109870000D01*
X59040000Y-95870000D02*
X73040000Y-95870000D01*
G04 #@! TO.C,SW3*
X73040000Y-76820000D02*
X73040000Y-90820000D01*
X59040000Y-76820000D02*
X59040000Y-90820000D01*
X59040000Y-90820000D02*
X73040000Y-90820000D01*
X59040000Y-76820000D02*
X73040000Y-76820000D01*
G04 #@! TO.C,SW2*
X73040000Y-57770000D02*
X73040000Y-71770000D01*
X59040000Y-57770000D02*
X59040000Y-71770000D01*
X59040000Y-71770000D02*
X73040000Y-71770000D01*
X59040000Y-57770000D02*
X73040000Y-57770000D01*
D11*
G04 #@! TO.C,R2*
X109692221Y-54485000D02*
X110017779Y-54485000D01*
X109692221Y-53465000D02*
X110017779Y-53465000D01*
G04 #@! TO.C,R1*
X113502221Y-50040000D02*
X113827779Y-50040000D01*
X113502221Y-49020000D02*
X113827779Y-49020000D01*
D10*
G04 #@! TO.C,SW1*
X59040000Y-52720000D02*
X59040000Y-38720000D01*
X73040000Y-52720000D02*
X73040000Y-38720000D01*
X73040000Y-38720000D02*
X59040000Y-38720000D01*
X73040000Y-52720000D02*
X59040000Y-52720000D01*
G04 #@! TO.C,SW5*
X78090000Y-52720000D02*
X78090000Y-38720000D01*
X92090000Y-52720000D02*
X92090000Y-38720000D01*
X92090000Y-38720000D02*
X78090000Y-38720000D01*
X92090000Y-52720000D02*
X78090000Y-52720000D01*
G04 #@! TO.C,SW7*
X78090000Y-76820000D02*
X92090000Y-76820000D01*
X78090000Y-90820000D02*
X92090000Y-90820000D01*
X92090000Y-90820000D02*
X92090000Y-76820000D01*
X78090000Y-90820000D02*
X78090000Y-76820000D01*
G04 #@! TO.C,SW6*
X78090000Y-57770000D02*
X92090000Y-57770000D01*
X78090000Y-71770000D02*
X92090000Y-71770000D01*
X92090000Y-71770000D02*
X92090000Y-57770000D01*
X78090000Y-71770000D02*
X78090000Y-57770000D01*
D11*
G04 #@! TO.C,R3*
X109692221Y-57025000D02*
X110017779Y-57025000D01*
X109692221Y-56005000D02*
X110017779Y-56005000D01*
G04 #@! TO.C,C4*
X168400000Y-46827221D02*
X168400000Y-47152779D01*
X169420000Y-46827221D02*
X169420000Y-47152779D01*
G04 #@! TO.C,SW13*
D10*
X121380476Y-49934761D02*
X121523333Y-49982380D01*
X121761428Y-49982380D01*
X121856666Y-49934761D01*
X121904285Y-49887142D01*
X121951904Y-49791904D01*
X121951904Y-49696666D01*
X121904285Y-49601428D01*
X121856666Y-49553809D01*
X121761428Y-49506190D01*
X121570952Y-49458571D01*
X121475714Y-49410952D01*
X121428095Y-49363333D01*
X121380476Y-49268095D01*
X121380476Y-49172857D01*
X121428095Y-49077619D01*
X121475714Y-49030000D01*
X121570952Y-48982380D01*
X121809047Y-48982380D01*
X121951904Y-49030000D01*
X122285238Y-48982380D02*
X122523333Y-49982380D01*
X122713809Y-49268095D01*
X122904285Y-49982380D01*
X123142380Y-48982380D01*
X124047142Y-49982380D02*
X123475714Y-49982380D01*
X123761428Y-49982380D02*
X123761428Y-48982380D01*
X123666190Y-49125238D01*
X123570952Y-49220476D01*
X123475714Y-49268095D01*
X124380476Y-48982380D02*
X124999523Y-48982380D01*
X124666190Y-49363333D01*
X124809047Y-49363333D01*
X124904285Y-49410952D01*
X124951904Y-49458571D01*
X124999523Y-49553809D01*
X124999523Y-49791904D01*
X124951904Y-49887142D01*
X124904285Y-49934761D01*
X124809047Y-49982380D01*
X124523333Y-49982380D01*
X124428095Y-49934761D01*
X124380476Y-49887142D01*
G04 #@! TO.C,*
G04 #@! TO.C,C3*
X75447142Y-47156666D02*
X75494761Y-47204285D01*
X75542380Y-47347142D01*
X75542380Y-47442380D01*
X75494761Y-47585238D01*
X75399523Y-47680476D01*
X75304285Y-47728095D01*
X75113809Y-47775714D01*
X74970952Y-47775714D01*
X74780476Y-47728095D01*
X74685238Y-47680476D01*
X74590000Y-47585238D01*
X74542380Y-47442380D01*
X74542380Y-47347142D01*
X74590000Y-47204285D01*
X74637619Y-47156666D01*
X74542380Y-46823333D02*
X74542380Y-46204285D01*
X74923333Y-46537619D01*
X74923333Y-46394761D01*
X74970952Y-46299523D01*
X75018571Y-46251904D01*
X75113809Y-46204285D01*
X75351904Y-46204285D01*
X75447142Y-46251904D01*
X75494761Y-46299523D01*
X75542380Y-46394761D01*
X75542380Y-46680476D01*
X75494761Y-46775714D01*
X75447142Y-46823333D01*
G04 #@! TO.C,C2*
X123023333Y-90367142D02*
X122975714Y-90414761D01*
X122832857Y-90462380D01*
X122737619Y-90462380D01*
X122594761Y-90414761D01*
X122499523Y-90319523D01*
X122451904Y-90224285D01*
X122404285Y-90033809D01*
X122404285Y-89890952D01*
X122451904Y-89700476D01*
X122499523Y-89605238D01*
X122594761Y-89510000D01*
X122737619Y-89462380D01*
X122832857Y-89462380D01*
X122975714Y-89510000D01*
X123023333Y-89557619D01*
X123404285Y-89557619D02*
X123451904Y-89510000D01*
X123547142Y-89462380D01*
X123785238Y-89462380D01*
X123880476Y-89510000D01*
X123928095Y-89557619D01*
X123975714Y-89652857D01*
X123975714Y-89748095D01*
X123928095Y-89890952D01*
X123356666Y-90462380D01*
X123975714Y-90462380D01*
G04 #@! TO.C,C1*
X123023333Y-52394142D02*
X122975714Y-52441761D01*
X122832857Y-52489380D01*
X122737619Y-52489380D01*
X122594761Y-52441761D01*
X122499523Y-52346523D01*
X122451904Y-52251285D01*
X122404285Y-52060809D01*
X122404285Y-51917952D01*
X122451904Y-51727476D01*
X122499523Y-51632238D01*
X122594761Y-51537000D01*
X122737619Y-51489380D01*
X122832857Y-51489380D01*
X122975714Y-51537000D01*
X123023333Y-51584619D01*
X123975714Y-52489380D02*
X123404285Y-52489380D01*
X123690000Y-52489380D02*
X123690000Y-51489380D01*
X123594761Y-51632238D01*
X123499523Y-51727476D01*
X123404285Y-51775095D01*
G04 #@! TO.C,SW28*
X176934761Y-104679523D02*
X176982380Y-104536666D01*
X176982380Y-104298571D01*
X176934761Y-104203333D01*
X176887142Y-104155714D01*
X176791904Y-104108095D01*
X176696666Y-104108095D01*
X176601428Y-104155714D01*
X176553809Y-104203333D01*
X176506190Y-104298571D01*
X176458571Y-104489047D01*
X176410952Y-104584285D01*
X176363333Y-104631904D01*
X176268095Y-104679523D01*
X176172857Y-104679523D01*
X176077619Y-104631904D01*
X176030000Y-104584285D01*
X175982380Y-104489047D01*
X175982380Y-104250952D01*
X176030000Y-104108095D01*
X175982380Y-103774761D02*
X176982380Y-103536666D01*
X176268095Y-103346190D01*
X176982380Y-103155714D01*
X175982380Y-102917619D01*
X176077619Y-102584285D02*
X176030000Y-102536666D01*
X175982380Y-102441428D01*
X175982380Y-102203333D01*
X176030000Y-102108095D01*
X176077619Y-102060476D01*
X176172857Y-102012857D01*
X176268095Y-102012857D01*
X176410952Y-102060476D01*
X176982380Y-102631904D01*
X176982380Y-102012857D01*
X176410952Y-101441428D02*
X176363333Y-101536666D01*
X176315714Y-101584285D01*
X176220476Y-101631904D01*
X176172857Y-101631904D01*
X176077619Y-101584285D01*
X176030000Y-101536666D01*
X175982380Y-101441428D01*
X175982380Y-101250952D01*
X176030000Y-101155714D01*
X176077619Y-101108095D01*
X176172857Y-101060476D01*
X176220476Y-101060476D01*
X176315714Y-101108095D01*
X176363333Y-101155714D01*
X176410952Y-101250952D01*
X176410952Y-101441428D01*
X176458571Y-101536666D01*
X176506190Y-101584285D01*
X176601428Y-101631904D01*
X176791904Y-101631904D01*
X176887142Y-101584285D01*
X176934761Y-101536666D01*
X176982380Y-101441428D01*
X176982380Y-101250952D01*
X176934761Y-101155714D01*
X176887142Y-101108095D01*
X176791904Y-101060476D01*
X176601428Y-101060476D01*
X176506190Y-101108095D01*
X176458571Y-101155714D01*
X176410952Y-101250952D01*
G04 #@! TO.C,SW27*
X184554761Y-85629523D02*
X184602380Y-85486666D01*
X184602380Y-85248571D01*
X184554761Y-85153333D01*
X184507142Y-85105714D01*
X184411904Y-85058095D01*
X184316666Y-85058095D01*
X184221428Y-85105714D01*
X184173809Y-85153333D01*
X184126190Y-85248571D01*
X184078571Y-85439047D01*
X184030952Y-85534285D01*
X183983333Y-85581904D01*
X183888095Y-85629523D01*
X183792857Y-85629523D01*
X183697619Y-85581904D01*
X183650000Y-85534285D01*
X183602380Y-85439047D01*
X183602380Y-85200952D01*
X183650000Y-85058095D01*
X183602380Y-84724761D02*
X184602380Y-84486666D01*
X183888095Y-84296190D01*
X184602380Y-84105714D01*
X183602380Y-83867619D01*
X183697619Y-83534285D02*
X183650000Y-83486666D01*
X183602380Y-83391428D01*
X183602380Y-83153333D01*
X183650000Y-83058095D01*
X183697619Y-83010476D01*
X183792857Y-82962857D01*
X183888095Y-82962857D01*
X184030952Y-83010476D01*
X184602380Y-83581904D01*
X184602380Y-82962857D01*
X183602380Y-82629523D02*
X183602380Y-81962857D01*
X184602380Y-82391428D01*
G04 #@! TO.C,SW26*
X184554761Y-66579523D02*
X184602380Y-66436666D01*
X184602380Y-66198571D01*
X184554761Y-66103333D01*
X184507142Y-66055714D01*
X184411904Y-66008095D01*
X184316666Y-66008095D01*
X184221428Y-66055714D01*
X184173809Y-66103333D01*
X184126190Y-66198571D01*
X184078571Y-66389047D01*
X184030952Y-66484285D01*
X183983333Y-66531904D01*
X183888095Y-66579523D01*
X183792857Y-66579523D01*
X183697619Y-66531904D01*
X183650000Y-66484285D01*
X183602380Y-66389047D01*
X183602380Y-66150952D01*
X183650000Y-66008095D01*
X183602380Y-65674761D02*
X184602380Y-65436666D01*
X183888095Y-65246190D01*
X184602380Y-65055714D01*
X183602380Y-64817619D01*
X183697619Y-64484285D02*
X183650000Y-64436666D01*
X183602380Y-64341428D01*
X183602380Y-64103333D01*
X183650000Y-64008095D01*
X183697619Y-63960476D01*
X183792857Y-63912857D01*
X183888095Y-63912857D01*
X184030952Y-63960476D01*
X184602380Y-64531904D01*
X184602380Y-63912857D01*
X183602380Y-63055714D02*
X183602380Y-63246190D01*
X183650000Y-63341428D01*
X183697619Y-63389047D01*
X183840476Y-63484285D01*
X184030952Y-63531904D01*
X184411904Y-63531904D01*
X184507142Y-63484285D01*
X184554761Y-63436666D01*
X184602380Y-63341428D01*
X184602380Y-63150952D01*
X184554761Y-63055714D01*
X184507142Y-63008095D01*
X184411904Y-62960476D01*
X184173809Y-62960476D01*
X184078571Y-63008095D01*
X184030952Y-63055714D01*
X183983333Y-63150952D01*
X183983333Y-63341428D01*
X184030952Y-63436666D01*
X184078571Y-63484285D01*
X184173809Y-63531904D01*
G04 #@! TO.C,SW25*
X184554761Y-47529523D02*
X184602380Y-47386666D01*
X184602380Y-47148571D01*
X184554761Y-47053333D01*
X184507142Y-47005714D01*
X184411904Y-46958095D01*
X184316666Y-46958095D01*
X184221428Y-47005714D01*
X184173809Y-47053333D01*
X184126190Y-47148571D01*
X184078571Y-47339047D01*
X184030952Y-47434285D01*
X183983333Y-47481904D01*
X183888095Y-47529523D01*
X183792857Y-47529523D01*
X183697619Y-47481904D01*
X183650000Y-47434285D01*
X183602380Y-47339047D01*
X183602380Y-47100952D01*
X183650000Y-46958095D01*
X183602380Y-46624761D02*
X184602380Y-46386666D01*
X183888095Y-46196190D01*
X184602380Y-46005714D01*
X183602380Y-45767619D01*
X183697619Y-45434285D02*
X183650000Y-45386666D01*
X183602380Y-45291428D01*
X183602380Y-45053333D01*
X183650000Y-44958095D01*
X183697619Y-44910476D01*
X183792857Y-44862857D01*
X183888095Y-44862857D01*
X184030952Y-44910476D01*
X184602380Y-45481904D01*
X184602380Y-44862857D01*
X183602380Y-43958095D02*
X183602380Y-44434285D01*
X184078571Y-44481904D01*
X184030952Y-44434285D01*
X183983333Y-44339047D01*
X183983333Y-44100952D01*
X184030952Y-44005714D01*
X184078571Y-43958095D01*
X184173809Y-43910476D01*
X184411904Y-43910476D01*
X184507142Y-43958095D01*
X184554761Y-44005714D01*
X184602380Y-44100952D01*
X184602380Y-44339047D01*
X184554761Y-44434285D01*
X184507142Y-44481904D01*
G04 #@! TO.C,SW24*
X159480476Y-107084761D02*
X159623333Y-107132380D01*
X159861428Y-107132380D01*
X159956666Y-107084761D01*
X160004285Y-107037142D01*
X160051904Y-106941904D01*
X160051904Y-106846666D01*
X160004285Y-106751428D01*
X159956666Y-106703809D01*
X159861428Y-106656190D01*
X159670952Y-106608571D01*
X159575714Y-106560952D01*
X159528095Y-106513333D01*
X159480476Y-106418095D01*
X159480476Y-106322857D01*
X159528095Y-106227619D01*
X159575714Y-106180000D01*
X159670952Y-106132380D01*
X159909047Y-106132380D01*
X160051904Y-106180000D01*
X160385238Y-106132380D02*
X160623333Y-107132380D01*
X160813809Y-106418095D01*
X161004285Y-107132380D01*
X161242380Y-106132380D01*
X161575714Y-106227619D02*
X161623333Y-106180000D01*
X161718571Y-106132380D01*
X161956666Y-106132380D01*
X162051904Y-106180000D01*
X162099523Y-106227619D01*
X162147142Y-106322857D01*
X162147142Y-106418095D01*
X162099523Y-106560952D01*
X161528095Y-107132380D01*
X162147142Y-107132380D01*
X163004285Y-106465714D02*
X163004285Y-107132380D01*
X162766190Y-106084761D02*
X162528095Y-106799047D01*
X163147142Y-106799047D01*
G04 #@! TO.C,SW23*
X159480476Y-88034761D02*
X159623333Y-88082380D01*
X159861428Y-88082380D01*
X159956666Y-88034761D01*
X160004285Y-87987142D01*
X160051904Y-87891904D01*
X160051904Y-87796666D01*
X160004285Y-87701428D01*
X159956666Y-87653809D01*
X159861428Y-87606190D01*
X159670952Y-87558571D01*
X159575714Y-87510952D01*
X159528095Y-87463333D01*
X159480476Y-87368095D01*
X159480476Y-87272857D01*
X159528095Y-87177619D01*
X159575714Y-87130000D01*
X159670952Y-87082380D01*
X159909047Y-87082380D01*
X160051904Y-87130000D01*
X160385238Y-87082380D02*
X160623333Y-88082380D01*
X160813809Y-87368095D01*
X161004285Y-88082380D01*
X161242380Y-87082380D01*
X161575714Y-87177619D02*
X161623333Y-87130000D01*
X161718571Y-87082380D01*
X161956666Y-87082380D01*
X162051904Y-87130000D01*
X162099523Y-87177619D01*
X162147142Y-87272857D01*
X162147142Y-87368095D01*
X162099523Y-87510952D01*
X161528095Y-88082380D01*
X162147142Y-88082380D01*
X162480476Y-87082380D02*
X163099523Y-87082380D01*
X162766190Y-87463333D01*
X162909047Y-87463333D01*
X163004285Y-87510952D01*
X163051904Y-87558571D01*
X163099523Y-87653809D01*
X163099523Y-87891904D01*
X163051904Y-87987142D01*
X163004285Y-88034761D01*
X162909047Y-88082380D01*
X162623333Y-88082380D01*
X162528095Y-88034761D01*
X162480476Y-87987142D01*
G04 #@! TO.C,SW22*
X159480476Y-68984761D02*
X159623333Y-69032380D01*
X159861428Y-69032380D01*
X159956666Y-68984761D01*
X160004285Y-68937142D01*
X160051904Y-68841904D01*
X160051904Y-68746666D01*
X160004285Y-68651428D01*
X159956666Y-68603809D01*
X159861428Y-68556190D01*
X159670952Y-68508571D01*
X159575714Y-68460952D01*
X159528095Y-68413333D01*
X159480476Y-68318095D01*
X159480476Y-68222857D01*
X159528095Y-68127619D01*
X159575714Y-68080000D01*
X159670952Y-68032380D01*
X159909047Y-68032380D01*
X160051904Y-68080000D01*
X160385238Y-68032380D02*
X160623333Y-69032380D01*
X160813809Y-68318095D01*
X161004285Y-69032380D01*
X161242380Y-68032380D01*
X161575714Y-68127619D02*
X161623333Y-68080000D01*
X161718571Y-68032380D01*
X161956666Y-68032380D01*
X162051904Y-68080000D01*
X162099523Y-68127619D01*
X162147142Y-68222857D01*
X162147142Y-68318095D01*
X162099523Y-68460952D01*
X161528095Y-69032380D01*
X162147142Y-69032380D01*
X162528095Y-68127619D02*
X162575714Y-68080000D01*
X162670952Y-68032380D01*
X162909047Y-68032380D01*
X163004285Y-68080000D01*
X163051904Y-68127619D01*
X163099523Y-68222857D01*
X163099523Y-68318095D01*
X163051904Y-68460952D01*
X162480476Y-69032380D01*
X163099523Y-69032380D01*
G04 #@! TO.C,SW21*
X165504761Y-47529523D02*
X165552380Y-47386666D01*
X165552380Y-47148571D01*
X165504761Y-47053333D01*
X165457142Y-47005714D01*
X165361904Y-46958095D01*
X165266666Y-46958095D01*
X165171428Y-47005714D01*
X165123809Y-47053333D01*
X165076190Y-47148571D01*
X165028571Y-47339047D01*
X164980952Y-47434285D01*
X164933333Y-47481904D01*
X164838095Y-47529523D01*
X164742857Y-47529523D01*
X164647619Y-47481904D01*
X164600000Y-47434285D01*
X164552380Y-47339047D01*
X164552380Y-47100952D01*
X164600000Y-46958095D01*
X164552380Y-46624761D02*
X165552380Y-46386666D01*
X164838095Y-46196190D01*
X165552380Y-46005714D01*
X164552380Y-45767619D01*
X164647619Y-45434285D02*
X164600000Y-45386666D01*
X164552380Y-45291428D01*
X164552380Y-45053333D01*
X164600000Y-44958095D01*
X164647619Y-44910476D01*
X164742857Y-44862857D01*
X164838095Y-44862857D01*
X164980952Y-44910476D01*
X165552380Y-45481904D01*
X165552380Y-44862857D01*
X165552380Y-43910476D02*
X165552380Y-44481904D01*
X165552380Y-44196190D02*
X164552380Y-44196190D01*
X164695238Y-44291428D01*
X164790476Y-44386666D01*
X164838095Y-44481904D01*
G04 #@! TO.C,SW20*
X140430476Y-107084761D02*
X140573333Y-107132380D01*
X140811428Y-107132380D01*
X140906666Y-107084761D01*
X140954285Y-107037142D01*
X141001904Y-106941904D01*
X141001904Y-106846666D01*
X140954285Y-106751428D01*
X140906666Y-106703809D01*
X140811428Y-106656190D01*
X140620952Y-106608571D01*
X140525714Y-106560952D01*
X140478095Y-106513333D01*
X140430476Y-106418095D01*
X140430476Y-106322857D01*
X140478095Y-106227619D01*
X140525714Y-106180000D01*
X140620952Y-106132380D01*
X140859047Y-106132380D01*
X141001904Y-106180000D01*
X141335238Y-106132380D02*
X141573333Y-107132380D01*
X141763809Y-106418095D01*
X141954285Y-107132380D01*
X142192380Y-106132380D01*
X142525714Y-106227619D02*
X142573333Y-106180000D01*
X142668571Y-106132380D01*
X142906666Y-106132380D01*
X143001904Y-106180000D01*
X143049523Y-106227619D01*
X143097142Y-106322857D01*
X143097142Y-106418095D01*
X143049523Y-106560952D01*
X142478095Y-107132380D01*
X143097142Y-107132380D01*
X143716190Y-106132380D02*
X143811428Y-106132380D01*
X143906666Y-106180000D01*
X143954285Y-106227619D01*
X144001904Y-106322857D01*
X144049523Y-106513333D01*
X144049523Y-106751428D01*
X144001904Y-106941904D01*
X143954285Y-107037142D01*
X143906666Y-107084761D01*
X143811428Y-107132380D01*
X143716190Y-107132380D01*
X143620952Y-107084761D01*
X143573333Y-107037142D01*
X143525714Y-106941904D01*
X143478095Y-106751428D01*
X143478095Y-106513333D01*
X143525714Y-106322857D01*
X143573333Y-106227619D01*
X143620952Y-106180000D01*
X143716190Y-106132380D01*
G04 #@! TO.C,SW19*
X140430476Y-88034761D02*
X140573333Y-88082380D01*
X140811428Y-88082380D01*
X140906666Y-88034761D01*
X140954285Y-87987142D01*
X141001904Y-87891904D01*
X141001904Y-87796666D01*
X140954285Y-87701428D01*
X140906666Y-87653809D01*
X140811428Y-87606190D01*
X140620952Y-87558571D01*
X140525714Y-87510952D01*
X140478095Y-87463333D01*
X140430476Y-87368095D01*
X140430476Y-87272857D01*
X140478095Y-87177619D01*
X140525714Y-87130000D01*
X140620952Y-87082380D01*
X140859047Y-87082380D01*
X141001904Y-87130000D01*
X141335238Y-87082380D02*
X141573333Y-88082380D01*
X141763809Y-87368095D01*
X141954285Y-88082380D01*
X142192380Y-87082380D01*
X143097142Y-88082380D02*
X142525714Y-88082380D01*
X142811428Y-88082380D02*
X142811428Y-87082380D01*
X142716190Y-87225238D01*
X142620952Y-87320476D01*
X142525714Y-87368095D01*
X143573333Y-88082380D02*
X143763809Y-88082380D01*
X143859047Y-88034761D01*
X143906666Y-87987142D01*
X144001904Y-87844285D01*
X144049523Y-87653809D01*
X144049523Y-87272857D01*
X144001904Y-87177619D01*
X143954285Y-87130000D01*
X143859047Y-87082380D01*
X143668571Y-87082380D01*
X143573333Y-87130000D01*
X143525714Y-87177619D01*
X143478095Y-87272857D01*
X143478095Y-87510952D01*
X143525714Y-87606190D01*
X143573333Y-87653809D01*
X143668571Y-87701428D01*
X143859047Y-87701428D01*
X143954285Y-87653809D01*
X144001904Y-87606190D01*
X144049523Y-87510952D01*
G04 #@! TO.C,SW18*
X140430476Y-68984761D02*
X140573333Y-69032380D01*
X140811428Y-69032380D01*
X140906666Y-68984761D01*
X140954285Y-68937142D01*
X141001904Y-68841904D01*
X141001904Y-68746666D01*
X140954285Y-68651428D01*
X140906666Y-68603809D01*
X140811428Y-68556190D01*
X140620952Y-68508571D01*
X140525714Y-68460952D01*
X140478095Y-68413333D01*
X140430476Y-68318095D01*
X140430476Y-68222857D01*
X140478095Y-68127619D01*
X140525714Y-68080000D01*
X140620952Y-68032380D01*
X140859047Y-68032380D01*
X141001904Y-68080000D01*
X141335238Y-68032380D02*
X141573333Y-69032380D01*
X141763809Y-68318095D01*
X141954285Y-69032380D01*
X142192380Y-68032380D01*
X143097142Y-69032380D02*
X142525714Y-69032380D01*
X142811428Y-69032380D02*
X142811428Y-68032380D01*
X142716190Y-68175238D01*
X142620952Y-68270476D01*
X142525714Y-68318095D01*
X143668571Y-68460952D02*
X143573333Y-68413333D01*
X143525714Y-68365714D01*
X143478095Y-68270476D01*
X143478095Y-68222857D01*
X143525714Y-68127619D01*
X143573333Y-68080000D01*
X143668571Y-68032380D01*
X143859047Y-68032380D01*
X143954285Y-68080000D01*
X144001904Y-68127619D01*
X144049523Y-68222857D01*
X144049523Y-68270476D01*
X144001904Y-68365714D01*
X143954285Y-68413333D01*
X143859047Y-68460952D01*
X143668571Y-68460952D01*
X143573333Y-68508571D01*
X143525714Y-68556190D01*
X143478095Y-68651428D01*
X143478095Y-68841904D01*
X143525714Y-68937142D01*
X143573333Y-68984761D01*
X143668571Y-69032380D01*
X143859047Y-69032380D01*
X143954285Y-68984761D01*
X144001904Y-68937142D01*
X144049523Y-68841904D01*
X144049523Y-68651428D01*
X144001904Y-68556190D01*
X143954285Y-68508571D01*
X143859047Y-68460952D01*
G04 #@! TO.C,SW17*
X146454761Y-47529523D02*
X146502380Y-47386666D01*
X146502380Y-47148571D01*
X146454761Y-47053333D01*
X146407142Y-47005714D01*
X146311904Y-46958095D01*
X146216666Y-46958095D01*
X146121428Y-47005714D01*
X146073809Y-47053333D01*
X146026190Y-47148571D01*
X145978571Y-47339047D01*
X145930952Y-47434285D01*
X145883333Y-47481904D01*
X145788095Y-47529523D01*
X145692857Y-47529523D01*
X145597619Y-47481904D01*
X145550000Y-47434285D01*
X145502380Y-47339047D01*
X145502380Y-47100952D01*
X145550000Y-46958095D01*
X145502380Y-46624761D02*
X146502380Y-46386666D01*
X145788095Y-46196190D01*
X146502380Y-46005714D01*
X145502380Y-45767619D01*
X146502380Y-44862857D02*
X146502380Y-45434285D01*
X146502380Y-45148571D02*
X145502380Y-45148571D01*
X145645238Y-45243809D01*
X145740476Y-45339047D01*
X145788095Y-45434285D01*
X145502380Y-44529523D02*
X145502380Y-43862857D01*
X146502380Y-44291428D01*
G04 #@! TO.C,SW16*
X121380476Y-107084761D02*
X121523333Y-107132380D01*
X121761428Y-107132380D01*
X121856666Y-107084761D01*
X121904285Y-107037142D01*
X121951904Y-106941904D01*
X121951904Y-106846666D01*
X121904285Y-106751428D01*
X121856666Y-106703809D01*
X121761428Y-106656190D01*
X121570952Y-106608571D01*
X121475714Y-106560952D01*
X121428095Y-106513333D01*
X121380476Y-106418095D01*
X121380476Y-106322857D01*
X121428095Y-106227619D01*
X121475714Y-106180000D01*
X121570952Y-106132380D01*
X121809047Y-106132380D01*
X121951904Y-106180000D01*
X122285238Y-106132380D02*
X122523333Y-107132380D01*
X122713809Y-106418095D01*
X122904285Y-107132380D01*
X123142380Y-106132380D01*
X124047142Y-107132380D02*
X123475714Y-107132380D01*
X123761428Y-107132380D02*
X123761428Y-106132380D01*
X123666190Y-106275238D01*
X123570952Y-106370476D01*
X123475714Y-106418095D01*
X124904285Y-106132380D02*
X124713809Y-106132380D01*
X124618571Y-106180000D01*
X124570952Y-106227619D01*
X124475714Y-106370476D01*
X124428095Y-106560952D01*
X124428095Y-106941904D01*
X124475714Y-107037142D01*
X124523333Y-107084761D01*
X124618571Y-107132380D01*
X124809047Y-107132380D01*
X124904285Y-107084761D01*
X124951904Y-107037142D01*
X124999523Y-106941904D01*
X124999523Y-106703809D01*
X124951904Y-106608571D01*
X124904285Y-106560952D01*
X124809047Y-106513333D01*
X124618571Y-106513333D01*
X124523333Y-106560952D01*
X124475714Y-106608571D01*
X124428095Y-106703809D01*
G04 #@! TO.C,SW15*
X121380476Y-88034761D02*
X121523333Y-88082380D01*
X121761428Y-88082380D01*
X121856666Y-88034761D01*
X121904285Y-87987142D01*
X121951904Y-87891904D01*
X121951904Y-87796666D01*
X121904285Y-87701428D01*
X121856666Y-87653809D01*
X121761428Y-87606190D01*
X121570952Y-87558571D01*
X121475714Y-87510952D01*
X121428095Y-87463333D01*
X121380476Y-87368095D01*
X121380476Y-87272857D01*
X121428095Y-87177619D01*
X121475714Y-87130000D01*
X121570952Y-87082380D01*
X121809047Y-87082380D01*
X121951904Y-87130000D01*
X122285238Y-87082380D02*
X122523333Y-88082380D01*
X122713809Y-87368095D01*
X122904285Y-88082380D01*
X123142380Y-87082380D01*
X124047142Y-88082380D02*
X123475714Y-88082380D01*
X123761428Y-88082380D02*
X123761428Y-87082380D01*
X123666190Y-87225238D01*
X123570952Y-87320476D01*
X123475714Y-87368095D01*
X124951904Y-87082380D02*
X124475714Y-87082380D01*
X124428095Y-87558571D01*
X124475714Y-87510952D01*
X124570952Y-87463333D01*
X124809047Y-87463333D01*
X124904285Y-87510952D01*
X124951904Y-87558571D01*
X124999523Y-87653809D01*
X124999523Y-87891904D01*
X124951904Y-87987142D01*
X124904285Y-88034761D01*
X124809047Y-88082380D01*
X124570952Y-88082380D01*
X124475714Y-88034761D01*
X124428095Y-87987142D01*
G04 #@! TO.C,SW14*
X121380476Y-68984761D02*
X121523333Y-69032380D01*
X121761428Y-69032380D01*
X121856666Y-68984761D01*
X121904285Y-68937142D01*
X121951904Y-68841904D01*
X121951904Y-68746666D01*
X121904285Y-68651428D01*
X121856666Y-68603809D01*
X121761428Y-68556190D01*
X121570952Y-68508571D01*
X121475714Y-68460952D01*
X121428095Y-68413333D01*
X121380476Y-68318095D01*
X121380476Y-68222857D01*
X121428095Y-68127619D01*
X121475714Y-68080000D01*
X121570952Y-68032380D01*
X121809047Y-68032380D01*
X121951904Y-68080000D01*
X122285238Y-68032380D02*
X122523333Y-69032380D01*
X122713809Y-68318095D01*
X122904285Y-69032380D01*
X123142380Y-68032380D01*
X124047142Y-69032380D02*
X123475714Y-69032380D01*
X123761428Y-69032380D02*
X123761428Y-68032380D01*
X123666190Y-68175238D01*
X123570952Y-68270476D01*
X123475714Y-68318095D01*
X124904285Y-68365714D02*
X124904285Y-69032380D01*
X124666190Y-67984761D02*
X124428095Y-68699047D01*
X125047142Y-68699047D01*
G04 #@! TO.C,SW12*
X102330476Y-107084761D02*
X102473333Y-107132380D01*
X102711428Y-107132380D01*
X102806666Y-107084761D01*
X102854285Y-107037142D01*
X102901904Y-106941904D01*
X102901904Y-106846666D01*
X102854285Y-106751428D01*
X102806666Y-106703809D01*
X102711428Y-106656190D01*
X102520952Y-106608571D01*
X102425714Y-106560952D01*
X102378095Y-106513333D01*
X102330476Y-106418095D01*
X102330476Y-106322857D01*
X102378095Y-106227619D01*
X102425714Y-106180000D01*
X102520952Y-106132380D01*
X102759047Y-106132380D01*
X102901904Y-106180000D01*
X103235238Y-106132380D02*
X103473333Y-107132380D01*
X103663809Y-106418095D01*
X103854285Y-107132380D01*
X104092380Y-106132380D01*
X104997142Y-107132380D02*
X104425714Y-107132380D01*
X104711428Y-107132380D02*
X104711428Y-106132380D01*
X104616190Y-106275238D01*
X104520952Y-106370476D01*
X104425714Y-106418095D01*
X105378095Y-106227619D02*
X105425714Y-106180000D01*
X105520952Y-106132380D01*
X105759047Y-106132380D01*
X105854285Y-106180000D01*
X105901904Y-106227619D01*
X105949523Y-106322857D01*
X105949523Y-106418095D01*
X105901904Y-106560952D01*
X105330476Y-107132380D01*
X105949523Y-107132380D01*
G04 #@! TO.C,SW11*
X102330476Y-88034761D02*
X102473333Y-88082380D01*
X102711428Y-88082380D01*
X102806666Y-88034761D01*
X102854285Y-87987142D01*
X102901904Y-87891904D01*
X102901904Y-87796666D01*
X102854285Y-87701428D01*
X102806666Y-87653809D01*
X102711428Y-87606190D01*
X102520952Y-87558571D01*
X102425714Y-87510952D01*
X102378095Y-87463333D01*
X102330476Y-87368095D01*
X102330476Y-87272857D01*
X102378095Y-87177619D01*
X102425714Y-87130000D01*
X102520952Y-87082380D01*
X102759047Y-87082380D01*
X102901904Y-87130000D01*
X103235238Y-87082380D02*
X103473333Y-88082380D01*
X103663809Y-87368095D01*
X103854285Y-88082380D01*
X104092380Y-87082380D01*
X104997142Y-88082380D02*
X104425714Y-88082380D01*
X104711428Y-88082380D02*
X104711428Y-87082380D01*
X104616190Y-87225238D01*
X104520952Y-87320476D01*
X104425714Y-87368095D01*
X105949523Y-88082380D02*
X105378095Y-88082380D01*
X105663809Y-88082380D02*
X105663809Y-87082380D01*
X105568571Y-87225238D01*
X105473333Y-87320476D01*
X105378095Y-87368095D01*
G04 #@! TO.C,SW10*
X102330476Y-68984761D02*
X102473333Y-69032380D01*
X102711428Y-69032380D01*
X102806666Y-68984761D01*
X102854285Y-68937142D01*
X102901904Y-68841904D01*
X102901904Y-68746666D01*
X102854285Y-68651428D01*
X102806666Y-68603809D01*
X102711428Y-68556190D01*
X102520952Y-68508571D01*
X102425714Y-68460952D01*
X102378095Y-68413333D01*
X102330476Y-68318095D01*
X102330476Y-68222857D01*
X102378095Y-68127619D01*
X102425714Y-68080000D01*
X102520952Y-68032380D01*
X102759047Y-68032380D01*
X102901904Y-68080000D01*
X103235238Y-68032380D02*
X103473333Y-69032380D01*
X103663809Y-68318095D01*
X103854285Y-69032380D01*
X104092380Y-68032380D01*
X104997142Y-69032380D02*
X104425714Y-69032380D01*
X104711428Y-69032380D02*
X104711428Y-68032380D01*
X104616190Y-68175238D01*
X104520952Y-68270476D01*
X104425714Y-68318095D01*
X105616190Y-68032380D02*
X105711428Y-68032380D01*
X105806666Y-68080000D01*
X105854285Y-68127619D01*
X105901904Y-68222857D01*
X105949523Y-68413333D01*
X105949523Y-68651428D01*
X105901904Y-68841904D01*
X105854285Y-68937142D01*
X105806666Y-68984761D01*
X105711428Y-69032380D01*
X105616190Y-69032380D01*
X105520952Y-68984761D01*
X105473333Y-68937142D01*
X105425714Y-68841904D01*
X105378095Y-68651428D01*
X105378095Y-68413333D01*
X105425714Y-68222857D01*
X105473333Y-68127619D01*
X105520952Y-68080000D01*
X105616190Y-68032380D01*
G04 #@! TO.C,SW9*
X108354761Y-47053333D02*
X108402380Y-46910476D01*
X108402380Y-46672380D01*
X108354761Y-46577142D01*
X108307142Y-46529523D01*
X108211904Y-46481904D01*
X108116666Y-46481904D01*
X108021428Y-46529523D01*
X107973809Y-46577142D01*
X107926190Y-46672380D01*
X107878571Y-46862857D01*
X107830952Y-46958095D01*
X107783333Y-47005714D01*
X107688095Y-47053333D01*
X107592857Y-47053333D01*
X107497619Y-47005714D01*
X107450000Y-46958095D01*
X107402380Y-46862857D01*
X107402380Y-46624761D01*
X107450000Y-46481904D01*
X107402380Y-46148571D02*
X108402380Y-45910476D01*
X107688095Y-45720000D01*
X108402380Y-45529523D01*
X107402380Y-45291428D01*
X108402380Y-44862857D02*
X108402380Y-44672380D01*
X108354761Y-44577142D01*
X108307142Y-44529523D01*
X108164285Y-44434285D01*
X107973809Y-44386666D01*
X107592857Y-44386666D01*
X107497619Y-44434285D01*
X107450000Y-44481904D01*
X107402380Y-44577142D01*
X107402380Y-44767619D01*
X107450000Y-44862857D01*
X107497619Y-44910476D01*
X107592857Y-44958095D01*
X107830952Y-44958095D01*
X107926190Y-44910476D01*
X107973809Y-44862857D01*
X108021428Y-44767619D01*
X108021428Y-44577142D01*
X107973809Y-44481904D01*
X107926190Y-44434285D01*
X107830952Y-44386666D01*
G04 #@! TO.C,SW8*
X83756666Y-107084761D02*
X83899523Y-107132380D01*
X84137619Y-107132380D01*
X84232857Y-107084761D01*
X84280476Y-107037142D01*
X84328095Y-106941904D01*
X84328095Y-106846666D01*
X84280476Y-106751428D01*
X84232857Y-106703809D01*
X84137619Y-106656190D01*
X83947142Y-106608571D01*
X83851904Y-106560952D01*
X83804285Y-106513333D01*
X83756666Y-106418095D01*
X83756666Y-106322857D01*
X83804285Y-106227619D01*
X83851904Y-106180000D01*
X83947142Y-106132380D01*
X84185238Y-106132380D01*
X84328095Y-106180000D01*
X84661428Y-106132380D02*
X84899523Y-107132380D01*
X85090000Y-106418095D01*
X85280476Y-107132380D01*
X85518571Y-106132380D01*
X86042380Y-106560952D02*
X85947142Y-106513333D01*
X85899523Y-106465714D01*
X85851904Y-106370476D01*
X85851904Y-106322857D01*
X85899523Y-106227619D01*
X85947142Y-106180000D01*
X86042380Y-106132380D01*
X86232857Y-106132380D01*
X86328095Y-106180000D01*
X86375714Y-106227619D01*
X86423333Y-106322857D01*
X86423333Y-106370476D01*
X86375714Y-106465714D01*
X86328095Y-106513333D01*
X86232857Y-106560952D01*
X86042380Y-106560952D01*
X85947142Y-106608571D01*
X85899523Y-106656190D01*
X85851904Y-106751428D01*
X85851904Y-106941904D01*
X85899523Y-107037142D01*
X85947142Y-107084761D01*
X86042380Y-107132380D01*
X86232857Y-107132380D01*
X86328095Y-107084761D01*
X86375714Y-107037142D01*
X86423333Y-106941904D01*
X86423333Y-106751428D01*
X86375714Y-106656190D01*
X86328095Y-106608571D01*
X86232857Y-106560952D01*
G04 #@! TO.C,SW4*
X62634761Y-104203333D02*
X62682380Y-104060476D01*
X62682380Y-103822380D01*
X62634761Y-103727142D01*
X62587142Y-103679523D01*
X62491904Y-103631904D01*
X62396666Y-103631904D01*
X62301428Y-103679523D01*
X62253809Y-103727142D01*
X62206190Y-103822380D01*
X62158571Y-104012857D01*
X62110952Y-104108095D01*
X62063333Y-104155714D01*
X61968095Y-104203333D01*
X61872857Y-104203333D01*
X61777619Y-104155714D01*
X61730000Y-104108095D01*
X61682380Y-104012857D01*
X61682380Y-103774761D01*
X61730000Y-103631904D01*
X61682380Y-103298571D02*
X62682380Y-103060476D01*
X61968095Y-102870000D01*
X62682380Y-102679523D01*
X61682380Y-102441428D01*
X62015714Y-101631904D02*
X62682380Y-101631904D01*
X61634761Y-101870000D02*
X62349047Y-102108095D01*
X62349047Y-101489047D01*
G04 #@! TO.C,SW3*
X62634761Y-85153333D02*
X62682380Y-85010476D01*
X62682380Y-84772380D01*
X62634761Y-84677142D01*
X62587142Y-84629523D01*
X62491904Y-84581904D01*
X62396666Y-84581904D01*
X62301428Y-84629523D01*
X62253809Y-84677142D01*
X62206190Y-84772380D01*
X62158571Y-84962857D01*
X62110952Y-85058095D01*
X62063333Y-85105714D01*
X61968095Y-85153333D01*
X61872857Y-85153333D01*
X61777619Y-85105714D01*
X61730000Y-85058095D01*
X61682380Y-84962857D01*
X61682380Y-84724761D01*
X61730000Y-84581904D01*
X61682380Y-84248571D02*
X62682380Y-84010476D01*
X61968095Y-83820000D01*
X62682380Y-83629523D01*
X61682380Y-83391428D01*
X61682380Y-83105714D02*
X61682380Y-82486666D01*
X62063333Y-82820000D01*
X62063333Y-82677142D01*
X62110952Y-82581904D01*
X62158571Y-82534285D01*
X62253809Y-82486666D01*
X62491904Y-82486666D01*
X62587142Y-82534285D01*
X62634761Y-82581904D01*
X62682380Y-82677142D01*
X62682380Y-82962857D01*
X62634761Y-83058095D01*
X62587142Y-83105714D01*
G04 #@! TO.C,SW2*
X62634761Y-66103333D02*
X62682380Y-65960476D01*
X62682380Y-65722380D01*
X62634761Y-65627142D01*
X62587142Y-65579523D01*
X62491904Y-65531904D01*
X62396666Y-65531904D01*
X62301428Y-65579523D01*
X62253809Y-65627142D01*
X62206190Y-65722380D01*
X62158571Y-65912857D01*
X62110952Y-66008095D01*
X62063333Y-66055714D01*
X61968095Y-66103333D01*
X61872857Y-66103333D01*
X61777619Y-66055714D01*
X61730000Y-66008095D01*
X61682380Y-65912857D01*
X61682380Y-65674761D01*
X61730000Y-65531904D01*
X61682380Y-65198571D02*
X62682380Y-64960476D01*
X61968095Y-64770000D01*
X62682380Y-64579523D01*
X61682380Y-64341428D01*
X61777619Y-64008095D02*
X61730000Y-63960476D01*
X61682380Y-63865238D01*
X61682380Y-63627142D01*
X61730000Y-63531904D01*
X61777619Y-63484285D01*
X61872857Y-63436666D01*
X61968095Y-63436666D01*
X62110952Y-63484285D01*
X62682380Y-64055714D01*
X62682380Y-63436666D01*
G04 #@! TO.C,R2*
X109688333Y-53157380D02*
X109355000Y-52681190D01*
X109116904Y-53157380D02*
X109116904Y-52157380D01*
X109497857Y-52157380D01*
X109593095Y-52205000D01*
X109640714Y-52252619D01*
X109688333Y-52347857D01*
X109688333Y-52490714D01*
X109640714Y-52585952D01*
X109593095Y-52633571D01*
X109497857Y-52681190D01*
X109116904Y-52681190D01*
X110069285Y-52252619D02*
X110116904Y-52205000D01*
X110212142Y-52157380D01*
X110450238Y-52157380D01*
X110545476Y-52205000D01*
X110593095Y-52252619D01*
X110640714Y-52347857D01*
X110640714Y-52443095D01*
X110593095Y-52585952D01*
X110021666Y-53157380D01*
X110640714Y-53157380D01*
G04 #@! TO.C,R1*
X113498333Y-48552380D02*
X113165000Y-48076190D01*
X112926904Y-48552380D02*
X112926904Y-47552380D01*
X113307857Y-47552380D01*
X113403095Y-47600000D01*
X113450714Y-47647619D01*
X113498333Y-47742857D01*
X113498333Y-47885714D01*
X113450714Y-47980952D01*
X113403095Y-48028571D01*
X113307857Y-48076190D01*
X112926904Y-48076190D01*
X114450714Y-48552380D02*
X113879285Y-48552380D01*
X114165000Y-48552380D02*
X114165000Y-47552380D01*
X114069761Y-47695238D01*
X113974523Y-47790476D01*
X113879285Y-47838095D01*
G04 #@! TO.C,SW1*
X70254761Y-47053333D02*
X70302380Y-46910476D01*
X70302380Y-46672380D01*
X70254761Y-46577142D01*
X70207142Y-46529523D01*
X70111904Y-46481904D01*
X70016666Y-46481904D01*
X69921428Y-46529523D01*
X69873809Y-46577142D01*
X69826190Y-46672380D01*
X69778571Y-46862857D01*
X69730952Y-46958095D01*
X69683333Y-47005714D01*
X69588095Y-47053333D01*
X69492857Y-47053333D01*
X69397619Y-47005714D01*
X69350000Y-46958095D01*
X69302380Y-46862857D01*
X69302380Y-46624761D01*
X69350000Y-46481904D01*
X69302380Y-46148571D02*
X70302380Y-45910476D01*
X69588095Y-45720000D01*
X70302380Y-45529523D01*
X69302380Y-45291428D01*
X70302380Y-44386666D02*
X70302380Y-44958095D01*
X70302380Y-44672380D02*
X69302380Y-44672380D01*
X69445238Y-44767619D01*
X69540476Y-44862857D01*
X69588095Y-44958095D01*
G04 #@! TO.C,SW5*
X89304761Y-47053333D02*
X89352380Y-46910476D01*
X89352380Y-46672380D01*
X89304761Y-46577142D01*
X89257142Y-46529523D01*
X89161904Y-46481904D01*
X89066666Y-46481904D01*
X88971428Y-46529523D01*
X88923809Y-46577142D01*
X88876190Y-46672380D01*
X88828571Y-46862857D01*
X88780952Y-46958095D01*
X88733333Y-47005714D01*
X88638095Y-47053333D01*
X88542857Y-47053333D01*
X88447619Y-47005714D01*
X88400000Y-46958095D01*
X88352380Y-46862857D01*
X88352380Y-46624761D01*
X88400000Y-46481904D01*
X88352380Y-46148571D02*
X89352380Y-45910476D01*
X88638095Y-45720000D01*
X89352380Y-45529523D01*
X88352380Y-45291428D01*
X88352380Y-44434285D02*
X88352380Y-44910476D01*
X88828571Y-44958095D01*
X88780952Y-44910476D01*
X88733333Y-44815238D01*
X88733333Y-44577142D01*
X88780952Y-44481904D01*
X88828571Y-44434285D01*
X88923809Y-44386666D01*
X89161904Y-44386666D01*
X89257142Y-44434285D01*
X89304761Y-44481904D01*
X89352380Y-44577142D01*
X89352380Y-44815238D01*
X89304761Y-44910476D01*
X89257142Y-44958095D01*
G04 #@! TO.C,SW7*
X83756666Y-88034761D02*
X83899523Y-88082380D01*
X84137619Y-88082380D01*
X84232857Y-88034761D01*
X84280476Y-87987142D01*
X84328095Y-87891904D01*
X84328095Y-87796666D01*
X84280476Y-87701428D01*
X84232857Y-87653809D01*
X84137619Y-87606190D01*
X83947142Y-87558571D01*
X83851904Y-87510952D01*
X83804285Y-87463333D01*
X83756666Y-87368095D01*
X83756666Y-87272857D01*
X83804285Y-87177619D01*
X83851904Y-87130000D01*
X83947142Y-87082380D01*
X84185238Y-87082380D01*
X84328095Y-87130000D01*
X84661428Y-87082380D02*
X84899523Y-88082380D01*
X85090000Y-87368095D01*
X85280476Y-88082380D01*
X85518571Y-87082380D01*
X85804285Y-87082380D02*
X86470952Y-87082380D01*
X86042380Y-88082380D01*
G04 #@! TO.C,SW6*
X83756666Y-68984761D02*
X83899523Y-69032380D01*
X84137619Y-69032380D01*
X84232857Y-68984761D01*
X84280476Y-68937142D01*
X84328095Y-68841904D01*
X84328095Y-68746666D01*
X84280476Y-68651428D01*
X84232857Y-68603809D01*
X84137619Y-68556190D01*
X83947142Y-68508571D01*
X83851904Y-68460952D01*
X83804285Y-68413333D01*
X83756666Y-68318095D01*
X83756666Y-68222857D01*
X83804285Y-68127619D01*
X83851904Y-68080000D01*
X83947142Y-68032380D01*
X84185238Y-68032380D01*
X84328095Y-68080000D01*
X84661428Y-68032380D02*
X84899523Y-69032380D01*
X85090000Y-68318095D01*
X85280476Y-69032380D01*
X85518571Y-68032380D01*
X86328095Y-68032380D02*
X86137619Y-68032380D01*
X86042380Y-68080000D01*
X85994761Y-68127619D01*
X85899523Y-68270476D01*
X85851904Y-68460952D01*
X85851904Y-68841904D01*
X85899523Y-68937142D01*
X85947142Y-68984761D01*
X86042380Y-69032380D01*
X86232857Y-69032380D01*
X86328095Y-68984761D01*
X86375714Y-68937142D01*
X86423333Y-68841904D01*
X86423333Y-68603809D01*
X86375714Y-68508571D01*
X86328095Y-68460952D01*
X86232857Y-68413333D01*
X86042380Y-68413333D01*
X85947142Y-68460952D01*
X85899523Y-68508571D01*
X85851904Y-68603809D01*
G04 #@! TO.C,R3*
X109688333Y-55697380D02*
X109355000Y-55221190D01*
X109116904Y-55697380D02*
X109116904Y-54697380D01*
X109497857Y-54697380D01*
X109593095Y-54745000D01*
X109640714Y-54792619D01*
X109688333Y-54887857D01*
X109688333Y-55030714D01*
X109640714Y-55125952D01*
X109593095Y-55173571D01*
X109497857Y-55221190D01*
X109116904Y-55221190D01*
X110021666Y-54697380D02*
X110640714Y-54697380D01*
X110307380Y-55078333D01*
X110450238Y-55078333D01*
X110545476Y-55125952D01*
X110593095Y-55173571D01*
X110640714Y-55268809D01*
X110640714Y-55506904D01*
X110593095Y-55602142D01*
X110545476Y-55649761D01*
X110450238Y-55697380D01*
X110164523Y-55697380D01*
X110069285Y-55649761D01*
X110021666Y-55602142D01*
G04 #@! TO.C,C4*
X170697142Y-47156666D02*
X170744761Y-47204285D01*
X170792380Y-47347142D01*
X170792380Y-47442380D01*
X170744761Y-47585238D01*
X170649523Y-47680476D01*
X170554285Y-47728095D01*
X170363809Y-47775714D01*
X170220952Y-47775714D01*
X170030476Y-47728095D01*
X169935238Y-47680476D01*
X169840000Y-47585238D01*
X169792380Y-47442380D01*
X169792380Y-47347142D01*
X169840000Y-47204285D01*
X169887619Y-47156666D01*
X170125714Y-46299523D02*
X170792380Y-46299523D01*
X169744761Y-46537619D02*
X170459047Y-46775714D01*
X170459047Y-46156666D01*
G04 #@! TD*
%LPC*%
D12*
G04 #@! TO.C,SW13*
X125730000Y-40640000D03*
X119380000Y-43180000D03*
D13*
X128270000Y-45720000D03*
X118110000Y-45720000D03*
D14*
X123190000Y-45720000D03*
G04 #@! TD*
D15*
G04 #@! TO.C,*
X56769000Y-55245000D03*
G04 #@! TD*
G04 #@! TO.C,*
X56769000Y-93345000D03*
G04 #@! TD*
G04 #@! TO.C,*
X189611000Y-93345000D03*
G04 #@! TD*
G04 #@! TO.C,*
X189611000Y-55245000D03*
G04 #@! TD*
G04 #@! TO.C,*
X142240000Y-36449000D03*
G04 #@! TD*
G04 #@! TO.C,*
X104140000Y-36449000D03*
G04 #@! TD*
G04 #@! TO.C,*
X56769000Y-36449000D03*
G04 #@! TD*
G04 #@! TO.C,*
X56769000Y-112141000D03*
G04 #@! TD*
G04 #@! TO.C,*
X104140000Y-112141000D03*
G04 #@! TD*
G04 #@! TO.C,*
X142240000Y-112141000D03*
G04 #@! TD*
G04 #@! TO.C,*
X189611000Y-112141000D03*
G04 #@! TD*
G04 #@! TO.C,*
X189611000Y-36449000D03*
G04 #@! TD*
G04 #@! TO.C,*
X94615000Y-74295000D03*
G04 #@! TD*
G04 #@! TO.C,*
X151765000Y-74295000D03*
G04 #@! TD*
D16*
G04 #@! TO.C,C3*
G36*
X73965691Y-47290176D02*
X73989401Y-47293693D01*
X74012652Y-47299517D01*
X74035220Y-47307592D01*
X74056889Y-47317841D01*
X74077448Y-47330164D01*
X74096701Y-47344442D01*
X74114461Y-47360539D01*
X74130558Y-47378299D01*
X74144836Y-47397552D01*
X74157159Y-47418111D01*
X74167408Y-47439780D01*
X74175483Y-47462348D01*
X74181307Y-47485599D01*
X74184824Y-47509309D01*
X74186000Y-47533250D01*
X74186000Y-48021750D01*
X74184824Y-48045691D01*
X74181307Y-48069401D01*
X74175483Y-48092652D01*
X74167408Y-48115220D01*
X74157159Y-48136889D01*
X74144836Y-48157448D01*
X74130558Y-48176701D01*
X74114461Y-48194461D01*
X74096701Y-48210558D01*
X74077448Y-48224836D01*
X74056889Y-48237159D01*
X74035220Y-48247408D01*
X74012652Y-48255483D01*
X73989401Y-48261307D01*
X73965691Y-48264824D01*
X73941750Y-48266000D01*
X73378250Y-48266000D01*
X73354309Y-48264824D01*
X73330599Y-48261307D01*
X73307348Y-48255483D01*
X73284780Y-48247408D01*
X73263111Y-48237159D01*
X73242552Y-48224836D01*
X73223299Y-48210558D01*
X73205539Y-48194461D01*
X73189442Y-48176701D01*
X73175164Y-48157448D01*
X73162841Y-48136889D01*
X73152592Y-48115220D01*
X73144517Y-48092652D01*
X73138693Y-48069401D01*
X73135176Y-48045691D01*
X73134000Y-48021750D01*
X73134000Y-47533250D01*
X73135176Y-47509309D01*
X73138693Y-47485599D01*
X73144517Y-47462348D01*
X73152592Y-47439780D01*
X73162841Y-47418111D01*
X73175164Y-47397552D01*
X73189442Y-47378299D01*
X73205539Y-47360539D01*
X73223299Y-47344442D01*
X73242552Y-47330164D01*
X73263111Y-47317841D01*
X73284780Y-47307592D01*
X73307348Y-47299517D01*
X73330599Y-47293693D01*
X73354309Y-47290176D01*
X73378250Y-47289000D01*
X73941750Y-47289000D01*
X73965691Y-47290176D01*
X73965691Y-47290176D01*
G37*
D17*
X73660000Y-47777500D03*
D16*
G36*
X73965691Y-45715176D02*
X73989401Y-45718693D01*
X74012652Y-45724517D01*
X74035220Y-45732592D01*
X74056889Y-45742841D01*
X74077448Y-45755164D01*
X74096701Y-45769442D01*
X74114461Y-45785539D01*
X74130558Y-45803299D01*
X74144836Y-45822552D01*
X74157159Y-45843111D01*
X74167408Y-45864780D01*
X74175483Y-45887348D01*
X74181307Y-45910599D01*
X74184824Y-45934309D01*
X74186000Y-45958250D01*
X74186000Y-46446750D01*
X74184824Y-46470691D01*
X74181307Y-46494401D01*
X74175483Y-46517652D01*
X74167408Y-46540220D01*
X74157159Y-46561889D01*
X74144836Y-46582448D01*
X74130558Y-46601701D01*
X74114461Y-46619461D01*
X74096701Y-46635558D01*
X74077448Y-46649836D01*
X74056889Y-46662159D01*
X74035220Y-46672408D01*
X74012652Y-46680483D01*
X73989401Y-46686307D01*
X73965691Y-46689824D01*
X73941750Y-46691000D01*
X73378250Y-46691000D01*
X73354309Y-46689824D01*
X73330599Y-46686307D01*
X73307348Y-46680483D01*
X73284780Y-46672408D01*
X73263111Y-46662159D01*
X73242552Y-46649836D01*
X73223299Y-46635558D01*
X73205539Y-46619461D01*
X73189442Y-46601701D01*
X73175164Y-46582448D01*
X73162841Y-46561889D01*
X73152592Y-46540220D01*
X73144517Y-46517652D01*
X73138693Y-46494401D01*
X73135176Y-46470691D01*
X73134000Y-46446750D01*
X73134000Y-45958250D01*
X73135176Y-45934309D01*
X73138693Y-45910599D01*
X73144517Y-45887348D01*
X73152592Y-45864780D01*
X73162841Y-45843111D01*
X73175164Y-45822552D01*
X73189442Y-45803299D01*
X73205539Y-45785539D01*
X73223299Y-45769442D01*
X73242552Y-45755164D01*
X73263111Y-45742841D01*
X73284780Y-45732592D01*
X73307348Y-45724517D01*
X73330599Y-45718693D01*
X73354309Y-45715176D01*
X73378250Y-45714000D01*
X73941750Y-45714000D01*
X73965691Y-45715176D01*
X73965691Y-45715176D01*
G37*
D17*
X73660000Y-46202500D03*
G04 #@! TD*
D16*
G04 #@! TO.C,C2*
G36*
X124245691Y-90915176D02*
X124269401Y-90918693D01*
X124292652Y-90924517D01*
X124315220Y-90932592D01*
X124336889Y-90942841D01*
X124357448Y-90955164D01*
X124376701Y-90969442D01*
X124394461Y-90985539D01*
X124410558Y-91003299D01*
X124424836Y-91022552D01*
X124437159Y-91043111D01*
X124447408Y-91064780D01*
X124455483Y-91087348D01*
X124461307Y-91110599D01*
X124464824Y-91134309D01*
X124466000Y-91158250D01*
X124466000Y-91721750D01*
X124464824Y-91745691D01*
X124461307Y-91769401D01*
X124455483Y-91792652D01*
X124447408Y-91815220D01*
X124437159Y-91836889D01*
X124424836Y-91857448D01*
X124410558Y-91876701D01*
X124394461Y-91894461D01*
X124376701Y-91910558D01*
X124357448Y-91924836D01*
X124336889Y-91937159D01*
X124315220Y-91947408D01*
X124292652Y-91955483D01*
X124269401Y-91961307D01*
X124245691Y-91964824D01*
X124221750Y-91966000D01*
X123733250Y-91966000D01*
X123709309Y-91964824D01*
X123685599Y-91961307D01*
X123662348Y-91955483D01*
X123639780Y-91947408D01*
X123618111Y-91937159D01*
X123597552Y-91924836D01*
X123578299Y-91910558D01*
X123560539Y-91894461D01*
X123544442Y-91876701D01*
X123530164Y-91857448D01*
X123517841Y-91836889D01*
X123507592Y-91815220D01*
X123499517Y-91792652D01*
X123493693Y-91769401D01*
X123490176Y-91745691D01*
X123489000Y-91721750D01*
X123489000Y-91158250D01*
X123490176Y-91134309D01*
X123493693Y-91110599D01*
X123499517Y-91087348D01*
X123507592Y-91064780D01*
X123517841Y-91043111D01*
X123530164Y-91022552D01*
X123544442Y-91003299D01*
X123560539Y-90985539D01*
X123578299Y-90969442D01*
X123597552Y-90955164D01*
X123618111Y-90942841D01*
X123639780Y-90932592D01*
X123662348Y-90924517D01*
X123685599Y-90918693D01*
X123709309Y-90915176D01*
X123733250Y-90914000D01*
X124221750Y-90914000D01*
X124245691Y-90915176D01*
X124245691Y-90915176D01*
G37*
D17*
X123977500Y-91440000D03*
D16*
G36*
X122670691Y-90915176D02*
X122694401Y-90918693D01*
X122717652Y-90924517D01*
X122740220Y-90932592D01*
X122761889Y-90942841D01*
X122782448Y-90955164D01*
X122801701Y-90969442D01*
X122819461Y-90985539D01*
X122835558Y-91003299D01*
X122849836Y-91022552D01*
X122862159Y-91043111D01*
X122872408Y-91064780D01*
X122880483Y-91087348D01*
X122886307Y-91110599D01*
X122889824Y-91134309D01*
X122891000Y-91158250D01*
X122891000Y-91721750D01*
X122889824Y-91745691D01*
X122886307Y-91769401D01*
X122880483Y-91792652D01*
X122872408Y-91815220D01*
X122862159Y-91836889D01*
X122849836Y-91857448D01*
X122835558Y-91876701D01*
X122819461Y-91894461D01*
X122801701Y-91910558D01*
X122782448Y-91924836D01*
X122761889Y-91937159D01*
X122740220Y-91947408D01*
X122717652Y-91955483D01*
X122694401Y-91961307D01*
X122670691Y-91964824D01*
X122646750Y-91966000D01*
X122158250Y-91966000D01*
X122134309Y-91964824D01*
X122110599Y-91961307D01*
X122087348Y-91955483D01*
X122064780Y-91947408D01*
X122043111Y-91937159D01*
X122022552Y-91924836D01*
X122003299Y-91910558D01*
X121985539Y-91894461D01*
X121969442Y-91876701D01*
X121955164Y-91857448D01*
X121942841Y-91836889D01*
X121932592Y-91815220D01*
X121924517Y-91792652D01*
X121918693Y-91769401D01*
X121915176Y-91745691D01*
X121914000Y-91721750D01*
X121914000Y-91158250D01*
X121915176Y-91134309D01*
X121918693Y-91110599D01*
X121924517Y-91087348D01*
X121932592Y-91064780D01*
X121942841Y-91043111D01*
X121955164Y-91022552D01*
X121969442Y-91003299D01*
X121985539Y-90985539D01*
X122003299Y-90969442D01*
X122022552Y-90955164D01*
X122043111Y-90942841D01*
X122064780Y-90932592D01*
X122087348Y-90924517D01*
X122110599Y-90918693D01*
X122134309Y-90915176D01*
X122158250Y-90914000D01*
X122646750Y-90914000D01*
X122670691Y-90915176D01*
X122670691Y-90915176D01*
G37*
D17*
X122402500Y-91440000D03*
G04 #@! TD*
D16*
G04 #@! TO.C,C1*
G36*
X124245691Y-52942176D02*
X124269401Y-52945693D01*
X124292652Y-52951517D01*
X124315220Y-52959592D01*
X124336889Y-52969841D01*
X124357448Y-52982164D01*
X124376701Y-52996442D01*
X124394461Y-53012539D01*
X124410558Y-53030299D01*
X124424836Y-53049552D01*
X124437159Y-53070111D01*
X124447408Y-53091780D01*
X124455483Y-53114348D01*
X124461307Y-53137599D01*
X124464824Y-53161309D01*
X124466000Y-53185250D01*
X124466000Y-53748750D01*
X124464824Y-53772691D01*
X124461307Y-53796401D01*
X124455483Y-53819652D01*
X124447408Y-53842220D01*
X124437159Y-53863889D01*
X124424836Y-53884448D01*
X124410558Y-53903701D01*
X124394461Y-53921461D01*
X124376701Y-53937558D01*
X124357448Y-53951836D01*
X124336889Y-53964159D01*
X124315220Y-53974408D01*
X124292652Y-53982483D01*
X124269401Y-53988307D01*
X124245691Y-53991824D01*
X124221750Y-53993000D01*
X123733250Y-53993000D01*
X123709309Y-53991824D01*
X123685599Y-53988307D01*
X123662348Y-53982483D01*
X123639780Y-53974408D01*
X123618111Y-53964159D01*
X123597552Y-53951836D01*
X123578299Y-53937558D01*
X123560539Y-53921461D01*
X123544442Y-53903701D01*
X123530164Y-53884448D01*
X123517841Y-53863889D01*
X123507592Y-53842220D01*
X123499517Y-53819652D01*
X123493693Y-53796401D01*
X123490176Y-53772691D01*
X123489000Y-53748750D01*
X123489000Y-53185250D01*
X123490176Y-53161309D01*
X123493693Y-53137599D01*
X123499517Y-53114348D01*
X123507592Y-53091780D01*
X123517841Y-53070111D01*
X123530164Y-53049552D01*
X123544442Y-53030299D01*
X123560539Y-53012539D01*
X123578299Y-52996442D01*
X123597552Y-52982164D01*
X123618111Y-52969841D01*
X123639780Y-52959592D01*
X123662348Y-52951517D01*
X123685599Y-52945693D01*
X123709309Y-52942176D01*
X123733250Y-52941000D01*
X124221750Y-52941000D01*
X124245691Y-52942176D01*
X124245691Y-52942176D01*
G37*
D17*
X123977500Y-53467000D03*
D16*
G36*
X122670691Y-52942176D02*
X122694401Y-52945693D01*
X122717652Y-52951517D01*
X122740220Y-52959592D01*
X122761889Y-52969841D01*
X122782448Y-52982164D01*
X122801701Y-52996442D01*
X122819461Y-53012539D01*
X122835558Y-53030299D01*
X122849836Y-53049552D01*
X122862159Y-53070111D01*
X122872408Y-53091780D01*
X122880483Y-53114348D01*
X122886307Y-53137599D01*
X122889824Y-53161309D01*
X122891000Y-53185250D01*
X122891000Y-53748750D01*
X122889824Y-53772691D01*
X122886307Y-53796401D01*
X122880483Y-53819652D01*
X122872408Y-53842220D01*
X122862159Y-53863889D01*
X122849836Y-53884448D01*
X122835558Y-53903701D01*
X122819461Y-53921461D01*
X122801701Y-53937558D01*
X122782448Y-53951836D01*
X122761889Y-53964159D01*
X122740220Y-53974408D01*
X122717652Y-53982483D01*
X122694401Y-53988307D01*
X122670691Y-53991824D01*
X122646750Y-53993000D01*
X122158250Y-53993000D01*
X122134309Y-53991824D01*
X122110599Y-53988307D01*
X122087348Y-53982483D01*
X122064780Y-53974408D01*
X122043111Y-53964159D01*
X122022552Y-53951836D01*
X122003299Y-53937558D01*
X121985539Y-53921461D01*
X121969442Y-53903701D01*
X121955164Y-53884448D01*
X121942841Y-53863889D01*
X121932592Y-53842220D01*
X121924517Y-53819652D01*
X121918693Y-53796401D01*
X121915176Y-53772691D01*
X121914000Y-53748750D01*
X121914000Y-53185250D01*
X121915176Y-53161309D01*
X121918693Y-53137599D01*
X121924517Y-53114348D01*
X121932592Y-53091780D01*
X121942841Y-53070111D01*
X121955164Y-53049552D01*
X121969442Y-53030299D01*
X121985539Y-53012539D01*
X122003299Y-52996442D01*
X122022552Y-52982164D01*
X122043111Y-52969841D01*
X122064780Y-52959592D01*
X122087348Y-52951517D01*
X122110599Y-52945693D01*
X122134309Y-52942176D01*
X122158250Y-52941000D01*
X122646750Y-52941000D01*
X122670691Y-52942176D01*
X122670691Y-52942176D01*
G37*
D17*
X122402500Y-53467000D03*
G04 #@! TD*
D12*
G04 #@! TO.C,SW28*
X185420000Y-105410000D03*
X182880000Y-99060000D03*
D13*
X180340000Y-107950000D03*
X180340000Y-97790000D03*
D14*
X180340000Y-102870000D03*
G04 #@! TD*
D12*
G04 #@! TO.C,SW27*
X175260000Y-81280000D03*
X177800000Y-87630000D03*
D13*
X180340000Y-78740000D03*
X180340000Y-88900000D03*
D14*
X180340000Y-83820000D03*
G04 #@! TD*
D12*
G04 #@! TO.C,SW26*
X175260000Y-62230000D03*
X177800000Y-68580000D03*
D13*
X180340000Y-59690000D03*
X180340000Y-69850000D03*
D14*
X180340000Y-64770000D03*
G04 #@! TD*
D12*
G04 #@! TO.C,SW25*
X175260000Y-43180000D03*
X177800000Y-49530000D03*
D13*
X180340000Y-40640000D03*
X180340000Y-50800000D03*
D14*
X180340000Y-45720000D03*
G04 #@! TD*
D12*
G04 #@! TO.C,SW24*
X163830000Y-97790000D03*
X157480000Y-100330000D03*
D13*
X166370000Y-102870000D03*
X156210000Y-102870000D03*
D14*
X161290000Y-102870000D03*
G04 #@! TD*
D12*
G04 #@! TO.C,SW23*
X163830000Y-78740000D03*
X157480000Y-81280000D03*
D13*
X166370000Y-83820000D03*
X156210000Y-83820000D03*
D14*
X161290000Y-83820000D03*
G04 #@! TD*
D12*
G04 #@! TO.C,SW22*
X163830000Y-59690000D03*
X157480000Y-62230000D03*
D13*
X166370000Y-64770000D03*
X156210000Y-64770000D03*
D14*
X161290000Y-64770000D03*
G04 #@! TD*
D12*
G04 #@! TO.C,SW21*
X156210000Y-43180000D03*
X158750000Y-49530000D03*
D13*
X161290000Y-40640000D03*
X161290000Y-50800000D03*
D14*
X161290000Y-45720000D03*
G04 #@! TD*
D12*
G04 #@! TO.C,SW20*
X144780000Y-97790000D03*
X138430000Y-100330000D03*
D13*
X147320000Y-102870000D03*
X137160000Y-102870000D03*
D14*
X142240000Y-102870000D03*
G04 #@! TD*
D12*
G04 #@! TO.C,SW19*
X144780000Y-78740000D03*
X138430000Y-81280000D03*
D13*
X147320000Y-83820000D03*
X137160000Y-83820000D03*
D14*
X142240000Y-83820000D03*
G04 #@! TD*
D12*
G04 #@! TO.C,SW18*
X144780000Y-59690000D03*
X138430000Y-62230000D03*
D13*
X147320000Y-64770000D03*
X137160000Y-64770000D03*
D14*
X142240000Y-64770000D03*
G04 #@! TD*
D12*
G04 #@! TO.C,SW17*
X137160000Y-43180000D03*
X139700000Y-49530000D03*
D13*
X142240000Y-40640000D03*
X142240000Y-50800000D03*
D14*
X142240000Y-45720000D03*
G04 #@! TD*
D12*
G04 #@! TO.C,SW16*
X125730000Y-97790000D03*
X119380000Y-100330000D03*
D13*
X128270000Y-102870000D03*
X118110000Y-102870000D03*
D14*
X123190000Y-102870000D03*
G04 #@! TD*
D12*
G04 #@! TO.C,SW15*
X125730000Y-78740000D03*
X119380000Y-81280000D03*
D13*
X128270000Y-83820000D03*
X118110000Y-83820000D03*
D14*
X123190000Y-83820000D03*
G04 #@! TD*
D12*
G04 #@! TO.C,SW14*
X125730000Y-59690000D03*
X119380000Y-62230000D03*
D13*
X128270000Y-64770000D03*
X118110000Y-64770000D03*
D14*
X123190000Y-64770000D03*
G04 #@! TD*
D12*
G04 #@! TO.C,SW12*
X106680000Y-97790000D03*
X100330000Y-100330000D03*
D13*
X109220000Y-102870000D03*
X99060000Y-102870000D03*
D14*
X104140000Y-102870000D03*
G04 #@! TD*
D12*
G04 #@! TO.C,SW11*
X106680000Y-78740000D03*
X100330000Y-81280000D03*
D13*
X109220000Y-83820000D03*
X99060000Y-83820000D03*
D14*
X104140000Y-83820000D03*
G04 #@! TD*
D12*
G04 #@! TO.C,SW10*
X106680000Y-59690000D03*
X100330000Y-62230000D03*
D13*
X109220000Y-64770000D03*
X99060000Y-64770000D03*
D14*
X104140000Y-64770000D03*
G04 #@! TD*
D12*
G04 #@! TO.C,SW9*
X99060000Y-43180000D03*
X101600000Y-49530000D03*
D13*
X104140000Y-40640000D03*
X104140000Y-50800000D03*
D14*
X104140000Y-45720000D03*
G04 #@! TD*
D12*
G04 #@! TO.C,SW8*
X87630000Y-97790000D03*
X81280000Y-100330000D03*
D13*
X90170000Y-102870000D03*
X80010000Y-102870000D03*
D14*
X85090000Y-102870000D03*
G04 #@! TD*
D12*
G04 #@! TO.C,SW4*
X71120000Y-105410000D03*
X68580000Y-99060000D03*
D13*
X66040000Y-107950000D03*
X66040000Y-97790000D03*
D14*
X66040000Y-102870000D03*
G04 #@! TD*
D12*
G04 #@! TO.C,SW3*
X71120000Y-86360000D03*
X68580000Y-80010000D03*
D13*
X66040000Y-88900000D03*
X66040000Y-78740000D03*
D14*
X66040000Y-83820000D03*
G04 #@! TD*
D12*
G04 #@! TO.C,SW2*
X71120000Y-67310000D03*
X68580000Y-60960000D03*
D13*
X66040000Y-69850000D03*
X66040000Y-59690000D03*
D14*
X66040000Y-64770000D03*
G04 #@! TD*
D16*
G04 #@! TO.C,R2*
G36*
X110910691Y-53450176D02*
X110934401Y-53453693D01*
X110957652Y-53459517D01*
X110980220Y-53467592D01*
X111001889Y-53477841D01*
X111022448Y-53490164D01*
X111041701Y-53504442D01*
X111059461Y-53520539D01*
X111075558Y-53538299D01*
X111089836Y-53557552D01*
X111102159Y-53578111D01*
X111112408Y-53599780D01*
X111120483Y-53622348D01*
X111126307Y-53645599D01*
X111129824Y-53669309D01*
X111131000Y-53693250D01*
X111131000Y-54256750D01*
X111129824Y-54280691D01*
X111126307Y-54304401D01*
X111120483Y-54327652D01*
X111112408Y-54350220D01*
X111102159Y-54371889D01*
X111089836Y-54392448D01*
X111075558Y-54411701D01*
X111059461Y-54429461D01*
X111041701Y-54445558D01*
X111022448Y-54459836D01*
X111001889Y-54472159D01*
X110980220Y-54482408D01*
X110957652Y-54490483D01*
X110934401Y-54496307D01*
X110910691Y-54499824D01*
X110886750Y-54501000D01*
X110398250Y-54501000D01*
X110374309Y-54499824D01*
X110350599Y-54496307D01*
X110327348Y-54490483D01*
X110304780Y-54482408D01*
X110283111Y-54472159D01*
X110262552Y-54459836D01*
X110243299Y-54445558D01*
X110225539Y-54429461D01*
X110209442Y-54411701D01*
X110195164Y-54392448D01*
X110182841Y-54371889D01*
X110172592Y-54350220D01*
X110164517Y-54327652D01*
X110158693Y-54304401D01*
X110155176Y-54280691D01*
X110154000Y-54256750D01*
X110154000Y-53693250D01*
X110155176Y-53669309D01*
X110158693Y-53645599D01*
X110164517Y-53622348D01*
X110172592Y-53599780D01*
X110182841Y-53578111D01*
X110195164Y-53557552D01*
X110209442Y-53538299D01*
X110225539Y-53520539D01*
X110243299Y-53504442D01*
X110262552Y-53490164D01*
X110283111Y-53477841D01*
X110304780Y-53467592D01*
X110327348Y-53459517D01*
X110350599Y-53453693D01*
X110374309Y-53450176D01*
X110398250Y-53449000D01*
X110886750Y-53449000D01*
X110910691Y-53450176D01*
X110910691Y-53450176D01*
G37*
D17*
X110642500Y-53975000D03*
D16*
G36*
X109335691Y-53450176D02*
X109359401Y-53453693D01*
X109382652Y-53459517D01*
X109405220Y-53467592D01*
X109426889Y-53477841D01*
X109447448Y-53490164D01*
X109466701Y-53504442D01*
X109484461Y-53520539D01*
X109500558Y-53538299D01*
X109514836Y-53557552D01*
X109527159Y-53578111D01*
X109537408Y-53599780D01*
X109545483Y-53622348D01*
X109551307Y-53645599D01*
X109554824Y-53669309D01*
X109556000Y-53693250D01*
X109556000Y-54256750D01*
X109554824Y-54280691D01*
X109551307Y-54304401D01*
X109545483Y-54327652D01*
X109537408Y-54350220D01*
X109527159Y-54371889D01*
X109514836Y-54392448D01*
X109500558Y-54411701D01*
X109484461Y-54429461D01*
X109466701Y-54445558D01*
X109447448Y-54459836D01*
X109426889Y-54472159D01*
X109405220Y-54482408D01*
X109382652Y-54490483D01*
X109359401Y-54496307D01*
X109335691Y-54499824D01*
X109311750Y-54501000D01*
X108823250Y-54501000D01*
X108799309Y-54499824D01*
X108775599Y-54496307D01*
X108752348Y-54490483D01*
X108729780Y-54482408D01*
X108708111Y-54472159D01*
X108687552Y-54459836D01*
X108668299Y-54445558D01*
X108650539Y-54429461D01*
X108634442Y-54411701D01*
X108620164Y-54392448D01*
X108607841Y-54371889D01*
X108597592Y-54350220D01*
X108589517Y-54327652D01*
X108583693Y-54304401D01*
X108580176Y-54280691D01*
X108579000Y-54256750D01*
X108579000Y-53693250D01*
X108580176Y-53669309D01*
X108583693Y-53645599D01*
X108589517Y-53622348D01*
X108597592Y-53599780D01*
X108607841Y-53578111D01*
X108620164Y-53557552D01*
X108634442Y-53538299D01*
X108650539Y-53520539D01*
X108668299Y-53504442D01*
X108687552Y-53490164D01*
X108708111Y-53477841D01*
X108729780Y-53467592D01*
X108752348Y-53459517D01*
X108775599Y-53453693D01*
X108799309Y-53450176D01*
X108823250Y-53449000D01*
X109311750Y-53449000D01*
X109335691Y-53450176D01*
X109335691Y-53450176D01*
G37*
D17*
X109067500Y-53975000D03*
G04 #@! TD*
D16*
G04 #@! TO.C,R1*
G36*
X114720691Y-49005176D02*
X114744401Y-49008693D01*
X114767652Y-49014517D01*
X114790220Y-49022592D01*
X114811889Y-49032841D01*
X114832448Y-49045164D01*
X114851701Y-49059442D01*
X114869461Y-49075539D01*
X114885558Y-49093299D01*
X114899836Y-49112552D01*
X114912159Y-49133111D01*
X114922408Y-49154780D01*
X114930483Y-49177348D01*
X114936307Y-49200599D01*
X114939824Y-49224309D01*
X114941000Y-49248250D01*
X114941000Y-49811750D01*
X114939824Y-49835691D01*
X114936307Y-49859401D01*
X114930483Y-49882652D01*
X114922408Y-49905220D01*
X114912159Y-49926889D01*
X114899836Y-49947448D01*
X114885558Y-49966701D01*
X114869461Y-49984461D01*
X114851701Y-50000558D01*
X114832448Y-50014836D01*
X114811889Y-50027159D01*
X114790220Y-50037408D01*
X114767652Y-50045483D01*
X114744401Y-50051307D01*
X114720691Y-50054824D01*
X114696750Y-50056000D01*
X114208250Y-50056000D01*
X114184309Y-50054824D01*
X114160599Y-50051307D01*
X114137348Y-50045483D01*
X114114780Y-50037408D01*
X114093111Y-50027159D01*
X114072552Y-50014836D01*
X114053299Y-50000558D01*
X114035539Y-49984461D01*
X114019442Y-49966701D01*
X114005164Y-49947448D01*
X113992841Y-49926889D01*
X113982592Y-49905220D01*
X113974517Y-49882652D01*
X113968693Y-49859401D01*
X113965176Y-49835691D01*
X113964000Y-49811750D01*
X113964000Y-49248250D01*
X113965176Y-49224309D01*
X113968693Y-49200599D01*
X113974517Y-49177348D01*
X113982592Y-49154780D01*
X113992841Y-49133111D01*
X114005164Y-49112552D01*
X114019442Y-49093299D01*
X114035539Y-49075539D01*
X114053299Y-49059442D01*
X114072552Y-49045164D01*
X114093111Y-49032841D01*
X114114780Y-49022592D01*
X114137348Y-49014517D01*
X114160599Y-49008693D01*
X114184309Y-49005176D01*
X114208250Y-49004000D01*
X114696750Y-49004000D01*
X114720691Y-49005176D01*
X114720691Y-49005176D01*
G37*
D17*
X114452500Y-49530000D03*
D16*
G36*
X113145691Y-49005176D02*
X113169401Y-49008693D01*
X113192652Y-49014517D01*
X113215220Y-49022592D01*
X113236889Y-49032841D01*
X113257448Y-49045164D01*
X113276701Y-49059442D01*
X113294461Y-49075539D01*
X113310558Y-49093299D01*
X113324836Y-49112552D01*
X113337159Y-49133111D01*
X113347408Y-49154780D01*
X113355483Y-49177348D01*
X113361307Y-49200599D01*
X113364824Y-49224309D01*
X113366000Y-49248250D01*
X113366000Y-49811750D01*
X113364824Y-49835691D01*
X113361307Y-49859401D01*
X113355483Y-49882652D01*
X113347408Y-49905220D01*
X113337159Y-49926889D01*
X113324836Y-49947448D01*
X113310558Y-49966701D01*
X113294461Y-49984461D01*
X113276701Y-50000558D01*
X113257448Y-50014836D01*
X113236889Y-50027159D01*
X113215220Y-50037408D01*
X113192652Y-50045483D01*
X113169401Y-50051307D01*
X113145691Y-50054824D01*
X113121750Y-50056000D01*
X112633250Y-50056000D01*
X112609309Y-50054824D01*
X112585599Y-50051307D01*
X112562348Y-50045483D01*
X112539780Y-50037408D01*
X112518111Y-50027159D01*
X112497552Y-50014836D01*
X112478299Y-50000558D01*
X112460539Y-49984461D01*
X112444442Y-49966701D01*
X112430164Y-49947448D01*
X112417841Y-49926889D01*
X112407592Y-49905220D01*
X112399517Y-49882652D01*
X112393693Y-49859401D01*
X112390176Y-49835691D01*
X112389000Y-49811750D01*
X112389000Y-49248250D01*
X112390176Y-49224309D01*
X112393693Y-49200599D01*
X112399517Y-49177348D01*
X112407592Y-49154780D01*
X112417841Y-49133111D01*
X112430164Y-49112552D01*
X112444442Y-49093299D01*
X112460539Y-49075539D01*
X112478299Y-49059442D01*
X112497552Y-49045164D01*
X112518111Y-49032841D01*
X112539780Y-49022592D01*
X112562348Y-49014517D01*
X112585599Y-49008693D01*
X112609309Y-49005176D01*
X112633250Y-49004000D01*
X113121750Y-49004000D01*
X113145691Y-49005176D01*
X113145691Y-49005176D01*
G37*
D17*
X112877500Y-49530000D03*
G04 #@! TD*
D12*
G04 #@! TO.C,SW1*
X60960000Y-43180000D03*
X63500000Y-49530000D03*
D13*
X66040000Y-40640000D03*
X66040000Y-50800000D03*
D14*
X66040000Y-45720000D03*
G04 #@! TD*
D12*
G04 #@! TO.C,SW5*
X80010000Y-43180000D03*
X82550000Y-49530000D03*
D13*
X85090000Y-40640000D03*
X85090000Y-50800000D03*
D14*
X85090000Y-45720000D03*
G04 #@! TD*
D12*
G04 #@! TO.C,SW7*
X87630000Y-78740000D03*
X81280000Y-81280000D03*
D13*
X90170000Y-83820000D03*
X80010000Y-83820000D03*
D14*
X85090000Y-83820000D03*
G04 #@! TD*
D12*
G04 #@! TO.C,SW6*
X87630000Y-59690000D03*
X81280000Y-62230000D03*
D13*
X90170000Y-64770000D03*
X80010000Y-64770000D03*
D14*
X85090000Y-64770000D03*
G04 #@! TD*
D16*
G04 #@! TO.C,R3*
G36*
X110910691Y-55990176D02*
X110934401Y-55993693D01*
X110957652Y-55999517D01*
X110980220Y-56007592D01*
X111001889Y-56017841D01*
X111022448Y-56030164D01*
X111041701Y-56044442D01*
X111059461Y-56060539D01*
X111075558Y-56078299D01*
X111089836Y-56097552D01*
X111102159Y-56118111D01*
X111112408Y-56139780D01*
X111120483Y-56162348D01*
X111126307Y-56185599D01*
X111129824Y-56209309D01*
X111131000Y-56233250D01*
X111131000Y-56796750D01*
X111129824Y-56820691D01*
X111126307Y-56844401D01*
X111120483Y-56867652D01*
X111112408Y-56890220D01*
X111102159Y-56911889D01*
X111089836Y-56932448D01*
X111075558Y-56951701D01*
X111059461Y-56969461D01*
X111041701Y-56985558D01*
X111022448Y-56999836D01*
X111001889Y-57012159D01*
X110980220Y-57022408D01*
X110957652Y-57030483D01*
X110934401Y-57036307D01*
X110910691Y-57039824D01*
X110886750Y-57041000D01*
X110398250Y-57041000D01*
X110374309Y-57039824D01*
X110350599Y-57036307D01*
X110327348Y-57030483D01*
X110304780Y-57022408D01*
X110283111Y-57012159D01*
X110262552Y-56999836D01*
X110243299Y-56985558D01*
X110225539Y-56969461D01*
X110209442Y-56951701D01*
X110195164Y-56932448D01*
X110182841Y-56911889D01*
X110172592Y-56890220D01*
X110164517Y-56867652D01*
X110158693Y-56844401D01*
X110155176Y-56820691D01*
X110154000Y-56796750D01*
X110154000Y-56233250D01*
X110155176Y-56209309D01*
X110158693Y-56185599D01*
X110164517Y-56162348D01*
X110172592Y-56139780D01*
X110182841Y-56118111D01*
X110195164Y-56097552D01*
X110209442Y-56078299D01*
X110225539Y-56060539D01*
X110243299Y-56044442D01*
X110262552Y-56030164D01*
X110283111Y-56017841D01*
X110304780Y-56007592D01*
X110327348Y-55999517D01*
X110350599Y-55993693D01*
X110374309Y-55990176D01*
X110398250Y-55989000D01*
X110886750Y-55989000D01*
X110910691Y-55990176D01*
X110910691Y-55990176D01*
G37*
D17*
X110642500Y-56515000D03*
D16*
G36*
X109335691Y-55990176D02*
X109359401Y-55993693D01*
X109382652Y-55999517D01*
X109405220Y-56007592D01*
X109426889Y-56017841D01*
X109447448Y-56030164D01*
X109466701Y-56044442D01*
X109484461Y-56060539D01*
X109500558Y-56078299D01*
X109514836Y-56097552D01*
X109527159Y-56118111D01*
X109537408Y-56139780D01*
X109545483Y-56162348D01*
X109551307Y-56185599D01*
X109554824Y-56209309D01*
X109556000Y-56233250D01*
X109556000Y-56796750D01*
X109554824Y-56820691D01*
X109551307Y-56844401D01*
X109545483Y-56867652D01*
X109537408Y-56890220D01*
X109527159Y-56911889D01*
X109514836Y-56932448D01*
X109500558Y-56951701D01*
X109484461Y-56969461D01*
X109466701Y-56985558D01*
X109447448Y-56999836D01*
X109426889Y-57012159D01*
X109405220Y-57022408D01*
X109382652Y-57030483D01*
X109359401Y-57036307D01*
X109335691Y-57039824D01*
X109311750Y-57041000D01*
X108823250Y-57041000D01*
X108799309Y-57039824D01*
X108775599Y-57036307D01*
X108752348Y-57030483D01*
X108729780Y-57022408D01*
X108708111Y-57012159D01*
X108687552Y-56999836D01*
X108668299Y-56985558D01*
X108650539Y-56969461D01*
X108634442Y-56951701D01*
X108620164Y-56932448D01*
X108607841Y-56911889D01*
X108597592Y-56890220D01*
X108589517Y-56867652D01*
X108583693Y-56844401D01*
X108580176Y-56820691D01*
X108579000Y-56796750D01*
X108579000Y-56233250D01*
X108580176Y-56209309D01*
X108583693Y-56185599D01*
X108589517Y-56162348D01*
X108597592Y-56139780D01*
X108607841Y-56118111D01*
X108620164Y-56097552D01*
X108634442Y-56078299D01*
X108650539Y-56060539D01*
X108668299Y-56044442D01*
X108687552Y-56030164D01*
X108708111Y-56017841D01*
X108729780Y-56007592D01*
X108752348Y-55999517D01*
X108775599Y-55993693D01*
X108799309Y-55990176D01*
X108823250Y-55989000D01*
X109311750Y-55989000D01*
X109335691Y-55990176D01*
X109335691Y-55990176D01*
G37*
D17*
X109067500Y-56515000D03*
G04 #@! TD*
D18*
G04 #@! TO.C,J1*
X73660000Y-44460000D03*
X73660000Y-37460000D03*
G04 #@! TD*
G04 #@! TO.C,J3*
X92710000Y-44460000D03*
X92710000Y-37460000D03*
G04 #@! TD*
G04 #@! TO.C,J4*
X149860000Y-44460000D03*
X149860000Y-37460000D03*
G04 #@! TD*
G04 #@! TO.C,J2*
X168910000Y-44460000D03*
X168910000Y-37460000D03*
G04 #@! TD*
D16*
G04 #@! TO.C,C4*
G36*
X169215691Y-47290176D02*
X169239401Y-47293693D01*
X169262652Y-47299517D01*
X169285220Y-47307592D01*
X169306889Y-47317841D01*
X169327448Y-47330164D01*
X169346701Y-47344442D01*
X169364461Y-47360539D01*
X169380558Y-47378299D01*
X169394836Y-47397552D01*
X169407159Y-47418111D01*
X169417408Y-47439780D01*
X169425483Y-47462348D01*
X169431307Y-47485599D01*
X169434824Y-47509309D01*
X169436000Y-47533250D01*
X169436000Y-48021750D01*
X169434824Y-48045691D01*
X169431307Y-48069401D01*
X169425483Y-48092652D01*
X169417408Y-48115220D01*
X169407159Y-48136889D01*
X169394836Y-48157448D01*
X169380558Y-48176701D01*
X169364461Y-48194461D01*
X169346701Y-48210558D01*
X169327448Y-48224836D01*
X169306889Y-48237159D01*
X169285220Y-48247408D01*
X169262652Y-48255483D01*
X169239401Y-48261307D01*
X169215691Y-48264824D01*
X169191750Y-48266000D01*
X168628250Y-48266000D01*
X168604309Y-48264824D01*
X168580599Y-48261307D01*
X168557348Y-48255483D01*
X168534780Y-48247408D01*
X168513111Y-48237159D01*
X168492552Y-48224836D01*
X168473299Y-48210558D01*
X168455539Y-48194461D01*
X168439442Y-48176701D01*
X168425164Y-48157448D01*
X168412841Y-48136889D01*
X168402592Y-48115220D01*
X168394517Y-48092652D01*
X168388693Y-48069401D01*
X168385176Y-48045691D01*
X168384000Y-48021750D01*
X168384000Y-47533250D01*
X168385176Y-47509309D01*
X168388693Y-47485599D01*
X168394517Y-47462348D01*
X168402592Y-47439780D01*
X168412841Y-47418111D01*
X168425164Y-47397552D01*
X168439442Y-47378299D01*
X168455539Y-47360539D01*
X168473299Y-47344442D01*
X168492552Y-47330164D01*
X168513111Y-47317841D01*
X168534780Y-47307592D01*
X168557348Y-47299517D01*
X168580599Y-47293693D01*
X168604309Y-47290176D01*
X168628250Y-47289000D01*
X169191750Y-47289000D01*
X169215691Y-47290176D01*
X169215691Y-47290176D01*
G37*
D17*
X168910000Y-47777500D03*
D16*
G36*
X169215691Y-45715176D02*
X169239401Y-45718693D01*
X169262652Y-45724517D01*
X169285220Y-45732592D01*
X169306889Y-45742841D01*
X169327448Y-45755164D01*
X169346701Y-45769442D01*
X169364461Y-45785539D01*
X169380558Y-45803299D01*
X169394836Y-45822552D01*
X169407159Y-45843111D01*
X169417408Y-45864780D01*
X169425483Y-45887348D01*
X169431307Y-45910599D01*
X169434824Y-45934309D01*
X169436000Y-45958250D01*
X169436000Y-46446750D01*
X169434824Y-46470691D01*
X169431307Y-46494401D01*
X169425483Y-46517652D01*
X169417408Y-46540220D01*
X169407159Y-46561889D01*
X169394836Y-46582448D01*
X169380558Y-46601701D01*
X169364461Y-46619461D01*
X169346701Y-46635558D01*
X169327448Y-46649836D01*
X169306889Y-46662159D01*
X169285220Y-46672408D01*
X169262652Y-46680483D01*
X169239401Y-46686307D01*
X169215691Y-46689824D01*
X169191750Y-46691000D01*
X168628250Y-46691000D01*
X168604309Y-46689824D01*
X168580599Y-46686307D01*
X168557348Y-46680483D01*
X168534780Y-46672408D01*
X168513111Y-46662159D01*
X168492552Y-46649836D01*
X168473299Y-46635558D01*
X168455539Y-46619461D01*
X168439442Y-46601701D01*
X168425164Y-46582448D01*
X168412841Y-46561889D01*
X168402592Y-46540220D01*
X168394517Y-46517652D01*
X168388693Y-46494401D01*
X168385176Y-46470691D01*
X168384000Y-46446750D01*
X168384000Y-45958250D01*
X168385176Y-45934309D01*
X168388693Y-45910599D01*
X168394517Y-45887348D01*
X168402592Y-45864780D01*
X168412841Y-45843111D01*
X168425164Y-45822552D01*
X168439442Y-45803299D01*
X168455539Y-45785539D01*
X168473299Y-45769442D01*
X168492552Y-45755164D01*
X168513111Y-45742841D01*
X168534780Y-45732592D01*
X168557348Y-45724517D01*
X168580599Y-45718693D01*
X168604309Y-45715176D01*
X168628250Y-45714000D01*
X169191750Y-45714000D01*
X169215691Y-45715176D01*
X169215691Y-45715176D01*
G37*
D17*
X168910000Y-46202500D03*
G04 #@! TD*
M02*
