G04 #@! TF.GenerationSoftware,KiCad,Pcbnew,5.0.2-bee76a0~70~ubuntu18.04.1*
G04 #@! TF.CreationDate,2018-12-19T03:46:31+09:00*
G04 #@! TF.ProjectId,modulo-ergo42,6d6f6475-6c6f-42d6-9572-676f34322e6b,rev?*
G04 #@! TF.SameCoordinates,Original*
G04 #@! TF.FileFunction,Legend,Bot*
G04 #@! TF.FilePolarity,Positive*
%FSLAX46Y46*%
G04 Gerber Fmt 4.6, Leading zero omitted, Abs format (unit mm)*
G04 Created by KiCad (PCBNEW 5.0.2-bee76a0~70~ubuntu18.04.1) date 2018年12月19日 03時46分31秒*
%MOMM*%
%LPD*%
G01*
G04 APERTURE LIST*
%ADD10C,0.150000*%
%ADD11R,2.102000X2.602000*%
%ADD12C,3.102000*%
%ADD13C,1.803800*%
%ADD14C,4.089800*%
%ADD15C,1.626000*%
%ADD16R,0.502000X1.202000*%
%ADD17R,1.372000X0.862000*%
%ADD18R,2.602000X2.102000*%
%ADD19R,2.102000X1.302000*%
%ADD20C,1.052000*%
G04 APERTURE END LIST*
D10*
G04 #@! TO.C,U2*
X127215000Y-88480000D02*
X127215000Y-93130000D01*
X119115000Y-87405000D02*
X119115000Y-93130000D01*
X127215000Y-88480000D02*
X127190000Y-88480000D01*
X127215000Y-93130000D02*
X127190000Y-93130000D01*
X119165000Y-93130000D02*
X119190000Y-93130000D01*
G04 #@! TO.C,SW29*
X106680000Y-57150000D02*
X113030000Y-57150000D01*
X106680000Y-53340000D02*
X106680000Y-57150000D01*
X113030000Y-53340000D02*
X106680000Y-53340000D01*
X113030000Y-57150000D02*
X113030000Y-53340000D01*
G04 #@! TO.C,U1*
X127215000Y-50380000D02*
X127215000Y-55030000D01*
X119115000Y-49305000D02*
X119115000Y-55030000D01*
X127215000Y-50380000D02*
X127190000Y-50380000D01*
X127215000Y-55030000D02*
X127190000Y-55030000D01*
X119165000Y-55030000D02*
X119190000Y-55030000D01*
G04 #@! TO.C,J1*
X76200000Y-33860000D02*
X76200000Y-35860000D01*
X71120000Y-33860000D02*
X76200000Y-33860000D01*
X71120000Y-35860000D02*
X71120000Y-33860000D01*
X76710000Y-35860000D02*
X70610000Y-35860000D01*
X76710000Y-47960000D02*
X76710000Y-35860000D01*
X70610000Y-47960000D02*
X76710000Y-47960000D01*
X70610000Y-35860000D02*
X70610000Y-47960000D01*
G04 #@! TO.C,J3*
X95250000Y-33860000D02*
X95250000Y-35860000D01*
X90170000Y-33860000D02*
X95250000Y-33860000D01*
X90170000Y-35860000D02*
X90170000Y-33860000D01*
X95760000Y-35860000D02*
X89660000Y-35860000D01*
X95760000Y-47960000D02*
X95760000Y-35860000D01*
X89660000Y-47960000D02*
X95760000Y-47960000D01*
X89660000Y-35860000D02*
X89660000Y-47960000D01*
G04 #@! TO.C,J4*
X152400000Y-33860000D02*
X152400000Y-35860000D01*
X147320000Y-33860000D02*
X152400000Y-33860000D01*
X147320000Y-35860000D02*
X147320000Y-33860000D01*
X152910000Y-35860000D02*
X146810000Y-35860000D01*
X152910000Y-47960000D02*
X152910000Y-35860000D01*
X146810000Y-47960000D02*
X152910000Y-47960000D01*
X146810000Y-35860000D02*
X146810000Y-47960000D01*
G04 #@! TO.C,J2*
X171450000Y-33860000D02*
X171450000Y-35860000D01*
X166370000Y-33860000D02*
X171450000Y-33860000D01*
X166370000Y-35860000D02*
X166370000Y-33860000D01*
X171960000Y-35860000D02*
X165860000Y-35860000D01*
X171960000Y-47960000D02*
X171960000Y-35860000D01*
X165860000Y-47960000D02*
X171960000Y-47960000D01*
X165860000Y-35860000D02*
X165860000Y-47960000D01*
G04 #@! TO.C,U2*
X117692380Y-90043095D02*
X118501904Y-90043095D01*
X118597142Y-90090714D01*
X118644761Y-90138333D01*
X118692380Y-90233571D01*
X118692380Y-90424047D01*
X118644761Y-90519285D01*
X118597142Y-90566904D01*
X118501904Y-90614523D01*
X117692380Y-90614523D01*
X117787619Y-91043095D02*
X117740000Y-91090714D01*
X117692380Y-91185952D01*
X117692380Y-91424047D01*
X117740000Y-91519285D01*
X117787619Y-91566904D01*
X117882857Y-91614523D01*
X117978095Y-91614523D01*
X118120952Y-91566904D01*
X118692380Y-90995476D01*
X118692380Y-91614523D01*
G04 #@! TO.C,SW29*
X103909761Y-53435476D02*
X103957380Y-53578333D01*
X103957380Y-53816428D01*
X103909761Y-53911666D01*
X103862142Y-53959285D01*
X103766904Y-54006904D01*
X103671666Y-54006904D01*
X103576428Y-53959285D01*
X103528809Y-53911666D01*
X103481190Y-53816428D01*
X103433571Y-53625952D01*
X103385952Y-53530714D01*
X103338333Y-53483095D01*
X103243095Y-53435476D01*
X103147857Y-53435476D01*
X103052619Y-53483095D01*
X103005000Y-53530714D01*
X102957380Y-53625952D01*
X102957380Y-53864047D01*
X103005000Y-54006904D01*
X102957380Y-54340238D02*
X103957380Y-54578333D01*
X103243095Y-54768809D01*
X103957380Y-54959285D01*
X102957380Y-55197380D01*
X103052619Y-55530714D02*
X103005000Y-55578333D01*
X102957380Y-55673571D01*
X102957380Y-55911666D01*
X103005000Y-56006904D01*
X103052619Y-56054523D01*
X103147857Y-56102142D01*
X103243095Y-56102142D01*
X103385952Y-56054523D01*
X103957380Y-55483095D01*
X103957380Y-56102142D01*
X103957380Y-56578333D02*
X103957380Y-56768809D01*
X103909761Y-56864047D01*
X103862142Y-56911666D01*
X103719285Y-57006904D01*
X103528809Y-57054523D01*
X103147857Y-57054523D01*
X103052619Y-57006904D01*
X103005000Y-56959285D01*
X102957380Y-56864047D01*
X102957380Y-56673571D01*
X103005000Y-56578333D01*
X103052619Y-56530714D01*
X103147857Y-56483095D01*
X103385952Y-56483095D01*
X103481190Y-56530714D01*
X103528809Y-56578333D01*
X103576428Y-56673571D01*
X103576428Y-56864047D01*
X103528809Y-56959285D01*
X103481190Y-57006904D01*
X103385952Y-57054523D01*
G04 #@! TO.C,U1*
X117692380Y-51943095D02*
X118501904Y-51943095D01*
X118597142Y-51990714D01*
X118644761Y-52038333D01*
X118692380Y-52133571D01*
X118692380Y-52324047D01*
X118644761Y-52419285D01*
X118597142Y-52466904D01*
X118501904Y-52514523D01*
X117692380Y-52514523D01*
X118692380Y-53514523D02*
X118692380Y-52943095D01*
X118692380Y-53228809D02*
X117692380Y-53228809D01*
X117835238Y-53133571D01*
X117930476Y-53038333D01*
X117978095Y-52943095D01*
G04 #@! TO.C,J1*
X79462380Y-41576666D02*
X80176666Y-41576666D01*
X80319523Y-41529047D01*
X80414761Y-41433809D01*
X80462380Y-41290952D01*
X80462380Y-41195714D01*
X80462380Y-42576666D02*
X80462380Y-42005238D01*
X80462380Y-42290952D02*
X79462380Y-42290952D01*
X79605238Y-42195714D01*
X79700476Y-42100476D01*
X79748095Y-42005238D01*
G04 #@! TO.C,J3*
X98512380Y-41576666D02*
X99226666Y-41576666D01*
X99369523Y-41529047D01*
X99464761Y-41433809D01*
X99512380Y-41290952D01*
X99512380Y-41195714D01*
X98512380Y-41957619D02*
X98512380Y-42576666D01*
X98893333Y-42243333D01*
X98893333Y-42386190D01*
X98940952Y-42481428D01*
X98988571Y-42529047D01*
X99083809Y-42576666D01*
X99321904Y-42576666D01*
X99417142Y-42529047D01*
X99464761Y-42481428D01*
X99512380Y-42386190D01*
X99512380Y-42100476D01*
X99464761Y-42005238D01*
X99417142Y-41957619D01*
G04 #@! TO.C,J4*
X155662380Y-41576666D02*
X156376666Y-41576666D01*
X156519523Y-41529047D01*
X156614761Y-41433809D01*
X156662380Y-41290952D01*
X156662380Y-41195714D01*
X155995714Y-42481428D02*
X156662380Y-42481428D01*
X155614761Y-42243333D02*
X156329047Y-42005238D01*
X156329047Y-42624285D01*
G04 #@! TO.C,J2*
X174712380Y-41576666D02*
X175426666Y-41576666D01*
X175569523Y-41529047D01*
X175664761Y-41433809D01*
X175712380Y-41290952D01*
X175712380Y-41195714D01*
X174807619Y-42005238D02*
X174760000Y-42052857D01*
X174712380Y-42148095D01*
X174712380Y-42386190D01*
X174760000Y-42481428D01*
X174807619Y-42529047D01*
X174902857Y-42576666D01*
X174998095Y-42576666D01*
X175140952Y-42529047D01*
X175712380Y-41957619D01*
X175712380Y-42576666D01*
G04 #@! TD*
%LPC*%
D11*
G04 #@! TO.C,SW13*
X115670000Y-43180000D03*
X129440000Y-40640000D03*
D12*
X125730000Y-40640000D03*
X119380000Y-43180000D03*
D13*
X128270000Y-45720000D03*
X118110000Y-45720000D03*
D14*
X123190000Y-45720000D03*
G04 #@! TD*
D15*
G04 #@! TO.C,*
X56769000Y-55245000D03*
G04 #@! TD*
G04 #@! TO.C,*
X56769000Y-93345000D03*
G04 #@! TD*
G04 #@! TO.C,*
X189611000Y-93345000D03*
G04 #@! TD*
G04 #@! TO.C,*
X189611000Y-55245000D03*
G04 #@! TD*
G04 #@! TO.C,*
X142240000Y-36449000D03*
G04 #@! TD*
G04 #@! TO.C,*
X104140000Y-36449000D03*
G04 #@! TD*
G04 #@! TO.C,*
X56769000Y-36449000D03*
G04 #@! TD*
G04 #@! TO.C,*
X56769000Y-112141000D03*
G04 #@! TD*
G04 #@! TO.C,*
X104140000Y-112141000D03*
G04 #@! TD*
G04 #@! TO.C,*
X142240000Y-112141000D03*
G04 #@! TD*
G04 #@! TO.C,*
X189611000Y-112141000D03*
G04 #@! TD*
G04 #@! TO.C,*
X189611000Y-36449000D03*
G04 #@! TD*
G04 #@! TO.C,*
X94615000Y-74295000D03*
G04 #@! TD*
G04 #@! TO.C,*
X151765000Y-74295000D03*
G04 #@! TD*
D16*
G04 #@! TO.C,U2*
X119615000Y-93655000D03*
X120265000Y-93655000D03*
X120915000Y-93655000D03*
X121565000Y-93655000D03*
X122215000Y-93655000D03*
X122865000Y-93655000D03*
X123515000Y-93655000D03*
X124165000Y-93655000D03*
X124815000Y-93655000D03*
X125465000Y-93655000D03*
X126115000Y-93655000D03*
X126765000Y-93655000D03*
X126765000Y-87955000D03*
X126115000Y-87955000D03*
X125465000Y-87955000D03*
X124815000Y-87955000D03*
X124165000Y-87955000D03*
X123515000Y-87955000D03*
X122865000Y-87955000D03*
X122215000Y-87955000D03*
X121565000Y-87955000D03*
X120915000Y-87955000D03*
X120265000Y-87955000D03*
X119615000Y-87955000D03*
G04 #@! TD*
D17*
G04 #@! TO.C,SW29*
X106045000Y-54610000D03*
X106045000Y-55880000D03*
X113665000Y-55880000D03*
X113665000Y-54610000D03*
G04 #@! TD*
D18*
G04 #@! TO.C,SW28*
X182880000Y-95350000D03*
X185420000Y-109120000D03*
D12*
X185420000Y-105410000D03*
X182880000Y-99060000D03*
D13*
X180340000Y-107950000D03*
X180340000Y-97790000D03*
D14*
X180340000Y-102870000D03*
G04 #@! TD*
D18*
G04 #@! TO.C,SW27*
X177800000Y-91340000D03*
X175260000Y-77570000D03*
D12*
X175260000Y-81280000D03*
X177800000Y-87630000D03*
D13*
X180340000Y-78740000D03*
X180340000Y-88900000D03*
D14*
X180340000Y-83820000D03*
G04 #@! TD*
D18*
G04 #@! TO.C,SW26*
X177800000Y-72290000D03*
X175260000Y-58520000D03*
D12*
X175260000Y-62230000D03*
X177800000Y-68580000D03*
D13*
X180340000Y-59690000D03*
X180340000Y-69850000D03*
D14*
X180340000Y-64770000D03*
G04 #@! TD*
D18*
G04 #@! TO.C,SW25*
X177800000Y-53240000D03*
X175260000Y-39470000D03*
D12*
X175260000Y-43180000D03*
X177800000Y-49530000D03*
D13*
X180340000Y-40640000D03*
X180340000Y-50800000D03*
D14*
X180340000Y-45720000D03*
G04 #@! TD*
D11*
G04 #@! TO.C,SW24*
X153770000Y-100330000D03*
X167540000Y-97790000D03*
D12*
X163830000Y-97790000D03*
X157480000Y-100330000D03*
D13*
X166370000Y-102870000D03*
X156210000Y-102870000D03*
D14*
X161290000Y-102870000D03*
G04 #@! TD*
D11*
G04 #@! TO.C,SW23*
X153770000Y-81280000D03*
X167540000Y-78740000D03*
D12*
X163830000Y-78740000D03*
X157480000Y-81280000D03*
D13*
X166370000Y-83820000D03*
X156210000Y-83820000D03*
D14*
X161290000Y-83820000D03*
G04 #@! TD*
D11*
G04 #@! TO.C,SW22*
X153770000Y-62230000D03*
X167540000Y-59690000D03*
D12*
X163830000Y-59690000D03*
X157480000Y-62230000D03*
D13*
X166370000Y-64770000D03*
X156210000Y-64770000D03*
D14*
X161290000Y-64770000D03*
G04 #@! TD*
D18*
G04 #@! TO.C,SW21*
X158750000Y-53240000D03*
X156210000Y-39470000D03*
D12*
X156210000Y-43180000D03*
X158750000Y-49530000D03*
D13*
X161290000Y-40640000D03*
X161290000Y-50800000D03*
D14*
X161290000Y-45720000D03*
G04 #@! TD*
D11*
G04 #@! TO.C,SW20*
X134720000Y-100330000D03*
X148490000Y-97790000D03*
D12*
X144780000Y-97790000D03*
X138430000Y-100330000D03*
D13*
X147320000Y-102870000D03*
X137160000Y-102870000D03*
D14*
X142240000Y-102870000D03*
G04 #@! TD*
D11*
G04 #@! TO.C,SW19*
X134720000Y-81280000D03*
X148490000Y-78740000D03*
D12*
X144780000Y-78740000D03*
X138430000Y-81280000D03*
D13*
X147320000Y-83820000D03*
X137160000Y-83820000D03*
D14*
X142240000Y-83820000D03*
G04 #@! TD*
D11*
G04 #@! TO.C,SW18*
X134720000Y-62230000D03*
X148490000Y-59690000D03*
D12*
X144780000Y-59690000D03*
X138430000Y-62230000D03*
D13*
X147320000Y-64770000D03*
X137160000Y-64770000D03*
D14*
X142240000Y-64770000D03*
G04 #@! TD*
D18*
G04 #@! TO.C,SW17*
X139700000Y-53240000D03*
X137160000Y-39470000D03*
D12*
X137160000Y-43180000D03*
X139700000Y-49530000D03*
D13*
X142240000Y-40640000D03*
X142240000Y-50800000D03*
D14*
X142240000Y-45720000D03*
G04 #@! TD*
D11*
G04 #@! TO.C,SW16*
X115670000Y-100330000D03*
X129440000Y-97790000D03*
D12*
X125730000Y-97790000D03*
X119380000Y-100330000D03*
D13*
X128270000Y-102870000D03*
X118110000Y-102870000D03*
D14*
X123190000Y-102870000D03*
G04 #@! TD*
D11*
G04 #@! TO.C,SW15*
X115670000Y-81280000D03*
X129440000Y-78740000D03*
D12*
X125730000Y-78740000D03*
X119380000Y-81280000D03*
D13*
X128270000Y-83820000D03*
X118110000Y-83820000D03*
D14*
X123190000Y-83820000D03*
G04 #@! TD*
D11*
G04 #@! TO.C,SW14*
X115670000Y-62230000D03*
X129440000Y-59690000D03*
D12*
X125730000Y-59690000D03*
X119380000Y-62230000D03*
D13*
X128270000Y-64770000D03*
X118110000Y-64770000D03*
D14*
X123190000Y-64770000D03*
G04 #@! TD*
D11*
G04 #@! TO.C,SW12*
X96620000Y-100330000D03*
X110390000Y-97790000D03*
D12*
X106680000Y-97790000D03*
X100330000Y-100330000D03*
D13*
X109220000Y-102870000D03*
X99060000Y-102870000D03*
D14*
X104140000Y-102870000D03*
G04 #@! TD*
D11*
G04 #@! TO.C,SW11*
X96620000Y-81280000D03*
X110390000Y-78740000D03*
D12*
X106680000Y-78740000D03*
X100330000Y-81280000D03*
D13*
X109220000Y-83820000D03*
X99060000Y-83820000D03*
D14*
X104140000Y-83820000D03*
G04 #@! TD*
D11*
G04 #@! TO.C,SW10*
X96620000Y-62230000D03*
X110390000Y-59690000D03*
D12*
X106680000Y-59690000D03*
X100330000Y-62230000D03*
D13*
X109220000Y-64770000D03*
X99060000Y-64770000D03*
D14*
X104140000Y-64770000D03*
G04 #@! TD*
D18*
G04 #@! TO.C,SW9*
X101600000Y-53240000D03*
X99060000Y-39470000D03*
D12*
X99060000Y-43180000D03*
X101600000Y-49530000D03*
D13*
X104140000Y-40640000D03*
X104140000Y-50800000D03*
D14*
X104140000Y-45720000D03*
G04 #@! TD*
D11*
G04 #@! TO.C,SW8*
X77570000Y-100330000D03*
X91340000Y-97790000D03*
D12*
X87630000Y-97790000D03*
X81280000Y-100330000D03*
D13*
X90170000Y-102870000D03*
X80010000Y-102870000D03*
D14*
X85090000Y-102870000D03*
G04 #@! TD*
D18*
G04 #@! TO.C,SW4*
X68580000Y-95350000D03*
X71120000Y-109120000D03*
D12*
X71120000Y-105410000D03*
X68580000Y-99060000D03*
D13*
X66040000Y-107950000D03*
X66040000Y-97790000D03*
D14*
X66040000Y-102870000D03*
G04 #@! TD*
D18*
G04 #@! TO.C,SW3*
X68580000Y-76300000D03*
X71120000Y-90070000D03*
D12*
X71120000Y-86360000D03*
X68580000Y-80010000D03*
D13*
X66040000Y-88900000D03*
X66040000Y-78740000D03*
D14*
X66040000Y-83820000D03*
G04 #@! TD*
D18*
G04 #@! TO.C,SW2*
X68580000Y-57250000D03*
X71120000Y-71020000D03*
D12*
X71120000Y-67310000D03*
X68580000Y-60960000D03*
D13*
X66040000Y-69850000D03*
X66040000Y-59690000D03*
D14*
X66040000Y-64770000D03*
G04 #@! TD*
D18*
G04 #@! TO.C,SW1*
X63500000Y-53240000D03*
X60960000Y-39470000D03*
D12*
X60960000Y-43180000D03*
X63500000Y-49530000D03*
D13*
X66040000Y-40640000D03*
X66040000Y-50800000D03*
D14*
X66040000Y-45720000D03*
G04 #@! TD*
D18*
G04 #@! TO.C,SW5*
X82550000Y-53240000D03*
X80010000Y-39470000D03*
D12*
X80010000Y-43180000D03*
X82550000Y-49530000D03*
D13*
X85090000Y-40640000D03*
X85090000Y-50800000D03*
D14*
X85090000Y-45720000D03*
G04 #@! TD*
D16*
G04 #@! TO.C,U1*
X119615000Y-55555000D03*
X120265000Y-55555000D03*
X120915000Y-55555000D03*
X121565000Y-55555000D03*
X122215000Y-55555000D03*
X122865000Y-55555000D03*
X123515000Y-55555000D03*
X124165000Y-55555000D03*
X124815000Y-55555000D03*
X125465000Y-55555000D03*
X126115000Y-55555000D03*
X126765000Y-55555000D03*
X126765000Y-49855000D03*
X126115000Y-49855000D03*
X125465000Y-49855000D03*
X124815000Y-49855000D03*
X124165000Y-49855000D03*
X123515000Y-49855000D03*
X122865000Y-49855000D03*
X122215000Y-49855000D03*
X121565000Y-49855000D03*
X120915000Y-49855000D03*
X120265000Y-49855000D03*
X119615000Y-49855000D03*
G04 #@! TD*
D11*
G04 #@! TO.C,SW7*
X77570000Y-81280000D03*
X91340000Y-78740000D03*
D12*
X87630000Y-78740000D03*
X81280000Y-81280000D03*
D13*
X90170000Y-83820000D03*
X80010000Y-83820000D03*
D14*
X85090000Y-83820000D03*
G04 #@! TD*
D11*
G04 #@! TO.C,SW6*
X77570000Y-62230000D03*
X91340000Y-59690000D03*
D12*
X87630000Y-59690000D03*
X81280000Y-62230000D03*
D13*
X90170000Y-64770000D03*
X80010000Y-64770000D03*
D14*
X85090000Y-64770000D03*
G04 #@! TD*
D19*
G04 #@! TO.C,J1*
X69760000Y-39060000D03*
X69760000Y-42060000D03*
X69760000Y-46060000D03*
X77560000Y-47160000D03*
D20*
X73660000Y-44460000D03*
X73660000Y-37460000D03*
G04 #@! TD*
D19*
G04 #@! TO.C,J3*
X88810000Y-39060000D03*
X88810000Y-42060000D03*
X88810000Y-46060000D03*
X96610000Y-47160000D03*
D20*
X92710000Y-44460000D03*
X92710000Y-37460000D03*
G04 #@! TD*
D19*
G04 #@! TO.C,J4*
X145960000Y-39060000D03*
X145960000Y-42060000D03*
X145960000Y-46060000D03*
X153760000Y-47160000D03*
D20*
X149860000Y-44460000D03*
X149860000Y-37460000D03*
G04 #@! TD*
D19*
G04 #@! TO.C,J2*
X165010000Y-39060000D03*
X165010000Y-42060000D03*
X165010000Y-46060000D03*
X172810000Y-47160000D03*
D20*
X168910000Y-44460000D03*
X168910000Y-37460000D03*
G04 #@! TD*
M02*
